<svg width="80" height="80" viewBox="0 0 80 80" fill="none" xmlns="http://www.w3.org/2000/svg">
<path fill-rule="evenodd" clip-rule="evenodd" d="M41.1206 11C40.4053 12.3758 40 13.941 40 15.6055C40 13.941 39.5947 12.3758 38.8794 11H41.1206ZM74 11H80V74H0V11H6V67L27.4765 65.3156C30.0577 65.1131 32.6168 65.9197 34.6154 67.5657L40 72L45.3846 67.5657C47.3832 65.9197 49.9423 65.1131 52.5235 65.3156L74 67V11Z" fill="#1B1B1B"/>
<path d="M6 7L29.4128 5.62278C35.1566 5.28491 40 9.8518 40 15.6055V72L34.6154 67.5657C32.6168 65.9197 30.0577 65.1131 27.4765 65.3156L6 67V7Z" stroke="#1B1B1B" stroke-width="2" stroke-miterlimit="10"/>
<path d="M40 72V15.6055C40 9.8518 44.8434 5.28491 50.5872 5.62278L74 7V67L52.5235 65.3156C49.9423 65.1131 47.3832 65.9197 45.3846 67.5657L40 72Z" stroke="#1B1B1B" stroke-width="2" stroke-miterlimit="10"/>
<path d="M67 28L61 23L55 28V3H67V28Z" fill="#1B1B1B"/>
</svg>
