<svg width="80" height="80" viewBox="0 0 80 80" fill="none" xmlns="http://www.w3.org/2000/svg">
<g clip-path="url(#clip0)">
<path d="M3.70335e-06 51L4.29153e-06 17L8 17L8 51L3.70335e-06 51Z" fill="#1B1B1B"/>
<path d="M41 22L7 20L7 48H15" stroke="#1B1B1B" stroke-width="2"/>
<path d="M57.5003 26.3037V26.3037C55.7671 31.6164 50.4499 34.9064 44.9208 34.0961V34.0961C44.515 34.0367 44.107 34.1924 43.8445 34.5074L42.3369 36.3166C40.3421 38.7102 37.6379 40.4076 34.6151 41.1633L33.806 41.3656C32.2425 41.7565 30.5908 41.2563 29.5067 40.0639V40.0639C27.7699 38.1534 28.0562 35.1623 30.1239 33.616L35.0809 29.9088C38.2056 27.5719 40.464 24.2618 41.5002 20.5001V20.5001" stroke="#1B1B1B" stroke-width="2"/>
<ellipse cx="32.9761" cy="34.6209" rx="2.41252" ry="3.56755" transform="rotate(50.9609 32.9761 34.6209)" stroke="#1B1B1B" stroke-width="2"/>
<path d="M66 51L73 48L73 20C73 20 48.7668 15 43 15C37.2332 15 33.0548 18.862 30 21.5" stroke="#1B1B1B" stroke-width="2"/>
<path d="M80 51L80 17L72 17L72 51L80 51Z" fill="#1B1B1B"/>
<path d="M55 30.5L65.1009 42.8966C65.6825 43.6103 66 44.5027 66 45.4233L66 56.5C66 58.433 64.433 60 62.5 60V60C60.567 60 59 58.433 59 56.5L59 47.5208C59 46.5411 58.6405 45.5955 57.9896 44.8633L55 41.5" stroke="#1B1B1B" stroke-width="2"/>
<path d="M59 49L59 58.5C59 60.433 57.433 62 55.5 62V62C53.567 62 52 60.433 52 58.5L52 49L48.5 45.5" stroke="#1B1B1B" stroke-width="2"/>
<path d="M51.9997 51L51.9997 60.5C51.9997 62.433 50.4327 64 48.4997 64C46.7365 64 45.2778 62.6961 45.0352 61" stroke="#1B1B1B" stroke-width="2"/>
<path d="M40.6504 52.6435L37.6504 57.8396C36.5458 59.7528 37.2013 62.1991 39.1145 63.3037C41.0277 64.4083 43.474 63.7528 44.5786 61.8396L47.5786 56.6435C48.6832 54.7303 48.0277 52.2839 46.1145 51.1794C44.2013 50.0748 41.755 50.7303 40.6504 52.6435Z" stroke="#1B1B1B" stroke-width="2"/>
<path d="M34.2227 47.7775L29.2227 56.4378C28.1181 58.3509 28.7736 60.7973 30.6868 61.9019C32.5999 63.0064 35.0463 62.3509 36.1509 60.4378L41.1509 51.7775C42.2554 49.8643 41.5999 47.418 39.6868 46.3134C37.7736 45.2088 35.3272 45.8643 34.2227 47.7775Z" stroke="#1B1B1B" stroke-width="2"/>
<path d="M27.2939 43.7774L21.2939 54.1697C20.1894 56.0829 20.8449 58.5292 22.758 59.6338C24.6712 60.7384 27.1176 60.0829 28.2221 58.1697L34.2221 47.7774C35.3267 45.8642 34.6712 43.4179 32.758 42.3133C30.8449 41.2087 28.3985 41.8642 27.2939 43.7774Z" stroke="#1B1B1B" stroke-width="2"/>
<path d="M21.7939 53.3039L25.7939 46.3757C26.8985 44.4626 26.243 42.0162 24.3298 40.9116C22.4167 39.8071 19.9703 40.4626 18.8657 42.3757L14.8657 49.3039C13.7612 51.2171 14.4167 53.6635 16.3298 54.768C18.243 55.8726 20.6894 55.2171 21.7939 53.3039Z" stroke="#1B1B1B" stroke-width="2"/>
<ellipse cx="28.1603" cy="47.0098" rx="3" ry="2" transform="rotate(-60 28.1603 47.0098)" stroke="#1B1B1B" stroke-width="2"/>
<ellipse cx="35.0885" cy="51.0098" rx="3" ry="2" transform="rotate(-60 35.0885 51.0098)" stroke="#1B1B1B" stroke-width="2"/>
<ellipse cx="42.0167" cy="55.0098" rx="3" ry="2" transform="rotate(-60 42.0167 55.0098)" stroke="#1B1B1B" stroke-width="2"/>
<ellipse cx="20.232" cy="44.7418" rx="3" ry="2" transform="rotate(-60 20.232 44.7418)" stroke="#1B1B1B" stroke-width="2"/>
</g>
<defs>
<clipPath id="clip0">
<rect width="80" height="80" fill="white"/>
</clipPath>
</defs>
</svg>
