<svg width="80" height="80" viewBox="0 0 80 80" fill="none" xmlns="http://www.w3.org/2000/svg">
<g clip-path="url(#clip0)">
<path d="M7 65L31.1717 70.6113C33.6589 71.1887 36.2654 70.9577 38.6123 69.9519L76.3297 53.7873C78.5444 52.8381 79.4264 50.163 78.2107 48.0827V48.0827C77.1839 46.3258 75.0033 45.6176 73.1402 46.4358L52.5001 55.5" stroke="#1B1B1B" stroke-width="2"/>
<path d="M55 48.0215L67.6764 44.0601C69.5456 43.476 71.547 44.4438 72.25 46.2715V46.2715" stroke="#1B1B1B" stroke-width="2"/>
<path d="M63.0002 45.5215L55.0002 48.0215C55.8002 50.0214 54.6668 53.5071 54.0002 55L65.0002 50C65.4002 48 63.8335 46.181 63.0002 45.5215Z" fill="#1B1B1B"/>
<path d="M8 71L8 41L0 41L1.34968e-06 71L8 71Z" fill="#1B1B1B"/>
<path d="M7.00024 43.0001L7.43019 42.5702C10.9967 39.0037 15.8339 37 20.8776 37V37C23.4242 37 25.9448 37.5115 28.29 38.504L39.5445 43.2673C39.9065 43.4206 40.2892 43.5196 40.6802 43.5612L46.0723 44.1351C48.326 44.375 50.4917 45.1419 52.3941 46.3739L52.6189 46.5194C54.8246 47.9477 55.6694 50.7644 54.6138 53.1707V53.1707C53.5261 55.6506 50.7593 56.9294 48.1656 56.1511L34.8315 52.1497C32.2909 51.3873 29.6527 51 27.0002 51V51" stroke="#1B1B1B" stroke-width="2"/>
<circle cx="46" cy="17" r="16" stroke="#1B1B1B" stroke-width="2"/>
<path d="M50.625 11.4353C49.625 10.0118 47.5 9.23529 46 9.23529M46 9.23529C44.5 9.23529 41.5 9.75294 41.5 12.9882C41.5 15.5765 43.125 15.7059 46 16.7412C49.25 17.9059 51 18.6824 51 20.8824C51 23.4706 48.5 25.2824 46 25.2824M46 9.23529V6M46 25.2824C43.5 25.2824 41.875 23.6 41 22.3059M46 25.2824V28" stroke="#1B1B1B" stroke-width="2" stroke-miterlimit="10" stroke-linecap="square" stroke-linejoin="round"/>
<path d="M77.721 53C76.7334 51.4148 75.3717 51 74 51C71.7909 51 70 52.7909 70 55C70 55.5305 70.1033 56.0368 70.2908 56.5" stroke="#1B1B1B" stroke-width="2"/>
<ellipse cx="47.7354" cy="52.8212" rx="3" ry="4.43629" transform="rotate(-69.0391 47.7354 52.8212)" stroke="#1B1B1B" stroke-width="2"/>
<path d="M29.9999 70L8 51V65L29.9999 70Z" fill="#1B1B1B"/>
<path fill-rule="evenodd" clip-rule="evenodd" d="M46 33C54.8366 33 62 25.8366 62 17C62 12.0725 59.7726 7.66532 56.2697 4.7303L57 4L61 7.99999C67.6274 14.6274 67.6274 25.3726 61 32C54.3726 38.6274 43.6274 38.6274 37 32L33 28L33.7303 27.2697C36.6653 30.7726 41.0725 33 46 33Z" fill="#1B1B1B"/>
</g>
<defs>
<clipPath id="clip0">
<rect width="80" height="80" fill="white"/>
</clipPath>
</defs>
</svg>
