<svg width="80" height="80" viewBox="0 0 80 80" fill="none" xmlns="http://www.w3.org/2000/svg">
<path fill-rule="evenodd" clip-rule="evenodd" d="M38.6391 0H41.4927C46.1042 0 49.7608 3.88855 49.4776 8.49138L49.0467 15.4937C48.0418 15.4955 47.0281 15.6287 46.0302 15.9009L34.8895 18.9393C33.4267 19.3382 32.2707 20.3596 31.6666 21.6643L30.6627 8.61357C30.3053 3.96721 33.9791 0 38.6391 0ZM32.8762 37.3885L33.0001 39H36.3818L38.0001 39C40.2093 39 42.0001 40.7909 42.0001 43C42.0001 45.2092 40.2093 47 38.0001 47C40.2093 47 42.0001 48.7909 42.0001 51C42.0001 53.2092 40.2093 55 38.0001 55H34.2309L35.0001 65H46.0001L46.554 56H46.0001L48.0001 26.5L41.0001 29V34.3817C41.0001 36.9323 38.9324 39 36.3818 39C34.9839 39 33.7252 38.3773 32.8762 37.3885Z" fill="#1B1B1B"/>
<rect x="24" y="76" width="32" height="4" fill="#1B1B1B"/>
<path d="M20 72C20 68.6863 22.6863 66 26 66H54C57.3137 66 60 68.6863 60 72V76H20V72Z" stroke="#1B1B1B" stroke-width="2"/>
<path d="M31 31H28C25.7909 31 24 29.2091 24 27V27C24 24.7909 25.7909 23 28 23H31" stroke="#1B1B1B" stroke-width="2"/>
<path d="M34 39H26C23.7909 39 22 37.2091 22 35V35C22 32.7909 23.7909 31 26 31H32" stroke="#1B1B1B" stroke-width="2"/>
<path d="M38 47H26C23.7909 47 22 45.2091 22 43C22 40.7909 23.7909 39 26 39H38C40.2091 39 42 40.7909 42 43C42 45.2091 40.2091 47 38 47Z" stroke="#1B1B1B" stroke-width="2"/>
<path d="M38 55H29C26.7909 55 25 53.2091 25 51C25 48.7909 26.7909 47 29 47H38C40.2091 47 42 48.7909 42 51C42 53.2091 40.2091 55 38 55Z" stroke="#1B1B1B" stroke-width="2"/>
<path d="M41 29L40.6637 28.0583L40 28.2953L40 29L41 29ZM74 26L75 26L75 25.2457L74.2747 25.0385L74 26ZM74 51L74 52L75 52L75 51L74 51ZM46 56L45.0023 55.9324L44.9299 57L46 57L46 56ZM48 26.5L48.9977 26.5676L47.6637 25.5583L48 26.5ZM70.1478 51L70.1478 52L70.1478 51ZM46.0301 15.9009L46.2932 16.8656L46.0301 15.9009ZM34.8894 18.9393L35.1525 19.904L34.8894 18.9393ZM31.2119 24.0259L30.2133 24.0784L31.2119 24.0259ZM31.7697 34.6244L32.7683 34.5718L31.7697 34.6244ZM35.1525 19.904L46.2932 16.8656L45.767 14.9361L34.6263 17.9745L35.1525 19.904ZM62.9999 23.8971L73.7253 26.9615L74.2747 25.0385L63.5494 21.9741L62.9999 23.8971ZM73 26L73 51L75 51L75 26L73 26ZM74 50L70.1478 50L70.1478 52L74 52L74 50ZM50.8522 55L46 55L46 57L50.8522 57L50.8522 55ZM46.9977 56.0676L48.9977 26.5676L47.0023 26.4324L45.0023 55.9324L46.9977 56.0676ZM41.3363 29.9417L48.3363 27.4417L47.6637 25.5583L40.6637 28.0583L41.3363 29.9417ZM30.2133 24.0784L30.7711 34.677L32.7683 34.5718L32.2105 23.9733L30.2133 24.0784ZM42 34.3817L42 29L40 29L40 34.3817L42 34.3817ZM60.0144 52.6258C57.2117 54.1829 54.0584 55 50.8522 55L50.8522 57C54.3983 57 57.8858 56.0963 60.9856 54.3742L60.0144 52.6258ZM70.1478 50C66.6017 50 63.1142 50.9037 60.0144 52.6258L60.9856 54.3742C63.7883 52.8171 66.9416 52 70.1478 52L70.1478 50ZM46.2932 16.8656C50.1876 15.8035 54.3466 17.0576 57.0048 20.0955L58.5099 18.7784C55.3477 15.1645 50.3999 13.6726 45.767 14.9361L46.2932 16.8656ZM34.6263 17.9745C31.9023 18.7174 30.0649 21.2589 30.2133 24.0784L32.2105 23.9733C32.1116 22.0936 33.3365 20.3993 35.1525 19.904L34.6263 17.9745ZM36.3817 40C39.4846 40 42 37.4846 42 34.3817L40 34.3817C40 36.38 38.38 38 36.3817 38L36.3817 40ZM57.0048 20.0955C58.5955 21.9134 60.6772 23.2335 62.9999 23.8971L63.5494 21.9741C61.5969 21.4163 59.8471 20.3066 58.5099 18.7784L57.0048 20.0955ZM36.3817 38C34.4572 38 32.8695 36.4936 32.7683 34.5718L30.7711 34.677C30.9281 37.661 33.3935 40 36.3817 40L36.3817 38Z" fill="#1B1B1B"/>
<ellipse cx="34.5" cy="33" rx="2.5" ry="3" stroke="#1B1B1B" stroke-width="2"/>
<ellipse cx="35.5" cy="43" rx="2" ry="2.5" transform="rotate(90 35.5 43)" stroke="#1B1B1B" stroke-width="2"/>
<ellipse cx="35.5" cy="51" rx="2" ry="2.5" transform="rotate(90 35.5 51)" stroke="#1B1B1B" stroke-width="2"/>
<path d="M80 55L80 23L72 23L72 55L80 55Z" fill="#1B1B1B"/>
</svg>
