<svg width="80" height="80" viewBox="0 0 80 80" fill="none" xmlns="http://www.w3.org/2000/svg">
<g clip-path="url(#clip0)">
<path d="M56 80L24 80L24 72L56 72L56 80Z" fill="#1B1B1B"/>
<path d="M46 36L46 7.55467C46 5.59148 47.5915 4 49.5547 4V4C51.4746 4 53.0476 5.52462 53.1076 7.44365L54 36" stroke="#1B1B1B" stroke-width="2"/>
<path d="M38 36L38 5C38 2.79086 39.7909 0.999999 42 1V1C44.2091 1 46 2.79086 46 5L46 36" stroke="#1B1B1B" stroke-width="2"/>
<path d="M30 36L30 8C30 5.79086 31.7909 4 34 4V4C36.2091 4 38 5.79086 38 8L38 36" stroke="#1B1B1B" stroke-width="2"/>
<path d="M30 36L30 12.557C30 10.5925 28.4075 9 26.443 9V9C24.5236 9 22.951 10.5093 22.8898 12.4277C22.6299 20.5852 22 40.7845 22 44.9737C22 50.252 23.2289 55.4579 25.5895 60.1789L25.8885 60.7771C27.2771 63.5542 28 66.6165 28 69.7214L28 74" stroke="#1B1B1B" stroke-width="2"/>
<path d="M52 71.7268L52 74L54 74L54 71.7268L52 71.7268ZM53 30.4511L53 37.56L55 37.56L55 30.4511L53 30.4511ZM42 48.56L42 51H44L44 48.56H42ZM63 48.2732L63 38.7036L61 38.7036L61 48.2732L63 48.2732ZM63 38.7036C63 36.3149 63.2614 33.9334 63.7796 31.6015L61.8272 31.1677C61.2774 33.6419 61 36.169 61 38.7036L63 38.7036ZM53.56 37C47.1756 37 42 42.1756 42 48.56H44C44 43.2802 48.2802 39 53.56 39V37ZM58.4658 25C55.4595 25 53 27.4363 53 30.4511L55 30.4511C55 28.5494 56.5555 27 58.4658 27V25ZM58.4658 27C60.6627 27 62.3012 29.0346 61.8272 31.1677L63.7796 31.6015C64.5337 28.208 61.9304 25 58.4658 25V27ZM56.7567 59.331C53.6944 62.7336 52 67.1492 52 71.7268L54 71.7268C54 67.6433 55.5115 63.7042 58.2433 60.669L56.7567 59.331ZM53 37.56C53 37.2507 53.2507 37 53.56 37V39C54.3553 39 55 38.3553 55 37.56L53 37.56ZM58.2433 60.669C61.3056 57.2664 63 52.8508 63 48.2732L61 48.2732C61 52.3567 59.4885 56.2958 56.7567 59.331L58.2433 60.669Z" fill="#1B1B1B"/>
<path d="M62 36C61.2044 36 60.4413 35.6313 59.8787 34.9749C59.3161 34.3185 59 33.4283 59 32.5C59 31.5717 59.3161 30.6815 59.8787 30.0251C60.4413 29.3687 61.2043 29 62 29" stroke="#1B1B1B" stroke-width="2"/>
<path d="M27 35H49" stroke="#1B1B1B" stroke-width="2"/>
</g>
<defs>
<clipPath id="clip0">
<rect width="80" height="80" fill="white"/>
</clipPath>
</defs>
</svg>
