<svg width="80" height="80" viewBox="0 0 80 80" fill="none" xmlns="http://www.w3.org/2000/svg">
<path d="M9.24016 64.1775L42.0121 31.4055L47.669 37.0624L14.897 69.8343M9.24016 64.1775L7.82595 62.7633C7.0449 61.9822 5.77857 61.9822 4.99752 62.7633L2.41421 65.3466C1.63316 66.1276 1.63317 67.394 2.41421 68.175L10.8995 76.6603C11.6805 77.4413 12.9469 77.4413 13.7279 76.6603L16.3112 74.077C17.0923 73.2959 17.0923 72.0296 16.3112 71.2486L14.897 69.8343M9.24016 64.1775L14.897 69.8343" stroke="#1B1B1B" stroke-width="2"/>
<rect x="55.4468" y="8.07129" width="22" height="26" transform="rotate(45 55.4468 8.07129)" stroke="#1B1B1B" stroke-width="2"/>
<rect x="48.376" y="1" width="6" height="26" rx="2" transform="rotate(45 48.376 1)" stroke="#1B1B1B" stroke-width="2"/>
<rect x="73.8315" y="26.4558" width="6" height="26" rx="2" transform="rotate(45 73.8315 26.4558)" stroke="#1B1B1B" stroke-width="2"/>
<rect x="51.9111" y="5.94971" width="4" height="24" transform="rotate(45 51.9111 5.94971)" fill="#1B1B1B"/>
<rect x="70.2959" y="24.3345" width="4" height="24" transform="rotate(45 70.2959 24.3345)" fill="#1B1B1B"/>
<rect x="41.748" y="32.5564" width="6.74519" height="4" transform="rotate(45 41.748 32.5564)" fill="#1B1B1B"/>
<rect x="13.0508" y="61.4883" width="6.38053" height="4.3148" transform="rotate(45 13.0508 61.4883)" fill="#1B1B1B"/>
<rect x="45" y="66" width="30" height="6" stroke="#1B1B1B" stroke-width="2"/>
<rect x="41" y="72" width="38" height="6" stroke="#1B1B1B" stroke-width="2"/>
</svg>
