<svg width="80" height="80" viewBox="0 0 80 80" fill="none" xmlns="http://www.w3.org/2000/svg">
<g clip-path="url(#clip0)">
<path fill-rule="evenodd" clip-rule="evenodd" d="M54.7753 10H15H14V11V64H9H8V65V71C8 73.7614 10.2386 76 13 76H15H63C65.7614 76 68 73.7614 68 71V25.9343C67.3723 26.0243 66.6998 26.0213 66 25.9291V27.9999C63.7675 27.9999 61.5569 28.0775 59.4944 28.2283C57.6533 28.3629 55.9624 28.5534 54.4977 28.7909L61.5241 24.467L61.3495 24.1832C60.845 23.8747 60.3448 23.5286 59.8544 23.1461L52.0529 27.9471L56.8538 20.1455C56.4714 19.6551 56.1253 19.155 55.8168 18.6505L55.533 18.4758L48.1483 30.4758L49.5241 31.8516L49.6119 31.7976C49.7978 31.9165 50.0254 32.0335 50.294 32.148C51.1484 32.512 52.4006 32.8427 53.9792 33.1212C55.5578 33.3998 57.4318 33.6208 59.4944 33.7716C61.5569 33.9223 63.7675 33.9999 66 33.9999V71C66 72.6569 64.6569 74 63 74C61.3431 74 60 72.6569 60 71V65V64H59H16V12H54.0657C54.1715 11.2622 54.4059 10.5862 54.7753 10ZM58.9996 74C58.3719 73.1643 58 72.1256 58 71V66H10V71C10 72.6569 11.3431 74 13 74H15H58.9996ZM22 18.9999H21V19.9999V35.9999V36.9999H22H38H39V35.9999V19.9999V18.9999H38H22ZM23 34.9999V20.9999H37V34.9999H23ZM21 42.9999H61V40.9999H21V42.9999ZM21 48.9999H61V46.9999H21V48.9999ZM48 54.9999H21V52.9999H48V54.9999Z" fill="#1B1B1B"/>
<path d="M72.8441 11.2894L68.7093 18.8523C67.1429 20.4186 64.1802 19.9953 62.0918 17.9069C60.0033 15.8185 59.5801 12.8557 61.1464 11.2894L68.7093 7.18739" stroke="#1B1B1B" stroke-width="2" stroke-linecap="round" stroke-linejoin="round"/>
<path d="M68.7092 18.8524C67.1428 20.4187 64.1801 19.9954 62.0917 17.907L71 9L73 11L68.7092 18.8524Z" fill="#1B1B1B"/>
<ellipse rx="6.68469" ry="4.01081" transform="matrix(-0.707107 -0.707107 -0.707107 0.707107 73.4367 6.5629)" stroke="#1B1B1B" stroke-width="2" stroke-linecap="round" stroke-linejoin="round"/>
<path d="M68.7099 1.83618L69.417 2.54329V2.54329L68.7099 1.83618ZM68.8101 7.03194L69.2957 7.9061C69.7758 7.63938 69.9509 7.03541 69.688 6.55323L68.8101 7.03194ZM76.2727 3.7269L76.9798 3.01979L76.2727 3.7269ZM72.9666 11.189L73.4455 10.3111C72.9633 10.0481 72.3592 10.2232 72.0925 10.7034L72.9666 11.189ZM70.4687 15.6852L69.5946 15.1995C69.4301 15.4956 69.4267 15.8549 69.5855 16.154L70.4687 15.6852ZM70.7573 24.6206L70.0501 23.9135V23.9135L70.7573 24.6206ZM58.2628 21.7373L57.5557 22.4444H57.5557L58.2628 21.7373ZM55.3794 9.24281L56.0865 9.94991L55.3794 9.24281ZM64.313 9.53032L63.8442 10.4137C64.1434 10.5724 64.5026 10.5689 64.7986 10.4045L64.313 9.53032ZM68.0028 1.12908C67.2 1.93184 66.8935 3.01838 66.9258 4.12173C66.958 5.22003 67.3225 6.39275 67.9321 7.51065L69.688 6.55323C69.1908 5.6413 68.9458 4.77553 68.925 4.06311C68.9042 3.35573 69.101 2.8593 69.417 2.54329L68.0028 1.12908ZM76.9798 3.01979C75.5684 1.6084 73.9146 0.638179 72.3423 0.24508C70.7924 -0.142389 69.1319 -4.1008e-05 68.0028 1.12908L69.417 2.54329C69.8542 2.10609 70.6698 1.88853 71.8572 2.18536C73.022 2.47657 74.3665 3.23486 75.5656 4.43401L76.9798 3.01979ZM78.8705 11.9969C79.9997 10.8677 80.142 9.20725 79.7545 7.65737C79.3614 6.08498 78.3912 4.43118 76.9798 3.01979L75.5656 4.43401C76.7648 5.63315 77.5231 6.97762 77.8143 8.14244C78.1111 9.32979 77.8935 10.1455 77.4563 10.5827L78.8705 11.9969ZM72.4878 12.0669C73.6059 12.6767 74.7788 13.0415 75.8773 13.0738C76.9809 13.1063 78.0676 12.7998 78.8705 11.9969L77.4563 10.5827C77.1403 10.8987 76.6437 11.0955 75.9362 11.0747C75.2235 11.0537 74.3576 10.8086 73.4455 10.3111L72.4878 12.0669ZM72.0925 10.7034L69.5946 15.1995L71.3429 16.1708L73.8408 11.6746L72.0925 10.7034ZM69.5855 16.154C70.419 17.7243 70.911 19.3437 70.989 20.748C71.0675 22.1593 70.7274 23.2363 70.0501 23.9135L71.4644 25.3277C72.6826 24.1096 73.0831 22.3859 72.9859 20.637C72.8883 18.8809 72.2883 16.9803 71.352 15.2163L69.5855 16.154ZM70.0501 23.9135C69.0549 24.9088 67.3995 25.2694 65.332 24.7923C63.2808 24.3189 60.9818 23.0421 58.9699 21.0302L57.5557 22.4444C59.7902 24.679 62.4115 26.1709 64.8823 26.7411C67.337 27.3075 69.8056 26.9865 71.4644 25.3277L70.0501 23.9135ZM58.9699 21.0302C56.958 19.0183 55.6812 16.7193 55.2078 14.668C54.7307 12.6006 55.0913 10.9452 56.0865 9.94991L54.6723 8.5357C53.0135 10.1945 52.6926 12.6631 53.259 15.1178C53.8292 17.5886 55.3211 20.2098 57.5557 22.4444L58.9699 21.0302ZM56.0865 9.94991C56.7637 9.27279 57.8403 8.93273 59.2513 9.01101C60.6552 9.0889 62.2742 9.58055 63.8442 10.4137L64.7817 8.64698C63.018 7.71114 61.1178 7.11149 59.3621 7.01409C57.6135 6.91708 55.8903 7.31774 54.6723 8.5357L56.0865 9.94991ZM64.7986 10.4045L69.2957 7.9061L68.3244 6.15778L63.8273 8.65616L64.7986 10.4045Z" fill="#1B1B1B"/>
</g>
<defs>
<clipPath id="clip0">
<rect width="80" height="80" fill="white"/>
</clipPath>
</defs>
</svg>
