<svg width="80" height="80" viewBox="0 0 80 80" fill="none" xmlns="http://www.w3.org/2000/svg">
<g clip-path="url(#clip0)">
<path d="M13 17V63H47M67 63V34L50 17H33" stroke="#1B1B1B" stroke-width="2"/>
<path d="M10.9997 15V15C12.8611 18.102 16.2135 20 19.8311 20L21.4416 20C21.7991 20 22.142 20.142 22.3948 20.3949L23.6766 21.6766C25.8513 23.8513 28.5761 25.394 31.5597 26.1399L33.016 26.504C34.2564 26.8141 35.5697 26.4872 36.52 25.632V25.632C38.3214 24.0108 38.1915 21.1475 36.2507 19.6961L29.5688 14.6989C27.4553 13.1183 25.6851 11.1247 24.3655 8.83915V8.83915" stroke="#1B1B1B" stroke-width="2"/>
<ellipse rx="2.41252" ry="3.56755" transform="matrix(-0.629851 0.776716 0.776716 0.629851 33.2905 20.6209)" stroke="#1B1B1B" stroke-width="2"/>
<path d="M1.27944e-06 31L2.38419e-06 2L5 2L5 31L1.27944e-06 31Z" fill="#1B1B1B"/>
<path d="M13 33C11.5949 33 9.55768 32.2628 8.83479 31.058L8.16521 29.942C7.44232 28.7372 6.14029 28 4.73524 28H2V5H25C31.7022 5 39.3045 10.7096 40.6778 17" stroke="#1B1B1B" stroke-width="2"/>
<path d="M69.0003 65V65C67.1389 61.898 63.7865 60 60.1689 60L58.5584 60C58.2009 60 57.858 59.858 57.6052 59.6051L56.3234 58.3234C54.1487 56.1487 51.4239 54.606 48.4403 53.8601L46.984 53.496C45.7436 53.1859 44.4303 53.5128 43.48 54.368V54.368C41.6786 55.9892 41.8085 58.8525 43.7493 60.3039L50.4312 65.3011C52.5447 66.8817 54.3149 68.8753 55.6345 71.1609V71.1609" stroke="#1B1B1B" stroke-width="2"/>
<ellipse rx="2.41252" ry="3.56755" transform="matrix(0.629851 -0.776716 -0.776716 -0.629851 46.7095 59.3791)" stroke="#1B1B1B" stroke-width="2"/>
<path d="M80 49L80 78L75 78L75 49L80 49Z" fill="#1B1B1B"/>
<path d="M67 47C68.4051 47 70.4423 47.7372 71.1652 48.942L71.8348 50.058C72.5577 51.2628 73.8597 52 75.2648 52H78V75H55C48.2978 75 40.6955 69.2904 39.3222 63" stroke="#1B1B1B" stroke-width="2"/>
<path d="M23 33L23 59" stroke="#1B1B1B" stroke-width="2"/>
<path d="M29.2 41L28.7741 41.4259C27.3099 42.8901 27.482 45.3115 29.1385 46.5539L30.752 47.764C31.6101 48.4076 32.8416 48.1169 33.3213 47.1575V47.1575C33.709 46.382 33.4586 45.4391 32.7372 44.9581L32.6531 44.9021C32.0192 44.4795 31.19 44.4928 30.5701 44.9356L28.4053 46.4819C27.1987 47.3438 27.1502 49.1202 28.3081 50.0465L28.5852 50.2682C29.3736 50.8989 29.5187 52.0417 28.9129 52.8495V52.8495C28.8378 52.9496 28.7529 53.0419 28.6594 53.125L28.4704 53.293C27.5351 54.1243 27 55.316 27 56.5673L27 59" stroke="#1B1B1B" stroke-width="2"/>
<path d="M32 34L27 39M32 39L27 34" stroke="#1B1B1B" stroke-width="2"/>
<path d="M50 17L50.7071 16.2929L49 17H50ZM67 34V35L67.7071 33.2929L67 34ZM50 34H49V35H50V34ZM67 33H50V35H67V33ZM51 34V17H49V34H51ZM49.2929 17.7071L66.2929 34.7071L67.7071 33.2929L50.7071 16.2929L49.2929 17.7071Z" fill="#1B1B1B"/>
<path d="M52 42L67 35H52V42Z" fill="#1B1B1B"/>
</g>
<defs>
<clipPath id="clip0">
<rect width="80" height="80" fill="white"/>
</clipPath>
</defs>
</svg>
