<svg width="80" height="80" viewBox="0 0 80 80" fill="none" xmlns="http://www.w3.org/2000/svg">
<path d="M70 79H12V21L32 1H70V79Z" stroke="#1B1B1B" stroke-width="2"/>
<path d="M32 1L31.2929 0.292893L33 1H32ZM12 21V22L11.2929 20.2929L12 21ZM32 21H33V22H32V21ZM12 20H32V22H12V20ZM31 21V1H33V21H31ZM32.7071 1.70711L12.7071 21.7071L11.2929 20.2929L31.2929 0.292893L32.7071 1.70711Z" fill="#1B1B1B"/>
<path d="M29 30L11 21H29V30Z" fill="#1B1B1B"/>
<path d="M19 55L63 55" stroke="#1B1B1B" stroke-width="2"/>
<path d="M30 47V47C31.3452 50.7365 36.5213 51.0183 38.2641 47.4498L40.5471 42.775C41.3517 41.1275 40.6786 39.1393 39.0387 38.3194V38.3194C37.5312 37.5656 35.6984 38.0524 34.7635 39.4547L34.7221 39.5169C34.0298 40.5552 33.9569 41.8878 34.5315 42.9956L37.0924 47.9318C38.5426 50.7271 42.5279 50.7645 44.0302 47.9969L44.7834 46.6096C45.5299 45.2343 47.3236 44.8427 48.5755 45.7816V45.7816C48.8555 45.9916 49.0896 46.2568 49.2633 46.5608L50.2256 48.2448C51.077 49.7348 53.0125 50.1917 54.4404 49.2398V49.2398C55.3928 48.6048 56.6258 48.5755 57.6073 49.1644L58.0867 49.452C58.6843 49.8106 59.3682 50 60.0651 50H63" stroke="#1B1B1B" stroke-width="2"/>
<path d="M20 45L25 50M25 45L20 50" stroke="#1B1B1B" stroke-width="2"/>
</svg>
