<svg width="80" height="80" viewBox="0 0 80 80" fill="none" xmlns="http://www.w3.org/2000/svg">
<path d="M70 79H12V21L32 1H70V79Z" stroke="#1B1B1B" stroke-width="2"/>
<path d="M29 30L11 21H29V30Z" fill="#1B1B1B"/>
<path d="M32 1L31.2929 0.292893L33 1H32ZM12 21V22L11.2929 20.2929L12 21ZM32 21H33V22H32V21ZM12 20H32V22H12V20ZM31 21V1H33V21H31ZM32.7071 1.70711L12.7071 21.7071L11.2929 20.2929L31.2929 0.292893L32.7071 1.70711Z" fill="#1B1B1B"/>
<path d="M18 35H62" stroke="#1B1B1B" stroke-width="2"/>
<path d="M18 43H62" stroke="#1B1B1B" stroke-width="2"/>
<path d="M18 51H62" stroke="#1B1B1B" stroke-width="2"/>
<path d="M32 70L62 70" stroke="#1B1B1B" stroke-width="2"/>
<path d="M42 63.8L42.4259 64.2259C43.8901 65.6901 46.3115 65.518 47.5539 63.8615L48.764 62.248C49.4076 61.3899 49.1169 60.1584 48.1575 59.6787V59.6787C47.382 59.291 46.4391 59.5414 45.9581 60.2628L45.9021 60.3469C45.4795 60.9808 45.4928 61.81 45.9356 62.4299L47.4819 64.5947C48.3438 65.8013 50.1202 65.8498 51.0465 64.6919L51.3704 64.2869C51.9442 63.5698 52.9837 63.4378 53.7185 63.9889V63.9889C53.9042 64.1281 54.0594 64.304 54.1746 64.5055L54.6717 65.3755C55.1737 66.254 56.3149 66.5234 57.1567 65.9622V65.9622C57.6782 65.6145 58.3459 65.573 58.9065 65.8532L59.1373 65.9687C59.4416 66.1208 59.7771 66.2 60.1173 66.2H62" stroke="#1B1B1B" stroke-width="2"/>
<path d="M33 61L38 66M38 61L33 66" stroke="#1B1B1B" stroke-width="2"/>
<rect x="43" y="9" width="18" height="18" stroke="#1B1B1B" stroke-width="2"/>
</svg>
