<svg width="80" height="80" viewBox="0 0 80 80" fill="none" xmlns="http://www.w3.org/2000/svg">
<path d="M9 5V4H8V5H9ZM72 5H73V4H72V5ZM9 63H8V64H9V63ZM21 63H22V62H21V63ZM21 77.3077H20L21.7148 78.0071L21 77.3077ZM35 63V62H34.5794L34.2852 62.3006L35 63ZM72 63V64H73V63H72ZM9 6H72V4H9V6ZM10 63V5H8V63H10ZM21 62H9V64H21V62ZM22 77.3077V63H20V77.3077H22ZM34.2852 62.3006L20.2852 76.6083L21.7148 78.0071L35.7148 63.6994L34.2852 62.3006ZM72 62H35V64H72V62ZM71 5V63H73V5H71Z" fill="#1B1B1B"/>
<path fill-rule="evenodd" clip-rule="evenodd" d="M21 64V77.3077L33.043 65H34L35 64H73V6H75V66H35.9838L23.7895 78H20V66H10V64H21Z" fill="#1B1B1B"/>
<path fill-rule="evenodd" clip-rule="evenodd" d="M36 38L35 17H45L44 38H36Z" fill="#1B1B1B"/>
<circle cx="40" cy="47" r="5" fill="#1B1B1B"/>
</svg>
