<svg width="80" height="80" viewBox="0 0 80 80" fill="none" xmlns="http://www.w3.org/2000/svg">
<path d="M54.9728 43.9958L61.4986 43.6399L62.6429 43.5775L62.5498 44.7197L60.9893 63.8608C60.8208 65.9263 62.3589 67.7374 64.4249 67.9064C64.5281 67.9147 64.6318 67.9188 64.7353 67.9188C66.6686 67.9188 68.3109 66.4317 68.4706 64.4705L70.4735 39.8951L70.4735 39.8949C70.5618 38.8136 70.178 37.7474 69.4213 36.9707C68.6649 36.1946 67.6067 35.7837 66.5249 35.8427L54.9728 43.9958ZM54.9728 43.9958H50.1827L30.5343 31.7765L41.8829 18.9714L42.6933 18.057L41.6366 17.4434L34.9729 13.5737L34.3461 13.2097L33.8051 13.6923L25.7444 20.8825L25.7443 20.8826C24.1979 22.2625 21.8256 22.127 20.4455 20.5802C19.0658 19.0333 19.2013 16.661 20.748 15.2814L20.748 15.2814L31.3802 5.79728C32.5913 4.71704 34.3596 4.53752 35.7628 5.35266L36.0823 4.80275C35.7628 5.35266 35.7629 5.35271 35.7631 5.35279L35.7638 5.35323L35.7668 5.35495L35.7786 5.36181L35.8253 5.38892L36.0073 5.49465L36.6981 5.89599L39.1642 7.32867L46.6499 11.6778C49.3727 13.2598 52.0966 14.8426 54.1419 16.0314C55.1646 16.6258 56.0175 17.1217 56.6158 17.4697L57.3114 17.8745L57.4953 17.9817L57.5415 18.0087L57.544 18.0102C58.4256 18.5644 58.9995 19.4274 59.2085 20.3798L59.2152 20.4098L59.2236 20.4395C59.6372 21.8906 59.3304 23.5076 58.2657 24.72L58.2657 24.72L49.1456 35.1069L47.5733 36.8976L49.9527 36.7652L66.5239 35.8427L54.9728 43.9958ZM57.5504 18.014C57.5673 18.024 57.5628 18.0217 57.5486 18.0129L57.5504 18.014Z" stroke="#1B1B1B" stroke-width="2"/>
<path d="M33.3074 71.3206C24.6902 71.3206 17.6794 64.3098 17.6794 55.6925C17.6794 52.4449 18.6758 49.4264 20.3779 46.9245L14.1692 40.7158C10.934 44.8442 9 50.0412 9 55.6925C9 69.1173 19.8827 79.9998 33.3074 79.9998C38.959 79.9998 44.1555 78.0658 48.2838 74.8306L42.0751 68.6222C39.5734 70.3238 36.5548 71.3206 33.3074 71.3206Z" fill="#1B1B1B"/>
<path d="M32.9763 39.6794C41.5935 39.6794 48.6043 46.6902 48.6043 55.3075C48.6043 58.5551 47.6079 61.5736 45.9058 64.0755L52.1145 70.2842C55.3497 66.1558 57.2837 60.9588 57.2837 55.3075C57.2837 41.8827 46.401 31.0002 32.9763 31.0002C27.3247 31.0002 22.1282 32.9342 17.9999 36.1694L24.2086 42.3778C26.7103 40.6762 29.7289 39.6794 32.9763 39.6794Z" fill="#1B1B1B"/>
<circle cx="62" cy="8" r="7" stroke="#1B1B1B" stroke-width="2"/>
</svg>
