<svg width="80" height="80" viewBox="0 0 80 80" fill="none" xmlns="http://www.w3.org/2000/svg">
<path fill-rule="evenodd" clip-rule="evenodd" d="M61 23L67 28V6.58829L74 7.00006V67.0001L52.5235 65.3156C49.9423 65.1132 47.3832 65.9198 45.3846 67.5657L41 71.1765V11.2398C42.7077 7.72635 46.4093 5.37707 50.5872 5.62284L55 5.88241V28L61 23ZM29.4128 5.62284L6 7.00006V67.0001L27.4765 65.3156C30.0577 65.1132 32.6168 65.9198 34.6154 67.5657L39 71.1765V11.2398C37.2923 7.72635 33.5907 5.37707 29.4128 5.62284Z" fill="white"/>
<path fill-rule="evenodd" clip-rule="evenodd" d="M61 23L67 28V10H74V64.9939V67.0001L72 66.8432L52.5235 65.3157C49.9423 65.1132 47.3832 65.9198 45.3846 67.5658L42 70.353V15.6056C42 13.9854 41.68 12.4436 41.101 11.0379C41.2858 10.6786 41.4918 10.3321 41.7171 10H55V28L61 23ZM38 15.6056V70.353L34.6154 67.5658C32.6168 65.9198 30.0577 65.1132 27.4765 65.3157L8 66.8432L6 67.0001V64.9939V10H38.2829C38.5082 10.3321 38.7142 10.6786 38.899 11.0379C38.32 12.4436 38 13.9854 38 15.6056ZM40 72.9439L41.2714 73.544L46.656 69.1096C48.2549 67.7929 50.3022 67.1476 52.3672 67.3095L73.8436 68.994L76 69.1631V67.0001V10H80V75H0V10H4V67.0001V69.1631L6.15638 68.994L27.6328 67.3095C29.6978 67.1476 31.7451 67.7929 33.344 69.1096L38.7286 73.544L40 72.9439Z" fill="white"/>
</svg>
