<svg width="80" height="80" viewBox="0 0 80 80" fill="none" xmlns="http://www.w3.org/2000/svg">
<path fill-rule="evenodd" clip-rule="evenodd" d="M67 8H43V29.9231H53.8571L64 38V29.9231H67V8ZM55.4363 15.406L57.2183 20.14H52.7813L54.5633 15.415C54.6293 15.235 54.7013 15.028 54.7793 14.794C54.8573 14.554 54.9293 14.293 54.9953 14.011C55.1453 14.575 55.2923 15.04 55.4363 15.406ZM59.5763 25H61.2053L56.0663 12.04H53.9333L48.7943 25H50.4233C50.6033 25 50.7533 24.949 50.8733 24.847C50.9933 24.745 51.0773 24.634 51.1253 24.514L52.2053 21.652H57.7853L58.8653 24.514C58.9253 24.652 59.0123 24.769 59.1263 24.865C59.2403 24.955 59.3903 25 59.5763 25Z" fill="white"/>
<path fill-rule="evenodd" clip-rule="evenodd" d="M13 8H37V29.9231H26.1429L16 38V29.9231H13V8ZM25.015 20.68C26.095 19.51 26.95 18.1 27.595 16.405H22.33C22.975 18.025 23.86 19.465 25.015 20.68ZM31.855 14.665V16.405H29.695C28.885 18.625 27.79 20.44 26.41 21.94C27.955 23.125 29.845 24.01 32.125 24.52C31.69 24.955 31.12 25.795 30.85 26.305C28.435 25.69 26.485 24.685 24.91 23.35C23.275 24.655 21.34 25.63 19.06 26.35C18.85 25.885 18.295 25.045 17.935 24.61C20.155 24.025 22.03 23.17 23.545 22.015C22.195 20.47 21.16 18.595 20.35 16.405H18.205V14.665H24.085V12.295H25.9V14.665H31.855Z" fill="white"/>
<path fill-rule="evenodd" clip-rule="evenodd" d="M73 41C74.6569 41 76 42.3431 76 44V47.124C76.6372 48.2722 77 49.5937 77 51C77 52.4063 76.6372 53.7278 76 54.876V60.3692C77.3336 61.6825 78.3062 63.3781 78.7354 65.3095L80 71H58L59.2646 65.3095C59.8083 62.8629 61.224 60.7947 63.1408 59.4026L63.3494 59.836L64.2505 59.4024C63.3494 59.836 63.3496 59.8364 63.3498 59.8369L63.3504 59.838L63.3515 59.8403L63.3541 59.8456L63.3608 59.8591C63.3659 59.8694 63.3724 59.8821 63.3804 59.8971C63.3962 59.9272 63.4176 59.9666 63.445 60.014C63.4997 60.1087 63.5784 60.236 63.6834 60.3848C63.8929 60.6817 64.2113 61.0701 64.6583 61.4571C65.5641 62.2415 66.9776 63 69.0002 63C71.0228 63 72.4363 62.2415 73.3422 61.4571C73.7892 61.07 74.1076 60.6816 74.3171 60.3847C74.4221 60.2359 74.5008 60.1086 74.5555 60.0139C74.5829 59.9665 74.6043 59.9271 74.6202 59.897C74.6281 59.882 74.6346 59.8692 74.6397 59.859L74.6465 59.8455L74.6491 59.8402L74.6502 59.8379L74.6507 59.8368C74.6509 59.8363 74.6512 59.8358 73.7501 59.4022L74.6512 59.8358L75.033 59.0424L74.2942 58.5632C73.8861 58.2985 73.4545 58.0095 73.1235 57.7855L73 57.7019V57.3091C74.6577 56.4232 75.1543 54.8074 75.6015 53.352L75.6021 53.3502C75.6298 53.2599 75.6574 53.1703 75.685 53.0815L76.0885 51.7844H74.7302C71.3812 51.7844 69.1307 50.2673 67.2775 47.9744L66.5489 47.073L65.764 47.9258L62.397 51.5842L62.0467 51.9648L62.1549 52.4706C62.5437 54.2873 63.0405 56.2884 65 57.3126V57.7022L64.8766 57.7858C64.8584 57.7981 64.84 57.8106 64.8213 57.8232C62.529 56.4164 61 53.8867 61 51C61 46.5817 64.5817 43 69 43C69.3882 43 69.7699 43.0276 70.1434 43.0811C70.5314 41.8737 71.6637 41 73 41ZM71 56.6585V55.9514L71.6667 55.7157C72.5956 55.3874 72.9848 54.8043 73.3771 53.7113C70.4324 53.3847 68.2367 51.9933 66.4775 50.1039L64.2223 52.5543C64.6325 54.32 65.0792 55.2725 66.3332 55.7157L67 55.9514V56.6585V56.6586V58.2301V58.7553L66.5676 59.0534L66 58.2301L66.5676 59.0534L66.5675 59.0534L66.5674 59.0535L66.5668 59.0539L66.5646 59.0554L66.5564 59.0611L66.5252 59.0826L66.4082 59.1628C66.308 59.2313 66.1658 59.3282 65.9975 59.4422C65.8972 59.51 65.7874 59.5841 65.6713 59.662C65.7584 59.754 65.857 59.8495 65.9675 59.9452C66.5616 60.4597 67.5229 61 69.0002 61C70.4774 61 71.4388 60.4597 72.0329 59.9452C72.1435 59.8494 72.242 59.7539 72.3291 59.6619C72.213 59.584 72.1031 59.5099 72.0028 59.4421C71.8344 59.3282 71.6922 59.2312 71.592 59.1627L71.475 59.0825L71.4437 59.061L71.4355 59.0554L71.4334 59.0539L71.4328 59.0535L71.4326 59.0534L71.4326 59.0533L72 58.2299L71.4325 59.0533L71 58.7552V58.2299V56.6585Z" fill="white"/>
<path fill-rule="evenodd" clip-rule="evenodd" d="M16.8596 59.4029L16.6512 59.836L15.7501 59.4024C16.6512 59.836 16.6509 59.8365 16.6507 59.837L16.6502 59.8381L16.6491 59.8404L16.6465 59.8457L16.6397 59.8592C16.6346 59.8694 16.6281 59.8821 16.6202 59.8972C16.6043 59.9273 16.5829 59.9667 16.5555 60.0141C16.5008 60.1088 16.4221 60.2361 16.3171 60.3849C16.1076 60.6818 15.7892 61.0701 15.3422 61.4572C14.4363 62.2416 13.0228 63.0001 11.0002 63.0001C8.97764 63.0001 7.56411 62.2416 6.65832 61.4573C6.21132 61.0702 5.89294 60.6819 5.68345 60.385C5.5784 60.2362 5.49971 60.1089 5.44503 60.0142C5.41766 59.9668 5.39621 59.9274 5.38038 59.8973C5.37247 59.8823 5.36595 59.8695 5.3608 59.8593L5.35408 59.8458L5.35148 59.8405L5.35037 59.8382L5.34986 59.8371C5.34962 59.8366 5.34938 59.8361 6.25049 59.4025L5.34938 59.8361L5.14079 59.4026C3.22395 60.7948 1.80825 62.8629 1.26456 65.3095L0 71H22L20.7354 65.3095C20.1918 62.863 18.7762 60.795 16.8596 59.4029ZM4.75918 55.0057C3.65853 53.6352 3 51.8945 3 50C3 45.5817 6.58172 42 11 42C15.4183 42 19 45.5817 19 50C19 51.8945 18.3415 53.6352 17.2408 55.0057C17.2542 54.978 17.2674 54.9502 17.2804 54.9223C17.8267 53.7492 18 52.3746 18 51.0001C18 49.0029 17.1623 47.1997 15.8218 45.9257L14.9146 45.0633L14.2739 46.1386C13.0963 48.1146 11.4089 49.0029 9.74265 49.3263C8.04314 49.6561 6.38299 49.39 5.40853 49.0545L4.29214 48.6701L4.09676 49.8345C4.03305 50.2142 4 50.6037 4 51.0001C4 52.3746 4.17333 53.7492 4.71956 54.9223C4.73256 54.9502 4.74577 54.978 4.75918 55.0057ZM8.56761 59.0536L8 58.2303L8.56764 59.0535L9 58.7554V58.2303V56.6587V55.9515L8.33325 55.7159C7.4405 55.4003 6.88683 54.8387 6.53265 54.0781C6.18914 53.3403 6.02523 52.3921 6.00271 51.2735C7.16991 51.5002 8.62711 51.5801 10.1237 51.2897C11.9077 50.9435 13.7588 50.0654 15.204 48.2919C15.7081 49.0725 16 50.0018 16 51.0001C16 52.238 15.8385 53.2809 15.4673 54.0781C15.1132 54.8387 14.5595 55.4003 13.6668 55.7159L13 55.9515V56.6587V58.2301V58.7638L13.4435 59.0609L14.3337 59.6572C14.2455 59.7507 14.1454 59.8479 14.033 59.9453C13.4388 60.4598 12.4774 61.0001 11.0002 61.0001C9.52296 61.0001 8.56164 60.4598 7.96753 59.9454C7.85699 59.8496 7.75846 59.7541 7.67136 59.6621C7.78739 59.5843 7.89724 59.5102 7.99751 59.4423C8.16586 59.3284 8.30801 59.2315 8.4082 59.1629L8.52518 59.0827L8.55646 59.0612L8.56465 59.0556L8.56681 59.0541L8.56739 59.0537L8.56756 59.0536L8.56761 59.0536Z" fill="white"/>
</svg>
