<svg width="80" height="80" viewBox="0 0 80 80" fill="none" xmlns="http://www.w3.org/2000/svg">
<path d="M57.0495 32L61 28M57.0495 32L53 28M57.0495 32V25C57.0495 20.5817 53.4678 17 49.0495 17H41" stroke="white" stroke-width="2"/>
<path d="M22.9505 48L19 52M22.9505 48L27 52M22.9505 48V55C22.9505 59.4183 26.5322 63 30.9505 63H39" stroke="white" stroke-width="2"/>
<path fill-rule="evenodd" clip-rule="evenodd" d="M77 38H45V67H59L73 78V67H77V38ZM61.4363 49.406L63.2183 54.14H58.7813L60.5633 49.415C60.6293 49.235 60.7013 49.028 60.7793 48.794C60.8573 48.554 60.9293 48.293 60.9953 48.011C61.1453 48.575 61.2923 49.04 61.4363 49.406ZM65.5763 59H67.2053L62.0663 46.04H59.9333L54.7943 59H56.4233C56.6033 59 56.7533 58.949 56.8733 58.847C56.9933 58.745 57.0773 58.634 57.1253 58.514L58.2053 55.652H63.7853L64.8653 58.514C64.9253 58.652 65.0123 58.769 65.1263 58.865C65.2403 58.955 65.3903 59 65.5763 59Z" fill="white"/>
<path fill-rule="evenodd" clip-rule="evenodd" d="M3.00011 3H35.0001L35 32H21L7.00011 43L7 32H3L3.00011 3ZM19.015 19.68C20.095 18.51 20.95 17.1 21.595 15.405H16.33C16.975 17.025 17.86 18.465 19.015 19.68ZM25.855 13.665V15.405H23.695C22.885 17.625 21.79 19.44 20.41 20.94C21.955 22.125 23.845 23.01 26.125 23.52C25.69 23.955 25.12 24.795 24.85 25.305C22.435 24.69 20.485 23.685 18.91 22.35C17.275 23.655 15.34 24.63 13.06 25.35C12.85 24.885 12.295 24.045 11.935 23.61C14.155 23.025 16.03 22.17 17.545 21.015C16.195 19.47 15.16 17.595 14.35 15.405H12.205V13.665H18.085V11.295H19.9V13.665H25.855Z" fill="white"/>
</svg>
