<svg width="80" height="80" viewBox="0 0 80 80" fill="none" xmlns="http://www.w3.org/2000/svg">
<path fill-rule="evenodd" clip-rule="evenodd" d="M12 17V72H66V0H29L12 17ZM32 4V20H16V22L31 29V22H33H34V21V4H32ZM59 34H17V32H59V34ZM17 42H59V40H17V42ZM59 50H17V48H59V50ZM29 68H59V66H29V68ZM42.1261 56.7081C42.8868 55.5671 44.3781 55.171 45.6047 55.7843C47.1221 56.543 47.5819 58.4908 46.564 59.848L45.5137 61.2484C46.0284 61.6754 46.8228 61.6207 47.2656 61.0672L47.5896 60.6623C48.5007 59.5233 50.1516 59.3137 51.3185 60.1889C51.6134 60.4101 51.8599 60.6893 52.0428 61.0094L52.54 61.8794C52.7545 62.2549 53.2422 62.37 53.602 62.1301C54.4221 61.5834 55.4722 61.5181 56.3537 61.9588L56.5846 62.0742C56.75 62.1569 56.9323 62.2 57.1173 62.2H59V64.2H57.1173C56.6219 64.2 56.1332 64.0847 55.6901 63.8631L55.4593 63.7477C55.2197 63.6279 54.9343 63.6456 54.7114 63.7942C53.3875 64.6768 51.5929 64.2532 50.8035 62.8717L50.3064 62.0017C50.2589 61.9187 50.195 61.8462 50.1185 61.7889C49.8158 61.5619 49.3876 61.6162 49.1513 61.9116L48.8274 62.3166C47.6126 63.835 45.3878 63.9201 44.0527 62.6237C42.3851 63.5966 40.1824 63.3966 38.7188 61.9331L38.2929 61.5071L39.7071 60.0929L40.1331 60.5188C40.8712 61.257 41.9539 61.4061 42.8321 61.0054L42.1219 60.0111C41.4376 59.0531 41.417 57.7718 42.07 56.7922L42.1261 56.7081ZM44.2685 59.5754L44.964 58.648C45.2332 58.289 45.1116 57.7738 44.7103 57.5732C44.3858 57.4109 43.9914 57.5157 43.7902 57.8175L43.7341 57.9016C43.542 58.1898 43.5481 58.5668 43.7494 58.8487L44.2685 59.5754ZM29.2929 58.7071L31.0858 60.5L29.2929 62.2929L30.7071 63.7071L32.5 61.9142L34.2929 63.7071L35.7071 62.2929L33.9142 60.5L35.7071 58.7071L34.2929 57.2929L32.5 59.0858L30.7071 57.2929L29.2929 58.7071ZM39 6H40H58H59V7V25V26H58H40H39V25V7V6ZM41 8V24H57V8H41Z" fill="white"/>
<path d="M16 76L70 76L70 2L68 2L68 74L16 74L16 76Z" fill="white"/>
<path d="M20 80L74 80L74 6L72 6L72 78L20 78L20 80Z" fill="white"/>
</svg>
