<?xml version="1.0" encoding="UTF-8"?>
<svg width="14px" height="20px" viewBox="0 0 14 20" version="1.1" xmlns="http://www.w3.org/2000/svg" xmlns:xlink="http://www.w3.org/1999/xlink">
    <!-- Generator: Sketch 60 (88103) - https://sketch.com -->
    <title>accessible</title>
    <desc>Created with Sketch.</desc>
    <g id="Page-1" stroke="none" stroke-width="1" fill="none" fill-rule="evenodd">
        <g id="accessible" fill="#FFFFFF" fill-rule="nonzero">
            <path d="M7.844,16 L9.907,16 C9.68833333,17.094 9.09466667,18.0316667 8.126,18.813 C7.15733333,19.5943333 6.11033333,19.985 4.985,19.985 C3.60966667,19.985 2.43766667,19.5006667 1.469,18.532 C0.500333333,17.5633333 0.016,16.3913333 0.016,15.016 C0.016,13.8906667 0.406666667,12.8436667 1.188,11.875 C1.96933333,10.9063333 2.907,10.3126667 4.001,10.094 L4.001,12.157 C3.407,12.3756667 2.92266667,12.743 2.548,13.259 C2.17333333,13.775 1.98566667,14.361 1.985,15.017 C1.985,15.8296667 2.282,16.5326667 2.876,17.126 C3.47,17.7193333 4.173,18.0163333 4.985,18.017 C5.641,18.017 6.227,17.8293333 6.743,17.454 C7.259,17.0786667 7.62633333,16.5943333 7.845,16.001 L7.844,16 Z M4.984,7.094 C4.984,6.344 5.312,5.75033333 5.968,5.313 C6.624,4.87566667 7.296,4.86 7.984,5.266 L8.031,5.266 L8.031,5.313 C8.24966667,5.407 8.45266667,5.54766667 8.64,5.735 L9.953,7.188 C11.0783333,8.40666667 12.422,9.016 13.984,9.016 L13.984,10.985 C12.234,10.985 10.5776667,10.3443333 9.015,9.063 L9.015,12.485 L12.015,12.485 C12.5463333,12.485 13.0073333,12.688 13.398,13.094 C13.7886667,13.5 13.984,13.9686667 13.984,14.5 L13.984,19.984 L12.015,19.984 L12.015,15.015 L6.999,15.015 C6.46766667,15.015 5.999,14.812 5.593,14.406 C5.187,14 4.984,13.5313333 4.984,13 L4.984,7.094 L4.984,7.094 Z M4.984,1.984 C4.984,1.42133333 5.17933333,0.952666667 5.57,0.578 C5.96066667,0.203333333 6.43733333,0.0156666667 7,0.0149982301 C7.56266667,0.0143333333 8.03933333,0.202 8.43,0.578 C8.82066667,0.954 9.016,1.42266667 9.016,1.984 C9.016,2.54533333 8.82066667,3.022 8.43,3.414 C8.03933333,3.806 7.56266667,4.00133333 7,4.00000678 C6.43733333,3.99866667 5.96066667,3.80333333 5.57,3.414 C5.17933333,3.02466667 4.984,2.548 4.984,1.984 Z" id="Shape"></path>
        </g>
    </g>
</svg>