<?xml version="1.0" encoding="UTF-8"?>
<svg width="20px" height="18px" viewBox="0 0 20 18" version="1.1" xmlns="http://www.w3.org/2000/svg" xmlns:xlink="http://www.w3.org/1999/xlink">
    <!-- Generator: Sketch 60 (88103) - https://sketch.com -->
    <title>briefcase</title>
    <desc>Created with Sketch.</desc>
    <g id="Page-1" stroke="none" stroke-width="1" fill="none" fill-rule="evenodd">
        <g id="briefcase" transform="translate(0.000000, -1.000000)" fill="#FFFFFF" fill-rule="nonzero">
            <path d="M12.016,4.984 L12.016,3.015 L7.985,3.015 L7.985,4.984 L12.016,4.984 L12.016,4.984 Z M18.016,4.984 C18.5473333,4.984 19.0083333,5.187 19.399,5.593 C19.7896667,5.999 19.985,6.46766667 19.985,6.999 L19.985,9.999 C19.985,10.5303333 19.7896667,10.999 19.399,11.405 C19.0083333,11.811 18.5473333,12.014 18.016,12.014 L12.016,12.014 L12.016,9.998 L7.985,9.998 L7.985,12.014 L1.985,12.014 C1.42233333,12.014 0.953666667,11.8186667 0.579,11.428 C0.204333333,11.0373333 0.0166666667,10.5606667 0.016,9.998 L0.016,6.998 C0.016,6.46666667 0.211333333,5.998 0.602,5.592 C0.992666667,5.186 1.45366667,4.983 1.985,4.983 L5.969,4.983 L5.969,3.014 L7.985,0.998 L11.969,0.998 L13.985,3.014 L13.985,4.983 L18.016,4.983 L18.016,4.984 Z M7.984,13.984 L12.015,13.984 L12.015,13 L18.999,13 L18.999,16.984 C18.999,17.5466667 18.8036667,18.0233333 18.413,18.414 C18.0223333,18.8046667 17.5456667,19 16.983,19 L3.014,19 C2.45133333,19 1.97466667,18.8046667 1.584,18.414 C1.19333333,18.0233333 0.998,17.5466667 0.998,16.984 L0.998,13 L7.982,13 L7.982,13.984 L7.984,13.984 Z" id="Shape"></path>
        </g>
    </g>
</svg>