<svg width="45" height="39" viewBox="0 0 45 39" fill="none" xmlns="http://www.w3.org/2000/svg">
<path fill-rule="evenodd" clip-rule="evenodd" d="M25.7293 38.3417C36.2734 38.3417 44.8211 29.9127 44.8211 19.5151C44.8211 9.11744 36.2734 0.688477 25.7293 0.688477C15.1852 0.688477 6.63757 9.11744 6.63757 19.5151C6.63757 29.9127 15.1852 38.3417 25.7293 38.3417Z" fill="#F8EBC4"/>
<path d="M22.7368 1.5249H3.32449C1.98989 1.5249 0.910082 2.6545 0.910082 4.03512L0.897949 19.0964C0.897949 20.477 1.98989 21.6066 3.32449 21.6066H22.7368C24.0714 21.6066 25.1634 20.477 25.1634 19.0964V4.03512C25.1634 2.6545 24.0714 1.5249 22.7368 1.5249ZM22.7368 6.54533L13.0307 12.8209L3.32449 6.54533V4.03512L13.0307 10.3107L22.7368 4.03512V6.54533Z" fill="#1F303E"/>
</svg>
