<svg width="46" height="46" viewBox="0 0 46 46" fill="none" xmlns="http://www.w3.org/2000/svg">
<path d="M16.1571 11.7604L19.4338 15.7679H39.6777V11.013H32.1797C30.6288 11.013 29.3672 9.72724 29.3672 8.14664V0.5H8.74023C7.19339 0.5 5.92773 1.78995 5.92773 3.36635V10.0352H12.5563C13.9552 10.0352 15.2672 10.664 16.1571 11.7604Z" fill="black"/>
<path d="M31.7992 9.3393H38.8736C38.7991 9.24361 38.7292 9.14511 38.6417 9.05774L31.1243 1.53578C31.0357 1.44877 30.9354 1.37817 30.8379 1.30359V8.37864C30.8379 8.90869 31.2688 9.3393 31.7992 9.3393Z" fill="black"/>
<path fill-rule="evenodd" clip-rule="evenodd" d="M18.9965 17.375H42.4902C44.0465 17.375 45.3027 18.6312 45.3027 20.1875V42.6875C45.3027 44.2344 44.0465 45.5 42.4902 45.5H3.11523C1.56839 45.5 0.302734 44.2344 0.302734 42.6875V14.5625C0.302734 13.0062 1.56839 11.75 3.11523 11.75H12.5559C13.3903 11.75 14.1778 12.1156 14.7122 12.7625L18.2747 17.0375C18.4528 17.2437 18.7152 17.375 18.9965 17.375ZM27.4902 29.5625H40.6152V22.0625H27.4902V29.5625Z" fill="black"/>
</svg>
