<svg width="36" height="30" viewBox="0 0 36 30" fill="none" xmlns="http://www.w3.org/2000/svg">
<path fill-rule="evenodd" clip-rule="evenodd" d="M19.9523 29.5686C28.279 29.5686 35.0291 23.8405 35.0291 16.7745C35.0291 9.70847 28.279 3.98035 19.9523 3.98035C11.6255 3.98035 4.87537 9.70847 4.87537 16.7745C4.87537 23.8405 11.6255 29.5686 19.9523 29.5686Z" fill="white"/>
<path d="M9 18.4173V23H13.5827L27.0986 9.4841L22.5159 4.9014L9 18.4173ZM30.6425 5.94015C31.1192 5.46355 31.1192 4.69365 30.6425 4.21705L27.7829 1.35745C27.3063 0.88085 26.5365 0.88085 26.0599 1.35745L23.8235 3.59381L28.4062 8.1765L30.6425 5.94015Z" fill="#1F303E"/>
</svg>
