<?xml version="1.0" encoding="UTF-8"?>
<svg width="20px" height="20px" viewBox="0 0 20 20" version="1.1" xmlns="http://www.w3.org/2000/svg" xmlns:xlink="http://www.w3.org/1999/xlink">
    <!-- Generator: Sketch 60 (88103) - https://sketch.com -->
    <title>globe-white</title>
    <desc>Created with Sketch.</desc>
    <g id="Page-1" stroke="none" stroke-width="1" fill="none" fill-rule="evenodd">
        <g id="globe-white" fill="#FFFFFF" fill-rule="nonzero">
            <path d="M15.906,15.391 C17.312,13.891 18.015,12.094 18.015,10 C18.015,8.344 17.554,6.844 16.632,5.5 C15.71,4.156 14.499,3.18733333 12.999,2.594 L12.999,3.016 C12.999,3.54733333 12.796,4.00833333 12.39,4.399 C11.984,4.78966667 11.5153333,4.985 10.984,4.985 L9.015,4.985 L9.015,7.001 C9.015,7.28233333 8.91333333,7.51666667 8.71,7.704 C8.50666667,7.89133333 8.26433333,7.985 7.983,7.985 L6.014,7.985 L6.014,10.001 L12.014,10.001 C12.2953333,10.001 12.5296667,10.0946667 12.717,10.282 C12.9043333,10.4693333 12.998,10.7036667 12.998,10.985 L12.998,13.985 L13.982,13.985 C14.9193333,13.985 15.56,14.4536667 15.904,15.391 L15.906,15.391 Z M9.016,17.922 L9.016,16 C8.48466667,16 8.016,15.797 7.61,15.391 C7.204,14.985 7.001,14.5163333 7.001,13.985 L7.001,13.001 L2.22,8.22 C2.064,8.84533333 1.986,9.439 1.986,10.001 C1.986,12.0323333 2.66566667,13.798 4.025,15.298 C5.38433333,16.798 7.04833333,17.673 9.017,17.923 L9.016,17.922 Z M10,0.016 C12.75,0.016 15.1016667,0.992666667 17.055,2.946 C19.0083333,4.89933333 19.985,7.251 19.985,10.001 C19.985,12.751 19.0083333,15.1026667 17.055,17.056 C15.1016667,19.0093333 12.75,19.986 10,19.986 C7.25,19.986 4.89833333,19.0093333 2.945,17.056 C0.991666667,15.1026667 0.015,12.751 0.015,10.001 C0.015,7.251 0.991666667,4.89933333 2.945,2.946 C4.89833333,0.992666667 7.25,0.016 10,0.016 Z" id="Shape"></path>
        </g>
    </g>
</svg>