<?xml version="1.0" encoding="utf-8"?>
<!-- Generator: Adobe Illustrator 25.2.1, SVG Export Plug-In . SVG Version: 6.00 Build 0)  -->
<svg version="1.1" id="Layer_1" xmlns="http://www.w3.org/2000/svg" xmlns:xlink="http://www.w3.org/1999/xlink" x="0px" y="0px"
	 viewBox="0 0 24 24" style="enable-background:new 0 0 24 24;" xml:space="preserve">
<path d="M4.73,7.9c0,0-2.03,2.33-2.6,3.05H0c0.03,0,0,6.61,0,6.78c0.23,0,2.03-0.07,2.13,0c0,0,0.73,0.14,1.07,0.27
	c0.47,0.31,3.35,0.72,4.38,0.85c0,0,0.41,0.1,0.92,0.03c1.24-0.18,1.31-1.74,1.31-1.74c1.07-1.29,0.47-1.94,0.63-2.31
	c0.83-1.67,0.21-2.21,0.23-2.38c0.17-0.37,0.48-0.56,0.48-1.51c0-0.95-1.1-1.45-1.87-1.45S7.5,9.6,7.17,9.4
	c-0.33-0.2,0.72-1.02,0.89-2.66c0.17-1.63-0.61-2.22-1.41-1.98C5.85,5,5.76,6,5.66,6.28C5.56,6.55,5.47,6.54,5.4,6.74
	C5.33,6.95,4.91,7.76,4.73,7.9z"/>
<path d="M20.22,15.13c0,0,1.36-2.78,1.72-3.61L24,10.96c-0.03,0.01-1.71-6.39-1.76-6.55C22.02,4.47,20.3,5,20.18,4.96
	c0,0-0.74,0.06-1.1,0.01c-0.53-0.17-3.42,0.17-4.46,0.31c0,0-0.43,0.01-0.89,0.21c-1.16,0.5-0.81,2.02-0.81,2.02
	c-0.7,1.52,0.05,1.99-0.01,2.4c-0.37,1.83,0.37,2.19,0.39,2.36c-0.06,0.4-0.32,0.67-0.08,1.59c0.25,0.92,1.44,1.12,2.18,0.92
	c0.74-0.2,1.7-0.57,2.07-0.46c0.37,0.11-0.44,1.18-0.17,2.8c0.26,1.62,1.16,1.99,1.87,1.55c0.71-0.44,0.54-1.43,0.57-1.72
	c0.03-0.29,0.12-0.3,0.13-0.52C19.88,16.2,20.08,15.3,20.22,15.13z"/>
</svg>
