<svg width="68" height="46" viewBox="0 0 68 46" fill="none" xmlns="http://www.w3.org/2000/svg">
<g filter="url(#filter0_d)">
<path d="M63.5825 23.2099C63.411 22.127 62.9921 21.099 62.3589 20.2064C61.9918 19.7264 61.4657 19.4063 59.9117 19.3079H58.1253C57.5146 19.3295 56.9042 19.2589 56.3144 19.0986C55.8251 18.9325 55.4465 18.5378 55.2988 18.04C55.1616 17.6155 55.1198 17.1657 55.1764 16.7229C55.2005 16.4739 55.3136 16.2421 55.4946 16.0705L55.6292 15.9474C56.5364 15.0404 57.0547 13.8121 57.073 12.5255C57.0669 12.4764 57.0669 12.4268 57.073 12.3777V9.06654C57.0673 9.04226 57.0673 9.01697 57.073 8.99268C57.0329 6.30228 54.8533 4.14252 52.1787 4.14282C49.504 4.14252 47.3244 6.30228 47.2843 8.99268V12.2793V12.4024V12.6239C47.3215 13.8848 47.8383 15.0833 48.7282 15.9721L48.8383 16.0705C49.0175 16.2434 49.1302 16.4745 49.1564 16.7229C49.2089 17.1625 49.1629 17.6083 49.0218 18.0277C48.8842 18.527 48.5077 18.9242 48.0185 19.0863C47.4247 19.2479 46.8101 19.3184 46.1953 19.2956H44.3477C42.9651 19.3817 42.4022 19.6525 42.0352 20.0587C42.3288 20.0587 42.6102 20.0587 42.8672 20.0587H44.6414C44.9962 20.0587 45.2899 20.0587 45.5468 20.0587C47.994 20.2188 49.2176 20.7481 50.172 21.9544C51.2122 23.419 51.9069 25.1029 52.2031 26.8781C52.3937 27.859 52.4799 28.8576 52.4601 29.8569C54.2495 29.8636 56.0343 29.6738 57.7827 29.2907C58.9906 29.025 60.1617 28.6116 61.2699 28.0598C62.0381 27.6776 62.7437 27.1795 63.3622 26.5827C63.49 26.4445 63.5787 26.2745 63.6192 26.0903C63.7805 25.1359 63.7681 24.1599 63.5825 23.2099Z" fill="black"/>
<path d="M22.4543 20.0716C22.7111 20.0716 23.0046 20.0716 23.3593 20.0716H25.1324C25.3893 20.0716 25.6827 20.0716 25.964 20.0716C25.5971 19.6669 25.0346 19.3972 23.6528 19.3113H21.8429C21.2285 19.3341 20.6143 19.2638 20.0208 19.1029C19.5341 18.9339 19.157 18.5421 19.0058 18.0483C18.8747 17.6242 18.8331 17.1774 18.8835 16.7362C18.9119 16.4868 19.0292 16.256 19.2137 16.0863L19.336 15.9637C20.2495 15.0647 20.7686 13.8382 20.779 12.5548C20.773 12.5059 20.773 12.4565 20.779 12.4076V9.13359C20.7732 9.11356 20.7732 9.09231 20.779 9.07228V8.97418C20.7389 6.29404 18.5606 4.14252 15.8875 4.14282C13.2144 4.14252 11.0361 6.29404 10.996 8.97418V12.2482V12.3708V12.5916C11.0298 13.8459 11.5419 15.0396 12.4267 15.9269L12.5246 16.025C12.7083 16.1938 12.8218 16.4259 12.8425 16.6749H12.8303C12.8863 17.1119 12.8445 17.5559 12.708 17.9747C12.5604 18.4706 12.182 18.8638 11.693 19.0293C11.1035 19.189 10.4934 19.2593 9.88314 19.2378H8.07328C6.54468 19.3359 6.01884 19.6547 5.62752 20.1329C4.99464 21.022 4.57605 22.0462 4.40464 23.1249C4.22189 24.0973 4.22189 25.0954 4.40464 26.0679C4.44235 26.2488 4.53155 26.4149 4.66144 26.5461C5.26659 27.1531 5.95911 27.6656 6.71588 28.0666C7.8234 28.6164 8.99383 29.0282 10.2011 29.2929C11.9485 29.6745 13.7323 29.8636 15.5206 29.8569C15.5009 28.8614 15.5869 27.8667 15.7774 26.8895C16.0735 25.121 16.7677 23.4435 17.8074 21.9845C18.7612 20.7583 20.0575 20.231 22.4543 20.0716Z" fill="black"/>
<path d="M48.9239 23.1801C48.4085 22.4965 47.6967 22.0367 45.4756 21.9372H42.8985C42.0254 21.9741 41.1519 21.8735 40.3092 21.639C39.6168 21.4054 39.0807 20.8439 38.8734 20.1351C38.682 19.5254 38.6234 18.8808 38.7016 18.246C38.7385 17.893 38.8946 17.5637 39.1434 17.3138L39.3275 17.1398C40.6192 15.8436 41.3554 14.0845 41.3768 12.243C41.3703 12.1727 41.3703 12.102 41.3768 12.0317V7.30882C41.3828 7.28013 41.3828 7.2505 41.3768 7.22182V7.07268C41.323 3.20504 38.2011 0.104255 34.382 0.125105C30.5677 0.111094 27.4533 3.20991 27.3995 7.07268V11.7831L27.4731 11.9695L27.3995 12.2802C27.4548 14.0939 28.1975 15.8163 29.4734 17.0901L29.6329 17.2392C29.8988 17.4845 30.065 17.8212 30.0993 18.1838C30.0993 18.3578 30.0993 18.5442 30.0993 18.7058C30.1037 19.1659 30.0332 19.6236 29.8906 20.0605C29.6834 20.7693 29.1473 21.3308 28.4549 21.5644C27.6122 21.7989 26.7387 21.8996 25.8656 21.8627H23.3376C21.1655 22.0118 20.417 22.4717 19.8893 23.1055C18.9941 24.39 18.4021 25.8655 18.159 27.4182C17.8791 28.8104 17.8541 30.2427 18.0854 31.644C18.147 31.9068 18.2786 32.1475 18.4658 32.34C19.3489 33.1992 20.354 33.9198 21.4478 34.4777C23.0072 35.2714 24.6553 35.8723 26.3564 36.2674C28.911 36.8372 31.521 37.1124 34.1366 37.0877H34.382H34.6275C37.2391 37.1131 39.8451 36.8379 42.3954 36.2674C44.0974 35.8752 45.7458 35.2742 47.304 34.4777C48.4077 33.9474 49.4288 33.2565 50.3351 32.427C50.5205 32.235 50.6481 31.9936 50.7033 31.731C50.9515 30.3273 50.9307 28.8885 50.6419 27.4928C50.3971 25.9426 49.8098 24.4684 48.9239 23.1801Z" fill="black"/>
</g>
<defs>
<filter id="filter0_d" x="0.267578" y="0.125" width="67.464" height="44.9643" filterUnits="userSpaceOnUse" color-interpolation-filters="sRGB">
<feFlood flood-opacity="0" result="BackgroundImageFix"/>
<feColorMatrix in="SourceAlpha" type="matrix" values="0 0 0 0 0 0 0 0 0 0 0 0 0 0 0 0 0 0 127 0"/>
<feOffset dy="4"/>
<feGaussianBlur stdDeviation="2"/>
<feColorMatrix type="matrix" values="0 0 0 0 0 0 0 0 0 0 0 0 0 0 0 0 0 0 0.25 0"/>
<feBlend mode="normal" in2="BackgroundImageFix" result="effect1_dropShadow"/>
<feBlend mode="normal" in="SourceGraphic" in2="effect1_dropShadow" result="shape"/>
</filter>
</defs>
</svg>
