<svg width="66" height="77" viewBox="0 0 66 77" fill="none" xmlns="http://www.w3.org/2000/svg">
<path d="M8.63819 60.712V65H7.09419V53.536H10.4782C11.2035 53.536 11.8329 53.6213 12.3662 53.792C12.9049 53.9573 13.3502 54.1947 13.7022 54.504C14.0542 54.8133 14.3155 55.1867 14.4862 55.624C14.6622 56.0613 14.7502 56.5493 14.7502 57.088C14.7502 57.6213 14.6569 58.1093 14.4702 58.552C14.2835 58.9947 14.0089 59.376 13.6462 59.696C13.2889 60.016 12.8435 60.2667 12.3102 60.448C11.7769 60.624 11.1662 60.712 10.4782 60.712H8.63819ZM8.63819 59.48H10.4782C10.9209 59.48 11.3102 59.4213 11.6462 59.304C11.9875 59.1867 12.2729 59.024 12.5022 58.816C12.7315 58.6027 12.9049 58.3493 13.0222 58.056C13.1395 57.7627 13.1982 57.44 13.1982 57.088C13.1982 56.3573 12.9715 55.7867 12.5182 55.376C12.0702 54.9653 11.3902 54.76 10.4782 54.76H8.63819V59.48ZM20.5194 60.216V65H18.9754V53.536H22.2154C22.9408 53.536 23.5674 53.6107 24.0954 53.76C24.6234 53.904 25.0581 54.1147 25.3994 54.392C25.7461 54.6693 26.0021 55.0053 26.1674 55.4C26.3328 55.7893 26.4154 56.2267 26.4154 56.712C26.4154 57.1173 26.3514 57.496 26.2234 57.848C26.0954 58.2 25.9088 58.5173 25.6634 58.8C25.4234 59.0773 25.1274 59.3147 24.7754 59.512C24.4288 59.7093 24.0341 59.8587 23.5914 59.96C23.7834 60.072 23.9541 60.2347 24.1034 60.448L27.4474 65H26.0714C25.7888 65 25.5808 64.8907 25.4474 64.672L22.4714 60.576C22.3808 60.448 22.2821 60.3573 22.1754 60.304C22.0688 60.2453 21.9088 60.216 21.6954 60.216H20.5194ZM20.5194 59.088H22.1434C22.5968 59.088 22.9941 59.0347 23.3354 58.928C23.6821 58.816 23.9701 58.6613 24.1994 58.464C24.4341 58.2613 24.6101 58.0213 24.7274 57.744C24.8448 57.4667 24.9034 57.16 24.9034 56.824C24.9034 56.1413 24.6768 55.6267 24.2234 55.28C23.7754 54.9333 23.1061 54.76 22.2154 54.76H20.5194V59.088ZM33.0523 65H31.5003V53.536H33.0523V65ZM39.0186 53.536C39.1572 53.536 39.2586 53.5547 39.3226 53.592C39.3919 53.624 39.4692 53.6933 39.5546 53.8L46.1946 62.44C46.1786 62.3013 46.1679 62.168 46.1626 62.04C46.1572 61.9067 46.1546 61.7787 46.1546 61.656V53.536H47.5146V65H46.7306C46.6079 65 46.5039 64.9787 46.4186 64.936C46.3386 64.8933 46.2586 64.8213 46.1786 64.72L39.5466 56.088C39.5572 56.2213 39.5652 56.352 39.5706 56.48C39.5759 56.608 39.5786 56.7253 39.5786 56.832V65H38.2186V53.536H39.0186ZM60.2203 53.536V54.84H56.5163V65H54.9643V54.84H51.2443V53.536H60.2203Z" fill="#1F303E"/>
<path fill-rule="evenodd" clip-rule="evenodd" d="M29.2241 36.6025C38.8891 36.6025 46.7241 28.8763 46.7241 19.3456C46.7241 9.81482 38.8891 2.08862 29.2241 2.08862C19.5591 2.08862 11.7241 9.81482 11.7241 19.3456C11.7241 28.8763 19.5591 36.6025 29.2241 36.6025Z" fill="#F8EBC4"/>
<path d="M28.9374 7.26758H10.0478C7.80801 7.26758 6 9.09385 6 11.3562V19.5336H11.397V24.9851H27.5882V19.5336H32.9852V11.3562C32.9852 9.09385 31.1772 7.26758 28.9374 7.26758ZM24.8897 22.2594H14.0956V15.4449H24.8897V22.2594ZM28.9374 12.7191C28.1953 12.7191 27.5882 12.1058 27.5882 11.3562C27.5882 10.6067 28.1953 9.99335 28.9374 9.99335C29.6795 9.99335 30.2867 10.6067 30.2867 11.3562C30.2867 12.1058 29.6795 12.7191 28.9374 12.7191ZM27.5882 0.453125H11.397V5.90469H27.5882V0.453125Z" fill="#1F303E"/>
</svg>
