<svg width="20" height="20" viewBox="0 0 20 20" fill="none" xmlns="http://www.w3.org/2000/svg">
<path d="M13.7953 6.40162C12.686 5.29226 11.2353 4.73285 9.77511 4.73285V10.4218L5.75489 14.4421C7.97359 16.6608 11.5766 16.6608 13.8048 14.4421C16.0235 12.2234 16.0235 8.62032 13.7953 6.40162ZM9.77511 0.940186C4.54124 0.940186 0.293457 5.18797 0.293457 10.4218C0.293457 15.6557 4.54124 19.9035 9.77511 19.9035C15.009 19.9035 19.2568 15.6557 19.2568 10.4218C19.2568 5.18797 15.009 0.940186 9.77511 0.940186ZM9.77511 18.0072C5.58422 18.0072 2.18979 14.6127 2.18979 10.4218C2.18979 6.23095 5.58422 2.83652 9.77511 2.83652C13.966 2.83652 17.3604 6.23095 17.3604 10.4218C17.3604 14.6127 13.966 18.0072 9.77511 18.0072Z" fill="#F9F9F9"/>
</svg>
