<!-- Generated by IcoMoon.io -->
<svg version="1.1" xmlns="http://www.w3.org/2000/svg" width="32" height="32" viewBox="0 0 32 32">
<title>like-dislike</title>
<path d="M6.307 10.533c0 0-2.707 3.107-3.467 4.067h-2.84c0.040 0 0 8.813 0 9.040 0.307 0 2.707-0.093 2.84 0 0 0 0.973 0.187 1.427 0.36 0.627 0.413 4.467 0.96 5.84 1.133 0 0 0.547 0.133 1.227 0.040 1.653-0.24 1.747-2.32 1.747-2.32 1.427-1.72 0.627-2.587 0.84-3.080 1.107-2.227 0.28-2.947 0.307-3.173 0.227-0.493 0.64-0.747 0.64-2.013s-1.467-1.933-2.493-1.933-2.373 0.147-2.813-0.12c-0.44-0.267 0.96-1.36 1.187-3.547 0.227-2.173-0.813-2.96-1.88-2.64s-1.187 1.653-1.32 2.027c-0.133 0.36-0.253 0.347-0.347 0.613-0.093 0.28-0.653 1.36-0.893 1.547z"></path>
<path d="M26.96 20.173c0 0 1.813-3.707 2.293-4.813l2.747-0.747c-0.040 0.013-2.28-8.52-2.347-8.733-0.293 0.080-2.587 0.787-2.747 0.733 0 0-0.987 0.080-1.467 0.013-0.707-0.227-4.56 0.227-5.947 0.413 0 0-0.573 0.013-1.187 0.28-1.547 0.667-1.080 2.693-1.080 2.693-0.933 2.027 0.067 2.653-0.013 3.2-0.493 2.44 0.493 2.92 0.52 3.147-0.080 0.533-0.427 0.893-0.107 2.12 0.333 1.227 1.92 1.493 2.907 1.227s2.267-0.76 2.76-0.613c0.493 0.147-0.587 1.573-0.227 3.733 0.347 2.16 1.547 2.653 2.493 2.067s0.72-1.907 0.76-2.293c0.040-0.387 0.16-0.4 0.173-0.693 0.013-0.307 0.28-1.507 0.467-1.733z"></path>
</svg>
