<!-- Generated by IcoMoon.io -->
<svg version="1.1" xmlns="http://www.w3.org/2000/svg" width="36" height="32" viewBox="0 0 36 32">
<title>list</title>
<path d="M5.667 24.2h-4.533c-0.637 0-1.133 0.567-1.133 1.133v4.533c0 0.637 0.496 1.133 1.133 1.133h4.533c0.567 0 1.133-0.496 1.133-1.133v-4.533c0-0.567-0.567-1.133-1.133-1.133zM5.667 1.533h-4.533c-0.637 0-1.133 0.567-1.133 1.133v4.533c0 0.638 0.496 1.133 1.133 1.133h4.533c0.567 0 1.133-0.496 1.133-1.133v-4.533c0-0.567-0.567-1.133-1.133-1.133zM5.667 12.867h-4.533c-0.637 0-1.133 0.567-1.133 1.133v4.533c0 0.637 0.496 1.133 1.133 1.133h4.533c0.567 0 1.133-0.496 1.133-1.133v-4.533c0-0.567-0.567-1.133-1.133-1.133zM35.133 25.333h-22.667c-0.637 0-1.133 0.567-1.133 1.133v2.267c0 0.637 0.496 1.133 1.133 1.133h22.667c0.567 0 1.133-0.496 1.133-1.133v-2.267c0-0.567-0.567-1.133-1.133-1.133zM35.133 2.667h-22.667c-0.637 0-1.133 0.567-1.133 1.133v2.267c0 0.638 0.496 1.133 1.133 1.133h22.667c0.567 0 1.133-0.496 1.133-1.133v-2.267c0-0.567-0.567-1.133-1.133-1.133zM35.133 14h-22.667c-0.637 0-1.133 0.567-1.133 1.133v2.267c0 0.637 0.496 1.133 1.133 1.133h22.667c0.567 0 1.133-0.496 1.133-1.133v-2.267c0-0.567-0.567-1.133-1.133-1.133z"></path>
</svg>
