<svg width="35" height="33" viewBox="0 0 35 33" fill="none" xmlns="http://www.w3.org/2000/svg">
<path fill-rule="evenodd" clip-rule="evenodd" d="M3.87519 17.2917L3.87519 19.2424C3.87519 26.7822 9.9486 32.898 17.4376 32.898C24.926 32.8979 31 26.7822 31 19.2424C31 21.3864 30.3124 23.3685 29.1477 24.9785C27.3861 27.4136 24.5333 28.9966 21.3128 28.9966C15.9622 28.9966 11.6252 24.6292 11.6252 19.2424L11.6252 17.2917L15.5001 17.2917L7.75 9.48979L-1.36434e-06 17.2917L3.87519 17.2917Z" fill="#E5A000"/>
<path fill-rule="evenodd" clip-rule="evenodd" d="M31.1248 15.6062V13.6556C31.1248 6.1157 25.0514 0 17.5624 0C10.074 0 4 6.1157 4 13.6556C4 11.5116 4.68761 9.52945 5.85225 7.91946C7.61389 5.48432 10.4667 3.90137 13.6872 3.90137C19.0378 3.90137 23.3748 8.2688 23.3748 13.6556V15.6062H19.4999L27.25 23.4082L35 15.6062H31.1248Z" fill="#005EA2"/>
</svg>
