<svg width="508" height="508" xmlns="http://www.w3.org/2000/svg"><path d="M491.3 491.6v-49.1h-32.7v-49.1h-32.7v-32.7h-16.4V172.5h16.4v-32.7h57.3V93.3L254 0 24.9 93.3v46.4h57.3v32.7h16.4v188.2H82.2v32.7H49.4v49.1H16.7v49.1H.3V508h507.3v-16.4h-16.3zm-81.8-98.2H344V377h65.5v16.4zM180.4 139.8h24.5v32.7h16.4v188.2h-16.4v32.7h-24.5v-32.7H164V172.5h16.4v-32.7zm90 220.9h-32.7V172.5h32.7v188.2zm-49.1-204.6v-16.4h65.5v16.4h-65.5zm0 221h65.5v16.4h-65.5v-16.4zm65.4-16.4V172.5h16.4v-32.7h24.5v32.7H344v188.2h-16.4v32.7h-24.5v-32.7h-16.4zm106.4 0h-32.7V172.5h32.7v188.2zm16.4-204.6H344v-16.4h65.5v16.4zM41.2 123.4v-19L254 17.7l212.8 86.7v19H41.2zm57.3 16.4H164v16.4H98.5v-16.4zm16.4 32.7h32.7v188.2h-32.7V172.5zM98.5 377.1H164v16.4H98.5v-16.4zm-32.7 32.7h376.4v32.7H65.8v-32.7zm409.1 81.8H33.1v-32.7H475v32.7h-.1z" fill="#000" fill-rule="nonzero"/></svg>