<?xml version="1.0" encoding="UTF-8"?>
<svg width="508px" height="508px" viewBox="0 0 508 508" version="1.1" xmlns="http://www.w3.org/2000/svg" xmlns:xlink="http://www.w3.org/1999/xlink">
    <!-- Generator: Sketch 59.1 (86144) - https://sketch.com -->
    <title>court</title>
    <desc>Created with Sketch.</desc>
    <g id="Page-1" stroke="none" stroke-width="1" fill="none" fill-rule="evenodd">
        <g id="court" fill="#FFFFFF" fill-rule="nonzero">
            <path d="M491.3,491.6 L491.3,442.5 L458.6,442.5 L458.6,393.4 L425.9,393.4 L425.9,360.7 L409.5,360.7 L409.5,172.5 L425.9,172.5 L425.9,139.8 L483.2,139.8 L483.2,93.3 L254,0 L24.9,93.3 L24.9,139.7 L82.2,139.7 L82.2,172.4 L98.6,172.4 L98.6,360.6 L82.2,360.6 L82.2,393.3 L49.4,393.3 L49.4,442.4 L16.7,442.4 L16.7,491.5 L0.3,491.5 L0.3,508 L507.6,508 L507.6,491.6 L491.3,491.6 Z M409.5,393.4 L344,393.4 L344,377 L409.5,377 L409.5,393.4 L409.5,393.4 Z M180.4,139.8 L204.9,139.8 L204.9,172.5 L221.3,172.5 L221.3,360.7 L204.9,360.7 L204.9,393.4 L180.4,393.4 L180.4,360.7 L164,360.7 L164,172.5 L180.4,172.5 L180.4,139.8 Z M270.4,360.7 L237.7,360.7 L237.7,172.5 L270.4,172.5 L270.4,360.7 L270.4,360.7 Z M221.3,156.1 L221.3,139.7 L286.8,139.7 L286.8,156.1 L221.3,156.1 L221.3,156.1 Z M221.3,377.1 L286.8,377.1 L286.8,393.5 L221.3,393.5 L221.3,377.1 L221.3,377.1 Z M286.7,360.7 L286.7,172.5 L303.1,172.5 L303.1,139.8 L327.6,139.8 L327.6,172.5 L344,172.5 L344,360.7 L327.6,360.7 L327.6,393.4 L303.1,393.4 L303.1,360.7 L286.7,360.7 L286.7,360.7 Z M393.1,360.7 L360.4,360.7 L360.4,172.5 L393.1,172.5 L393.1,360.7 L393.1,360.7 Z M409.5,156.1 L344,156.1 L344,139.7 L409.5,139.7 L409.5,156.1 Z M41.2,123.4 L41.2,104.4 L254,17.7 L466.8,104.4 L466.8,123.4 L41.2,123.4 Z M98.5,139.8 L164,139.8 L164,156.2 L98.5,156.2 L98.5,139.8 Z M114.9,172.5 L147.6,172.5 L147.6,360.7 L114.9,360.7 L114.9,172.5 L114.9,172.5 Z M98.5,377.1 L164,377.1 L164,393.5 L98.5,393.5 L98.5,377.1 Z M65.8,409.8 L442.2,409.8 L442.2,442.5 L65.8,442.5 L65.8,409.8 Z M474.9,491.6 L33.1,491.6 L33.1,458.9 L475,458.9 L475,491.6 L474.9,491.6 Z" id="Shape"></path>
        </g>
    </g>
</svg>