<svg id="Layer_1" data-name="Layer 1" xmlns="http://www.w3.org/2000/svg" viewBox="0 0 36 36"><defs><style>.cls-1{fill:#231f20;}</style></defs><path class="cls-1" d="M8.09,31.05a3.7,3.7,0,0,1-1-2.76V7.88A4,4,0,0,1,8.1,5,3.88,3.88,0,0,1,11,4H25A3.88,3.88,0,0,1,27.9,5a4,4,0,0,1,1,2.9V23.09a3.43,3.43,0,0,1-.15,1.08,3.49,3.49,0,0,1-.38.8,6.27,6.27,0,0,1-.5.61,3.78,3.78,0,0,0-1,1.85,2.71,2.71,0,0,0,1.52,3,.77.77,0,0,1,.38.29.82.82,0,0,1,.15.47.74.74,0,0,1-.23.57.78.78,0,0,1-.57.23H10.89A3.81,3.81,0,0,1,8.09,31.05Zm1.65-6.3a4.21,4.21,0,0,1,1.3-.18H25.55a1.5,1.5,0,0,0,1.7-1.68V7.9a2.3,2.3,0,0,0-.58-1.69A2.29,2.29,0,0,0,25,5.62H11a2.28,2.28,0,0,0-1.71.59A2.3,2.3,0,0,0,8.75,7.9V25.3A2.83,2.83,0,0,1,9.74,24.75ZM26,30.38a3.67,3.67,0,0,1-.88-2,4.06,4.06,0,0,1,.47-2.29,1.43,1.43,0,0,1-.37.08,2.77,2.77,0,0,1-.42,0H11.05a2.42,2.42,0,0,0-1.68.56,2,2,0,0,0-.62,1.52,2,2,0,0,0,.58,1.56,2.28,2.28,0,0,0,1.64.55ZM10.34,5.17h1.37V25.43H10.34Zm3.38,6.56a.65.65,0,0,1-.2-.47.68.68,0,0,1,.69-.69H24.67a.63.63,0,0,1,.47.2.63.63,0,0,1,.2.49.61.61,0,0,1-.2.47.63.63,0,0,1-.47.2H14.21A.66.66,0,0,1,13.72,11.73Zm0,3.53a.69.69,0,0,1-.2-.48.68.68,0,0,1,.2-.49.66.66,0,0,1,.49-.19h7.62a.67.67,0,0,1,.49.19.68.68,0,0,1,.2.49.69.69,0,0,1-.2.48.68.68,0,0,1-.49.2H14.21A.66.66,0,0,1,13.72,15.26Z"/></svg>