<svg id="Layer_1" data-name="Layer 1" xmlns="http://www.w3.org/2000/svg" viewBox="0 0 36 36"><defs><style>.cls-1{fill:#231f20;}</style></defs><path class="cls-1" d="M3.83,30.86a4.58,4.58,0,0,1-1.14-3.38v-19A4.58,4.58,0,0,1,3.83,5.14,4.63,4.63,0,0,1,7.23,4H28.77a4.64,4.64,0,0,1,3.41,1.14,4.57,4.57,0,0,1,1.13,3.38v19a4.6,4.6,0,0,1-1.13,3.38A4.64,4.64,0,0,1,28.77,32H7.23A4.63,4.63,0,0,1,3.83,30.86Zm25.06-.76a2.27,2.27,0,0,0,2.52-2.54V13.41a2.54,2.54,0,0,0-.66-1.9,2.52,2.52,0,0,0-1.86-.64H7.11a2.53,2.53,0,0,0-1.87.64,2.53,2.53,0,0,0-.65,1.9V27.56a2.53,2.53,0,0,0,.65,1.9,2.57,2.57,0,0,0,1.87.64ZM9.18,21.41a.66.66,0,0,1-.12-.47V20a.69.69,0,0,1,.12-.48.81.81,0,0,1,.5-.11h.91a.76.76,0,0,1,.48.11.69.69,0,0,1,.12.48v.91a.66.66,0,0,1-.12.47.69.69,0,0,1-.48.12H9.68A.74.74,0,0,1,9.18,21.41Zm0,5.18a.73.73,0,0,1-.12-.48v-.92a.68.68,0,0,1,.12-.47.75.75,0,0,1,.5-.11h.91a.7.7,0,0,1,.48.11.68.68,0,0,1,.12.47v.92a.73.73,0,0,1-.12.48.69.69,0,0,1-.48.12H9.68A.74.74,0,0,1,9.18,26.59Zm5.25-10.35a.64.64,0,0,1-.13-.47v-.91a.69.69,0,0,1,.13-.48.74.74,0,0,1,.49-.12h.91a.74.74,0,0,1,.49.12.64.64,0,0,1,.13.48v.91c0,.24,0,.4-.13.47a.74.74,0,0,1-.49.12h-.91A.74.74,0,0,1,14.43,16.24Zm0,5.17a.66.66,0,0,1-.13-.47V20a.69.69,0,0,1,.13-.48.82.82,0,0,1,.49-.11h.91a.82.82,0,0,1,.49.11.64.64,0,0,1,.13.48v.91a.61.61,0,0,1-.13.47.74.74,0,0,1-.49.12h-.91A.74.74,0,0,1,14.43,21.41Zm0,5.18a.73.73,0,0,1-.13-.48v-.92a.68.68,0,0,1,.13-.47.75.75,0,0,1,.49-.11h.91a.75.75,0,0,1,.49.11.63.63,0,0,1,.13.47v.92a.67.67,0,0,1-.13.48.74.74,0,0,1-.49.12h-.91A.74.74,0,0,1,14.43,26.59Zm5.26-10.35c-.09-.07-.13-.23-.13-.47v-.91a.64.64,0,0,1,.13-.48.71.71,0,0,1,.49-.12h.9a.71.71,0,0,1,.49.12.64.64,0,0,1,.13.48v.91c0,.24,0,.4-.13.47a.71.71,0,0,1-.49.12h-.9A.71.71,0,0,1,19.69,16.24Zm0,5.17a.61.61,0,0,1-.13-.47V20a.64.64,0,0,1,.13-.48.78.78,0,0,1,.49-.11h.9a.78.78,0,0,1,.49.11.64.64,0,0,1,.13.48v.91a.61.61,0,0,1-.13.47.71.71,0,0,1-.49.12h-.9A.71.71,0,0,1,19.69,21.41Zm0,5.18a.67.67,0,0,1-.13-.48v-.92a.63.63,0,0,1,.13-.47.72.72,0,0,1,.49-.11h.9a.72.72,0,0,1,.49.11.63.63,0,0,1,.13.47v.92a.67.67,0,0,1-.13.48.71.71,0,0,1-.49.12h-.9A.71.71,0,0,1,19.69,26.59Zm5.24-10.35a.65.65,0,0,1-.12-.47v-.91a.69.69,0,0,1,.12-.48.74.74,0,0,1,.5-.12h.91a.69.69,0,0,1,.48.12.69.69,0,0,1,.12.48v.91a.65.65,0,0,1-.12.47.69.69,0,0,1-.48.12h-.91A.74.74,0,0,1,24.93,16.24Zm0,5.17a.66.66,0,0,1-.12-.47V20a.69.69,0,0,1,.12-.48.81.81,0,0,1,.5-.11h.91a.76.76,0,0,1,.48.11.69.69,0,0,1,.12.48v.91a.66.66,0,0,1-.12.47.69.69,0,0,1-.48.12h-.91A.74.74,0,0,1,24.93,21.41Z"/></svg>