<svg id="Layer_1" data-name="Layer 1" xmlns="http://www.w3.org/2000/svg" viewBox="0 0 36 36"><defs><style>.cls-1{fill:#231f20;}</style></defs><path class="cls-1" d="M7.62,30.17a1.29,1.29,0,0,1-.28-.9v-3.6H5.64a5.66,5.66,0,0,1-2.72-.61,4.16,4.16,0,0,1-1.77-1.73,5.58,5.58,0,0,1-.63-2.76V9.08a5.63,5.63,0,0,1,.63-2.76A4.11,4.11,0,0,1,2.92,4.59,5.9,5.9,0,0,1,5.64,4H23.4a6.06,6.06,0,0,1,2.77.59,4.11,4.11,0,0,1,1.75,1.73,5.86,5.86,0,0,1,.6,2.76v2.13H27v-2A3.71,3.71,0,0,0,26,6.4a3.78,3.78,0,0,0-2.74-.94H5.78A3.78,3.78,0,0,0,3,6.4a3.75,3.75,0,0,0-1,2.77V20.48a3.72,3.72,0,0,0,1,2.77,3.73,3.73,0,0,0,2.74.94H8a.82.82,0,0,1,.56.2.86.86,0,0,1,.22.63v3.73l5.28-5,1,1.24L9.91,29.78a3.91,3.91,0,0,1-.77.55,1.55,1.55,0,0,1-.71.17A1,1,0,0,1,7.62,30.17Zm20.77,1.64a8.34,8.34,0,0,1-.71-.55l-4.11-3.53H18.1a5.62,5.62,0,0,1-2.53-.53A3.68,3.68,0,0,1,14,25.63a5.35,5.35,0,0,1-.54-2.51v-8A5.42,5.42,0,0,1,14,12.64a3.7,3.7,0,0,1,1.6-1.58,5.49,5.49,0,0,1,2.53-.54H30.8a5.37,5.37,0,0,1,2.48.54,3.8,3.8,0,0,1,1.62,1.58,5.08,5.08,0,0,1,.58,2.52v8a5,5,0,0,1-.58,2.51,3.78,3.78,0,0,1-1.62,1.57,5.37,5.37,0,0,1-2.48.54h-.72v3.06a1.31,1.31,0,0,1-.28.88A.94.94,0,0,1,29,32,1.14,1.14,0,0,1,28.39,31.81Zm.22-4.75a.71.71,0,0,1,.75-.79h1.32a3.3,3.3,0,0,0,2.39-.82A3.19,3.19,0,0,0,33.92,23V15.25a3.26,3.26,0,0,0-.84-2.43,3.27,3.27,0,0,0-2.4-.83H18.23a3.24,3.24,0,0,0-2.4.83A3.26,3.26,0,0,0,15,15.25V23a3.19,3.19,0,0,0,.85,2.43,3.32,3.32,0,0,0,2.4.81H23.5a1.76,1.76,0,0,1,.66.1,2.32,2.32,0,0,1,.57.38l3.88,3.45Z"/></svg>