<svg id="Layer_1" data-name="Layer 1" xmlns="http://www.w3.org/2000/svg" viewBox="0 0 36 36"><defs><style>.cls-1{fill:#fff;}.cls-2{fill:#231f20;}</style></defs><path class="cls-1" d="M26.5,23A5.5,5.5,0,1,1,21,28.5,5.51,5.51,0,0,1,26.5,23"/><path class="cls-1" d="M26.5,22A6.5,6.5,0,1,1,20,28.5,6.5,6.5,0,0,1,26.5,22m0-1A7.5,7.5,0,1,0,34,28.5,7.5,7.5,0,0,0,26.5,21Z"/><path class="cls-2" d="M26.5,23A5.5,5.5,0,1,1,21,28.5,5.51,5.51,0,0,1,26.5,23m0-1A6.5,6.5,0,1,0,33,28.5,6.5,6.5,0,0,0,26.5,22Z"/><rect class="cls-1" x="27.38" y="25.26" width="0.37" height="3.37" transform="translate(-10.98 27.41) rotate(-45.05)"/><polygon class="cls-2" points="26.5 25.17 25.79 25.88 28.62 28.71 29.33 28 26.5 25.17 26.5 25.17"/><rect class="cls-1" x="23.76" y="26.76" width="3.37" height="0.37" transform="translate(-11.6 25.88) rotate(-45.01)"/><polygon class="cls-2" points="26.5 25.17 23.67 28 24.38 28.71 27.21 25.88 26.5 25.17 26.5 25.17"/><rect class="cls-1" x="26.32" y="26.32" width="0.37" height="5.37"/><polygon class="cls-2" points="27 26 26 26 26 32 27 32 27 26 27 26"/><path class="cls-2" d="M23.08,19.91H12.75a.64.64,0,0,0-.47.19.63.63,0,0,0-.19.46.65.65,0,0,0,.19.45.64.64,0,0,0,.47.19H23.08a.6.6,0,0,0,.46-.19.64.64,0,0,0,.18-.45.62.62,0,0,0-.18-.46A.6.6,0,0,0,23.08,19.91Z"/><path class="cls-2" d="M12.75,24.52a.65.65,0,0,0-.66.66.64.64,0,0,0,.19.45.67.67,0,0,0,.47.18h6.76a7.75,7.75,0,0,1,.64-1.29Z"/><path class="cls-2" d="M19.25,30.38H11a2.32,2.32,0,0,1-1.71-.58,2.32,2.32,0,0,1-.57-1.69V7.92a2.38,2.38,0,0,1,.57-1.7,2.3,2.3,0,0,1,1.73-.6h6.16v7.92a2.23,2.23,0,0,0,.55,1.66,2.29,2.29,0,0,0,1.66.55h7.81V21a6.78,6.78,0,0,1,1.62.35V15.81a8.14,8.14,0,0,0-.08-1.21,2.37,2.37,0,0,0-.31-.88,4.27,4.27,0,0,0-.67-.85L20.08,5.06a3.82,3.82,0,0,0-.82-.65,2.93,2.93,0,0,0-.87-.32A6.08,6.08,0,0,0,17.28,4H11A3.87,3.87,0,0,0,8.11,5a3.94,3.94,0,0,0-1,2.9V28.14a3.9,3.9,0,0,0,1,2.89A3.86,3.86,0,0,0,11,32h8.89A7.54,7.54,0,0,1,19.25,30.38ZM18.74,5.94l8.18,8.27H19.58a.89.89,0,0,1-.64-.19.9.9,0,0,1-.2-.65Z"/></svg>