<svg id="Layer_1" data-name="Layer 1" xmlns="http://www.w3.org/2000/svg" viewBox="0 0 36 36"><defs><style>.cls-1{fill:#231f20;}</style></defs><path class="cls-1" d="M8.11,31a3.9,3.9,0,0,1-1-2.89V7.88a3.94,3.94,0,0,1,1-2.9A3.87,3.87,0,0,1,11,4h6.3a6.08,6.08,0,0,1,1.11.09,2.93,2.93,0,0,1,.87.32,3.82,3.82,0,0,1,.82.65l7.72,7.81a4.27,4.27,0,0,1,.67.85,2.37,2.37,0,0,1,.31.88,8.14,8.14,0,0,1,.08,1.21V28.14a3.91,3.91,0,0,1-1,2.89A3.86,3.86,0,0,1,25,32H11A3.86,3.86,0,0,1,8.11,31Zm16.83-.65a2,2,0,0,0,2.3-2.27V15.75H19.43a2.29,2.29,0,0,1-1.66-.55,2.23,2.23,0,0,1-.55-1.66V5.62H11.06a2.3,2.3,0,0,0-1.73.6,2.38,2.38,0,0,0-.57,1.7V28.11a2.32,2.32,0,0,0,.57,1.69,2.32,2.32,0,0,0,1.71.58ZM12.75,19.91a.64.64,0,0,0-.47.19.63.63,0,0,0-.19.46.65.65,0,0,0,.19.45.64.64,0,0,0,.47.19H23.08a.6.6,0,0,0,.46-.19.64.64,0,0,0,.18-.45.62.62,0,0,0-.18-.46.6.6,0,0,0-.46-.19Zm0,4.61a.65.65,0,0,0-.66.66.64.64,0,0,0,.19.45.67.67,0,0,0,.47.18H23.08a.63.63,0,0,0,.46-.18.63.63,0,0,0,.18-.45.67.67,0,0,0-.18-.47.64.64,0,0,0-.46-.19ZM26.92,14.21,18.74,5.94v7.43a.9.9,0,0,0,.2.65.89.89,0,0,0,.64.19Z"/></svg>