<svg id="Layer_1" data-name="Layer 1" xmlns="http://www.w3.org/2000/svg" viewBox="0 0 36 36"><defs><style>.cls-1{fill:#231f20;}</style></defs><path class="cls-1" d="M12.59,30.9A14.19,14.19,0,0,1,5.1,23.41a13.85,13.85,0,0,1,0-10.82A14.22,14.22,0,0,1,12.58,5.1a13.85,13.85,0,0,1,10.82,0,14.28,14.28,0,0,1,4.47,3,14.6,14.6,0,0,1,3,4.47,13.85,13.85,0,0,1,0,10.82,14.6,14.6,0,0,1-3,4.47,14.36,14.36,0,0,1-4.46,3,13.85,13.85,0,0,1-10.82,0Zm10.16-1.65a12.25,12.25,0,0,0,6.51-6.51,12.36,12.36,0,0,0,0-9.48,12.37,12.37,0,0,0-6.52-6.52A11.9,11.9,0,0,0,18,5.8a11.9,11.9,0,0,0-4.74.94A12.21,12.21,0,0,0,5.81,18a12,12,0,0,0,1,4.74,12.27,12.27,0,0,0,2.61,3.89,12.42,12.42,0,0,0,3.88,2.62,12.35,12.35,0,0,0,9.5,0ZM14.94,25.4a.76.76,0,0,1,0-1.09.76.76,0,0,1,.56-.22h2V16.83H15.68a.77.77,0,0,1-.57-.22.79.79,0,0,1,0-1.09.78.78,0,0,1,.57-.23h2.68a.77.77,0,0,1,.63.27,1,1,0,0,1,.22.68v7.85h2a.77.77,0,0,1,.57.22.76.76,0,0,1,0,1.09.77.77,0,0,1-.57.22H15.5A.76.76,0,0,1,14.94,25.4Zm1.9-13.11a1.45,1.45,0,0,1-.45-1.07A1.53,1.53,0,0,1,19,10.13a1.51,1.51,0,0,1,.44,1.09,1.52,1.52,0,0,1-2.6,1.07Z"/></svg>