<svg id="Layer_1" data-name="Layer 1" xmlns="http://www.w3.org/2000/svg" viewBox="0 0 36 36"><defs><style>.cls-1{fill:#231f20;}</style></defs><path class="cls-1" d="M.59,29.45A1.87,1.87,0,0,1,0,27.94a6.58,6.58,0,0,1,.73-3,8.85,8.85,0,0,1,2.05-2.64,10,10,0,0,1,3.1-1.85,10.66,10.66,0,0,1,3.88-.69A10.91,10.91,0,0,1,12,20a9.84,9.84,0,0,1,2.06.64,9.22,9.22,0,0,1,1.85,1.06,6.22,6.22,0,0,0-.61.49,5.48,5.48,0,0,0-.52.56,7.8,7.8,0,0,0-1.5-.82,9.07,9.07,0,0,0-1.68-.49,10,10,0,0,0-1.84-.17,9.48,9.48,0,0,0-3.16.53A9,9,0,0,0,4,23.24a7.23,7.23,0,0,0-1.81,2.12,5.21,5.21,0,0,0-.65,2.5.59.59,0,0,0,.15.46.76.76,0,0,0,.51.14H12.23a1.53,1.53,0,0,0,.12.6,2.14,2.14,0,0,0,.32.52,1.52,1.52,0,0,0,.44.37H2.36A2.73,2.73,0,0,1,.59,29.45Zm6.79-12a5.17,5.17,0,0,1-1.71-1.88A5.44,5.44,0,0,1,5,12.94a5.13,5.13,0,0,1,.63-2.57A5,5,0,0,1,7.38,8.5a4.47,4.47,0,0,1,4.79,0,5,5,0,0,1,1.73,1.86,5.22,5.22,0,0,1,.65,2.57,5.56,5.56,0,0,1-.64,2.66,5.14,5.14,0,0,1-1.72,1.89,4.43,4.43,0,0,1-4.81,0Zm4-1.29a3.47,3.47,0,0,0,1.19-1.35,4.13,4.13,0,0,0,.44-1.91,3.83,3.83,0,0,0-.44-1.82,3.37,3.37,0,0,0-1.18-1.3,2.87,2.87,0,0,0-1.64-.49,3,3,0,0,0-1.64.49A3.5,3.5,0,0,0,7,11.12a3.85,3.85,0,0,0-.44,1.82A4.12,4.12,0,0,0,7,14.84a3.49,3.49,0,0,0,1.18,1.34,2.92,2.92,0,0,0,3.27,0ZM13.54,28a5.65,5.65,0,0,1,.78-2.7,9.69,9.69,0,0,1,2.23-2.7,11.85,11.85,0,0,1,3.54-2.05,13.21,13.21,0,0,1,4.69-.79,13.22,13.22,0,0,1,4.67.79A11.72,11.72,0,0,1,33,22.63a9.69,9.69,0,0,1,2.23,2.7A5.65,5.65,0,0,1,36,28q0,1.92-2.82,1.92H16.36Q13.54,30,13.54,28Zm20.06.4a1.14,1.14,0,0,0,.61-.12.48.48,0,0,0,.19-.45,4.35,4.35,0,0,0-.64-2.05,7.87,7.87,0,0,0-1.88-2.15,10.07,10.07,0,0,0-3-1.69,11.71,11.71,0,0,0-4.08-.67,11.79,11.79,0,0,0-4.1.67,10.12,10.12,0,0,0-3,1.69,8,8,0,0,0-1.87,2.15,4.32,4.32,0,0,0-.63,2.05.5.5,0,0,0,.17.45,1.2,1.2,0,0,0,.63.12ZM22,17.09a5.81,5.81,0,0,1-2-2.17,6.33,6.33,0,0,1-.74-3A5.94,5.94,0,0,1,22,6.84a5.1,5.1,0,0,1,2.76-.79,5,5,0,0,1,2.75.79,5.79,5.79,0,0,1,2,2.1,6,6,0,0,1,.73,3,6.26,6.26,0,0,1-.73,3,6,6,0,0,1-2,2.16,4.9,4.9,0,0,1-2.75.81A5,5,0,0,1,22,17.09Zm4.7-1.31a4.34,4.34,0,0,0,1.4-1.62,4.86,4.86,0,0,0,.52-2.27,4.57,4.57,0,0,0-.52-2.19,4.15,4.15,0,0,0-1.4-1.56,3.52,3.52,0,0,0-1.94-.57,3.46,3.46,0,0,0-1.95.58,4.26,4.26,0,0,0-1.41,1.56,4.49,4.49,0,0,0-.51,2.2,4.82,4.82,0,0,0,.52,2.26,4.24,4.24,0,0,0,1.4,1.61,3.4,3.4,0,0,0,1.95.6A3.35,3.35,0,0,0,26.73,15.78Z"/></svg>