<svg id="Layer_1" data-name="Layer 1" xmlns="http://www.w3.org/2000/svg" viewBox="0 0 36 36"><defs><style>.cls-1{fill:#231f20;}</style></defs><path class="cls-1" d="M1,30.78A4.52,4.52,0,0,1-.15,27.42V8.58A4.52,4.52,0,0,1,1,5.22,4.61,4.61,0,0,1,4.37,4.09h27a4.64,4.64,0,0,1,3.39,1.13,4.52,4.52,0,0,1,1.14,3.36V27.42a4.52,4.52,0,0,1-1.14,3.35,4.6,4.6,0,0,1-3.39,1.14H4.37A4.61,4.61,0,0,1,1,30.78ZM31.29,30a2.64,2.64,0,0,0,2-.68,2.69,2.69,0,0,0,.69-2V8.67a2.69,2.69,0,0,0-.69-2,2.64,2.64,0,0,0-2-.68H4.42a2.65,2.65,0,0,0-2,.68,2.69,2.69,0,0,0-.69,2V27.33a2.69,2.69,0,0,0,.69,2,2.65,2.65,0,0,0,2,.68ZM14.93,24a1,1,0,0,1-.92.1.69.69,0,0,1-.45-.69V12.57a.7.7,0,0,1,.46-.69,1,1,0,0,1,.91.09l8.79,5.28a.82.82,0,0,1,.44.75.84.84,0,0,1-.44.77Z"/></svg>