<svg width="570" height="38" fill="none" xmlns="http://www.w3.org/2000/svg"><path d="M16.821 11.144l.406 3.046.039.318-.038.127a.234.234 0 01-.19.127c-.102.008-.255-.17-.458-.534-1.583-2.775-3.728-4.163-6.436-4.163-2.159 0-3.86.664-5.104 1.993-1.244 1.328-1.866 3.144-1.866 5.446 0 2.649.69 4.816 2.07 6.5 1.387 1.676 3.169 2.514 5.344 2.514 1.27 0 2.518-.339 3.745-1.016 1.227-.677 2.078-1.498 2.552-2.463.22-.449.39-.677.508-.686.135-.008.203.072.203.242l-.013.14-.05.279-.293 1.549-.05.228c-.034.22-.233.449-.597.686-1.955 1.244-4.11 1.866-6.462 1.866-2.725 0-4.922-.808-6.589-2.425-1.667-1.617-2.501-3.745-2.501-6.386 0-2.64.863-4.832 2.59-6.576 1.726-1.752 3.893-2.628 6.5-2.628 1.786 0 3.428.402 4.926 1.206l.508.267.203.089.215.076c.043 0 .106-.034.19-.102.187-.135.314-.203.382-.203.135 0 .224.16.266.483zm13.51 9.216h-4.596c-.626 0-1.015.051-1.168.153-.152.101-.355.44-.609 1.015l-.825 1.867c-.373.854-.559 1.49-.559 1.904 0 .398.098.685.292.863.203.178.597.33 1.18.457.255.05.386.152.394.305.009.144-.11.216-.355.216-.093 0-.237-.005-.432-.013l-1.218-.063a34.185 34.185 0 00-1.41-.026 9.74 9.74 0 00-.57.013c-.432.034-.67.05-.712.05-.228 0-.343-.076-.343-.228 0-.135.072-.224.216-.267l.47-.14c.17-.05.398-.253.686-.609.287-.363.524-.74.71-1.13l.369-.837 6.525-14.486c.11-.254.233-.38.368-.38.136 0 .25.122.343.368l5.459 13.964.28.686c.397 1.024.727 1.663.99 1.917.262.245.795.44 1.599.584.262.05.39.157.38.317-.008.144-.126.216-.355.216-.076 0-.236-.008-.482-.025-.44-.042-1.223-.064-2.349-.064-1.176 0-1.912.026-2.209.077-.177.033-.308.05-.393.05-.22 0-.33-.089-.33-.266 0-.136.106-.225.317-.267l.394-.089c.423-.084.635-.372.635-.863 0-.449-.259-1.342-.775-2.679l-.635-1.676c-.177-.465-.317-.732-.419-.8-.101-.076-.389-.114-.863-.114zm.152-2.03l-1.993-5.028-.101-.267c-.102-.27-.212-.41-.33-.419-.06-.008-.127.072-.204.241l-2.475 5.498c-.11.236-.165.393-.165.47 0 .22.195.33.584.33l.343.012h3.834c.423 0 .634-.106.634-.317 0-.06-.02-.157-.063-.292l-.064-.229zm13.523 5.242l.013.445c0 1.015.097 1.616.291 1.802.195.187.83.28 1.905.28 1.582 0 2.954-.187 4.113-.559 1.168-.38 1.913-.88 2.234-1.498.119-.229.238-.343.356-.343.135 0 .199.085.19.254-.033.559-.308 1.172-.825 1.84-.728.924-1.908 1.385-3.542 1.385-.27 0-.584-.013-.94-.038l-1.37-.102a34.757 34.757 0 00-2.552-.089c-1.041 0-1.913.051-2.615.153a7.952 7.952 0 01-.711.076c-.212.008-.318-.068-.318-.229 0-.135.115-.237.343-.305.584-.177.973-.435 1.168-.774.203-.347.305-.927.305-1.74l.012-.583v-11.35c0-1.125-.457-1.781-1.37-1.967l-.572-.115c-.203-.042-.305-.127-.305-.254 0-.194.144-.292.432-.292.195 0 .461.017.8.051.575.05 1.223.076 1.942.076.779 0 1.486-.02 2.12-.063.322-.017.504-.026.546-.026.203 0 .305.064.305.19 0 .187-.123.31-.368.369l-.445.102c-.761.186-1.142.943-1.142 2.272v11.032zm15.68-10.194v9.496c0 1.185.072 1.968.216 2.349.17.431.377.736.622.914.254.177.648.304 1.181.38.423.06.635.166.635.318 0 .203-.131.305-.394.305-.127 0-.288-.013-.482-.038-.262-.034-.711-.051-1.346-.051l-1.84-.026-1.499.09a6.152 6.152 0 01-.61.037c-.228 0-.342-.088-.342-.266 0-.153.131-.25.394-.292.643-.11 1.058-.33 1.244-.66.186-.339.28-1.046.28-2.12V12.946c0-1.05-.124-1.756-.369-2.12-.237-.364-.749-.61-1.536-.736-.263-.05-.398-.152-.406-.305-.009-.186.114-.28.368-.28.068 0 .144.005.228.014.618.067 1.44.101 2.463.101.627 0 1.164-.013 1.612-.038l.851-.063a7.73 7.73 0 01.317-.013c.229 0 .343.08.343.241 0 .152-.11.267-.33.343l-.66.254c-.626.237-.94 1.248-.94 3.034zm10.045-1.79v5.027l.012.241v.33c.034.229.275.343.724.343l1.092.026.419-.013 1.498-.025c.778 0 1.345-.115 1.7-.343.356-.237.58-.64.674-1.206.034-.203.118-.305.254-.305.16 0 .232.131.215.394l-.076 1.257c-.008.16-.012.418-.012.774 0 .99.016 1.62.05 1.892.017.16.026.279.026.355 0 .203-.076.305-.229.305-.16 0-.288-.208-.38-.622-.102-.449-.212-.754-.33-.915-.12-.16-.318-.275-.597-.342-.567-.144-1.401-.216-2.502-.216-1.015 0-1.675.021-1.98.063-.296.043-.461.14-.495.292-.042.161-.063.415-.063.762v4.71c0 .669.177 1.202.533 1.6.355.397.833.596 1.434.596.288 0 .436.085.445.254.016.195-.11.292-.381.292a8.1 8.1 0 01-.775-.05c-.279-.034-.694-.051-1.244-.051L68.867 27l-.977.013c-.212 0-.5.017-.864.05l-.647.039c-.246.008-.368-.068-.368-.229 0-.135.13-.233.393-.292.542-.118.91-.347 1.105-.686.195-.338.292-.922.292-1.751V12.705c0-.804-.131-1.422-.394-1.853-.169-.288-.355-.483-.558-.584-.204-.102-.555-.174-1.054-.216-.203-.017-.309-.093-.317-.229-.017-.22.152-.33.507-.33.11 0 .373.021.787.064.754.076 2.027.114 3.822.114 1.6 0 2.628-.013 3.085-.038l1.764-.089c.762-.034 1.253-.072 1.473-.114.16-.034.3-.051.419-.051.186 0 .28.097.28.292 0 .101-.022.241-.064.419-.144.55-.216 1.286-.216 2.209 0 .39-.11.584-.33.584-.127 0-.199-.106-.216-.318a5.474 5.474 0 00-.14-.8c-.11-.431-.25-.706-.418-.825-.161-.127-.525-.215-1.092-.266l-1.498-.152a20.954 20.954 0 00-1.803-.064c-.948 0-1.536.063-1.765.19-.228.119-.342.432-.342.94zm19.743-2.26c2.649 0 4.82.821 6.512 2.463 1.701 1.633 2.552 3.728 2.552 6.284 0 2.709-.855 4.93-2.564 6.665-1.71 1.735-3.898 2.603-6.564 2.603-2.734 0-4.947-.83-6.64-2.488-1.684-1.66-2.526-3.835-2.526-6.526 0-1.168.22-2.323.66-3.466.449-1.15 1.05-2.111 1.803-2.882.796-.812 1.803-1.455 3.022-1.93a10.092 10.092 0 013.745-.723zm-.826.825c-1.963 0-3.525.665-4.684 1.993-1.151 1.32-1.727 3.102-1.727 5.345 0 2.565.737 4.727 2.21 6.488 1.48 1.76 3.296 2.64 5.446 2.64 1.963 0 3.584-.715 4.862-2.145 1.278-1.44 1.917-3.259 1.917-5.46 0-2.53-.766-4.637-2.298-6.322-1.532-1.692-3.44-2.539-5.726-2.539zm22.308 8.138l3.504 5.18.406.61c1.084 1.59 2.082 2.415 2.996 2.475l.407.025c.152.009.224.068.215.178-.008.127-.199.241-.571.343a4.641 4.641 0 01-1.244.152 3.574 3.574 0 01-2.057-.622c-.601-.423-1.214-1.109-1.841-2.057l-3.161-4.824-.177-.28c-.204-.346-.534-.52-.991-.52h-1.688l-.279.051c-.102.06-.153.195-.153.406v3.961l.013.508c0 .728.034 1.227.102 1.498.076.262.249.5.52.71.364.289.927.47 1.689.547.304.034.461.131.469.292.017.17-.122.254-.419.254-.118 0-.368-.017-.749-.051-.347-.034-.884-.05-1.612-.05l-1.219-.014-.66.013c-.288 0-.635.021-1.041.064-.33.034-.559.05-.686.05-.211 0-.317-.088-.317-.266 0-.127.106-.212.317-.254.678-.127 1.122-.432 1.333-.914.212-.491.318-1.452.318-2.882v-9.115l-.026-1.32c0-1.32-.461-2.057-1.383-2.21l-.597-.088c-.271-.051-.406-.153-.406-.305 0-.178.144-.267.431-.267.068 0 .364.017.889.051.305.026.681.038 1.13.038.389 0 1.054-.03 1.993-.089a29.1 29.1 0 011.79-.063c1.947 0 3.415.368 4.405 1.104.991.728 1.486 1.816 1.486 3.263 0 1.904-1.045 3.377-3.136 4.418zm-3.732-.28h1.434c1.109 0 1.981-.304 2.615-.913.635-.61.953-1.443.953-2.501 0-1.227-.432-2.235-1.295-3.022-.864-.795-1.964-1.193-3.301-1.193-.499 0-.846.085-1.041.254-.186.16-.279.457-.279.888l.012.42v5.154c0 .397.051.651.153.761.11.102.359.153.749.153zm28.896-3.478v10.639c0 .956-.021 1.54-.063 1.752-.043.203-.161.3-.356.292a.439.439 0 01-.292-.114l-.279-.33-10.702-12.239-.127-.14a.244.244 0 00-.178-.076c-.161 0-.241.19-.241.572v8.607l-.013.533.038.902c.059.558.203.943.432 1.155.228.212.677.368 1.346.47.279.034.419.143.419.33 0 .169-.089.254-.267.254-.119 0-.246-.009-.381-.026-.093-.017-.461-.042-1.104-.076l-1.295-.063-.61.025c-.33 0-.643.021-.939.064-.22.033-.377.05-.47.05-.22 0-.338-.08-.355-.241-.009-.127.11-.233.355-.317.711-.246 1.189-.572 1.435-.978.254-.415.381-1.079.381-1.993v-8.633c0-1.464-.233-2.615-.699-3.453-.465-.846-1.138-1.329-2.018-1.447-.229-.034-.343-.131-.343-.292 0-.161.093-.241.279-.241.043 0 .11.004.203.012l.521.013.85.025.204-.012c.203-.009.359-.013.469-.013.212 0 .423.123.635.368l11.68 13.229c.186.211.304.313.355.304.085-.008.131-.089.14-.24V16.92l.013-1.714-.153-2.92c-.084-.72-.296-1.227-.635-1.523-.33-.305-.931-.53-1.802-.673-.246-.043-.368-.148-.368-.318 0-.16.122-.24.368-.24.11 0 .287.012.533.037.584.068 1.367.102 2.349.102.524 0 .943-.025 1.256-.076.271-.051.479-.076.622-.076.221 0 .339.088.356.266.008.11-.076.19-.254.241-.516.127-.859.339-1.028.635-.161.296-.241.85-.241 1.663v1.371l-.026.838zm9.524-1.155v9.496c0 1.185.071 1.968.215 2.349.17.431.377.736.622.914.254.177.648.304 1.181.38.423.06.635.166.635.318 0 .203-.131.305-.394.305-.127 0-.287-.013-.482-.038-.262-.034-.711-.051-1.346-.051l-1.841-.026-1.498.09a6.135 6.135 0 01-.609.037c-.229 0-.343-.088-.343-.266 0-.153.131-.25.394-.292.643-.11 1.058-.33 1.244-.66.186-.339.279-1.046.279-2.12V12.946c0-1.05-.123-1.756-.368-2.12-.237-.364-.749-.61-1.536-.736-.262-.05-.398-.152-.406-.305-.009-.186.114-.28.368-.28.067 0 .144.005.228.014.618.067 1.439.101 2.463.101.626 0 1.164-.013 1.612-.038l.851-.063c.161-.009.267-.013.317-.013.229 0 .343.08.343.241 0 .152-.11.267-.33.343l-.66.254c-.626.237-.939 1.248-.939 3.034zm15.21 6.982h-4.595c-.627 0-1.016.051-1.168.153-.153.101-.356.44-.61 1.015l-.825 1.867c-.372.854-.558 1.49-.558 1.904 0 .398.097.685.292.863.203.178.596.33 1.18.457.254.05.385.152.394.305.008.144-.11.216-.356.216-.093 0-.237-.005-.431-.013l-1.219-.063a34.171 34.171 0 00-1.409-.026c-.246 0-.436.004-.571.013-.432.034-.669.05-.711.05-.229 0-.343-.076-.343-.228 0-.135.072-.224.216-.267l.469-.14c.17-.05.398-.253.686-.609.288-.363.525-.74.711-1.13l.368-.837 6.525-14.486c.11-.254.233-.38.369-.38.135 0 .249.122.342.368l5.459 13.964.28.686c.397 1.024.727 1.663.99 1.917.262.245.795.44 1.599.584.263.05.39.157.381.317-.008.144-.127.216-.355.216-.076 0-.237-.008-.483-.025-.44-.042-1.223-.064-2.348-.064-1.177 0-1.913.026-2.209.077-.178.033-.309.05-.394.05-.22 0-.33-.089-.33-.266 0-.136.106-.225.318-.267l.393-.089c.423-.084.635-.372.635-.863 0-.449-.258-1.342-.775-2.679l-.634-1.676c-.178-.465-.318-.732-.419-.8-.102-.076-.39-.114-.864-.114zm.153-2.03l-1.993-5.028-.102-.267c-.101-.27-.211-.41-.33-.419-.059-.008-.127.072-.203.241l-2.476 5.498c-.11.236-.165.393-.165.47 0 .22.195.33.584.33l.343.012h3.834c.423 0 .635-.106.635-.317 0-.06-.021-.157-.064-.292l-.063-.229zm33.113-7.186l.406 3.046.038.318-.038.127a.232.232 0 01-.19.127c-.102.008-.254-.17-.457-.534-1.583-2.775-3.728-4.163-6.437-4.163-2.158 0-3.859.664-5.103 1.993-1.244 1.328-1.866 3.144-1.866 5.446 0 2.649.689 4.816 2.069 6.5 1.388 1.676 3.17 2.514 5.345 2.514 1.269 0 2.518-.339 3.745-1.016 1.227-.677 2.078-1.498 2.552-2.463.22-.449.389-.677.507-.686.136-.008.204.072.204.242l-.013.14-.051.279-.292 1.549-.051.228c-.034.22-.232.449-.596.686-1.955 1.244-4.109 1.866-6.462 1.866-2.726 0-4.922-.808-6.589-2.425-1.667-1.617-2.501-3.745-2.501-6.386 0-2.64.863-4.832 2.59-6.576 1.726-1.752 3.893-2.628 6.5-2.628 1.785 0 3.427.402 4.925 1.206l.508.267.203.089.216.076c.043 0 .106-.034.191-.102.186-.135.313-.203.381-.203.135 0 .224.16.266.483zm13.408-1.816c2.649 0 4.82.821 6.513 2.463 1.701 1.633 2.552 3.728 2.552 6.284 0 2.709-.855 4.93-2.565 6.665-1.709 1.735-3.897 2.603-6.563 2.603-2.734 0-4.947-.83-6.64-2.488-1.684-1.66-2.526-3.835-2.526-6.526 0-1.168.22-2.323.66-3.466.449-1.15 1.049-2.111 1.803-2.882.795-.812 1.802-1.455 3.021-1.93a10.092 10.092 0 013.745-.723zm-.825.825c-1.963 0-3.525.665-4.684 1.993-1.151 1.32-1.727 3.102-1.727 5.345 0 2.565.736 4.727 2.209 6.488 1.481 1.76 3.297 2.64 5.446 2.64 1.964 0 3.585-.715 4.863-2.145 1.278-1.44 1.917-3.259 1.917-5.46 0-2.53-.766-4.637-2.298-6.322-1.532-1.692-3.441-2.539-5.726-2.539zm28.998 9.547v-6.576c0-1.058-.152-1.824-.457-2.298-.305-.482-.821-.757-1.549-.825-.245-.025-.368-.119-.368-.28 0-.186.085-.274.254-.266.186.009.457.042.813.102.321.05.706.076 1.155.076.948 0 1.532-.013 1.752-.038.296-.026.482-.038.558-.038.161 0 .242.076.242.228 0 .127-.089.229-.267.305-.516.211-.851.508-1.003.889-.152.38-.228 1.1-.228 2.158v6.284c0 2.31-.462 4.088-1.384 5.332-.584.787-1.422 1.418-2.514 1.892a8.715 8.715 0 01-3.478.698c-1.439 0-2.734-.28-3.885-.838-1.151-.559-1.993-1.316-2.527-2.273-.6-1.1-.901-2.534-.901-4.303v-6.45l-.025-.723c0-.906-.127-1.528-.381-1.866-.246-.347-.745-.576-1.498-.686-.229-.034-.343-.123-.343-.267 0-.203.161-.304.482-.304.212 0 .504.008.876.025.39.026.673.038.851.038l.978-.012h.964c.102 0 .339-.017.711-.051.313-.026.529-.038.648-.038.194 0 .292.067.292.203 0 .16-.136.267-.407.317-.49.11-.82.326-.99.648-.161.313-.241.88-.241 1.7l.025.839V19.7c0 2.184.339 3.741 1.016 4.672.956 1.32 2.56 1.98 4.812 1.98 2.014 0 3.52-.55 4.519-1.65.999-1.109 1.498-2.776 1.498-5.002zm14.97-1.409l3.504 5.18.406.61c1.083 1.59 2.082 2.415 2.996 2.475l.406.025c.153.009.225.068.216.178-.008.127-.199.241-.571.343a4.641 4.641 0 01-1.244.152 3.574 3.574 0 01-2.057-.622c-.601-.423-1.214-1.109-1.841-2.057l-3.161-4.824-.178-.28c-.203-.346-.533-.52-.99-.52h-1.688l-.28.051c-.101.06-.152.195-.152.406v3.961l.013.508c0 .728.034 1.227.101 1.498.077.262.25.5.521.71.364.289.927.47 1.688.547.305.034.462.131.47.292.017.17-.123.254-.419.254-.118 0-.368-.017-.749-.051-.347-.034-.884-.05-1.612-.05l-1.219-.014-.66.013c-.288 0-.635.021-1.041.064-.33.034-.559.05-.686.05-.211 0-.317-.088-.317-.266 0-.127.106-.212.317-.254.677-.127 1.122-.432 1.333-.914.212-.491.318-1.452.318-2.882v-9.115l-.026-1.32c0-1.32-.461-2.057-1.383-2.21l-.597-.088c-.271-.051-.406-.153-.406-.305 0-.178.143-.267.431-.267.068 0 .364.017.889.051.305.026.681.038 1.13.038.389 0 1.054-.03 1.993-.089a29.1 29.1 0 011.79-.063c1.947 0 3.415.368 4.405 1.104.991.728 1.486 1.816 1.486 3.263 0 1.904-1.046 3.377-3.136 4.418zm-3.733-.28h1.435c1.109 0 1.981-.304 2.615-.913.635-.61.952-1.443.952-2.501 0-1.227-.431-2.235-1.294-3.022-.864-.795-1.964-1.193-3.301-1.193-.5 0-.847.085-1.041.254-.186.16-.28.457-.28.888l.013.42v5.154c0 .397.051.651.152.761.11.102.36.153.749.153zm24.733-7.007h-3.567c-.373 0-.61.05-.711.152-.094.102-.14.351-.14.75v12.44l.013.496c.042.99.596 1.578 1.663 1.764.296.051.444.149.444.292 0 .187-.118.28-.355.28-.102 0-.309-.026-.622-.076-.161-.026-.542-.038-1.143-.038l-.927-.013-.99.013c-.356 0-.656.012-.901.038-.483.05-.766.076-.851.076-.254 0-.381-.093-.381-.28 0-.135.14-.22.419-.253.652-.085 1.092-.263 1.32-.534.229-.279.343-.774.343-1.485V12.045l-.013-.33c0-.305-.046-.5-.139-.584-.085-.085-.288-.127-.61-.127h-3.364c-.685 0-1.185.14-1.498.419-.305.27-.542.787-.711 1.549-.076.33-.19.49-.343.482-.152-.008-.228-.123-.228-.343 0-.177.051-.503.152-.977.127-.61.191-1.113.191-1.511 0-.39.042-.643.127-.762.093-.127.283-.19.571-.19h13.66c.466 0 .745.05.838.152.102.102.152.402.152.902 0 .499.021.863.064 1.091a9.5 9.5 0 01.076.622c.008.254-.08.39-.267.407-.152.008-.254-.123-.304-.394-.11-.6-.288-.99-.534-1.168-.245-.186-.723-.28-1.434-.28zm11.059-1.676c.906 0 1.672.131 2.298.394l.876.368a.56.56 0 00.229.05.48.48 0 00.305-.126l.177-.153c.026-.034.072-.05.14-.05.211-.009.317.198.317.622 0 .143.055.57.165 1.282l.203 1.308c.043.279.064.452.064.52 0 .262-.089.394-.267.394-.135 0-.271-.204-.406-.61-.305-.914-.927-1.667-1.866-2.26-.931-.592-1.972-.888-3.123-.888-.914 0-1.68.27-2.298.812-.609.533-.914 1.202-.914 2.006 0 .711.199 1.325.597 1.84.347.441.723.763 1.129.966.415.203 1.427.571 3.035 1.104 3.131 1.024 4.697 2.704 4.697 5.04 0 1.583-.576 2.878-1.727 3.885-1.151 1.007-2.628 1.51-4.43 1.51-.652 0-1.371-.092-2.159-.278-.778-.187-1.349-.402-1.713-.648-.153-.102-.254-.207-.305-.317-.051-.119-.127-.415-.229-.889-.017-.068-.122-.453-.317-1.155-.22-.762-.33-1.304-.33-1.625 0-.254.085-.377.254-.369.152.009.288.216.406.623.305 1.05.948 1.93 1.93 2.64.982.711 2.048 1.067 3.199 1.067 1.168 0 2.154-.343 2.958-1.029.813-.685 1.219-1.519 1.219-2.5 0-.94-.373-1.731-1.117-2.375-.381-.33-1.482-.8-3.301-1.409-1.879-.635-3.212-1.337-3.999-2.107-.779-.77-1.168-1.77-1.168-2.996 0-1.371.508-2.489 1.523-3.352 1.024-.863 2.34-1.295 3.948-1.295zm38.526 0c.905 0 1.671.131 2.298.394l.876.368c.076.034.152.05.228.05a.478.478 0 00.305-.126l.178-.153c.025-.034.072-.05.139-.05.212-.009.318.198.318.622 0 .143.055.57.165 1.282l.203 1.308c.042.279.063.452.063.52 0 .262-.089.394-.266.394-.136 0-.271-.204-.407-.61-.304-.914-.926-1.667-1.866-2.26-.931-.592-1.972-.888-3.123-.888-.914 0-1.68.27-2.298.812-.609.533-.914 1.202-.914 2.006 0 .711.199 1.325.597 1.84.347.441.724.763 1.13.966.415.203 1.426.571 3.034 1.104 3.132 1.024 4.697 2.704 4.697 5.04 0 1.583-.575 2.878-1.726 3.885-1.151 1.007-2.628 1.51-4.431 1.51-.652 0-1.371-.092-2.158-.278-.779-.187-1.35-.402-1.714-.648-.152-.102-.254-.207-.305-.317-.05-.119-.127-.415-.228-.889-.017-.068-.123-.453-.318-1.155-.22-.762-.33-1.304-.33-1.625 0-.254.085-.377.254-.369.153.009.288.216.406.623.305 1.05.948 1.93 1.93 2.64.982.711 2.048 1.067 3.199 1.067 1.168 0 2.154-.343 2.958-1.029.813-.685 1.219-1.519 1.219-2.5 0-.94-.372-1.731-1.117-2.375-.381-.33-1.481-.8-3.301-1.409-1.879-.635-3.212-1.337-3.999-2.107-.778-.77-1.168-1.77-1.168-2.996 0-1.371.508-2.489 1.524-3.352 1.024-.863 2.34-1.295 3.948-1.295zm13.129 2.336v5.104c0 .389.034.626.101.71.076.077.297.115.66.115h1.956c.888 0 1.591-.051 2.107-.153.457-.093.753-.215.889-.368.135-.152.258-.508.368-1.066.042-.212.148-.313.317-.305.161.009.241.123.241.343 0 .06-.004.152-.012.28-.068.82-.102 1.57-.102 2.246 0 .517.026 1.029.076 1.536.017.17.026.292.026.369 0 .211-.081.317-.241.317-.178 0-.284-.093-.318-.28l-.076-.355c-.102-.567-.305-.952-.609-1.155-.305-.203-.821-.305-1.549-.305h-2.806c-.415 0-.694.043-.838.127-.135.085-.203.254-.203.508l.013.419v4.672c0 .72.127 1.168.381 1.346.262.177.918.266 1.967.266 3.327 0 5.464-.749 6.412-2.247.093-.144.186-.22.279-.228.152-.009.228.101.228.33 0 .55-.309 1.206-.926 1.967-.745.915-1.685 1.372-2.819 1.372-.245 0-.575-.017-.99-.051-1.617-.153-2.954-.229-4.012-.229-1.481 0-2.526.051-3.135.153-.322.059-.542.088-.661.088-.27 0-.406-.093-.406-.279 0-.144.11-.245.33-.305l.483-.14c.609-.169.914-.76.914-1.777l.012-.825V13.137c0-1.21-.135-2.023-.406-2.438-.262-.423-.779-.634-1.549-.634-.245 0-.368-.08-.368-.242 0-.237.191-.355.571-.355.212 0 .496.02.851.063 1.21.136 2.666.203 4.367.203 1.033 0 1.947-.017 2.742-.05l1.803-.09c.499-.016.804-.033.914-.05.229-.034.398-.05.508-.05.279 0 .419.122.419.367 0 .076-.013.174-.038.292-.026.119-.059.457-.102 1.016l-.05.749c-.043.49-.085.8-.127.927-.043.118-.136.182-.28.19-.161.009-.241-.118-.241-.38v-.33c0-.272-.051-.53-.152-.775-.161-.381-.487-.635-.978-.762s-1.392-.19-2.704-.19h-1.993c-.525 0-.863.067-1.016.203-.152.127-.228.415-.228.863zm16.709 11.908l.012.445c0 1.015.098 1.616.292 1.802.195.187.83.28 1.905.28 1.582 0 2.954-.187 4.113-.559 1.168-.38 1.913-.88 2.234-1.498.119-.229.237-.343.356-.343.135 0 .199.085.19.254-.034.559-.309 1.172-.825 1.84-.728.924-1.908 1.385-3.542 1.385-.271 0-.584-.013-.939-.038l-1.371-.102a34.763 34.763 0 00-2.552-.089c-1.041 0-1.913.051-2.615.153a8.01 8.01 0 01-.711.076c-.212.008-.318-.068-.318-.229 0-.135.115-.237.343-.305.584-.177.973-.435 1.168-.774.203-.347.305-.927.305-1.74l.012-.583v-11.35c0-1.125-.457-1.781-1.371-1.967l-.571-.115c-.203-.042-.305-.127-.305-.254 0-.194.144-.292.432-.292.195 0 .461.017.8.051.575.05 1.223.076 1.942.076.779 0 1.485-.02 2.12-.063.322-.017.504-.026.546-.026.203 0 .305.064.305.19 0 .187-.123.31-.368.369l-.445.102c-.761.186-1.142.943-1.142 2.272v11.032zm15.693-11.984v5.027l.013.241v.33c.034.229.275.343.723.343l1.092.026.419-.013 1.498-.025c.779 0 1.346-.115 1.701-.343.356-.237.58-.64.673-1.206.034-.203.119-.305.254-.305.161 0 .233.131.216.394l-.076 1.257c-.009.16-.013.418-.013.774 0 .99.017 1.62.051 1.892.017.16.025.279.025.355 0 .203-.076.305-.228.305-.161 0-.288-.208-.381-.622-.102-.449-.212-.754-.33-.915-.119-.16-.318-.275-.597-.342-.567-.144-1.401-.216-2.501-.216-1.015 0-1.676.021-1.98.063-.297.043-.462.14-.495.292-.043.161-.064.415-.064.762v4.71c0 .669.178 1.202.533 1.6.356.397.834.596 1.435.596.288 0 .436.085.444.254.017.195-.11.292-.381.292-.186 0-.444-.017-.774-.05-.279-.034-.694-.051-1.244-.051l-.876-.013-.978.013c-.211 0-.499.017-.863.05l-.647.039c-.246.008-.369-.068-.369-.229 0-.135.132-.233.394-.292.542-.118.91-.347 1.104-.686.195-.338.292-.922.292-1.751V12.705c0-.804-.131-1.422-.393-1.853-.169-.288-.356-.483-.559-.584-.203-.102-.554-.174-1.053-.216-.204-.017-.309-.093-.318-.229-.017-.22.153-.33.508-.33.11 0 .372.021.787.064.753.076 2.027.114 3.821.114 1.6 0 2.628-.013 3.085-.038l1.765-.089c.762-.034 1.253-.072 1.473-.114.16-.034.3-.051.419-.051.186 0 .279.097.279.292 0 .101-.021.241-.064.419-.143.55-.215 1.286-.215 2.209 0 .39-.11.584-.33.584-.127 0-.199-.106-.216-.318a5.516 5.516 0 00-.14-.8c-.11-.431-.25-.706-.419-.825-.161-.127-.525-.215-1.092-.266l-1.498-.152a20.952 20.952 0 00-1.802-.064c-.948 0-1.537.063-1.765.19-.229.119-.343.432-.343.94zm15.109 8.29c.094 0 .14.224.14.673 0 .508-.029.808-.089.901-.059.093-.296.207-.711.343-.584.195-1.075.364-1.472.508-.94.338-1.549.541-1.828.61-.237.067-.402.13-.496.19a.654.654 0 01-.241.114c-.118.017-.178-.127-.178-.432 0-.61.047-.982.14-1.117.102-.144.428-.3.978-.47.203-.059.656-.216 1.358-.47.279-.101.736-.258 1.371-.47.44-.152.732-.262.876-.33l.152-.05zm7.95-2.361h7.49c.372 0 .609-.034.711-.102.101-.068.152-.22.152-.457v-4.33c0-.87-.114-1.489-.343-1.853-.22-.364-.63-.613-1.231-.749-.254-.05-.377-.152-.368-.304.008-.144.114-.216.317-.216.178 0 .466.021.864.063.558.06 1.151.09 1.777.09.905 0 1.54-.026 1.904-.077.229-.034.385-.05.47-.05.203 0 .305.08.305.24 0 .127-.102.212-.305.254l-.521.115c-.262.05-.482.24-.66.57a2.269 2.269 0 00-.266 1.118v12.276c0 .906.127 1.532.38 1.88.254.346.741.558 1.46.634.263.034.398.119.407.254.017.203-.102.305-.356.305-.169 0-.389-.021-.66-.064-.203-.034-.626-.05-1.269-.05l-.94-.013-.952.025c-.152 0-.356.013-.609.038-.525.043-.817.064-.876.064-.212.008-.314-.076-.305-.254.008-.152.152-.25.432-.292.888-.152 1.333-.876 1.333-2.171l.012-.495v-4.66c0-.397-.038-.63-.114-.698-.076-.067-.33-.101-.762-.101h-7.477c-.483 0-.783.05-.902.152-.118.093-.177.339-.177.736v4.66c0 .88.139 1.498.419 1.853.279.356.799.576 1.561.66.313.034.474.144.482.33.009.178-.114.267-.368.267-.11 0-.317-.021-.622-.063-.228-.043-.736-.064-1.523-.064l-1.067-.013-.837.026c-.212 0-.479.013-.8.038-.44.034-.707.05-.8.05-.212 0-.317-.08-.317-.24 0-.153.11-.255.33-.305l.634-.153c.373-.084.627-.363.762-.837.136-.474.203-1.304.203-2.489V12.223c0-.737-.139-1.27-.419-1.6-.279-.33-.778-.55-1.498-.66-.245-.034-.368-.127-.368-.28 0-.177.11-.262.33-.253.161.008.415.034.762.076.66.076 1.434.114 2.323.114.601 0 1.164-.034 1.689-.101.228-.034.406-.051.533-.051.245 0 .368.089.368.266 0 .136-.114.233-.343.292-.567.144-.948.352-1.142.622-.195.263-.292.707-.292 1.333v4.533c0 .482.046.77.139.863.102.093.415.14.94.14zm20.314-5.853v5.104c0 .389.034.626.102.71.076.077.296.115.66.115h1.955c.889 0 1.591-.051 2.107-.153.457-.093.754-.215.889-.368.135-.152.258-.508.368-1.066.043-.212.148-.313.318-.305.16.009.241.123.241.343 0 .06-.004.152-.013.28-.068.82-.101 1.57-.101 2.246 0 .517.025 1.029.076 1.536.017.17.025.292.025.369 0 .211-.08.317-.241.317-.178 0-.284-.093-.317-.28l-.077-.355c-.101-.567-.304-.952-.609-1.155-.305-.203-.821-.305-1.549-.305h-2.806c-.414 0-.694.043-.837.127-.136.085-.204.254-.204.508l.013.419v4.672c0 .72.127 1.168.381 1.346.262.177.918.266 1.968.266 3.326 0 5.463-.749 6.411-2.247.093-.144.186-.22.279-.228.153-.009.229.101.229.33 0 .55-.309 1.206-.927 1.967-.745.915-1.684 1.372-2.818 1.372-.246 0-.576-.017-.991-.051-1.616-.153-2.953-.229-4.011-.229-1.481 0-2.527.051-3.136.153-.322.059-.542.088-.66.088-.271 0-.406-.093-.406-.279 0-.144.11-.245.33-.305l.482-.14c.609-.169.914-.76.914-1.777l.013-.825V13.137c0-1.21-.136-2.023-.406-2.438-.263-.423-.779-.634-1.549-.634-.246 0-.368-.08-.368-.242 0-.237.19-.355.571-.355.211 0 .495.02.85.063 1.211.136 2.666.203 4.368.203 1.032 0 1.946-.017 2.742-.05l1.803-.09c.499-.016.804-.033.914-.05.228-.034.397-.05.507-.05.28 0 .419.122.419.367 0 .076-.012.174-.038.292-.025.119-.059.457-.101 1.016l-.051.749c-.042.49-.085.8-.127.927-.042.118-.135.182-.279.19-.161.009-.242-.118-.242-.38v-.33c0-.272-.05-.53-.152-.775-.161-.381-.487-.635-.977-.762-.491-.127-1.393-.19-2.705-.19h-1.993c-.524 0-.863.067-1.015.203-.153.127-.229.415-.229.863zm16.709 11.908l.013.445c0 1.015.097 1.616.292 1.802.194.187.829.28 1.904.28 1.583 0 2.954-.187 4.113-.559 1.168-.38 1.913-.88 2.235-1.498.118-.229.237-.343.355-.343.136 0 .199.085.191.254-.034.559-.309 1.172-.826 1.84-.727.924-1.908 1.385-3.542 1.385-.27 0-.583-.013-.939-.038l-1.371-.102a34.763 34.763 0 00-2.552-.089c-1.041 0-1.913.051-2.615.153a7.933 7.933 0 01-.711.076c-.212.008-.317-.068-.317-.229 0-.135.114-.237.342-.305.584-.177.974-.435 1.168-.774.203-.347.305-.927.305-1.74l.013-.583v-11.35c0-1.125-.457-1.781-1.371-1.967l-.572-.115c-.203-.042-.304-.127-.304-.254 0-.194.144-.292.431-.292.195 0 .462.017.8.051.576.05 1.223.076 1.943.076.778 0 1.485-.02 2.12-.063.321-.017.503-.026.546-.026.203 0 .304.064.304.19 0 .187-.123.31-.368.369l-.444.102c-.762.186-1.143.943-1.143 2.272v11.032zM442.55 11.69v10.587l-.013 1.232.038 1.066c.093 1.024.474 1.621 1.143 1.79.465.127.817.19 1.053.19.254 0 .386.077.394.23.017.22-.131.33-.444.33-.144 0-.428-.018-.851-.051a23.82 23.82 0 00-1.32-.026l-.902-.025-.99.012c-.499 0-.876.017-1.13.051-.33.043-.571.064-.723.064-.22 0-.33-.085-.33-.254 0-.161.139-.263.419-.305.66-.101 1.108-.474 1.345-1.117.246-.643.368-1.803.368-3.479V14.28c0-1.777-.105-2.899-.317-3.364-.212-.474-.741-.757-1.587-.85-.228-.018-.338-.102-.33-.254.009-.195.174-.292.495-.292.161 0 .377.02.648.063.533.076.973.114 1.32.114.542 0 1.329-.046 2.361-.14a17.18 17.18 0 011.308-.063c1.769 0 3.203.428 4.304 1.282 1.108.847 1.663 1.955 1.663 3.327 0 1.658-.677 2.966-2.032 3.922-1.015.711-2.09 1.067-3.224 1.067-.533 0-1.024-.06-1.473-.178-.44-.118-.652-.245-.635-.38.017-.102.098-.153.242-.153.067 0 .152.013.254.038.194.06.507.089.939.089 1.219 0 2.192-.335 2.92-1.003.736-.669 1.104-1.557 1.104-2.666 0-1.278-.482-2.336-1.447-3.174-.965-.838-2.188-1.257-3.669-1.257-.338 0-.571.064-.698.19-.127.128-.191.369-.191.724l-.012.369zm34.84-.546l.406 3.046.038.318-.038.127a.234.234 0 01-.191.127c-.101.008-.253-.17-.457-.534-1.582-2.775-3.728-4.163-6.436-4.163-2.158 0-3.859.664-5.104 1.993-1.244 1.328-1.866 3.144-1.866 5.446 0 2.649.69 4.816 2.07 6.5 1.388 1.676 3.169 2.514 5.344 2.514 1.27 0 2.518-.339 3.745-1.016 1.228-.677 2.078-1.498 2.552-2.463.22-.449.389-.677.508-.686.135-.008.203.072.203.242l-.013.14-.05.279-.292 1.549-.051.228c-.034.22-.233.449-.597.686-1.955 1.244-4.109 1.866-6.462 1.866-2.725 0-4.921-.808-6.589-2.425-1.667-1.617-2.501-3.745-2.501-6.386 0-2.64.864-4.832 2.59-6.576 1.727-1.752 3.893-2.628 6.5-2.628 1.786 0 3.428.402 4.926 1.206l.508.267.203.089.216.076c.042 0 .106-.034.19-.102.186-.135.313-.203.381-.203.135 0 .224.16.267.483zm8.368.52v5.104c0 .389.034.626.101.71.077.077.297.115.661.115h1.955c.888 0 1.591-.051 2.107-.153.457-.093.753-.215.889-.368.135-.152.258-.508.368-1.066.042-.212.148-.313.317-.305.161.009.241.123.241.343 0 .06-.004.152-.012.28-.068.82-.102 1.57-.102 2.246 0 .517.026 1.029.076 1.536.017.17.026.292.026.369 0 .211-.081.317-.241.317-.178 0-.284-.093-.318-.28l-.076-.355c-.102-.567-.305-.952-.609-1.155-.305-.203-.821-.305-1.549-.305h-2.806c-.415 0-.694.043-.838.127-.135.085-.203.254-.203.508l.013.419v4.672c0 .72.127 1.168.381 1.346.262.177.918.266 1.967.266 3.327 0 5.464-.749 6.412-2.247.093-.144.186-.22.279-.228.152-.009.228.101.228.33 0 .55-.309 1.206-.926 1.967-.745.915-1.685 1.372-2.819 1.372-.245 0-.575-.017-.99-.051-1.616-.153-2.954-.229-4.012-.229-1.481 0-2.526.051-3.135.153-.322.059-.542.088-.661.088-.27 0-.406-.093-.406-.279 0-.144.11-.245.33-.305l.483-.14c.609-.169.914-.76.914-1.777l.012-.825V13.137c0-1.21-.135-2.023-.406-2.438-.262-.423-.778-.634-1.549-.634-.245 0-.368-.08-.368-.242 0-.237.191-.355.571-.355.212 0 .496.02.851.063 1.21.136 2.666.203 4.367.203 1.033 0 1.947-.017 2.742-.05l1.803-.09c.5-.016.804-.033.914-.05.229-.034.398-.05.508-.05.279 0 .419.122.419.367 0 .076-.013.174-.038.292-.025.119-.059.457-.102 1.016l-.05.749c-.043.49-.085.8-.127.927-.043.118-.136.182-.28.19-.16.009-.241-.118-.241-.38v-.33c0-.272-.051-.53-.152-.775-.161-.381-.487-.635-.978-.762s-1.392-.19-2.704-.19h-1.993c-.525 0-.863.067-1.016.203-.152.127-.228.415-.228.863zm27.944 2.87v10.638c0 .956-.021 1.54-.063 1.752-.043.203-.161.3-.356.292a.439.439 0 01-.292-.114l-.279-.33-10.702-12.239-.127-.14a.244.244 0 00-.178-.076c-.161 0-.241.19-.241.572v8.607l-.013.533.038.902c.06.558.203.943.432 1.155.228.212.677.368 1.346.47.279.034.419.143.419.33 0 .169-.089.254-.267.254-.119 0-.245-.009-.381-.026-.093-.017-.461-.042-1.104-.076l-1.295-.063-.61.025c-.33 0-.643.021-.939.064-.22.033-.377.05-.47.05-.22 0-.338-.08-.355-.241-.009-.127.11-.233.355-.317.711-.246 1.189-.572 1.435-.978.254-.415.381-1.079.381-1.993v-8.633c0-1.464-.233-2.615-.699-3.453-.465-.846-1.138-1.329-2.018-1.447-.229-.034-.343-.131-.343-.292 0-.161.093-.241.279-.241.043 0 .11.004.203.012l.521.013.85.025.204-.012c.203-.009.359-.013.469-.013.212 0 .424.123.635.368l11.68 13.229c.186.211.304.313.355.304.085-.008.131-.089.14-.24V16.92l.013-1.714-.153-2.92c-.084-.72-.296-1.227-.634-1.523-.331-.305-.931-.53-1.803-.673-.246-.043-.368-.148-.368-.318 0-.16.122-.24.368-.24.11 0 .288.012.533.037.584.068 1.367.102 2.349.102.524 0 .943-.025 1.256-.076.271-.051.479-.076.623-.076.22 0 .338.088.355.266.008.11-.076.19-.254.241-.516.127-.859.339-1.028.635-.161.296-.241.85-.241 1.663v1.371l-.026.838zm17.572-3.53h-3.567c-.372 0-.609.05-.711.152-.093.102-.14.351-.14.75v12.44l.013.496c.042.99.597 1.578 1.663 1.764.296.051.445.149.445.292 0 .187-.119.28-.356.28-.101 0-.309-.026-.622-.076-.161-.026-.542-.038-1.143-.038l-.926-.013-.991.013c-.355 0-.655.012-.901.038-.482.05-.766.076-.85.076-.254 0-.381-.093-.381-.28 0-.135.139-.22.419-.253.651-.085 1.091-.263 1.32-.534.228-.279.343-.774.343-1.485V12.045l-.013-.33c0-.305-.047-.5-.14-.584-.084-.085-.287-.127-.609-.127h-3.364c-.686 0-1.185.14-1.498.419-.305.27-.542.787-.711 1.549-.076.33-.191.49-.343.482-.152-.008-.229-.123-.229-.343 0-.177.051-.503.153-.977.127-.61.19-1.113.19-1.511 0-.39.043-.643.127-.762.093-.127.284-.19.571-.19h13.661c.465 0 .744.05.837.152.102.102.153.402.153.902 0 .499.021.863.063 1.091.043.288.068.495.076.622.009.254-.08.39-.266.407-.152.008-.254-.123-.305-.394-.11-.6-.288-.99-.533-1.168-.245-.186-.724-.28-1.435-.28zm9.257.66v5.104c0 .389.034.626.102.71.076.077.296.115.66.115h1.955c.889 0 1.591-.051 2.107-.153.457-.093.754-.215.889-.368.136-.152.258-.508.368-1.066.043-.212.148-.313.318-.305.16.009.241.123.241.343 0 .06-.004.152-.013.28-.068.82-.101 1.57-.101 2.246 0 .517.025 1.029.076 1.536.017.17.025.292.025.369 0 .211-.08.317-.241.317-.178 0-.284-.093-.317-.28l-.077-.355c-.101-.567-.304-.952-.609-1.155-.305-.203-.821-.305-1.549-.305h-2.805c-.415 0-.694.043-.838.127-.136.085-.203.254-.203.508l.012.419v4.672c0 .72.127 1.168.381 1.346.262.177.918.266 1.968.266 3.326 0 5.463-.749 6.411-2.247.093-.144.186-.22.279-.228.153-.009.229.101.229.33 0 .55-.309 1.206-.927 1.967-.745.915-1.684 1.372-2.818 1.372-.246 0-.576-.017-.991-.051-1.616-.153-2.953-.229-4.011-.229-1.481 0-2.527.051-3.136.153-.322.059-.542.088-.66.088-.271 0-.406-.093-.406-.279 0-.144.11-.245.33-.305l.482-.14c.609-.169.914-.76.914-1.777l.013-.825V13.137c0-1.21-.136-2.023-.406-2.438-.263-.423-.779-.634-1.549-.634-.246 0-.368-.08-.368-.242 0-.237.19-.355.571-.355.212 0 .495.02.851.063 1.21.136 2.666.203 4.367.203 1.032 0 1.946-.017 2.742-.05l1.803-.09c.499-.016.804-.033.914-.05.228-.034.397-.05.507-.05.28 0 .419.122.419.367 0 .076-.012.174-.038.292-.025.119-.059.457-.101 1.016l-.051.749c-.042.49-.085.8-.127.927-.042.118-.135.182-.279.19-.161.009-.241-.118-.241-.38v-.33c0-.272-.051-.53-.153-.775-.161-.381-.486-.635-.977-.762s-1.393-.19-2.704-.19h-1.994c-.524 0-.863.067-1.015.203-.153.127-.229.415-.229.863zm21.343 6.627l3.504 5.18.406.61c1.084 1.59 2.082 2.415 2.996 2.475l.407.025c.152.009.224.068.215.178-.008.127-.199.241-.571.343a4.641 4.641 0 01-1.244.152 3.574 3.574 0 01-2.057-.622c-.601-.423-1.214-1.109-1.841-2.057l-3.161-4.824-.177-.28c-.204-.346-.534-.52-.991-.52h-1.688l-.279.051c-.102.06-.153.195-.153.406v3.961l.013.508c0 .728.034 1.227.101 1.498.077.262.25.5.521.71.364.289.927.47 1.688.547.305.034.462.131.47.292.017.17-.123.254-.419.254-.118 0-.368-.017-.749-.051-.347-.034-.884-.05-1.612-.05l-1.219-.014-.66.013c-.288 0-.635.021-1.041.064-.33.034-.559.05-.686.05-.211 0-.317-.088-.317-.266 0-.127.106-.212.317-.254.678-.127 1.122-.432 1.333-.914.212-.491.318-1.452.318-2.882v-9.115l-.026-1.32c0-1.32-.461-2.057-1.383-2.21l-.597-.088c-.271-.051-.406-.153-.406-.305 0-.178.144-.267.431-.267.068 0 .364.017.889.051.305.026.681.038 1.13.038.389 0 1.054-.03 1.993-.089a29.1 29.1 0 011.79-.063c1.947 0 3.415.368 4.405 1.104.991.728 1.486 1.816 1.486 3.263 0 1.904-1.045 3.377-3.136 4.418zm-3.732-.28h1.434c1.109 0 1.981-.304 2.615-.913.635-.61.953-1.443.953-2.501 0-1.227-.432-2.235-1.295-3.022-.864-.795-1.964-1.193-3.301-1.193-.499 0-.847.085-1.041.254-.186.16-.279.457-.279.888l.012.42v5.154c0 .397.051.651.153.761.11.102.359.153.749.153z" fill="#fff"/><path d="M301.328 7.004h1.358v22.492h-1.358V7.004z" fill="#C9C9C9"/></svg>