<svg width="255" height="32" fill="none" xmlns="http://www.w3.org/2000/svg"><path d="M6.627 7.328c.906 0 1.672.131 2.298.394l.876.368c.076.034.152.05.228.05a.477.477 0 00.305-.126l.178-.153c.025-.034.072-.05.14-.05.211-.009.317.198.317.622 0 .143.055.57.165 1.282l.203 1.308c.042.279.063.452.063.52 0 .262-.088.394-.266.394-.136 0-.271-.204-.407-.61-.304-.914-.926-1.667-1.866-2.26-.93-.592-1.972-.888-3.123-.888-.914 0-1.68.27-2.298.812-.609.533-.914 1.202-.914 2.006 0 .711.2 1.325.597 1.84.347.441.724.763 1.13.966.415.203 1.426.571 3.034 1.104 3.132 1.024 4.697 2.704 4.697 5.04 0 1.583-.575 2.878-1.726 3.885-1.151 1.007-2.628 1.51-4.43 1.51-.653 0-1.372-.092-2.159-.278-.779-.187-1.35-.402-1.714-.648-.152-.102-.254-.207-.305-.317-.05-.119-.127-.415-.228-.889-.017-.068-.123-.453-.318-1.155-.22-.762-.33-1.304-.33-1.625 0-.254.085-.377.254-.369.153.009.288.216.407.623.304 1.05.947 1.93 1.93 2.64.981.711 2.047 1.067 3.198 1.067 1.168 0 2.154-.343 2.958-1.029.813-.685 1.22-1.519 1.22-2.5 0-.94-.373-1.731-1.118-2.375-.38-.33-1.481-.8-3.3-1.409-1.88-.635-3.213-1.337-4-2.107-.778-.77-1.168-1.77-1.168-2.996 0-1.371.508-2.489 1.524-3.352 1.024-.863 2.34-1.295 3.948-1.295zm13.129 2.336v5.104c0 .389.034.626.101.71.077.077.297.115.66.115h1.956c.888 0 1.59-.051 2.107-.153.457-.093.753-.215.889-.368.135-.152.258-.507.368-1.066.042-.212.148-.313.317-.305.161.009.241.123.241.343 0 .06-.004.152-.012.28-.068.82-.102 1.57-.102 2.246 0 .517.026 1.029.076 1.536.017.17.026.292.026.369 0 .211-.08.317-.241.317-.178 0-.284-.093-.318-.28l-.076-.355c-.102-.567-.305-.952-.61-1.155-.304-.203-.82-.305-1.548-.305h-2.806c-.415 0-.694.043-.838.127-.135.085-.203.254-.203.508l.013.419v4.672c0 .72.127 1.168.38 1.346.263.177.919.266 1.969.266 3.326 0 5.463-.749 6.41-2.247.094-.144.187-.22.28-.228.152-.009.228.101.228.33 0 .55-.308 1.206-.926 1.967-.745.915-1.685 1.372-2.819 1.372a12.8 12.8 0 01-.99-.051c-1.616-.153-2.954-.229-4.012-.229-1.48 0-2.526.051-3.135.153-.322.059-.542.088-.66.088-.271 0-.407-.093-.407-.279 0-.144.11-.245.33-.305l.483-.14c.61-.169.914-.76.914-1.777l.013-.825V11.137c0-1.21-.136-2.023-.407-2.438-.262-.423-.778-.635-1.549-.635-.245 0-.368-.08-.368-.24 0-.238.19-.356.571-.356.212 0 .496.02.851.063 1.21.136 2.666.203 4.367.203 1.033 0 1.947-.017 2.742-.05l1.803-.09c.5-.016.804-.033.914-.05.229-.034.398-.05.508-.05.28 0 .419.122.419.367 0 .077-.013.174-.038.292-.025.119-.06.457-.102 1.016l-.05.749c-.043.49-.085.8-.127.927-.043.118-.136.182-.28.19-.16.009-.24-.118-.24-.38v-.33c0-.272-.052-.53-.153-.775-.161-.381-.487-.635-.978-.762-.49-.127-1.392-.19-2.704-.19H21c-.525 0-.863.067-1.016.203-.152.127-.228.414-.228.863zm16.709 11.908l.012.445c0 1.015.098 1.616.293 1.802.194.187.829.28 1.904.28 1.583 0 2.954-.187 4.113-.559 1.168-.38 1.913-.88 2.235-1.498.118-.229.236-.343.355-.343.135 0 .199.085.19.254-.034.559-.309 1.172-.825 1.84-.728.924-1.908 1.385-3.542 1.385-.27 0-.584-.013-.94-.038l-1.37-.102a34.752 34.752 0 00-2.552-.089c-1.041 0-1.913.051-2.615.153a7.952 7.952 0 01-.711.076c-.212.008-.318-.068-.318-.229 0-.135.115-.237.343-.305.584-.177.973-.435 1.168-.774.203-.347.305-.927.305-1.74l.013-.583v-11.35c0-1.125-.458-1.781-1.372-1.968l-.57-.114c-.204-.042-.306-.127-.306-.254 0-.194.144-.292.432-.292.195 0 .461.017.8.051.575.05 1.223.076 1.942.076a32.1 32.1 0 002.12-.063c.322-.017.504-.026.546-.026.203 0 .305.064.305.19 0 .187-.123.31-.368.369l-.445.102c-.761.186-1.142.943-1.142 2.272v11.032zM52.158 9.588v5.027l.013.241v.33c.034.229.275.343.724.343l1.091.026.42-.013 1.497-.025c.779 0 1.346-.115 1.702-.343.355-.237.58-.64.672-1.206.034-.203.119-.305.254-.305.161 0 .233.131.216.394l-.076 1.256c-.009.161-.013.42-.013.775 0 .99.017 1.62.051 1.892.017.16.025.279.025.355 0 .203-.076.305-.228.305-.16 0-.288-.208-.381-.622-.102-.449-.212-.754-.33-.915-.119-.16-.318-.275-.597-.342-.567-.144-1.4-.216-2.5-.216-1.016 0-1.676.021-1.981.063-.296.043-.462.14-.495.292-.043.161-.064.415-.064.762v4.71c0 .669.178 1.202.533 1.6.356.397.834.596 1.435.596.288 0 .436.085.444.254.017.195-.11.292-.38.292-.187 0-.445-.017-.775-.05-.28-.034-.694-.051-1.244-.051L51.295 25l-.978.013c-.211 0-.499.017-.863.05l-.647.039c-.246.008-.369-.068-.369-.229 0-.135.132-.233.394-.292.542-.118.91-.347 1.105-.686.194-.338.291-.922.291-1.751V10.705c0-.804-.13-1.422-.393-1.853-.17-.288-.355-.483-.559-.584-.203-.102-.554-.174-1.053-.216-.203-.017-.31-.093-.318-.229-.017-.22.153-.33.508-.33.11 0 .373.021.787.064.753.076 2.027.114 3.822.114 1.6 0 2.627-.013 3.084-.038l1.765-.09c.762-.033 1.253-.071 1.473-.113.16-.034.3-.051.419-.051.186 0 .279.097.279.292 0 .101-.021.241-.064.419-.143.55-.215 1.286-.215 2.209 0 .39-.11.584-.33.584-.127 0-.2-.106-.216-.318a5.46 5.46 0 00-.14-.8c-.11-.431-.25-.706-.419-.825-.16-.127-.525-.215-1.092-.266l-1.498-.153a20.955 20.955 0 00-1.802-.063c-.948 0-1.536.063-1.765.19-.228.119-.343.432-.343.94zm15.11 8.29c.093 0 .14.224.14.673 0 .508-.03.808-.09.901-.059.093-.296.207-.71.343-.585.195-1.075.364-1.473.508-.94.338-1.55.541-1.828.61-.237.067-.402.13-.495.19a.656.656 0 01-.242.114c-.118.017-.177-.127-.177-.432 0-.61.046-.982.14-1.117.1-.144.427-.3.977-.47.203-.059.656-.216 1.358-.47.28-.101.737-.258 1.371-.47.44-.152.732-.262.876-.33l.153-.05zm7.949-2.361h7.49c.372 0 .61-.034.711-.102.101-.068.152-.22.152-.457v-4.33c0-.87-.114-1.489-.342-1.853-.22-.364-.631-.613-1.232-.749-.254-.05-.376-.152-.368-.304.008-.144.114-.216.317-.216.178 0 .466.021.864.063.558.06 1.15.09 1.777.09.906 0 1.54-.026 1.904-.077.229-.034.385-.05.47-.05.203 0 .305.08.305.24 0 .127-.102.212-.305.254l-.52.115c-.263.05-.483.24-.66.57a2.272 2.272 0 00-.267 1.118v12.276c0 .906.127 1.532.38 1.88.254.346.741.558 1.46.634.263.034.398.119.407.254.017.203-.102.305-.356.305-.169 0-.389-.021-.66-.064-.203-.034-.626-.05-1.27-.05l-.939-.013-.952.025c-.152 0-.355.013-.61.038-.524.043-.816.064-.875.064-.212.008-.314-.076-.305-.254.008-.152.152-.25.432-.292.888-.152 1.333-.876 1.333-2.171l.012-.495v-4.66c0-.397-.038-.63-.114-.698-.076-.067-.33-.101-.762-.101h-7.477c-.483 0-.783.05-.902.152-.118.093-.177.339-.177.736v4.66c0 .88.14 1.498.419 1.853.279.356.8.576 1.561.66.313.034.474.144.483.33.008.178-.115.267-.369.267-.11 0-.317-.021-.622-.063-.228-.043-.736-.064-1.523-.064l-1.067-.013-.837.026c-.212 0-.479.013-.8.038-.44.034-.707.05-.8.05-.212 0-.317-.08-.317-.24 0-.153.11-.255.33-.305l.635-.153c.372-.084.626-.363.761-.837.136-.474.203-1.304.203-2.489V10.223c0-.737-.14-1.27-.419-1.6-.279-.33-.778-.55-1.498-.66-.245-.034-.368-.127-.368-.28 0-.177.11-.262.33-.253.161.008.415.034.762.076.66.076 1.434.114 2.323.114.601 0 1.164-.034 1.689-.101.228-.034.406-.051.533-.051.245 0 .368.089.368.266 0 .136-.114.233-.343.292-.567.144-.948.352-1.142.622-.195.263-.292.707-.292 1.333v4.533c0 .482.046.77.14.863.1.093.414.14.939.14zM95.53 9.664v5.104c0 .389.034.626.102.71.076.077.296.115.66.115h1.955c.889 0 1.591-.051 2.107-.153.457-.093.754-.215.889-.368.136-.152.258-.507.368-1.066.043-.212.148-.313.318-.305.16.009.241.123.241.343 0 .06-.004.152-.013.28-.068.82-.101 1.57-.101 2.246 0 .517.025 1.029.076 1.536.017.17.025.292.025.369 0 .211-.08.317-.241.317-.178 0-.284-.093-.317-.28l-.077-.355c-.101-.567-.304-.952-.609-1.155-.305-.203-.821-.305-1.549-.305H96.56c-.415 0-.694.043-.838.127-.136.085-.203.254-.203.508l.012.419v4.672c0 .72.127 1.168.381 1.346.262.177.918.266 1.968.266 3.326 0 5.463-.749 6.411-2.247.093-.144.186-.22.279-.228.153-.009.229.101.229.33 0 .55-.309 1.206-.927 1.967-.745.915-1.684 1.372-2.818 1.372-.246 0-.576-.017-.991-.051-1.616-.153-2.953-.229-4.011-.229-1.481 0-2.527.051-3.136.153-.322.059-.542.088-.66.088-.271 0-.406-.093-.406-.279 0-.144.11-.245.33-.305l.482-.14c.61-.169.914-.76.914-1.777l.013-.825V11.137c0-1.21-.135-2.023-.406-2.438-.263-.423-.779-.635-1.55-.635-.245 0-.367-.08-.367-.24 0-.238.19-.356.57-.356.213 0 .496.02.852.063 1.21.136 2.665.203 4.367.203 1.032 0 1.946-.017 2.742-.05l1.803-.09c.499-.016.804-.033.914-.05.228-.034.397-.05.507-.05.28 0 .419.122.419.367 0 .077-.012.174-.038.292-.025.119-.059.457-.101 1.016l-.051.749c-.042.49-.085.8-.127.927-.042.118-.135.182-.279.19-.161.009-.241-.118-.241-.38v-.33c0-.272-.051-.53-.153-.775-.161-.381-.486-.635-.977-.762s-1.393-.19-2.704-.19h-1.994c-.524 0-.863.067-1.015.203-.153.127-.229.414-.229.863zm16.709 11.908l.013.445c0 1.015.097 1.616.292 1.802.195.187.829.28 1.904.28 1.583 0 2.954-.187 4.113-.559 1.168-.38 1.913-.88 2.235-1.498.118-.229.237-.343.355-.343.136 0 .199.085.191.254-.034.559-.309 1.172-.825 1.84-.728.924-1.909 1.385-3.542 1.385-.271 0-.584-.013-.94-.038l-1.371-.102a34.763 34.763 0 00-2.552-.089c-1.041 0-1.912.051-2.615.153a7.933 7.933 0 01-.711.076c-.211.008-.317-.068-.317-.229 0-.135.114-.237.342-.305.584-.177.974-.435 1.168-.774.204-.347.305-.927.305-1.74l.013-.583v-11.35c0-1.125-.457-1.781-1.371-1.968l-.572-.114c-.203-.042-.304-.127-.304-.254 0-.194.144-.292.431-.292.195 0 .462.017.8.051.576.05 1.223.076 1.943.076.778 0 1.485-.02 2.12-.063.321-.017.503-.026.546-.026.203 0 .304.064.304.19 0 .187-.122.31-.368.369l-.444.102c-.762.186-1.143.943-1.143 2.272v11.032zM127.921 9.69v10.588l-.013 1.232.038 1.066c.093 1.024.474 1.621 1.143 1.79.465.127.817.19 1.054.19.253 0 .385.077.393.23.017.22-.131.33-.444.33-.144 0-.428-.018-.851-.051a23.82 23.82 0 00-1.32-.026l-.901-.025-.991.012c-.499 0-.876.017-1.13.051-.33.043-.571.064-.723.064-.22 0-.33-.085-.33-.254 0-.161.139-.263.419-.305.66-.101 1.108-.474 1.345-1.117.246-.643.369-1.803.369-3.479V12.28c0-1.777-.106-2.898-.318-3.364-.211-.474-.74-.757-1.587-.85-.228-.017-.338-.102-.33-.254.009-.195.174-.292.495-.292.161 0 .377.02.648.063.533.076.973.114 1.32.114.542 0 1.329-.046 2.361-.14.534-.042.969-.063 1.308-.063 1.769 0 3.203.428 4.304 1.282 1.108.847 1.663 1.955 1.663 3.327 0 1.658-.677 2.966-2.031 3.922-1.016.711-2.091 1.067-3.225 1.067-.533 0-1.024-.06-1.473-.178-.44-.118-.651-.245-.635-.38.017-.102.098-.153.242-.153.067 0 .152.013.254.038.194.06.507.089.939.089 1.219 0 2.192-.335 2.92-1.003.736-.669 1.104-1.557 1.104-2.666 0-1.278-.482-2.336-1.447-3.174-.965-.838-2.188-1.257-3.669-1.257-.338 0-.571.064-.698.19-.127.128-.19.369-.19.724l-.013.368zm34.84-.545l.406 3.046.038.318-.038.127a.233.233 0 01-.19.127c-.102.008-.254-.17-.457-.534-1.583-2.776-3.729-4.164-6.437-4.164-2.158 0-3.859.665-5.104 1.994-1.244 1.328-1.866 3.144-1.866 5.446 0 2.649.69 4.816 2.07 6.5 1.388 1.676 3.169 2.514 5.344 2.514 1.27 0 2.518-.339 3.745-1.016 1.228-.677 2.078-1.498 2.552-2.463.22-.449.39-.677.508-.686.135-.008.203.072.203.242l-.013.14-.05.279-.292 1.549-.051.228c-.034.22-.233.449-.597.686-1.955 1.244-4.109 1.866-6.462 1.866-2.725 0-4.921-.808-6.589-2.425-1.667-1.617-2.501-3.745-2.501-6.386 0-2.64.864-4.832 2.59-6.576 1.727-1.752 3.894-2.628 6.5-2.628 1.786 0 3.428.402 4.926 1.206l.508.267.203.089.216.076c.042 0 .106-.034.19-.102.186-.135.313-.203.381-.203.136 0 .224.16.267.483zm8.368.52v5.104c0 .389.034.626.101.71.077.077.297.115.661.115h1.955c.888 0 1.591-.051 2.107-.153.457-.093.753-.215.889-.368.135-.152.258-.507.368-1.066.042-.212.148-.313.317-.305.161.009.242.123.242.343 0 .06-.005.152-.013.28-.068.82-.102 1.57-.102 2.246 0 .517.026 1.029.076 1.536.017.17.026.292.026.369 0 .211-.081.317-.241.317-.178 0-.284-.093-.318-.28l-.076-.355c-.101-.567-.305-.952-.609-1.155-.305-.203-.821-.305-1.549-.305h-2.806c-.414 0-.694.043-.838.127-.135.085-.203.254-.203.508l.013.419v4.672c0 .72.127 1.168.381 1.346.262.177.918.266 1.968.266 3.326 0 5.463-.749 6.411-2.247.093-.144.186-.22.279-.228.152-.009.228.101.228.33 0 .55-.308 1.206-.926 1.967-.745.915-1.685 1.372-2.819 1.372-.245 0-.575-.017-.99-.051-1.616-.153-2.954-.229-4.012-.229-1.481 0-2.526.051-3.135.153-.322.059-.542.088-.66.088-.271 0-.407-.093-.407-.279 0-.144.11-.245.33-.305l.483-.14c.609-.169.914-.76.914-1.777l.013-.825V11.137c0-1.21-.136-2.023-.407-2.438-.262-.423-.778-.635-1.549-.635-.245 0-.368-.08-.368-.24 0-.238.191-.356.572-.356.211 0 .495.02.85.063 1.21.136 2.666.203 4.367.203 1.033 0 1.947-.017 2.743-.05l1.802-.09c.5-.016.804-.033.914-.05.229-.034.398-.05.508-.05.279 0 .419.122.419.367 0 .077-.013.174-.038.292-.025.119-.059.457-.102 1.016l-.05.749c-.043.49-.085.8-.127.927-.043.118-.136.182-.28.19-.16.009-.241-.118-.241-.38v-.33c0-.272-.051-.53-.152-.775-.161-.381-.487-.635-.978-.762s-1.392-.19-2.704-.19h-1.993c-.525 0-.863.067-1.016.203-.152.127-.228.414-.228.863zm27.944 2.87v10.638c0 .956-.021 1.54-.063 1.752-.043.203-.161.3-.356.292a.439.439 0 01-.292-.114l-.279-.33-10.702-12.239-.127-.14a.244.244 0 00-.178-.076c-.161 0-.241.19-.241.572v8.607l-.013.533.038.902c.06.558.203.943.432 1.155.229.212.677.368 1.346.47.279.034.419.143.419.33 0 .169-.089.254-.267.254a3.1 3.1 0 01-.381-.026c-.093-.017-.461-.042-1.104-.076l-1.295-.063-.61.025c-.33 0-.643.021-.939.064-.22.033-.377.05-.47.05-.22 0-.338-.08-.355-.241-.009-.127.11-.233.355-.317.711-.246 1.189-.572 1.435-.978.254-.415.381-1.079.381-1.993v-8.633c0-1.464-.233-2.615-.699-3.453-.465-.846-1.138-1.329-2.018-1.447-.229-.034-.343-.131-.343-.292 0-.161.093-.241.279-.241.043 0 .11.004.203.012l.521.013.851.025.203-.012c.203-.009.359-.013.469-.013.212 0 .424.123.635.368l11.68 13.229c.186.211.305.313.355.304.085-.008.132-.089.14-.24V14.92l.013-1.714-.153-2.92c-.084-.72-.296-1.227-.634-1.523-.33-.305-.931-.53-1.803-.673-.246-.042-.368-.148-.368-.318 0-.16.122-.24.368-.24.11 0 .288.012.533.037.584.068 1.367.102 2.349.102.524 0 .943-.025 1.257-.076.27-.051.478-.076.622-.076.22 0 .338.088.355.266.009.11-.076.19-.254.241-.516.127-.859.339-1.028.635-.161.296-.241.85-.241 1.663v1.371l-.026.838zm17.573-3.53h-3.568c-.372 0-.609.05-.711.152-.093.102-.139.351-.139.75v12.44l.012.496c.043.99.597 1.578 1.663 1.764.297.051.445.149.445.292 0 .187-.119.28-.356.28-.101 0-.309-.026-.622-.076-.161-.026-.542-.038-1.142-.038l-.927-.013-.99.013c-.356 0-.656.012-.902.038-.482.05-.766.076-.85.076-.254 0-.381-.093-.381-.28 0-.135.139-.22.419-.253.651-.085 1.091-.263 1.32-.534.229-.279.343-.774.343-1.485V10.045l-.013-.33c0-.305-.046-.5-.14-.584-.084-.085-.287-.127-.609-.127h-3.364c-.686 0-1.185.14-1.498.419-.305.27-.542.787-.711 1.549-.076.33-.191.49-.343.482-.152-.008-.228-.123-.228-.343 0-.177.05-.503.152-.977.127-.61.19-1.113.19-1.511 0-.39.043-.643.127-.762.093-.127.284-.19.572-.19h13.66c.465 0 .744.05.838.152.101.102.152.402.152.902 0 .499.021.863.063 1.091.043.288.068.495.077.622.008.254-.081.39-.267.407-.152.008-.254-.123-.305-.394-.11-.6-.287-.99-.533-1.168-.245-.186-.724-.28-1.434-.28zm9.256.66v5.104c0 .389.034.626.102.71.076.077.296.115.66.115h1.955c.889 0 1.591-.051 2.108-.153.457-.093.753-.215.888-.368.136-.152.258-.507.368-1.066.043-.212.149-.313.318-.305.161.009.241.123.241.343 0 .06-.004.152-.013.28-.067.82-.101 1.57-.101 2.246 0 .517.025 1.029.076 1.536.017.17.025.292.025.369 0 .211-.08.317-.241.317-.178 0-.283-.093-.317-.28l-.076-.355c-.102-.567-.305-.952-.61-1.155-.305-.203-.821-.305-1.549-.305h-2.805c-.415 0-.694.043-.838.127-.136.085-.203.254-.203.508l.012.419v4.672c0 .72.127 1.168.381 1.346.263.177.918.266 1.968.266 3.326 0 5.463-.749 6.411-2.247.093-.144.186-.22.279-.228.153-.009.229.101.229.33 0 .55-.309 1.206-.927 1.967-.745.915-1.684 1.372-2.818 1.372-.246 0-.576-.017-.99-.051-1.617-.153-2.954-.229-4.012-.229-1.481 0-2.527.051-3.136.153-.322.059-.542.088-.66.088-.271 0-.406-.093-.406-.279 0-.144.11-.245.33-.305l.482-.14c.61-.169.914-.76.914-1.777l.013-.825V11.137c0-1.21-.135-2.023-.406-2.438-.263-.423-.779-.635-1.549-.635-.246 0-.368-.08-.368-.24 0-.238.19-.356.571-.356.212 0 .495.02.851.063 1.21.136 2.666.203 4.367.203 1.032 0 1.946-.017 2.742-.05l1.803-.09c.499-.016.804-.033.914-.05.228-.034.398-.05.508-.05.279 0 .419.122.419.367 0 .077-.013.174-.039.292-.025.119-.059.457-.101 1.016l-.051.749c-.042.49-.085.8-.127.927-.042.118-.135.182-.279.19-.161.009-.241-.118-.241-.38v-.33c0-.272-.051-.53-.153-.775-.161-.381-.486-.635-.977-.762s-1.393-.19-2.704-.19h-1.994c-.524 0-.863.067-1.015.203-.152.127-.229.414-.229.863zm21.343 6.627l3.504 5.18.406.61c1.084 1.59 2.082 2.415 2.996 2.475l.407.025c.152.009.224.068.215.178-.008.127-.198.241-.571.343a4.636 4.636 0 01-1.244.152 3.574 3.574 0 01-2.057-.622c-.601-.423-1.214-1.109-1.84-2.057l-3.162-4.824-.177-.28c-.203-.346-.534-.52-.991-.52h-1.688l-.279.051c-.102.06-.153.195-.153.406v3.961l.013.508c0 .728.034 1.227.102 1.498.076.262.249.5.52.71.364.289.927.47 1.689.547.304.034.461.131.469.292.017.17-.122.254-.419.254-.118 0-.368-.017-.749-.051-.347-.034-.884-.05-1.612-.05l-1.219-.014-.66.013c-.288 0-.635.021-1.041.064-.33.034-.558.05-.685.05-.212 0-.318-.088-.318-.266 0-.127.106-.212.318-.254.677-.127 1.121-.432 1.333-.914.211-.491.317-1.452.317-2.882v-9.115l-.025-1.32c0-1.32-.462-2.057-1.384-2.21l-.597-.088c-.271-.051-.406-.153-.406-.305 0-.178.144-.267.431-.267.068 0 .364.017.889.051.305.026.681.038 1.13.038.389 0 1.054-.03 1.993-.089a29.1 29.1 0 011.79-.063c1.947 0 3.415.368 4.406 1.104.99.728 1.485 1.816 1.485 3.263 0 1.904-1.045 3.377-3.136 4.418zm-3.732-.28h1.434c1.109 0 1.981-.304 2.615-.913.635-.61.953-1.443.953-2.501 0-1.227-.432-2.235-1.295-3.022-.864-.795-1.964-1.193-3.301-1.193-.499 0-.846.084-1.041.254-.186.16-.279.457-.279.888l.012.42v5.154c0 .397.051.651.153.761.11.102.359.153.749.153z" fill="#fff"/></svg>