<svg width="80" height="80" viewBox="0 0 80 80" fill="none" xmlns="http://www.w3.org/2000/svg">
<path fill-rule="evenodd" clip-rule="evenodd" d="M2 30H78V67L65 80H2V30ZM30 43C30 44.1046 29.1046 45 28 45C26.8954 45 26 44.1046 26 43C26 41.8954 26.8954 41 28 41C29.1046 41 30 41.8954 30 43ZM18 55C18 56.1046 17.1046 57 16 57C14.8954 57 14 56.1046 14 55C14 53.8954 14.8954 53 16 53C17.1046 53 18 53.8954 18 55ZM65 67V77H63V66V65H64H75V67H65ZM16 69C17.1046 69 18 68.1046 18 67C18 65.8954 17.1046 65 16 65C14.8954 65 14 65.8954 14 67C14 68.1046 14.8954 69 16 69ZM28 57C29.1046 57 30 56.1046 30 55C30 53.8954 29.1046 53 28 53C26.8954 53 26 53.8954 26 55C26 56.1046 26.8954 57 28 57ZM30 67C30 68.1046 29.1046 69 28 69C26.8954 69 26 68.1046 26 67C26 65.8954 26.8954 65 28 65C29.1046 65 30 65.8954 30 67ZM40 45C41.1046 45 42 44.1046 42 43C42 41.8954 41.1046 41 40 41C38.8954 41 38 41.8954 38 43C38 44.1046 38.8954 45 40 45ZM54 43C54 44.1046 53.1046 45 52 45C50.8954 45 50 44.1046 50 43C50 41.8954 50.8954 41 52 41C53.1046 41 54 41.8954 54 43ZM52 57C53.1046 57 54 56.1046 54 55C54 53.8954 53.1046 53 52 53C50.8954 53 50 53.8954 50 55C50 56.1046 50.8954 57 52 57ZM66 43C66 44.1046 65.1046 45 64 45C62.8954 45 62 44.1046 62 43C62 41.8954 62.8954 41 64 41C65.1046 41 66 41.8954 66 43ZM64 57C65.1046 57 66 56.1046 66 55C66 53.8954 65.1046 53 64 53C62.8954 53 62 53.8954 62 55C62 56.1046 62.8954 57 64 57ZM40 52C38.3431 52 37 53.3431 37 55C37 56.6569 38.3431 58 40 58C41.6569 58 43 56.6569 43 55C43 53.3431 41.6569 52 40 52ZM35 55C35 52.2386 37.2386 50 40 50C42.7614 50 45 52.2386 45 55C45 57.7614 42.7614 60 40 60C37.2386 60 35 57.7614 35 55Z" fill="white"/>
<rect x="17" y="1" width="6" height="18" rx="3" fill="white"/>
<rect x="57" y="1" width="6" height="18" rx="3" fill="white"/>
<path fill-rule="evenodd" clip-rule="evenodd" d="M2 9H15V16C15 18.7614 17.2386 21 20 21C22.7614 21 25 18.7614 25 16V9H55V16C55 18.7614 57.2386 21 60 21C62.7614 21 65 18.7614 65 16V9H78V26H2V9ZM63 9H57V16C57 17.6569 58.3431 19 60 19C61.6569 19 63 17.6569 63 16V9ZM17 16V9H23V16C23 17.6569 21.6569 19 20 19C18.3431 19 17 17.6569 17 16Z" fill="white"/>
</svg>
