<svg width="80" height="80" viewBox="0 0 80 80" fill="none" xmlns="http://www.w3.org/2000/svg">
<path fill-rule="evenodd" clip-rule="evenodd" d="M57 53H50V74H56L58 60L60 74H66V53H59H57Z" fill="white"/>
<path d="M49 78C49 76.8954 49.8954 76 51 76H55C56.1046 76 57 76.8954 57 78V80H49V78Z" fill="white"/>
<path d="M59 78C59 76.8954 59.8954 76 61 76H65C66.1046 76 67 76.8954 67 78V80H59V78Z" fill="white"/>
<path fill-rule="evenodd" clip-rule="evenodd" d="M52.1657 37.2244C53.4225 35.9443 55.1394 35.1175 57.0487 35.0116L57.0378 35H57.4666H60.3493C65.3771 35 69.7651 38.4091 71.0079 43.281L74.0383 55.16L70.1811 56L68 50.6991V44H66V51H50.0381V50H50.0381V44H48.0381V46.853L41.5381 48L41.0381 44.5001L52.1657 37.2244Z" fill="white"/>
<path d="M52.1211 28C52.5972 30.8377 55.0651 33 58.0381 33C61.0111 33 63.4791 30.8377 63.9552 28H52.1211Z" fill="white"/>
<path d="M64.0381 26C64.0381 24.4087 63.4059 22.8826 62.2807 21.7574C61.1555 20.6321 59.6294 20 58.0381 20C56.4468 20 54.9207 20.6321 53.7954 21.7574C52.6702 22.8826 52.0381 24.4087 52.0381 26L58.0381 26H64.0381Z" fill="white"/>
<rect x="45.0381" y="24" width="8" height="2" fill="white"/>
<path d="M32.0005 43H12.0005V74H18.0005L21.4624 52H22.4624L26.0005 74H32.0005V43Z" fill="white"/>
<path d="M11 78C11 76.8954 11.8954 76 13 76H17C18.1046 76 19 76.8954 19 78V80H11V78Z" fill="white"/>
<path d="M25 78C25 76.8954 25.8954 76 27 76H31C32.1046 76 33 76.8954 33 78V80H25V78Z" fill="white"/>
<path fill-rule="evenodd" clip-rule="evenodd" d="M19.144 18H21.5H22H22H24.356C30.6395 18 35.8591 22.8472 36.3232 29.1135L37.5 45H34.5L33.5 31H31.5L32 38V41H12L12 30.8522L11.9624 31H10L9 45H6L7.17677 29.1135C7.64095 22.8472 12.8605 18 19.144 18Z" fill="white"/>
<path fill-rule="evenodd" clip-rule="evenodd" d="M27.6583 15.6176C29.083 14.1731 29.9624 12.1892 29.9624 10C29.9624 5.58172 26.3807 2 21.9624 2C17.5441 2 13.9624 5.58172 13.9624 10C13.9624 12.1382 14.8012 14.0804 16.1678 15.5157C16.0124 15.2918 15.8724 15.057 15.7477 14.8111C15.1778 13.6874 14.9624 12.4029 14.9624 11.0001C14.9624 10.6037 14.9955 10.2142 15.0592 9.83453L15.2545 8.67009L16.3709 9.05448C17.3454 9.38999 19.0055 9.65614 20.7051 9.32632C22.3713 9.00295 24.0587 8.11463 25.2363 6.13858L25.877 5.06334L26.7842 5.92565C28.1247 7.19972 28.9624 9.00291 28.9624 11.0001C28.9624 12.4081 28.7388 13.6815 28.1649 14.7984C28.0168 15.0865 27.848 15.3593 27.6583 15.6176ZM21.0861 11.2897C22.8701 10.9435 24.7212 10.0654 26.1664 8.2919C26.6705 9.0725 26.9624 10.0018 26.9624 11.0001C26.9624 12.2045 26.77 13.1369 26.386 13.8843C26.008 14.62 25.4071 15.2492 24.4638 15.7919C24.0024 16.0573 23.0886 16.2601 22.0232 16.2672C20.9644 16.2742 19.9988 16.0859 19.4424 15.7815C18.5003 15.2659 17.9052 14.6434 17.5315 13.9065C17.1792 13.2119 16.9923 12.3534 16.9657 11.2737C18.1328 11.5002 19.5898 11.5801 21.0861 11.2897Z" fill="white"/>
</svg>
