<svg width="80" height="80" viewBox="0 0 80 80" fill="none" xmlns="http://www.w3.org/2000/svg">
<path fill-rule="evenodd" clip-rule="evenodd" d="M80 40C80 62.0914 62.0914 80 40 80C17.9086 80 0 62.0914 0 40C0 17.9086 17.9086 0 40 0C62.0914 0 80 17.9086 80 40ZM61 28C61 39.598 51.598 49 40 49C28.402 49 19 39.598 19 28C19 16.402 28.402 7 40 7C51.598 7 61 16.402 61 28ZM40.0001 77C53.0497 77 64.5213 70.2444 71.1086 60.0397C62.1191 54.316 51.4468 51 40.0001 51C28.5534 51 17.8812 54.316 8.8916 60.0397C15.4789 70.2444 26.9506 77 40.0001 77Z" fill="white"/>
<path fill-rule="evenodd" clip-rule="evenodd" d="M48.5 16C47.7791 16 47.1119 16.2169 46.5563 16.5888L45.4438 14.9268C46.3183 14.3414 47.3708 14 48.5 14C50.4079 14 52.0883 14.9723 53.0733 16.4437L51.4113 17.5563C50.7817 16.6158 49.7126 16 48.5 16ZM39 25H41V17H39V25ZM18.4962 22.1318L25.4962 26.1318L24.5039 27.8682L17.5039 23.8682L18.4962 22.1318ZM61.5039 22.1318L54.5039 26.1318L55.4962 27.8682L62.4962 23.8682L61.5039 22.1318ZM33 19.5C33 20.3284 32.3285 21 31.5 21C30.6716 21 30 20.3284 30 19.5C30 18.6716 30.6716 18 31.5 18C32.3285 18 33 18.6716 33 19.5ZM48.5 21C49.3285 21 50 20.3284 50 19.5C50 18.6716 49.3285 18 48.5 18C47.6716 18 47 18.6716 47 19.5C47 20.3284 47.6716 21 48.5 21ZM33.686 16.5888C33.1304 16.2169 32.4632 16 31.7422 16C30.5297 16 29.4606 16.6158 28.831 17.5563L27.169 16.4437C28.154 14.9723 29.8344 14 31.7422 14C32.8715 14 33.924 14.3414 34.7985 14.9268L33.686 16.5888Z" fill="white"/>
<path fill-rule="evenodd" clip-rule="evenodd" d="M26.0669 25.2931C24.8159 25.5685 24 26.6934 24 27.9744V42.0256C24 43.3066 24.8159 44.4315 26.0669 44.7069C28.5228 45.2477 33.1672 46 40 46C46.8328 46 51.4772 45.2477 53.9331 44.7069C55.1841 44.4315 56 43.3066 56 42.0256V27.9744C56 26.6934 55.1841 25.5685 53.9331 25.2931C51.4772 24.7523 46.8328 24 40 24C33.1672 24 28.5228 24.7523 26.0669 25.2931ZM32 34V32H48V34H32ZM32 38V36H48V38H32Z" fill="white"/>
</svg>
