<svg width="80" height="80" viewBox="0 0 80 80" fill="none" xmlns="http://www.w3.org/2000/svg">
<path fill-rule="evenodd" clip-rule="evenodd" d="M40 80C62.0914 80 80 62.0914 80 40C80 17.9086 62.0914 0 40 0C17.9086 0 0 17.9086 0 40C0 62.0914 17.9086 80 40 80ZM44.9999 14C44.9999 16.7614 42.7614 19 39.9999 19C37.2385 19 34.9999 16.7614 34.9999 14C34.9999 11.2386 37.2385 9 39.9999 9C42.7614 9 44.9999 11.2386 44.9999 14ZM16.0497 19.5568C16.2945 18.4797 17.3661 17.8049 18.4432 18.0497L27.1459 20.0276C35.6074 21.9507 44.3925 21.9507 52.854 20.0276L61.5567 18.0497C62.6338 17.8049 63.7054 18.4797 63.9502 19.5568C64.195 20.6339 63.5203 21.7055 62.4432 21.9503L53.7405 23.9282C51.1267 24.5222 48.484 24.9446 45.8292 25.1953L45.6162 26.6863C44.976 31.1674 44.7181 35.6892 44.8425 40.2031L53.8973 67.3675C54.2466 68.4154 53.6803 69.5481 52.6324 69.8974C51.5845 70.2467 50.4519 69.6803 50.1026 68.6325L43.4963 48.8135L43.1452 48.3667C41.5437 46.3284 38.4562 46.3284 36.8547 48.3667L36.5036 48.8135L29.8973 68.6325C29.548 69.6803 28.4154 70.2467 27.3675 69.8974C26.3196 69.5481 25.7533 68.4154 26.1026 67.3675L35.1574 40.2031C35.2818 35.6892 35.0239 31.1674 34.3837 26.6863L34.1707 25.1953C31.5159 24.9446 28.8732 24.5222 26.2594 23.9282L17.5567 21.9503C16.4796 21.7055 15.8049 20.6339 16.0497 19.5568Z" fill="white"/>
</svg>
