<svg width="80" height="80" viewBox="0 0 80 80" fill="none" xmlns="http://www.w3.org/2000/svg">
<g clip-path="url(#clip0)">
<circle cx="40" cy="40" r="37.5" stroke="white" stroke-width="5"/>
<path fill-rule="evenodd" clip-rule="evenodd" d="M39.0444 7.01367V18.0183H40.9559V7.01367C46.2703 7.16482 51.2701 8.57242 55.6687 10.9499L53.0306 15.5193L54.686 16.4751L57.3232 11.9072C61.6962 14.6094 65.3909 18.3042 68.0931 22.6771L63.5252 25.3144L64.4809 26.9698L69.0504 24.3316C71.4278 28.7303 72.8354 33.73 72.9865 39.0444H61.9819V40.9559H72.9865C72.8354 46.2702 71.4278 51.2699 69.0504 55.6686L64.481 53.0304L63.5252 54.6858L68.0931 57.323C65.3909 61.6961 61.6961 65.3909 57.3231 68.0931L54.6859 63.5254L53.0305 64.4812L55.6686 69.0504C51.27 71.4278 46.2702 72.8354 40.9559 72.9865V61.9819H39.0444V72.9865C33.73 72.8354 28.7303 71.4278 24.3316 69.0504L26.9698 64.481L25.3144 63.5252L22.6771 68.0931C18.3041 65.3909 14.6094 61.6961 11.9071 57.3231L16.4748 54.686L15.5191 53.0306L10.9498 55.6686C8.5724 51.27 7.16482 46.2702 7.01367 40.9559H18.0183V39.0444H7.01367C7.16481 33.73 8.5724 28.7302 10.9499 24.3315L15.5191 26.9696L16.4748 25.3142L11.9071 22.6771C14.6093 18.3041 18.3041 14.6094 22.677 11.9072L25.3144 16.4753L26.9697 15.5195L24.3315 10.9499C28.7301 8.57242 33.73 7.16481 39.0444 7.01367ZM19.0762 29.4211L20.628 26.8537L39.978 38.5487L59.981 27L61.481 29.5981L42.9093 40.3204L46.3028 42.3714L44.751 44.9389L39.943 42.033L35.5002 44.5981L34.0002 42L37.0117 40.2613L19.0762 29.4211Z" fill="white"/>
</g>
<defs>
<clipPath id="clip0">
<rect width="80" height="80" fill="white"/>
</clipPath>
</defs>
</svg>
