<svg width="80" height="80" viewBox="0 0 80 80" fill="none" xmlns="http://www.w3.org/2000/svg">
<path d="M15 79H65C67.2091 79 69 77.2091 69 75V15C69 12.7909 67.2091 11 65 11H15C12.7909 11 11 12.7909 11 15V75C11 77.2091 12.7909 79 15 79Z" stroke="white" stroke-width="2"/>
<path fill-rule="evenodd" clip-rule="evenodd" d="M20 15H15V72H65V15H60V21H20V15ZM26.7072 35.7072L31.7072 30.7072L30.293 29.293L26.0001 33.5859L23.7072 31.293L22.293 32.7072L25.293 35.7072L26.0001 36.4143L26.7072 35.7072ZM35.0001 35.0001H57.0001V33.0001H35.0001V35.0001ZM35.0001 45.0001H57.0001V43.0001H35.0001V45.0001ZM57.0001 55.0001H35.0001V53.0001H57.0001V55.0001ZM31.7072 40.7072L26.7072 45.7072L26.0001 46.4143L25.293 45.7072L22.293 42.7072L23.7072 41.293L26.0001 43.5859L30.293 39.293L31.7072 40.7072ZM24.0001 50.0001H23.0001V51.0001V57.0001V58.0001H24.0001H30.0001H31.0001V57.0001V51.0001V50.0001H30.0001H24.0001ZM25.0001 56.0001V52.0001H29.0001V56.0001H25.0001Z" fill="white"/>
<path fill-rule="evenodd" clip-rule="evenodd" d="M52 5H45.917C45.441 2.16229 42.973 0 40 0C37.027 0 34.559 2.16229 34.083 5H28C24.6863 5 22 7.68629 22 11V19H58V11C58 7.68629 55.3137 5 52 5ZM40 8C41.1046 8 42 7.10457 42 6C42 4.89543 41.1046 4 40 4C38.8954 4 38 4.89543 38 6C38 7.10457 38.8954 8 40 8Z" fill="white"/>
</svg>
