<svg width="80" height="80" viewBox="0 0 80 80" fill="none" xmlns="http://www.w3.org/2000/svg">
<g clip-path="url(#clip0)">
<path fill-rule="evenodd" clip-rule="evenodd" d="M11 80H71V0H31.6897L11 20.5128V80ZM33 3V22H14V24L32 33V24H34H35V23V3H33ZM62 36H18V34H62V36ZM18 44H62V42H18V44ZM62 52H18V50H62V52ZM32 71H62V69H32V71ZM45.1261 59.7081C45.8868 58.5671 47.3781 58.171 48.6047 58.7843C50.1221 59.543 50.5819 61.4908 49.564 62.848L48.5137 64.2484C49.0284 64.6754 49.8228 64.6207 50.2656 64.0672L50.5896 63.6623C51.5007 62.5233 53.1516 62.3137 54.3185 63.1889C54.6134 63.4101 54.8599 63.6893 55.0428 64.0094L55.54 64.8794C55.7545 65.2549 56.2422 65.37 56.602 65.1301C57.4221 64.5834 58.4722 64.5181 59.3537 64.9588L59.5846 65.0742C59.75 65.1569 59.9323 65.2 60.1173 65.2H62V67.2H60.1173C59.6218 67.2 59.1332 67.0847 58.6901 66.8631L58.4593 66.7477C58.2197 66.6279 57.9343 66.6456 57.7114 66.7942C56.3875 67.6768 54.5929 67.2532 53.8035 65.8717L53.3063 65.0017C53.2589 64.9187 53.195 64.8462 53.1185 64.7889C52.8158 64.5619 52.3876 64.6162 52.1513 64.9116L51.8274 65.3166C50.6126 66.835 48.3878 66.9201 47.0527 65.6237C45.3851 66.5966 43.1824 66.3966 41.7188 64.9331L41.2929 64.5071L42.7071 63.0929L43.1331 63.5188C43.8712 64.257 44.9539 64.4061 45.8321 64.0054L45.1219 63.0111C44.4376 62.0531 44.417 60.7718 45.07 59.7922L45.1261 59.7081ZM47.2685 62.5754L47.964 61.648C48.2332 61.289 48.1116 60.7738 47.7103 60.5732C47.3858 60.4109 46.9914 60.5157 46.7902 60.8175L46.7341 60.9016C46.542 61.1898 46.548 61.5668 46.7494 61.8487L47.2685 62.5754ZM32.2929 61.7071L34.0858 63.5L32.2929 65.2929L33.7071 66.7071L35.5 64.9142L37.2929 66.7071L38.7071 65.2929L36.9142 63.5L38.7071 61.7071L37.2929 60.2929L35.5 62.0858L33.7071 60.2929L32.2929 61.7071ZM42 8H43H61H62V9V27V28H61H43H42V27V9V8ZM44 10V26H60V10H44Z" fill="white"/>
</g>
<defs>
<clipPath id="clip0">
<rect width="80" height="80" fill="white"/>
</clipPath>
</defs>
</svg>
