<svg width="80" height="80" viewBox="0 0 80 80" fill="none" xmlns="http://www.w3.org/2000/svg">
<g clip-path="url(#clip0)">
<path fill-rule="evenodd" clip-rule="evenodd" d="M71 80H11V20.5128L31.6897 0H71V13.8616L69.6488 12.4635L68.9538 11.7444L68.2347 12.4394L42.3485 37.4575L41.6295 38.1524L41.6297 38.1527L36.5889 47.1435L27.6244 50.417L27.2512 50.5533L27.0733 50.9085L20.4277 64.1778L20.1105 64.8111L20.6028 65.3205L24.8794 69.7455L25.3717 70.2549L25.9271 70H71V80ZM52.7489 49.6572L52.749 49.6573L43.5907 54.3891L40.0136 63.2361L39.907 63.5H71V37.5811L67.0337 41.4143L64.1575 44.1941L63.4384 44.8891L62.7435 44.17L60.6586 42.0128L62.0968 40.6229L63.4867 42.0611L64.9248 40.6712L63.5349 39.233L64.973 37.8431L66.3629 39.2813L71 34.7997V32.0181L53.4677 48.9624L52.7489 49.6572ZM70.9097 29.3239L62.4232 20.8374L44.4575 38.2006L52.7968 46.8294L70.9097 29.3239ZM71 26.5858V16.7396L68.9056 14.5725L63.8615 19.4473L71 26.5858ZM33 22V3H35V23V24H34H32V33L14 24V22H33ZM28.6836 52.1594L36.9513 49.1403L41.6076 53.9582L38.3084 62.1181L25.8252 67.8463L24.8741 66.8622L31.4684 60.489C32.5743 61.0407 33.9536 60.8688 34.8929 59.961C36.0842 58.8096 36.1166 56.9103 34.9652 55.719C33.8138 54.5276 31.9146 54.4952 30.7232 55.6466C29.784 56.5543 29.565 57.9268 30.0786 59.0508L23.4842 65.4241L22.5332 64.44L28.6836 52.1594Z" fill="white"/>
<path fill-rule="evenodd" clip-rule="evenodd" d="M77.2922 23.1414L68.9529 14.5127L63.8545 19.4401L72.341 27.9266L77.2922 23.1414ZM70.9027 29.3167L62.4162 20.8302L44.0005 38.6283L52.3398 47.257L70.9027 29.3167Z" fill="white"/>
<g clip-path="url(#clip1)">
<path d="M74.3208 28.8088L76.4056 30.966L66.3388 40.6953M66.3388 40.6953L64.2539 38.5381M66.3388 40.6953L63.4625 43.4751L61.3777 41.3179" stroke="white" stroke-width="2"/>
</g>
</g>
<defs>
<clipPath id="clip0">
<rect width="80" height="80" fill="white"/>
</clipPath>
<clipPath id="clip1">
<rect width="7" height="16" fill="white" transform="translate(71 27)"/>
</clipPath>
</defs>
</svg>
