<svg width="80" height="80" viewBox="0 0 80 80" fill="none" xmlns="http://www.w3.org/2000/svg">
<g clip-path="url(#clip0)">
<path fill-rule="evenodd" clip-rule="evenodd" d="M11 80H71V0H31.6897L11 20.5128V80ZM33 3V22H14V24L32 33V24H34H35V23V3H33ZM63 56L19 56V54L63 54V56ZM39.4859 37.4249C37.5274 36.4457 35.1461 37.078 33.9315 38.9L33.89 38.9622C32.9958 40.3036 32.9015 42.0251 33.6439 43.4561L36.1962 48.3757C34.4368 49.5712 31.7647 48.9496 30.9409 46.6613L29.0591 47.3387C30.375 50.994 34.6897 51.945 37.4532 49.9441C39.7163 51.8031 43.362 51.324 44.9091 48.474L45.6622 47.0867C46.1176 46.2477 47.2118 46.0088 47.9755 46.5816C48.1463 46.7097 48.2891 46.8715 48.395 47.0569L49.3573 48.7409C50.4962 50.734 53.0851 51.3451 54.9951 50.0718C55.6259 49.6512 56.4427 49.6318 57.0928 50.0219L57.5722 50.3095C58.3252 50.7613 59.1869 51 60.0651 51H63V49H60.0651C59.5494 49 59.0434 48.8598 58.6012 48.5945L58.1218 48.3069C56.8089 47.5192 55.1596 47.5584 53.8857 48.4077C52.9398 49.0383 51.6578 48.7356 51.0938 47.7486L50.1315 46.0646C49.8901 45.6421 49.5647 45.2736 49.1755 44.9816C47.4354 43.6765 44.9422 44.2209 43.9045 46.1325L43.1514 47.5198C42.2568 49.1678 40.1812 49.4815 38.8313 48.4788C38.9506 48.2927 39.0614 48.096 39.1626 47.8886L41.4457 43.2138C42.491 41.0733 41.6166 38.4903 39.4859 37.4249ZM39.6485 42.3362L37.5477 46.6378L35.4192 42.5351C35.0122 41.7506 35.0639 40.8069 35.5541 40.0716L35.5956 40.0094C36.2507 39.0267 37.5351 38.6856 38.5915 39.2138C39.7407 39.7884 40.2124 41.1816 39.6485 42.3362ZM21.0858 47.5L19.2929 45.7071L20.7071 44.2929L22.5 46.0858L24.2929 44.2929L25.7071 45.7071L23.9142 47.5L25.7071 49.2929L24.2929 50.7071L22.5 48.9142L20.7071 50.7071L19.2929 49.2929L21.0858 47.5Z" fill="white"/>
</g>
<defs>
<clipPath id="clip0">
<rect width="80" height="80" fill="white"/>
</clipPath>
</defs>
</svg>
