<svg width="80" height="80" viewBox="0 0 80 80" fill="none" xmlns="http://www.w3.org/2000/svg">
<g clip-path="url(#clip0)">
<path fill-rule="evenodd" clip-rule="evenodd" d="M13 29C13 29.9818 12.5938 30.9086 12 31.5039L12 17.6911C12.3228 17.9574 12.6565 18.2091 13 18.4457L13 29ZM30.976 17L14.4363 17C13.9688 16.6977 13.521 16.3638 13.0962 16L29.6389 16L30.976 17ZM34.3155 17L40.6778 17C40.6046 16.6648 40.5137 16.3312 40.4062 16L32.9783 16L34.3155 17ZM30.304 14L39.5447 14C36.8563 9.004 30.6126 5 25 5L7 5L7 28.6289C7.45465 28.9566 7.84146 29.4024 8.16521 29.942L8.83479 31.058C8.96031 31.2672 9.12546 31.4623 9.32004 31.6419C9.54077 31.8456 9.76951 31.9859 10 32.0708L10 15.6811C9.70624 15.3213 9.42838 14.9457 9.1678 14.5548L10 14L10.8319 13.4454C10.9579 13.6344 11.0886 13.8193 11.2238 14L27.186 14C25.7402 12.6367 24.4973 11.0674 23.4996 9.33921L25.2316 8.33921C26.4835 10.5074 28.1628 12.3987 30.1678 13.8981L30.304 14Z" fill="white"/>
<path fill-rule="evenodd" clip-rule="evenodd" d="M11.2236 14L27.1859 14C27.7504 14.5323 28.3459 15.0331 28.9698 15.4998L29.6387 16L13.0961 16C12.4064 15.4094 11.7774 14.7401 11.2236 14Z" fill="white"/>
<path d="M-3.79108e-06 31L2.38419e-06 2L5 2L4.99999 31L-3.79108e-06 31Z" fill="white"/>
<path fill-rule="evenodd" clip-rule="evenodd" d="M12 17.7006C14.5664 19.8326 17.8285 21.042 21.2506 21.042L21.451 21.042C21.5625 21.042 21.6694 21.0863 21.7483 21.1651L23.0089 22.4257C25.3117 24.7285 28.197 26.3622 31.3565 27.152L32.8129 27.5161C34.3759 27.9069 36.0308 27.495 37.2284 26.4172C39.4983 24.3743 39.3346 20.7662 36.889 18.9372L32.9615 16H33H50L68 34V62.3091C65.4396 60.1971 62.1933 59 58.7885 59H58.5881C58.4766 59 58.3696 58.9557 58.2908 58.8769L57.0302 57.6163C54.7274 55.3135 51.842 53.6798 48.6826 52.89L47.2262 52.5259C45.6632 52.1351 44.0082 52.547 42.8107 53.6248C40.5408 55.6677 40.7045 59.2758 43.1501 61.1048L47.0214 64H47H12V17.7006ZM13.0868 16H29.6221L30.9125 16.9651C30.4866 17.1325 30.0959 17.3988 29.782 17.7859C29.0905 18.6387 29.0492 19.7351 29.339 20.6895C29.6309 21.6505 30.281 22.584 31.1804 23.3133C32.0797 24.0427 33.1274 24.4859 34.128 24.5729C35.0268 24.6511 35.9833 24.4402 36.6695 23.7681C36.5175 24.1981 36.2585 24.5994 35.8904 24.9306C35.1873 25.5634 34.2156 25.8052 33.2979 25.5758L31.8415 25.2117C29.0338 24.5098 26.4696 23.058 24.4231 21.0115L23.1625 19.7509C22.7086 19.297 22.0929 19.042 21.451 19.042H21.2506C18.2156 19.042 15.3267 17.9383 13.0868 16ZM32.3582 18.7451C32.9105 18.7931 33.5884 19.054 34.2194 19.5656C34.8504 20.0773 35.2456 20.6868 35.4067 21.2172C35.5698 21.7543 35.4717 22.0978 35.324 22.2799C35.1763 22.4621 34.8605 22.6291 34.3013 22.5804C33.749 22.5324 33.071 22.2716 32.4401 21.7599C31.8091 21.2482 31.4138 20.6388 31.2527 20.1083C31.0896 19.5712 31.1878 19.2277 31.3355 19.0456C31.4832 18.8635 31.799 18.6965 32.3582 18.7451ZM58.7885 61C61.8015 61 64.6705 62.0878 66.9035 64H50.3608L49.1265 63.0769C49.5525 62.9095 49.9431 62.6432 50.257 62.2561C50.9485 61.4033 50.9898 60.3069 50.7 59.3525C50.4082 58.3915 49.7581 57.458 48.8587 56.7287C47.9593 55.9993 46.9116 55.5561 45.9111 55.4691C45.0123 55.3909 44.0558 55.6018 43.3696 56.2739C43.5215 55.8439 43.7806 55.4426 44.1486 55.1114C44.8517 54.4786 45.8234 54.2367 46.7411 54.4662L48.1975 54.8303C51.0053 55.5322 53.5695 56.984 55.616 59.0305L56.8766 60.2911C57.3305 60.745 57.9461 61 58.5881 61H58.7885ZM22 33L22 59H24L24 33H22ZM33.2919 44.1261C34.4329 44.8868 34.829 46.3781 34.2157 47.6047C33.457 49.1221 31.5092 49.5819 30.152 48.564L28.7516 47.5137C28.3246 48.0284 28.3793 48.8228 28.9328 49.2656L29.2099 49.4873C30.4201 50.4554 30.6428 52.2096 29.7129 53.4495C29.5977 53.6031 29.4673 53.7448 29.3237 53.8724L29.1348 54.0404C28.413 54.682 28 55.6016 28 56.5673V59H26V56.5673C26 55.0303 26.6573 53.5667 27.806 52.5456L27.995 52.3776C28.0385 52.3389 28.078 52.296 28.1129 52.2495C28.3946 51.8738 28.3272 51.3424 27.9605 51.049L27.6834 50.8274C26.165 49.6126 26.0799 47.3878 27.3763 46.0527C26.4034 44.3851 26.6034 42.1824 28.0669 40.7188L28.4929 40.2929L29.9071 41.7071L29.4812 42.1331C28.743 42.8712 28.5939 43.9539 28.9946 44.8321L29.9889 44.1219C30.9469 43.4376 32.2282 43.417 33.2078 44.07L33.2919 44.1261ZM30.4246 46.2685L31.352 46.964C31.711 47.2332 32.2262 47.1116 32.4268 46.7103C32.5891 46.3858 32.4843 45.9914 32.1825 45.7902L32.0984 45.7341C31.8102 45.542 31.4332 45.5481 31.1513 45.7494L30.4246 46.2685ZM31.2929 33.2929L29.5 35.0858L27.7071 33.2929L26.2929 34.7071L28.0858 36.5L26.2929 38.2929L27.7071 39.7071L29.5 37.9142L31.2929 39.7071L32.7071 38.2929L30.9142 36.5L32.7071 34.7071L31.2929 33.2929ZM50 34V19H48V35V36H49H50V43L65 36V34H50ZM45.8196 60.4764C46.4506 60.988 47.1286 61.2488 47.6809 61.2969C48.2401 61.3455 48.5559 61.1785 48.7036 60.9964C48.8513 60.8143 48.9494 60.4708 48.7863 59.9337C48.6252 59.4032 48.23 58.7938 47.599 58.2821C46.968 57.7704 46.2901 57.5096 45.7378 57.4616C45.1786 57.4129 44.8627 57.5799 44.7151 57.7621C44.5674 57.9442 44.4692 58.2877 44.6323 58.8248C44.7934 59.3552 45.1887 59.9647 45.8196 60.4764Z" fill="white"/>
<path fill-rule="evenodd" clip-rule="evenodd" d="M67 51C67 50.0182 67.4062 49.0914 68 48.4961V62.3089C67.6772 62.0426 67.3435 61.7909 67 61.5543V51ZM49.024 63H65.5637C66.0312 63.3023 66.479 63.6362 66.9038 64H50.3611L49.024 63ZM45.6845 63H39.3222C39.3954 63.3352 39.4863 63.6688 39.5938 64H47.0217L45.6845 63ZM49.696 66H40.4553C43.1437 70.996 49.3874 75 55 75H73V51.3711C72.5453 51.0434 72.1585 50.5976 71.8348 50.058L71.1652 48.942C71.0397 48.7328 70.8745 48.5377 70.68 48.3581C70.4592 48.1544 70.2305 48.0141 70 47.9292V64.3189C70.2938 64.6787 70.5716 65.0543 70.8322 65.4452L70 66L69.1681 66.5546C69.0421 66.3656 68.9114 66.1807 68.7762 66H52.814C54.2598 67.3633 55.5027 68.9326 56.5004 70.6608L54.7684 71.6608C53.5165 69.4926 51.8372 67.6013 49.8322 66.1019L49.696 66Z" fill="white"/>
<path fill-rule="evenodd" clip-rule="evenodd" d="M68.7764 66H52.8141C52.2496 65.4677 51.6541 64.9669 51.0302 64.5003L50.3613 64H66.9039C67.5936 64.5906 68.2226 65.2599 68.7764 66Z" fill="white"/>
<path d="M80 49L80 78L75 78L75 49L80 49Z" fill="white"/>
</g>
<defs>
<clipPath id="clip0">
<rect width="80" height="80" fill="white"/>
</clipPath>
</defs>
</svg>
