<svg width="80" height="80" viewBox="0 0 80 80" fill="none" xmlns="http://www.w3.org/2000/svg">
<path fill-rule="evenodd" clip-rule="evenodd" d="M19 15V80H63V0H34L19 15ZM35 16V3H37V17V18H36H34V24L22 18V16H35ZM57.0539 11.0952L55.1907 5H46.0478L44.1846 11.0952H42.2383V18.7143H44.524V21H48.044V18.7143H53.1948V21H56.7145V18.7143H59.0002V11.0952H57.0539ZM46.0478 16.4286C46.8894 16.4286 47.5716 15.7463 47.5716 14.9048C47.5716 14.0632 46.8894 13.381 46.0478 13.381C45.2062 13.381 44.524 14.0632 44.524 14.9048C44.524 15.7463 45.2062 16.4286 46.0478 16.4286ZM55.1905 16.4287C56.0321 16.4287 56.7144 15.7464 56.7144 14.9049C56.7144 14.0633 56.0321 13.381 55.1905 13.381C54.349 13.381 53.6667 14.0633 53.6667 14.9049C53.6667 15.7464 54.349 16.4287 55.1905 16.4287ZM23 32H24H27V34H25V41H27V43H24H23V42V33V32ZM57 34H39V32H58H59V33V42V43H58H39V41H57V34ZM26 63H25V64V68V69H26H42H43V68V64V63H42H26ZM27 67V65H41V67H27ZM41 60H25V58H41V60ZM57 63V76H59V63H57ZM32 32.0093V30H34V32.0327C34.3035 32.103 34.6078 32.2029 34.8983 32.3291C35.5119 32.5955 36.1515 33.0176 36.5891 33.6311L34.9609 34.7925C34.7985 34.5647 34.5007 34.3368 34.1017 34.1636C33.7063 33.9919 33.2977 33.9118 33 33.9118C32.6295 33.9118 32.1511 33.9799 31.8016 34.1759C31.5257 34.3307 31.3 34.5673 31.3 35.1294C31.3 35.4099 31.3453 35.5321 31.3699 35.5804C31.3885 35.6167 31.4208 35.6643 31.5327 35.7341C31.6634 35.8157 31.859 35.9009 32.1812 36.0139C32.3208 36.0628 32.4702 36.1123 32.6391 36.1683L32.6397 36.1685L32.6401 36.1687L32.7037 36.1897C32.896 36.2536 33.1079 36.3243 33.3335 36.4043L33.3328 36.4041L33 37.3471L33.3342 36.4046L33.3335 36.4043C34.2771 36.7374 35.1709 37.0671 35.8142 37.5287C36.1564 37.7742 36.4654 38.0812 36.6836 38.4817C36.9042 38.8866 37 39.3283 37 39.7941C37 41.6552 35.5466 42.8905 34 43.2701V45H32V43.2764C30.5858 42.9334 29.6651 41.9142 29.1756 41.2013L30.8244 40.0693C31.2778 40.7297 31.9906 41.3941 33 41.3941C34.1478 41.3941 35 40.5905 35 39.7941C35 39.6099 34.9645 39.5068 34.9274 39.4386C34.8877 39.3659 34.8124 39.2714 34.6483 39.1537C34.2793 38.8889 33.6733 38.6452 32.6672 38.29L32.6658 38.2895C32.4604 38.2167 32.2648 38.1513 32.0738 38.088L32.0101 38.0669C31.8435 38.0116 31.6765 37.9563 31.5195 37.9012C31.1738 37.78 30.8022 37.6358 30.4736 37.4306C30.126 37.2137 29.8068 36.9171 29.5887 36.4899C29.3766 36.0745 29.3 35.6136 29.3 35.1294C29.3 33.7797 29.9743 32.9076 30.8234 32.4315C31.2098 32.2148 31.6201 32.085 32 32.0093Z" fill="white"/>
</svg>
