<svg width="80" height="80" viewBox="0 0 80 80" fill="none" xmlns="http://www.w3.org/2000/svg">
<path fill-rule="evenodd" clip-rule="evenodd" d="M22 0H58C61.3137 0 64 2.68629 64 6V12H16V6C16 2.68629 18.6863 0 22 0ZM64 74C64 77.3137 61.3137 80 58 80H22C18.6863 80 16 77.3137 16 74V70H64V74ZM40 8C41.1046 8 42 7.10457 42 6C42 4.89543 41.1046 4 40 4C38.8954 4 38 4.89543 38 6C38 7.10457 38.8954 8 40 8Z" fill="white"/>
<rect x="17" y="11" width="46" height="60" stroke="white" stroke-width="2"/>
<path fill-rule="evenodd" clip-rule="evenodd" d="M40 54C47.732 54 54 47.732 54 40C54 32.268 47.732 26 40 26C32.268 26 26 32.268 26 40C26 47.732 32.268 54 40 54ZM47.479 43.9849L45.2404 41.7463C44.6678 41.1737 43.7549 41.1582 43.2014 41.7116C43.0804 41.8327 42.9956 41.9856 42.9562 42.1539L42.7206 43.1608C42.5205 44.0158 41.5254 44.192 40.8889 43.5556L36.4444 39.1111C35.808 38.4746 35.9842 37.4795 36.8392 37.2794L37.8461 37.0438C38.0144 37.0044 38.1673 36.9196 38.2884 36.7986C38.8418 36.2451 38.8263 35.3322 38.2537 34.7596L36.0151 32.521C35.3368 31.8427 34.2554 31.8243 33.5997 32.48C31.4141 34.6655 31.4759 38.2707 33.737 40.5319L39.4681 46.263C41.7293 48.5241 45.3345 48.5859 47.52 46.4003C48.1757 45.7446 48.1573 44.6632 47.479 43.9849Z" fill="white"/>
</svg>
