<svg width="80" height="80" viewBox="0 0 80 80" fill="none" xmlns="http://www.w3.org/2000/svg">
<path fill-rule="evenodd" clip-rule="evenodd" d="M0 9H80V19H0V9ZM56 16C57.1046 16 58 15.1046 58 14C58 12.8954 57.1046 12 56 12C54.8954 12 54 12.8954 54 14C54 15.1046 54.8954 16 56 16ZM64 16C65.1046 16 66 15.1046 66 14C66 12.8954 65.1046 12 64 12C62.8954 12 62 12.8954 62 14C62 15.1046 62.8954 16 64 16ZM74 14C74 15.1046 73.1046 16 72 16C70.8954 16 70 15.1046 70 14C70 12.8954 70.8954 12 72 12C73.1046 12 74 12.8954 74 14Z" fill="white"/>
<path fill-rule="evenodd" clip-rule="evenodd" d="M0 21H80V70H0V21ZM74 64L44 64V62L74 62V64ZM60.6047 51.7843C59.3781 51.171 57.8868 51.5671 57.1261 52.7081L57.07 52.7922C56.417 53.7718 56.4376 55.0531 57.1219 56.0111L57.8321 57.0054C56.9539 57.4061 55.8712 57.257 55.1331 56.5188L54.7071 56.0929L53.2929 57.5071L53.7188 57.9331C55.1824 59.3966 57.3851 59.5966 59.0527 58.6237C60.3878 59.9201 62.6126 59.835 63.8274 58.3166L64.1513 57.9116C64.3876 57.6162 64.8158 57.5619 65.1185 57.7889C65.195 57.8462 65.2589 57.9187 65.3064 58.0017L65.8035 58.8717C66.5929 60.2532 68.3875 60.6768 69.7114 59.7942C69.9343 59.6456 70.2197 59.6279 70.4593 59.7477L70.6901 59.8631C71.1332 60.0847 71.6219 60.2 72.1173 60.2H74V58.2H72.1173C71.9323 58.2 71.75 58.1569 71.5846 58.0742L71.3537 57.9588C70.4722 57.5181 69.4221 57.5834 68.602 58.1301C68.2422 58.37 67.7545 58.2549 67.54 57.8794L67.0428 57.0094C66.8599 56.6893 66.6134 56.4101 66.3185 56.1889C65.1516 55.3137 63.5007 55.5233 62.5896 56.6623L62.2656 57.0672C61.8228 57.6207 61.0284 57.6754 60.5137 57.2484L61.564 55.848C62.5819 54.4908 62.1221 52.543 60.6047 51.7843ZM59.964 54.648L59.2685 55.5754L58.7494 54.8487C58.548 54.5668 58.542 54.1898 58.7341 53.9016L58.7902 53.8175C58.9914 53.5157 59.3858 53.4109 59.7103 53.5732C60.1116 53.7738 60.2332 54.289 59.964 54.648ZM46.0858 56.5L44.2929 54.7071L45.7071 53.2929L47.5 55.0858L49.2929 53.2929L50.7071 54.7071L48.9142 56.5L50.7071 58.2929L49.2929 59.7071L47.5 57.9142L45.7071 59.7071L44.2929 58.2929L46.0858 56.5ZM6 44V46H34V44H6ZM34 50V52H6V50H34ZM6 56V58H34V56H6ZM25 64H6V62H25V64ZM7 24H6V25V39V40H7H21H22V39V25V24H21H7ZM8 38V26H20V38H8Z" fill="white"/>
</svg>
