<svg width="80" height="80" viewBox="0 0 80 80" fill="none" xmlns="http://www.w3.org/2000/svg">
<path fill-rule="evenodd" clip-rule="evenodd" d="M70 6H10V43H70V6ZM32.0002 17.9382L32 18C32 21.7277 34.5495 24.8599 38 25.748V28.1629C36.5798 28.3964 35.2349 28.8747 34.0142 29.5574C35.1808 30.9274 37.3055 32 40.0003 32C42.695 32 44.8196 30.9274 45.9863 29.5575C44.7654 28.8747 43.4204 28.3963 42 28.1628V25.748C45.4505 24.8599 48 21.7277 48 18L47.9998 17.9381C47.6722 17.979 47.3384 18 46.9998 18C43.9877 18 41.3645 16.3354 39.9998 13.876C38.635 16.3354 36.0118 18 32.9998 18C32.6613 18 32.3277 17.979 32.0002 17.9382ZM30.0162 17.4251C30.0055 17.6154 30 17.8071 30 18C30 21.7997 32.1192 25.1044 35.2401 26.7967C30.5083 28.4307 26.8153 32.4423 25.7295 37.561L25 41H55L54.2705 37.5609C53.1847 32.4423 49.4917 28.4307 44.7599 26.7967C47.8808 25.1044 50 21.7997 50 18C50 12.4772 45.5228 8 40 8H39.9999C34.67 8 30.314 12.1698 30.0161 17.4251L30.0162 17.4251Z" fill="white"/>
<rect x="10" width="60" height="4" fill="white"/>
<path fill-rule="evenodd" clip-rule="evenodd" d="M45.8596 68.4029L45.6512 68.836L44.7501 68.4024C45.6512 68.836 45.6509 68.8365 45.6507 68.837L45.6502 68.8381L45.6491 68.8404L45.6465 68.8457L45.6397 68.8592C45.6346 68.8694 45.6281 68.8821 45.6202 68.8972C45.6043 68.9273 45.5829 68.9667 45.5555 69.0141C45.5008 69.1088 45.4221 69.2361 45.3171 69.3849C45.1076 69.6818 44.7892 70.0701 44.3422 70.4572C43.4363 71.2416 42.0228 72.0001 40.0002 72.0001C37.9776 72.0001 36.5641 71.2416 35.6583 70.4573C35.2113 70.0702 34.8929 69.6819 34.6834 69.385C34.5784 69.2362 34.4997 69.1089 34.445 69.0142C34.4177 68.9668 34.3962 68.9274 34.3804 68.8973C34.3725 68.8823 34.366 68.8695 34.3608 68.8593L34.3541 68.8458L34.3515 68.8405L34.3504 68.8382L34.3499 68.8371C34.3496 68.8366 34.3494 68.8361 35.2505 68.4025L34.3494 68.8361L34.1408 68.4026C32.224 69.7948 30.8082 71.8629 30.2646 74.3095L29 80H51L49.7354 74.3095C49.1918 71.863 47.7762 69.795 45.8596 68.4029ZM37.2106 66.5003L42.7898 66.5001C45.8325 65.3679 48 62.4371 48 59C48 54.5817 44.4183 51 40 51C35.5817 51 32 54.5817 32 59C32 62.4372 34.1677 65.3681 37.2106 66.5003ZM36.8656 68.6527C36.9994 68.5892 37.1146 68.5378 37.201 68.5003L42.7574 68.5001L43.2429 68.7504C43.1784 68.8146 43.1085 68.8799 43.033 68.9453C42.4388 69.4598 41.4774 70.0001 40.0002 70.0001C38.523 70.0001 37.5616 69.4598 36.9675 68.9454C36.8799 68.8694 36.7997 68.7936 36.7269 68.7196C36.7746 68.6962 36.821 68.6739 36.8656 68.6527Z" fill="white"/>
<path fill-rule="evenodd" clip-rule="evenodd" d="M8.00056 59.9171C8.32559 59.9716 8.65948 60 9 60C11.087 60 12.9251 58.9345 14 57.3178C15.0749 58.9345 16.913 60 19 60C19.3405 60 19.6744 59.9716 19.9994 59.9171C19.9998 59.9447 20 59.9723 20 60C20 59.9724 19.9998 59.9448 19.9994 59.9172C19.6744 59.9717 19.3405 60.0001 19 60.0001C16.913 60.0001 15.0749 58.9346 14 57.3179C12.9251 58.9346 11.087 60.0001 9 60.0001C8.65948 60.0001 8.32559 59.9717 8.00056 59.9172C8.00019 59.9448 8 59.9724 8 60C8 59.9723 8.00019 59.9447 8.00056 59.9171ZM14 52C9.58172 52 6 55.5817 6 60V67H10.124C10.1388 67.0082 10.1537 67.0164 10.1686 67.0245C10.2273 67.0161 10.2839 67.0094 10.338 67.004C10.5601 66.9819 10.7495 66.982 10.888 66.9881C10.9566 66.9912 11.0136 66.9957 11.0571 67.0001L16.9978 66.9999C17.0273 66.9981 17.0744 66.9953 17.1311 66.9934C17.2628 66.9889 17.4491 66.9887 17.6697 67.0101C17.7193 67.0149 17.771 67.0209 17.8246 67.0283C17.8418 67.0189 17.8589 67.0095 17.876 67H22V60C22 55.5817 18.4183 52 14 52ZM8.14085 68.4026C6.22398 69.7947 4.80825 71.8629 4.26456 74.3095L3 80H25L23.7354 74.3095C23.1918 71.863 21.7762 69.795 19.8595 68.4029L19.6512 68.8359L18.7501 68.4024C19.6512 68.8359 19.651 68.8364 19.6507 68.8369L19.6502 68.8379L19.6491 68.8402L19.6465 68.8455L19.6398 68.859C19.6347 68.8693 19.6281 68.882 19.6202 68.897C19.6044 68.9271 19.5829 68.9665 19.5556 69.014C19.5009 69.1087 19.4222 69.2359 19.3172 69.3848C19.1077 69.6817 18.7893 70.0701 18.3423 70.4572C17.4365 71.2416 16.023 72.0001 14.0002 72.0001C11.9775 72.0001 10.5639 71.2416 9.65814 70.4572C9.21115 70.0702 8.89281 69.6818 8.68334 69.3849C8.57831 69.2361 8.49963 69.1088 8.44496 69.0141C8.4176 68.9667 8.39614 68.9272 8.38032 68.8972C8.37241 68.8821 8.36589 68.8694 8.36074 68.8591L8.35403 68.8456L8.35143 68.8403L8.35032 68.838L8.34981 68.837C8.34956 68.8365 8.34933 68.836 9.25049 68.4025L8.34933 68.836L8.14085 68.4026ZM16.9665 68.9999L11.0319 69.0001C11.6302 69.4974 12.5751 70.0001 14.0002 70.0001C15.4254 70.0001 16.3703 69.4973 16.9686 69L16.9665 68.9999Z" fill="white"/>
<path fill-rule="evenodd" clip-rule="evenodd" d="M74 60C74 56.6309 71.9174 53.7483 68.9693 52.5692C68.7604 51.1164 67.5106 50 66 50C64.4894 50 63.2396 51.1164 63.0307 52.5692C60.0826 53.7483 58 56.6309 58 60C58 63.1347 59.8029 65.8483 62.4284 67.1604L62.3756 67.1809L63.5 68.0001V70.2032V70.6275C64.2402 70.8617 65.0799 70.9999 66.0002 70.9999C66.9203 70.9999 67.7599 70.8617 68.5 70.6276V70.2035V68.0001V58H70.5V63.9687C71.0523 63.3429 71.4761 62.6011 71.7301 61.7845L71.7302 61.7845C71.4761 62.6011 71.0523 63.343 70.5 63.9687V66.6153C72.6128 65.1753 74 62.7497 74 60ZM70.5 70.7191C71.0149 70.2994 71.3268 69.8341 71.5094 69.4193C71.6237 69.1596 71.6836 68.9283 71.7151 68.7519C71.7309 68.6636 71.7396 68.5883 71.7444 68.5292C71.7468 68.4996 71.7482 68.474 71.749 68.4526C71.7494 68.4419 71.7497 68.4323 71.7499 68.4238L71.75 68.4118L71.7501 68.4065L71.7501 68.404V68.4028C71.7501 68.4022 71.7501 68.4016 70.7501 68.4023L71.7501 68.4016L71.75 68.3244C73.7222 69.7167 75.1815 71.8167 75.7354 74.3095L77 80H55L56.2646 74.3095C56.8186 71.8164 58.278 69.7163 60.2506 68.324L60.2505 68.4015L61.2505 68.4024C60.2505 68.4015 60.2505 68.4021 60.2505 68.4027L60.2505 68.4039L60.2505 68.4065L60.2505 68.4118L60.2507 68.4238C60.2508 68.4323 60.2511 68.4419 60.2515 68.4526C60.2523 68.4739 60.2538 68.4996 60.2562 68.5292C60.2609 68.5883 60.2696 68.6635 60.2854 68.7518C60.3168 68.9282 60.3767 69.1595 60.491 69.4192C60.7243 69.9494 61.1689 70.5621 61.9788 71.0567L63.5 71.9856V70.6275C64.2402 70.8617 65.0799 71 66.0002 71C66.9203 71 67.7599 70.8618 68.5 70.6276V71.9857V76H64V78H68.5H70.5V70.7191ZM63 65.1973V65.1973C62.165 64.7143 61.4572 64.0358 60.9392 63.2244C61.4572 64.0358 62.165 64.7142 63 65.1973Z" fill="white"/>
</svg>
