<svg xmlns="http://www.w3.org/2000/svg" xmlns:xlink="http://www.w3.org/1999/xlink"><defs><clipPath id="clip0"><path fill="#fff" d="M0 0h80v80H0z"/></clipPath><clipPath id="clip0"><path fill="#fff" d="M0 0h80v80H0z"/></clipPath><clipPath id="clip0"><path fill="#fff" d="M0 0h80v80H0z"/></clipPath><clipPath id="clip0"><path fill="#fff" d="M0 0h80v80H0z"/></clipPath><clipPath id="clip0"><path fill="#fff" d="M0 0h80v80H0z"/></clipPath><clipPath id="clip0"><path fill="#fff" d="M0 0h80v80H0z"/></clipPath><clipPath id="clip0"><path fill="#fff" d="M0 0h80v80H0z"/></clipPath><clipPath id="clip0"><path fill="#fff" d="M0 0h80v80H0z"/></clipPath><clipPath id="clip1"><path fill="#fff" transform="translate(71 27)" d="M0 0h7v16H0z"/></clipPath><clipPath id="clip0"><path fill="#fff" d="M0 0h80v80H0z"/></clipPath><clipPath id="clip0"><path fill="#fff" d="M0 0h80v80H0z"/></clipPath><clipPath id="clip0"><path fill="#fff" d="M0 0h80v80H0z"/></clipPath><clipPath id="clip0"><path fill="#fff" d="M0 0h80v80H0z"/></clipPath><clipPath id="clip0"><path fill="#fff" d="M0 0h80v80H0z"/></clipPath><clipPath id="clip0"><path fill="#fff" d="M0 0h80v80H0z"/></clipPath><clipPath id="clip0"><path fill="#fff" d="M0 0h80v80H0z"/></clipPath></defs><symbol id="icon-fa-arrow-right" viewBox="0 0 448 512"><path fill="currentColor" d="M190.5 66.9l22.2-22.2c9.4-9.4 24.6-9.4 33.9 0L441 239c9.4 9.4 9.4 24.6 0 33.9L246.6 467.3c-9.4 9.4-24.6 9.4-33.9 0l-22.2-22.2c-9.5-9.5-9.3-25 .4-34.3L311.4 296H24c-13.3 0-24-10.7-24-24v-32c0-13.3 10.7-24 24-24h287.4L190.9 101.2c-9.8-9.3-10-24.8-.4-34.3z"/></symbol><symbol id="icon-fa-chevron-down" viewBox="0 0 448 512"><path fill="currentColor" d="M207.029 381.476L12.686 187.132c-9.373-9.373-9.373-24.569 0-33.941l22.667-22.667c9.357-9.357 24.522-9.375 33.901-.04L224 284.505l154.745-154.021c9.379-9.335 24.544-9.317 33.901.04l22.667 22.667c9.373 9.373 9.373 24.569 0 33.941L240.971 381.476c-9.373 9.372-24.569 9.372-33.942 0z"/></symbol><symbol id="icon-fa-chevron-right" viewBox="0 0 320 512"><path fill="currentColor" d="M285.476 272.971L91.132 467.314c-9.373 9.373-24.569 9.373-33.941 0l-22.667-22.667c-9.357-9.357-9.375-24.522-.04-33.901L188.505 256 34.484 101.255c-9.335-9.379-9.317-24.544.04-33.901l22.667-22.667c9.373-9.373 24.569-9.373 33.941 0L285.475 239.03c9.373 9.372 9.373 24.568.001 33.941z"/></symbol><symbol id="icon-fa-close" viewBox="0 0 352 512"><path fill="currentColor" d="M242.72 256l100.07-100.07c12.28-12.28 12.28-32.19 0-44.48l-22.24-22.24c-12.28-12.28-32.19-12.28-44.48 0L176 189.28 75.93 89.21c-12.28-12.28-32.19-12.28-44.48 0L9.21 111.45c-12.28 12.28-12.28 32.19 0 44.48L109.28 256 9.21 356.07c-12.28 12.28-12.28 32.19 0 44.48l22.24 22.24c12.28 12.28 32.2 12.28 44.48 0L176 322.72l100.07 100.07c12.28 12.28 32.2 12.28 44.48 0l22.24-22.24c12.28-12.28 12.28-32.19 0-44.48L242.72 256z"/></symbol><symbol id="icon-fa-facebook" viewBox="0 0 448 512"><path fill="currentColor" d="M400 32H48A48 48 0 000 80v352a48 48 0 0048 48h137.25V327.69h-63V256h63v-54.64c0-62.15 37-96.48 93.67-96.48 27.14 0 55.52 4.84 55.52 4.84v61h-31.27c-30.81 0-40.42 19.12-40.42 38.73V256h68.78l-11 71.69h-57.78V480H400a48 48 0 0048-48V80a48 48 0 00-48-48z"/></symbol><symbol id="icon-fa-flickr" viewBox="0 0 448 512"><path fill="currentColor" d="M400 32H48C21.5 32 0 53.5 0 80v352c0 26.5 21.5 48 48 48h352c26.5 0 48-21.5 48-48V80c0-26.5-21.5-48-48-48zM144.5 319c-35.1 0-63.5-28.4-63.5-63.5s28.4-63.5 63.5-63.5 63.5 28.4 63.5 63.5-28.4 63.5-63.5 63.5zm159 0c-35.1 0-63.5-28.4-63.5-63.5s28.4-63.5 63.5-63.5 63.5 28.4 63.5 63.5-28.4 63.5-63.5 63.5z"/></symbol><symbol id="icon-fa-linkedin" viewBox="0 0 448 512"><path fill="currentColor" d="M416 32H31.9C14.3 32 0 46.5 0 64.3v383.4C0 465.5 14.3 480 31.9 480H416c17.6 0 32-14.5 32-32.3V64.3c0-17.8-14.4-32.3-32-32.3zM135.4 416H69V202.2h66.5V416zm-33.2-243c-21.3 0-38.5-17.3-38.5-38.5S80.9 96 102.2 96c21.2 0 38.5 17.3 38.5 38.5 0 21.3-17.2 38.5-38.5 38.5zm282.1 243h-66.4V312c0-24.8-.5-56.7-34.5-56.7-34.6 0-39.9 27-39.9 54.9V416h-66.4V202.2h63.7v29.2h.9c8.9-16.8 30.6-34.5 62.9-34.5 67.2 0 79.7 44.3 79.7 101.9V416z"/></symbol><symbol id="icon-fa-menu-bars" viewBox="0 0 448 512"><path fill="currentColor" d="M16 132h416c8.837 0 16-7.163 16-16V76c0-8.837-7.163-16-16-16H16C7.163 60 0 67.163 0 76v40c0 8.837 7.163 16 16 16zm0 160h416c8.837 0 16-7.163 16-16v-40c0-8.837-7.163-16-16-16H16c-8.837 0-16 7.163-16 16v40c0 8.837 7.163 16 16 16zm0 160h416c8.837 0 16-7.163 16-16v-40c0-8.837-7.163-16-16-16H16c-8.837 0-16 7.163-16 16v40c0 8.837 7.163 16 16 16z"/></symbol><symbol id="icon-fa-rss" viewBox="0 0 448 512"><path fill="currentColor" d="M128.081 415.959c0 35.369-28.672 64.041-64.041 64.041S0 451.328 0 415.959s28.672-64.041 64.041-64.041 64.04 28.673 64.04 64.041zm175.66 47.25c-8.354-154.6-132.185-278.587-286.95-286.95C7.656 175.765 0 183.105 0 192.253v48.069c0 8.415 6.49 15.472 14.887 16.018 111.832 7.284 201.473 96.702 208.772 208.772.547 8.397 7.604 14.887 16.018 14.887h48.069c9.149.001 16.489-7.655 15.995-16.79zm144.249.288C439.596 229.677 251.465 40.445 16.503 32.01 7.473 31.686 0 38.981 0 48.016v48.068c0 8.625 6.835 15.645 15.453 15.999 191.179 7.839 344.627 161.316 352.465 352.465.353 8.618 7.373 15.453 15.999 15.453h48.068c9.034-.001 16.329-7.474 16.005-16.504z"/></symbol><symbol id="icon-fa-search" viewBox="0 0 512 512"><path fill="currentColor" d="M505 442.7L405.3 343c-4.5-4.5-10.6-7-17-7H372c27.6-35.3 44-79.7 44-128C416 93.1 322.9 0 208 0S0 93.1 0 208s93.1 208 208 208c48.3 0 92.7-16.4 128-44v16.3c0 6.4 2.5 12.5 7 17l99.7 99.7c9.4 9.4 24.6 9.4 33.9 0l28.3-28.3c9.4-9.4 9.4-24.6.1-34zM208 336c-70.7 0-128-57.2-128-128 0-70.7 57.2-128 128-128 70.7 0 128 57.2 128 128 0 70.7-57.2 128-128 128z"/></symbol><symbol id="icon-fa-translate"><path d="M11.297 13.385C9.96 14.49 8.206 15.564 5.89 16.483l-.534-1.349c2.074-.822 3.65-1.773 4.854-2.745-1.466-1.49-2.25-2.971-2.666-4.152h1.548c.395.933 1.07 2.048 2.2 3.182 2.007-2.021 2.567-3.986 2.723-4.954H4.9v-1.53h5.513V3.201h1.53v1.732h5.514v1.53H15.48c-.139 1.128-.719 3.518-3.098 5.932.258.207.536.412.829.616.292-.39.754-.647 1.278-.647h6.95c.131-.658.203-1.337.203-2.034C21.642 4.626 17.02 0 11.318 0 5.617 0 .994 4.626.994 10.331c0 5.705 4.623 10.33 10.324 10.33a10.4 10.4 0 001.57-.13v-5.987a16.843 16.843 0 01-1.591-1.16zM23.478 18.383l-1.95 5.373h3.901l-1.918-5.373h-.033z" fill="currentColor"/><path d="M31.524 13.372h-16.18c-.8 0-1.45.65-1.45 1.45v16.191c0 .801.65 1.45 1.45 1.45h16.18c.8 0 1.448-.649 1.448-1.45V14.822c0-.8-.648-1.45-1.448-1.45zM27.17 28.515l-1.256-3.469h-4.87l-1.29 3.47H18.19l4.482-11.52h1.693l4.498 11.52H27.17z" fill="currentColor"/></symbol><symbol id="icon-fa-twitter" viewBox="0 0 512 512"><path fill="currentColor" d="M459.37 151.716c.325 4.548.325 9.097.325 13.645 0 138.72-105.583 298.558-298.558 298.558-59.452 0-114.68-17.219-161.137-47.106 8.447.974 16.568 1.299 25.34 1.299 49.055 0 94.213-16.568 130.274-44.832-46.132-.975-84.792-31.188-98.112-72.772 6.498.974 12.995 1.624 19.818 1.624 9.421 0 18.843-1.3 27.614-3.573-48.081-9.747-84.143-51.98-84.143-102.985v-1.299c13.969 7.797 30.214 12.67 47.431 13.319-28.264-18.843-46.781-51.005-46.781-87.391 0-19.492 5.197-37.36 14.294-52.954 51.655 63.675 129.3 105.258 216.365 109.807-1.624-7.797-2.599-15.918-2.599-24.04 0-57.828 46.782-104.934 104.934-104.934 30.213 0 57.502 12.67 76.67 33.137 23.715-4.548 46.456-13.32 66.599-25.34-7.798 24.366-24.366 44.833-46.132 57.827 21.117-2.273 41.584-8.122 60.426-16.243-14.292 20.791-32.161 39.308-52.628 54.253z"/></symbol><symbol id="icon-fa-youtube" viewBox="0 0 576 512"><path fill="currentColor" d="M549.655 124.083c-6.281-23.65-24.787-42.276-48.284-48.597C458.781 64 288 64 288 64S117.22 64 74.629 75.486c-23.497 6.322-42.003 24.947-48.284 48.597-11.412 42.867-11.412 132.305-11.412 132.305s0 89.438 11.412 132.305c6.281 23.65 24.787 41.5 48.284 47.821C117.22 448 288 448 288 448s170.78 0 213.371-11.486c23.497-6.321 42.003-24.171 48.284-47.821 11.412-42.867 11.412-132.305 11.412-132.305s0-89.438-11.412-132.305zm-317.51 213.508V175.185l142.739 81.205-142.739 81.201z"/></symbol><symbol id="icon-line-white-alert"><g clip-path="url(#clip0)"><path fill-rule="evenodd" clip-rule="evenodd" d="M1.143 63.744C-1.92 68.617 1.531 75 7.233 75h65.533c5.701 0 9.155-6.383 6.09-11.256L46.087 8.382c-2.838-4.51-9.338-4.51-12.175 0L1.143 63.744zM36 49l-1-21h10l-1 21h-8zm9 9a5 5 0 11-10 0 5 5 0 0110 0z" fill="#fff"/></g></symbol><symbol id="icon-line-white-back-to-timeline"><path fill-rule="evenodd" clip-rule="evenodd" d="M41.556 38.89C59.768 42.437 74 56.233 74 75.5a41.01 41.01 0 01-.196 4.007A42.81 42.81 0 0079 59c0-23.748-20.252-45-44-45-.334 0-.668.004-1 .011V1L1 26l33 25V22l7.556 16.89z" fill="#fff"/></symbol><symbol id="icon-line-white-calendar-days"><path fill-rule="evenodd" clip-rule="evenodd" d="M2 30h76v37L65 80H2V30zm21.116 18.312c.16-1.11.469-2.08.928-2.912a6.927 6.927 0 011.712-2.096 7.036 7.036 0 012.367-1.264 9.358 9.358 0 012.88-.432c1.067 0 2.027.155 2.88.464.864.299 1.6.72 2.209 1.264a5.37 5.37 0 011.392 1.888c.33.725.495 1.51.495 2.352 0 .736-.085 1.387-.255 1.952a4.509 4.509 0 01-.704 1.456c-.31.416-.694.768-1.153 1.056a7.17 7.17 0 01-1.551.72c1.386.437 2.42 1.104 3.103 2 .683.896 1.025 2.021 1.025 3.376 0 1.152-.214 2.17-.64 3.056a6.65 6.65 0 01-1.729 2.24 7.595 7.595 0 01-2.528 1.36c-.949.31-1.957.464-3.023.464-1.163 0-2.177-.133-3.04-.4a6.6 6.6 0 01-2.257-1.184 7.151 7.151 0 01-1.631-1.92c-.448-.757-.832-1.632-1.152-2.624l1.744-.72c.458-.192.885-.24 1.28-.144.405.085.698.299.88.64.192.373.4.741.623 1.104.235.363.512.688.832.976.32.277.694.507 1.12.688.438.17.955.256 1.553.256.672 0 1.258-.107 1.76-.32a3.83 3.83 0 001.248-.864 3.37 3.37 0 00.752-1.168c.17-.437.256-.875.256-1.312 0-.555-.06-1.056-.176-1.504a2.241 2.241 0 00-.736-1.168c-.374-.32-.913-.57-1.616-.752-.694-.181-1.627-.272-2.8-.272v-2.816c.97-.01 1.775-.101 2.415-.272.64-.17 1.147-.405 1.52-.704.385-.31.651-.677.8-1.104.15-.427.224-.896.224-1.408 0-1.088-.303-1.915-.911-2.48-.609-.565-1.42-.848-2.433-.848-.469 0-.9.07-1.296.208a3.545 3.545 0 00-1.855 1.392c-.214.32-.374.672-.48 1.056-.182.49-.422.816-.72.976-.288.16-.7.197-1.233.112l-2.08-.368zm34.694 5.12c0 2.016-.219 3.77-.656 5.264-.427 1.483-1.024 2.71-1.792 3.68-.757.97-1.659 1.696-2.704 2.176-1.035.47-2.155.704-3.36.704s-2.325-.235-3.36-.704c-1.024-.48-1.915-1.205-2.672-2.176-.757-.97-1.35-2.197-1.776-3.68-.427-1.493-.64-3.248-.64-5.264 0-2.027.213-3.781.64-5.264.427-1.483 1.019-2.71 1.776-3.68.757-.97 1.648-1.69 2.672-2.16a7.886 7.886 0 013.36-.72c1.205 0 2.325.24 3.36.72 1.045.47 1.947 1.19 2.704 2.16.768.97 1.365 2.197 1.792 3.68.437 1.483.656 3.237.656 5.264zm-4.08 0c0-1.675-.123-3.061-.368-4.16-.245-1.099-.576-1.973-.992-2.624-.405-.65-.875-1.104-1.408-1.36a3.676 3.676 0 00-1.664-.4c-.565 0-1.115.133-1.648.4-.523.256-.987.71-1.392 1.36-.405.65-.73 1.525-.976 2.624-.235 1.099-.352 2.485-.352 4.16 0 1.675.117 3.061.352 4.16.245 1.099.57 1.973.976 2.624.405.65.87 1.11 1.392 1.376a3.767 3.767 0 003.312 0c.533-.267 1.003-.725 1.408-1.376.416-.65.747-1.525.992-2.624.245-1.099.368-2.485.368-4.16zM65 67v10h-2V65h12v2H65z" fill="#fff"/><rect x="17" y="1" width="6" height="18" rx="3" fill="#fff"/><rect x="57" y="1" width="6" height="18" rx="3" fill="#fff"/><path fill-rule="evenodd" clip-rule="evenodd" d="M2 9h13v7a5 5 0 0010 0V9h30v7a5 5 0 0010 0V9h13v17H2V9zm61 0h-6v7a3 3 0 106 0V9zm-46 7V9h6v7a3 3 0 11-6 0z" fill="#fff"/></symbol><symbol id="icon-line-white-calendar"><path fill-rule="evenodd" clip-rule="evenodd" d="M2 30h76v37L65 80H2V30zm28 13a2 2 0 11-4 0 2 2 0 014 0zM18 55a2 2 0 11-4 0 2 2 0 014 0zm47 12v10h-2V65h12v2H65zm-49 2a2 2 0 100-4 2 2 0 000 4zm12-12a2 2 0 100-4 2 2 0 000 4zm2 10a2 2 0 11-4 0 2 2 0 014 0zm10-22a2 2 0 100-4 2 2 0 000 4zm14-2a2 2 0 11-4 0 2 2 0 014 0zm-2 14a2 2 0 100-4 2 2 0 000 4zm14-14a2 2 0 11-4 0 2 2 0 014 0zm-2 14a2 2 0 100-4 2 2 0 000 4zm-24-5a3 3 0 100 6 3 3 0 000-6zm-5 3a5 5 0 1110 0 5 5 0 01-10 0z" fill="#fff"/><rect x="17" y="1" width="6" height="18" rx="3" fill="#fff"/><rect x="57" y="1" width="6" height="18" rx="3" fill="#fff"/><path fill-rule="evenodd" clip-rule="evenodd" d="M2 9h13v7a5 5 0 0010 0V9h30v7a5 5 0 0010 0V9h13v17H2V9zm61 0h-6v7a3 3 0 106 0V9zm-46 7V9h6v7a3 3 0 11-6 0z" fill="#fff"/></symbol><symbol id="icon-line-white-child-adult"><path fill-rule="evenodd" clip-rule="evenodd" d="M57 53h-7v21h6l2-14 2 14h6V53h-9z" fill="#fff"/><path d="M49 78a2 2 0 012-2h4a2 2 0 012 2v2h-8v-2zM59 78a2 2 0 012-2h4a2 2 0 012 2v2h-8v-2z" fill="#fff"/><path fill-rule="evenodd" clip-rule="evenodd" d="M52.166 37.224a7.405 7.405 0 014.883-2.212L57.038 35h3.311a11 11 0 0110.659 8.281l3.03 11.879-3.857.84L68 50.7V44h-2v7H50.038v-7h-2v2.853L41.538 48l-.5-3.5 11.128-7.276z" fill="#fff"/><path d="M52.121 28a6.002 6.002 0 0011.834 0H52.121zM64.038 26a6 6 0 00-12 0h12z" fill="#fff"/><path fill="#fff" d="M45.038 24h8v2h-8zM32 43H12v31h6l3.462-22h1L26 74h6V43zM11 78a2 2 0 012-2h4a2 2 0 012 2v2h-8v-2zM25 78a2 2 0 012-2h4a2 2 0 012 2v2h-8v-2z"/><path fill-rule="evenodd" clip-rule="evenodd" d="M19.144 18h5.212a12 12 0 0111.967 11.113L37.5 45h-3l-1-14h-2l.5 7v3H12V30.852l-.038.148H10L9 45H6l1.177-15.887A12 12 0 0119.144 18zM27.658 15.618a8 8 0 10-11.49-.102 5.967 5.967 0 01-.42-.705c-.57-1.124-.786-2.408-.786-3.81 0-.397.034-.787.097-1.166l.196-1.165 1.116.384c.974.336 2.635.602 4.334.272 1.666-.323 3.354-1.211 4.531-3.187l.641-1.076.907.863A6.983 6.983 0 0128.962 11c0 1.408-.223 2.681-.797 3.798-.148.288-.317.561-.507.82zm-6.572-4.328c1.784-.346 3.635-1.225 5.08-2.998.505.78.796 1.71.796 2.708 0 1.204-.192 2.137-.576 2.884-.378.736-.979 1.365-1.922 1.908-.462.265-1.375.468-2.44.475-1.06.007-2.025-.181-2.582-.486-.942-.515-1.537-1.138-1.91-1.875-.353-.694-.54-1.553-.566-2.632a10.98 10.98 0 004.12.016z" fill="#fff"/></symbol><symbol id="icon-line-white-choice"><path fill="#fff" d="M16 2h48v30H16zM2 56h34v22H2zM44 56h34v22H44z"/><path d="M39.742 34v10.784m0 0L17 53m22.742-8.216L64 53" stroke="#fff" stroke-width="2"/></symbol><symbol id="icon-line-white-circle-ada-services"><path fill-rule="evenodd" clip-rule="evenodd" d="M40 80c22.091 0 40-17.909 40-40S62.091 0 40 0 0 17.909 0 40s17.909 40 40 40zm5-66a5 5 0 11-10 0 5 5 0 0110 0zm-28.95 5.557a2 2 0 012.393-1.507l8.703 1.978a57.999 57.999 0 0025.708 0l8.703-1.978a2 2 0 01.886 3.9l-8.703 1.978a62.005 62.005 0 01-7.91 1.267l-.214 1.491a79.99 79.99 0 00-.773 13.517l9.054 27.165a2 2 0 01-3.794 1.264l-6.607-19.819-.35-.446a4 4 0 00-6.291 0l-.351.447-6.607 19.818a2 2 0 01-3.794-1.264l9.054-27.165a79.99 79.99 0 00-.773-13.517l-.213-1.49a62.005 62.005 0 01-7.912-1.268l-8.702-1.978a2 2 0 01-1.507-2.393z" fill="#fff"/></symbol><symbol id="icon-line-white-circle-checkmark"><path fill-rule="evenodd" clip-rule="evenodd" d="M40 80c22.091 0 40-17.909 40-40S62.091 0 40 0 0 17.909 0 40s17.909 40 40 40zm-4.917-23.264l29.24-26-6.645-7.473-25.816 22.955-10.428-9.853-6.868 7.27 13.76 13 3.332 3.147 3.425-3.045z" fill="#fff"/></symbol><symbol id="icon-line-white-circle-information"><path fill-rule="evenodd" clip-rule="evenodd" d="M40 80c22.091 0 40-17.909 40-40S62.091 0 40 0 0 17.909 0 40s17.909 40 40 40zm6-58a6 6 0 10-12 0 6 6 0 0012 0zM35 32v32h10V32H35z" fill="#fff"/></symbol><symbol id="icon-line-white-circle-person-facemask"><path fill-rule="evenodd" clip-rule="evenodd" d="M80 40c0 22.091-17.909 40-40 40S0 62.091 0 40 17.909 0 40 0s40 17.909 40 40zM61 28c0 11.598-9.402 21-21 21s-21-9.402-21-21S28.402 7 40 7s21 9.402 21 21zM40 77c13.05 0 24.521-6.756 31.109-16.96C62.119 54.316 51.447 51 40 51c-11.447 0-22.119 3.316-31.108 9.04C15.479 70.244 26.95 77 40 77z" fill="#fff"/><path fill-rule="evenodd" clip-rule="evenodd" d="M48.5 16c-.72 0-1.388.217-1.944.589l-1.112-1.662A5.479 5.479 0 0148.5 14c1.908 0 3.588.972 4.573 2.444l-1.662 1.112A3.496 3.496 0 0048.5 16zM39 25h2v-8h-2v8zm-20.504-2.868l7 4-.992 1.736-7-4 .992-1.736zm43.008 0l-7 4 .992 1.736 7-4-.992-1.736zM33 19.5a1.5 1.5 0 11-3 0 1.5 1.5 0 013 0zM48.5 21a1.5 1.5 0 100-3 1.5 1.5 0 000 3zm-14.814-4.411A3.48 3.48 0 0031.742 16a3.496 3.496 0 00-2.911 1.556l-1.662-1.112A5.496 5.496 0 0131.742 14c1.13 0 2.182.341 3.056.927l-1.112 1.662z" fill="#fff"/><path fill-rule="evenodd" clip-rule="evenodd" d="M26.067 25.293c-1.251.276-2.067 1.4-2.067 2.681v14.052c0 1.28.816 2.405 2.067 2.68C28.523 45.249 33.167 46 40 46s11.477-.752 13.933-1.293c1.251-.276 2.067-1.4 2.067-2.681V27.974c0-1.28-.816-2.405-2.067-2.68C51.477 24.751 46.833 24 40 24s-11.477.752-13.933 1.293zM32 34v-2h16v2H32zm0 4v-2h16v2H32z" fill="#fff"/></symbol><symbol id="icon-line-white-circle-person"><path fill-rule="evenodd" clip-rule="evenodd" d="M80 40c0 22.091-17.909 40-40 40S0 62.091 0 40 17.909 0 40 0s40 17.909 40 40zm-8.891 20.04C64.52 70.244 53.049 77 40 77 26.95 77 15.48 70.244 8.892 60.04 17.882 54.316 28.553 51 40 51s22.12 3.316 31.109 9.04zM40 47c11.046 0 20-8.954 20-20S51.046 7 40 7s-20 8.954-20 20 8.954 20 20 20z" fill="#fff"/></symbol><symbol id="icon-line-white-clerk-window"><g clip-path="url(#clip0)"><path d="M-47 43c0-14.912 12.088-27 27-27S7 28.088 7 43v15h-54V43zM73 43c0-14.912 12.088-27 27-27s27 12.088 27 27v15H73V43z" fill="#fff"/><path d="M13 63h54M-35 63H7M73 63h42" stroke="#fff" stroke-width="2"/><path fill-rule="evenodd" clip-rule="evenodd" d="M40 16c-14.912 0-27 12.088-27 27v15h54V43c0-14.912-12.088-27-27-27zm-6 19.917V36a6.003 6.003 0 004 5.659v2.571a8.694 8.694 0 00-2.75 1.172C36.291 46.31 37.946 47 40 47c2.056 0 3.71-.69 4.75-1.598A8.695 8.695 0 0042 44.23v-2.571a6.003 6.003 0 004-5.742 5.994 5.994 0 01-6-2.6 5.994 5.994 0 01-6 2.6zM44.53 43a10.74 10.74 0 016.182 8.975L51 56H29l.288-4.025A10.74 10.74 0 0135.47 43H32v-7a8 8 0 1116 0v7h-3.47z" fill="#fff"/></g></symbol><symbol id="icon-line-white-clock"><g clip-path="url(#clip0)"><circle cx="40" cy="40" r="37.5" stroke="#fff" stroke-width="5"/><path fill-rule="evenodd" clip-rule="evenodd" d="M39.044 7.014v11.004h1.912V7.014a32.827 32.827 0 0114.713 3.936l-2.638 4.57 1.655.955 2.637-4.568a33.17 33.17 0 0110.77 10.77l-4.568 2.637.956 1.656 4.57-2.638a32.828 32.828 0 013.936 14.712H61.982v1.912h11.005a32.828 32.828 0 01-3.937 14.713l-4.569-2.639-.956 1.656 4.568 2.637a33.169 33.169 0 01-10.77 10.77l-2.637-4.568-1.655.956 2.638 4.57a32.828 32.828 0 01-14.713 3.936V61.982h-1.912v11.005a32.828 32.828 0 01-14.712-3.937l2.638-4.569-1.656-.956-2.637 4.568a33.17 33.17 0 01-10.77-10.77l4.568-2.637-.956-1.655-4.57 2.638a32.828 32.828 0 01-3.935-14.713h11.004v-1.912H7.014a32.828 32.828 0 013.936-14.712l4.57 2.638.955-1.656-4.568-2.637a33.17 33.17 0 0110.77-10.77l2.637 4.568 1.656-.956-2.639-4.57a32.828 32.828 0 0114.713-3.935zM19.076 29.42l1.552-2.567 19.35 11.695L59.981 27l1.5 2.598L42.909 40.32l3.394 2.051-1.552 2.568-4.808-2.906-4.443 2.565L34 42l3.012-1.739-17.936-10.84z" fill="#fff"/></g></symbol><symbol id="icon-line-white-courthouse"><path fill="#fff" d="M0 74h80v6H0zM0 12h80v6H0zM3 20h20v6H3zM3 66h20v6H3zM30 20h20v6H30zM30 66h20v6H30zM57 20h20v6H57zM57 66h20v6H57z"/><path fill-rule="evenodd" clip-rule="evenodd" d="M40 0L2 8v2h76V8L40 0zM20 64V35l-6-2.571V64h6zM6 64h6V31.571L6 29v35zm41 0V35l-6-2.571V64h6zm-14 0h6V31.571L33 29v35zm27 0V29l6 2.571V64h-6zm14 0V35l-6-2.571V64h6z" fill="#fff"/></symbol><symbol id="icon-line-white-document-book"><path fill-rule="evenodd" clip-rule="evenodd" d="M61 23l6 5V6.588L74 7v60l-21.477-1.684a10 10 0 00-7.138 2.25L41 71.176V11.24c1.708-3.514 5.41-5.863 9.587-5.617l4.413.26V28l6-5zM29.413 5.623L6 7v60l21.477-1.684a10 10 0 017.138 2.25L39 71.176V11.24c-1.708-3.514-5.41-5.863-9.587-5.617z" fill="#fff"/><path fill-rule="evenodd" clip-rule="evenodd" d="M61 23l6 5V10h7v57l-2-.157-19.477-1.527a10 10 0 00-7.138 2.25L42 70.353V15.606c0-1.62-.32-3.162-.899-4.568.185-.36.39-.706.616-1.038H55v18l6-5zm-23-7.394v54.747l-3.385-2.787a10 10 0 00-7.139-2.25L8 66.843 6 67V10h32.283c.225.332.431.679.616 1.038A11.963 11.963 0 0038 15.606zm2 57.338l1.271.6 5.385-4.434a8 8 0 015.711-1.8l21.477 1.684 2.156.17V10h4v65H0V10h4v59.163l2.156-.169 21.477-1.684a8 8 0 015.711 1.8l5.385 4.434 1.271-.6z" fill="#fff"/></symbol><symbol id="icon-line-white-document-clipboard-to-do-list"><path d="M15 79h50a4 4 0 004-4V15a4 4 0 00-4-4H15a4 4 0 00-4 4v60a4 4 0 004 4z" stroke="#fff" stroke-width="2"/><path fill-rule="evenodd" clip-rule="evenodd" d="M20 15h-5v57h50V15h-5v6H20v-6zm6.707 20.707l5-5-1.414-1.414L26 33.586l-2.293-2.293-1.414 1.414 3 3 .707.707.707-.707zM35 35h22v-2H35v2zm0 10h22v-2H35v2zm22 10H35v-2h22v2zM31.707 40.707l-5 5-.707.707-.707-.707-3-3 1.414-1.414L26 43.586l4.293-4.293 1.414 1.414zM24 50h-1v8h8v-8h-7zm1 6v-4h4v4h-4z" fill="#fff"/><path fill-rule="evenodd" clip-rule="evenodd" d="M52 5h-6.083a6.002 6.002 0 00-11.834 0H28a6 6 0 00-6 6v8h36v-8a6 6 0 00-6-6zM40 8a2 2 0 100-4 2 2 0 000 4z" fill="#fff"/></symbol><symbol id="icon-line-white-document-envelope"><path fill-rule="evenodd" clip-rule="evenodd" d="M80 14H0v52h80V14zM40 43.759L6.593 19.194l-1.185 1.612 25.264 18.576-15.25 10.802 1.156 1.632L32.37 40.63l7.038 5.176.592.435.593-.435 7.038-5.175 15.791 11.185 1.156-1.632-15.25-10.802 25.264-18.576-1.184-1.612L40 43.76z" fill="#fff"/></symbol><symbol id="icon-line-white-document-newspaper"><path fill-rule="evenodd" clip-rule="evenodd" d="M13 76V0h42l15 15v57h-1v2a5 5 0 005.05 5L74 80H17a4 4 0 01-4-4zm63.948-54.96L77 20h-5v52h2V23.5a2.5 2.5 0 012.948-2.46zM54 16V3h-2v15h3v6l12-6v-2H54zm-10-4H18v6h26v-6zm4 16H34v-2h14v2zm16 0H50v-2h14v2zm-16 4H34v-2h14v2zm16 0H50v-2h14v2zm-16 4H34v-2h14v2zm16 0H50v-2h14v2zm-16 4H34v-2h14v2zm9 0h-7v-2h7v2zm-9 4H34v-2h14v2zm-16 0H18v-2h14v2zm0 4H18v-2h14v2zm16 0H34v-2h14v2zm-16 4H18v-2h14v2zm16 0H34v-2h14v2zm-25 9h36v-2H23v2zm11 5h14v-2H34v2zm30 0v-2H50v2h14zm-46 0h14v-2H18v2zm0 4h14v-2H18v2zm16 0h14v-2H34v2zm30 0v-2H50v2h14zm-46 4h14v-2H18v2zm16 0h14v-2H34v2zM19 26h-1v14h14V26H19zm1 12V28h10v10H20zm30 4h14v10H50V42zm2 2v6h10v-6H52z" fill="#fff"/><path fill-rule="evenodd" clip-rule="evenodd" d="M76.5 20a3.5 3.5 0 013.5 3.5V74a6 6 0 01-12 0v-3h2v3a4 4 0 008 0V23.5a1.5 1.5 0 00-3 0V73h-3v-2h1V23.5a3.5 3.5 0 013.5-3.5z" fill="#fff"/></symbol><symbol id="icon-line-white-hand-pay-a-fee"><path d="M6 71V41H0v30h6z" fill="#fff"/><path fill-rule="evenodd" clip-rule="evenodd" d="M46 33c8.837 0 16-7.163 16-16 0-4.928-2.227-9.335-5.73-12.27L57 4l4 4c6.627 6.627 6.627 17.373 0 24-6.627 6.627-17.373 6.627-24 0l-4-4 .73-.73A15.966 15.966 0 0046 33z" fill="#fff"/><circle cx="46" cy="17" r="16" stroke="#fff" stroke-width="2"/><path d="M50.625 11.435c-1-1.423-3.125-2.2-4.625-2.2m0 0c-1.5 0-4.5.518-4.5 3.753 0 2.588 1.625 2.718 4.5 3.753 3.25 1.165 5 1.941 5 4.141 0 2.589-2.5 4.4-5 4.4m0-16.047V6m0 19.282c-2.5 0-4.125-1.682-5-2.976m5 2.976V28" stroke="#fff" stroke-width="2" stroke-miterlimit="10" stroke-linecap="square" stroke-linejoin="round"/><path fill-rule="evenodd" clip-rule="evenodd" d="M71.17 55.998l5.16-2.21c.187-.08.364-.173.532-.277-.397-.63-.84-.99-1.286-1.202-.462-.22-.988-.31-1.576-.31a3 3 0 00-2.83 4zm-1.84.79A5 5 0 0174 50c.784-.001 1.625.117 2.434.501.684.325 1.305.822 1.833 1.526a4.008 4.008 0 00-4.033-5.897l-20.716 9.76a6.927 6.927 0 01-6.124 1.072l-12.85-3.856A26.246 26.246 0 0027.001 52v-2c2.75 0 5.484.401 8.118 1.192l7.676 2.303c-.367-.814-.476-1.73-.136-2.619.45-1.176 1.523-1.863 2.68-2.132 1.162-.27 2.522-.158 3.827.342 1.306.5 2.393 1.325 3.077 2.303.469.67.776 1.461.774 2.273a4.93 4.93 0 00-.144-6.824l-.44-.44-.039-.024a14.444 14.444 0 00-6.322-2.239l-5.392-.574a4 4 0 01-1.136-.294L28.29 38.504A19.017 19.017 0 0020.878 37c-5.044 0-8.881 2.004-12.448 5.57L8 43v22l23.172 5.611a12 12 0 007.44-.66L69.33 56.788zm-13.566-9.175c.655 1.54.74 3.29.193 4.917l15.873-7.478c-1.153-.934-2.854-1.398-4.154-.992l-11.912 3.553zm-10.897 5.494c.426.61 1.17 1.205 2.153 1.582.983.376 1.934.43 2.66.261.73-.17 1.122-.53 1.264-.9.142-.37.09-.899-.34-1.514-.426-.61-1.17-1.206-2.153-1.583-.983-.376-1.934-.43-2.66-.261-.73.17-1.122.53-1.264.9-.142.37-.09.9.34 1.515z" fill="#fff"/></symbol><symbol id="icon-line-white-hand-stamp"><path fill-rule="evenodd" clip-rule="evenodd" d="M41.493 0h-2.854c-4.66 0-8.334 3.967-7.976 8.614l.77 10.026a6.98 6.98 0 012.93-1.63l11.086-3.024a13.626 13.626 0 013.72-.48l.309-5.015C49.76 3.89 46.103 0 41.492 0zm7.553 15.505l-.966 15.7-.044-2.594a1.515 1.515 0 00-2.024-1.401l-3.685 1.316A2 2 0 0041 30.409v3.972c0 .63-.126 1.231-.355 1.778-.26.622-.971.841-1.645.841h-1c-.9 0-1.746.238-2.476.655-.752.43-1.703.666-2.33.069a4.66 4.66 0 01-.318-.336l-.035-.459c.213.047.434.071.659.071 1.933 0 3.5-1.79 3.5-4s-1.567-4-3.5-4c-.44 0-.861.093-1.25.262l-.584-7.598a4.998 4.998 0 013.223-2.725l11.087-3.024a11.627 11.627 0 013.07-.41zM29.246 23H28a4 4 0 000 8h-2a4 4 0 000 8h5.641a6.597 6.597 0 01-1.868-4.27l-.558-10.6c-.02-.381-.01-.76.031-1.13zm5.139 34L35 65h11l.532-8.643a2.011 2.011 0 01-.032-.323l-.416-24.564a1.542 1.542 0 00-3.084.026v2.885c0 .65-.094 1.28-.269 1.873-.299 1.015-.068 2.182.498 3.077.488.772.771 1.688.771 2.669v1c0 .682-.136 1.332-.383 1.924-.513 1.23-.513 2.923 0 4.152.247.592.383 1.242.383 1.924v1a5 5 0 01-5 5h-4.615z" fill="#fff"/><path fill="#fff" d="M24 77h32v3H24zM19 71a6 6 0 016-6h30a6 6 0 016 6v4H19v-4z"/><path fill-rule="evenodd" clip-rule="evenodd" d="M40.4 39.8a6.789 6.789 0 01-2.452 1.05C38.578 41.364 39 42.1 39 43c0 1.854-1.787 3-3.5 3S32 44.854 32 43c0-1.19.736-2.088 1.717-2.58A6.542 6.542 0 0131.653 39H26a4 4 0 000 8h12a4 4 0 002.4-7.2zM37 43c0-.356-.452-1-1.5-1s-1.5.644-1.5 1 .452 1 1.5 1 1.5-.644 1.5-1zM29 55h9a4 4 0 000-8h-9a4 4 0 000 8zm6.5-5c1.048 0 1.5.644 1.5 1s-.452 1-1.5 1-1.5-.644-1.5-1 .452-1 1.5-1zm3.5 1c0-1.854-1.787-3-3.5-3S32 49.146 32 51s1.787 3 3.5 3 3.5-1.146 3.5-3z" fill="#fff"/><path d="M80 55V23h-8v32h8z" fill="#fff"/><path fill-rule="evenodd" clip-rule="evenodd" d="M34.89 18.94l11.086-3.024a11.636 11.636 0 0111.819 3.564 11.637 11.637 0 005.413 3.482L70 25v26c-3.279 0-6.504.836-9.37 2.428l-.13.072a19.867 19.867 0 01-9.648 2.5H48.5L48 26.5 41 29v5.382a4.618 4.618 0 01-8.541 2.438A3.1 3.1 0 0033.5 37c1.933 0 3.5-1.79 3.5-4s-1.567-4-3.5-4c-.739 0-1.424.262-1.989.708l-.299-5.682a5 5 0 013.678-5.087zM35 33c0 1.364-.914 2-1.5 2s-1.5-.636-1.5-2c0-1.364.914-2 1.5-2s1.5.636 1.5 2zM24 27.5c0 .618.125 1.206.35 1.742.26.62.07 1.422-.457 1.84A4.99 4.99 0 0022 35c0 1.157.393 2.222 1.053 3.07.41.525.41 1.335 0 1.86a4.998 4.998 0 001.475 7.417c.652.371.998 1.295.75 2.004A4.992 4.992 0 0025 51a4 4 0 004 4h2a1 1 0 001-1v-7.78a.22.22 0 00-.22-.22.22.22 0 01-.215-.177l-1.477-7.381A.55.55 0 0029.55 38a.55.55 0 01-.549-.55V23.5a.5.5 0 00-.5-.5 4.5 4.5 0 00-4.5 4.5z" fill="#fff"/></symbol><symbol id="icon-line-white-hand-swear-in"><g clip-path="url(#clip0)" fill="#fff"><path d="M56 80H24v-8h32v8z"/><path fill-rule="evenodd" clip-rule="evenodd" d="M55.01 37.592l.255-11.242a4.462 4.462 0 013.2-1.35 4.448 4.448 0 014.206 3H62c-1.115 0-2.147.518-2.88 1.374-.73.852-1.12 1.978-1.12 3.126s.39 2.274 1.12 3.126C59.852 36.482 60.884 37 62 37h.007a33.67 33.67 0 00-.007.704v10.57A17.53 17.53 0 0157.5 60c-2.897 3.219-4.5 5.67-4.5 10H28c0-3.105-.723-6.446-2.111-9.223l-.3-.598A33.999 33.999 0 0122 44.974c0-4.19.63-25.389.89-33.546A3.543 3.543 0 0126.443 8 3.557 3.557 0 0130 11.55V7a4 4 0 018 0V4a4 4 0 018 0v2.555a3.555 3.555 0 017.108-.111l.347 11.514-.433 19.055C46.887 37.298 42 42.363 42 48.569V51h2v-2.43A9.57 9.57 0 0153.57 39a1.44 1.44 0 001.44-1.408zM62.872 30H62c-.476 0-.97.22-1.362.676-.395.461-.638 1.115-.638 1.824 0 .709.243 1.363.638 1.824.391.457.886.676 1.362.676h.108c.125-1.552.357-3.094.695-4.615.029-.129.052-.257.069-.385zM47 16v18h2v2H27v-2h2V16h2v18h6V16h2v18h6V16h2z"/><path fill-rule="evenodd" clip-rule="evenodd" d="M44.063 11a.5.5 0 01.5.5.5.5 0 00.5.5h3.084a1 1 0 01.988.842l1.878 11.736c.194 1.216 1.987 1.074 1.987-.157V6.75A3.75 3.75 0 0049.25 3c-.474 0-.932.07-1.363.201-.73.222-1.68-.158-2.056-.822A4.686 4.686 0 0041.75 0C40 0 38.474.959 37.67 2.38c-.377.663-1.327 1.043-2.057.821a4.688 4.688 0 00-6.05 4.486c0 .52-.617.84-1.1.647A4.709 4.709 0 0026.716 8a3.777 3.777 0 00-3.776 3.716l-.234 14.496c-.02 1.233 1.774 1.403 1.985.188l1.665-9.571A1 1 0 0127.34 16h3.096a1 1 0 001-1 1 1 0 011-1h5.5a1 1 0 001-1v-1a1 1 0 011-1h4.126z"/></g></symbol><symbol id="icon-line-white-hand-shake"><g clip-path="url(#clip0)" fill="#fff"><path d="M0 51V17h8v34H0zM80 51V17h-8v34h8z"/><path fill-rule="evenodd" clip-rule="evenodd" d="M70 19v30l-2 1.5v-5.077a5 5 0 00-1.124-3.158l-10.07-12.358a12.443 12.443 0 001.645-3.293l-1.901-.62a10.482 10.482 0 01-11.484 7.113 2.179 2.179 0 00-1.99.76l-1.496 1.796a13.742 13.742 0 01-7.224 4.535l-.342.085a4.198 4.198 0 01-5.185-3.562c.066.106.14.21.22.31.707.872 1.774 1.215 2.814 1.173 1.04-.042 2.124-.463 3.04-1.206.916-.743 1.552-1.716 1.808-2.725.256-1.01.14-2.124-.566-2.996-.533-.658-1.27-1.014-2.047-1.132l1.029-.77a25.846 25.846 0 007.253-8.399l-1.76-.952a23.844 23.844 0 01-6.691 7.75l-4.645 3.473a6.199 6.199 0 00-1.316 8.589 6.033 6.033 0 00-1.272.423 6 6 0 00-1.367-1.08l-.51-.294a6 6 0 00-8.196 2.196l-4 6.928a6.031 6.031 0 00-.459.991H10V19l19.685 1.905C32.795 18.194 37.644 14 43 14c5.767 0 27 5 27 5zM17.574 55.233a3.993 3.993 0 01-1.244-.465l-.532-.307a4 4 0 01-1.443-5.452l2.97-5.144c-.288.687-.42 1.403-.376 2.071.056.866.425 1.775 1.283 2.27.858.495 1.83.36 2.607-.024.785-.388 1.492-1.076 1.991-1.94.5-.865.742-1.82.685-2.695-.055-.865-.425-1.774-1.283-2.27-.858-.495-1.83-.36-2.607.024-.6.297-1.155.769-1.605 1.36l.335-.58a4 4 0 015.464-1.464l.51.295a3.982 3.982 0 011.433 1.408c.202.339.717.438 1.032.2a4.001 4.001 0 014.42-.28l1.19.687a3.991 3.991 0 011.93 2.72c.081.431.653.75 1.063.593a3.992 3.992 0 013.433.27l.557.322a3.994 3.994 0 011.972 2.989c.052.434.59.785 1.008.658a3.99 3.99 0 013.163.363l.584.337a4 4 0 011.464 5.464l-3 5.197a3.996 3.996 0 01-5.464 1.464l-.584-.337a3.988 3.988 0 01-1.865-2.437.295.295 0 00-.236-.206.308.308 0 00-.11-.002.236.236 0 00-.168.116 4.03 4.03 0 01-1.109 1.234l-.083.059a4.014 4.014 0 01-3.014.639 3.995 3.995 0 01-1.258-.468l-.558-.322a3.982 3.982 0 01-1.614-1.75c-.13-.276-.512-.466-.877-.502a1.114 1.114 0 00-.328.013.677.677 0 00-.254.104 4.017 4.017 0 01-3.035.657 3.992 3.992 0 01-1.263-.468l-1.189-.687a3.995 3.995 0 01-1.982-3.08.687.687 0 00-.613-.598.615.615 0 00-.134.002c-.104.014-.21.023-.316.029m27.63 7.797c.053-.084.106-.17.156-.257l3-5.197a6 6 0 00-2.196-8.196l-.584-.337a5.978 5.978 0 00-3.476-.785 5.98 5.98 0 00-2.667-3.225l-.557-.322a5.98 5.98 0 00-3.905-.735 5.986 5.986 0 00-1.248-1.864l.164-.041a15.742 15.742 0 008.275-5.194l1.497-1.796a.18.18 0 01.163-.062c4.056.594 8.007-.841 10.727-3.613l9.823 12.055A3 3 0 0166 45.423V56.5a3.5 3.5 0 01-5 3.163V47.521a5 5 0 00-1.263-3.322l-2.99-3.363-1.495 1.328 2.99 3.364A3 3 0 0159 47.52v11.008a3.5 3.5 0 01-5 3.134V48.586l-.293-.293-3.5-3.5-1.414 1.414L52 49.414V60.5a3.5 3.5 0 01-5.847 2.597zM31.55 32.863c.615-.498 1.292-.738 1.861-.76.57-.024.961.164 1.18.433.219.27.322.693.181 1.245-.14.552-.514 1.165-1.128 1.663-.615.498-1.292.738-1.861.761-.57.023-.962-.164-1.18-.434-.22-.27-.322-.692-.182-1.244s.515-1.166 1.13-1.664zm-12.318 13.61c-.098-.056-.26-.229-.287-.666-.028-.428.092-.995.421-1.565.33-.57.76-.958 1.145-1.148.393-.194.623-.141.721-.084.099.057.26.23.288.666.027.428-.093.995-.422 1.566-.33.57-.76.957-1.145 1.148-.392.194-.622.14-.72.084zm7.928 2.269c-.098-.057-.259-.23-.287-.667-.028-.428.092-.995.421-1.565.33-.57.76-.958 1.145-1.148.393-.194.623-.141.721-.084.099.057.26.23.288.666.027.428-.092.995-.422 1.566-.329.57-.76.957-1.145 1.148-.392.194-.622.14-.72.084zm-1.598-3.232c-.499.864-.741 1.82-.685 2.694.056.866.425 1.774 1.283 2.27.858.495 1.83.36 2.608-.024.785-.388 1.491-1.076 1.99-1.94.5-.865.742-1.82.686-2.695-.056-.865-.426-1.774-1.284-2.27-.858-.495-1.83-.36-2.607.024-.785.388-1.492 1.076-1.99 1.94zm8.527 7.232c-.1-.057-.26-.23-.288-.667-.028-.428.092-.995.421-1.565.33-.57.76-.958 1.146-1.148.392-.194.622-.141.72-.084.1.057.26.23.288.666.028.428-.092.995-.421 1.566-.33.57-.76.957-1.146 1.148-.392.194-.622.14-.72.084zM32.49 49.51c-.499.864-.741 1.82-.685 2.694.056.866.426 1.774 1.284 2.27.858.495 1.83.36 2.607-.024.785-.388 1.492-1.076 1.99-1.94.5-.865.742-1.82.686-2.695-.056-.865-.425-1.774-1.283-2.27-.858-.495-1.83-.36-2.608.024-.785.388-1.491 1.076-1.99 1.94zm8.24 6.565c.028.437.188.61.287.667.098.057.328.11.72-.084.385-.19.816-.578 1.146-1.148.33-.57.449-1.138.421-1.566-.028-.437-.189-.61-.287-.666-.099-.057-.329-.11-.721.084-.385.19-.816.577-1.145 1.148-.33.57-.45 1.137-.422 1.565zm-1.997.13c-.056-.875.187-1.83.686-2.695.499-.865 1.205-1.553 1.99-1.94.778-.385 1.75-.52 2.608-.024.858.495 1.227 1.404 1.283 2.27.056.873-.186 1.83-.685 2.694-.5.864-1.206 1.552-1.99 1.94-.778.385-1.75.52-2.608.024-.858-.495-1.228-1.404-1.284-2.27z"/></g></symbol><symbol id="icon-line-white-judge-gavel"><path fill="#fff" d="M55.447 8.071l15.556 15.557L52.62 42.012 37.062 26.456z"/><rect x="48.376" y="1" width="6" height="26" rx="2" transform="rotate(45 48.376 1)" fill="#fff"/><rect x="73.832" y="26.456" width="6" height="26" rx="2" transform="rotate(45 73.832 26.456)" fill="#fff"/><path stroke="#fff" stroke-width="2" d="M49.91 5.95l4.243 4.242-14.849 14.85-4.242-4.243zM68.296 24.334l4.243 4.243-14.85 14.85-4.242-4.244z"/><path fill-rule="evenodd" clip-rule="evenodd" d="M38.477 34.941l5.656 5.657-25.986 25.987-5.657-5.657L38.477 34.94zM8.813 63.75l-.987-.987a2 2 0 00-2.828 0l-2.584 2.584a2 2 0 000 2.828L10.9 76.66a2 2 0 002.828 0l2.583-2.583a2 2 0 000-2.828l-1.01-1.01-6.488-6.489z" fill="#fff"/><path fill="#fff" d="M45 64h30v6H45zM41 72h38v6H41z"/></symbol><symbol id="icon-line-white-jury"><path fill="#fff" d="M0 40h80v8H0z"/><path fill-rule="evenodd" clip-rule="evenodd" d="M77 50H3v22h74V50zm-51 4h-1v16h30V54H26zm1 14V56h26v12H27zm32-14h12v16H59V54zm2 2v12h8V56h-8zm-51-2H9v16h12V54H10zm1 14V56h8v12h-8zM45.86 26.403l-.209.433-.9-.434.9.435v.001l-.002.002-.002.006-.007.013a2.37 2.37 0 01-.084.155 4.89 4.89 0 01-.239.37c-.21.298-.528.686-.975 1.073C43.436 29.242 42.022 30 40 30s-3.436-.758-4.342-1.543a6.024 6.024 0 01-.975-1.072 4.89 4.89 0 01-.303-.488l-.02-.038-.006-.013-.002-.006-.002-.002c0-.001 0-.002.9-.436l-.9.434-.21-.433a9.959 9.959 0 00-3.875 5.907L29 38h22l-1.265-5.69a9.959 9.959 0 00-3.875-5.907zm-12.1-4.397a8 8 0 1112.482 0l.038-.084c.547-1.173.72-2.547.72-3.922 0-1.997-.838-3.8-2.178-5.074l-.606-.576-.674.494A5.969 5.969 0 0140 14c-1.326 0-2.55-.429-3.542-1.156l-.674-.494-.606.575A6.983 6.983 0 0033 18c0 1.375.173 2.75.72 3.922l.04.084zm3.808 4.048L37 25.23l.568.823.432-.298v-2.803l-.667-.236c-.892-.316-1.446-.877-1.8-1.638C35.16 20.281 35 19.238 35 18c0-1.148.386-2.205 1.037-3.05A7.967 7.967 0 0040 16c1.44 0 2.794-.382 3.963-1.05A4.976 4.976 0 0145 18c0 1.238-.161 2.28-.533 3.078-.354.76-.907 1.322-1.8 1.638L42 22.95V25.764l.444.297.89.596c-.089.094-.189.19-.301.288C42.439 27.46 41.477 28 40 28c-1.477 0-2.438-.54-3.032-1.055a4.165 4.165 0 01-.297-.283 91.013 91.013 0 00.737-.5l.117-.08.032-.02.008-.006.002-.002zM70 8a3 3 0 013 3v3.124c.637 1.148 1 2.47 1 3.876a7.963 7.963 0 01-1 3.876v5.493a9.95 9.95 0 012.735 4.94L77 38H55l1.265-5.69a9.96 9.96 0 013.876-5.907l.208.433.902-.434c-.902.434-.901.434-.901.435v.001l.002.002.002.006.007.013.02.038a4.89 4.89 0 00.303.488c.209.297.527.685.974 1.072C62.564 29.241 63.978 30 66 30c2.023 0 3.436-.759 4.342-1.543.447-.387.766-.775.975-1.072a4.89 4.89 0 00.323-.526l.007-.014.002-.005.001-.002v-.001s.001-.001-.9-.435l.901.434.382-.794-.739-.479c-.408-.264-.84-.553-1.17-.777L70 24.701v-.393c1.658-.886 2.154-2.502 2.602-3.957v-.002l.083-.269.403-1.297H71.73c-3.349 0-5.6-1.517-7.453-3.81l-.728-.901-.785.853-3.367 3.658-.35.38.108.507c.389 1.816.886 3.817 2.845 4.842v.39l-.123.083-.056.037a8 8 0 015.322-14.742A3.001 3.001 0 0170 8zm-2 15.659v-.708l.667-.235c.929-.329 1.318-.912 1.71-2.005-2.945-.326-5.14-1.718-6.9-3.607l-2.255 2.45c.41 1.766.857 2.719 2.111 3.162l.667.235v2.804l-.432.298L63 25.23l.568.823h-.001l-.002.002-.009.006-.03.022-.118.08a118.22 118.22 0 01-.737.499c.087.092.186.188.297.283C63.562 27.46 64.523 28 66 28s2.439-.54 3.033-1.055c.11-.096.209-.191.296-.283a114.4 114.4 0 01-.737-.5l-.117-.08-.031-.021-.008-.006-.003-.001.567-.824-.567.823-.433-.298v-2.097zM10.692 26.648a8.68 8.68 0 000 0l-.02.014c.086.092.185.188.295.283C11.561 27.46 12.523 28 14 28c1.478 0 2.439-.54 3.033-1.055.11-.095.21-.191.296-.283a3.788 3.788 0 01-.02-.014 8.68 8.68 0 010 0 102.344 102.344 0 01-.717-.485l-.117-.08-.031-.022-.008-.006-.003-.001.567-.824-.567.823-.433-.298v-2.803l.667-.236c.892-.316 1.446-.877 1.8-1.638.267-.572.425-1.271.493-2.078A6.98 6.98 0 0114 16.899 6.98 6.98 0 019.04 19c.068.807.226 1.506.493 2.078.354.76.908 1.322 1.8 1.638l.667.235v2.804l-.432.299L11 25.23l.568.823-.001.001-.002.002-.008.005-.032.022-.117.08a98.287 98.287 0 01-.716.485zM14 10a8 8 0 00-8 8v7h3.559l.318-.214.123-.084v-.386c-1.07-.544-1.81-1.382-2.28-2.394C7.173 20.75 7 19.375 7 18v-.096l.016-1.166 1.15.193a4.994 4.994 0 005.001-2.167L14 13.512l.833 1.252a4.994 4.994 0 005.001 2.167l1.15-.193.015 1.166L21 18c0 1.375-.173 2.75-.72 3.922-.47 1.012-1.21 1.85-2.28 2.395v.385l.123.084.319.214H22v-7a8 8 0 00-8-8zm5.86 16.403l-.209.433-.9-.434.9.435-.002.003-.003.006-.006.013-.02.038c-.016.03-.037.07-.064.117a4.91 4.91 0 01-.239.37c-.21.298-.528.686-.975 1.073C17.437 29.242 16.023 30 14 30c-2.023 0-3.436-.758-4.342-1.543a6.018 6.018 0 01-.975-1.072 4.87 4.87 0 01-.322-.526l-.007-.013-.003-.006v-.002l-.001-.001.9-.434-.9.433-.21-.433a9.959 9.959 0 00-3.875 5.907L3 38h22l-1.265-5.69a9.958 9.958 0 00-3.875-5.907z" fill="#fff"/></symbol><symbol id="icon-line-white-language-interpreter"><path fill-rule="evenodd" clip-rule="evenodd" d="M67 8H43v21.923h10.857L64 38v-8.077h3V8zm-11.564 7.406l1.782 4.734h-4.437l1.782-4.725c.066-.18.138-.387.216-.621.078-.24.15-.501.216-.783.15.564.297 1.029.441 1.395zM59.576 25h1.63l-5.14-12.96h-2.133L48.794 25h1.63a.67.67 0 00.45-.153.862.862 0 00.251-.333l1.08-2.862h5.58l1.08 2.862c.06.138.147.255.261.351.114.09.264.135.45.135zM13 8h24v21.923H26.143L16 38v-8.077h-3V8zm12.015 12.68c1.08-1.17 1.935-2.58 2.58-4.275H22.33c.645 1.62 1.53 3.06 2.685 4.275zm6.84-6.015v1.74h-2.16c-.81 2.22-1.905 4.035-3.285 5.535 1.545 1.185 3.435 2.07 5.715 2.58-.435.435-1.005 1.275-1.275 1.785-2.415-.615-4.365-1.62-5.94-2.955-1.635 1.305-3.57 2.28-5.85 3-.21-.465-.765-1.305-1.125-1.74 2.22-.585 4.095-1.44 5.61-2.595-1.35-1.545-2.385-3.42-3.195-5.61h-2.145v-1.74h5.88v-2.37H25.9v2.37h5.955zM73 41a3 3 0 013 3v3.124c.637 1.148 1 2.47 1 3.876a7.963 7.963 0 01-1 3.876v5.493a9.95 9.95 0 012.735 4.94L80 71H58l1.265-5.69a9.96 9.96 0 013.876-5.907l.208.433.902-.434c-.902.434-.901.434-.901.435v.001l.002.002.002.006.007.013.02.038a4.89 4.89 0 00.303.488c.209.297.527.685.974 1.072C65.564 62.242 66.978 63 69 63c2.023 0 3.436-.758 4.342-1.543.447-.387.766-.775.975-1.072a4.89 4.89 0 00.323-.526l.007-.014.002-.005.001-.002v-.001s.001-.001-.9-.435l.901.434.382-.794-.739-.479c-.408-.265-.84-.553-1.17-.778L73 57.703v-.393c1.658-.886 2.154-2.502 2.602-3.957v-.002l.083-.269.403-1.297H74.73c-3.349 0-5.6-1.517-7.453-3.81l-.728-.901-.785.853-3.367 3.658-.35.38.108.507c.389 1.816.886 3.817 2.845 4.842v.39l-.123.083-.056.037a8 8 0 015.322-14.742A3.001 3.001 0 0173 41zm-2 15.658v-.707l.667-.235c.929-.329 1.318-.912 1.71-2.005-2.945-.326-5.14-1.718-6.9-3.607l-2.255 2.45c.41 1.766.857 2.718 2.111 3.162l.667.235v2.804l-.432.298L66 58.23l.568.823h-.001l-.002.002-.009.006-.03.022-.118.08a118.22 118.22 0 01-.737.499c.087.092.186.188.296.283C66.563 60.46 67.523 61 69 61c1.477 0 2.439-.54 3.033-1.055.11-.096.209-.191.296-.283a114.4 114.4 0 01-.737-.5l-.117-.08-.031-.021-.008-.006-.003-.001.567-.824-.567.823-.433-.298v-2.097zM16.86 59.403l-.209.433-.9-.434.9.435v.001l-.002.002-.003.006-.006.013a2.37 2.37 0 01-.085.155 4.89 4.89 0 01-.238.37c-.21.298-.528.686-.975 1.073C14.436 62.242 13.022 63 11 63s-3.436-.758-4.342-1.543a6.023 6.023 0 01-.975-1.072 4.869 4.869 0 01-.322-.526l-.007-.013-.003-.005v-.003H5.35c0-.001 0-.002.9-.435l-.9.433-.21-.433a9.96 9.96 0 00-3.875 5.907L0 71h22l-1.265-5.69a9.959 9.959 0 00-3.875-5.907zm-12.1-4.397a8 8 0 1112.482 0l.038-.084c.547-1.173.72-2.547.72-3.922 0-1.997-.838-3.8-2.178-5.074l-.907-.863-.641 1.076c-1.178 1.976-2.865 2.864-4.531 3.187-1.7.33-3.36.064-4.334-.272l-1.117-.384-.195 1.164A7.04 7.04 0 004 51c0 1.375.173 2.75.72 3.922l.04.084zm3.808 4.048L8 58.23l.568.824.432-.299v-2.803l-.667-.236c-.893-.316-1.446-.877-1.8-1.638-.344-.738-.508-1.686-.53-2.805a10.98 10.98 0 004.12.017c1.785-.346 3.636-1.225 5.081-2.998.504.78.796 1.71.796 2.708 0 1.238-.162 2.28-.533 3.078-.354.76-.908 1.322-1.8 1.638l-.667.236V58.764l.444.297.89.596c-.088.094-.189.19-.301.288C13.439 60.46 12.477 61 11 61c-1.477 0-2.438-.54-3.032-1.055a4.158 4.158 0 01-.297-.283 86.127 86.127 0 00.737-.5l.117-.08.031-.02.009-.006.002-.002z" fill="#fff"/></symbol><symbol id="icon-line-white-language-translation"><path d="M57.05 32L61 28m-3.95 4L53 28m4.05 4v-7a8 8 0 00-8-8H41M22.95 48L19 52m3.95-4L27 52m-4.05-4v7a8 8 0 008 8H39" stroke="#fff" stroke-width="2"/><path fill-rule="evenodd" clip-rule="evenodd" d="M77 38H45v29h14l14 11V67h4V38zM61.436 49.406l1.782 4.734h-4.437l1.782-4.725c.066-.18.138-.387.216-.621.078-.24.15-.501.216-.783.15.564.297 1.029.441 1.395zM65.576 59h1.63l-5.14-12.96h-2.133L54.794 59h1.63a.67.67 0 00.45-.153.862.862 0 00.251-.333l1.08-2.862h5.58l1.08 2.862c.06.138.147.255.261.351.114.09.264.135.45.135zM3 3h32v29H21L7 43V32H3V3zm16.015 16.68c1.08-1.17 1.935-2.58 2.58-4.275H16.33c.645 1.62 1.53 3.06 2.685 4.275zm6.84-6.015v1.74h-2.16c-.81 2.22-1.905 4.035-3.285 5.535 1.545 1.185 3.435 2.07 5.715 2.58-.435.435-1.005 1.275-1.275 1.785-2.415-.615-4.365-1.62-5.94-2.955-1.635 1.305-3.57 2.28-5.85 3-.21-.465-.765-1.305-1.125-1.74 2.22-.585 4.095-1.44 5.61-2.595-1.35-1.545-2.385-3.42-3.195-5.61h-2.145v-1.74h5.88v-2.37H19.9v2.37h5.955z" fill="#fff"/></symbol><symbol id="icon-line-white-magnifying-glass-research-person"><g clip-path="url(#clip0)"><path fill-rule="evenodd" clip-rule="evenodd" d="M27 54c14.912 0 27-12.088 27-27S41.912 0 27 0 0 12.088 0 27s12.088 27 27 27zm22-27c0 12.15-9.85 22-22 22S5 39.15 5 27 14.85 5 27 5s22 9.85 22 22zm-22 0a8 8 0 100-16 8 8 0 000 16zm.297 2c-7.042 0-13.32 3.276-17.391 8.387C13.416 43.151 19.758 47 27 47c7.417 0 13.891-4.037 17.344-10.034C40.268 32.096 34.144 29 27.297 29z" fill="#fff"/><path d="M49 53l4-4 25 25-4 4-25-25z" fill="#fff" stroke="#fff" stroke-width="2"/><path d="M45.678 45.678L51 51" stroke="#fff" stroke-width="2"/></g></symbol><symbol id="icon-line-white-magnifying-glass-research"><g clip-path="url(#clip0)"><path fill-rule="evenodd" clip-rule="evenodd" d="M27 54c14.912 0 27-12.088 27-27S41.912 0 27 0 0 12.088 0 27s12.088 27 27 27zm0-5c12.15 0 22-9.85 22-22S39.15 5 27 5 5 14.85 5 27s9.85 22 22 22z" fill="#fff"/><path fill-rule="evenodd" clip-rule="evenodd" d="M28.707 20.707l-8 8-1.414-1.414 8-8 1.414 1.414zm-7 13l12-12-1.414-1.414-12 12 1.414 1.414zm5 1l8-8-1.414-1.414-8 8 1.414 1.414z" fill="#fff"/><path d="M49 53l4-4 25 25-4 4-25-25z" fill="#fff" stroke="#fff" stroke-width="2"/><path d="M45.678 45.678L51 51" stroke="#fff" stroke-width="2"/></g></symbol><symbol id="icon-line-white-mailbox"><path fill-rule="evenodd" clip-rule="evenodd" d="M60 21H17C7.611 21 0 28.611 0 38v42h80V38c0-8.365-6.042-15.32-14-16.736V50h-6V21zM2 38c0-8.284 6.716-15 15-15h2c8.284 0 15 6.716 15 15v40H2V38z" fill="#fff"/><path fill="#fff" d="M64 0h16v14H64z"/><path fill-rule="evenodd" clip-rule="evenodd" d="M32 44H8v32h24V65.568l-.245.202-.637.528-.638-.528-4.937-4.087-4.903 4.085-1.28-1.536 4.616-3.847-11.614-9.615 1.276-1.54 17.48 14.472.882-.73V44z" fill="#fff"/><path fill="#fff" d="M60 0h4v48h-4z"/></symbol><symbol id="icon-line-white-paper-copy"><path d="M20 72v7h50V9h-7" stroke="#fff" stroke-width="2" stroke-dasharray="6 2"/><path fill-rule="evenodd" clip-rule="evenodd" d="M12 71h50V1H28L12 17v54zm18-52V4h2v17h-2v7l-15-7v-2h15z" fill="#fff"/></symbol><symbol id="icon-line-white-paper-declaration"><g clip-path="url(#clip0)"><path fill-rule="evenodd" clip-rule="evenodd" d="M71 80H11V20.513L31.69 0H71v13.862l-1.351-1.399-.695-.719-.72.695L42.35 37.458l-.72.694-5.04 8.992-8.965 3.273-.373.136-.178.355-6.645 13.27-.318.633.493.51 4.276 4.425.493.509.555-.255H71v10zM52.749 49.657l-9.158 4.732-3.577 8.847-.107.264H71V37.581l-3.966 3.833-2.877 2.78-.719.695-.695-.719-2.084-2.157 1.438-1.39 1.39 1.438 1.438-1.39-1.39-1.438 1.438-1.39 1.39 1.438L71 34.8v-2.782L53.468 48.962l-.72.695zm18.16-20.333l-8.486-8.487-17.965 17.364 8.339 8.628L70.91 29.324zM71 26.586V16.74l-2.094-2.167-5.045 4.874L71 26.586zM33 22V3h2v21h-3v9l-18-9v-2h19zm-4.316 30.16l8.267-3.02 4.657 4.818-3.3 8.16-12.483 5.728-.95-.984 6.593-6.373a3.001 3.001 0 003.497-4.77 3 3 0 00-4.886 3.332l-6.595 6.373-.95-.984 6.15-12.28z" fill="#fff"/><path fill-rule="evenodd" clip-rule="evenodd" d="M77.292 23.141l-8.34-8.628-5.097 4.927 8.486 8.487 4.951-4.786zm-6.39 6.176l-8.486-8.487-18.415 17.798 8.339 8.629 18.563-17.94z" fill="#fff"/><g clip-path="url(#clip1)"><path d="M74.32 28.809l2.086 2.157-10.067 9.73m0 0l-2.085-2.158m2.085 2.157l-2.877 2.78-2.084-2.157" stroke="#fff" stroke-width="2"/></g></g></symbol><symbol id="icon-line-white-paper-form-blank"><g clip-path="url(#clip0)"><path fill-rule="evenodd" clip-rule="evenodd" d="M11 80h60V0H31.69L11 20.513V80zm22-58V3h2v21h-3v9l-18-9v-2h19z" fill="#fff"/></g></symbol><symbol id="icon-line-white-paper-form"><g clip-path="url(#clip0)"><path fill-rule="evenodd" clip-rule="evenodd" d="M11 80h60V0H31.69L11 20.513V80zM33 3v19H14v2l18 9v-9h3V3h-2zm29 33H18v-2h44v2zm-44 8h44v-2H18v2zm44 8H18v-2h44v2zM32 71h30v-2H32v2zm13.126-11.292a2.72 2.72 0 114.438 3.14l-1.05 1.4c.514.427 1.309.373 1.752-.18l.324-.406a2.7 2.7 0 014.453.347l.497.87a.746.746 0 001.062.251 2.747 2.747 0 012.752-.171l.23.115c.166.083.348.126.533.126H62v2h-1.883a3.19 3.19 0 01-1.427-.337l-.23-.115a.746.746 0 00-.749.046 2.746 2.746 0 01-3.907-.922l-.498-.87a.699.699 0 00-1.155-.09l-.324.405a3.237 3.237 0 01-4.774.307 4.405 4.405 0 01-5.334-.69l-.426-.427 1.414-1.414.426.426c.738.738 1.82.887 2.7.486l-.711-.994a2.834 2.834 0 01-.052-3.219l.056-.084zm2.143 2.867l.695-.927a.72.72 0 10-1.174-.83l-.056.084a.834.834 0 00.015.947l.52.726zm-14.976-.868l1.793 1.793-1.793 1.793 1.414 1.414 1.793-1.793 1.793 1.793 1.414-1.414-1.793-1.793 1.793-1.793-1.414-1.414-1.793 1.793-1.793-1.793-1.414 1.414zM42 8h20v20H42V8zm2 2v16h16V10H44z" fill="#fff"/></g></symbol><symbol id="icon-line-white-paper-forms"><path fill-rule="evenodd" clip-rule="evenodd" d="M12 17v55h54V0H29L12 17zM32 4v16H16v2l15 7v-7h3V4h-2zm27 30H17v-2h42v2zm-42 8h42v-2H17v2zm42 8H17v-2h42v2zM29 68h30v-2H29v2zm13.126-11.292a2.72 2.72 0 114.438 3.14l-1.05 1.4c.514.427 1.309.373 1.752-.18l.324-.406a2.7 2.7 0 014.453.347l.497.87a.746.746 0 001.062.251 2.747 2.747 0 012.752-.171l.23.115c.166.083.348.126.533.126H59v2h-1.883a3.19 3.19 0 01-1.427-.337l-.23-.115a.746.746 0 00-.749.046 2.746 2.746 0 01-3.907-.922l-.498-.87a.7.7 0 00-1.155-.09l-.324.405a3.237 3.237 0 01-4.774.307 4.405 4.405 0 01-5.334-.69l-.426-.427 1.414-1.414.426.426c.738.738 1.82.887 2.7.486l-.711-.994a2.834 2.834 0 01-.052-3.219l.056-.084zm2.143 2.867l.695-.927a.72.72 0 10-1.174-.83l-.056.084a.834.834 0 00.015.947l.52.726zm-14.976-.868l1.793 1.793-1.793 1.793 1.414 1.414 1.793-1.793 1.793 1.793 1.414-1.414-1.793-1.793 1.793-1.793-1.414-1.414-1.793 1.793-1.793-1.793-1.414 1.414zM39 6h20v20H39V6zm2 2v16h16V8H41z" fill="#fff"/><path d="M16 76h54V2h-2v72H16v2z" fill="#fff"/><path d="M20 80h54V6h-2v72H20v2z" fill="#fff"/></symbol><symbol id="icon-line-white-paper-hand-papers"><g clip-path="url(#clip0)" fill="#fff"><path fill-rule="evenodd" clip-rule="evenodd" d="M13 29c0 .982-.406 1.909-1 2.504V17.69c.323.266.656.518 1 .755V29zm17.976-12h-16.54a12.469 12.469 0 01-1.34-1H29.64l1.337 1zm3.34 0h6.362a10.487 10.487 0 00-.272-1h-7.428l1.337 1zm-4.012-3h9.24C36.857 9.004 30.614 5 25 5H7v23.629c.455.328.841.773 1.165 1.313l.67 1.116c.125.21.29.404.485.584.22.204.45.344.68.429V15.68c-.294-.36-.572-.735-.832-1.126L10 14l.832-.555c.126.19.257.374.392.555h15.962A20.48 20.48 0 0123.5 9.34l1.732-1a18.48 18.48 0 004.936 5.558l.136.102z"/><path fill-rule="evenodd" clip-rule="evenodd" d="M11.224 14h15.962a20.49 20.49 0 001.784 1.5l.669.5H13.096c-.69-.59-1.319-1.26-1.872-2z"/><path d="M0 31V2h5v29H0z"/><path fill-rule="evenodd" clip-rule="evenodd" d="M12 17.7a14.475 14.475 0 009.25 3.342h.201a.42.42 0 01.297.123l1.26 1.26a17.968 17.968 0 008.349 4.727l1.456.364a4.844 4.844 0 004.415-1.099c2.27-2.043 2.107-5.65-.339-7.48L32.961 16H50l18 18v28.31A14.474 14.474 0 0058.788 59h-.2a.42.42 0 01-.297-.123l-1.26-1.26a17.968 17.968 0 00-8.348-4.727l-1.457-.364a4.844 4.844 0 00-4.415 1.099c-2.27 2.043-2.106 5.65.34 7.48L47.02 64H12V17.7zm1.087-1.7h16.535l1.29.965a2.715 2.715 0 00-1.13.82c-.692.854-.733 1.95-.443 2.904.292.962.942 1.895 1.841 2.624.9.73 1.947 1.173 2.948 1.26.899.078 1.855-.133 2.541-.805a2.844 2.844 0 01-3.372 1.808l-1.455-.364a15.968 15.968 0 01-7.419-4.2l-1.26-1.261a2.42 2.42 0 00-1.712-.709h-.2A12.475 12.475 0 0113.087 16zm19.271 2.745c.553.048 1.23.309 1.861.82.631.512 1.027 1.122 1.188 1.652.163.537.065.88-.083 1.063-.148.182-.463.35-1.023.3-.552-.048-1.23-.308-1.86-.82-.632-.512-1.027-1.121-1.188-1.652-.163-.537-.065-.88.082-1.062.148-.183.464-.35 1.023-.3zM58.788 61c3.014 0 5.883 1.088 8.115 3H50.361l-1.234-.923a2.715 2.715 0 001.13-.82c.692-.854.733-1.95.443-2.904-.292-.962-.942-1.895-1.841-2.624-.9-.73-1.947-1.173-2.948-1.26-.899-.078-1.855.133-2.541.805a2.844 2.844 0 013.372-1.808l1.455.364a15.968 15.968 0 017.419 4.2l1.26 1.261a2.42 2.42 0 001.712.709h.2zM22 33v26h2V33h-2zm11.292 11.126a2.72 2.72 0 11-3.14 4.438l-1.4-1.05a1.236 1.236 0 00.18 1.752l.278.221a2.87 2.87 0 01.114 4.385l-.19.168A3.38 3.38 0 0028 56.567V59h-2v-2.433c0-1.537.657-3 1.806-4.021l.189-.168a.87.87 0 00-.035-1.329l-.277-.222a3.237 3.237 0 01-.307-4.774 4.405 4.405 0 01.69-5.334l.427-.426 1.414 1.414-.426.426a2.403 2.403 0 00-.486 2.7l.994-.711a2.834 2.834 0 013.219-.052l.084.056zm-2.867 2.143l.927.695a.72.72 0 10.83-1.174l-.084-.056a.834.834 0 00-.947.015l-.726.52zm.868-12.976L29.5 35.086l-1.793-1.793-1.414 1.414 1.793 1.793-1.793 1.793 1.414 1.414 1.793-1.793 1.793 1.793 1.414-1.414-1.793-1.793 1.793-1.793-1.414-1.414zM50 34V19h-2v17h2v7l15-7v-2H50zm-4.18 26.476c.63.512 1.309.773 1.86.82.56.05.876-.117 1.024-.3.147-.182.245-.525.082-1.062-.16-.53-.556-1.14-1.187-1.652s-1.309-.772-1.861-.82c-.56-.05-.875.118-1.023.3-.148.182-.246.526-.083 1.063.161.53.557 1.14 1.188 1.651z"/><path fill-rule="evenodd" clip-rule="evenodd" d="M67 51c0-.982.406-1.909 1-2.504V62.31a14.468 14.468 0 00-1-.755V51zM49.024 63h16.54c.467.302.915.636 1.34 1H50.36l-1.337-1zm-3.34 0h-6.362c.073.335.164.669.272 1h7.428l-1.337-1zm4.012 3h-9.24c2.688 4.996 8.931 9 14.544 9h18V51.371c-.455-.328-.841-.773-1.165-1.313l-.67-1.116a2.681 2.681 0 00-.485-.584 2.054 2.054 0 00-.68-.429v16.39c.294.36.572.735.832 1.126L70 66l-.832.555a12.497 12.497 0 00-.392-.555H52.814a20.48 20.48 0 013.686 4.66l-1.732 1a18.48 18.48 0 00-4.936-5.558L49.696 66z"/><path fill-rule="evenodd" clip-rule="evenodd" d="M68.776 66H52.814a20.47 20.47 0 00-1.784-1.5l-.669-.5h16.543c.69.59 1.319 1.26 1.872 2z"/><path d="M80 49v29h-5V49h5z"/></g></symbol><symbol id="icon-line-white-paper-ordering-of-papers"><g clip-path="url(#clip0)" fill="#fff"><path d="M17 71h46V9h-7v55H17v7z"/><path d="M26 80h46V18h-7v55H26v7z"/><path fill-rule="evenodd" clip-rule="evenodd" d="M54 62H8V17L25 0h29v62zM10 17h15V2h2v17h-2v7l-15-7v-2zm26.094 20.335V39h-7.2v-1.665h2.637v-7.587c0-.3.01-.609.027-.927l-1.872 1.566a.823.823 0 01-.324.162.783.783 0 01-.54-.09.572.572 0 01-.162-.153l-.702-.963 3.97-3.375h1.826v11.367h2.34z"/></g></symbol><symbol id="icon-line-white-paper-posting"><g clip-path="url(#clip0)" fill="#fff"><path fill-rule="evenodd" clip-rule="evenodd" d="M64.882 10h.89L68 12.228v6.076c-1.384.904-3.579.459-5.171-1.134-1.763-1.763-2.12-4.264-.798-5.586L64.882 10zm-4.072 0a2 2 0 00-.194.17c-1.206 1.206-1.535 2.845-1.323 4.325.211 1.479.964 2.932 2.121 4.09 1.158 1.157 2.611 1.91 4.09 2.12a5.503 5.503 0 002.496-.2v6.48c-2.401.153-5.296-.823-7.978-2.767l.978-.603L56.385 19l-.602.978c-2.525-3.483-3.418-7.325-2.322-9.978h7.349zM14 10h37.342c-.47 1.614-.426 3.397-.031 5.108.519 2.25 1.672 4.573 3.347 6.698l-5.303 8.616c-.235.19-.355.384-.355.578 0 .394.492.784 1.446 1.148.955.364 2.355.695 4.119.973 1.764.279 3.859.5 6.164.65 2.305.151 4.776.229 7.271.229v42a4 4 0 01-4 4H13a4 4 0 01-4-4v-7h49v4a5 5 0 005 5v-2a3 3 0 01-3-3v-6H14V10zm44.194 15.342c1.53 1.206 3.162 2.141 4.795 2.764-.767.033-1.522.074-2.26.122-2.305.151-4.4.372-6.164.65-1.272.202-2.355.43-3.218.678l6.847-4.214zM21 19h18v18H21V19zm2 2v14h14V21H23zm-2 22h40v-2H21v2zm40 6H21v-2h40v2zm-40 6h27v-2H21v2z"/><path fill-rule="evenodd" clip-rule="evenodd" d="M60.616 10.17a2 2 0 01.443-.334l2.687-1.493c-3.508-1.656-7.242-1.934-9.213.038-2.95 2.949-1.515 9.164 3.203 13.883 4.719 4.718 10.934 6.152 13.883 3.203 1.972-1.972 1.694-5.707.037-9.215l-1.493 2.687a2 2 0 01-.334.443c-1.206 1.206-2.845 1.535-4.325 1.324-1.479-.211-2.932-.964-4.09-2.122-1.157-1.157-1.91-2.61-2.121-4.09-.212-1.479.117-3.118 1.323-4.324zm4.838-.488l4.863 4.862-1.903 3.424c-1.322 1.322-3.823.965-5.585-.798-1.763-1.763-2.12-4.264-.798-5.586l3.423-1.902z"/><ellipse rx="6.685" ry="4.011" transform="scale(-1 1) rotate(-45 -28.796 91.927)"/><path fill-rule="evenodd" clip-rule="evenodd" d="M69.161 7.623l.051-.029 3.192 3.192-.028.052c-.61-.393-1.211-.875-1.775-1.44a10.754 10.754 0 01-1.44-1.775zm-1.751.973c.49.779 1.087 1.528 1.776 2.217a12.731 12.731 0 002.217 1.776l-2.989 5.38c-1.322 1.321-3.823.964-5.585-.799-1.763-1.763-2.12-4.264-.798-5.586l5.379-2.988z"/></g></symbol><symbol id="icon-line-white-paper-traffic-ticket"><path fill-rule="evenodd" clip-rule="evenodd" d="M19 15v65h44V0H34L19 15zm16 1V3h2v15h-3v6l-12-6v-2h13zm22.054-4.905L55.19 5h-9.143l-1.863 6.095h-1.947v7.62h2.286V21h3.52v-2.286h5.15V21h3.52v-2.286H59v-7.619h-1.946zM46.048 16.43a1.524 1.524 0 100-3.048 1.524 1.524 0 000 3.048zm9.142 0a1.524 1.524 0 100-3.048 1.524 1.524 0 000 3.048zM23 32h4v2h-2v7h2v2h-4V32zm34 2H39v-2h20v11H39v-2h18v-7zM26 63h-1v6h18v-6H26zm1 4v-2h14v2H27zm14-7H25v-2h16v2zm16 3v13h2V63h-2zM32 32.01V30h2v2.033c.303.07.608.17.898.296.614.267 1.253.689 1.691 1.302l-1.628 1.161c-.163-.227-.46-.455-.86-.628A2.928 2.928 0 0033 33.912c-.37 0-.849.068-1.198.264-.276.155-.502.391-.502.953 0 .28.045.403.07.451.018.037.05.084.163.154.13.082.326.167.648.28.14.049.29.098.458.154h.001l.064.022c.192.064.404.134.63.214h-.001l-.333.943.334-.942c.943.332 1.837.662 2.48 1.124.342.245.651.552.87.953.22.405.316.846.316 1.312 0 1.861-1.453 3.097-3 3.476V45h-2v-1.724c-1.414-.343-2.335-1.362-2.824-2.075l1.648-1.132c.454.66 1.167 1.325 2.176 1.325 1.148 0 2-.803 2-1.6a.714.714 0 00-.073-.355.89.89 0 00-.279-.285c-.369-.265-.975-.509-1.98-.864h-.002a29.932 29.932 0 00-.592-.202l-.064-.021c-.166-.055-.333-.11-.49-.166-.346-.121-.718-.265-1.046-.47a2.374 2.374 0 01-.885-.941c-.212-.416-.289-.876-.289-1.36 0-1.35.674-2.222 1.523-2.699A4.011 4.011 0 0132 32.01z" fill="#fff"/></symbol><symbol id="icon-line-white-paper-folder"><rect y="24" width="80" height="50" rx="4" fill="#fff"/><path fill-rule="evenodd" clip-rule="evenodd" d="M78 17v5h-4v-5H6v5H2V11a4 4 0 014-4h13.667a4 4 0 012.4.8l5.866 4.4a4 4 0 002.4.8H74a4 4 0 014 4zM8 22h64v-3H8v3z" fill="#fff"/></symbol><symbol id="icon-line-white-paper-gather-documents"><path fill-rule="evenodd" clip-rule="evenodd" d="M22.905 7.429l-.838-.629a4 4 0 00-2.4-.8H6a4 4 0 00-4 4v3.03L22.905 7.43zm2.034 1.525L3.386 14.73 2 15.101v2.183l2 7.464V18a4 4 0 014-4h16.5v-2h2v2h3.608l-.557-2.077a4 4 0 01-1.618-.723L24.94 8.954zM31.642 12l.536 2H49v-2H31.642zM4 32.476l-2-7.464V39h2v-6.524zM78 39V16a4 4 0 00-4-4H51v2h21a4 4 0 014 4v21h2z" fill="#fff"/><path fill-rule="evenodd" clip-rule="evenodd" d="M74 39H38V11l8-8h28v36zM49 15h-7v2h9V8h-2v7zm6.126 9.708a2.72 2.72 0 114.438 3.14l-1.05 1.4c.514.427 1.309.373 1.752-.18l.221-.278a2.87 2.87 0 014.385-.114l.168.19A3.38 3.38 0 0067.567 30H70v2h-2.433c-1.537 0-3-.657-4.021-1.806l-.168-.189a.87.87 0 00-1.329.035l-.222.277a3.237 3.237 0 01-4.774.307 4.405 4.405 0 01-5.334-.69l-.426-.427 1.414-1.414.426.426c.738.738 1.82.887 2.7.486l-.711-.994a2.834 2.834 0 01-.052-3.219l.056-.084zm2.143 2.867l.695-.927a.72.72 0 10-1.174-.83l-.056.084a.834.834 0 00.015.947l.52.726zM70 37H44v-2h26v2zM44.293 26.707l1.793 1.793-1.793 1.793 1.414 1.414 1.793-1.793 1.793 1.793 1.414-1.414-1.793-1.793 1.793-1.793-1.414-1.414-1.793 1.793-1.793-1.793-1.414 1.414zM1.454 15.247L28.5 8l8.306 31H25.243l-5.732-4.669 7.642-20.076-1.87-.712-5.5 14.453-7.302-6.823-1.365 1.461 7.898 7.381-1.629 4.28-.257.675.56.456 3.55 2.891-.208.683H7.82L1.454 15.247z" fill="#fff"/><path d="M.372 45.342A4 4 0 014.358 41h71.159a4 4 0 013.974 4.454l-3.086 27A4 4 0 0172.431 76H6.671a4 4 0 01-3.985-3.658l-2.314-27z" fill="#fff"/></symbol><symbol id="icon-line-white-paper-signed"><g clip-path="url(#clip0)"><path fill-rule="evenodd" clip-rule="evenodd" d="M11 80h60V0H31.69L11 20.513V80zM33 3v19H14v2l18 9v-9h3V3h-2zm30 53H19v-2h44v2zM39.486 37.425a4.342 4.342 0 00-5.554 1.475l-.042.062a4.427 4.427 0 00-.246 4.494l2.552 4.92c-1.76 1.195-4.431.574-5.255-1.715l-1.882.678c1.316 3.655 5.63 4.606 8.394 2.605 2.263 1.86 5.909 1.38 7.456-1.47l.753-1.387a1.564 1.564 0 012.733-.03l.962 1.684a3.962 3.962 0 005.638 1.33c.63-.42 1.448-.44 2.098-.05l.48.288c.752.452 1.614.691 2.492.691H63v-2h-2.935c-.516 0-1.022-.14-1.464-.406l-.48-.287a3.962 3.962 0 00-4.235.1 1.962 1.962 0 01-2.792-.658l-.962-1.684a3.565 3.565 0 00-6.227.068l-.754 1.387c-.894 1.648-2.97 1.961-4.32.959.12-.186.23-.383.332-.59l2.283-4.675a4.342 4.342 0 00-1.96-5.79zm.163 4.911l-2.101 4.302-2.129-4.103a2.427 2.427 0 01.135-2.463l.042-.063a2.342 2.342 0 014.053 2.327zM21.085 47.5l-1.793-1.793 1.414-1.414 1.793 1.793 1.793-1.793 1.414 1.414-1.793 1.793 1.793 1.793-1.414 1.414-1.793-1.793-1.793 1.793-1.414-1.414 1.793-1.793z" fill="#fff"/></g></symbol><symbol id="icon-line-white-phone-web-form"><path fill="#fff" d="M23 19h34v6H23zM23 31h34v6H23zM23 43h34v6H23z"/><rect width="18" height="6" rx="1" transform="matrix(1 0 0 -1 31 61)" fill="#fff"/><path fill-rule="evenodd" clip-rule="evenodd" d="M22 0h36a6 6 0 016 6v6H16V6a6 6 0 016-6zm42 74a6 6 0 01-6 6H22a6 6 0 01-6-6v-4h48v4zM40 8a2 2 0 100-4 2 2 0 000 4z" fill="#fff"/><path stroke="#fff" stroke-width="2" d="M17 11h46v60H17z"/></symbol><symbol id="icon-line-white-phone"><path fill-rule="evenodd" clip-rule="evenodd" d="M22 0h36a6 6 0 016 6v6H16V6a6 6 0 016-6zm42 74a6 6 0 01-6 6H22a6 6 0 01-6-6v-4h48v4zM40 8a2 2 0 100-4 2 2 0 000 4z" fill="#fff"/><path stroke="#fff" stroke-width="2" d="M17 11h46v60H17z"/><path fill-rule="evenodd" clip-rule="evenodd" d="M40 54c7.732 0 14-6.268 14-14s-6.268-14-14-14-14 6.268-14 14 6.268 14 14 14zm7.479-10.015l-2.239-2.239c-.572-.572-1.485-.588-2.039-.034a.922.922 0 00-.245.442l-.235 1.007c-.2.855-1.196 1.031-1.832.395l-4.445-4.445c-.636-.636-.46-1.631.395-1.832l1.007-.235a.922.922 0 00.442-.245c.554-.554.538-1.467-.034-2.04l-2.239-2.238c-.678-.678-1.76-.697-2.415-.041-2.186 2.186-2.124 5.79.137 8.052l5.731 5.731c2.261 2.261 5.866 2.323 8.052.137.656-.655.637-1.737-.041-2.415z" fill="#fff"/></symbol><symbol id="icon-line-white-self-help"><path fill-rule="evenodd" clip-rule="evenodd" d="M13 8h24v21.923H26.143L16.429 38v-8.077H13V8zm8.768 4.854a7.46 7.46 0 00-.768.54l.674.977c.111.19.291.285.54.285a.723.723 0 00.353-.114c.131-.082.29-.17.477-.266a3.63 3.63 0 011.702-.389c.27 0 .519.035.747.105.235.07.436.17.602.303.166.127.294.282.384.465.096.177.145.38.145.607 0 .354-.083.661-.25.92-.158.253-.359.484-.601.693a7.607 7.607 0 01-.778.569c-.277.17-.53.35-.758.54a2.456 2.456 0 00-.54.617c-.13.221-.176.48-.134.778l.176 1.546h1.754l.239-1.385a.94.94 0 01.31-.54c.18-.165.392-.33.634-.494l.768-.54c.276-.19.529-.415.757-.674.228-.26.418-.563.57-.91.153-.355.229-.772.229-1.253 0-.493-.097-.939-.29-1.337a2.885 2.885 0 00-.82-1.015 3.75 3.75 0 00-1.277-.654A5.54 5.54 0 0024.974 12c-.443 0-.854.038-1.235.114a5.786 5.786 0 00-1.971.74zm1.307 11.164a1.402 1.402 0 00-.114.56c0 .202.038.391.114.568.083.171.194.32.332.446.139.127.305.225.498.294.194.076.401.114.623.114.221 0 .425-.038.612-.114.194-.07.36-.167.498-.294a1.322 1.322 0 00.467-1.015 1.365 1.365 0 00-.467-1.015 1.588 1.588 0 00-.498-.303 1.611 1.611 0 00-.612-.114c-.221 0-.429.038-.623.114-.193.076-.36.177-.498.303-.138.127-.249.279-.332.456zM67 8H43v21.923h10.857L63.571 38v-8.077H67V8zm-11.568 4.742a.5.5 0 00-.864 0l-1.72 2.953a.5.5 0 01-.326.237l-3.34.723a.5.5 0 00-.267.822l2.277 2.548a.5.5 0 01.124.384l-.344 3.4a.5.5 0 00.7.508l3.126-1.378a.5.5 0 01.404 0l3.127 1.378a.5.5 0 00.699-.508l-.344-3.4a.5.5 0 01.124-.384l2.277-2.548a.5.5 0 00-.267-.822l-3.34-.723a.5.5 0 01-.326-.237l-1.72-2.953zM73 41a3 3 0 013 3v3.124c.637 1.148 1 2.47 1 3.876a7.963 7.963 0 01-1 3.876v5.493a9.95 9.95 0 012.735 4.94L80 71H58l1.265-5.69a9.96 9.96 0 013.876-5.907l.208.433.902-.434c-.902.434-.901.434-.901.435v.001l.002.002.002.006.007.013.02.038a4.89 4.89 0 00.303.488c.209.297.527.685.974 1.072C65.564 62.242 66.978 63 69 63c2.023 0 3.436-.758 4.342-1.543.447-.387.766-.775.975-1.072a4.89 4.89 0 00.323-.526l.007-.014.002-.005.001-.002v-.001s.001-.001-.9-.435l.901.434.382-.794-.739-.479c-.408-.265-.84-.553-1.17-.778L73 57.703v-.393c1.658-.886 2.154-2.502 2.602-3.957v-.002l.083-.269.403-1.297H74.73c-3.349 0-5.6-1.517-7.453-3.81l-.728-.901-.785.853-3.367 3.658-.35.38.108.507c.389 1.816.886 3.817 2.845 4.842v.39l-.123.083-.056.037a8 8 0 015.322-14.742A3.001 3.001 0 0173 41zm-2 15.658v-.707l.667-.235c.929-.329 1.318-.912 1.71-2.005-2.945-.326-5.14-1.718-6.9-3.607l-2.255 2.45c.41 1.766.857 2.718 2.111 3.162l.667.235v2.804l-.432.298L66 58.23l.568.823h-.001l-.002.002-.009.006-.03.022-.118.08a118.22 118.22 0 01-.737.499c.087.092.186.188.296.283C66.563 60.46 67.523 61 69 61c1.477 0 2.439-.54 3.033-1.055.11-.096.209-.191.296-.283a114.4 114.4 0 01-.737-.5l-.117-.08-.031-.021-.008-.006-.003-.001.567-.824-.567.823-.433-.298v-2.097zM16.86 59.403l-.209.433-.9-.434.9.435v.001l-.002.002-.003.006-.006.013a2.37 2.37 0 01-.085.155 4.89 4.89 0 01-.238.37c-.21.298-.528.686-.975 1.073C14.436 62.242 13.022 63 11 63s-3.436-.758-4.342-1.543a6.023 6.023 0 01-.975-1.072 4.869 4.869 0 01-.322-.526l-.007-.013-.003-.005v-.003H5.35c0-.001 0-.002.9-.435l-.9.433-.21-.433a9.96 9.96 0 00-3.875 5.907L0 71h22l-1.265-5.69a9.959 9.959 0 00-3.875-5.907zm-12.1-4.397a8 8 0 1112.482 0l.038-.084c.547-1.173.72-2.547.72-3.922 0-1.997-.838-3.8-2.178-5.074l-.907-.863-.641 1.076c-1.178 1.976-2.865 2.864-4.531 3.187-1.7.33-3.36.064-4.334-.272l-1.117-.384-.195 1.164A7.04 7.04 0 004 51c0 1.375.173 2.75.72 3.922l.04.084zm3.808 4.048L8 58.23l.568.824.432-.299v-2.803l-.667-.236c-.893-.316-1.446-.877-1.8-1.638-.344-.738-.508-1.686-.53-2.805a10.98 10.98 0 004.12.017c1.785-.346 3.636-1.225 5.081-2.998.504.78.796 1.71.796 2.708 0 1.238-.162 2.28-.533 3.078-.354.76-.908 1.322-1.8 1.638l-.667.236V58.764l.444.297.89.596c-.088.094-.189.19-.301.288C13.439 60.46 12.477 61 11 61c-1.477 0-2.438-.54-3.032-1.055a4.158 4.158 0 01-.297-.283 86.127 86.127 0 00.737-.5l.117-.08.031-.02.009-.006.002-.002z" fill="#fff"/></symbol><symbol id="icon-line-white-signature"><path d="M18 22c.109 3.056 1.848 15.828 1.848 18.884 0 3.602.435 8.514-.218 12.116m4.348-15.828c.177 3.458-1.209 7.726-3.992 9.934 1.195-.546 3.775-2.511 5.188-2.184 2.174.437 1.304 4.258 2.826 5.13M31 50.184c7.121 1.245 2.747-6.613 5.697-6.395 2.95.218 2.136 4.782 4.918 4.462 2.782-.32 5.407-12.047 3.195-20.673m.33 13.136s3.21 8.727 5.127 9.47c3.836 1.636 7.081-8.755 3.836-9.47-3.246-.714-4.588 5.715 0 6.942 2.508 2.082 6.195-2.975 8.408-7.734 1.77-3.867 2.803-5.949 3.688-10.56.737-3.42-.148-6.84-1.033-8.179-2.212-3.123-5.31.595-6.048 3.57-1.917 8.18-2.62 25.134 5.199 29.447m.997 5.8c-.148-4.462-3.393-11.154-.295-15.021 1.917-.892 3.245 4.61 5.31 4.313 1.918-.298.787-3.718 1.77-4.313 1.475-.892 3.246 2.677 5.901 4.462" stroke="#fff" stroke-width="2" stroke-miterlimit="10" stroke-linejoin="round"/><path d="M0 57h80M3 44l8 8m0-8l-8 8" stroke="#fff" stroke-width="2"/></symbol><symbol id="icon-line-white-talk-alert"><path fill-rule="evenodd" clip-rule="evenodd" d="M8 4h66v60H36L20 78.308V64H8V4zm28 34l-1-21h10l-1 21h-8zm9 9a5 5 0 11-10 0 5 5 0 0110 0z" fill="#fff"/></symbol><symbol id="icon-line-white-wait"><path fill="#fff" d="M9 0h62v6H9zM9 74h62v6H9z"/><path fill-rule="evenodd" clip-rule="evenodd" d="M16 8h48v10.166a20 20 0 01-11.667 18.181L44.363 40l7.97 3.653A20 20 0 0164 61.834V72H16V61.834a20 20 0 0111.667-18.181L35.637 40l-7.97-3.653A20 20 0 0116 18.166V8zm35.064 24.942L42 37.086V57h17.947C60.633 58.75 61 61.624 61 63.553V70H19v-6.447c0-1.929.367-4.803 1.053-6.553H38V37.086l-9.064-4.144A17.908 17.908 0 0119 21h42a17.908 17.908 0 01-9.936 11.942z" fill="#fff"/></symbol><symbol id="icon-line-white-website-remote-hearing"><g clip-path="url(#clip0)" fill="#fff"><path fill-rule="evenodd" clip-rule="evenodd" d="M27 9h49v10H27V9zm28 7a2 2 0 100-4 2 2 0 000 4zm8 0a2 2 0 100-4 2 2 0 000 4zm10-2a2 2 0 11-4 0 2 2 0 014 0zM4 21v2h9.914l.293.293L20 29.086V23h5v-2H4zm9.086 4H4v45h72V21H27v4h-5v6.5l-1.707.707L13.086 25zM72 52H52v14h20V52zM31 35c0-.484.038-.96.112-1.423.914.275 1.884.423 2.888.423a9.984 9.984 0 007.939-3.919 9.968 9.968 0 006.837 2.917A9.004 9.004 0 0143 43.488v2.843c1.96.44 3.764 1.303 5.31 2.492-1.608 1.902-4.604 3.359-8.31 3.359-3.706 0-6.702-1.457-8.31-3.359A13.595 13.595 0 0137 46.331v-2.843A9.004 9.004 0 0131 35zm13.98 9.81A11 11 0 0051 35c0-6.075-4.925-11-11-11s-11 4.925-11 11a11 11 0 006.02 9.81c-5.825 1.957-10.152 7.254-10.62 13.697L24 64h26V50h2.318a15.653 15.653 0 00-7.337-5.19z"/><path fill-rule="evenodd" clip-rule="evenodd" d="M25 6H0v17h14l6 6v-6h5V6zm-7.5 10a1.5 1.5 0 110-3 1.5 1.5 0 010 3zM11 14.5a1.5 1.5 0 103 0 1.5 1.5 0 00-3 0zM7.5 16a1.5 1.5 0 110-3 1.5 1.5 0 010 3z"/><circle cx="62" cy="56" r="2"/><path d="M58.1 62.627a3.91 3.91 0 017.8 0L66 64h-8l.1-1.373z"/></g></symbol><symbol id="icon-line-white-website-e-file"><path fill-rule="evenodd" clip-rule="evenodd" d="M0 9h80v10H0V9zm56 7a2 2 0 100-4 2 2 0 000 4zm8 0a2 2 0 100-4 2 2 0 000 4zm10-2a2 2 0 11-4 0 2 2 0 014 0zM0 21h80v49H0V21zm74 43H44v-2h30v2zM60.605 51.784a2.72 2.72 0 00-3.479.924l-.056.084c-.653.98-.632 2.261.052 3.22l.71.993c-.878.401-1.96.252-2.699-.486l-.426-.426-1.414 1.414.426.426a4.405 4.405 0 005.334.69 3.237 3.237 0 004.774-.306l.324-.405a.7.7 0 011.155.09l.498.87a2.746 2.746 0 003.907.922.746.746 0 01.748-.046l.231.115a3.19 3.19 0 001.427.337H74v-2h-1.883a1.19 1.19 0 01-.532-.126l-.231-.115a2.747 2.747 0 00-2.752.171.746.746 0 01-1.062-.25l-.497-.87a2.7 2.7 0 00-4.453-.348l-.324.405a1.236 1.236 0 01-1.752.181l1.05-1.4a2.72 2.72 0 00-.96-4.064zm-.641 2.864l-.695.927-.52-.726a.834.834 0 01-.015-.947l.056-.084a.72.72 0 111.174.83zM46.086 56.5l-1.793-1.793 1.414-1.414 1.793 1.793 1.793-1.793 1.414 1.414-1.793 1.793 1.793 1.793-1.414 1.414-1.793-1.793-1.793 1.793-1.414-1.414 1.793-1.793zM6 44v2h28v-2H6zm28 6v2H6v-2h28zM6 56v2h28v-2H6zm19 8H6v-2h19v2zM7 24H6v16h16V24H7zm1 14V26h12v12H8z" fill="#fff"/></symbol><symbol id="icon-line-white-website-email"><path fill-rule="evenodd" clip-rule="evenodd" d="M0 9h80v10H0V9zm56 7a2 2 0 100-4 2 2 0 000 4zm8 0a2 2 0 100-4 2 2 0 000 4zm10-2a2 2 0 11-4 0 2 2 0 014 0zM80 21H0v49h80V21zm-62 6h-2v32h48V27H18zm0 2h44v28H18V29zm4.585 3.19L40 44.766l17.414-12.578 1.172 1.622-12.537 9.054 8.48 5.286-1.058 1.698-9.174-5.72-3.711 2.682-.586.422-.586-.422-3.711-2.681-9.174 5.719-1.058-1.698 8.48-5.286-12.537-9.054 1.171-1.622z" fill="#fff"/></symbol><symbol id="icon-line-white-website"><path fill-rule="evenodd" clip-rule="evenodd" d="M0 9h80v10H0V9zm56 7a2 2 0 100-4 2 2 0 000 4zm8 0a2 2 0 100-4 2 2 0 000 4zm10-2a2 2 0 11-4 0 2 2 0 014 0zM29 21H0v49h29V21zm2 0v49h49V21H31z" fill="#fff"/></symbol><symbol id="icon-line-white-wheelchair"><path d="M54.973 43.996l6.526-.356 1.144-.063-.093 1.143-1.56 19.14a3.753 3.753 0 007.48.61l2.004-24.575h0a3.753 3.753 0 00-3.95-4.052l-11.551 8.153zm0 0h-4.79l-19.649-12.22 11.349-12.805.81-.914-1.056-.614-6.664-3.87-.627-.363-.54.482-8.062 7.19h0a3.753 3.753 0 11-4.996-5.6h0L31.38 5.796a3.752 3.752 0 014.383-.444l.32-.55-.32.55h0l.004.002.012.007.046.027.182.106.691.401 2.466 1.433 7.486 4.349a58193.012 58193.012 0 019.966 5.792l.695.405.184.107.047.027.002.001a3.732 3.732 0 011.665 2.37l.006.03.009.03a4.57 4.57 0 01-.958 4.28h0l-9.12 10.387-1.573 1.79 2.38-.132 16.57-.922-11.55 8.153zm2.577-25.982c.017.01.013.008-.001-.001l.001.001z" stroke="#fff" stroke-width="2"/><path d="M33.307 71.32c-8.617 0-15.628-7.01-15.628-15.627 0-3.248.997-6.267 2.699-8.768l-6.209-6.21A24.196 24.196 0 009 55.693C9 69.118 19.883 80 33.307 80a24.194 24.194 0 0014.977-5.17l-6.209-6.208a15.54 15.54 0 01-8.768 2.699zM32.976 39.68c8.617 0 15.628 7.01 15.628 15.627 0 3.248-.996 6.267-2.698 8.769l6.209 6.208a24.196 24.196 0 005.169-14.977C57.284 41.883 46.4 31 32.976 31A24.194 24.194 0 0018 36.17l6.209 6.208a15.54 15.54 0 018.767-2.699z" fill="#fff"/><circle cx="62" cy="8" r="7" stroke="#fff" stroke-width="2"/></symbol><symbol id="icon-line-white-workshop"><path fill-rule="evenodd" clip-rule="evenodd" d="M70 6H10v37h60V6zM32 17.938V18c0 3.728 2.55 6.86 6 7.748v2.415c-1.42.233-2.765.712-3.986 1.394C35.181 30.927 37.305 32 40 32s4.82-1.073 5.986-2.442A12.225 12.225 0 0042 28.163v-2.415c3.45-.888 6-4.02 6-7.748v-.062a7.998 7.998 0 01-8-4.062 7.998 7.998 0 01-8 4.062zm-1.984-.513a9.998 9.998 0 005.224 9.372 14.59 14.59 0 00-9.51 10.764L25 41h30l-.73-3.44a14.59 14.59 0 00-9.51-10.763A9.998 9.998 0 0050 18c0-5.523-4.477-10-10-10-5.33 0-9.686 4.17-9.984 9.425z" fill="#fff"/><path fill="#fff" d="M10 0h60v4H10z"/><path fill-rule="evenodd" clip-rule="evenodd" d="M45.86 68.403l-.209.433-.9-.434.9.435v.001l-.002.002-.002.006-.007.013a2.37 2.37 0 01-.084.155 4.89 4.89 0 01-.239.37c-.21.298-.528.686-.975 1.073C43.436 71.242 42.022 72 40 72s-3.436-.758-4.342-1.543a6.024 6.024 0 01-.975-1.072 4.89 4.89 0 01-.303-.488l-.02-.038-.006-.013-.002-.005-.002-.003c0-.001 0-.002.9-.435l-.9.433-.21-.433a9.959 9.959 0 00-3.875 5.906L29 80h22l-1.265-5.69a9.959 9.959 0 00-3.875-5.907zM37.21 66.5h5.58a8 8 0 10-5.58 0zm-.344 2.153c.133-.064.249-.115.335-.153h5.556l.486.25a4.14 4.14 0 01-.21.195C42.439 69.46 41.477 70 40 70c-1.477 0-2.438-.54-3.032-1.055a4.184 4.184 0 01-.241-.225l.139-.067zM8 59.917a5.994 5.994 0 006-2.6 5.994 5.994 0 006 2.6 5.994 5.994 0 01-6-2.6 5.994 5.994 0 01-6 2.6zM14 52a8 8 0 00-8 8v7h4.124l.045.025a4 4 0 01.719-.037c.069.003.126.008.17.012h5.94l.133-.007a4.123 4.123 0 01.694.035l.051-.028H22v-7a8 8 0 00-8-8zM8.14 68.403a9.959 9.959 0 00-3.875 5.906L3 80h22l-1.265-5.69a9.958 9.958 0 00-3.875-5.907l-.209.433-.9-.434.9.435-.002.003-.003.005-.006.014-.02.038c-.016.03-.037.07-.064.117a4.91 4.91 0 01-.239.37c-.21.298-.528.686-.975 1.073C17.437 71.242 16.023 72 14 72c-2.023 0-3.436-.758-4.342-1.543a6.018 6.018 0 01-.975-1.072 4.87 4.87 0 01-.322-.526l-.007-.013-.003-.006v-.002l-.001-.001.9-.434-.9.433-.21-.433zm8.826.597h-5.934c.598.497 1.543 1 2.968 1s2.37-.503 2.969-1h-.003zM74 60a8.003 8.003 0 00-5.03-7.43 3 3 0 00-5.94 0 8.003 8.003 0 00-.602 14.59l-.052.02L63.5 68v2.627c.74.235 1.58.373 2.5.373.92 0 1.76-.138 2.5-.372V58h2v5.969a5.992 5.992 0 010 0v2.646A7.992 7.992 0 0074 60zm-3.5 10.72c.515-.42.827-.886 1.01-1.3.114-.26.174-.492.205-.668a2.347 2.347 0 00.035-.328V68.403h-1l1-.001v-.078a9.96 9.96 0 013.985 5.986L77 80H55l1.265-5.69a9.96 9.96 0 013.986-5.986v.078h1-1v.022a1.155 1.155 0 00.005.105 2.945 2.945 0 00.235.89c.233.53.678 1.143 1.488 1.638l1.521.929v-1.359c.74.235 1.58.373 2.5.373.92 0 1.76-.138 2.5-.372V76H64v2h6.5v-7.28zM63 65.196z" fill="#fff"/></symbol></svg>