<svg width="299" height="64" fill="none" xmlns="http://www.w3.org/2000/svg"><path d="M7.646 37.61c1.045 0 1.93.15 2.652.453l1.01.425a.646.646 0 00.264.059.55.55 0 00.352-.147l.205-.175c.03-.04.083-.059.161-.059.244-.01.366.23.366.718 0 .166.064.659.19 1.48l.235 1.508c.049.322.073.523.073.6 0 .303-.102.455-.307.455-.157 0-.313-.235-.47-.703-.35-1.055-1.068-1.924-2.152-2.608-1.075-.683-2.276-1.025-3.604-1.025-1.055 0-1.938.312-2.651.937-.703.616-1.055 1.387-1.055 2.315 0 .82.23 1.528.689 2.124.4.508.834.879 1.303 1.113.479.235 1.646.66 3.501 1.275 3.614 1.181 5.42 3.12 5.42 5.815 0 1.826-.664 3.32-1.992 4.482-1.328 1.163-3.032 1.743-5.112 1.743-.752 0-1.582-.107-2.49-.322-.899-.215-1.558-.464-1.978-.747-.176-.117-.293-.24-.352-.366-.058-.137-.146-.479-.263-1.025-.02-.079-.142-.523-.367-1.333-.253-.88-.38-1.504-.38-1.875 0-.293.097-.435.293-.425.175.01.332.249.468.718.352 1.21 1.094 2.226 2.227 3.046 1.133.82 2.363 1.23 3.691 1.23 1.348 0 2.486-.395 3.413-1.186.938-.79 1.407-1.753 1.407-2.885 0-1.084-.43-1.998-1.29-2.74-.439-.38-1.708-.922-3.808-1.626-2.168-.732-3.706-1.543-4.614-2.431-.899-.889-1.348-2.041-1.348-3.457 0-1.582.586-2.871 1.758-3.867 1.181-.997 2.7-1.495 4.555-1.495zm14.918 2.695v5.888c0 .45.04.723.118.82.088.089.341.133.761.133H25.7c1.026 0 1.836-.06 2.432-.176.527-.108.869-.25 1.025-.425.157-.176.298-.586.425-1.23.049-.245.171-.362.366-.352.186.01.279.142.279.395 0 .069-.005.176-.015.323a31.771 31.771 0 00-.117 2.592c0 .596.029 1.187.088 1.773.02.195.029.337.029.425 0 .244-.093.366-.278.366-.206 0-.328-.108-.367-.322l-.087-.41c-.118-.655-.352-1.1-.704-1.333-.351-.235-.947-.352-1.787-.352h-3.237c-.479 0-.8.049-.967.146-.156.098-.234.293-.234.586l.014.484v5.39c0 .83.147 1.348.44 1.553.303.205 1.06.308 2.27.308 3.838 0 6.304-.864 7.398-2.593.107-.166.215-.254.322-.264.176-.01.264.117.264.381 0 .635-.357 1.392-1.07 2.27-.859 1.055-1.943 1.583-3.252 1.583-.283 0-.663-.02-1.142-.059-1.865-.176-3.408-.264-4.629-.264-1.709 0-2.915.059-3.618.176-.371.069-.625.103-.762.103-.312 0-.469-.108-.469-.322 0-.167.127-.284.381-.352l.557-.161c.703-.195 1.055-.88 1.055-2.051l.014-.952V42.004c0-1.397-.156-2.334-.468-2.813-.303-.488-.899-.732-1.788-.732-.283 0-.424-.093-.424-.278 0-.274.22-.41.659-.41.244 0 .571.024.981.073 1.397.156 3.076.234 5.04.234 1.19 0 2.245-.02 3.163-.059l2.08-.102c.577-.02.928-.04 1.055-.059a4.43 4.43 0 01.586-.058c.322 0 .483.141.483.425 0 .087-.014.2-.044.337-.029.136-.068.527-.117 1.171l-.058.865c-.05.566-.098.922-.147 1.069-.049.137-.156.21-.322.22-.186.01-.278-.137-.278-.44v-.38c0-.313-.059-.61-.176-.894-.186-.44-.562-.733-1.128-.88-.567-.145-1.607-.219-3.12-.219H24c-.605 0-.996.078-1.172.235-.176.146-.264.478-.264.996zm19.05 13.74l.014.513c0 1.172.112 1.865.337 2.08.224.215.957.322 2.197.322 1.826 0 3.408-.215 4.746-.645 1.348-.439 2.207-1.015 2.578-1.728.137-.264.274-.396.41-.396.157 0 .23.098.22.293-.039.645-.356 1.353-.952 2.124-.84 1.065-2.202 1.597-4.087 1.597-.312 0-.674-.015-1.084-.044l-1.582-.117a40.168 40.168 0 00-2.944-.103c-1.201 0-2.207.059-3.018.176a9.223 9.223 0 01-.82.088c-.244.01-.366-.078-.366-.264 0-.156.132-.273.395-.351.674-.205 1.123-.503 1.348-.894.234-.4.351-1.069.351-2.006l.015-.674V40.92c0-1.299-.527-2.056-1.582-2.27l-.66-.132c-.233-.05-.35-.147-.35-.293 0-.225.165-.337.497-.337.225 0 .533.02.923.058a25.71 25.71 0 002.241.088c.899 0 1.714-.024 2.447-.073.37-.02.58-.03.63-.03.234 0 .351.074.351.22 0 .215-.142.357-.425.425l-.512.117c-.88.215-1.319 1.09-1.319 2.622v12.73zM59.49 40.217v5.8l.015.279v.38c.039.264.317.396.835.396l1.26.03.483-.015 1.729-.03c.898 0 1.552-.131 1.962-.395.41-.273.67-.737.777-1.392.039-.234.136-.351.293-.351.185 0 .268.151.249.454l-.088 1.45c-.01.186-.015.484-.015.894 0 1.142.02 1.87.059 2.182.02.186.03.323.03.41 0 .235-.089.352-.264.352-.186 0-.333-.24-.44-.718-.117-.517-.244-.869-.38-1.054-.138-.186-.367-.318-.69-.396-.654-.166-1.616-.249-2.885-.249-1.172 0-1.934.025-2.285.073-.342.05-.532.161-.572.337-.048.186-.073.479-.073.88v5.434c0 .771.205 1.386.615 1.845.41.46.962.689 1.656.689.332 0 .503.098.512.293.02.224-.127.337-.439.337-.215 0-.513-.02-.894-.059-.322-.039-.8-.058-1.435-.058L58.495 58l-1.129.015c-.244 0-.576.02-.996.058l-.747.044c-.283.01-.425-.078-.425-.264 0-.156.152-.268.454-.336.625-.137 1.05-.4 1.275-.791.224-.391.337-1.065.337-2.022V41.506c0-.928-.152-1.64-.454-2.139-.196-.332-.41-.556-.645-.674-.234-.117-.64-.2-1.216-.249-.234-.02-.356-.107-.366-.263-.02-.254.176-.381.586-.381.127 0 .43.024.908.073.87.088 2.339.132 4.41.132 1.845 0 3.032-.015 3.559-.044l2.036-.103c.879-.039 1.445-.083 1.7-.131a2.39 2.39 0 01.483-.059c.215 0 .322.112.322.337 0 .117-.025.278-.073.483-.166.635-.25 1.485-.25 2.55 0 .448-.126.673-.38.673-.147 0-.23-.122-.25-.366a6.3 6.3 0 00-.16-.923c-.127-.498-.288-.816-.484-.952-.185-.147-.605-.25-1.26-.308l-1.728-.176a24.189 24.189 0 00-2.08-.073c-1.094 0-1.773.073-2.036.22-.264.136-.396.498-.396 1.084zm17.203 9.565c.108 0 .162.259.162.777 0 .586-.035.932-.103 1.04-.068.107-.342.239-.82.395-.674.225-1.24.42-1.7.586-1.084.39-1.787.625-2.109.703-.273.078-.464.152-.571.22a.757.757 0 01-.279.132c-.136.02-.205-.147-.205-.498 0-.703.054-1.133.162-1.29.117-.165.493-.346 1.127-.541.235-.069.757-.25 1.568-.542.322-.117.85-.298 1.582-.542.508-.176.845-.303 1.01-.381l.176-.059zm8.942-2.724h8.642c.43 0 .704-.04.82-.118.118-.078.176-.253.176-.527v-4.995c0-1.006-.131-1.719-.395-2.139-.254-.42-.728-.708-1.421-.864-.293-.059-.434-.176-.425-.352.01-.166.132-.248.366-.248.206 0 .538.024.996.073.645.068 1.329.102 2.051.102 1.045 0 1.778-.03 2.198-.088.263-.039.444-.058.542-.058.234 0 .351.093.351.278 0 .147-.117.244-.351.293l-.601.132c-.303.059-.557.278-.762.66-.205.37-.307.8-.307 1.288V54.66c0 1.045.146 1.768.44 2.168.292.4.854.645 1.684.732.302.04.459.137.468.293.02.235-.117.352-.41.352-.195 0-.449-.024-.761-.073-.235-.04-.723-.059-1.465-.059l-1.084-.014-1.099.029c-.176 0-.41.014-.703.044-.605.049-.942.073-1.01.073-.245.01-.362-.088-.352-.293.01-.176.175-.288.498-.337 1.025-.176 1.538-1.01 1.538-2.505l.014-.571v-5.376c0-.459-.043-.727-.131-.806-.088-.078-.381-.117-.88-.117h-8.627c-.557 0-.904.059-1.04.176-.137.107-.205.39-.205.85v5.376c0 1.015.16 1.728.483 2.138.322.41.923.664 1.802.762.361.039.547.166.556.38.01.206-.131.308-.424.308a6.36 6.36 0 01-.718-.073c-.264-.049-.85-.073-1.758-.073l-1.23-.015-.967.03c-.244 0-.552.014-.923.044-.508.039-.816.058-.923.058-.244 0-.366-.093-.366-.278 0-.176.127-.293.38-.352l.733-.175c.43-.098.723-.42.88-.967.155-.547.233-1.504.233-2.871V40.949c0-.85-.16-1.465-.483-1.846-.322-.38-.898-.634-1.729-.761-.283-.04-.424-.147-.424-.322 0-.206.127-.303.38-.293.186.01.48.039.88.088.761.087 1.655.131 2.68.131.694 0 1.343-.039 1.948-.117.264-.039.47-.059.616-.059.283 0 .424.103.424.308 0 .156-.131.269-.395.337-.654.166-1.094.405-1.318.718-.225.302-.337.815-.337 1.538v5.23c0 .556.053.888.16.995.118.108.48.162 1.085.162zm23.209-6.753v5.888c0 .45.039.723.117.82.088.089.342.133.762.133h2.256c1.025 0 1.835-.06 2.431-.176.528-.108.869-.25 1.026-.425.156-.176.297-.586.424-1.23.049-.245.171-.362.367-.352.185.01.278.142.278.395 0 .069-.005.176-.015.323a31.813 31.813 0 00-.117 2.592c0 .596.029 1.187.088 1.773.019.195.029.337.029.425 0 .244-.093.366-.278.366-.205 0-.327-.108-.366-.322l-.088-.41c-.117-.655-.352-1.1-.703-1.333-.352-.235-.948-.352-1.787-.352h-3.238c-.478 0-.801.049-.967.146-.156.098-.234.293-.234.586l.015.484v5.39c0 .83.146 1.348.439 1.553.303.205 1.06.308 2.271.308 3.838 0 6.303-.864 7.397-2.593.108-.166.215-.254.322-.264.176-.01.264.117.264.381 0 .635-.356 1.392-1.069 2.27-.86 1.055-1.944 1.583-3.252 1.583-.283 0-.664-.02-1.143-.059-1.865-.176-3.408-.264-4.629-.264-1.709 0-2.915.059-3.618.176-.371.069-.625.103-.762.103-.312 0-.468-.108-.468-.322 0-.167.127-.284.381-.352l.556-.161c.703-.195 1.055-.88 1.055-2.051l.015-.952V42.004c0-1.397-.157-2.334-.469-2.813-.303-.488-.899-.732-1.787-.732-.284 0-.425-.093-.425-.278 0-.274.22-.41.659-.41.244 0 .571.024.981.073 1.397.156 3.077.234 5.04.234 1.191 0 2.246-.02 3.164-.059l2.08-.102c.576-.02.927-.04 1.054-.059.264-.039.459-.058.586-.058.323 0 .484.141.484.425 0 .087-.015.2-.044.337-.03.136-.069.527-.117 1.171l-.059.865c-.049.566-.098.922-.146 1.069-.049.137-.157.21-.323.22-.185.01-.278-.137-.278-.44v-.38c0-.313-.059-.61-.176-.894-.185-.44-.561-.733-1.128-.88-.566-.145-1.606-.219-3.12-.219h-2.3c-.605 0-.996.078-1.172.235-.175.146-.263.478-.263.996zm19.049 13.74l.014.513c0 1.172.113 1.865.337 2.08.225.215.957.322 2.197.322 1.827 0 3.409-.215 4.747-.645 1.347-.439 2.207-1.015 2.578-1.728.136-.264.273-.396.41-.396.156 0 .229.098.22.293-.04.645-.357 1.353-.953 2.124-.839 1.065-2.202 1.597-4.087 1.597-.312 0-.673-.015-1.084-.044l-1.582-.117a40.15 40.15 0 00-2.944-.103c-1.201 0-2.207.059-3.017.176a9.245 9.245 0 01-.821.088c-.244.01-.366-.078-.366-.264 0-.156.132-.273.396-.351.673-.205 1.123-.503 1.347-.894.235-.4.352-1.069.352-2.006l.014-.674V40.92c0-1.299-.527-2.056-1.582-2.27l-.659-.132c-.234-.05-.351-.147-.351-.293 0-.225.166-.337.498-.337.224 0 .532.02.922.058.665.059 1.412.088 2.242.088.898 0 1.714-.024 2.446-.073.371-.02.581-.03.63-.03.234 0 .351.074.351.22 0 .215-.141.357-.424.425l-.513.117c-.879.215-1.318 1.09-1.318 2.622v12.73zm17.862-13.711v12.217l-.015 1.42.044 1.231c.108 1.182.547 1.87 1.319 2.066.537.146.942.22 1.215.22.293 0 .445.087.454.263.02.254-.151.38-.512.38-.166 0-.493-.019-.982-.058-.312-.02-.82-.03-1.523-.03l-1.04-.028-1.143.014c-.576 0-1.01.02-1.303.059-.381.049-.66.073-.835.073-.254 0-.381-.098-.381-.293 0-.185.161-.303.483-.351.762-.118 1.279-.547 1.553-1.29.283-.742.425-2.08.425-4.013v-8.892c0-2.05-.122-3.345-.367-3.882-.244-.546-.854-.874-1.831-.981-.263-.02-.39-.117-.38-.293.009-.225.2-.337.571-.337.185 0 .434.024.747.073.615.088 1.123.132 1.523.132.625 0 1.534-.053 2.725-.161a19.834 19.834 0 011.509-.073c2.041 0 3.696.493 4.966 1.48 1.279.976 1.919 2.255 1.919 3.837 0 1.914-.782 3.423-2.344 4.527-1.172.82-2.412 1.23-3.721 1.23a6.635 6.635 0 01-1.699-.205c-.508-.137-.752-.283-.733-.44.02-.117.113-.175.279-.175.078 0 .176.014.293.044.224.068.586.102 1.084.102 1.406 0 2.529-.386 3.369-1.157.849-.771 1.274-1.797 1.274-3.076 0-1.475-.556-2.695-1.67-3.662-1.113-.967-2.524-1.45-4.233-1.45-.391 0-.659.073-.806.22-.146.146-.219.424-.219.834l-.015.425zm39.738-.63l.469 3.516.044.366-.044.146a.27.27 0 01-.22.147c-.117.01-.293-.195-.527-.615-1.826-3.204-4.302-4.805-7.427-4.805-2.49 0-4.453.767-5.889 2.3-1.435 1.533-2.153 3.628-2.153 6.284 0 3.057.796 5.557 2.388 7.5 1.601 1.934 3.657 2.9 6.167 2.9 1.465 0 2.905-.39 4.321-1.171 1.416-.782 2.398-1.729 2.944-2.842.254-.518.45-.782.586-.791.157-.01.235.083.235.278l-.015.161-.059.322-.336 1.788-.059.263c-.039.254-.269.518-.689.791-2.255 1.436-4.741 2.154-7.456 2.154-3.144 0-5.678-.933-7.602-2.798-1.924-1.866-2.886-4.322-2.886-7.368 0-3.047.996-5.577 2.988-7.588 1.993-2.022 4.493-3.033 7.5-3.033 2.061 0 3.956.464 5.684 1.392l.586.308.234.102.249.088c.049 0 .122-.039.22-.117.215-.156.361-.234.44-.234.156 0 .258.185.307.556zm9.425.6v5.89c0 .449.039.722.117.82.088.088.342.131.762.131h2.256c1.025 0 1.836-.058 2.431-.175.528-.108.87-.25 1.026-.425.156-.176.298-.586.425-1.23.048-.245.17-.362.366-.352.185.01.278.142.278.395 0 .069-.005.176-.015.323a31.813 31.813 0 00-.117 2.592c0 .596.03 1.187.088 1.773.02.195.029.337.029.425 0 .244-.092.366-.278.366-.205 0-.327-.108-.366-.322l-.088-.41c-.117-.655-.352-1.1-.703-1.333-.352-.235-.947-.352-1.787-.352h-3.238c-.478 0-.8.049-.966.146-.157.098-.235.293-.235.586l.015.484v5.39c0 .83.146 1.348.439 1.553.303.205 1.06.308 2.271.308 3.838 0 6.304-.864 7.397-2.593.108-.166.215-.254.323-.264.175-.01.263.117.263.381 0 .635-.356 1.392-1.069 2.27-.859 1.055-1.943 1.583-3.252 1.583-.283 0-.664-.02-1.143-.059-1.865-.176-3.408-.264-4.628-.264-1.709 0-2.915.059-3.619.176-.371.069-.625.103-.761.103-.313 0-.469-.108-.469-.322 0-.167.127-.284.381-.352l.556-.161c.704-.195 1.055-.88 1.055-2.051l.015-.952V42.004c0-1.397-.156-2.334-.469-2.813-.303-.488-.898-.732-1.787-.732-.283 0-.425-.093-.425-.278 0-.274.22-.41.659-.41.244 0 .572.024.982.073 1.396.156 3.076.234 5.039.234 1.191 0 2.246-.02 3.164-.059l2.08-.102c.576-.02.928-.04 1.055-.059.263-.039.459-.058.586-.058.322 0 .483.141.483.425 0 .087-.015.2-.044.337-.029.136-.068.527-.117 1.171l-.059.865c-.049.566-.097.922-.146 1.069-.049.137-.157.21-.323.22-.185.01-.278-.137-.278-.44v-.38a2.3 2.3 0 00-.176-.894c-.185-.44-.561-.733-1.128-.88-.566-.145-1.606-.219-3.12-.219h-2.299c-.606 0-.997.078-1.172.235-.176.146-.264.478-.264.996zm32.013 3.311v12.276c0 1.103-.025 1.777-.074 2.021-.048.235-.185.347-.41.337a.507.507 0 01-.337-.132l-.322-.38-12.349-14.122-.146-.16a.282.282 0 00-.205-.089c-.186 0-.278.22-.278.66v9.931l-.015.615.044 1.04c.068.645.234 1.09.498 1.333.264.245.781.425 1.553.542.322.04.483.166.483.381 0 .195-.102.293-.308.293a3.54 3.54 0 01-.439-.03c-.107-.019-.532-.048-1.274-.087l-1.495-.073-.703.029c-.381 0-.742.024-1.084.073-.254.04-.434.059-.542.059-.254 0-.39-.093-.41-.279-.01-.146.127-.268.41-.366.821-.283 1.372-.659 1.656-1.128.293-.478.439-1.245.439-2.3V44.1c0-1.69-.269-3.018-.806-3.985-.537-.976-1.313-1.533-2.329-1.67-.263-.039-.395-.151-.395-.337 0-.185.107-.278.322-.278.049 0 .127.005.234.015l.601.014.981.03.235-.015c.234-.01.415-.015.542-.015.244 0 .488.142.732.425l13.477 15.264c.215.244.351.361.41.351.098-.01.151-.102.161-.278v-7.25l.015-1.978-.176-3.37c-.098-.83-.342-1.416-.732-1.757-.381-.352-1.075-.61-2.081-.777-.283-.048-.424-.17-.424-.366 0-.185.141-.278.424-.278.127 0 .332.014.616.044.674.078 1.577.117 2.71.117.605 0 1.089-.03 1.45-.088.312-.059.552-.088.718-.088.254 0 .39.103.41.308.01.127-.088.22-.293.278-.596.147-.991.39-1.187.733-.185.341-.278.98-.278 1.918v1.582l-.029.967zm20.045-4.072h-4.117c-.429 0-.703.059-.82.176-.107.117-.161.405-.161.864v14.355l.015.572c.048 1.142.688 1.821 1.919 2.036.341.059.512.17.512.337 0 .215-.136.322-.41.322-.117 0-.356-.03-.718-.088-.185-.03-.625-.044-1.318-.044l-1.069-.014-1.143.014c-.41 0-.757.015-1.04.044-.557.059-.884.088-.981.088-.293 0-.44-.107-.44-.322 0-.156.161-.254.483-.293.752-.098 1.26-.303 1.524-.615.264-.323.395-.894.395-1.714V40.744l-.014-.38c0-.352-.054-.577-.161-.674-.098-.098-.332-.147-.703-.147h-3.882c-.791 0-1.368.161-1.729.483-.351.313-.625.909-.82 1.787-.088.381-.22.567-.396.557-.175-.01-.263-.142-.263-.395 0-.206.058-.581.175-1.128.147-.703.22-1.285.22-1.744 0-.449.049-.742.147-.878.107-.147.327-.22.659-.22h15.762c.537 0 .859.058.966.176.118.117.176.464.176 1.04 0 .576.025.996.073 1.26.049.331.079.57.088.717.01.293-.093.45-.307.469-.176.01-.293-.142-.352-.454-.127-.694-.332-1.143-.615-1.348-.283-.215-.835-.322-1.655-.322zm10.45.762v5.888c0 .45.039.723.117.82.088.089.342.133.762.133h2.256c1.025 0 1.835-.06 2.431-.176.528-.108.869-.25 1.026-.425.156-.176.297-.586.424-1.23.049-.245.171-.362.367-.352.185.01.278.142.278.395 0 .069-.005.176-.015.323a31.813 31.813 0 00-.117 2.592c0 .596.029 1.187.088 1.773.019.195.029.337.029.425 0 .244-.093.366-.278.366-.205 0-.327-.108-.366-.322l-.088-.41c-.117-.655-.352-1.1-.703-1.333-.352-.235-.948-.352-1.787-.352h-3.238c-.478 0-.8.049-.966.146-.157.098-.235.293-.235.586l.015.484v5.39c0 .83.146 1.348.439 1.553.303.205 1.06.308 2.271.308 3.838 0 6.303-.864 7.397-2.593.108-.166.215-.254.322-.264.176-.01.264.117.264.381 0 .635-.356 1.392-1.069 2.27-.86 1.055-1.944 1.583-3.252 1.583-.283 0-.664-.02-1.143-.059-1.865-.176-3.408-.264-4.629-.264-1.709 0-2.915.059-3.618.176-.371.069-.625.103-.762.103-.312 0-.468-.108-.468-.322 0-.167.127-.284.381-.352l.556-.161c.703-.195 1.055-.88 1.055-2.051l.015-.952V42.004c0-1.397-.157-2.334-.469-2.813-.303-.488-.899-.732-1.787-.732-.283 0-.425-.093-.425-.278 0-.274.22-.41.659-.41.244 0 .571.024.982.073 1.396.156 3.076.234 5.039.234 1.191 0 2.246-.02 3.164-.059l2.08-.102c.576-.02.927-.04 1.054-.059.264-.039.459-.058.586-.058.323 0 .484.141.484.425 0 .087-.015.2-.044.337-.029.136-.069.527-.117 1.171l-.059.865c-.049.566-.098.922-.146 1.069-.049.137-.157.21-.323.22-.185.01-.278-.137-.278-.44v-.38c0-.313-.059-.61-.176-.894-.185-.44-.561-.733-1.128-.88-.566-.145-1.606-.219-3.12-.219h-2.3c-.605 0-.996.078-1.172.235-.175.146-.263.478-.263.996zm24.395 7.646l4.043 5.977.469.703c1.25 1.836 2.402 2.788 3.457 2.856l.469.03c.176.01.259.078.249.205-.01.146-.23.278-.659.395-.42.117-.899.176-1.436.176a4.12 4.12 0 01-2.373-.718c-.693-.488-1.401-1.28-2.124-2.373l-3.647-5.566-.206-.323c-.234-.4-.615-.6-1.142-.6h-1.948l-.323.059c-.117.068-.175.224-.175.468v4.57l.014.587c0 .84.039 1.416.117 1.728.088.303.289.576.601.82.42.332 1.069.542 1.948.63.352.04.533.152.542.337.02.195-.141.293-.483.293-.137 0-.425-.02-.864-.058-.401-.04-1.021-.06-1.861-.06l-1.406-.014-.762.015c-.332 0-.732.024-1.201.073-.381.04-.644.059-.791.059-.244 0-.366-.103-.366-.308 0-.146.122-.244.366-.293.781-.146 1.294-.498 1.538-1.054.244-.567.366-1.675.366-3.326V42.722l-.029-1.524c0-1.523-.532-2.373-1.597-2.549l-.688-.102c-.313-.059-.469-.176-.469-.352 0-.205.166-.307.498-.307.078 0 .42.02 1.026.058.351.03.786.044 1.303.044.45 0 1.216-.034 2.3-.102.781-.05 1.47-.073 2.066-.073 2.246 0 3.94.424 5.083 1.274 1.142.84 1.713 2.095 1.713 3.764 0 2.198-1.206 3.897-3.618 5.098zm-4.306-.322h1.655c1.279 0 2.285-.352 3.018-1.055.732-.703 1.098-1.665 1.098-2.886 0-1.416-.498-2.578-1.494-3.486-.996-.918-2.266-1.377-3.809-1.377-.576 0-.976.098-1.201.293-.215.186-.322.527-.322 1.026l.015.483v5.947c0 .46.058.752.175.88.127.116.415.175.865.175zM0 31h290v1H0zM16.821 9.144l.406 3.046.039.318-.038.127a.234.234 0 01-.19.127c-.102.008-.255-.17-.458-.534-1.583-2.776-3.728-4.164-6.436-4.164-2.159 0-3.86.665-5.104 1.994-1.244 1.328-1.866 3.144-1.866 5.446 0 2.649.69 4.816 2.07 6.5 1.387 1.676 3.169 2.514 5.344 2.514 1.27 0 2.518-.339 3.745-1.016 1.227-.677 2.078-1.498 2.552-2.463.22-.449.39-.677.508-.686.135-.008.203.072.203.242l-.013.14-.05.279-.293 1.549-.05.228c-.034.22-.233.449-.597.686-1.955 1.244-4.11 1.866-6.462 1.866-2.725 0-4.922-.808-6.589-2.425-1.667-1.617-2.501-3.745-2.501-6.386 0-2.64.863-4.832 2.59-6.576 1.726-1.752 3.893-2.628 6.5-2.628 1.786 0 3.428.402 4.926 1.206l.508.267.203.089.215.076c.043 0 .106-.034.19-.102.187-.135.314-.203.382-.203.135 0 .224.16.266.483zm13.51 9.216h-4.596c-.626 0-1.015.051-1.168.153-.152.101-.355.44-.609 1.015l-.825 1.867c-.373.854-.559 1.49-.559 1.904 0 .398.098.685.292.863.203.178.597.33 1.18.457.255.05.386.152.394.305.009.144-.11.216-.355.216-.093 0-.237-.005-.432-.013l-1.218-.063a34.185 34.185 0 00-1.41-.026 9.74 9.74 0 00-.57.013c-.432.034-.67.05-.712.05-.228 0-.343-.076-.343-.228 0-.135.072-.224.216-.267l.47-.14c.17-.05.398-.253.686-.609.287-.363.524-.74.71-1.13l.369-.837 6.525-14.486c.11-.254.233-.38.368-.38.136 0 .25.122.343.368l5.459 13.964.28.686c.397 1.024.727 1.663.99 1.917.262.245.795.44 1.599.584.262.05.39.157.38.317-.008.144-.126.216-.355.216-.076 0-.236-.008-.482-.025-.44-.042-1.223-.064-2.349-.064-1.176 0-1.912.026-2.209.077-.177.033-.308.05-.393.05-.22 0-.33-.089-.33-.266 0-.136.106-.225.317-.267l.394-.089c.423-.084.635-.372.635-.863 0-.449-.259-1.342-.775-2.679l-.635-1.676c-.177-.465-.317-.732-.419-.8-.101-.076-.389-.114-.863-.114zm.152-2.03l-1.993-5.028-.101-.267c-.102-.27-.212-.41-.33-.419-.06-.008-.127.072-.204.241l-2.475 5.498c-.11.236-.165.393-.165.47 0 .22.195.33.584.33l.343.012h3.834c.423 0 .634-.106.634-.317 0-.06-.02-.157-.063-.292l-.064-.229zm13.523 5.242l.013.445c0 1.015.097 1.616.291 1.802.195.187.83.28 1.905.28 1.582 0 2.954-.187 4.113-.559 1.168-.38 1.913-.88 2.234-1.498.119-.229.238-.343.356-.343.135 0 .199.085.19.254-.033.559-.308 1.172-.825 1.84-.728.924-1.908 1.385-3.542 1.385-.27 0-.584-.013-.94-.038l-1.37-.102a34.757 34.757 0 00-2.552-.089c-1.041 0-1.913.051-2.615.153a7.952 7.952 0 01-.711.076c-.212.008-.318-.068-.318-.229 0-.135.115-.237.343-.305.584-.177.973-.435 1.168-.774.203-.347.305-.927.305-1.74l.012-.583v-11.35c0-1.125-.457-1.781-1.37-1.968l-.572-.114c-.203-.042-.305-.127-.305-.254 0-.194.144-.292.432-.292.195 0 .461.017.8.051.575.05 1.223.076 1.942.076.779 0 1.486-.02 2.12-.063.322-.017.504-.026.546-.026.203 0 .305.064.305.19 0 .187-.123.31-.368.369l-.445.102c-.761.186-1.142.943-1.142 2.272v11.032zm15.68-10.194v9.496c0 1.185.072 1.968.216 2.349.17.431.377.736.622.914.254.177.648.304 1.181.38.423.06.635.166.635.318 0 .203-.131.305-.394.305-.127 0-.288-.013-.482-.038-.262-.034-.711-.051-1.346-.051l-1.84-.026-1.499.09a6.152 6.152 0 01-.61.037c-.228 0-.342-.088-.342-.266 0-.153.131-.25.394-.292.643-.11 1.058-.33 1.244-.66.186-.339.28-1.046.28-2.12V10.946c0-1.05-.124-1.756-.369-2.12-.237-.364-.749-.61-1.536-.736-.263-.05-.398-.152-.406-.305-.009-.186.114-.28.368-.28.068 0 .144.005.228.014.618.067 1.44.101 2.463.101.627 0 1.164-.013 1.612-.038l.851-.063a7.73 7.73 0 01.317-.013c.229 0 .343.08.343.241 0 .152-.11.267-.33.343l-.66.254c-.626.237-.94 1.248-.94 3.034zm10.045-1.79v5.027l.012.241v.33c.034.229.275.343.724.343l1.092.026.419-.013 1.498-.025c.778 0 1.345-.115 1.7-.343.356-.237.58-.64.674-1.206.034-.203.118-.305.254-.305.16 0 .232.131.215.394l-.076 1.256c-.008.161-.012.42-.012.775 0 .99.016 1.62.05 1.892.017.16.026.279.026.355 0 .203-.076.305-.229.305-.16 0-.288-.208-.38-.622-.102-.449-.212-.754-.33-.915-.12-.16-.318-.275-.597-.342-.567-.144-1.401-.216-2.502-.216-1.015 0-1.675.021-1.98.063-.296.043-.461.14-.495.292-.042.161-.063.415-.063.762v4.71c0 .669.177 1.202.533 1.6.355.397.833.596 1.434.596.288 0 .436.085.445.254.016.195-.11.292-.381.292a8.1 8.1 0 01-.775-.05c-.279-.034-.694-.051-1.244-.051L68.867 25l-.977.013c-.212 0-.5.017-.864.05l-.647.039c-.246.008-.368-.068-.368-.229 0-.135.13-.233.393-.292.542-.118.91-.347 1.105-.686.195-.338.292-.922.292-1.751V10.705c0-.804-.131-1.422-.394-1.853-.169-.288-.355-.483-.558-.584-.204-.102-.555-.174-1.054-.216-.203-.017-.309-.093-.317-.229-.017-.22.152-.33.507-.33.11 0 .373.021.787.064.754.076 2.027.114 3.822.114 1.6 0 2.628-.013 3.085-.038l1.764-.09c.762-.033 1.253-.071 1.473-.113.16-.034.3-.051.419-.051.186 0 .28.097.28.292 0 .101-.022.241-.064.419-.144.55-.216 1.286-.216 2.209 0 .39-.11.584-.33.584-.127 0-.199-.106-.216-.318a5.473 5.473 0 00-.14-.8c-.11-.431-.25-.706-.418-.825-.161-.127-.525-.215-1.092-.266L73.64 8.52a20.951 20.951 0 00-1.803-.063c-.948 0-1.536.063-1.765.19-.228.119-.342.432-.342.94zm19.743-2.26c2.649 0 4.82.821 6.512 2.463 1.701 1.633 2.552 3.728 2.552 6.284 0 2.709-.855 4.93-2.564 6.665-1.71 1.735-3.898 2.603-6.564 2.603-2.734 0-4.947-.83-6.64-2.488-1.684-1.66-2.526-3.835-2.526-6.526 0-1.168.22-2.323.66-3.466.449-1.15 1.05-2.111 1.803-2.882.796-.812 1.803-1.455 3.022-1.93a10.092 10.092 0 013.745-.723zm-.826.825c-1.963 0-3.525.665-4.684 1.993-1.151 1.32-1.727 3.102-1.727 5.345 0 2.565.737 4.727 2.21 6.488 1.48 1.76 3.296 2.64 5.446 2.64 1.963 0 3.584-.715 4.862-2.145 1.278-1.44 1.917-3.259 1.917-5.46 0-2.53-.766-4.637-2.298-6.322-1.532-1.692-3.44-2.539-5.726-2.539zm22.308 8.138l3.504 5.18.406.61c1.084 1.59 2.082 2.415 2.996 2.475l.407.025c.152.009.224.068.215.178-.008.127-.199.241-.571.343a4.641 4.641 0 01-1.244.152 3.574 3.574 0 01-2.057-.622c-.601-.423-1.214-1.109-1.841-2.057l-3.161-4.824-.177-.28c-.204-.346-.534-.52-.991-.52h-1.688l-.279.051c-.102.06-.153.195-.153.406v3.961l.013.508c0 .728.034 1.227.102 1.498.076.262.249.5.52.71.364.289.927.47 1.689.547.304.034.461.131.469.292.017.17-.122.254-.419.254-.118 0-.368-.017-.749-.051-.347-.034-.884-.05-1.612-.05l-1.219-.014-.66.013c-.288 0-.635.021-1.041.064-.33.034-.559.05-.686.05-.211 0-.317-.088-.317-.266 0-.127.106-.212.317-.254.678-.127 1.122-.432 1.333-.914.212-.491.318-1.452.318-2.882v-9.115l-.026-1.32c0-1.32-.461-2.057-1.383-2.21l-.597-.088c-.271-.051-.406-.153-.406-.305 0-.178.144-.267.431-.267.068 0 .364.017.889.051.305.026.681.038 1.13.038.389 0 1.054-.03 1.993-.089a29.1 29.1 0 011.79-.063c1.947 0 3.415.368 4.405 1.104.991.728 1.486 1.816 1.486 3.263 0 1.904-1.045 3.377-3.136 4.418zm-3.732-.28h1.434c1.109 0 1.981-.304 2.615-.913.635-.61.953-1.443.953-2.501 0-1.227-.432-2.235-1.295-3.022-.864-.795-1.964-1.193-3.301-1.193-.499 0-.846.084-1.041.254-.186.16-.279.457-.279.888l.012.42v5.154c0 .397.051.651.153.761.11.102.359.153.749.153zm28.896-3.478v10.639c0 .956-.021 1.54-.063 1.752-.043.203-.161.3-.356.292a.439.439 0 01-.292-.114l-.279-.33-10.702-12.239-.127-.14a.244.244 0 00-.178-.076c-.161 0-.241.19-.241.572v8.607l-.013.533.038.902c.059.558.203.943.432 1.155.228.212.677.368 1.346.47.279.034.419.143.419.33 0 .169-.089.254-.267.254-.119 0-.246-.009-.381-.026-.093-.017-.461-.042-1.104-.076l-1.295-.063-.61.025c-.33 0-.643.021-.939.064-.22.033-.377.05-.47.05-.22 0-.338-.08-.355-.241-.009-.127.11-.233.355-.317.711-.246 1.189-.572 1.435-.978.254-.415.381-1.079.381-1.993v-8.633c0-1.464-.233-2.615-.699-3.453-.465-.846-1.138-1.329-2.018-1.447-.229-.034-.343-.131-.343-.292 0-.161.093-.241.279-.241.043 0 .11.004.203.012l.521.013.85.025.204-.012c.203-.009.359-.013.469-.013.212 0 .423.123.635.368l11.68 13.229c.186.211.304.313.355.304.085-.008.131-.089.14-.24V14.92l.013-1.714-.153-2.92c-.084-.72-.296-1.227-.635-1.523-.33-.305-.931-.53-1.802-.673-.246-.042-.368-.148-.368-.318 0-.16.122-.24.368-.24.11 0 .287.012.533.037.584.068 1.367.102 2.349.102.524 0 .943-.025 1.256-.076.271-.051.479-.076.622-.076.221 0 .339.088.356.266.008.11-.076.19-.254.241-.516.127-.859.339-1.028.635-.161.296-.241.85-.241 1.663v1.371l-.026.838zm9.524-1.155v9.496c0 1.185.071 1.968.215 2.349.17.431.377.736.622.914.254.177.648.304 1.181.38.423.06.635.166.635.318 0 .203-.131.305-.394.305-.127 0-.287-.013-.482-.038-.262-.034-.711-.051-1.346-.051l-1.841-.026-1.498.09a6.135 6.135 0 01-.609.037c-.229 0-.343-.088-.343-.266 0-.153.131-.25.394-.292.643-.11 1.058-.33 1.244-.66.186-.339.279-1.046.279-2.12V10.946c0-1.05-.123-1.756-.368-2.12-.237-.364-.749-.61-1.536-.736-.262-.05-.398-.152-.406-.305-.009-.186.114-.28.368-.28.067 0 .144.005.228.014.618.067 1.439.101 2.463.101.626 0 1.164-.013 1.612-.038l.851-.063c.161-.009.267-.013.317-.013.229 0 .343.08.343.241 0 .152-.11.267-.33.343l-.66.254c-.626.237-.939 1.248-.939 3.034zm15.21 6.982h-4.595c-.627 0-1.016.051-1.168.153-.153.101-.356.44-.61 1.015l-.825 1.867c-.372.854-.558 1.49-.558 1.904 0 .398.097.685.292.863.203.178.596.33 1.18.457.254.05.385.152.394.305.008.144-.11.216-.356.216-.093 0-.237-.005-.431-.013l-1.219-.063a34.171 34.171 0 00-1.409-.026c-.246 0-.436.004-.571.013-.432.034-.669.05-.711.05-.229 0-.343-.076-.343-.228 0-.135.072-.224.216-.267l.469-.14c.17-.05.398-.253.686-.609.288-.363.525-.74.711-1.13l.368-.837 6.525-14.486c.11-.254.233-.38.369-.38.135 0 .249.122.342.368l5.459 13.964.28.686c.397 1.024.727 1.663.99 1.917.262.245.795.44 1.599.584.263.05.39.157.381.317-.008.144-.127.216-.355.216-.076 0-.237-.008-.483-.025-.44-.042-1.223-.064-2.348-.064-1.177 0-1.913.026-2.209.077-.178.033-.309.05-.394.05-.22 0-.33-.089-.33-.266 0-.136.106-.225.318-.267l.393-.089c.423-.084.635-.372.635-.863 0-.449-.258-1.342-.775-2.679l-.634-1.676c-.178-.465-.318-.732-.419-.8-.102-.076-.39-.114-.864-.114zm.153-2.03l-1.993-5.028-.102-.267c-.101-.27-.211-.41-.33-.419-.059-.008-.127.072-.203.241l-2.476 5.498c-.11.236-.165.393-.165.47 0 .22.195.33.584.33l.343.012h3.834c.423 0 .635-.106.635-.317 0-.06-.021-.157-.064-.292l-.063-.229zm33.113-7.186l.406 3.046.038.318-.038.127a.232.232 0 01-.19.127c-.102.008-.254-.17-.457-.534-1.583-2.776-3.728-4.164-6.437-4.164-2.158 0-3.859.665-5.103 1.994-1.244 1.328-1.866 3.144-1.866 5.446 0 2.649.689 4.816 2.069 6.5 1.388 1.676 3.17 2.514 5.345 2.514 1.269 0 2.518-.339 3.745-1.016 1.227-.677 2.078-1.498 2.552-2.463.22-.449.389-.677.507-.686.136-.008.204.072.204.242l-.013.14-.051.279-.292 1.549-.051.228c-.034.22-.232.449-.596.686-1.955 1.244-4.109 1.866-6.462 1.866-2.726 0-4.922-.808-6.589-2.425-1.667-1.617-2.501-3.745-2.501-6.386 0-2.64.863-4.832 2.59-6.576 1.726-1.752 3.893-2.628 6.5-2.628 1.785 0 3.427.402 4.925 1.206l.508.267.203.089.216.076c.043 0 .106-.034.191-.102.186-.135.313-.203.381-.203.135 0 .224.16.266.483zm13.408-1.816c2.649 0 4.82.821 6.513 2.463 1.701 1.633 2.552 3.728 2.552 6.284 0 2.709-.855 4.93-2.565 6.665-1.709 1.735-3.897 2.603-6.563 2.603-2.734 0-4.947-.83-6.64-2.488-1.684-1.66-2.526-3.835-2.526-6.526 0-1.168.22-2.323.66-3.466.449-1.15 1.049-2.111 1.803-2.882.795-.812 1.802-1.455 3.021-1.93a10.093 10.093 0 013.745-.723zm-.825.825c-1.963 0-3.525.665-4.684 1.993-1.151 1.32-1.727 3.102-1.727 5.345 0 2.565.736 4.727 2.209 6.488 1.481 1.76 3.297 2.64 5.446 2.64 1.964 0 3.585-.715 4.863-2.145 1.278-1.44 1.917-3.259 1.917-5.46 0-2.53-.766-4.637-2.298-6.322-1.532-1.692-3.441-2.539-5.726-2.539zm28.998 9.547v-6.576c0-1.058-.152-1.824-.457-2.298-.305-.482-.821-.757-1.549-.825-.245-.025-.368-.119-.368-.28 0-.186.085-.274.254-.266.186.009.457.042.813.102.321.05.706.076 1.155.076.948 0 1.532-.013 1.752-.038.296-.026.482-.038.558-.038.161 0 .242.076.242.228 0 .127-.089.229-.267.305-.516.211-.851.508-1.003.889-.152.38-.228 1.1-.228 2.158v6.284c0 2.31-.462 4.088-1.384 5.332-.584.787-1.422 1.418-2.514 1.892a8.715 8.715 0 01-3.478.698c-1.439 0-2.734-.28-3.885-.838-1.151-.559-1.993-1.316-2.527-2.273-.6-1.1-.901-2.534-.901-4.303v-6.45l-.025-.723c0-.906-.127-1.528-.381-1.866-.246-.347-.745-.576-1.498-.686-.229-.034-.343-.123-.343-.267 0-.203.161-.304.482-.304.212 0 .504.008.876.025.39.026.673.038.851.038l.978-.012h.964c.102 0 .339-.017.711-.051.313-.026.529-.038.648-.038.194 0 .292.067.292.203 0 .16-.136.266-.407.317-.49.11-.82.326-.99.648-.161.313-.241.88-.241 1.7l.025.839V17.7c0 2.184.339 3.741 1.016 4.672.956 1.32 2.56 1.98 4.812 1.98 2.014 0 3.52-.55 4.519-1.65.999-1.109 1.498-2.776 1.498-5.002zm14.97-1.409l3.504 5.18.406.61c1.083 1.59 2.082 2.415 2.996 2.475l.406.025c.153.009.225.068.216.178-.008.127-.199.241-.571.343a4.641 4.641 0 01-1.244.152 3.574 3.574 0 01-2.057-.622c-.601-.423-1.214-1.109-1.841-2.057l-3.161-4.824-.178-.28c-.203-.346-.533-.52-.99-.52h-1.688l-.28.051c-.101.06-.152.195-.152.406v3.961l.013.508c0 .728.034 1.227.101 1.498.077.262.25.5.521.71.364.289.927.47 1.688.547.305.034.462.131.47.292.017.17-.123.254-.419.254-.118 0-.368-.017-.749-.051-.347-.034-.884-.05-1.612-.05l-1.219-.014-.66.013c-.288 0-.635.021-1.041.064-.33.034-.559.05-.686.05-.211 0-.317-.088-.317-.266 0-.127.106-.212.317-.254.677-.127 1.122-.432 1.333-.914.212-.491.318-1.452.318-2.882v-9.115l-.026-1.32c0-1.32-.461-2.057-1.383-2.21l-.597-.088c-.271-.051-.406-.153-.406-.305 0-.178.143-.267.431-.267.068 0 .364.017.889.051.305.026.681.038 1.13.038.389 0 1.054-.03 1.993-.089a29.1 29.1 0 011.79-.063c1.947 0 3.415.368 4.405 1.104.991.728 1.486 1.816 1.486 3.263 0 1.904-1.046 3.377-3.136 4.418zm-3.733-.28h1.435c1.109 0 1.981-.304 2.615-.913.635-.61.952-1.443.952-2.501 0-1.227-.431-2.235-1.294-3.022-.864-.795-1.964-1.193-3.301-1.193-.5 0-.847.084-1.041.254-.186.16-.28.457-.28.888l.013.42v5.154c0 .397.051.651.152.761.11.102.36.153.749.153zm24.733-7.007h-3.567c-.373 0-.61.05-.711.152-.094.102-.14.351-.14.75v12.44l.013.496c.042.99.596 1.578 1.663 1.764.296.051.444.149.444.292 0 .187-.118.28-.355.28-.102 0-.309-.026-.622-.076-.161-.026-.542-.038-1.143-.038l-.927-.013-.99.013c-.356 0-.656.012-.901.038-.483.05-.766.076-.851.076-.254 0-.381-.093-.381-.28 0-.135.14-.22.419-.253.652-.085 1.092-.263 1.32-.534.229-.279.343-.774.343-1.485V10.045l-.013-.33c0-.305-.046-.5-.139-.584-.085-.085-.288-.127-.61-.127h-3.364c-.685 0-1.185.14-1.498.419-.305.27-.542.787-.711 1.549-.076.33-.19.49-.343.482-.152-.008-.228-.123-.228-.343 0-.177.051-.503.152-.977.127-.61.191-1.113.191-1.511 0-.39.042-.643.127-.762.093-.127.283-.19.571-.19h13.66c.466 0 .745.05.838.152.102.102.152.402.152.902 0 .499.021.863.064 1.091a9.5 9.5 0 01.076.622c.008.254-.08.39-.267.407-.152.008-.254-.123-.304-.394-.11-.6-.288-.99-.534-1.168-.245-.186-.723-.28-1.434-.28zm11.059-1.676c.906 0 1.672.131 2.298.394l.876.368a.56.56 0 00.229.05.48.48 0 00.305-.126l.177-.153c.026-.034.072-.05.14-.05.211-.009.317.198.317.622 0 .143.055.57.165 1.282l.203 1.308c.043.279.064.452.064.52 0 .262-.089.394-.267.394-.135 0-.271-.204-.406-.61-.305-.914-.927-1.667-1.866-2.26-.931-.592-1.972-.888-3.123-.888-.914 0-1.68.27-2.298.812-.609.533-.914 1.202-.914 2.006 0 .711.199 1.325.597 1.84.347.441.723.763 1.129.966.415.203 1.427.571 3.035 1.104 3.131 1.024 4.697 2.704 4.697 5.04 0 1.583-.576 2.878-1.727 3.885-1.151 1.007-2.628 1.51-4.43 1.51-.652 0-1.371-.092-2.159-.278-.778-.187-1.349-.402-1.713-.648-.153-.102-.254-.207-.305-.317-.051-.119-.127-.415-.229-.889-.017-.068-.122-.453-.317-1.155-.22-.762-.33-1.304-.33-1.625 0-.254.085-.377.254-.369.152.009.288.216.406.623.305 1.05.948 1.93 1.93 2.64.982.711 2.048 1.067 3.199 1.067 1.168 0 2.154-.343 2.958-1.029.813-.685 1.219-1.519 1.219-2.5 0-.94-.373-1.731-1.117-2.375-.381-.33-1.482-.8-3.301-1.409-1.879-.635-3.212-1.337-3.999-2.107-.779-.77-1.168-1.77-1.168-2.996 0-1.371.508-2.489 1.523-3.352 1.024-.863 2.34-1.295 3.948-1.295z" fill="#fff"/></svg>