<svg width="287" height="16" fill="none" xmlns="http://www.w3.org/2000/svg"><path d="M3.031 11.36V3.437c0-.615-.06-1.042-.18-1.282-.114-.24-.338-.396-.671-.469l-.47-.101c-.155-.031-.233-.102-.233-.211 0-.12.085-.177.257-.172.105.005.292.024.563.055.27.031.713.047 1.328.047.526 0 .854-.008.984-.024.256-.036.404-.054.446-.054.099 0 .148.049.148.148 0 .099-.073.167-.219.203-.291.073-.49.19-.593.352-.105.156-.157.427-.157.812v.649l-.007.328v6.867l.007.375-.109 1.031c-.182.854-.55 1.57-1.102 2.149-.546.583-1.132.875-1.757.875a.798.798 0 01-.454-.125c-.13-.079-.195-.172-.195-.282 0-.046.01-.109.031-.187.016-.042.04-.138.07-.29.068-.327.167-.491.298-.491.062 0 .153.07.273.21.208.24.438.36.688.36.307 0 .562-.198.765-.594.209-.396.313-.885.313-1.469l-.024-.789zM16.875 7.508V3.46c0-.651-.094-1.122-.281-1.414-.188-.297-.506-.466-.953-.508-.151-.016-.227-.073-.227-.172 0-.114.052-.17.156-.164.115.005.282.026.5.063.198.03.435.046.711.046.584 0 .943-.007 1.078-.023.183-.016.297-.023.344-.023.1 0 .149.046.149.14 0 .078-.055.14-.165.188-.317.13-.523.312-.617.547-.093.234-.14.677-.14 1.328v3.867c0 1.422-.284 2.516-.852 3.281-.36.485-.875.873-1.547 1.164-.666.287-1.38.43-2.14.43-.886 0-1.683-.172-2.391-.516-.708-.343-1.227-.81-1.555-1.398-.37-.677-.554-1.56-.554-2.649V3.68l-.016-.446c0-.557-.078-.94-.234-1.148-.151-.214-.459-.354-.922-.422-.14-.02-.211-.075-.211-.164 0-.125.099-.188.297-.188.13 0 .31.006.539.016.24.016.414.024.523.024l.602-.008h.594c.062 0 .208-.01.437-.032.193-.015.325-.023.398-.023.12 0 .18.042.18.125 0 .099-.083.164-.25.195-.302.068-.505.2-.61.399-.098.193-.148.541-.148 1.047l.016.515v3.938c0 1.344.208 2.302.625 2.875.588.812 1.575 1.219 2.96 1.219 1.24 0 2.168-.339 2.782-1.016.615-.682.922-1.708.922-3.078zM21.875 3.203c0-.526-.088-.911-.266-1.156-.177-.245-.471-.388-.882-.43-.172-.015-.258-.07-.258-.164 0-.104.067-.156.203-.156l.617.031c.063.005.245.008.547.008.526 0 .935-.013 1.227-.04l.726-.07c.313-.025.656-.038 1.031-.038 2.136 0 3.737.536 4.805 1.609.974.979 1.46 2.232 1.46 3.758 0 .984-.213 1.888-.64 2.71a4.906 4.906 0 01-1.78 1.946 5.812 5.812 0 01-3.142.898c-.135 0-.375-.013-.718-.039a27.62 27.62 0 00-1.82-.07c-.558 0-1.042.029-1.454.086a5.206 5.206 0 01-.445.047c-.182.01-.273-.05-.273-.18 0-.088.072-.148.218-.18.354-.072.584-.203.688-.39.104-.188.156-.57.156-1.149v-7.03zm1.195-.633v8.055c0 .318.16.537.477.656.276.104.627.196 1.055.274a6.33 6.33 0 001.093.117c.89 0 1.693-.224 2.407-.672 1.208-.75 1.812-2.026 1.812-3.828 0-.98-.19-1.88-.57-2.703-.375-.823-.893-1.469-1.555-1.938-.807-.578-1.789-.867-2.945-.867-.823 0-1.347.089-1.57.266-.136.104-.204.317-.204.64zM35.695 3.617v5.844c0 .73.045 1.21.133 1.445.104.266.232.453.383.563.156.11.398.187.727.234.26.037.39.102.39.195 0 .125-.08.188-.242.188-.078 0-.177-.008-.297-.024a7.451 7.451 0 00-.828-.03l-1.133-.016-.922.054a3.78 3.78 0 01-.375.024c-.14 0-.21-.055-.21-.164 0-.094.08-.154.242-.18.395-.068.65-.203.765-.406.115-.209.172-.643.172-1.305V3.352c0-.646-.075-1.081-.227-1.305-.145-.224-.46-.375-.945-.453-.161-.032-.245-.094-.25-.188-.005-.114.07-.172.227-.172.041 0 .088.003.14.008.38.042.886.063 1.516.063.385 0 .716-.008.992-.024l.524-.039c.099-.005.164-.008.195-.008.14 0 .21.05.21.149 0 .094-.067.164-.202.21l-.407.157c-.385.146-.578.768-.578 1.867zM48.82 2.242l.25 1.875.024.196-.024.078a.144.144 0 01-.117.078c-.062.005-.156-.104-.281-.328-.974-1.709-2.294-2.563-3.961-2.563-1.328 0-2.375.409-3.14 1.227-.766.817-1.15 1.935-1.15 3.351 0 1.63.425 2.964 1.274 4 .855 1.031 1.95 1.547 3.29 1.547.78 0 1.549-.208 2.304-.625.755-.416 1.279-.922 1.57-1.515.136-.277.24-.417.313-.422.083-.006.125.044.125.148l-.008.086-.031.172-.18.953-.031.14c-.021.136-.143.277-.367.422a7.258 7.258 0 01-3.977 1.149c-1.677 0-3.029-.498-4.055-1.492-1.026-.995-1.539-2.305-1.539-3.93s.532-2.974 1.594-4.047c1.063-1.078 2.396-1.617 4-1.617 1.1 0 2.11.247 3.031.742l.313.164.125.055.133.047c.026 0 .065-.021.117-.063.114-.083.193-.125.234-.125.084 0 .138.1.164.297zM53.805 3.617v5.844c0 .73.044 1.21.133 1.445.104.266.231.453.382.563.157.11.399.187.727.234.26.037.39.102.39.195 0 .125-.08.188-.242.188-.078 0-.177-.008-.297-.024a7.45 7.45 0 00-.828-.03l-1.133-.016-.921.054a3.78 3.78 0 01-.375.024c-.141 0-.211-.055-.211-.164 0-.094.08-.154.242-.18.396-.068.65-.203.766-.406.114-.209.171-.643.171-1.305V3.352c0-.646-.075-1.081-.226-1.305-.146-.224-.461-.375-.946-.453-.161-.032-.244-.094-.25-.188-.005-.114.07-.172.227-.172.042 0 .089.003.14.008.38.042.886.063 1.516.063.386 0 .716-.008.992-.024l.524-.039c.099-.005.164-.008.195-.008.14 0 .211.05.211.149 0 .094-.067.164-.203.21l-.406.157c-.386.146-.578.768-.578 1.867zM62.992 7.914h-2.828c-.385 0-.625.031-.719.094-.093.062-.218.27-.375.625l-.508 1.148c-.229.526-.343.917-.343 1.172 0 .245.06.422.18.531.124.11.367.204.726.282.156.03.237.093.242.187.005.089-.067.133-.219.133a6.78 6.78 0 01-.265-.008l-.75-.039c-.25-.01-.54-.016-.867-.016-.151 0-.269.003-.352.008-.266.021-.411.031-.437.031-.141 0-.211-.046-.211-.14 0-.084.044-.138.132-.164l.29-.086c.104-.031.244-.156.421-.375.177-.224.323-.456.438-.695l.226-.516 4.016-8.914c.068-.156.143-.234.227-.234.083 0 .153.075.21.226l3.36 8.594.172.422c.245.63.448 1.023.61 1.18.16.15.489.27.984.359.161.031.24.096.234.195-.005.089-.078.133-.219.133-.047 0-.146-.005-.297-.016-.27-.026-.752-.039-1.445-.039-.724 0-1.177.016-1.36.047-.109.02-.19.031-.242.031-.135 0-.203-.054-.203-.164 0-.083.065-.138.196-.164l.242-.055c.26-.052.39-.229.39-.53 0-.277-.158-.826-.476-1.65l-.39-1.03c-.11-.287-.196-.451-.259-.493-.062-.046-.24-.07-.53-.07zm.094-1.25L61.859 3.57l-.062-.164c-.063-.166-.13-.252-.203-.258-.037-.005-.078.045-.125.149L59.945 6.68c-.067.146-.101.242-.101.289 0 .135.12.203.36.203l.21.008h2.36c.26 0 .39-.065.39-.196a.701.701 0 00-.039-.18l-.04-.14zM71.234 9.89l.008.274c0 .625.06.995.18 1.11.12.114.51.171 1.172.171.974 0 1.818-.114 2.531-.343.719-.235 1.177-.542 1.375-.922.073-.14.146-.211.219-.211.083 0 .122.052.117.156-.02.344-.19.721-.508 1.133-.448.568-1.174.851-2.18.851-.166 0-.359-.007-.578-.023l-.843-.063a21.443 21.443 0 00-1.57-.054c-.641 0-1.178.031-1.61.094a4.92 4.92 0 01-.438.046c-.13.006-.195-.041-.195-.14 0-.084.07-.146.211-.188.36-.11.599-.268.719-.476.125-.214.187-.57.187-1.07l.008-.36V2.891c0-.693-.281-1.097-.844-1.211l-.351-.07c-.125-.027-.188-.079-.188-.157 0-.12.089-.18.266-.18.12 0 .284.01.492.032.354.03.753.047 1.195.047.48 0 .914-.013 1.305-.04.198-.01.31-.015.336-.015.125 0 .188.039.188.117 0 .115-.076.19-.227.227l-.273.062c-.47.115-.704.58-.704 1.399V9.89zM84.258 9.64V3.61c0-.688-.102-1.193-.305-1.516-.203-.328-.518-.492-.945-.492-.214 0-.32-.058-.32-.172 0-.12.104-.18.312-.18.042 0 .174.005.398.016a19.122 19.122 0 001.54 0l.874-.055c.276-.016.537-.024.782-.024 1.15 0 2.054.23 2.71.688.662.458.993 1.089.993 1.89 0 .829-.344 1.472-1.031 1.93l-.336.235c-.078.047-.115.086-.11.117.006.052.14.107.407.164.572.13 1.044.443 1.414.937a2.77 2.77 0 01.554 1.704c0 .958-.354 1.75-1.062 2.375-.703.62-1.6.93-2.688.93l-.601-.024-.727-.031-.633-.04a16.82 16.82 0 00-.992-.039c-.245 0-.453.01-.625.032-.25.03-.427.047-.531.047-.146 0-.219-.058-.219-.172 0-.089.078-.143.235-.164.442-.063.705-.308.789-.735.078-.375.117-.838.117-1.39zm1.726-3.663h1.29c1.307 0 1.96-.589 1.96-1.766 0-.724-.278-1.333-.836-1.828-.557-.495-1.244-.742-2.062-.742-.36 0-.596.052-.711.156-.115.099-.172.31-.172.633v3.132c0 .183.029.297.086.344.063.047.211.07.445.07zm-.101.554c-.188 0-.307.018-.36.055-.046.031-.07.112-.07.242v3.61l-.016.359.047.305c.073.223.26.385.563.484.307.094.779.14 1.414.14.818 0 1.453-.213 1.906-.64.453-.432.68-1.034.68-1.805 0-.791-.25-1.448-.75-1.969-.495-.52-1.12-.78-1.875-.78h-1.54zM98.71 6.64l2.157 3.188.25.375c.667.98 1.281 1.487 1.844 1.524l.25.015c.094.005.138.042.133.11-.005.078-.123.148-.352.21a2.851 2.851 0 01-.765.094c-.469 0-.891-.127-1.266-.383-.37-.26-.747-.682-1.133-1.265l-1.945-2.969-.11-.172c-.125-.213-.328-.32-.609-.32h-1.039l-.172.031c-.062.037-.094.12-.094.25v2.438l.008.312c0 .448.021.755.063.922a.87.87 0 00.32.438c.224.177.57.289 1.04.335.187.021.283.081.288.18.01.104-.075.156-.258.156a6.68 6.68 0 01-.46-.03 11.31 11.31 0 00-.993-.032l-.75-.008-.406.008c-.177 0-.39.013-.64.039-.204.02-.344.031-.423.031-.13 0-.195-.055-.195-.164 0-.078.065-.13.195-.156.417-.078.69-.266.82-.563.131-.302.196-.893.196-1.773V3.85l-.016-.812c0-.812-.283-1.266-.851-1.36l-.367-.054c-.167-.031-.25-.094-.25-.188 0-.109.088-.164.265-.164.042 0 .224.01.547.032.188.015.42.023.695.023.24 0 .649-.018 1.227-.055.417-.026.784-.039 1.102-.039 1.197 0 2.101.227 2.71.68.61.448.915 1.117.915 2.008 0 1.172-.644 2.078-1.93 2.719zm-2.296-.171h.883c.682 0 1.219-.188 1.61-.563.39-.375.585-.888.585-1.539 0-.755-.265-1.375-.797-1.86-.53-.489-1.208-.734-2.03-.734-.308 0-.522.053-.642.157-.114.099-.171.28-.171.547l.007.257v3.172c0 .245.032.401.094.469.068.063.221.094.461.094zM110.305 7.914h-2.828c-.386 0-.625.031-.719.094-.094.062-.219.27-.375.625l-.508 1.148c-.229.526-.344.917-.344 1.172 0 .245.06.422.18.531.125.11.367.204.727.282.156.03.236.093.242.187.005.089-.068.133-.219.133-.057 0-.146-.003-.266-.008l-.75-.039c-.25-.01-.539-.016-.867-.016-.151 0-.268.003-.351.008-.266.021-.412.031-.438.031-.141 0-.211-.046-.211-.14 0-.084.044-.138.133-.164l.289-.086c.104-.031.245-.156.422-.375a3.66 3.66 0 00.437-.695l.227-.516 4.016-8.914c.067-.156.143-.234.226-.234.083 0 .154.075.211.226l3.359 8.594.172.422c.245.63.448 1.023.61 1.18.161.15.489.27.984.359.162.031.24.096.234.195-.005.089-.078.133-.218.133-.047 0-.146-.005-.297-.016-.271-.026-.753-.039-1.445-.039-.724 0-1.178.016-1.36.047-.109.02-.19.031-.242.031-.135 0-.203-.054-.203-.164 0-.083.065-.138.195-.164l.242-.055c.261-.052.391-.229.391-.53 0-.277-.159-.826-.477-1.65l-.39-1.03c-.11-.287-.196-.451-.258-.493-.063-.046-.24-.07-.531-.07zm.093-1.25l-1.226-3.094-.063-.164c-.062-.166-.13-.252-.203-.258-.036-.005-.078.045-.125.149l-1.523 3.383c-.068.146-.102.242-.102.289 0 .135.12.203.36.203l.211.008h2.359c.26 0 .391-.065.391-.196a.7.7 0 00-.039-.18l-.04-.14zM125.461 4.328v6.547c0 .588-.013.948-.039 1.078-.026.125-.099.185-.219.18a.272.272 0 01-.18-.07l-.171-.204-6.586-7.53-.078-.087a.152.152 0 00-.11-.047c-.099 0-.148.117-.148.352v5.297l-.008.328.023.555c.037.343.125.58.266.71.141.13.417.227.828.29.172.02.258.088.258.203 0 .104-.055.156-.164.156-.073 0-.151-.005-.235-.016-.057-.01-.283-.026-.679-.047l-.797-.039-.375.016c-.203 0-.396.013-.578.04a2.21 2.21 0 01-.289.03c-.136 0-.209-.05-.219-.148-.005-.078.068-.143.219-.195.437-.152.731-.352.882-.602.157-.255.235-.664.235-1.227V4.586c0-.901-.143-1.61-.43-2.125-.286-.52-.7-.818-1.242-.89-.141-.022-.211-.081-.211-.18 0-.1.057-.149.172-.149.026 0 .068.003.125.008l.32.008.524.015.125-.007a7.45 7.45 0 01.289-.008c.13 0 .26.075.39.226l7.188 8.141c.114.13.187.193.219.188.052-.006.08-.055.086-.149V5.797l.007-1.055-.093-1.797c-.052-.442-.183-.755-.391-.937-.203-.188-.573-.326-1.109-.414-.151-.026-.227-.091-.227-.196 0-.099.076-.148.227-.148.067 0 .177.008.328.023.359.042.841.063 1.445.063.323 0 .581-.016.773-.047.167-.031.295-.047.383-.047.136 0 .209.055.219.164.005.068-.047.117-.156.149-.318.078-.529.208-.633.39-.099.183-.148.524-.148 1.024v.844l-.016.515zM138.273 2.242l.25 1.875.024.196-.024.078a.144.144 0 01-.117.078c-.062.005-.156-.104-.281-.328-.974-1.709-2.294-2.563-3.961-2.563-1.328 0-2.375.409-3.141 1.227-.765.817-1.148 1.935-1.148 3.351 0 1.63.424 2.964 1.273 4 .855 1.031 1.951 1.547 3.29 1.547.781 0 1.549-.208 2.304-.625.755-.416 1.279-.922 1.57-1.515.136-.277.24-.417.313-.422.083-.006.125.044.125.148l-.008.086-.031.172-.18.953-.031.14c-.021.136-.143.277-.367.422a7.259 7.259 0 01-3.977 1.149c-1.677 0-3.028-.498-4.054-1.492-1.026-.995-1.54-2.305-1.54-3.93s.532-2.974 1.594-4.047c1.063-1.078 2.396-1.617 4-1.617 1.099 0 2.11.247 3.032.742l.312.164.125.055.133.047c.026 0 .065-.021.117-.063.115-.083.193-.125.234-.125.084 0 .138.1.164.297zM143.922 6.164h4.609c.229 0 .375-.02.438-.062.062-.042.093-.136.093-.282V3.156c0-.536-.07-.916-.21-1.14-.136-.224-.388-.378-.758-.461-.156-.032-.232-.094-.227-.188.005-.088.071-.133.195-.133.11 0 .287.013.532.04.344.036.708.054 1.094.054.557 0 .947-.016 1.171-.047.141-.02.237-.031.289-.031.125 0 .188.05.188.148 0 .079-.063.13-.188.157l-.32.07c-.161.031-.297.148-.406.352-.11.197-.164.427-.164.687v7.555c0 .557.078.943.234 1.156.156.213.456.344.899.39.161.021.244.073.25.157.01.125-.063.187-.219.187-.104 0-.24-.013-.406-.039-.125-.02-.386-.03-.782-.03l-.578-.009-.586.016c-.093 0-.218.008-.375.023-.323.026-.502.04-.539.04-.13.005-.192-.047-.187-.157.005-.094.093-.153.265-.18.547-.093.821-.539.821-1.335l.007-.305V7.266c0-.245-.023-.388-.07-.43-.047-.042-.203-.063-.469-.063h-4.601c-.297 0-.482.032-.555.094-.073.057-.109.209-.109.453v2.867c0 .542.086.922.258 1.141.172.219.492.354.961.406.192.021.291.089.296.204.006.109-.07.164-.226.164a3.41 3.41 0 01-.383-.04c-.141-.025-.453-.039-.937-.039l-.657-.007-.515.015c-.131 0-.295.008-.493.024a9.88 9.88 0 01-.492.03c-.13 0-.195-.049-.195-.148 0-.093.068-.156.203-.187l.391-.094c.229-.052.385-.224.469-.515.083-.292.124-.803.124-1.532V2.906c0-.453-.085-.781-.257-.984-.172-.203-.479-.339-.922-.406-.151-.021-.227-.079-.227-.172 0-.11.068-.162.203-.157.099.006.256.021.469.047.406.047.883.07 1.43.07.37 0 .716-.02 1.039-.062a2.4 2.4 0 01.328-.031c.151 0 .227.055.227.164 0 .083-.071.143-.211.18-.349.088-.584.216-.703.383-.12.161-.18.434-.18.82v2.789c0 .297.028.474.086.531.062.057.255.086.578.086zM164.102 1.125c1.63 0 2.966.505 4.007 1.516 1.047 1.005 1.571 2.294 1.571 3.867 0 1.666-.526 3.034-1.578 4.101-1.053 1.068-2.399 1.602-4.04 1.602-1.682 0-3.044-.51-4.085-1.531-1.037-1.021-1.555-2.36-1.555-4.016 0-.719.135-1.43.406-2.133.276-.708.646-1.3 1.11-1.773.489-.5 1.109-.896 1.859-1.188a6.21 6.21 0 012.305-.445zm-.508.508c-1.209 0-2.17.409-2.883 1.226-.708.813-1.063 1.91-1.063 3.29 0 1.578.454 2.908 1.36 3.992.911 1.083 2.028 1.625 3.351 1.625 1.209 0 2.206-.44 2.993-1.32.786-.886 1.179-2.006 1.179-3.36 0-1.557-.471-2.854-1.414-3.89-.943-1.042-2.117-1.563-3.523-1.563zM174.312 2.516v3.093l.008.149v.203c.021.14.17.21.446.21l.672.016.257-.007.922-.016c.479 0 .828-.07 1.047-.21.219-.147.357-.394.414-.743.021-.125.073-.188.156-.188.099 0 .144.081.133.243l-.047.773c-.005.099-.008.258-.008.477 0 .609.011.997.032 1.164.01.099.015.172.015.218 0 .125-.047.188-.14.188-.099 0-.177-.128-.235-.383-.062-.276-.13-.463-.203-.562-.073-.1-.195-.17-.367-.211-.349-.089-.862-.133-1.539-.133-.625 0-1.031.013-1.219.039-.182.026-.284.086-.304.18a2.01 2.01 0 00-.04.468v2.899c0 .411.11.74.329.984.218.245.513.367.882.367.178 0 .269.053.274.157.01.12-.068.18-.235.18a4.98 4.98 0 01-.476-.032 6.891 6.891 0 00-.766-.031l-.539-.008-.601.008c-.131 0-.308.01-.532.031l-.398.024c-.151.005-.227-.042-.227-.141 0-.084.081-.143.243-.18.333-.073.56-.213.679-.422.12-.208.18-.567.18-1.078V3.203c0-.495-.081-.875-.242-1.14-.104-.178-.219-.297-.344-.36-.125-.062-.341-.107-.648-.133-.125-.01-.19-.057-.196-.14-.01-.136.094-.203.313-.203.068 0 .229.013.484.039.464.046 1.248.07 2.352.07.984 0 1.617-.008 1.898-.024l1.086-.054c.469-.021.771-.044.906-.07.099-.021.185-.032.258-.032.115 0 .172.06.172.18 0 .062-.013.148-.039.258-.089.338-.133.791-.133 1.36 0 .239-.068.358-.203.358-.078 0-.122-.065-.133-.195a3.242 3.242 0 00-.086-.492c-.067-.266-.153-.435-.258-.508-.098-.078-.322-.133-.671-.164l-.922-.094c-.292-.026-.662-.039-1.11-.039-.583 0-.945.04-1.086.117-.14.073-.211.266-.211.579zM195.211 2.242l.25 1.875.023.196-.023.078a.144.144 0 01-.117.078c-.063.005-.156-.104-.282-.328-.973-1.709-2.294-2.563-3.96-2.563-1.329 0-2.375.409-3.141 1.227-.766.817-1.149 1.935-1.149 3.351 0 1.63.425 2.964 1.274 4 .854 1.031 1.95 1.547 3.289 1.547.781 0 1.549-.208 2.305-.625.755-.416 1.278-.922 1.57-1.515.135-.277.24-.417.312-.422.084-.006.126.044.126.148l-.008.086-.032.172-.179.953-.031.14c-.021.136-.144.277-.368.422a7.256 7.256 0 01-3.976 1.149c-1.677 0-3.029-.498-4.055-1.492-1.026-.995-1.539-2.305-1.539-3.93s.531-2.974 1.594-4.047c1.062-1.078 2.396-1.617 4-1.617 1.099 0 2.109.247 3.031.742l.313.164.124.055.133.047c.026 0 .065-.021.117-.063.115-.083.193-.125.235-.125.083 0 .138.1.164.297zM203.352 7.914h-2.829c-.385 0-.625.031-.718.094-.094.062-.219.27-.375.625l-.508 1.148c-.229.526-.344.917-.344 1.172 0 .245.06.422.18.531.125.11.367.204.726.282.157.03.237.093.243.187.005.089-.068.133-.219.133-.057 0-.146-.003-.266-.008l-.75-.039c-.25-.01-.539-.016-.867-.016-.151 0-.268.003-.352.008-.265.021-.411.031-.437.031-.141 0-.211-.046-.211-.14 0-.084.044-.138.133-.164l.289-.086c.104-.031.245-.156.422-.375a3.66 3.66 0 00.437-.695l.227-.516 4.015-8.914c.068-.156.144-.234.227-.234.083 0 .154.075.211.226l3.359 8.594.172.422c.245.63.448 1.023.61 1.18.161.15.489.27.984.359.161.031.24.096.234.195-.005.089-.078.133-.218.133-.047 0-.146-.005-.297-.016-.271-.026-.753-.039-1.446-.039-.724 0-1.177.016-1.359.047-.109.02-.19.031-.242.031-.136 0-.203-.054-.203-.164 0-.083.065-.138.195-.164l.242-.055c.261-.052.391-.229.391-.53 0-.277-.159-.826-.477-1.65l-.39-1.03c-.11-.287-.196-.451-.258-.493-.063-.046-.24-.07-.531-.07zm.093-1.25l-1.226-3.094-.063-.164c-.062-.166-.13-.252-.203-.258-.036-.005-.078.045-.125.149l-1.523 3.383c-.068.146-.102.242-.102.289 0 .135.12.203.359.203l.211.008h2.36c.26 0 .39-.065.39-.196a.7.7 0 00-.039-.18l-.039-.14zM211.594 9.89l.008.274c0 .625.059.995.179 1.11.12.114.511.171 1.172.171.974 0 1.818-.114 2.531-.343.719-.235 1.177-.542 1.375-.922.073-.14.146-.211.219-.211.083 0 .123.052.117.156-.021.344-.19.721-.507 1.133-.448.568-1.175.851-2.18.851-.167 0-.36-.007-.578-.023l-.844-.063a21.437 21.437 0 00-1.57-.054c-.641 0-1.177.031-1.61.094a4.916 4.916 0 01-.437.046c-.13.006-.196-.041-.196-.14 0-.084.071-.146.211-.188.36-.11.599-.268.719-.476.125-.214.188-.57.188-1.07l.007-.36V2.891c0-.693-.281-1.097-.843-1.211l-.352-.07c-.125-.027-.187-.079-.187-.157 0-.12.088-.18.265-.18.12 0 .284.01.492.032.355.03.753.047 1.196.047.479 0 .914-.013 1.304-.04.198-.01.31-.015.336-.015.125 0 .188.039.188.117 0 .115-.076.19-.227.227l-.273.062c-.469.115-.703.58-.703 1.399V9.89zM221.07 3.617v5.844c0 .73.045 1.21.133 1.445.104.266.232.453.383.563.156.11.398.187.726.234.261.037.391.102.391.195 0 .125-.081.188-.242.188-.078 0-.177-.008-.297-.024a7.437 7.437 0 00-.828-.03l-1.133-.016-.922.054a3.78 3.78 0 01-.375.024c-.14 0-.211-.055-.211-.164 0-.094.081-.154.243-.18.395-.068.651-.203.765-.406.115-.209.172-.643.172-1.305V3.352c0-.646-.076-1.081-.227-1.305-.145-.224-.46-.375-.945-.453-.161-.032-.245-.094-.25-.188-.005-.114.07-.172.227-.172.041 0 .088.003.14.008.381.042.886.063 1.516.063.385 0 .716-.008.992-.024l.524-.039a4.76 4.76 0 01.195-.008c.141 0 .211.05.211.149 0 .094-.068.164-.203.21l-.407.157c-.385.146-.578.768-.578 1.867zM227.078 2.516v3.093l.008.149v.203c.021.14.169.21.445.21l.672.016.258-.007.922-.016c.479 0 .828-.07 1.047-.21.218-.147.356-.394.414-.743.021-.125.073-.188.156-.188.099 0 .143.081.133.243l-.047.773c-.005.099-.008.258-.008.477 0 .609.011.997.031 1.164.011.099.016.172.016.218 0 .125-.047.188-.141.188-.099 0-.177-.128-.234-.383-.062-.276-.13-.463-.203-.562-.073-.1-.195-.17-.367-.211-.349-.089-.862-.133-1.539-.133-.625 0-1.032.013-1.219.039-.182.026-.284.086-.305.18a2.023 2.023 0 00-.039.468v2.899c0 .411.11.74.328.984.219.245.513.367.883.367.177 0 .268.053.273.157.011.12-.067.18-.234.18a4.98 4.98 0 01-.476-.032 6.904 6.904 0 00-.766-.031l-.539-.008-.602.008c-.13 0-.307.01-.531.031l-.398.024c-.151.005-.227-.042-.227-.141 0-.084.081-.143.242-.18.334-.073.56-.213.68-.422.12-.208.18-.567.18-1.078V3.203c0-.495-.081-.875-.243-1.14-.104-.178-.218-.297-.343-.36-.125-.062-.341-.107-.649-.133-.125-.01-.19-.057-.195-.14-.01-.136.094-.203.312-.203.068 0 .23.013.485.039.463.046 1.247.07 2.351.07.985 0 1.618-.008 1.899-.024l1.086-.054c.468-.021.771-.044.906-.07.099-.021.185-.032.258-.032.114 0 .172.06.172.18 0 .062-.013.148-.039.258-.089.338-.133.791-.133 1.36 0 .239-.068.358-.203.358-.078 0-.123-.065-.133-.195a3.37 3.37 0 00-.086-.492c-.068-.266-.154-.435-.258-.508-.099-.078-.323-.133-.672-.164l-.922-.094c-.291-.026-.661-.039-1.109-.039-.583 0-.945.04-1.086.117-.141.073-.211.266-.211.579zM239.055 1.125c1.63 0 2.966.505 4.007 1.516 1.047 1.005 1.571 2.294 1.571 3.867 0 1.666-.526 3.034-1.578 4.101-1.052 1.068-2.399 1.602-4.039 1.602-1.683 0-3.045-.51-4.086-1.531-1.037-1.021-1.555-2.36-1.555-4.016 0-.719.135-1.43.406-2.133.276-.708.646-1.3 1.11-1.773.489-.5 1.109-.896 1.859-1.188a6.21 6.21 0 012.305-.445zm-.508.508c-1.208 0-2.169.409-2.883 1.226-.708.813-1.062 1.91-1.062 3.29 0 1.578.453 2.908 1.359 3.992.911 1.083 2.029 1.625 3.351 1.625 1.209 0 2.206-.44 2.993-1.32.786-.886 1.179-2.006 1.179-3.36 0-1.557-.471-2.854-1.414-3.89-.942-1.042-2.117-1.563-3.523-1.563zM252.102 6.64l2.156 3.188.25.375c.666.98 1.281 1.487 1.844 1.524l.25.015c.093.005.138.042.132.11-.005.078-.122.148-.351.21a2.854 2.854 0 01-.766.094c-.469 0-.89-.127-1.265-.383-.37-.26-.748-.682-1.133-1.265l-1.946-2.969-.109-.172c-.125-.213-.328-.32-.609-.32h-1.039l-.172.031c-.063.037-.094.12-.094.25v2.438l.008.312c0 .448.021.755.062.922a.87.87 0 00.321.438c.224.177.57.289 1.039.335.187.021.284.081.289.18.01.104-.076.156-.258.156-.073 0-.227-.01-.461-.03a11.31 11.31 0 00-.992-.032l-.75-.008-.406.008c-.178 0-.391.013-.641.039-.203.02-.344.031-.422.031-.13 0-.195-.055-.195-.164 0-.078.065-.13.195-.156.417-.078.69-.266.82-.563.131-.302.196-.893.196-1.773V3.85l-.016-.812c0-.812-.284-1.266-.851-1.36l-.368-.054c-.166-.031-.25-.094-.25-.188 0-.109.089-.164.266-.164.042 0 .224.01.547.032.187.015.419.023.695.023.24 0 .649-.018 1.227-.055.416-.026.784-.039 1.101-.039 1.198 0 2.102.227 2.711.68.61.448.914 1.117.914 2.008 0 1.172-.643 2.078-1.929 2.719zm-2.297-.171h.883c.682 0 1.218-.188 1.609-.563.391-.375.586-.888.586-1.539 0-.755-.266-1.375-.797-1.86-.531-.489-1.208-.734-2.031-.734-.308 0-.521.053-.641.157-.115.099-.172.28-.172.547l.008.257v3.172c0 .245.031.401.094.469.067.063.221.094.461.094zM267.414 4.328v6.547c0 .588-.013.948-.039 1.078-.026.125-.099.185-.219.18a.267.267 0 01-.179-.07l-.172-.204-6.586-7.53-.078-.087a.152.152 0 00-.11-.047c-.099 0-.148.117-.148.352v5.297l-.008.328.023.555c.037.343.125.58.266.71.141.13.417.227.828.29.172.02.258.088.258.203 0 .104-.055.156-.164.156-.073 0-.151-.005-.234-.016-.058-.01-.284-.026-.68-.047l-.797-.039L259 12c-.203 0-.396.013-.578.04a2.21 2.21 0 01-.289.03c-.136 0-.209-.05-.219-.148-.005-.078.068-.143.219-.195.437-.152.732-.352.883-.602.156-.255.234-.664.234-1.227V4.586c0-.901-.143-1.61-.43-2.125-.286-.52-.7-.818-1.242-.89-.14-.022-.211-.081-.211-.18 0-.1.057-.149.172-.149.026 0 .068.003.125.008l.32.008.524.015.125-.007a7.45 7.45 0 01.289-.008c.13 0 .26.075.39.226l7.188 8.141c.115.13.188.193.219.188.052-.006.08-.055.086-.149V5.797l.007-1.055-.093-1.797c-.052-.442-.183-.755-.391-.937-.203-.188-.573-.326-1.109-.414-.151-.026-.227-.091-.227-.196 0-.099.076-.148.227-.148.067 0 .177.008.328.023.359.042.841.063 1.445.063.323 0 .581-.016.774-.047.166-.031.294-.047.382-.047.136 0 .209.055.219.164.005.068-.047.117-.156.149-.318.078-.529.208-.633.39-.099.183-.148.524-.148 1.024v.844l-.016.515zM273.102 3.617v5.844c0 .73.044 1.21.132 1.445.105.266.232.453.383.563.156.11.399.187.727.234.26.037.39.102.39.195 0 .125-.08.188-.242.188-.078 0-.177-.008-.297-.024a7.437 7.437 0 00-.828-.03l-1.133-.016-.922.054a3.78 3.78 0 01-.374.024c-.141 0-.211-.055-.211-.164 0-.094.08-.154.242-.18.396-.068.651-.203.765-.406.115-.209.172-.643.172-1.305V3.352c0-.646-.075-1.081-.226-1.305-.146-.224-.461-.375-.946-.453-.161-.032-.244-.094-.25-.188-.005-.114.071-.172.227-.172.042 0 .088.003.141.008.38.042.885.063 1.515.063.386 0 .716-.008.992-.024l.524-.039a4.76 4.76 0 01.195-.008c.141 0 .211.05.211.149 0 .094-.068.164-.203.21l-.406.157c-.386.146-.578.768-.578 1.867zM282.289 7.914h-2.828c-.385 0-.625.031-.719.094-.094.062-.219.27-.375.625l-.508 1.148c-.229.526-.343.917-.343 1.172 0 .245.06.422.179.531.125.11.367.204.727.282.156.03.237.093.242.187.005.089-.068.133-.219.133a6.73 6.73 0 01-.265-.008l-.75-.039c-.25-.01-.539-.016-.868-.016-.151 0-.268.003-.351.008-.266.021-.412.031-.438.031-.14 0-.211-.046-.211-.14 0-.084.045-.138.133-.164l.289-.086c.105-.031.245-.156.422-.375.177-.224.323-.456.438-.695l.226-.516 4.016-8.914c.068-.156.143-.234.226-.234.084 0 .154.075.211.226l3.36 8.594.172.422c.244.63.448 1.023.609 1.18.162.15.49.27.984.359.162.031.24.096.235.195-.005.089-.078.133-.219.133-.047 0-.146-.005-.297-.016-.271-.026-.752-.039-1.445-.039-.724 0-1.177.016-1.36.047-.109.02-.19.031-.242.031-.135 0-.203-.054-.203-.164 0-.083.065-.138.195-.164l.243-.055c.26-.052.39-.229.39-.53 0-.277-.159-.826-.476-1.65l-.391-1.03c-.109-.287-.195-.451-.258-.493-.062-.046-.239-.07-.531-.07zm.094-1.25l-1.227-3.094-.062-.164c-.063-.166-.13-.252-.203-.258-.037-.005-.079.045-.125.149l-1.524 3.383c-.068.146-.101.242-.101.289 0 .135.119.203.359.203l.211.008h2.359c.261 0 .391-.065.391-.196a.7.7 0 00-.039-.18l-.039-.14z" fill="#fff"/></svg>