<svg id="Layer_1" data-name="Layer 1" xmlns="http://www.w3.org/2000/svg" viewBox="0 0 512 512"><path fill="currentColor" class="cls-1" d="M460.81,0H51.19A51.14,51.14,0,0,0,.24,51.22L0,512,102.41,409.59h358.4A51.32,51.32,0,0,0,512,358.41V51.22A51.35,51.35,0,0,0,460.81,0ZM155.43,237.71a27.43,27.43,0,1,1,27.43-27.43A27.43,27.43,0,0,1,155.43,237.71Zm109.71,0a27.43,27.43,0,1,1,27.43-27.43A27.43,27.43,0,0,1,265.14,237.71Zm109.72,0a27.43,27.43,0,1,1,27.43-27.43A27.43,27.43,0,0,1,374.86,237.71Z"/></svg>