<svg id="Layer_1" data-name="Layer 1" xmlns="http://www.w3.org/2000/svg" viewBox="0 0 512 309.36"><path fill="currentColor" d="M101,171.48s-43.36,49.73-55.47,65H0c.71,0,0,141.1,0,144.73,5,0,43.39-1.45,45.52,0,0,0,15.65,2.9,22.76,5.81,10,6.52,71.48,15.31,93.53,18.21a55.83,55.83,0,0,0,19.55.64c26.55-3.86,27.9-37,27.9-37,22.76-27.56,9.92-41.34,13.51-49.32,17.79-35.54,4.54-47.15,5-50.78,3.56-8,10.31-11.93,10.31-32.24s-23.47-30.95-39.83-30.95-38.15,2.32-45.26-2,15.45-21.83,19-56.65-13-47.36-30-42.29-19,26.52-21.15,32.33-4.14,5.61-5.56,10S104.67,168.58,101,171.48Z" transform="translate(0 -97.05)"/><path fill="currentColor" d="M431.26,325.74s29-59.26,36.77-77.11l44-11.78c-.69.18-36.52-136.3-37.46-139.8-4.81,1.28-41.53,12.63-44,11.78,0,0-15.86,1.24-23.48.28-11.31-3.73-73,3.71-95.06,6.61A56.2,56.2,0,0,0,293,120.16c-24.64,10.61-17.35,43-17.35,43-14.85,32.52,1.12,42.51-.29,51.14-8,38.94,7.82,46.72,8.33,50.34-1.37,8.63-6.87,14.19-1.61,33.81s30.68,23.82,46.48,19.59,36.26-12.12,44.25-9.75-9.28,25.08-3.7,59.63,24.79,42.4,40,33.07,11.5-30.54,12.06-36.69,2.55-6.49,2.79-11.07S428.46,329.49,431.26,325.74Z" transform="translate(0 -97.05)"/></svg>