<svg width="80" height="80" viewBox="0 0 80 80" fill="none" xmlns="http://www.w3.org/2000/svg">
<path fill-rule="evenodd" clip-rule="evenodd" d="M80 40C80 62.0914 62.0914 80 40 80C17.9086 80 0 62.0914 0 40C0 17.9086 17.9086 0 40 0C62.0914 0 80 17.9086 80 40ZM71.1086 60.0397C64.5213 70.2444 53.0497 77 40.0001 77C26.9506 77 15.4789 70.2444 8.8916 60.0397C17.8812 54.316 28.5534 51 40.0002 51C51.4469 51 62.1191 54.316 71.1086 60.0397ZM40 47C51.0457 47 60 38.0457 60 27C60 15.9543 51.0457 7 40 7C28.9543 7 20 15.9543 20 27C20 38.0457 28.9543 47 40 47Z" fill="white"/>
</svg>
