<svg width="80" height="80" viewBox="0 0 80 80" fill="none" xmlns="http://www.w3.org/2000/svg">
<g clip-path="url(#clip0)">
<path d="M-47 43C-47 28.0883 -34.9117 16 -20 16C-5.08831 16 7 28.0883 7 43V58H-47V43Z" fill="white"/>
<path d="M73 43C73 28.0883 85.0883 16 100 16C114.912 16 127 28.0883 127 43V58H73V43Z" fill="white"/>
<path d="M13 63H67" stroke="white" stroke-width="2"/>
<path d="M-35 63H7" stroke="white" stroke-width="2"/>
<path d="M73 63H115" stroke="white" stroke-width="2"/>
<path fill-rule="evenodd" clip-rule="evenodd" d="M40 16C25.0883 16 13 28.0883 13 43V58H67V43C67 28.0883 54.9117 16 40 16ZM34.0006 35.9171C34.0002 35.9447 34 35.9723 34 36C34 38.6124 35.6696 40.8349 38 41.6586V44.2302C37.0094 44.4622 36.082 44.8631 35.2505 45.4024C36.2911 46.3102 37.9448 47 40.0002 47C42.0557 47 43.7094 46.3101 44.7501 45.4023C43.9184 44.8629 42.9908 44.462 42 44.23V41.6586C44.3304 40.8349 46 38.6124 46 36C46 35.9723 45.9998 35.9447 45.9994 35.9171C45.6744 35.9716 45.3405 36 45 36C42.913 36 41.0749 34.9345 40 33.3178C38.9251 34.9345 37.087 36 35 36C34.6595 36 34.3256 35.9716 34.0006 35.9171ZM44.5297 43C47.9636 44.5995 50.4261 47.9649 50.7125 51.9746L51 56H29L29.2875 51.9746C29.5739 47.9649 32.0364 44.5995 35.4703 43H32V36C32 31.5817 35.5817 28 40 28C44.4183 28 48 31.5817 48 36V43H44.5297Z" fill="white"/>
</g>
<defs>
<clipPath id="clip0">
<rect width="80" height="80" fill="white"/>
</clipPath>
</defs>
</svg>
