<svg width="80" height="80" viewBox="0 0 80 80" fill="none" xmlns="http://www.w3.org/2000/svg">
<path fill-rule="evenodd" clip-rule="evenodd" d="M13 76V0H55L70 15V20L70 72H69V74C69 76.7614 71.2386 79 74 79C74.0167 79 74.0334 78.9999 74.05 78.9998L74 80H17C14.7909 80 13 78.2091 13 76ZM76.948 21.04L77 20H72L72 72H74V23.5C74 22.1193 75.1193 21 76.5 21C76.6529 21 76.8027 21.0137 76.948 21.04ZM54 16V3H52V17V18H53H55V24L67 18V16H54ZM44 12H18V18H44V12ZM48 28L34 28V26L48 26V28ZM64 28L50 28V26L64 26V28ZM48 32L34 32V30L48 30V32ZM64 32L50 32V30L64 30V32ZM48 36H34V34H48V36ZM64 36H50V34H64V36ZM48 40H34V38H48V40ZM57 40H50V38H57V40ZM48 44H34V42H48V44ZM32 44H18V42H32V44ZM32 48H18V46H32V48ZM48 48H34V46H48V48ZM32 52H18V50H32V52ZM48 52H34V50H48V52ZM23 61H59V59H23V61ZM34 66H48V64H34V66ZM64 66V64H50V66H64ZM18 66H32V64H18V66ZM18 70H32V68H18V70ZM34 70H48V68H34V70ZM64 70V68H50V70H64ZM18 74H32V72H18V74ZM34 74H48V72H34V74ZM19 26H18V27V39V40H19H31H32V39V27V26H31H19ZM20 38V28H30V38H20ZM50 42H51H63H64V43V51V52H63H51H50V51V43V42ZM52 44V50H62V44H52Z" fill="white"/>
<path fill-rule="evenodd" clip-rule="evenodd" d="M76.5 20C78.433 20 80 21.567 80 23.5V74C80 77.3137 77.3137 80 74 80C70.6863 80 68 77.3137 68 74V72V71H69H70L70 73V74C70 76.2091 71.7909 78 74 78C76.2091 78 78 76.2091 78 74V23.5C78 22.6716 77.3284 22 76.5 22C75.6716 22 75 22.6716 75 23.5V72V73H74H72V71H73V23.5C73 21.567 74.567 20 76.5 20Z" fill="white"/>
</svg>
