<svg width="80" height="80" viewBox="0 0 80 80" fill="none" xmlns="http://www.w3.org/2000/svg">
<g clip-path="url(#clip0)">
<path d="M56 80L24 80L24 72L56 72L56 80Z" fill="white"/>
<path fill-rule="evenodd" clip-rule="evenodd" d="M55.0095 37.5923L55.265 26.3502C56.0776 25.5174 57.2132 25 58.4658 25C60.4462 25 62.0792 26.283 62.6713 28H62C60.885 28 59.8534 28.518 59.1194 29.3743C58.3895 30.2259 58 31.3521 58 32.5C58 33.6479 58.3895 34.7741 59.1194 35.6257C59.8534 36.482 60.885 37 62 37H62.0073C62.0024 37.2344 62 37.469 62 37.7036V48.2732C62 52.6038 60.397 56.7811 57.5 60C54.603 63.2189 53 65.6694 53 70H28C28 66.8951 27.2771 63.5542 25.8885 60.7771L25.5895 60.1789C23.2289 55.4579 22 50.252 22 44.9737C22 40.7845 22.6299 19.5852 22.8898 11.4277C22.951 9.50932 24.5236 8 26.443 8C28.405 8 29.9961 9.58859 30 11.5497V7C30 4.79086 31.7909 3 34 3C36.2091 3 38 4.79086 38 7L38 4C38 1.79086 39.7909 0 42 0C44.2091 0 46 1.79086 46 4V6.55467C46 4.59148 47.5915 3 49.5547 3C51.4746 3 53.0476 4.52462 53.1076 6.44365L53.4552 17.9578L53.0222 37.0127C46.8867 37.2985 42 42.3633 42 48.5695V51H44V48.5695C44 43.2844 48.2844 39 53.5695 39C54.3523 39 54.9917 38.3749 55.0095 37.5923ZM62.8716 30H62C61.5237 30 61.0292 30.2195 60.6379 30.6759C60.2426 31.1371 60 31.7914 60 32.5C60 33.2086 60.2426 33.8629 60.6379 34.3241C61.0292 34.7805 61.5237 35 62 35H62.1085C62.2332 33.4484 62.4653 31.9062 62.8034 30.3846C62.832 30.256 62.8546 30.1277 62.8716 30ZM47 16V34H49V36H27V34H29L29 16H31V34H37V16H39V34H45V16H47Z" fill="white"/>
<path fill-rule="evenodd" clip-rule="evenodd" d="M44.0625 11C44.3386 11 44.5625 11.2239 44.5625 11.5C44.5625 11.7761 44.7863 12 45.0625 12L48.1473 12C48.6386 12 49.0571 12.3569 49.1347 12.842L51.0126 24.5785C51.2071 25.7945 53 25.652 53 24.4205L53 6.75C53 4.67893 51.3211 3 49.25 3C48.7759 3 48.3182 3.07039 47.8868 3.2013C47.1569 3.4228 46.2069 3.04295 45.8308 2.37936C45.0255 0.958649 43.4997 -4.15272e-07 41.75 -4.91753e-07C40.0003 -5.68235e-07 38.4745 0.958649 37.6692 2.37936C37.2931 3.04295 36.3431 3.42281 35.6132 3.2013C35.1818 3.07039 34.7241 3 34.25 3C31.6612 3 29.5625 5.09867 29.5625 7.6875C29.5625 8.20778 28.9461 8.52606 28.4628 8.33351C27.9226 8.11832 27.3333 8 26.7164 8C24.6543 8 22.9733 9.65406 22.9401 11.7159L22.7062 26.2124C22.6864 27.4453 24.48 27.6147 24.6913 26.3998L26.3559 16.8287C26.4392 16.3497 26.8549 16 27.3411 16L30.4375 16C30.9898 16 31.4375 15.5523 31.4375 15C31.4375 14.4477 31.8852 14 32.4375 14L37.9375 14C38.4898 14 38.9375 13.5523 38.9375 13L38.9375 12C38.9375 11.4477 39.3852 11 39.9375 11L44.0625 11Z" fill="white"/>
</g>
<defs>
<clipPath id="clip0">
<rect width="80" height="80" fill="white"/>
</clipPath>
</defs>
</svg>
