<svg width="80" height="80" viewBox="0 0 80 80" fill="none" xmlns="http://www.w3.org/2000/svg">
<g clip-path="url(#clip0)">
<path d="M3.70335e-06 51L4.29153e-06 17L8 17L8 51L3.70335e-06 51Z" fill="white"/>
<path d="M80 51L80 17L72 17L72 51L80 51Z" fill="white"/>
<path fill-rule="evenodd" clip-rule="evenodd" d="M70 19L70 49L67.9999 50.5001V45.4234C67.9999 44.2727 67.6029 43.1572 66.876 42.2651L56.8064 29.9068C57.5006 28.9175 58.0597 27.8132 58.4509 26.614L56.5495 25.9937C54.9677 30.8425 50.1138 33.8467 45.0657 33.1069C44.3161 32.997 43.562 33.2845 43.0762 33.8674L41.5797 35.6633C39.7135 37.9026 37.1837 39.4905 34.3557 40.1975L34.0141 40.2829C32.5255 40.6551 30.9524 40.1853 29.9116 39.0578C29.288 38.3822 28.9309 37.5622 28.8289 36.7215C28.8948 36.8274 28.9681 36.9306 29.0492 37.0306C29.7563 37.9025 30.8227 38.2457 31.8633 38.2036C32.9038 38.1616 33.9872 37.7406 34.9032 36.9978C35.8193 36.2549 36.4549 35.2819 36.711 34.2726C36.9671 33.2631 36.8517 32.1488 36.1446 31.2768C35.6116 30.6195 34.8743 30.2627 34.0979 30.1449L35.1269 29.3754C38.1241 27.1338 40.5988 24.268 42.3797 20.9761L40.6206 20.0244C38.9775 23.0616 36.6944 25.7056 33.929 27.7737L29.2842 31.2474C26.5432 33.2974 26.0149 37.1366 27.9684 39.836C27.5304 39.9292 27.1033 40.071 26.696 40.259C26.3042 39.8437 25.8469 39.4782 25.3295 39.1795L24.819 38.8848C21.9493 37.2279 18.2797 38.2112 16.6229 41.0809L12.6229 48.0091C12.4372 48.3307 12.2847 48.6623 12.1643 49H10V19L29.6846 20.905C32.7955 18.194 37.6439 14 43 14C48.7668 14 70 19 70 19ZM17.5737 55.2329C17.1472 55.1508 16.7269 54.9974 16.3297 54.768L15.7978 54.4609C13.901 53.3506 13.2544 50.9152 14.3549 49.0091L17.3246 43.8654C17.0372 44.5519 16.9057 45.2679 16.9488 45.9361C17.0046 46.8016 17.3742 47.7105 18.2321 48.2058C19.09 48.7011 20.0619 48.5668 20.8394 48.1823C21.6244 47.7942 22.331 47.1063 22.8302 46.2417C23.3293 45.3771 23.5718 44.4213 23.5154 43.5473C23.4596 42.6818 23.09 41.7729 22.2321 41.2776C21.3742 40.7823 20.4023 40.9166 19.6248 41.3011C19.0246 41.5978 18.4703 42.0697 18.0195 42.6619L18.3549 42.0809C19.4595 40.1678 21.9058 39.5123 23.819 40.6168L24.3295 40.9116C24.9408 41.2645 25.4237 41.7544 25.7618 42.3201C25.9643 42.6589 26.4792 42.7581 26.7936 42.5194C28.0378 41.5747 29.7767 41.4108 31.2144 42.2409L32.4032 42.9272C33.4524 43.533 34.1234 44.5424 34.3332 45.6461C34.4153 46.0782 34.9868 46.3967 35.3975 46.2395C36.4847 45.8232 37.7434 45.8828 38.8301 46.5102L39.3872 46.8318C40.5216 47.4868 41.2138 48.6135 41.3591 49.821C41.4113 50.2545 41.9495 50.606 42.3672 50.4791C43.3892 50.1688 44.5322 50.2661 45.5302 50.8422L46.1141 51.1793C48.0272 52.2839 48.6827 54.7303 47.5782 56.6434L44.5782 61.8396C43.8878 63.0353 42.6734 63.7397 41.3926 63.8303C41.073 63.8529 40.7493 63.8372 40.4286 63.7815C39.978 63.7032 39.5333 63.5457 39.1142 63.3037L38.5303 62.9666C37.5713 62.4129 36.9283 61.522 36.6646 60.5302C36.6347 60.4176 36.5354 60.344 36.4289 60.3238C36.3924 60.3169 36.3551 60.3163 36.3194 60.3225C36.2511 60.3344 36.1889 60.3714 36.1506 60.4378C36.0958 60.5327 36.0378 60.6245 35.9766 60.7131C35.7153 61.0919 35.3979 61.413 35.0422 61.6718C35.0147 61.6918 34.987 61.7114 34.9591 61.7306C34.4738 62.0651 33.9219 62.2864 33.3469 62.383C32.8871 62.4602 32.4124 62.4577 31.9449 62.3695C31.5136 62.2881 31.0884 62.1338 30.6867 61.9019L30.1295 61.5802C29.3981 61.1579 28.8505 60.5395 28.5148 59.8297C28.3845 59.5543 28.0031 59.3635 27.6379 59.3275C27.5243 59.3163 27.4122 59.3201 27.3098 59.3409C27.2146 59.3603 27.1277 59.3944 27.0556 59.4449C26.4386 59.8772 25.7119 60.1252 24.9656 60.1648C24.652 60.1814 24.3349 60.1612 24.0211 60.1024C23.588 60.0213 23.161 59.8667 22.7577 59.6338L21.569 58.9475C20.4058 58.2759 19.7076 57.1084 19.5871 55.8663C19.5566 55.552 19.282 55.2967 18.974 55.2689C18.93 55.2649 18.8853 55.2656 18.8405 55.2713C18.7356 55.2849 18.6299 55.2944 18.5239 55.2997M46.1531 63.0968C46.2073 63.0129 46.2597 62.9271 46.3102 62.8396L49.3102 57.6434C50.9671 54.7737 49.9838 51.1041 47.1141 49.4473L46.5302 49.1102C45.4363 48.4786 44.2243 48.2312 43.0541 48.325C42.5983 47.0135 41.6864 45.8499 40.3872 45.0998L39.8301 44.7781C38.6011 44.0686 37.2244 43.8441 35.9246 44.043C35.6339 43.3584 35.2145 42.7234 34.6773 42.1787L34.8408 42.1378C38.0803 41.3279 40.9784 39.5089 43.1161 36.9436L44.6127 35.1477C44.652 35.1006 44.7139 35.0767 44.7757 35.0857C48.8316 35.6801 52.783 34.2449 55.5029 31.4733L65.3256 43.5284C65.7617 44.0637 65.9999 44.733 65.9999 45.4234V52.0001H66V56.5C66 58.433 64.433 60 62.5 60C61.9632 60 61.4545 59.8791 60.9999 59.6631V47.5209C60.9999 46.2963 60.5505 45.1144 59.7369 44.1991L56.7473 40.8358L55.2525 42.1645L58.2421 45.5278C58.7302 46.077 58.9999 46.7862 58.9999 47.5209V58.5295C58.984 60.4489 57.4231 62 55.5 62C54.9632 62 54.4545 61.8791 53.9999 61.6631V49.0001V48.5859L53.707 48.293L50.207 44.793L48.7928 46.2072L51.9999 49.4143V59.3421L51.9997 60.5C51.9997 62.433 50.4327 64 48.4997 64C47.5969 64 46.7739 63.6582 46.1531 63.0968ZM31.5503 32.8631C32.1647 32.3649 32.8421 32.1252 33.4112 32.1022C33.9803 32.0792 34.3724 32.2667 34.5912 32.5365C34.81 32.8064 34.9125 33.2288 34.7724 33.7808C34.6324 34.3329 34.2578 34.9462 33.6435 35.4443C33.0292 35.9425 32.3518 36.1823 31.7826 36.2053C31.2136 36.2282 30.8215 36.0407 30.6027 35.7709C30.3839 35.5011 30.2814 35.0787 30.4214 34.5267C30.5615 33.9746 30.936 33.3613 31.5503 32.8631ZM19.2321 46.4737C19.1335 46.4168 18.9728 46.244 18.9446 45.8073C18.917 45.379 19.0368 44.812 19.3661 44.2417C19.6953 43.6714 20.1265 43.2841 20.5112 43.0939C20.9035 42.8999 21.1335 42.9527 21.2321 43.0096C21.3307 43.0666 21.4914 43.2393 21.5196 43.676C21.5472 44.1044 21.4274 44.6714 21.0981 45.2417C20.7689 45.812 20.3377 46.1993 19.953 46.3895C19.5607 46.5835 19.3307 46.5307 19.2321 46.4737ZM27.1603 48.7418C27.0617 48.6849 26.901 48.5121 26.8728 48.0754C26.8452 47.6471 26.965 47.0801 27.2943 46.5098C27.6236 45.9394 28.0547 45.5522 28.4395 45.3619C28.8317 45.168 29.0617 45.2208 29.1603 45.2777C29.259 45.3347 29.4196 45.5074 29.4478 45.9441C29.4754 46.3724 29.3556 46.9394 29.0264 47.5098C28.6971 48.0801 28.2659 48.4673 27.8812 48.6576C27.4889 48.8515 27.259 48.7988 27.1603 48.7418ZM25.5623 45.5098C25.0631 46.3743 24.8206 47.3302 24.877 48.2041C24.9328 49.0697 25.3024 49.9785 26.1603 50.4739C27.0183 50.9692 27.9901 50.8348 28.7676 50.4504C29.5527 50.0622 30.2592 49.3743 30.7584 48.5098C31.2576 47.6452 31.5 46.6893 31.4437 45.8154C31.3878 44.9498 31.0183 44.041 30.1603 43.5457C29.3024 43.0503 28.3305 43.1847 27.553 43.5691C26.768 43.9573 26.0614 44.6452 25.5623 45.5098ZM34.0885 52.7418C33.9899 52.6849 33.8292 52.5121 33.8011 52.0754C33.7734 51.6471 33.8933 51.0801 34.2225 50.5098C34.5518 49.9394 34.9829 49.5522 35.3677 49.3619C35.76 49.168 35.9899 49.2208 36.0885 49.2777C36.1872 49.3347 36.3479 49.5074 36.376 49.9441C36.4037 50.3724 36.2838 50.9394 35.9546 51.5098C35.6253 52.0801 35.1942 52.4673 34.8094 52.6576C34.4171 52.8515 34.1872 52.7988 34.0885 52.7418ZM32.4905 49.5098C31.9913 50.3743 31.7489 51.3302 31.8052 52.2041C31.861 53.0697 32.2306 53.9785 33.0885 54.4739C33.9465 54.9692 34.9184 54.8348 35.6959 54.4504C36.4809 54.0622 37.1875 53.3743 37.6866 52.5098C38.1858 51.6452 38.4282 50.6893 38.3719 49.8154C38.3161 48.9498 37.9465 48.041 37.0885 47.5457C36.2306 47.0503 35.2587 47.1847 34.4812 47.5691C33.6962 47.9573 32.9896 48.6452 32.4905 49.5098ZM40.7293 56.0754C40.7575 56.5121 40.9181 56.6849 41.0168 56.7418C41.1154 56.7988 41.3454 56.8515 41.7376 56.6576C42.1224 56.4673 42.5535 56.0801 42.8828 55.5098C43.2121 54.9394 43.3319 54.3724 43.3042 53.9441C43.2761 53.5074 43.1154 53.3347 43.0168 53.2777C42.9181 53.2208 42.6882 53.168 42.2959 53.3619C41.9112 53.5522 41.48 53.9394 41.1507 54.5098C40.8215 55.0801 40.7017 55.6471 40.7293 56.0754ZM38.7334 56.2041C38.6771 55.3302 38.9195 54.3743 39.4187 53.5098C39.9179 52.6452 40.6244 51.9573 41.4095 51.5691C42.187 51.1847 43.1588 51.0503 44.0168 51.5457C44.8747 52.041 45.2443 52.9498 45.3001 53.8154C45.3565 54.6893 45.114 55.6452 44.6148 56.5098C44.1157 57.3743 43.4091 58.0622 42.6241 58.4504C41.8466 58.8348 40.8747 58.9692 40.0168 58.4739C39.1588 57.9785 38.7893 57.0697 38.7334 56.2041Z" fill="white"/>
</g>
<defs>
<clipPath id="clip0">
<rect width="80" height="80" fill="white"/>
</clipPath>
</defs>
</svg>
