<svg width="80" height="80" viewBox="0 0 80 80" fill="none" xmlns="http://www.w3.org/2000/svg">
<path d="M6 71L6 41L0 41L1.01226e-06 71L6 71Z" fill="white"/>
<path fill-rule="evenodd" clip-rule="evenodd" d="M46 33C54.8366 33 62 25.8366 62 17C62 12.0725 59.7726 7.66532 56.2697 4.7303L57 4L61 7.99999C67.6274 14.6274 67.6274 25.3726 61 32C54.3726 38.6274 43.6274 38.6274 37 32L33 28L33.7303 27.2697C36.6653 30.7726 41.0725 33 46 33Z" fill="white"/>
<circle cx="46" cy="17" r="16" stroke="white" stroke-width="2"/>
<path d="M50.625 11.4353C49.625 10.0118 47.5 9.23529 46 9.23529M46 9.23529C44.5 9.23529 41.5 9.75294 41.5 12.9882C41.5 15.5765 43.125 15.7059 46 16.7412C49.25 17.9059 51 18.6824 51 20.8824C51 23.4706 48.5 25.2824 46 25.2824M46 9.23529V6M46 25.2824C43.5 25.2824 41.875 23.6 41 22.3059M46 25.2824V28" stroke="white" stroke-width="2" stroke-miterlimit="10" stroke-linecap="square" stroke-linejoin="round"/>
<path fill-rule="evenodd" clip-rule="evenodd" d="M71.1702 55.9985L76.3297 53.7872C76.5166 53.7071 76.6941 53.6147 76.8616 53.5113C76.4649 52.8808 76.0227 52.5211 75.5757 52.3087C75.1138 52.0892 74.5884 51.9999 74.0002 51.9999C72.3434 51.9999 71.0002 53.343 71.0002 54.9999C71.0002 55.3515 71.0603 55.6872 71.1702 55.9985ZM69.3295 56.7873C69.1165 56.231 69.0002 55.6279 69.0002 54.9999C69.0002 52.2385 71.2388 49.9999 74.0002 49.9999C74.7838 49.9999 75.6251 50.1179 76.4339 50.5022C77.1179 50.8272 77.7385 51.3237 78.2669 52.0277C78.9133 50.8427 78.9525 49.352 78.2107 48.0827C77.3803 46.6618 75.7953 45.9268 74.2339 46.1304L53.5179 55.8903C51.8113 57.1557 49.5562 57.6123 47.3941 56.9634L34.5443 53.1074C32.097 52.373 29.5556 51.9999 27.0005 51.9999V49.9999C29.7503 49.9999 32.4854 50.4015 35.1191 51.1918L42.795 53.4952C42.4284 52.6809 42.3188 51.7643 42.6589 50.8764C43.1097 49.6997 44.1819 49.0133 45.3382 48.7441C46.5012 48.4733 47.861 48.5858 49.1664 49.0859C50.4717 49.5859 51.5587 50.4107 52.2431 51.3892C52.7119 52.0595 53.0188 52.8504 53.0168 53.6625C53.3763 53.2715 53.6775 52.8163 53.9014 52.3059C54.7175 50.4455 54.309 48.2751 52.8725 46.8386L52.4325 46.3987L52.3941 46.3738C50.4917 45.1419 48.326 44.375 46.0723 44.1351L40.6802 43.5611C40.2892 43.5195 39.9065 43.4205 39.5445 43.2673L28.29 38.504C25.9448 37.5114 23.4242 37 20.8776 37C15.8339 37 11.9967 39.0036 8.43019 42.5701L8.00024 43.0001L8 65L31.1717 70.6113C33.6589 71.1886 36.2654 70.9576 38.6123 69.9518L69.3295 56.7873ZM55.7644 47.6133C56.4186 49.153 56.5036 50.9028 55.9567 52.5304L71.8299 45.0522C70.6772 44.1177 68.9758 43.654 67.6764 44.0601L55.7644 47.6133ZM44.8667 53.1068C45.2932 53.7166 46.0373 54.3124 47.02 54.6888C48.0026 55.0652 48.9544 55.1191 49.6791 54.9503C50.4107 54.78 50.8024 54.4209 50.9443 54.0504C51.0862 53.68 51.0347 53.151 50.6042 52.5356C50.1777 51.9257 49.4335 51.3299 48.4509 50.9535C47.4683 50.5771 46.5165 50.5232 45.7917 50.692C45.0602 50.8623 44.6685 51.2214 44.5265 51.5919C44.3846 51.9623 44.4362 52.4913 44.8667 53.1068Z" fill="white"/>
</svg>
