<svg width="80" height="80" viewBox="0 0 80 80" fill="none" xmlns="http://www.w3.org/2000/svg">
<path fill-rule="evenodd" clip-rule="evenodd" d="M41.4926 0H38.639C33.9789 0 30.3052 3.96721 30.6626 8.61357L31.4339 18.6402C32.2427 17.8861 33.2381 17.3163 34.3632 17.0095L45.4494 13.986C46.6799 13.6504 47.9308 13.4936 49.1689 13.5056L49.4775 8.49138C49.7607 3.88855 46.1041 0 41.4926 0ZM49.0458 15.5051L48.0797 31.2043L48.0358 28.6107C48.0182 27.5742 46.988 26.8612 46.0117 27.2098L42.3273 28.5257C41.5313 28.81 41 29.564 41 30.4092V34.3814C41 35.0114 40.8738 35.612 40.6454 36.1592C40.3858 36.7811 39.6738 37 39 37H38C37.0993 37 36.2541 37.2382 35.5242 37.655C34.7722 38.0844 33.8215 38.3215 33.1948 37.724C33.0831 37.6175 32.9767 37.5054 32.876 37.3882L32.8407 36.9291C33.0542 36.9757 33.2746 37 33.5 37C35.433 37 37 35.2091 37 33C37 30.7909 35.433 29 33.5 29C33.06 29 32.6389 29.0928 32.2509 29.2622L31.6665 21.6641C32.2705 20.3594 33.4266 19.338 34.8894 18.939L45.9757 15.9155C46.9913 15.6385 48.0233 15.5043 49.0458 15.5051ZM29.2461 23H28C25.7909 23 24 24.7909 24 27C24 29.2091 25.7909 31 28 31H26C23.7909 31 22 32.7909 22 35C22 37.2091 23.7909 39 26 39H31.6413C30.5575 37.8881 29.8601 36.3939 29.7725 34.7293L29.2147 24.1307C29.1945 23.7485 29.2057 23.3707 29.2461 23ZM34.3846 57L35 65H46L46.5319 56.357C46.5129 56.2519 46.5022 56.1439 46.5003 56.0336L46.0839 31.4698C46.0661 30.4146 45.0173 29.6887 44.0234 30.0437C43.4097 30.2629 43 30.8442 43 31.4959V34.3814C43 35.0317 42.9062 35.6601 42.7314 36.2537C42.4324 37.2693 42.6628 38.4362 43.2288 39.3309C43.7172 40.1032 44 41.0186 44 42V43C44 43.6818 43.8635 44.3317 43.6165 44.9239C43.1036 46.1531 43.1036 47.8469 43.6165 49.0761C43.8635 49.6683 44 50.3182 44 51V52C44 54.7614 41.7614 57 39 57H34.3846Z" fill="white"/>
<rect x="24" y="77" width="32" height="3" fill="white"/>
<path d="M19 71C19 67.6863 21.6863 65 25 65H55C58.3137 65 61 67.6863 61 71V75H19V71Z" fill="white"/>
<path fill-rule="evenodd" clip-rule="evenodd" d="M40.3997 39.7995C39.6781 40.2978 38.8441 40.6596 37.9476 40.8491C38.578 41.3654 39 42.0992 39 43C39 44.8536 37.2132 46 35.5 46C33.7868 46 32 44.8536 32 43C32 41.8102 32.7362 40.9118 33.7166 40.4209C32.933 40.0777 32.2303 39.5936 31.6525 39H26C23.7909 39 22 40.7909 22 43C22 45.2091 23.7909 47 26 47H38C40.2091 47 42 45.2091 42 43C42 41.6912 41.3714 40.5292 40.3997 39.7995ZM37 43C37 42.6444 36.5482 42 35.5 42C34.4518 42 34 42.6444 34 43C34 43.3556 34.4518 44 35.5 44C36.5482 44 37 43.3556 37 43Z" fill="white"/>
<path fill-rule="evenodd" clip-rule="evenodd" d="M29 55H38C40.2091 55 42 53.2091 42 51C42 48.7909 40.2091 47 38 47H29C26.7909 47 25 48.7909 25 51C25 53.2091 26.7909 55 29 55ZM35.5 50C36.5482 50 37 50.6444 37 51C37 51.3556 36.5482 52 35.5 52C34.4518 52 34 51.3556 34 51C34 50.6444 34.4518 50 35.5 50ZM39 51C39 49.1464 37.2132 48 35.5 48C33.7868 48 32 49.1464 32 51C32 52.8536 33.7868 54 35.5 54C37.2132 54 39 52.8536 39 51Z" fill="white"/>
<path d="M80 55L80 23L72 23L72 55L80 55Z" fill="white"/>
<path fill-rule="evenodd" clip-rule="evenodd" d="M34.8896 18.9393L45.9758 15.9158C50.2728 14.7439 54.8617 16.1276 57.7947 19.4795C59.2358 21.1264 61.1121 22.3336 63.2082 22.9625L70.0002 25.0001L70.0002 51.0001C66.721 51.0001 63.4959 51.8358 60.6294 53.4283L60.5002 53.5001C57.5489 55.1396 54.2285 56.0001 50.8524 56.0001H48.5002L48.0002 26.5001L41.0002 29.0001V34.3817C41.0002 36.9324 38.9325 39.0001 36.3818 39.0001C34.7321 39.0001 33.2763 38.1328 32.4589 36.8201C32.7878 36.937 33.1374 37 33.5 37C35.433 37 37 35.2091 37 33C37 30.7909 35.433 29 33.5 29C32.7612 29 32.0759 29.2616 31.5111 29.7081L31.2121 24.0259C31.0884 21.6763 32.6196 19.5584 34.8896 18.9393ZM35 33C35 34.3638 34.0859 35 33.5 35C32.9141 35 32 34.3638 32 33C32 31.6362 32.9141 31 33.5 31C34.0859 31 35 31.6362 35 33Z" fill="white"/>
<path fill-rule="evenodd" clip-rule="evenodd" d="M24 27.5C24 28.1177 24.1245 28.7064 24.3497 29.2422C24.6104 29.8625 24.4194 30.6642 23.8926 31.0826C22.7394 31.9986 22 33.4129 22 35C22 36.1571 22.3931 37.2225 23.053 38.0697C23.4622 38.5951 23.4622 39.4049 23.053 39.9303C22.3931 40.7775 22 41.8429 22 43C22 44.8621 23.0179 46.4865 24.5277 47.347C25.1795 47.7185 25.5258 48.6423 25.2784 49.3507C25.098 49.8671 25 50.4221 25 51C25 53.2091 26.7909 55 29 55H31C31.5523 55 32 54.5523 32 54V48V46.2198C32 46.0984 31.9016 46 31.7802 46C31.6754 46 31.5852 45.926 31.5647 45.8233L30.0883 38.4417C30.037 38.1849 29.8115 38 29.5495 38C29.246 38 29 37.754 29 37.4505V32V30V23.5C29 23.2239 28.7761 23 28.5 23C26.0147 23 24 25.0147 24 27.5Z" fill="white"/>
</svg>
