<svg width="80" height="80" viewBox="0 0 80 80" fill="none" xmlns="http://www.w3.org/2000/svg">
<rect y="40" width="80" height="8" fill="white"/>
<path fill-rule="evenodd" clip-rule="evenodd" d="M77 50H3V72H77V50ZM26 54H25V55V69V70H26H54H55V69V55V54H54H26ZM27 68V56H53V68H27ZM59 54H60H70H71V55V69V70H70H60H59V69V55V54ZM61 56V68H69V56H61ZM10 54H9V55V69V70H10H20H21V69V55V54H20H10ZM11 68V56H19V68H11Z" fill="white"/>
<path fill-rule="evenodd" clip-rule="evenodd" d="M45.8596 26.4029L45.6512 26.836L44.7501 26.4024C45.6512 26.836 45.6509 26.8365 45.6507 26.837L45.6502 26.8381L45.6491 26.8404L45.6465 26.8457L45.6397 26.8592C45.6346 26.8694 45.6281 26.8821 45.6202 26.8972C45.6043 26.9273 45.5829 26.9667 45.5555 27.0141C45.5008 27.1088 45.4221 27.2361 45.3171 27.3849C45.1076 27.6818 44.7892 28.0701 44.3422 28.4572C43.4363 29.2416 42.0228 30.0001 40.0002 30.0001C37.9776 30.0001 36.5641 29.2416 35.6583 28.4573C35.2113 28.0702 34.8929 27.6819 34.6834 27.385C34.5784 27.2362 34.4997 27.1089 34.445 27.0142C34.4177 26.9668 34.3962 26.9274 34.3804 26.8973C34.3725 26.8823 34.366 26.8695 34.3608 26.8593L34.3541 26.8458L34.3515 26.8405L34.3504 26.8382L34.3499 26.8371C34.3496 26.8366 34.3494 26.8361 35.2505 26.4025L34.3494 26.8361L34.1408 26.4026C32.224 27.7948 30.8082 29.8629 30.2646 32.3095L29 38H51L49.7354 32.3095C49.1918 29.863 47.7762 27.795 45.8596 26.4029ZM33.7592 22.0057C32.6585 20.6352 32 18.8945 32 17C32 12.5817 35.5817 9 40 9C44.4183 9 48 12.5817 48 17C48 18.8945 47.3415 20.6352 46.2408 22.0057C46.2542 21.978 46.2674 21.9502 46.2804 21.9223C46.8267 20.7492 47 19.3746 47 18.0001C47 16.0029 46.1623 14.1997 44.8218 12.9257L44.2161 12.3499L43.5419 12.8438C42.5493 13.571 41.3263 14.0001 40.0001 14.0001C38.6739 14.0001 37.4508 13.571 36.4582 12.8437L35.7841 12.3498L35.1783 12.9255C33.8378 14.1996 33 16.0029 33 18.0001C33 19.3746 33.1733 20.7492 33.7196 21.9223C33.7326 21.9502 33.7458 21.978 33.7592 22.0057ZM37.5676 26.0536L37 25.2303L37.5676 26.0535L38 25.7554V25.2303V23.6587V22.9515L37.3332 22.7159C36.4405 22.4003 35.8868 21.8387 35.5327 21.0781C35.1615 20.2809 35 19.238 35 18.0001C35 16.852 35.3861 15.7952 36.037 14.9508C37.2057 15.6184 38.5593 16.0001 40.0001 16.0001C41.4408 16.0001 42.7944 15.6185 43.9631 14.9509C44.6139 15.7953 45 16.8521 45 18.0001C45 19.238 44.8385 20.2809 44.4673 21.0781C44.1132 21.8387 43.5595 22.4003 42.6668 22.7159L42 22.9515V23.6587V25.2301V25.7638L42.4435 26.0609L43.3337 26.6572C43.2455 26.7507 43.1454 26.8479 43.033 26.9453C42.4388 27.4598 41.4774 28.0001 40.0002 28.0001C38.523 28.0001 37.5616 27.4598 36.9675 26.9454C36.857 26.8496 36.7585 26.7541 36.6714 26.6621C36.7874 26.5843 36.8972 26.5102 36.9975 26.4423C37.1659 26.3284 37.308 26.2315 37.4082 26.1629L37.5252 26.0827L37.5565 26.0612L37.5647 26.0556L37.5668 26.0541L37.5674 26.0537L37.5676 26.0536L37.5676 26.0536Z" fill="white"/>
<path fill-rule="evenodd" clip-rule="evenodd" d="M70 8C71.6569 8 73 9.34315 73 11V14.124C73.6372 15.2722 74 16.5937 74 18C74 19.4063 73.6372 20.7278 73 21.876V27.3692C74.3336 28.6825 75.3062 30.3781 75.7354 32.3095L77 38H55L56.2646 32.3095C56.8083 29.8629 58.224 27.7947 60.1408 26.4026L60.3494 26.836L61.2505 26.4024C60.3494 26.836 60.3496 26.8364 60.3498 26.8369L60.3504 26.838L60.3515 26.8403L60.3541 26.8456L60.3608 26.8591C60.3659 26.8694 60.3724 26.8821 60.3804 26.8971C60.3962 26.9272 60.4176 26.9666 60.445 27.014C60.4997 27.1087 60.5784 27.236 60.6834 27.3848C60.8929 27.6817 61.2113 28.0701 61.6583 28.4571C62.5641 29.2415 63.9776 30 66.0002 30C68.0228 30 69.4363 29.2415 70.3422 28.4571C70.7892 28.07 71.1076 27.6816 71.3171 27.3847C71.4221 27.2359 71.5008 27.1086 71.5555 27.0139C71.5829 26.9665 71.6043 26.9271 71.6202 26.897C71.6281 26.882 71.6346 26.8692 71.6397 26.859L71.6465 26.8455L71.6491 26.8402L71.6502 26.8379L71.6507 26.8368C71.6509 26.8363 71.6512 26.8358 70.7501 26.4022L71.6512 26.8358L72.033 26.0424L71.2942 25.5632C70.8861 25.2985 70.4545 25.0095 70.1235 24.7855L70 24.7019V24.3091C71.6577 23.4232 72.1543 21.8074 72.6015 20.352L72.6021 20.3502C72.6298 20.2599 72.6574 20.1703 72.685 20.0815L73.0885 18.7844H71.7302C68.3812 18.7844 66.1307 17.2673 64.2775 14.9744L63.5489 14.073L62.764 14.9258L59.397 18.5842L59.0467 18.9648L59.1549 19.4706C59.5437 21.2873 60.0405 23.2884 62 24.3126V24.7022L61.8766 24.7858C61.8584 24.7981 61.84 24.8106 61.8213 24.8232C59.529 23.4164 58 20.8867 58 18C58 13.5817 61.5817 10 66 10C66.3882 10 66.7699 10.0276 67.1434 10.0811C67.5314 8.87373 68.6637 8 70 8ZM68 23.6585V22.9514L68.6667 22.7157C69.5956 22.3874 69.9848 21.8043 70.3771 20.7113C67.4324 20.3847 65.2367 18.9933 63.4775 17.1039L61.2223 19.5543C61.6325 21.32 62.0792 22.2725 63.3332 22.7157L64 22.9514V23.6585V23.6586V25.2301V25.7553L63.5676 26.0534L63 25.2301L63.5676 26.0534L63.5675 26.0534L63.5674 26.0535L63.5668 26.0539L63.5646 26.0554L63.5564 26.0611L63.5252 26.0826L63.4082 26.1628C63.308 26.2313 63.1658 26.3282 62.9975 26.4422C62.8972 26.51 62.7874 26.5841 62.6713 26.662C62.7584 26.754 62.857 26.8495 62.9675 26.9452C63.5616 27.4597 64.5229 28 66.0002 28C67.4774 28 68.4388 27.4597 69.0329 26.9452C69.1435 26.8494 69.242 26.7539 69.3291 26.6619C69.213 26.584 69.1031 26.5099 69.0028 26.4421C68.8344 26.3282 68.6922 26.2312 68.592 26.1627L68.475 26.0825L68.4437 26.061L68.4355 26.0554L68.4334 26.0539L68.4328 26.0535L68.4326 26.0534L68.4326 26.0533L69 25.2299L68.4325 26.0533L68 25.7552V25.2299V23.6585Z" fill="white"/>
<path fill-rule="evenodd" clip-rule="evenodd" d="M10.6923 26.648C11.1131 26.4758 11.55 26.3356 12 26.2302V26.2302C11.5499 26.3357 11.1129 26.4759 10.692 26.6482C10.6851 26.6528 10.6782 26.6575 10.6713 26.6621C10.7584 26.7541 10.8569 26.8496 10.9674 26.9453C11.5614 27.4598 12.5227 28.0001 14.0002 28.0001C15.4777 28.0001 16.439 27.4597 17.0331 26.9453C17.1436 26.8496 17.2421 26.754 17.3292 26.6621C17.3222 26.6574 17.3152 26.6527 17.3083 26.648C16.8873 26.4757 16.4502 26.3355 16 26.23V26.23C16.4501 26.3354 16.8871 26.4756 17.308 26.6478C17.1997 26.5752 17.0971 26.5059 17.0028 26.4422C16.8344 26.3283 16.6922 26.2314 16.592 26.1628L16.475 26.0826L16.4437 26.0611L16.4355 26.0555L16.4334 26.054L16.4328 26.0536L16.4326 26.0535L16.4326 26.0535L17 25.23L16.4325 26.0534L16 25.7554V25.23V23.6587V22.9515L16.6668 22.7158C17.5595 22.4003 18.1132 21.8387 18.4673 21.078C18.7338 20.5058 18.8922 19.8068 18.9604 19C17.0168 18.9892 15.2611 18.1858 14 16.8989C12.7389 18.1858 10.9832 18.9892 9.03963 19C9.10779 19.8068 9.26618 20.5058 9.53265 21.078C9.88683 21.8387 10.4405 22.4003 11.3332 22.7158L12 22.9515V23.6587V25.2302V25.7554L11.5676 26.0535L11 25.2302L11.5676 26.0535L11.5676 26.0536L11.5674 26.0537L11.5668 26.0541L11.5647 26.0556L11.5565 26.0612L11.5252 26.0827L11.4082 26.1629C11.308 26.2314 11.1659 26.3284 10.9975 26.4423C10.9033 26.5061 10.8006 26.5753 10.6923 26.648ZM14 10C9.58172 10 6 13.5817 6 18V25H9.55893C9.6715 24.9245 9.77846 24.8524 9.87659 24.7859L10 24.7023V24.3165C8.92966 23.7721 8.19062 22.9339 7.71956 21.9223C7.17333 20.7491 7 19.3746 7 18.0001C7 17.9679 7.00022 17.9358 7.00065 17.9037L7.01643 16.7382L8.16592 16.931C8.43653 16.9764 8.71511 17.0001 9 17.0001C10.7382 17.0001 12.2698 16.114 13.1673 14.7642L14 13.5118L14.8327 14.7642C15.7302 16.114 17.2618 17.0001 19 17.0001C19.2849 17.0001 19.5635 16.9763 19.8341 16.931L20.9836 16.7382L20.9993 17.9037C20.9998 17.9358 21 17.9679 21 18.0001C21 19.3746 20.8267 20.7491 20.2804 21.9223C19.8094 22.9339 19.0703 23.7721 18 24.3165V24.702L18.1235 24.7857C18.2218 24.8522 18.3289 24.9244 18.4417 25H22V18C22 13.5817 18.4183 10 14 10ZM19.8595 26.4029L19.6512 26.8359L18.7501 26.4024C19.6512 26.8359 19.651 26.8364 19.6507 26.8369L19.6502 26.8379L19.6491 26.8402L19.6465 26.8455L19.6398 26.859C19.6347 26.8693 19.6281 26.882 19.6202 26.897C19.6044 26.9271 19.5829 26.9665 19.5556 27.014C19.5009 27.1087 19.4222 27.2359 19.3172 27.3848C19.1077 27.6817 18.7893 28.0701 18.3423 28.4572C17.4365 29.2416 16.023 30.0001 14.0002 30.0001C11.9775 30.0001 10.5639 29.2416 9.65814 28.4572C9.21115 28.0702 8.89281 27.6818 8.68334 27.3849C8.57831 27.2361 8.49963 27.1088 8.44496 27.0141C8.4176 26.9667 8.39614 26.9272 8.38032 26.8972C8.37241 26.8821 8.36589 26.8694 8.36074 26.8591L8.35403 26.8456L8.35143 26.8403L8.35032 26.838L8.34981 26.837C8.34956 26.8365 8.34933 26.836 9.25049 26.4025L8.34933 26.836L8.14085 26.4026C6.22398 27.7947 4.80825 29.8629 4.26456 32.3095L3 38H25L23.7354 32.3095C23.1918 29.863 21.7762 27.795 19.8595 26.4029Z" fill="white"/>
</svg>
