<svg width="80" height="80" viewBox="0 0 80 80" fill="none" xmlns="http://www.w3.org/2000/svg">
<path d="M57.0495 32L61 28M57.0495 32L53 28M57.0495 32V25C57.0495 20.5817 53.4678 17 49.0495 17H41" stroke="white" stroke-width="2"/>
<path d="M22.9505 48L19 52M22.9505 48L27 52M22.9505 48V55C22.9505 59.4183 26.5322 63 30.9505 63H39" stroke="white" stroke-width="2"/>
<path fill-rule="evenodd" clip-rule="evenodd" d="M77 38H45V67H59L73 78V67H77V38ZM61.4363 49.406L63.2183 54.14H58.7813L60.5633 49.415C60.6293 49.235 60.7013 49.028 60.7793 48.794C60.8573 48.554 60.9293 48.293 60.9953 48.011C61.1453 48.575 61.2923 49.04 61.4363 49.406ZM65.5763 59H67.2053L62.0663 46.04H59.9333L54.7943 59H56.4233C56.6033 59 56.7533 58.949 56.8733 58.847C56.9933 58.745 57.0773 58.634 57.1253 58.514L58.2053 55.652H63.7853L64.8653 58.514C64.9253 58.652 65.0123 58.769 65.1263 58.865C65.2403 58.955 65.3903 59 65.5763 59Z" fill="white"/>
<path fill-rule="evenodd" clip-rule="evenodd" d="M3.00011 3H35.0001L35 32H21L7.00011 43L7 32H3L3.00011 3ZM25.585 14.775V16.545H20.68C21.925 18.84 24.025 21.075 26.23 22.275C25.795 22.635 25.18 23.34 24.895 23.835C23.005 22.62 21.28 20.7 19.96 18.54V25.305H18.055V18.615C16.75 20.79 15.025 22.695 13.105 23.895C12.805 23.43 12.19 22.74 11.77 22.365C14.005 21.165 16.045 18.9 17.275 16.545H12.46V14.775H18.055V11.295H19.96V14.775H25.585Z" fill="white"/>
</svg>
