<svg width="80" height="80" viewBox="0 0 80 80" fill="none" xmlns="http://www.w3.org/2000/svg">
<g clip-path="url(#clip0)">
<path fill-rule="evenodd" clip-rule="evenodd" d="M27 54C41.9117 54 54 41.9117 54 27C54 12.0883 41.9117 0 27 0C12.0883 0 0 12.0883 0 27C0 41.9117 12.0883 54 27 54ZM49 27C49 39.1503 39.1503 49 27 49C14.8497 49 5 39.1503 5 27C5 14.8497 14.8497 5 27 5C39.1503 5 49 14.8497 49 27ZM27 27C31.4183 27 35 23.4183 35 19C35 14.5817 31.4183 11 27 11C22.5817 11 19 14.5817 19 19C19 23.4183 22.5817 27 27 27ZM27.2972 29C20.2546 29 13.9772 32.2761 9.90576 37.3874C13.4156 43.1511 19.7584 47 27.0002 47C34.4171 47 40.8911 42.9627 44.3443 36.9658C40.2679 32.0966 34.1442 29 27.2972 29Z" fill="white"/>
<path d="M49 53L53 49L78 74L74 78L49 53Z" fill="white" stroke="white" stroke-width="2"/>
<path d="M45.6777 45.6777L51.0001 51.0001" stroke="white" stroke-width="2"/>
</g>
<defs>
<clipPath id="clip0">
<rect width="80" height="80" fill="white"/>
</clipPath>
</defs>
</svg>
