<svg width="80" height="80" viewBox="0 0 80 80" fill="none" xmlns="http://www.w3.org/2000/svg">
<path fill-rule="evenodd" clip-rule="evenodd" d="M22.9049 7.42866L22.0667 6.8C21.3743 6.28071 20.5321 6 19.6667 6H6C3.79086 6 2 7.79086 2 10V13.0301L22.9049 7.42866ZM24.9389 8.95419L3.38593 14.7293L2 15.1007V17.2843L4 24.7484V18C4 15.7909 5.79086 14 8 14H24.5V12H26.5V14H30.1077L29.5511 11.9228C28.9678 11.8065 28.4144 11.5608 27.9333 11.2L24.9389 8.95419ZM31.6423 12L32.1782 14H49V12H31.6423ZM4 32.4759L2 25.0118V39H4V32.4759ZM78 39V16C78 13.7909 76.2091 12 74 12H51V14H72C74.2091 14 76 15.7909 76 18V39H78Z" fill="white"/>
<path fill-rule="evenodd" clip-rule="evenodd" d="M74 39H38V11L46 3H74V39ZM49 15H42V17H50H51V16V8H49V15ZM55.1261 24.7081C55.8868 23.5671 57.3781 23.171 58.6047 23.7843C60.1221 24.543 60.5819 26.4908 59.564 27.848L58.5137 29.2484C59.0284 29.6754 59.8228 29.6207 60.2656 29.0672L60.4873 28.7901C61.4554 27.5799 63.2096 27.3572 64.4495 28.2871C64.6031 28.4023 64.7448 28.5327 64.8724 28.6763L65.0404 28.8652C65.682 29.587 66.6016 30 67.5673 30H70V32H67.5673C66.0303 32 64.5667 31.3427 63.5456 30.194L63.3776 30.005C63.3389 29.9615 63.296 29.922 63.2495 29.8871C62.8738 29.6054 62.3424 29.6728 62.049 30.0395L61.8274 30.3166C60.6126 31.835 58.3878 31.9201 57.0527 30.6237C55.3851 31.5966 53.1824 31.3966 51.7188 29.9331L51.2929 29.5071L52.7071 28.0929L53.1331 28.5188C53.8712 29.257 54.9539 29.4061 55.8321 29.0054L55.1219 28.0111C54.4376 27.0531 54.417 25.7718 55.07 24.7922L55.1261 24.7081ZM57.2685 27.5754L57.964 26.648C58.2332 26.289 58.1116 25.7738 57.7103 25.5732C57.3858 25.411 56.9914 25.5157 56.7902 25.8175L56.7341 25.9016C56.542 26.1898 56.5481 26.5668 56.7494 26.8487L57.2685 27.5754ZM70 37.0002L44 37.0002V35.0002L70 35.0002V37.0002ZM44.2929 26.7071L46.0858 28.5L44.2929 30.2929L45.7071 31.7071L47.5 29.9142L49.2929 31.7071L50.7071 30.2929L48.9142 28.5L50.7071 26.7071L49.2929 25.2929L47.5 27.0858L45.7071 25.2929L44.2929 26.7071Z" fill="white"/>
<path fill-rule="evenodd" clip-rule="evenodd" d="M1.4541 15.2469L28.5 8L36.8064 39H25.2433L19.5112 34.3312L27.1526 14.2549L25.2834 13.5435L19.7825 27.9961L12.4813 21.173L11.1157 22.6342L19.0139 30.0153L17.3851 34.2948L17.1282 34.9698L17.6882 35.4259L21.2382 38.3173L21.0303 39H7.81872L1.4541 15.2469Z" fill="white"/>
<path d="M0.372138 45.3416C0.171964 43.0062 2.0136 41 4.35752 41H75.5168C77.9059 41 79.7622 43.0806 79.491 45.4542L76.4052 72.4542C76.1743 74.4744 74.4645 76 72.4311 76H6.6718C4.59508 76 2.86378 74.4107 2.68642 72.3416L0.372138 45.3416Z" fill="white"/>
</svg>
