<svg width="80" height="80" viewBox="0 0 80 80" fill="none" xmlns="http://www.w3.org/2000/svg">
<g clip-path="url(#clip0)">
<path fill-rule="evenodd" clip-rule="evenodd" d="M64.8823 10H65.7723L68 12.2277V18.3044C66.616 19.208 64.4211 18.7626 62.8286 17.1701C61.0657 15.4073 60.7085 12.9064 62.0306 11.5843L64.8823 10ZM60.8099 10C60.7419 10.0524 60.6773 10.1092 60.6164 10.1701C59.4104 11.3761 59.0815 13.0151 59.2928 14.4948C59.5041 15.9736 60.2565 17.4265 61.4144 18.5843C62.5722 19.7421 64.025 20.4946 65.5039 20.7058C66.3206 20.8225 67.1858 20.7746 68 20.5054V26.9842C65.5989 27.1383 62.704 26.1618 60.0216 24.2175L61 23.6154L56.3846 19L55.7825 19.9784C53.2577 16.495 52.3647 12.6533 53.4607 10H60.8099ZM14 10H51.3423C50.8719 11.6136 50.9156 13.3967 51.3106 15.1084C51.8297 17.3581 52.9828 19.6807 54.6577 21.8062L49.3554 30.4225C49.1196 30.6122 49 30.8057 49 31C49 31.394 49.4915 31.7841 50.4463 32.1481C51.4011 32.512 52.8007 32.8427 54.565 33.1213C56.3293 33.3999 58.4238 33.6209 60.729 33.7716C63.0342 33.9224 65.5049 34 68 34V76C68 78.2091 66.2091 80 64 80H55H15H14H13C10.7909 80 9 78.2091 9 76V69H14H58V73C58 75.7614 60.2386 78 63 78V76C61.3431 76 60 74.6569 60 73V68V67H59H14V10ZM58.1938 25.3423C59.7237 26.5479 61.3558 27.4831 62.9893 28.1062C62.222 28.1393 61.467 28.1801 60.729 28.2284C58.4238 28.3791 56.3293 28.6001 54.565 28.8787C53.2927 29.0796 52.2101 29.3076 51.3471 29.5556L58.1938 25.3423ZM21 19H22H38H39V20V36V37H38H22H21V36V20V19ZM23 21V35H37V21H23ZM21 43H61V41H21V43ZM61 49H21V47H61V49ZM21 55H48V53H21V55Z" fill="white"/>
<path fill-rule="evenodd" clip-rule="evenodd" d="M60.6164 10.1701C60.7478 10.0387 60.8969 9.92623 61.0593 9.83599L63.7464 8.34317C60.2383 6.68662 56.5042 6.40933 54.5327 8.38082C51.5838 11.3298 53.0181 17.5453 57.7364 22.2636C62.4547 26.9819 68.6702 28.4162 71.6192 25.4673C73.591 23.4954 73.3133 19.7603 71.6559 16.2516L70.1627 18.9393C70.0724 19.1018 69.96 19.2509 69.8286 19.3823C68.6226 20.5883 66.9835 20.9172 65.5039 20.7058C64.025 20.4946 62.5722 19.7421 61.4144 18.5843C60.2565 17.4265 59.5041 15.9736 59.2928 14.4948C59.0815 13.0151 59.4104 11.3761 60.6164 10.1701ZM65.4544 9.68217L70.3165 14.5442L68.4144 17.9681C67.0922 19.2902 64.5914 18.9329 62.8286 17.1701C61.0657 15.4073 60.7085 12.9064 62.0306 11.5843L65.4544 9.68217Z" fill="white"/>
<ellipse rx="6.68469" ry="4.01081" transform="matrix(-0.707107 -0.707107 -0.707107 0.707107 73.4367 6.5629)" fill="white"/>
<path fill-rule="evenodd" clip-rule="evenodd" d="M69.1612 7.62288L69.2123 7.59448L72.4042 10.7864L72.3757 10.8377C71.7653 10.4449 71.1649 9.96311 70.6007 9.39894C70.0362 8.83444 69.5542 8.23367 69.1612 7.62288ZM67.4099 8.59583C67.8992 9.37477 68.4973 10.124 69.1865 10.8132C69.8754 11.502 70.6242 12.0999 71.4027 12.5891L68.4144 17.9681C67.0923 19.2902 64.5914 18.9329 62.8286 17.1701C61.0658 15.4073 60.7085 12.9064 62.0306 11.5843L67.4099 8.59583Z" fill="white"/>
</g>
<defs>
<clipPath id="clip0">
<rect width="80" height="80" fill="white"/>
</clipPath>
</defs>
</svg>
