<svg width="80" height="80" viewBox="0 0 80 80" fill="none" xmlns="http://www.w3.org/2000/svg">
<rect x="23" y="19" width="34" height="6" fill="white"/>
<rect x="23" y="31" width="34" height="6" fill="white"/>
<rect x="23" y="43" width="34" height="6" fill="white"/>
<rect width="18" height="6" rx="1" transform="matrix(1 0 0 -1 31 61)" fill="white"/>
<path fill-rule="evenodd" clip-rule="evenodd" d="M22 0H58C61.3137 0 64 2.68629 64 6V12H16V6C16 2.68629 18.6863 0 22 0ZM64 74C64 77.3137 61.3137 80 58 80H22C18.6863 80 16 77.3137 16 74V70H64V74ZM40 8C41.1046 8 42 7.10457 42 6C42 4.89543 41.1046 4 40 4C38.8954 4 38 4.89543 38 6C38 7.10457 38.8954 8 40 8Z" fill="white"/>
<rect x="17" y="11" width="46" height="60" stroke="white" stroke-width="2"/>
</svg>
