<svg width="80" height="80" viewBox="0 0 80 80" fill="none" xmlns="http://www.w3.org/2000/svg">
<path fill-rule="evenodd" clip-rule="evenodd" d="M13 8H37V29.9231H26.1429L16.4286 38V29.9231H13V8ZM21.7678 12.8537C21.4911 13.0244 21.2352 13.2046 21 13.3943L21.6744 14.3713C21.7851 14.561 21.965 14.6558 22.214 14.6558C22.3178 14.6558 22.4354 14.6179 22.5668 14.542C22.6982 14.4598 22.8573 14.3713 23.0441 14.2764C23.2378 14.1752 23.4695 14.0867 23.7393 14.0108C24.016 13.9286 24.3515 13.8875 24.7458 13.8875C25.0156 13.8875 25.2646 13.9223 25.4929 13.9919C25.7281 14.0614 25.9287 14.1626 26.0947 14.2954C26.2607 14.4219 26.3887 14.5768 26.4786 14.7602C26.5754 14.9372 26.6239 15.1396 26.6239 15.3672C26.6239 15.7213 26.5409 16.028 26.3748 16.2873C26.2157 16.5402 26.0151 16.771 25.773 16.9797C25.5309 17.182 25.2715 17.3717 24.9948 17.5488C24.7181 17.7195 24.4656 17.8997 24.2374 18.0894C24.016 18.2728 23.8361 18.4783 23.6978 18.706C23.5664 18.9273 23.5214 19.1865 23.5629 19.4837L23.7393 21.0298H25.4929L25.7315 19.645C25.7661 19.4426 25.8699 19.2624 26.0428 19.1043C26.2227 18.9399 26.4336 18.7755 26.6757 18.6111C26.9179 18.4404 27.1738 18.2602 27.4436 18.0705C27.7203 17.8808 27.9728 17.6563 28.201 17.397C28.4293 17.1378 28.6195 16.8342 28.7717 16.4865C28.9239 16.1323 29 15.715 29 15.2344C29 14.7412 28.9032 14.2954 28.7095 13.897C28.5158 13.4986 28.2425 13.1603 27.8898 12.8821C27.537 12.5976 27.1115 12.3794 26.6135 12.2276C26.1224 12.0759 25.5759 12 24.9741 12C24.5313 12 24.1198 12.0379 23.7393 12.1138C23.3588 12.1834 23.0061 12.2814 22.6809 12.4079C22.3558 12.5343 22.0514 12.6829 21.7678 12.8537ZM23.0752 24.0176C22.9991 24.1947 22.9611 24.3812 22.9611 24.5772C22.9611 24.7796 22.9991 24.9693 23.0752 25.1463C23.1582 25.3171 23.2689 25.4657 23.4073 25.5921C23.5456 25.7186 23.7116 25.8166 23.9053 25.8862C24.099 25.9621 24.3065 26 24.5279 26C24.7492 26 24.9533 25.9621 25.1401 25.8862C25.3338 25.8166 25.4998 25.7186 25.6381 25.5921C25.7834 25.4657 25.8975 25.3171 25.9805 25.1463C26.0636 24.9693 26.1051 24.7796 26.1051 24.5772C26.1051 24.3812 26.0636 24.1947 25.9805 24.0176C25.8975 23.8406 25.7834 23.6888 25.6381 23.5623C25.4998 23.4359 25.3338 23.3347 25.1401 23.2588C24.9533 23.1829 24.7492 23.145 24.5279 23.145C24.3065 23.145 24.099 23.1829 23.9053 23.2588C23.7116 23.3347 23.5456 23.4359 23.4073 23.5623C23.2689 23.6888 23.1582 23.8406 23.0752 24.0176Z" fill="white"/>
<path fill-rule="evenodd" clip-rule="evenodd" d="M67 8H43V29.9231H53.8571L63.5714 38V29.9231H67V8ZM55.4321 12.7418C55.2392 12.4107 54.7608 12.4107 54.5679 12.7418L52.8479 15.6949C52.7773 15.8162 52.6589 15.9022 52.5217 15.9319L49.1816 16.6552C48.8071 16.7363 48.6593 17.1913 48.9146 17.477L51.1916 20.0254C51.2852 20.1301 51.3304 20.2693 51.3162 20.4089L50.972 23.809C50.9334 24.1903 51.3204 24.4715 51.6711 24.317L54.7984 22.9388C54.9268 22.8822 55.0732 22.8822 55.2016 22.9388L58.3289 24.3169C58.6796 24.4715 59.0666 24.1903 59.028 23.809L58.6838 20.4089C58.6696 20.2693 58.7148 20.1301 58.8084 20.0254L61.0854 17.477C61.3407 17.1913 61.1929 16.7363 60.8184 16.6552L57.4783 15.9319C57.3411 15.9022 57.2227 15.8162 57.1521 15.6949L55.4321 12.7418Z" fill="white"/>
<path fill-rule="evenodd" clip-rule="evenodd" d="M73 41C74.6569 41 76 42.3431 76 44V47.124C76.6372 48.2722 77 49.5937 77 51C77 52.4063 76.6372 53.7278 76 54.876V60.3692C77.3336 61.6825 78.3062 63.3781 78.7354 65.3095L80 71H58L59.2646 65.3095C59.8083 62.8629 61.224 60.7947 63.1408 59.4026L63.3494 59.836L64.2505 59.4024C63.3494 59.836 63.3496 59.8364 63.3498 59.8369L63.3504 59.838L63.3515 59.8403L63.3541 59.8456L63.3608 59.8591C63.3659 59.8694 63.3724 59.8821 63.3804 59.8971C63.3962 59.9272 63.4176 59.9666 63.445 60.014C63.4997 60.1087 63.5784 60.236 63.6834 60.3848C63.8929 60.6817 64.2113 61.0701 64.6583 61.4571C65.5641 62.2415 66.9776 63 69.0002 63C71.0228 63 72.4363 62.2415 73.3422 61.4571C73.7892 61.07 74.1076 60.6816 74.3171 60.3847C74.4221 60.2359 74.5008 60.1086 74.5555 60.0139C74.5829 59.9665 74.6043 59.9271 74.6202 59.897C74.6281 59.882 74.6346 59.8692 74.6397 59.859L74.6465 59.8455L74.6491 59.8402L74.6502 59.8379L74.6507 59.8368C74.6509 59.8363 74.6512 59.8358 73.7501 59.4022L74.6512 59.8358L75.033 59.0424L74.2942 58.5632C73.8861 58.2985 73.4545 58.0095 73.1235 57.7855L73 57.7019V57.3091C74.6577 56.4232 75.1543 54.8074 75.6015 53.352L75.6021 53.3502C75.6298 53.2599 75.6574 53.1703 75.685 53.0815L76.0885 51.7844H74.7302C71.3812 51.7844 69.1307 50.2673 67.2775 47.9744L66.5489 47.073L65.764 47.9258L62.397 51.5842L62.0467 51.9648L62.1549 52.4706C62.5437 54.2873 63.0405 56.2884 65 57.3126V57.7022L64.8766 57.7858C64.8584 57.7981 64.84 57.8106 64.8213 57.8232C62.529 56.4164 61 53.8867 61 51C61 46.5817 64.5817 43 69 43C69.3882 43 69.7699 43.0276 70.1434 43.0811C70.5314 41.8737 71.6637 41 73 41ZM71 56.6585V55.9514L71.6667 55.7157C72.5956 55.3874 72.9848 54.8043 73.3771 53.7113C70.4324 53.3847 68.2367 51.9933 66.4775 50.1039L64.2223 52.5543C64.6325 54.32 65.0792 55.2725 66.3332 55.7157L67 55.9514V56.6585V56.6586V58.2301V58.7553L66.5676 59.0534L66 58.2301L66.5676 59.0534L66.5675 59.0534L66.5674 59.0535L66.5668 59.0539L66.5646 59.0554L66.5564 59.0611L66.5252 59.0826L66.4082 59.1628C66.308 59.2313 66.1658 59.3282 65.9975 59.4422C65.8972 59.51 65.7874 59.5841 65.6713 59.662C65.7584 59.754 65.857 59.8495 65.9675 59.9452C66.5616 60.4597 67.5229 61 69.0002 61C70.4774 61 71.4388 60.4597 72.0329 59.9452C72.1435 59.8494 72.242 59.7539 72.3291 59.6619C72.213 59.584 72.1031 59.5099 72.0028 59.4421C71.8344 59.3282 71.6922 59.2312 71.592 59.1627L71.475 59.0825L71.4437 59.061L71.4355 59.0554L71.4334 59.0539L71.4328 59.0535L71.4326 59.0534L71.4326 59.0533L72 58.2299L71.4325 59.0533L71 58.7552V58.2299V56.6585Z" fill="white"/>
<path fill-rule="evenodd" clip-rule="evenodd" d="M16.8596 59.4029L16.6512 59.836L15.7501 59.4024C16.6512 59.836 16.6509 59.8365 16.6507 59.837L16.6502 59.8381L16.6491 59.8404L16.6465 59.8457L16.6397 59.8592C16.6346 59.8694 16.6281 59.8821 16.6202 59.8972C16.6043 59.9273 16.5829 59.9667 16.5555 60.0141C16.5008 60.1088 16.4221 60.2361 16.3171 60.3849C16.1076 60.6818 15.7892 61.0701 15.3422 61.4572C14.4363 62.2416 13.0228 63.0001 11.0002 63.0001C8.97764 63.0001 7.56411 62.2416 6.65832 61.4573C6.21132 61.0702 5.89294 60.6819 5.68345 60.385C5.5784 60.2362 5.49971 60.1089 5.44503 60.0142C5.41766 59.9668 5.39621 59.9274 5.38038 59.8973C5.37247 59.8823 5.36595 59.8695 5.3608 59.8593L5.35408 59.8458L5.35148 59.8405L5.35037 59.8382L5.34986 59.8371C5.34962 59.8366 5.34938 59.8361 6.25049 59.4025L5.34938 59.8361L5.14079 59.4026C3.22395 60.7948 1.80825 62.8629 1.26456 65.3095L0 71H22L20.7354 65.3095C20.1918 62.863 18.7762 60.795 16.8596 59.4029ZM4.75918 55.0057C3.65853 53.6352 3 51.8945 3 50C3 45.5817 6.58172 42 11 42C15.4183 42 19 45.5817 19 50C19 51.8945 18.3415 53.6352 17.2408 55.0057C17.2542 54.978 17.2674 54.9502 17.2804 54.9223C17.8267 53.7492 18 52.3746 18 51.0001C18 49.0029 17.1623 47.1997 15.8218 45.9257L14.9146 45.0633L14.2739 46.1386C13.0963 48.1146 11.4089 49.0029 9.74265 49.3263C8.04314 49.6561 6.38299 49.39 5.40853 49.0545L4.29214 48.6701L4.09676 49.8345C4.03305 50.2142 4 50.6037 4 51.0001C4 52.3746 4.17333 53.7492 4.71956 54.9223C4.73256 54.9502 4.74577 54.978 4.75918 55.0057ZM8.56761 59.0536L8 58.2303L8.56764 59.0535L9 58.7554V58.2303V56.6587V55.9515L8.33325 55.7159C7.4405 55.4003 6.88683 54.8387 6.53265 54.0781C6.18914 53.3403 6.02523 52.3921 6.00271 51.2735C7.16991 51.5002 8.62711 51.5801 10.1237 51.2897C11.9077 50.9435 13.7588 50.0654 15.204 48.2919C15.7081 49.0725 16 50.0018 16 51.0001C16 52.238 15.8385 53.2809 15.4673 54.0781C15.1132 54.8387 14.5595 55.4003 13.6668 55.7159L13 55.9515V56.6587V58.2301V58.7638L13.4435 59.0609L14.3337 59.6572C14.2455 59.7507 14.1454 59.8479 14.033 59.9453C13.4388 60.4598 12.4774 61.0001 11.0002 61.0001C9.52296 61.0001 8.56164 60.4598 7.96753 59.9454C7.85699 59.8496 7.75846 59.7541 7.67136 59.6621C7.78739 59.5843 7.89724 59.5102 7.99751 59.4423C8.16586 59.3284 8.30801 59.2315 8.4082 59.1629L8.52518 59.0827L8.55646 59.0612L8.56465 59.0556L8.56681 59.0541L8.56739 59.0537L8.56756 59.0536L8.56761 59.0536Z" fill="white"/>
</svg>
