<svg width="80" height="80" viewBox="0 0 80 80" fill="none" xmlns="http://www.w3.org/2000/svg">
<rect x="9" width="62" height="6" fill="white"/>
<rect x="9" y="74" width="62" height="6" fill="white"/>
<path fill-rule="evenodd" clip-rule="evenodd" d="M16 8H64V18.166C64 25.9862 59.4421 33.089 52.3331 36.3473L44.3636 40L52.3331 43.6527C59.4421 46.911 64 54.0138 64 61.834V72H16V61.8339C16 54.0138 20.5579 46.911 27.6669 43.6527L35.6364 40L27.6669 36.3473C20.5579 33.089 16 25.9862 16 18.166V8ZM51.0644 32.9423L42 37.0858V57H59.9472C60.6327 58.7498 61 61.6244 61 63.5526V70H19V63.5526C19 61.6244 19.3673 58.7498 20.0528 57H38V37.0858L28.9356 32.9423C23.9061 30.6433 20.2999 26.2052 19 21H61C59.7001 26.2052 56.0939 30.6433 51.0644 32.9423Z" fill="white"/>
</svg>
