<svg width="80" height="80" viewBox="0 0 80 80" fill="none" xmlns="http://www.w3.org/2000/svg">
<g clip-path="url(#clip0)">
<path fill-rule="evenodd" clip-rule="evenodd" d="M27 9H76V19H27V9ZM55 16C56.1046 16 57 15.1046 57 14C57 12.8954 56.1046 12 55 12C53.8954 12 53 12.8954 53 14C53 15.1046 53.8954 16 55 16ZM63 16C64.1046 16 65 15.1046 65 14C65 12.8954 64.1046 12 63 12C61.8954 12 61 12.8954 61 14C61 15.1046 61.8954 16 63 16ZM73 14C73 15.1046 72.1046 16 71 16C69.8954 16 69 15.1046 69 14C69 12.8954 69.8954 12 71 12C72.1046 12 73 12.8954 73 14Z" fill="white"/>
<path fill-rule="evenodd" clip-rule="evenodd" d="M4 21V23H13.5H13.9142L14.2071 23.2929L20 29.0858V24V23H21H25V21H4ZM13.0858 25H4V70H76V21H27V24V25H26H22V31.5L20.2929 32.2071L13.0858 25ZM72 52H52V66H72V52ZM31 35C31 34.5157 31.0383 34.0403 31.1119 33.5767C32.0263 33.852 32.9958 34 33.9999 34C37.2349 34 40.1112 32.4639 41.939 30.0812C43.6988 31.836 46.1089 32.9391 48.7764 32.9976C48.9227 33.6415 49 34.3117 49 35C49 38.9187 46.4956 42.2524 43 43.4879V46.3313C44.9597 46.7713 46.7643 47.6339 48.3103 48.8227C46.7015 50.7247 43.706 52.1818 39.9996 52.1818C36.2936 52.1818 33.2983 50.7251 31.6895 48.8233C33.2354 47.6343 35.0401 46.7716 37 46.3314V43.4879C33.5044 42.2524 31 38.9187 31 35ZM44.9804 44.8106C48.5527 42.9934 51 39.2825 51 35C51 28.9249 46.0751 24 40 24C33.9249 24 29 28.9249 29 35C29 39.2826 31.4473 42.9935 35.0197 44.8106C29.1947 46.7667 24.8681 52.0636 24.3995 58.5071L24 64H50V50H52.3178C51.8897 49.4538 51.4262 48.9372 50.9309 48.4534L50.9311 48.4531C49.2628 46.8237 47.2337 45.5672 44.9804 44.8106Z" fill="white"/>
<path fill-rule="evenodd" clip-rule="evenodd" d="M25 6H0V23H14L20 29V23H25V6ZM17.5 16C16.6716 16 16 15.3284 16 14.5C16 13.6716 16.6716 13 17.5 13C18.3284 13 19 13.6716 19 14.5C19 15.3284 18.3284 16 17.5 16ZM11 14.5C11 15.3284 11.6716 16 12.5 16C13.3284 16 14 15.3284 14 14.5C14 13.6716 13.3284 13 12.5 13C11.6716 13 11 13.6716 11 14.5ZM7.5 16C6.67157 16 6 15.3284 6 14.5C6 13.6716 6.67157 13 7.5 13C8.32843 13 9 13.6716 9 14.5C9 15.3284 8.32843 16 7.5 16Z" fill="white"/>
<circle cx="62" cy="56" r="2" fill="white"/>
<path d="M58.0999 62.6268C58.2485 60.5826 59.9504 59 62 59C64.0496 59 65.7515 60.5826 65.9001 62.6268L66 64H58L58.0999 62.6268Z" fill="white"/>
</g>
<defs>
<clipPath id="clip0">
<rect width="80" height="80" fill="white"/>
</clipPath>
</defs>
</svg>
