<svg width="80" height="80" viewBox="0 0 80 80" fill="none" xmlns="http://www.w3.org/2000/svg">
<path fill-rule="evenodd" clip-rule="evenodd" d="M0 9H80V19H0V9ZM56 16C57.1046 16 58 15.1046 58 14C58 12.8954 57.1046 12 56 12C54.8954 12 54 12.8954 54 14C54 15.1046 54.8954 16 56 16ZM64 16C65.1046 16 66 15.1046 66 14C66 12.8954 65.1046 12 64 12C62.8954 12 62 12.8954 62 14C62 15.1046 62.8954 16 64 16ZM74 14C74 15.1046 73.1046 16 72 16C70.8954 16 70 15.1046 70 14C70 12.8954 70.8954 12 72 12C73.1046 12 74 12.8954 74 14Z" fill="white"/>
<path fill-rule="evenodd" clip-rule="evenodd" d="M80 21H0V70H80V21ZM18 27H16V29V57V59H18H62H64V57V29V27H62H18ZM18 29H20H60H62V31V55V57H60H20H18V55V31V29ZM22.5855 32.1893L40 44.7665L57.4145 32.1893L58.5855 33.8107L46.0488 42.865L54.529 48.1514L53.471 49.8486L44.2973 44.1299L40.5855 46.8107L40 47.2335L39.4145 46.8107L35.7027 44.1299L26.529 49.8486L25.471 48.1514L33.9512 42.865L21.4145 33.8107L22.5855 32.1893Z" fill="white"/>
</svg>
