<svg width="80" height="80" viewBox="0 0 80 80" fill="none" xmlns="http://www.w3.org/2000/svg">
<path fill-rule="evenodd" clip-rule="evenodd" d="M0 9H80V19H0V9ZM56 16C57.1046 16 58 15.1046 58 14C58 12.8954 57.1046 12 56 12C54.8954 12 54 12.8954 54 14C54 15.1046 54.8954 16 56 16ZM64 16C65.1046 16 66 15.1046 66 14C66 12.8954 65.1046 12 64 12C62.8954 12 62 12.8954 62 14C62 15.1046 62.8954 16 64 16ZM74 14C74 15.1046 73.1046 16 72 16C70.8954 16 70 15.1046 70 14C70 12.8954 70.8954 12 72 12C73.1046 12 74 12.8954 74 14Z" fill="white"/>
<path fill-rule="evenodd" clip-rule="evenodd" d="M29 21H0V70H29V21ZM31 21V70H80V21H31Z" fill="white"/>
</svg>
