<svg width="30" height="27" viewBox="0 0 30 27" fill="none" xmlns="http://www.w3.org/2000/svg">
<path fill-rule="evenodd" clip-rule="evenodd" d="M29.7802 25.3305L15.9381 0.688344C15.4219 -0.229448 14.5779 -0.229448 14.0626 0.688344L0.220065 25.3305C-0.295657 26.2483 0.126551 27 1.1576 27H28.8419C29.8733 27 30.2955 26.2483 29.7802 25.3305ZM13.7143 9.80509C13.7143 9.18828 14.2765 8.70968 15.0005 8.70968C15.724 8.70968 16.2857 9.18867 16.2857 9.80509V18.9364C16.2857 19.5533 15.7235 20.0323 15.0005 20.0323C14.276 20.0323 13.7143 19.5529 13.7143 18.9364V9.80509ZM13.7143 22.2097C13.7143 22.9303 14.291 23.5161 15.0004 23.5161C15.7094 23.5161 16.2853 22.9303 16.2857 22.2097C16.2857 21.4887 15.7098 20.9032 15.0004 20.9032C14.291 20.9032 13.7143 21.4887 13.7143 22.2097Z" fill="#B5080A"/>
</svg>
