<?xml version="1.0" encoding="UTF-8"?>
<svg width="18px" height="17px" viewBox="0 0 18 17" version="1.1" xmlns="http://www.w3.org/2000/svg" xmlns:xlink="http://www.w3.org/1999/xlink">
    <!-- Generator: Sketch 59.1 (86144) - https://sketch.com -->
    <title>Shape</title>
    <desc>Created with Sketch.</desc>
    <g id="Page-1" stroke="none" stroke-width="1" fill="none" fill-rule="evenodd">
        <g id="person" transform="translate(0.000000, -1.000000)" fill="#000000" fill-rule="nonzero">
            <path d="M9,11.016 C10.6873333,11.016 12.445,11.3833333 14.273,12.118 C16.101,12.8526667 17.015,13.8136667 17.015,15.001 L17.015,17.017 L0.984,17.017 L0.984,15.001 C0.984,13.8136667 1.898,12.8526667 3.726,12.118 C5.554,11.3833333 7.31166667,11.016 8.999,11.016 L9,11.016 Z M9,9 C7.906,9 6.96833333,8.60933333 6.187,7.828 C5.40566667,7.04666667 5.015,6.109 5.015,5.015 C5.015,3.921 5.40566667,2.97566667 6.187,2.179 C6.96833333,1.38233333 7.906,0.984 9,0.984 C10.094,0.984 11.0316667,1.38233333 11.813,2.179 C12.5943333,2.97566667 12.985,3.921 12.985,5.015 C12.985,6.109 12.5943333,7.04666667 11.813,7.828 C11.0316667,8.60933333 10.094,9 9,9 Z" id="Shape"></path>
        </g>
    </g>
</svg>