<svg width="54" height="77" viewBox="0 0 54 77" fill="none" xmlns="http://www.w3.org/2000/svg">
<path d="M13.8234 53.536V54.84H10.1194V65H8.56744V54.84H4.84744V53.536H13.8234ZM24.6169 53.536V54.8H19.1129V58.608H23.5689V59.824H19.1129V63.736H24.6169V65H17.5529V53.536H24.6169ZM31.6138 59.112L27.8298 53.536H29.3738C29.4858 53.536 29.5685 53.5547 29.6218 53.592C29.6751 53.6293 29.7231 53.6827 29.7658 53.752L32.7578 58.344C32.7951 58.232 32.8511 58.1093 32.9258 57.976L35.7498 53.784C35.7978 53.7093 35.8485 53.6507 35.9018 53.608C35.9605 53.56 36.0298 53.536 36.1098 53.536H37.5898L33.7898 59.04L37.7178 65H36.1818C36.0645 65 35.9711 64.9707 35.9018 64.912C35.8378 64.848 35.7845 64.7787 35.7418 64.704L32.6698 59.896C32.6325 60.008 32.5845 60.1147 32.5258 60.216L29.5338 64.704C29.4858 64.7787 29.4298 64.848 29.3658 64.912C29.3071 64.9707 29.2218 65 29.1098 65H27.6698L31.6138 59.112ZM49.1391 53.536V54.84H45.4351V65H43.8831V54.84H40.1631V53.536H49.1391Z" fill="#1F303E"/>
<path fill-rule="evenodd" clip-rule="evenodd" d="M26.6581 38.8867C36.9628 38.8867 45.3163 30.6491 45.3163 20.4876C45.3163 10.3261 36.9628 2.08862 26.6581 2.08862C16.3535 2.08862 8 10.3261 8 20.4876C8 30.6491 16.3535 38.8867 26.6581 38.8867Z" fill="#F8EBC4"/>
<path d="M29.2536 2.32324H10.6512C9.37231 2.32324 8.33755 3.36962 8.33755 4.64853L8.32593 25.5762L12.9765 20.9256H29.2536C30.5325 20.9256 31.5788 19.8792 31.5788 18.6003V4.64853C31.5788 3.36962 30.5325 2.32324 29.2536 2.32324ZM16.4644 12.7871H14.1392V10.4618H16.4644V12.7871ZM21.115 12.7871H18.7897V10.4618H21.115V12.7871ZM25.7656 12.7871H23.4403V10.4618H25.7656V12.7871Z" fill="#1F303E"/>
</svg>
