<svg width="35" height="35" viewBox="0 0 35 35" fill="none" xmlns="http://www.w3.org/2000/svg">
<circle cx="17" cy="17" r="15" fill="white"/>
<ellipse cx="17.5" cy="17.4463" rx="17.5" ry="17.4463" fill="white"/>
<path d="M24.5921 9.91686C22.5715 7.9025 19.9293 6.88671 17.2697 6.88671V17.2168L9.94737 24.5167C13.9885 28.5454 20.551 28.5454 24.6094 24.5167C28.6505 20.488 28.6505 13.9456 24.5921 9.91686ZM17.2697 0C7.73684 0 0 7.71311 0 17.2168C0 26.7204 7.73684 34.4335 17.2697 34.4335C26.8026 34.4335 34.5395 26.7204 34.5395 17.2168C34.5395 7.71311 26.8026 0 17.2697 0ZM17.2697 30.9902C9.63651 30.9902 3.45395 24.8266 3.45395 17.2168C3.45395 9.60696 9.63651 3.44335 17.2697 3.44335C24.903 3.44335 31.0855 9.60696 31.0855 17.2168C31.0855 24.8266 24.903 30.9902 17.2697 30.9902Z" fill="#005EA2"/>
</svg>
