<svg version="1.1" id="Layer_1" xmlns="http://www.w3.org/2000/svg" xmlns:xlink="http://www.w3.org/1999/xlink" x="0px" y="0px"
	 viewBox="0 0 134.1 134" style="enable-background:new 0 0 134.1 134;" xml:space="preserve">
<style type="text/css">
	.st0{fill:#FFFFFF;}
</style>
<g>
	<path d="M76,125.5l-4.9,0.7l-0.1-0.3l1.3-0.3c-0.4-2.7-0.7-5.3-1.1-8H70l0-0.2l7.4-1.1l0.5,3l-0.2,0.1c-0.2-0.3-0.4-0.6-0.7-0.9
		c-1.5-1.9-1.1-1.7-3.8-1.2c0.1,1.1,0.3,2.3,0.5,3.4c1.5,0.2,1.3-1.2,1.9-1.9l0.6,4c-0.9-0.5-0.9-2.2-2.4-1.6
		c0.2,1.2,0.4,2.4,0.6,3.6c0,0.1,0.3,0.3,0.5,0.3c0.4,0,0.7,0,1-0.1C76,125.3,76,125.4,76,125.5z M71.6,117.6c0.4,2.7,0.7,5.3,1.1,8
		l0.8-0.1c-0.4-2.7-0.7-5.3-1.1-8L71.6,117.6z"/>
	<path d="M54.6,116.4l-1-0.3l0.1-0.3l4.6,0.8c-0.1,0.2-0.1,0.2-1.5,0.2c-0.5,2.6-1,5.2-1.5,7.9c0.9,0.2,1.6,0.3,2.4,0.4
		c0.2,0,0.6-0.2,0.8-0.4c0.5-0.6,0.9-1.2,1.4-1.9c0.1-0.2,0.3-0.4,0.4-0.6l0.2,0.1c0,0.2,0,0.4-0.1,0.7c-0.2,0.8-0.4,1.7-0.5,2.5
		c-0.1,0.4-0.2,0.5-0.6,0.4c-2.4-0.5-4.8-0.9-7.2-1.4c-0.1,0-0.2-0.1-0.4-0.2l0-0.2l1.5,0.1C53.6,121.7,54.1,119.1,54.6,116.4z
		 M54.4,124.6c0.5-2.7,1-5.3,1.5-7.9l-0.8-0.1c-0.5,2.7-1,5.3-1.5,7.9L54.4,124.6z M59.5,124.1l-1.1,1.3l0.7,0.1
		C59.3,125.1,59.4,124.7,59.5,124.1z"/>
	<path d="M67.8,126.2h-4.7l0-0.3l1.4-0.2v-8l-1.1-0.1l0-0.1H68v0.2l-1.3,0.1c-0.1,2.6-0.2,5.3-0.2,8l1.3,0.2L67.8,126.2L67.8,126.2z
		 M65.8,125.8v-8H65v8H65.8z"/>
	<path class="st0" d="M84.3,122.8c-1.8-0.5-2.5-1.7-3-3.2c-0.5-1.4-0.4-2.7,0.8-4C81.6,118.5,82.5,120.7,84.3,122.8z"/>
	<path class="st0" d="M71.6,117.6l0.8-0.1c0.4,2.7,0.7,5.3,1.1,8l-0.8,0.1C72.4,122.9,72,120.3,71.6,117.6z"/>
	<path class="st0" d="M54.4,124.6l-0.8-0.2c0.5-2.7,1-5.3,1.5-7.9l0.8,0.1C55.4,119.3,54.9,121.9,54.4,124.6z"/>
	<path class="st0" d="M59.5,124.1c-0.1,0.6-0.2,1-0.4,1.4l-0.7-0.1L59.5,124.1z"/>
	<path class="st0" d="M46.2,115.5c0,1.1-0.1,1.9-0.1,2.8l-1.8-0.7L46.2,115.5z"/>
	<path class="st0" d="M65.8,125.8H65v-8h0.8V125.8z"/>
	<path class="st0" d="M38.2,116.8c-0.4,0.5-0.7,0.8-1.1,1.2l-0.9-0.4C36.8,117.4,37.5,117.1,38.2,116.8z"/>
	<g>
		<path d="M134,67c0.1,37.1-30.3,67.4-67.8,67C29.5,133.6-0.7,103.4,0,65.7C0.7,29.2,30.8-0.7,68.3,0C104.7,0.7,134.1,30.5,134,67z
			 M132.8,67c0-36-28.8-65.2-64.6-65.8C31.4,0.6,1.8,29.9,1.2,65.8c-0.6,36.9,28.9,66.5,65,67C103,133.2,132.8,103.5,132.8,67
			L132.8,67z"/>
		<path class="st0" d="M132.8,67c0,36.4-29.8,66.2-66.6,65.8c-36-0.4-65.6-30-65-67c0.6-35.9,30.2-65.3,67-64.6
			C104,1.9,132.8,31.1,132.8,67z M66.9,129.8c34.5,0,62.5-28,62.6-62.4c0.1-34.5-27.6-62.5-61.8-62.9C32.7,4.1,4.9,32,4.2,65.9
			C3.6,101.4,32.2,129.9,66.9,129.8z"/>
		<path d="M66.9,129.8c-34.7,0.1-63.3-28.4-62.7-63.8C4.9,32,32.7,4.1,67.7,4.5c34.3,0.4,61.9,28.4,61.8,62.9
			C129.4,101.8,101.4,129.8,66.9,129.8z M66.8,128.6c33.9,0,61.4-27.5,61.5-61.2c0-33.9-27.1-61.4-60.8-61.7
			C33.2,5.4,6,32.8,5.4,66.1C4.9,100.8,32.8,128.6,66.8,128.6z"/>
		<path class="st0" d="M66.8,128.6c-34,0-61.9-27.8-61.4-62.4C6,32.8,33.2,5.4,67.5,5.7c33.7,0.3,60.9,27.7,60.8,61.7
			C128.2,101.1,100.7,128.6,66.8,128.6z M66.2,115.6c26.4,0,47.5-21.3,47.8-47.1c0.4-26.8-21.1-48-46.7-48.5
			c-26.4-0.6-48.6,20.5-48.9,47.2C18.1,94,39.7,115.6,66.2,115.6L66.2,115.6z M51.2,10.5v0.2l1,0.1c0.4,2.6,0.9,5.2,1.3,7.7L52.3,19
			l0.1,0.3l3.2-0.6c0-0.1,0-0.2,0-0.3c-0.2,0-0.5,0-0.7,0c-0.3,0-0.6,0.1-0.9,0.1c-0.4-2.4-0.8-4.7-1.2-7.1l0.2-0.1l4.2,7.1l0.2,0
			c0.6-2.7,1.2-5.3,1.8-8l0.1,0c0.3,2.3,0.7,4.7,1,7l-1.5,0.3c0.4,0.4,4.5-0.3,4.8-0.8l-1.3,0.1c-0.4-2.6-0.8-5.2-1.3-7.8L62.2,9
			c-0.1-0.2-0.2-0.3-0.3-0.2c-0.9,0.2-1.9,0.4-2.8,0.6c-0.2,0-0.3,0.3-0.4,0.5c-0.2,0.8-0.3,1.6-0.5,2.3c-0.2,1-0.4,2-0.7,3
			c-0.1-0.1-0.1-0.1-0.2-0.1c-0.9-1.4-1.7-2.9-2.6-4.4c-0.1-0.2-0.4-0.5-0.5-0.5C53.3,10.2,52.3,10.4,51.2,10.5L51.2,10.5z
			 M119.4,65.5c-1.4-0.2-1.9,0.1-2,1.5c0,0.1,0,0.3-0.1,0.3c-0.7,0.5-1.2,1.2-0.7,1.9c0.5,0.7-0.3,1.5,0.2,2.1
			c0.1,0.2,0.3,0.3,0.5,0.5c0.1,0.1,0.2,0.3,0.3,0.5c0.2,0.8,0.6,1.1,1.4,1.2c0.2,0,0.4,0.1,0.5,0.2c0.8,1.1,1.6,1.1,2.6,0.2
			c1.3,0.4,1.9,0,2.2-1.5c0.7,0,1.3-0.3,1.5-1.1c0.2-0.8-0.2-1.3-0.9-1.7c1.4-0.9,1.3-2.5-0.4-3c-0.1-1.5-0.9-2-2.3-1.4
			C121.2,64,120.3,64.1,119.4,65.5z M12.8,73.8c1.4,0.4,2,0,2.3-1.5c0.7-0.1,1.3-0.3,1.6-1.1c0.2-0.8-0.2-1.4-0.9-1.8
			c1.3-0.7,1.5-2.4-0.4-3c-0.1-1.4-0.7-1.8-2.1-1.4c-0.1,0-0.2,0-0.4,0c-1.2-0.9-1.9-0.8-2.8,0.5c-1.4-0.2-1.8,0.1-2,1.5
			c0,0.2-0.2,0.3-0.4,0.5c-0.7,0.6-0.8,1.3-0.4,2c0,0.1,0.2,0.2,0.1,0.2c-0.5,1,0.2,1.6,0.7,2.4c0.7,1.2,0.6,1.3,1.9,1.3
			C10.8,74.6,11.7,74.7,12.8,73.8z M97.4,112.2c0.2-0.3,0.2-0.4,0.3-0.5c0.6-0.8,0.6-1.7,0-2.5c-0.5-0.7-1.4-1-2.3-0.7
			c-0.5,0.2-1,0.4-1.4,0.7c-1.1,0.7-2.2,1.5-3.4,2.2c-0.1,0.1-0.3,0.1-0.5,0.2l0.3,0.3l1.1-0.5l4.3,6.7c-0.9,0.8-0.9,0.8-0.8,1.1
			l3.9-2.6l-0.1-0.3l-1.2,0.6c-0.7-1.1-1.4-2.1-2.1-3.2c1.2-1,1.9-1,2.8,0.2c0.2,0.4,0.5,0.7,0.8,1c0.9,0.8,3,0.4,3.4-0.8
			c-1.3,0.1-1.4,0.2-1.9-0.8C99.8,112.3,98.9,111.7,97.4,112.2z M23.2,93c0-2.7-2.1-5-4.6-5.1c-2.7,0-5.1,2.2-5.1,4.6
			c0,2.7,2.1,5,4.6,5.1C20.2,97.6,23.4,95.8,23.2,93z M108.1,39l-0.9-1l-0.2,0.2c0.8,1.3,1.6,2.6,2.4,4l0.3-0.1l-0.6-1.2l3.3-2
			c1,1.4,0.8,2-0.4,2.8c-0.2,0.1-0.4,0.2-0.5,0.4c-0.8,0.6-1.1,1.4-0.7,2.4c0.2,0.4,0.4,0.8,0.6,1.2c0,0.1,0.2,0.1,0.4,0.2
			c-0.2-1.3-0.2-1.3,0.8-2c0.2-0.1,0.4-0.3,0.6-0.4c0.6-0.5,0.9-1.2,0.8-2c0-0.1,0-0.2,0-0.3c0.6,0.2,1.2,0.5,1.7,0.4
			c1.6-0.1,2.4-1.5,1.6-3.1c-0.8-1.6-1.8-3.1-2.7-4.6c0,0-0.1,0-0.4,0l0.5,1.2L108.1,39z M85.1,123.3c2.8,0,5.1-2,5.1-4.5
			c0-2.8-2.1-5.1-4.5-5.1c-2.8,0-5.1,2-5.1,4.5C80.6,121.1,82.6,123.4,85.1,123.3z M36.8,21.7c0.2-0.5,0.4-0.8,0.5-1.3
			c0.2-0.8-0.2-1.5-0.8-2c-0.7-0.5-1.5-0.5-2.2-0.1c-1.6,1-3.1,2-4.6,3.1c0,0,0,0.1,0,0.4l1.2-0.6l4.4,6.5l-1,0.9l0.2,0.2l3.8-2.6
			l-0.1-0.3L37,26.5l-2.1-3.1c1.3-1.1,1.9-1,2.8,0.2c0.2,0.2,0.4,0.5,0.5,0.7c1,1,3,0.6,3.6-0.7c-0.1,0-0.3,0-0.4,0.1
			c-0.5,0.3-0.9,0.1-1.2-0.3c-0.2-0.2-0.3-0.4-0.4-0.6C39,21.8,38.1,21.3,36.8,21.7z M96.4,27c2.4,0,4.7-2.4,4.6-5
			c0-2.4-2.4-4.6-5-4.6c-2.4,0-4.7,2.4-4.6,5C91.4,24.8,93.8,27.1,96.4,27L96.4,27z M44.6,17.7c1.3-0.7,1.7,0.7,2.7,1L45.8,15
			c-0.5,0.8,0.1,2.1-1.3,2.3L43.2,14c1.6-1,1.8-1,3.1,0c0.4,0.3,0.9,0.7,1.3,1l0.2-0.1c-0.3-0.7-0.7-1.5-1-2.2
			c-0.2-0.5-0.4-0.5-0.8-0.3c-1.8,0.8-3.6,1.5-5.4,2.3c-0.1,0.1-0.3,0.2-0.4,0.3l0.1,0.2l1.1-0.4l3,7.3l-1.2,0.7l0.1,0.2l7-2.9
			l-1.1-2.7l-0.2,0c-0.1,0.7-0.2,1.5-0.3,2.2c-0.1,0.3-0.2,0.7-0.5,0.9c-0.6,0.4-1.3,0.6-2,0.9L44.6,17.7z M69.5,9.4
			c1.8-0.2,2-0.1,2.8,1.4c0.2,0.5,0.5,0.9,0.7,1.4l0.2-0.1v-3l-6.9-0.4l0,0.3l1.2,0.2c-0.2,2.6-0.4,5.3-0.6,7.9l-1.3,0.1l0,0.2
			l7.6,0.5c0.1-1,0.2-2,0.3-2.9l-0.2,0c-0.5,0.7-0.9,1.3-1.4,1.9c-0.2,0.2-0.4,0.5-0.7,0.5c-0.7,0-1.5-0.1-2.2-0.1
			c0.1-1.4,0.2-2.7,0.3-4c1.5-0.2,1.2,1.3,2,1.9c0.1-1.3,0.2-2.6,0.2-3.9c-0.8,0.6-0.8,1.9-2.2,1.4C69.3,11.6,69.4,10.5,69.5,9.4z
			 M104.9,112.1l0.3,0.2c0.7-0.7,1.5-1.5,2.2-2.2c0.1-0.1,0.1-0.2,0.1-0.4c-0.1,0-0.3,0-0.4,0.1c-0.3,0.3-0.6,0.6-1,0.9l-4.3-4.6
			l9.4,0.9l-6.3-6.5c0.2-0.3,0.5-0.7,0.8-1l-0.2-0.2c-0.8,0.8-1.6,1.7-2.4,2.5c0,0,0.1,0.2,0.2,0.4l1.2-1.4l3.8,3.6
			c-1.9,0-3.8-0.2-5.6-0.4c-1.1-0.2-2-0.2-2.7,0.8c-0.3,0.5-0.8,0.8-1.2,1.3l0.1,0.2c0.2-0.1,0.3-0.2,0.5-0.2c0.5,0,1.1-0.2,1.4,0.1
			c1.7,1.6,3.3,3.3,4.9,4.9L104.9,112.1z M14.2,46.2l0-0.2c-0.7-0.3-1.4-0.6-2.1-0.9c-0.1,0-0.3,0.1-0.4,0.2c-0.5,0.9-1,1.8-1.3,2.8
			c-0.4,1.3,0.2,2.4,1.3,3c1.2,0.6,2.2,0.4,3.2-0.7c0.3-0.3,0.5-0.7,0.8-1c0.3-0.4,0.7-0.7,1.1-1c0.6-0.4,1.2-0.3,1.8,0.1
			c0.6,0.4,0.7,0.9,0.5,1.6c-0.3,1.1-0.8,1.6-2,1.7c-0.8,0.1-1.5,0.2-2.3,0.2l-0.1,0.2c0.9,0.4,1.8,0.8,2.7,1.2
			c0.1,0,0.3-0.1,0.3-0.2c0.6-1,1.2-2,1.6-3.1c0.5-1.4-0.2-2.9-1.4-3.5c-1.4-0.7-2.5-0.5-3.6,0.8c-0.3,0.4-0.6,0.7-0.8,1.1
			c-0.2,0.2-0.4,0.5-0.6,0.7c-0.8,0.6-1.8,0.3-2.1-0.7c-0.2-0.8,0.3-1.8,1.1-2C12.7,46.5,13.5,46.4,14.2,46.2L14.2,46.2z M30.8,32.3
			L30.6,32l-1.1,1l-2.3-2.1c0.6-0.7,1.2-1.3,1.7-2c0.7-1.1,0.5-2.3-0.4-3.2c-0.9-0.9-2-1-3.1-0.2c-0.4,0.3-0.7,0.6-1,0.9
			c-1,1-1.9,2-2.9,3c-0.1,0.1-0.2,0.2-0.2,0.3l0.2,0.2l0.9-0.7l5.7,5.4l-0.9,1.1l0.2,0.2C28.5,34.7,29.7,33.5,30.8,32.3L30.8,32.3z
			 M76,125.5c0-0.1,0-0.2,0-0.3c-0.3,0-0.7,0.1-1,0.1c-0.2,0-0.5-0.2-0.5-0.3c-0.2-1.2-0.4-2.4-0.6-3.6c1.6-0.5,1.5,1.2,2.4,1.6
			l-0.6-4c-0.6,0.7-0.4,2.1-1.9,1.9c-0.2-1.1-0.3-2.3-0.5-3.4c2.7-0.5,2.3-0.7,3.8,1.2c0.2,0.3,0.4,0.6,0.7,0.9l0.2-0.1l-0.5-3
			l-7.4,1.1l0,0.2h1.2c0.4,2.7,0.7,5.3,1.1,8l-1.3,0.3l0.1,0.3L76,125.5z M38.9,116.2c-0.1-0.1-0.1-0.1-0.2-0.2l-0.5,0.3
			c-0.5,0.3-1,0.6-1.5,0.8c-1.5,0.7-3.3-0.6-3-2.3c0.5-2.2,1.7-4.1,3.6-5.3c1.4-0.9,3,0.1,3,1.8c0,0.7-0.1,1.3-0.2,2
			c0,0.1,0,0.3,0,0.4l0.2,0.1c0.5-0.8,0.9-1.5,1.4-2.3c0-0.1-0.1-0.3-0.1-0.4c-0.9-0.8-1.7-1.7-2.7-2.3c-1.5-0.9-3.2-0.8-4.6,0.4
			c-1,0.8-1.6,1.9-2,3.1c-0.4,1.2-0.1,2.4,0.6,3.4c1,1.4,2.5,2.1,4,2.7c0.2,0,0.4,0,0.5-0.1C38,117.6,38.4,116.9,38.9,116.2z
			 M30.7,102.3l-4.9-5.7l-0.2,0.2l0.7,1c-2.1,1.7-4.1,3.4-6.1,5.1c-0.8-0.8-0.8-0.8-1.2-0.7l3.2,3.8l0.3-0.2l-0.9-1.3l3-2.7
			c0.2,0.3,0.5,0.5,0.5,0.6c-0.1,0.8-0.4,1.5-0.6,2.4l3.2-2.7c-1-0.1-2.1,0.7-2.7-0.6c0.4-0.4,0.9-0.8,1.4-1.2
			c0.4-0.4,0.9-0.7,1.3-1.1c1.8,1.4,1.9,1.8,1.1,3.8c-0.1,0.4-0.3,0.7-0.4,1.1l0.2,0.1L30.7,102.3z M121,47.2l-7,2.5
			c-0.4,0.1-0.6,0-0.7-0.4c-0.1-0.2-0.2-0.5-0.4-0.7l-0.2,0.1c0.5,1.5,1,2.9,1.5,4.3c0,0.1,0.2,0.1,0.4,0.1
			c-0.1-0.2-0.1-0.3-0.1-0.4c-0.3-0.9-0.3-1,0.7-1.3c1.3-0.5,2.6-0.9,4-1.4l2.5-0.9c0.7,1.3,0.7,1.4-0.2,2.4c-0.4,0.5-0.9,1-1.3,1.5
			l0.1,0.2c0.8-0.3,1.6-0.6,2.5-0.9c0.5-0.2,0.5-0.4,0.3-0.8c-0.5-1.2-0.9-2.4-1.4-3.7c-0.4-1.2-0.8-2.5-1.3-3.8l-3,1
			c0,0.1,0,0.1,0,0.2c0.6,0.1,1.3,0.2,1.9,0.2C120.3,45.7,121,46.1,121,47.2L121,47.2z M88.6,19.5l-0.2-0.1c-0.5,0.5-1,0.9-1.5,1.4
			c-0.7,0.7-1.5,0.7-2.3,0.3c-0.9-0.4-1.3-1.1-1.2-2c0.1-1.9,0.8-3.7,2-5.2c0.2-0.2,0.4-0.4,0.6-0.5c1.2-0.7,2.5-0.2,2.9,1.1
			c0.2,0.6,0.2,1.3,0.3,1.9c0,0.2,0.1,0.4,0.1,0.6h0.2c0.3-0.8,0.6-1.6,0.8-2.4c0-0.2-0.1-0.4-0.2-0.5c-1.1-0.6-2.1-1.3-3.2-1.6
			c-1.4-0.5-2.8-0.1-3.8,1c-1.2,1.2-1.7,2.8-1.6,4.5c0.1,1.1,0.6,2,1.5,2.7c1.2,1,2.7,1.3,4.3,1.5c0.1,0,0.4,0,0.4-0.1
			C87.9,21.2,88.3,20.3,88.6,19.5L88.6,19.5z M14.6,40l2.2,1.3c0.7,0.4,1.4,0.9,2.1,1.3c2.2,1.2,3.8,0.8,5.1-1.3
			c1-1.6,0.8-3.2-0.7-4.3c-1-0.8-2-1.4-3-2.1c-0.6-0.4-1.1-0.7-1.7-1.1c0.2-0.5,0.4-0.9,0.6-1.4c-0.7,0.4-2.1,2.8-1.9,3.3
			c0.3-0.5,0.6-1,1-1.5c1,0.6,2,1.2,2.9,1.8c0.8,0.5,1.6,1.1,2.3,1.8c0.9,0.8,0.9,1.9,0.2,2.8c-0.6,0.9-1.6,1.3-2.7,0.8
			c-1.8-0.9-3.5-2-5.3-3c0.3-0.5,0.5-0.9,0.7-1.3c-0.2-0.1-0.4,0-0.5,0.1c-0.7,1.1-1.5,2.3-2.2,3.4c-0.1,0.1,0,0.3,0,0.4l0.2,0
			C14.2,40.6,14.4,40.3,14.6,40z M111.2,29.8c-1.8,1.5-3.2,2.9-4.8,4.1c-1.1,0.8-2.2,0.5-3-0.4c-0.8-0.9-0.8-2,0.1-3
			c1.3-1.4,2.7-2.7,4.1-4.1l1.2,1.1c0-0.3,0-0.4,0-0.5c-1-1.1-1.9-2.1-2.9-3.2c-0.1-0.1-0.3,0-0.5,0l0.8,1c-0.7,0.7-1.3,1.3-1.9,2
			c-0.7,0.7-1.4,1.3-2,2c-1.2,1.4-1.2,2.8-0.1,4.3c0.2,0.3,0.4,0.5,0.7,0.8c1.1,1.1,2.6,1.2,3.9,0.4c0.7-0.5,1.4-1,2-1.6
			c0.9-0.8,1.7-1.6,2.5-2.3l1.1,0.9l0.1-0.2c-0.8-0.7-2.3-2.2-2.8-2.3L111.2,29.8z M54.6,116.4c-0.5,2.6-1,5.3-1.5,7.9l-1.5-0.1
			l0,0.2c0.1,0.1,0.2,0.1,0.4,0.2c2.4,0.5,4.8,0.9,7.2,1.4c0.4,0.1,0.6-0.1,0.6-0.4c0.2-0.8,0.4-1.7,0.5-2.5c0-0.2,0.1-0.4,0.1-0.7
			l-0.2-0.1c-0.1,0.2-0.3,0.4-0.4,0.6c-0.5,0.6-0.9,1.3-1.4,1.9c-0.2,0.2-0.5,0.5-0.8,0.4c-0.8-0.1-1.6-0.2-2.4-0.4
			c0.5-2.7,1.1-5.3,1.5-7.9c1.3,0,1.3,0,1.5-0.2l-4.6-0.8l-0.1,0.3L54.6,116.4z M41.9,120.4c0.7-0.7,1.3-1.5,1.9-2.2
			c0.1-0.1,0.3-0.1,0.4-0.1c0.5,0.2,1.1,0.4,1.6,0.6c0.1,0.1,0.2,0.2,0.2,0.4c0,1-0.1,1.9-0.2,2.9l-1.2-0.3l-0.1,0.2
			c1.3,0.5,2.6,1.1,3.9,1.6c0.1,0,0.2-0.1,0.2-0.1c-0.2-0.4-0.6-0.7-0.6-1c0-2.3,0-4.7,0.1-7.1c0-0.8,0-1.5,0-2.4
			c-0.2,0.1-0.3,0.2-0.5,0.4c-1.9,2.1-3.7,4.1-5.5,6.2c-0.4,0.4-0.7,0.9-1.4,0.5c0,0-0.2,0.1-0.5,0.2l2.9,1.1l0.1-0.3L41.9,120.4z
			 M121.8,88.5l-0.2,0c-0.3,0.2-0.6,0.5-0.9,0.5c-2.5-0.1-4.9-0.3-7.4-0.5c-0.6,0-1.3,0-2,0c0.1,0.1,0.2,0.3,0.3,0.4
			c1.8,1.9,3.6,3.7,5.5,5.5c0.5,0.5,1.2,1,0.8,1.9c0,0,0.1,0.1,0.1,0.1c0.5-0.3,1.3-2.4,1.1-2.9l-0.8,1.6c-0.7-0.8-1.3-1.5-1.9-2.3
			c-0.1-0.2-0.1-0.4-0.1-0.6c0.2-0.5,0.4-0.9,0.6-1.3c0.1-0.2,0.3-0.3,0.5-0.3c1,0.1,1.9,0.2,2.9,0.3c-0.2,0.5-0.3,0.8-0.4,1.2
			l0.3,0.1L121.8,88.5z M67.8,126.2V126l-1.3-0.2c0.1-2.7,0.2-5.3,0.2-8l1.3-0.1v-0.2h-4.6l0,0.1l1.1,0.1v8l-1.4,0.2l0,0.3H67.8z
			 M115.2,99.8l-6.5-4.6c0.2-0.5,0.4-0.8,0.6-1.2l-0.3-0.1l-2.6,3.8l0.2,0.2l0.8-0.9c1.1,0.8,2.2,1.6,3.3,2.3
			c1.1,0.8,2.2,1.5,3.2,2.3c-0.3,0.4-0.5,0.8-0.7,1.2l0.3,0.2l2.7-3.9l-0.3-0.2L115.2,99.8z"/>
		<path d="M66.2,115.6c-26.5,0-48.2-21.6-47.8-48.5c0.3-26.7,22.5-47.8,48.9-47.2c25.6,0.6,47.1,21.7,46.7,48.5
			C113.7,94.4,92.7,115.6,66.2,115.6z M62,32.8c1.8-0.6,3.5-1.2,5.3-0.7c1,0.2,2,0.3,2.9,0.5c0.2,0,0.3,0.1,0.5,0.3
			c0.6,1.3,0.1,2.6-1.2,3.3c-0.4,0.2-0.6,0.7-0.4,1.2c0,0.1,0.1,0.2,0.1,0.2c1.1,1.3,3,1.7,4.6,1c-0.1-0.1-0.2-0.1-0.3-0.1
			c-1.4-0.7-2-1.9-1.4-3.4c0.4-1.1,0.8-2.1,1.2-3.1c0.2-0.5,0.4-1,0.6-1.6c-0.6-0.1-1-0.2-0.9-0.8c0.2-0.6,0.6-0.4,1-0.4
			c0.6,0.1,1.2,0.1,1.7,0.1c2.1,0,4.2,0,6.3,0c1.8,0,3.7-0.1,5.5-0.2c0.3,0,0.5,0.1,0.7,0.3c0.1,0.1,0,0.5-0.1,0.7
			c-0.1,0.1-0.4,0.1-0.6,0.2c0.1,0.3,0.1,0.6,0.2,0.8c0.5,1.4,1,2.7,1.4,4.1c0.5,1.4-0.4,3-1.7,3.3c-1.1,0.2-1.9-0.1-2.6-0.9
			c-0.6-0.8-0.8-1.7-0.3-2.6c0.7-1.5,1.4-3,2.1-4.6h-5.2c0.1,0.2,0.2,0.4,0.2,0.6c0.7,2.5,1.4,4.9,2.1,7.4c0.2,0.7,0,1.4-0.4,2
			c-0.6,0.8-1.2,1.6-1.9,2.2c-1.1,1-1.3,2.2-1.1,3.6c0.1,0.5,0.1,1.1,0.2,1.6c0.7,4.3,1.5,8.6,1.6,13.1c0,2.4,0.4,4.8,0.7,7.2
			c0,0.2,0.1,0.4,0.2,0.6c0.7,1.1,0.7,2.3,0.8,3.6c0.1,0.8,0,1.4-0.8,1.9c-0.4,0.2-0.6,0.8-0.8,1.2c-0.4,0.9-0.3,1.8-0.1,2.6
			c0.6,2.3,0.8,4.6-0.4,6.7c-0.5,1-0.7,2.1-0.5,3.2c0.1,0.5-0.1,1.1-0.4,1.4c-0.8,0.9-1.7,1.8-2.7,2.7c-0.5,0.5-1,0.9-1.1,1.6
			c7.3,2,13.8,5.6,19.7,10.2c13.2-10.9,20.5-30.3,14.7-49.7c-5.9-19.6-24.4-34-46.3-33.5c-20,0.5-38.1,13.7-44.1,33.5
			c-5.9,19.6,1.6,38.9,14.8,49.7c3.7-2.7,7.6-5,11.7-6.9c0.2-0.1,0.3-0.4,0.3-0.6c0-0.7-0.1-1.3-0.2-2c-0.6-7.7-1.2-15.5-1.8-23.2
			c-0.1-0.9-0.1-0.9-1-0.6c-0.2,0.1-0.5,0-0.7,0c0-0.3,0-0.7,0.1-0.8c0.8-0.4,1.1-0.9,0.9-1.8c0-0.1,0.1-0.3,0.1-0.4
			c0-0.2,0-0.5-0.1-0.8c-0.3-0.9-0.4-1.8,0.2-2.6c0.5-0.7,0.8-1.6,0.7-2.6c0-0.4-0.1-0.7-0.6-0.7c-0.2,0-0.4-0.3-0.4-0.4
			c0-0.2,0.2-0.4,0.4-0.5c0.9-0.2,1.7-0.5,2.6-0.6c0.2,0,0.6,0.1,0.7,0.2c0.1,0.2,0.1,0.5,0,0.7c-0.6,0.7-0.1,1.2,0,1.9
			c0.4-0.4,0.7-0.7,1-1.2c1.7-2.6,3.3-5.3,5-7.8c0.8-1.1,1.4-2.3,1.8-3.6c0.6-1.8,1.2-3.6,1.9-5.4c0.4-1.2,1.1-2.2,2.1-3
			c0.6-0.5,1.1-1.1,1.7-1.7c0.4-0.4,0.4-0.7,0.2-1.2c-0.3-0.5-0.5-0.9-0.8-1.4C61.1,36,60.9,35,61.4,34c0.4-0.8,0.3-1.8,0-2.6
			c-0.3-0.6-0.2-1.4,0.2-2c0.5-0.7,1.1-1.4,1.7-2.1c1-1,3-1.3,4-0.5c0.9,0.8,1.8,1.6,2.5,2.5c0.5,0.6,0.8,1.3,0.7,2.1
			c-0.2-0.1-0.3-0.1-0.4-0.2c-0.9-0.4-1.8-1-2.8-1.2c-1.4-0.2-2.9-0.1-4.3,0.5c-1.4,0.6-1.4,0.5-1.1,2C61.9,32.7,61.9,32.7,62,32.8z
			 M73,39.7c-0.1,0.1-0.2,0.3-0.3,0.4c-1,1.6-2,3.3-3.1,4.9c-1,1.6-2.5,2.5-4.3,2.9c-1,0.2-2.1,0.3-3.1,0.3c-0.7,0-0.9,0.2-0.8,0.8
			c0.4,1.8,0.7,3.5,1.2,5.3c0.3,1,0.3,1.8-0.2,2.7c-1.7,3-2.1,6.3-2.2,9.6c-0.1,4.4,0.7,8.7,1.3,13.1c0.3,2.1,0.9,4.1,0.3,6.3
			c-0.1,0.2-0.1,0.5,0,0.7c0.2,3.9,0.5,7.8,0.7,11.7c0.1,1.9,0.3,3.9-1,5.6c-0.2,0.3-0.2,0.7-0.3,1c0,0.2,0,0.5,0.2,0.7
			c0.6,0.7,2.1,0.5,2.6-0.4l-1.4-0.3c0.3-0.2,0.7-0.3,1.1-0.4c0.6-0.1,1.2-0.2,1.8-0.3c0.4,0,0.9,0,1.3,0c-0.1,0.5-0.1,0.7-0.2,1.1
			c0.5,0,0.8,0,1.1-0.1c1.4-0.4,2.8-0.1,3.9,0.6c0.9,0.5,1.6,0.3,2.5,0.3c0.1,0,0.1-0.1,0.2-0.2c-0.4-0.4-1.2,0-1.3-0.8l0.7-0.1
			c-0.5-3.5-1.2-7-1.5-10.5c-0.4-3.5-0.5-7-0.7-10.5l1.2,0.8c-0.8,0.5-0.7,1.3-0.6,2c0.2,1.8,0.4,3.7,0.6,5.5c0.1,0.5,0.2,1,0.3,1.5
			l0.2,0c0.1-0.9,0.1-1.7,0.2-2.6c0.1-3.4,0.1-6.8,0.2-10.1c0.1-1.4,0-2.7-1-3.9c-0.1-0.1-0.1-0.4-0.2-0.5c-0.2-0.4-0.5-0.7-0.8-1.1
			c-0.3-0.4-0.8-0.7-0.9-1.1c-0.3-0.9-0.9-1.5-1.7-2c-0.5-0.4-1-0.9-1.4-1.4c-0.6-0.7-1.2-1.4-1.8-2.1c-0.1-0.2-0.3-0.4-0.4-0.5
			l0.1-0.1c1,0.7,2.3,1,2.9,2.3c0.3,0.5,0.6,1.2,1.4,1.1c0.1,0,0.1,0.1,0.2,0.1c1.3,1.4,2.6,2.7,3.1,4.6c0.2,0.7,0.6,1.2,1.3,1.6
			c0.2-0.6,0.4-1.1-0.4-1.4c-0.3-0.1-0.5-0.5-0.7-0.8l0.1-0.2c0.1,0,0.3,0.1,0.4,0.1c0.2,0,0.5-0.1,0.6-0.3c0.1-0.2,0-0.5-0.1-0.7
			c-0.1-0.2-0.4-0.2-0.6-0.4c-0.3-0.2-0.6-0.5-0.8-0.7l0.1-0.2l0.7,0.2c0.2-0.7,0.4-1.4,0.5-2l-0.2,0c-0.2,0.3-0.4,0.7-0.6,1
			c-0.1,0.1-0.3,0.1-0.4,0.1c-0.1,0-0.2-0.3-0.1-0.4c0.4-0.5,0-0.9-0.3-1.3c-0.1-0.2-0.2-0.6-0.2-0.7c0.2-0.2,0.5-0.3,0.8-0.3
			c0.5,0,1,0,1.6,0.1c0.4,1.9,1.1,3.7,0.8,5.7c-0.3,2.6-0.6,5.1-0.9,7.6c-0.1,1-0.2,2-0.3,3c-0.1,2.4-0.2,4.9-0.4,7.4
			c0.2-0.2,0.3-0.3,0.4-0.4c1.4-1.5,2.8-3.1,4.3-4.6c0.8-0.8,1.1-1.5,0.9-2.6c-0.2-0.8,0.1-1.6,0.7-2.3c0.2-0.2,0.5-0.4,0.6-0.7
			s0.1-0.6,0-0.8c-0.5-0.6-1.1-1.3-1.7-1.8c-1.5-1.3-2.1-2.8-1.1-4.6c0-0.1,0-0.1,0.1-0.2c0.3-2.3,0.8-4.6-1.6-6.2
			c-0.6-0.4-0.4-0.9-0.1-1.3c0.5-0.5,0.9-1,1.5-1.5c0.7-0.6,0.9-1.3,0.9-2.2c0-2.8,0-5.5,0-8.3c0.1-3.4,0.2-6.7,0.2-10.1
			c0-0.7-0.1-1.4-0.1-2.1c-0.7,0-1,0.4-1.1,0.9c-0.3,2.4-0.7,4.8-1,7.3c-0.5,4.4-0.9,8.8-1.3,13.2c-0.1,1.3-0.3,2.6-1.2,3.5
			c-0.5-0.1-0.9-0.2-1.4-0.3c-1.1-0.2-1.2-0.7-0.6-1.7l0.7,1.1l0.3-0.2c-0.2-0.5-0.4-1.1-0.7-1.5s-0.4-0.7,0.1-0.9
			c-0.1-0.3,0-0.6,0.1-0.9c0.2-0.4,0.6-0.8-0.2-0.9c-0.1,0-0.1-0.5-0.1-0.5c0.8-0.2,0.4-0.9,0.5-1.3c0-0.1-0.1-0.5-0.2-0.5
			c-1.3-0.1-0.7-0.6-0.2-1c0,0,0-0.1,0-0.2L71,60.2c0-0.2,0.1-0.3,0.1-0.4c0.3-0.9,0.2-1.1-0.7-1.5c-0.3-0.1-0.6-0.3-0.9-0.5l1-1.9
			l-2.8,0.2l-0.1-0.2c0.3-0.2,0.6-0.4,0.9-0.6c0.2-0.2,0.6-0.3,0.7-0.6c0.1-0.4,0-0.8,0.1-1.3c0-0.2,0.2-0.4,0.3-0.6
			c0.2,0.1,0.5,0.3,0.6,0.5c0.1,0.2,0.1,0.5,0.1,0.7l0.3,0c0.1-0.5,0.1-1.1,0.1-1.5l-1.1-0.5l1-0.9L70.5,51l-1.2,0.5
			c0.4-0.9,1.3-1.3,1.2-2.2l-1.8,0.3l-0.1-0.2c0.2-0.4,0.3-0.8,0.6-1c0.1-0.1,0.5,0,1,0l-0.6-0.8c0.3-0.6,0.6-1.1,0.9-1.6
			c0.2-0.3,0.4-0.6,0.7-0.9c0.2-0.2,0.4-0.4,0.5-0.6c0.1-0.5,0.1-1,0.3-1.4c0.3-0.9,0.8-1.7,1.1-2.5C73.3,40.3,73.5,39.9,73,39.7
			L73,39.7z M36.7,104.5c16.1,13.6,42,14.4,59.4-0.2c0-0.1-0.1-0.1-0.1-0.2c-5.8-4.6-12.3-8-19.5-9.9c-0.2,0-0.5,0-0.6,0.1
			c-1,0.6-1.5,1.5-1.8,2.6c-0.4,1.4-0.4,1.5,1.1,1.6c1.2,0,2.3,0.6,3.4,1c0.2,0.1,0.5,0.3,0.6,0.4c0.1,0.4,0.1,0.9,0,1.3
			c-0.2,0.4-0.6,0.2-0.9,0c-0.3-0.2-0.6-0.1-1-0.2l-0.1,0.2l0.8,0.7c-0.7,0.4-1.6,0.4-2.5-0.2c0.2-0.3,0.5-0.6,0.6-0.9
			c0-0.2-0.4-0.4-0.6-0.6l1.4-0.2c0-0.1,0-0.2,0-0.3L74,99.5c0,0.6-0.1,1.1,0.1,1.4c0.5,0.9,0.6,1.9,0.7,2.8
			c0.1,0.7,0.6,1.5,0.1,2.1c0.2,0.5,0.7,0.8,0.6,1.1c-0.1,0.6-0.8,0.4-1.2,0.4c-0.2,0-0.3-0.1-0.5-0.1c-0.3,0-0.7-0.1-0.9,0
			c-0.9,0.7-1.6,0.3-2.5-0.1c-0.7-0.3-1.3-0.3-2-0.1c-0.7,0.2-1.5,0.3-2.2,0.1c-0.7-0.3-1.3-0.1-2,0.1c-1.2,0.4-2.3,0.7-3.5,0
			c-0.2-0.1-0.3-0.1-0.5-0.1c-0.8-0.1-0.9-0.3-0.5-1c0.3-0.5,0.6-1.4,0.4-1.5c-0.6-0.6-1.3-1.1-2.2-1.3c-0.7-0.2-1.6,0-2.4,0
			c-0.3,0-0.6-0.1-1-0.1c0.2-0.4,0.4-0.6,0.5-0.9c-0.6-0.5-1.5-0.5-2.1-0.2c-0.5,0.2-1,0.3-1.5,0.4c-0.6,0.1-1.5,0-1.9,0.4
			c-0.7,0.8-1.4,0.6-2.3,0.4v-0.6l-0.9,0.1l-0.1-0.2l0.5-0.6c-0.1-0.3-0.2-0.6-0.2-0.7c0.3-0.2,0.6-0.5,0.9-0.5
			c0.6,0,0.7-0.3,0.7-0.8c-0.1-0.8-0.2-1.6-0.4-2.4C44,99.6,40.2,101.8,36.7,104.5L36.7,104.5z M50,95.7l7-2.2
			c1.1-0.4,2.3-0.4,3.4-1.1c1-0.7,1.1-0.6,1-1.8c-0.3-2.8-0.7-5.6-1-8.5c-0.3-2.7-0.7-5.3-0.9-8c-0.3-3.5-0.8-7-0.2-10.6
			c0.3-2,0.4-4.2,1.6-5.9c1.1-1.6,0.4-3.1,0.1-4.5c-1.1,1.5-2,3.2-3.2,4.7c-2.5,3-5.2,5.9-7.9,8.9c-0.2,0.2-0.3,0.4-0.5,0.7
			c0.5,0.1,0.8-0.1,1.1,0c0.2,0.1,0.4,0.2,0.5,0.5c0,0.2-0.2,0.5-0.4,0.6c-1.3,0.5-1.3,0.4-1.4,1.8c0,0.2,0,0.4,0,0.7
			c0.2,5.6,0.4,11.2,0.6,16.7C49.8,90.3,49.9,93,50,95.7L50,95.7z M61.9,33.9c0.1,0.2,0.2,0.4,0.3,0.6c0.2,0.3,0.4,0.6,0.6,0.8
			c0.3,0.4,0.6,0.8,1,1c1.2,0.6,1.4,2,0.4,2.8c-0.8,0.6-1.5,1.2-2.3,1.8c-1.4,1.1-2.4,2.5-2.9,4.2c-0.8,2.4-1.6,4.7-2.4,7.1
			c-0.1,0.4-0.4,0.8-0.6,1.2c-0.6,0.8-1.4,1.6-2,2.5c-1.2,1.8-2.4,3.6-3.6,5.4c-0.7,1-1.4,1.8-2.8,2c-1.6,0.3-2.3,2-1.4,3.5
			c0.7-0.6,1.5-1,2.4-0.8c0.5,0.1,0.7-0.1,0.9-0.5c0.4-0.5,0.7-1.1,1.2-1.5c0.5-0.6,1.1-1,1.6-1.6c1.2-1.3,2.4-2.6,3.6-3.9
			c3.3-3.4,5.3-7.4,5.2-12.2c0-0.2,0-0.4,0.1-0.5c0.1,0.4,0.2,0.7,0.3,1.1c0.1,0.5,0.3,0.6,0.7,0.6c2.6-0.2,4.9-1,6.6-3.1
			c0.9-1.1,1.7-2.3,2.6-3.5c0.2-0.3,0.4-0.6,0.5-1c-1.3-0.6-2.4-1.1-3.6-1.7c-0.8-0.4-0.7-1.5,0-2.1c0.4-0.3,0.7-0.7,0.9-1.2
			c0.2-0.5,0.1-1.1,0.2-1.9c-1.3,0-2.7-0.1-4,0C64.2,33.2,63.1,33.6,61.9,33.9L61.9,33.9z M74.5,65.6l0.2,0c0.1-0.7,0.3-1.3,0.3-2
			c0.3-4.6,0.5-9.1,0.9-13.7c0.2-3,0.6-6.1,1-9.1c0.2-1.2,0.3-2.6,1.8-3.1c-0.9-0.4-1.5,0.1-2.1,0.5c-1.4,1.1-2.9,2.1-3,4.2l0.8-0.1
			c0,0.5,0,0.9,0,1.4c-0.2,1.3-0.4,2.6-0.6,3.9c-0.4,2.6-0.7,5.2-2,7.6c-0.1,0.2,0,0.6,0.1,0.9c0.8,1.6,1.3,3.4,1.7,5.2
			C73.9,62.7,74.2,64.2,74.5,65.6L74.5,65.6z M79.1,30.4c0.3,2.3,0.6,4.6,1,6.9c0.1,0.7,0,1.1-0.8,1.4c-0.3,0.1-0.5,0.4-0.6,0.8
			c-0.2,1-0.2,2.1-0.3,3.1c0,0.3,0,0.7,0,1.1c0.2-0.1,0.4-0.2,0.5-0.3c1.2-1.3,2.4-2.6,3.6-4c0.2-0.2,0.2-0.6,0.1-0.9
			c-0.6-2.7-1.3-5.4-1.9-8.1L79.1,30.4z M81.9,72.8c-0.7-6.6-1.4-12.9-2.1-19.3c-0.1,0.1-0.1,0.3-0.1,0.4c0,3.3-0.1,6.5-0.1,9.7
			c0,2-0.5,3.7-2.1,5c-0.8,0.7-0.7,1.1,0.3,1.4c1.3,0.5,2.5,1.2,3.4,2.2C81.4,72.4,81.6,72.5,81.9,72.8L81.9,72.8z M58.8,94
			c-1.3,0.1-7.5,2.1-8.4,2.6c-0.1,0.1-0.3,0.2-0.3,0.4c0,1.1,0,2.1,0,3.1l0.2,0.1c0.5-1.4,1.6-1.2,2.6-1.3c0.4-0.1,0.9-0.2,1.3-0.2
			c0.4-0.1,0.7-0.3,0.8-0.8c0-0.1,0.2-0.4,0.4-0.4c0.4-0.1,0.8-0.2,1.2-0.3c0.6-0.1,1.2-0.5,1.4-1.1C58.2,95.4,58.5,94.7,58.8,94z
			 M74.6,30.3c0.1,0.3,0.2,0.5,0.3,0.7c0.6,1.3,1.2,2.7,1.8,4c0.4,0.7,0.3,1.4,0,2.2l-0.2,0.5c0.7-0.3,1.3-0.6,2-0.8
			c0.6-0.2,0.8-0.5,0.7-1.1c-0.1-1.2-0.2-2.3-0.3-3.5c-0.1-0.7-0.2-1.4-0.3-2H74.6z M48.7,97.6l0.2,0c-0.4-9.3-0.8-18.7-1.3-28.1
			c-0.9,0.3-0.9,0.3-0.8,1c0.5,6.3,0.9,12.6,1.4,18.9C48.3,92.1,48.5,94.9,48.7,97.6L48.7,97.6z M60.4,94.1
			c-0.1,0.2-0.3,0.3-0.4,0.5c-1.2,1.8-2.4,3.6-3.6,5.5c-0.4,0.5-0.2,0.9,0.5,1c0.6,0.1,1.1,0.2,1.7,0.4c0.4,0.1,0.6-0.1,0.6-0.4
			c0-0.9,0.3-1.6,0.8-2.3c0.4-0.5,0.7-1,1-1.6c0.1-0.2,0.1-0.5,0.1-0.7l-0.3-0.1l-1.6,2.2L59,98.5c0.1-0.3,0.2-0.7,0.4-1
			c0.4-0.7,0.8-1.3,1.2-1.9C60.9,95,60.9,94.6,60.4,94.1L60.4,94.1z M81.1,75.8c-0.7,0.6-1.5,1.2-2.3,1.8c-0.2,0.1-0.3,0.6-0.3,0.7
			c0.8,1,1.6,2.1,2.5,3c0.5,0.5,1,0.1,1-0.6c0-0.4-0.1-0.8-0.2-1.1C81.6,78.3,81.3,77,81.1,75.8z M88.5,35.3l-1.6-4.7l-2.1,4.7H88.5
			z M76.2,35.3l-2-4.6c-0.6,1.6-1.1,3.1-1.7,4.6H76.2z M79,76.3c0.8-0.9,1.5-1.6,2.1-2.4c0.1-0.2,0.1-0.3,0-0.5
			c-0.6-0.7-1.2-1.4-2.1-1.6V76.3z M88.5,36h-3.7c0.4,1.2,1.2,1.9,2.1,1.8C87.7,37.8,88.4,37,88.5,36L88.5,36z M72.5,36
			c0.3,1.2,1,1.8,1.9,1.8c0.8,0,1.5-0.7,1.8-1.8H72.5z M59.6,101.6c0.4,0.2,0.7,0.3,1.1,0.4c0.5,0.1,0.9,0.1,0.8-0.6
			c0-0.3,0-0.7,0.1-0.9c0.4-0.6,0.1-1.2,0.1-1.7l-0.2-0.1C60.9,99.6,60.3,100.6,59.6,101.6L59.6,101.6z M46.1,68.5l2.6-0.8
			c0-0.3,0-0.8-0.1-0.8c-0.7-0.2-1.5-0.1-2.1,0.4C46.2,67.5,46.2,68,46.1,68.5z"/>
		<path d="M51.2,10.5c1.1-0.1,2.1-0.3,3.2-0.4c0.2,0,0.4,0.3,0.5,0.5c0.9,1.5,1.7,3,2.6,4.5c0,0,0,0,0.2,0.1c0.2-1,0.5-2,0.7-3
			c0.2-0.8,0.3-1.6,0.5-2.3c0-0.2,0.2-0.5,0.4-0.5C60.1,9.1,61,9,62,8.8c0.1,0,0.2,0.1,0.3,0.2l-1.2,0.4c0.4,2.6,0.8,5.2,1.3,7.8
			l1.3-0.1c-0.4,0.5-4.4,1.2-4.8,0.8l1.5-0.3c-0.4-2.3-0.7-4.7-1-7l-0.1,0c-0.6,2.7-1.2,5.3-1.8,8l-0.2,0l-4.2-7.1l-0.2,0.1
			c0.4,2.3,0.8,4.7,1.2,7.1c0.4,0,0.6-0.1,0.9-0.1c0.2,0,0.5,0,0.7,0c0,0.1,0,0.2,0,0.3l-3.2,0.6L52.3,19l1.2-0.4
			c-0.4-2.6-0.8-5.2-1.3-7.7l-1-0.1L51.2,10.5z M59.5,9.6l1.2,7.9l0.8-0.2c-0.4-2.6-0.8-5.2-1.3-7.9L59.5,9.6z M57.1,17.5
			c0.3-0.7,0.2-1.2-0.1-1.7c-0.9-1.5-1.8-3-2.7-4.6c-0.3-0.6-0.7-0.7-1.2-0.4L57.1,17.5z"/>
		<path d="M119.4,65.5c0.8-1.4,1.8-1.5,2.9-0.4c1.4-0.6,2.2-0.1,2.3,1.4c1.7,0.5,1.9,2.1,0.4,3c0.7,0.4,1.1,0.9,0.9,1.7
			c-0.2,0.8-0.8,1-1.5,1.1c-0.4,1.5-0.9,1.9-2.2,1.5c-1,0.9-1.8,0.9-2.6-0.2c-0.1-0.1-0.4-0.2-0.5-0.2c-0.8,0-1.2-0.3-1.4-1.2
			c-0.1-0.2-0.2-0.3-0.3-0.5c-0.1-0.2-0.3-0.3-0.5-0.5c-0.6-0.6,0.2-1.4-0.2-2.1c-0.5-0.7,0-1.4,0.7-1.9c0.1,0,0.1-0.2,0.1-0.3
			C117.6,65.6,118,65.3,119.4,65.5z M122.1,66.2c-0.1-0.3,0-0.6-0.1-0.7c-0.3-0.3-0.6-0.6-0.9-0.6c-0.3,0-0.7,0.2-1,0.5
			c-0.3,0.3-0.1,0.6,0.1,1c0.2,0.4,0.4,0.8,0.6,1.3c0.1,0.2,0.2,0.4,0.3,0.4c0.2,0,0.4-0.1,0.5-0.3
			C121.8,67.1,121.9,66.6,122.1,66.2z M123.1,65.3c-0.1,0.1-0.5,0.2-0.6,0.5c-0.2,0.7-0.5,1.5-0.6,2.2c0,0.1,0.2,0.4,0.3,0.4
			c0.7-0.1,1.8-1.1,1.9-1.9C124.3,65.8,123.8,65.3,123.1,65.3L123.1,65.3z M119.8,69.3c0-0.1,0-0.2,0-0.3c-0.5-0.7-0.9-1.4-1.9-1.4
			c-0.6,0-0.9,0.4-1,0.9c-0.1,0.6,0.3,1,0.8,1C118.4,69.5,119.1,69.4,119.8,69.3z M123.4,69.3L123.4,69.3c0.5,0,0.9-0.1,1.4-0.2
			c0.6-0.2,0.9-0.7,0.7-1.3c-0.1-0.3-0.4-0.5-0.7-0.7c-0.1-0.1-0.5,0.2-0.7,0.3c-0.5,0.4-0.9,0.7-1.4,1.1c-0.1,0.1-0.2,0.2-0.4,0.4
			c0.1,0.1,0.3,0.2,0.5,0.3C123.1,69.3,123.3,69.3,123.4,69.3L123.4,69.3z M121,70.5c-0.3,0.8-0.5,1.4-0.7,2.1
			c-0.1,0.3-0.3,0.7-0.2,0.8c0.3,0.3,0.6,0.4,1,0.4c0.2,0,0.7-0.4,0.7-0.6c0-0.8-0.1-1.6-0.3-2.5C121.4,70.7,121.1,70.6,121,70.5z
			 M122.4,69.7l0,0.2c0.5,0.5,0.9,0.9,1.4,1.5c0.3,0.4,0.6,0.6,1,0.4c0.3-0.2,0.7-0.6,0.7-0.9s-0.4-0.8-0.7-0.9
			C124,69.8,123.2,69.8,122.4,69.7L122.4,69.7z M121.9,70.4c0.1,0.7,0.4,1.4,0.4,2.2c0,0.5,0,0.9,0.6,0.9c0.5,0,1-0.4,1-0.9v0
			C123.8,71.7,122.7,70.5,121.9,70.4L121.9,70.4z M120.2,68.3c0.1-0.1,0.1-0.1,0.2-0.2c0.1-0.6-0.7-1.9-1.2-2.1
			c-0.6-0.3-1.3,0.2-1.3,0.8c0,0.2,0.1,0.3,0.2,0.4C118.8,67.5,119.5,67.9,120.2,68.3L120.2,68.3z M119.9,69.8
			c-0.9,0.1-1.7,0.1-2.4,0.2c-0.1,0-0.4,0.2-0.4,0.4c0,0.3,0,0.7,0.2,0.8c0.3,0.2,0.6,0.2,0.9,0.2C119,71.1,119.6,70.5,119.9,69.8
			L119.9,69.8z M120.3,70.4l-2.3,1.7c0.2,0.2,0.4,0.6,0.6,0.6c0.3,0.1,0.7,0,1-0.2C120.3,72.1,120.4,71.3,120.3,70.4L120.3,70.4z
			 M122,69.3c0-0.5-0.4-0.8-0.9-0.9c-0.5,0-0.8,0.3-0.9,0.8c0,0.6,0.3,0.9,0.8,0.9C121.6,70.1,121.9,69.8,122,69.3L122,69.3z"/>
		<path d="M12.8,73.8c-1.1,1-2,0.8-2.7-0.4c-1.3,0-1.2-0.1-1.9-1.3c-0.5-0.8-1.2-1.4-0.7-2.4c0,0-0.1-0.1-0.1-0.2
			c-0.4-0.7-0.3-1.4,0.4-2c0.1-0.1,0.3-0.3,0.4-0.5c0.2-1.4,0.6-1.7,2-1.5c0.8-1.3,1.5-1.4,2.8-0.5c0.1,0.1,0.2,0.1,0.4,0
			c1.3-0.4,2,0,2.1,1.4c1.9,0.6,1.7,2.3,0.4,3c0.7,0.4,1.1,0.9,0.9,1.8c-0.2,0.8-0.9,1-1.6,1.1C14.8,73.8,14.2,74.1,12.8,73.8z
			 M12.8,66.2c0-0.3,0-0.4-0.1-0.5c-0.2-0.3-0.5-0.8-0.8-0.8c-0.4-0.1-0.8,0.2-1.1,0.4c-0.4,0.3-0.1,0.7,0.1,1
			c0.2,0.4,0.4,0.8,0.6,1.2c0.1,0.1,0.2,0.4,0.3,0.4c0.2,0,0.3-0.1,0.4-0.3C12.5,67.1,12.6,66.6,12.8,66.2z M10.5,69.3l0-0.3
			c-0.5-0.6-0.9-1.4-1.8-1.4c-0.6,0-1,0.3-1.1,0.9c-0.1,0.6,0.3,1,0.9,1C9.1,69.6,9.8,69.4,10.5,69.3z M14.9,66
			c-0.2-0.1-0.4-0.5-0.8-0.6c-0.2-0.1-0.8,0.1-0.9,0.4c-0.3,0.7-0.4,1.5-0.6,2.2c0,0.1,0.2,0.4,0.3,0.4C13.7,68.3,14.9,67,14.9,66
			L14.9,66z M14.3,69.3c0,0,0.2,0,0.3,0c0.6-0.1,1.2-0.2,1.5-0.8c0.3-0.5,0.1-0.9-0.4-1.3c-0.4-0.3-0.7-0.1-1,0.3
			c-0.3,0.3-0.6,0.6-1,0.9c-0.2,0.2-0.5,0.4-0.7,0.7l1,0.3C14.2,69.3,14.3,69.3,14.3,69.3z M11.7,70.6c-0.3,0.8-0.6,1.4-0.8,2.1
			c-0.1,0.3-0.3,0.7-0.2,0.8c0.2,0.3,0.6,0.4,0.9,0.4c0.3,0,0.6-0.2,0.7-0.5c0.4-0.9,0.1-1.8-0.3-2.6C12,70.6,11.8,70.6,11.7,70.6
			L11.7,70.6z M13.1,69.7l0,0.2c0.5,0.5,0.9,1,1.4,1.5c0.2,0.2,0.7,0.4,0.9,0.3c0.3-0.1,0.6-0.5,0.7-0.8c0-0.3-0.3-0.8-0.5-0.9
			C14.8,69.9,14,69.8,13.1,69.7z M12.6,70.4c0.1,0.8,0.3,1.5,0.4,2.2c0,0.5,0.1,0.9,0.7,0.8c0.5,0,0.9-0.5,0.9-1
			C14.5,71.7,13.3,70.6,12.6,70.4L12.6,70.4z M10.9,68.2c0,0,0.2-0.1,0.1-0.3c-0.1-0.8-0.4-1.6-1.1-2c-0.4-0.3-1-0.1-1.2,0.3
			c-0.1,0.1-0.1,0.3-0.1,0.4c0,0.2,0.1,0.4,0.2,0.5C9.5,67.5,10.2,67.9,10.9,68.2z M10.7,69.8c-0.1,0-0.2-0.1-0.2-0.1
			C9.7,69.8,9,69.9,8.2,70c-0.1,0-0.4,0.2-0.4,0.3c0,0.3,0,0.7,0.2,0.9c0.3,0.2,0.6,0.3,1,0.2C9.7,71.1,10.3,70.5,10.7,69.8z
			 M8.7,72.2c0.1,0.2,0.3,0.6,0.5,0.6c0.3,0.1,0.7,0,1-0.1c0.7-0.4,0.9-1.5,0.7-2.2L8.7,72.2z M12.7,69.3c0-0.6-0.4-0.9-0.9-0.9
			c-0.5,0-0.9,0.3-0.9,0.8c0,0.5,0.3,0.8,0.8,0.8C12.3,70.1,12.6,69.9,12.7,69.3z"/>
		<path d="M97.4,112.2c1.5-0.5,2.4,0.1,3.1,1.3c0.6,0.9,0.6,0.9,1.9,0.8c-0.4,1.1-2.5,1.6-3.4,0.8c-0.3-0.3-0.6-0.6-0.8-1
			c-0.9-1.2-1.6-1.3-2.8-0.2c0.7,1.1,1.4,2.1,2.1,3.2l1.2-0.6l0.1,0.3l-3.9,2.6c-0.1-0.3-0.1-0.3,0.8-1.1l-4.3-6.7l-1.1,0.5
			l-0.3-0.3c0.2,0,0.3-0.1,0.5-0.2c1.1-0.7,2.2-1.5,3.4-2.2c0.4-0.3,0.9-0.5,1.4-0.7c1-0.3,1.8-0.1,2.3,0.7c0.6,0.8,0.6,1.6,0,2.5
			C97.6,111.8,97.6,111.9,97.4,112.2z M93.2,110.3l2,3.1c0.6-0.5,1.4-0.7,1.3-1.6c-0.1-0.9-0.6-1.7-1.4-2.1
			C94.4,109.4,93.8,109.7,93.2,110.3L93.2,110.3z M91.8,111.1l4.4,6.8l0.7-0.5l-4.3-6.8L91.8,111.1z M97.5,112.5
			c0.4,0.5,0.9,1.1,1.4,1.6c0.6,0.8,1.2,0.9,1.9,0.6c-0.4-0.5-0.9-1-1.3-1.5C98.9,112.5,98.3,112.3,97.5,112.5L97.5,112.5z
			 M97,111.8c0.6-0.8,0.5-1.6-0.1-2.3c-0.5-0.6-1.1-0.7-1.9-0.3C96.2,109.6,96.7,110.6,97,111.8L97,111.8z"/>
		<path d="M23.2,93c0.1,2.8-3,4.6-5.1,4.6c-2.5,0-4.6-2.3-4.6-5.1c0-2.4,2.4-4.6,5.1-4.6C21.1,88,23.2,90.3,23.2,93z M16.5,95.8
			c1.5,0,4.3-1.4,5.4-2.8c0.5-0.7,0.8-1.4,0.4-2.2c-0.4-0.8-1.1-1.2-2-1.1c-2.2,0.1-4.2,1.2-5.6,2.9c-0.5,0.6-0.6,1.4-0.2,2.2
			C15,95.5,15.6,95.8,16.5,95.8L16.5,95.8z M14,92.2c1.8-2.1,3.9-3.3,6.8-3.2c-1.3-0.9-2.5-0.9-3.6-0.4C15.6,89.3,14.2,90.2,14,92.2
			z M16.1,96.4c1.8,0.9,3.2,0.3,4.5-0.5c1.4-0.8,2.1-1.9,2.1-3C21,94.9,18.9,96,16.1,96.4L16.1,96.4z"/>
		<path d="M108.1,39l6.7-4l-0.5-1.2c0.3,0,0.4,0,0.4,0c0.9,1.5,1.9,3,2.7,4.6c0.8,1.5,0,3-1.6,3.1c-0.6,0-1.1-0.3-1.7-0.4
			c0,0.1,0,0.2,0,0.3c0.1,0.8-0.2,1.5-0.8,2c-0.2,0.1-0.4,0.3-0.6,0.4c-1,0.7-1,0.7-0.8,2c-0.1-0.1-0.3-0.1-0.4-0.2
			c-0.2-0.4-0.5-0.8-0.6-1.2c-0.4-1-0.2-1.8,0.7-2.4c0.2-0.1,0.4-0.2,0.5-0.4c1.3-0.8,1.4-1.5,0.4-2.8l-3.3,2l0.6,1.2l-0.3,0.1
			c-0.8-1.3-1.6-2.6-2.4-4l0.2-0.2L108.1,39z M112.8,38.6c0.6,1.3,1.1,1.6,1.9,1.3c0.5-0.2,1-0.5,1.4-0.9c0.6-0.5,0.6-1.3,0.1-1.9
			c-0.1-0.1-0.4-0.2-0.6-0.2C114.7,37.5,113.8,38,112.8,38.6z M108.7,40.2l6.9-4.1l-0.5-0.7l-6.8,4.1L108.7,40.2z M113.5,41
			c-0.6,0.5-1.1,0.9-1.7,1.3c-0.7,0.5-0.9,1-0.7,1.8c0.5-0.4,1.1-0.9,1.6-1.3C113.4,42.3,113.7,41.7,113.5,41z M117,38.5
			c-0.6,1.2-1.5,1.8-2.7,1.9c0.7,0.6,1.3,0.7,2.1,0.2C117.1,40.1,117.3,39.5,117,38.5L117,38.5z"/>
		<path d="M85.1,123.3c-2.5,0-4.5-2.2-4.5-5.1c0-2.5,2.2-4.5,5.1-4.5c2.5,0,4.5,2.3,4.5,5.1C90.2,121.3,88,123.3,85.1,123.3z
			 M82.6,116.9c0.1,0.4,0.1,0.9,0.2,1.4c0.3,1.3,0.8,2.6,1.7,3.6c0.6,0.7,1.3,1,2.3,0.7c0.9-0.3,1.4-1,1.4-2c0-0.5,0-1-0.1-1.5
			c-0.4-1.5-0.9-3-2-4.1c-1.2-1.2-2.9-0.7-3.3,0.9C82.7,116.2,82.6,116.6,82.6,116.9z M84.3,122.8c-1.8-2.1-2.7-4.3-2.2-7.2
			c-1.2,1.3-1.2,2.6-0.8,4C81.8,121.1,82.5,122.3,84.3,122.8L84.3,122.8z M86.3,114.3c0.6,1,1.3,2.1,1.7,3.2s0.6,2.4,0.8,3.5
			C90.5,119.3,88.5,114.4,86.3,114.3L86.3,114.3z"/>
		<path d="M36.8,21.7c1.3-0.4,2.2,0,2.9,1.1c0.1,0.2,0.3,0.4,0.4,0.6c0.3,0.4,0.7,0.6,1.2,0.3c0.1-0.1,0.3-0.1,0.4-0.1
			c-0.6,1.3-2.6,1.7-3.6,0.7c-0.2-0.2-0.4-0.5-0.5-0.7c-0.9-1.2-1.6-1.3-2.8-0.2l2.1,3.1l1.2-0.6l0.1,0.3l-3.8,2.6l-0.2-0.2l1-0.9
			l-4.4-6.5l-1.2,0.6c0-0.3,0-0.3,0-0.4c1.5-1,3-2.1,4.6-3.1c0.7-0.4,1.5-0.5,2.2,0.1c0.7,0.5,1,1.2,0.8,2
			C37.2,20.9,37,21.3,36.8,21.7z M34.5,23c0.6-0.4,1.3-0.7,1.3-1.5c0-0.7-0.9-1.9-1.6-2.1c-0.7-0.2-1.2,0.1-1.8,0.6L34.5,23z
			 M36.3,27.1l-4.4-6.6l-0.7,0.5l4.4,6.6L36.3,27.1z M40.2,24.3c-0.3-0.2-0.6-0.4-0.8-0.6c-0.2-0.3-0.5-0.5-0.7-0.8
			c-0.6-0.7-1.2-0.9-1.9-0.7c0.4,0.5,0.9,1,1.4,1.6C38.8,24.5,39.4,24.6,40.2,24.3L40.2,24.3z M34.2,18.9c1.2,0.4,1.8,1.4,2.1,2.6
			c0.6-0.8,0.5-1.5-0.1-2.2C35.7,18.6,35.1,18.5,34.2,18.9L34.2,18.9z"/>
		<path d="M96.4,27c-2.6,0-5-2.2-5-4.6c0-2.6,2.2-5,4.6-5c2.5,0,5,2.2,5,4.6C101,24.6,98.8,27,96.4,27z M92.9,24.1
			c0,0.8,0.4,1.5,1.1,1.8c0.7,0.4,1.4,0.3,2.1-0.1c1.7-1.2,2.7-2.8,3.3-4.7c0.2-0.9,0.1-1.7-0.7-2.3s-1.6-0.5-2.4,0
			c-1.6,1-2.5,2.5-3.1,4.2C93,23.4,93,23.7,92.9,24.1z M96.3,17.9c-1.8-0.1-2.9,0.9-3.8,2.3c-0.7,1.1-1,2.3-0.4,3.6
			C92.7,21.2,94,19.2,96.3,17.9z M100,20.2c-0.5,2.6-1.8,4.6-4,6.3c1.7,0,2.6-1,3.4-2.2C100.2,23,100.7,21.7,100,20.2L100,20.2z"/>
		<path d="M44.6,17.7l1.6,3.8c0.7-0.3,1.4-0.5,2-0.9c0.3-0.2,0.4-0.6,0.5-0.9c0.2-0.7,0.2-1.5,0.3-2.2l0.2,0l1.1,2.8l-7,2.9
			l-0.1-0.2l1.2-0.7l-3-7.3l-1.1,0.4L40,15c0.1-0.1,0.3-0.2,0.4-0.3c1.8-0.8,3.6-1.5,5.4-2.3c0.4-0.2,0.6-0.2,0.8,0.3
			c0.3,0.7,0.7,1.5,1,2.2l-0.2,0.1c-0.4-0.3-0.8-0.7-1.3-1c-1.3-1-1.5-1-3.1,0l1.2,3.2c1.4-0.2,0.9-1.5,1.3-2.3l1.5,3.7
			C46.3,18.3,45.9,16.9,44.6,17.7z M41.7,14.6c1,2.5,2,4.9,3,7.4l0.7-0.3l-3-7.3L41.7,14.6z"/>
		<path d="M69.5,9.4c-0.1,1.1-0.2,2.2-0.3,3.4c1.4,0.5,1.4-0.9,2.2-1.4c-0.1,1.3-0.2,2.6-0.2,3.9c-0.8-0.6-0.5-2.2-2-1.9
			c-0.1,1.3-0.2,2.6-0.3,4c0.8,0,1.5,0.1,2.2,0.1c0.2,0,0.5-0.3,0.7-0.5c0.5-0.6,0.9-1.3,1.4-1.9l0.2,0c-0.1,1-0.2,2-0.3,2.9
			l-7.6-0.5l0-0.2l1.3-0.1c0.2-2.6,0.4-5.2,0.6-7.9l-1.2-0.2l0-0.3l6.9,0.4v2.9l-0.2,0.1c-0.2-0.5-0.5-0.9-0.7-1.4
			C71.5,9.3,71.3,9.2,69.5,9.4z M68.1,17.2c0.2-2.5,0.4-5,0.5-7.4c0-0.2-0.2-0.3-0.4-0.5c-0.2,0.1-0.4,0.3-0.4,0.4
			c-0.2,2.4-0.3,4.9-0.5,7.3c0,0.1,0.1,0.1,0.1,0.2H68.1z M72.7,9.5L72,9.6c0.2,0.4,0.4,0.7,0.7,1.2V9.5z"/>
		<path d="M104.9,112.1l0.8-1c-1.6-1.6-3.2-3.3-4.9-4.9c-0.3-0.2-0.9-0.1-1.4-0.1c-0.2,0-0.3,0.2-0.5,0.2l-0.1-0.2
			c0.4-0.4,0.9-0.8,1.2-1.3c0.7-1,1.6-1,2.7-0.8c1.9,0.3,3.8,0.4,5.6,0.4l-3.8-3.6l-1.2,1.4c-0.1-0.2-0.2-0.4-0.2-0.4
			c0.8-0.8,1.6-1.7,2.4-2.5l0.2,0.2c-0.2,0.3-0.5,0.7-0.8,1l6.3,6.5l-9.4-0.9l4.3,4.6c0.4-0.4,0.7-0.7,1-0.9c0.1-0.1,0.2,0,0.4-0.1
			c0,0.1,0,0.3-0.1,0.4c-0.7,0.7-1.5,1.5-2.2,2.2L104.9,112.1z M100,105.4l10,0.9c-0.5-0.8-1.2-1-2-1.1c-2.1-0.2-4.3-0.4-6.4-0.6
			C100.9,104.5,100.5,104.8,100,105.4L100,105.4z"/>
		<path d="M14.2,46.2c-0.8,0.1-1.5,0.2-2.2,0.4c-0.8,0.2-1.3,1.2-1.1,2c0.3,1,1.4,1.3,2.1,0.7c0.2-0.2,0.4-0.5,0.6-0.7
			c0.3-0.4,0.5-0.7,0.8-1.1c1.1-1.3,2.2-1.5,3.6-0.8c1.3,0.7,2,2.1,1.4,3.5c-0.4,1.1-1.1,2.1-1.6,3.1c-0.1,0.1-0.3,0.2-0.3,0.2
			c-0.9-0.4-1.8-0.8-2.7-1.2l0.1-0.2c0.8-0.1,1.5-0.1,2.3-0.2c1.1-0.1,1.7-0.7,2-1.7c0.2-0.7,0-1.2-0.5-1.6
			c-0.5-0.4-1.2-0.5-1.8-0.1c-0.4,0.3-0.8,0.7-1.1,1c-0.3,0.3-0.5,0.7-0.8,1c-1,1.1-2,1.3-3.2,0.7c-1.1-0.6-1.7-1.7-1.3-3
			c0.3-1,0.9-1.9,1.3-2.8c0.1-0.1,0.3-0.2,0.4-0.2c0.7,0.3,1.4,0.6,2.1,0.9L14.2,46.2z M18.9,48.1c-1.1-1.4-2.6-1.5-3.6-0.2
			c-0.3,0.4-0.6,0.8-0.9,1.2c-1.1,1.4-1.6,1.6-3.2,0.9c0.7,1.3,2.3,1.4,3.3,0.3c0.4-0.4,0.7-0.9,1.1-1.4
			C16.7,47.6,17.2,47.5,18.9,48.1z M16.4,52.5l0,0.1l1.2,0.5l0.5-0.8L16.4,52.5z"/>
		<path d="M30.9,32.3c-1.2,1.2-2.3,2.4-3.5,3.6l-0.2-0.2l0.9-1.1l-5.7-5.4l-0.9,0.7l-0.2-0.2c0.1-0.1,0.1-0.2,0.2-0.3
			c0.9-1,1.9-2,2.9-3c0.3-0.3,0.7-0.6,1-0.9c1.1-0.7,2.2-0.6,3.1,0.2c1,0.9,1.2,2.1,0.4,3.2c-0.5,0.7-1.1,1.3-1.7,2l2.3,2.1l1.1-1
			L30.9,32.3z M23.7,27.6l3.1,3c0.7-0.6,1.2-1.2,1-2.1c-0.3-1-1-1.8-2.1-2C24.8,26.3,24.3,27,23.7,27.6L23.7,27.6z M22.6,28.8
			c1.9,1.8,3.8,3.6,5.7,5.5l0.5-0.6l-5.7-5.5L22.6,28.8z M28.4,28.8c0.5-1,0.3-1.7-0.7-2.6c-0.8-0.7-1.5-0.8-2.2-0.3
			C27.1,26.4,27.9,27.2,28.4,28.8L28.4,28.8z"/>
		<path d="M38.9,116.2c-0.5,0.7-1,1.4-1.5,2c-0.1,0.1-0.3,0.2-0.5,0.1c-1.5-0.6-3-1.3-4-2.7c-0.7-1-0.9-2.2-0.6-3.4
			c0.3-1.2,1-2.3,2-3.1c1.4-1.2,3.1-1.3,4.6-0.4c1,0.6,1.8,1.5,2.7,2.3c0.1,0.1,0.2,0.3,0.1,0.4c-0.5,0.8-0.9,1.5-1.4,2.3l-0.2-0.1
			c0-0.1,0-0.3,0-0.4c0.1-0.7,0.2-1.3,0.2-2c0-1.7-1.5-2.7-3-1.8c-1.9,1.2-3.2,3-3.6,5.3c-0.3,1.6,1.5,2.9,3,2.3
			c0.5-0.2,1-0.5,1.5-0.8l0.5-0.3C38.8,116.1,38.9,116.1,38.9,116.2z M33,114.8c0.6-2.7,1.9-4.8,4.5-6c-1.7-0.2-2.9,0.6-3.7,1.8
			C32.9,111.8,32.2,113.1,33,114.8z"/>
		<path d="M30.7,102.3l-2.3,2.1l-0.2-0.1c0.1-0.4,0.3-0.7,0.4-1.1c0.8-2,0.7-2.3-1.1-3.8c-0.4,0.4-0.8,0.7-1.3,1.1
			c-0.5,0.4-0.9,0.8-1.4,1.2c0.6,1.3,1.7,0.5,2.7,0.6l-3.2,2.7c0.2-0.9,0.5-1.6,0.6-2.4c0-0.2-0.3-0.4-0.5-0.6l-3,2.7l0.9,1.3
			l-0.3,0.2l-3.2-3.8c0.4-0.1,0.4-0.1,1.2,0.7c2-1.7,4.1-3.4,6.1-5.1l-0.7-1l0.2-0.2L30.7,102.3z M20.9,103.9l6.2-5.2l-0.5-0.6
			l-6.2,5.2C20.6,103.5,20.7,103.7,20.9,103.9z M30.1,102.2l-0.5-0.5l-0.4,1.4C29.5,102.8,29.8,102.5,30.1,102.2L30.1,102.2z"/>
		<path d="M121,47.2c0-1.2-0.7-1.5-1.7-1.6c-0.6,0-1.3-0.2-1.9-0.2c0-0.1,0-0.1,0-0.2l3-1c0.5,1.3,0.9,2.6,1.3,3.8
			c0.4,1.2,0.9,2.5,1.4,3.7c0.2,0.4,0.2,0.7-0.3,0.8c-0.8,0.3-1.6,0.6-2.5,0.9l-0.1-0.2c0.5-0.5,0.9-1,1.3-1.5
			c0.9-1,0.9-1.1,0.2-2.4l-2.5,0.9c-1.3,0.5-2.6,0.9-4,1.4c-1,0.4-1,0.4-0.7,1.3c0,0.1,0.1,0.2,0.1,0.4c-0.2,0-0.4,0-0.4-0.1
			c-0.5-1.4-1-2.9-1.5-4.3l0.2-0.1c0.1,0.2,0.3,0.4,0.4,0.7c0.1,0.4,0.3,0.5,0.7,0.4L121,47.2z M121.5,48.5l-0.3-0.8
			c-2.3,0.8-4.6,1.6-6.9,2.4c-0.6,0.2-0.7,0.5-0.3,1L121.5,48.5z"/>
		<path d="M14.6,40c-0.2,0.4-0.5,0.7-0.7,0.9l-0.2,0c0-0.1-0.1-0.3,0-0.4c0.7-1.2,1.5-2.3,2.2-3.4c0.1-0.1,0.2-0.1,0.5-0.1
			c-0.2,0.4-0.4,0.8-0.7,1.3c1.8,1,3.5,2.1,5.3,3c1.1,0.6,2.1,0.2,2.7-0.8c0.7-1,0.6-2-0.2-2.8c-0.7-0.7-1.5-1.3-2.3-1.8
			c-0.9-0.6-1.9-1.2-2.9-1.8c-0.3,0.5-0.6,1-1,1.5c-0.2-0.5,1.1-2.9,1.9-3.3c-0.2,0.5-0.4,0.9-0.6,1.4c0.6,0.4,1.1,0.7,1.7,1.1
			c1,0.7,2.1,1.3,3,2.1c1.5,1.2,1.7,2.8,0.7,4.3c-1.3,2.1-2.9,2.6-5.1,1.3c-0.7-0.4-1.4-0.8-2.1-1.3L14.6,40z M22.5,42.3
			c-3,0-4.8-2.4-7.2-3.4l-0.4,0.7c1.7,1,3.4,2,5.1,2.9C20.8,43,21.6,42.9,22.5,42.3z"/>
		<path d="M111.1,29.9c-0.6-0.5-1.3-1-1.3-1.3c0.3-0.3,1.9,1.3,2.8,2.3l-0.1,0.2l-1.1-0.9c-0.8,0.8-1.6,1.6-2.5,2.3
			c-0.6,0.6-1.3,1.1-2,1.6c-1.3,0.8-2.7,0.7-3.9-0.4c-0.2-0.2-0.5-0.5-0.7-0.8c-1.2-1.5-1.2-2.8,0.1-4.3c0.6-0.7,1.3-1.4,2-2
			c0.6-0.6,1.3-1.3,1.9-2l-0.8-1c0.3,0,0.5-0.1,0.5,0c1,1,1.9,2.1,2.9,3.2c0,0,0,0.1,0,0.5l-1.2-1.1c-1.4,1.4-2.8,2.7-4.1,4.1
			c-0.9,1-0.9,2.1-0.1,3c0.8,1,2,1.2,3,0.4C108,32.7,109.3,31.4,111.1,29.9z M106.7,25.3c-1.5,1.4-2.9,2.7-4.3,4.1
			c-0.7,0.7-0.8,1.6-0.3,2.7c0.1-1.5,0.8-2.4,1.8-3.2c1.1-1,2.2-2.1,3.3-3.1L106.7,25.3z"/>
		<path d="M41.9,120.4l1.3,0.6l-0.1,0.3l-3-1.1c0.3-0.1,0.4-0.2,0.5-0.2c0.7,0.4,1-0.1,1.4-0.5c1.8-2.1,3.7-4.1,5.5-6.2
			c0.1-0.1,0.3-0.2,0.5-0.4c0,0.9,0,1.7,0,2.4c0,2.3-0.1,4.7-0.1,7.1c0,0.3,0.4,0.6,0.6,1c0,0-0.1,0.1-0.2,0.1
			c-1.3-0.5-2.6-1.1-3.9-1.6l0.1-0.2l1.2,0.3c0.1-1,0.1-2,0.2-2.9c0-0.2-0.1-0.3-0.2-0.4c-0.5-0.2-1-0.4-1.6-0.6
			c-0.2,0-0.3,0-0.4,0.1C43.2,119,42.5,119.7,41.9,120.4z M47.3,122.5v-8.1c-0.5,0.3-0.7,0.8-0.7,1.4c0,1.9-0.1,3.7-0.2,5.6
			C46.2,122.2,46.5,122.5,47.3,122.5z M46.2,115.5l-1.9,2.2l1.8,0.7C46.1,117.5,46.2,116.6,46.2,115.5L46.2,115.5z"/>
		<path d="M121.8,88.5l-1.9,3.9l-0.3-0.1c0.1-0.4,0.3-0.8,0.4-1.2c-1-0.1-1.9-0.2-2.9-0.3c-0.2,0-0.4,0.1-0.5,0.3
			c-0.2,0.4-0.4,0.9-0.6,1.3c-0.1,0.2,0,0.4,0.1,0.6c0.6,0.7,1.2,1.4,1.9,2.3l0.8-1.6c0.2,0.5-0.6,2.5-1.1,2.9c0,0-0.1-0.1-0.1-0.1
			c0.5-0.9-0.2-1.4-0.8-1.9c-1.8-1.8-3.7-3.7-5.5-5.5c-0.1-0.1-0.2-0.3-0.3-0.4c0.7,0,1.4,0,2,0c2.5,0.1,4.9,0.4,7.4,0.5
			c0.3,0,0.6-0.3,0.9-0.5L121.8,88.5z M120.6,89.8l-8.1-0.6c0.4,0.6,0.8,0.9,1.4,0.9c1.8,0.1,3.7,0.3,5.5,0.6
			C120.2,90.7,120.5,90.6,120.6,89.8L120.6,89.8z M116.4,90.7l-2.5-0.2c0.6,0.6,1.2,1.2,1.8,1.8L116.4,90.7z"/>
		<path d="M115.2,99.8l0.9-1l0.3,0.2l-2.7,3.9l-0.3-0.2c0.2-0.4,0.4-0.7,0.7-1.2c-1.1-0.8-2.2-1.5-3.2-2.3c-1.1-0.8-2.2-1.5-3.3-2.3
			l-0.8,0.9l-0.2-0.2l2.6-3.8l0.3,0.1c-0.2,0.4-0.4,0.7-0.6,1.2L115.2,99.8z M107.8,96.5l6.6,4.6l0.5-0.7c-2.2-1.6-4.4-3.1-6.6-4.6
			L107.8,96.5z"/>
		<path class="st0" d="M62,32.8c0-0.1-0.1-0.2-0.1-0.2c-0.3-1.5-0.3-1.5,1.1-2c1.4-0.6,2.8-0.7,4.3-0.5c1,0.2,1.9,0.8,2.8,1.2
			c0.1,0,0.2,0.1,0.4,0.2c0.1-0.8-0.2-1.5-0.7-2.1c-0.8-0.9-1.6-1.7-2.5-2.5c-1-0.8-3-0.5-4,0.5c-0.6,0.7-1.2,1.3-1.7,2.1
			c-0.5,0.6-0.6,1.3-0.2,2c0.4,0.8,0.4,1.7,0,2.6c-0.4,1-0.3,1.9,0.2,2.8c0.3,0.5,0.5,0.9,0.8,1.4c0.2,0.4,0.2,0.8-0.2,1.2
			c-0.6,0.5-1.1,1.2-1.7,1.7c-0.9,0.8-1.6,1.9-2.1,3c-0.6,1.8-1.3,3.6-1.9,5.4c-0.4,1.3-1,2.5-1.8,3.6c-1.8,2.6-3.4,5.2-5,7.8
			c-0.3,0.4-0.6,0.8-1,1.2c-0.2-0.6-0.6-1.2,0-1.9c0.1-0.2,0.1-0.5,0-0.7c-0.1-0.2-0.5-0.3-0.7-0.2c-0.9,0.2-1.8,0.4-2.6,0.6
			c-0.2,0.1-0.4,0.3-0.4,0.5c0,0.1,0.3,0.4,0.4,0.4c0.5,0,0.6,0.3,0.6,0.7c0.1,0.9-0.1,1.8-0.7,2.6c-0.6,0.8-0.6,1.7-0.2,2.6
			c0.1,0.2,0.1,0.5,0.1,0.8c0,0.1-0.1,0.3-0.1,0.4c0.2,0.8-0.1,1.4-0.9,1.8c-0.1,0.1-0.1,0.5-0.1,0.8c0.2,0,0.5,0.1,0.7,0
			c0.9-0.3,0.9-0.3,1,0.6c0.6,7.7,1.2,15.5,1.8,23.2c0,0.7,0.2,1.3,0.2,2c0,0.2-0.1,0.5-0.3,0.6c-4.1,1.9-8.1,4.2-11.7,6.9
			C22.6,93,15.1,73.6,21,54.1C27,34.2,45,21,65.1,20.5C87,20.1,105.5,34.5,111.4,54c5.9,19.4-1.5,38.8-14.7,49.7
			C90.8,99,84.3,95.5,77,93.5c0.1-0.8,0.6-1.2,1.1-1.6c1-0.8,1.9-1.7,2.7-2.6c0.3-0.3,0.4-1,0.4-1.4c-0.2-1.1,0-2.2,0.5-3.2
			c1.2-2.2,1-4.5,0.4-6.7c-0.2-0.9-0.3-1.8,0.1-2.6c0.2-0.5,0.4-1,0.8-1.2c0.7-0.5,0.9-1.1,0.8-1.9c-0.1-1.2-0.2-2.5-0.8-3.6
			c-0.1-0.2-0.2-0.4-0.2-0.6c-0.2-2.4-0.6-4.8-0.7-7.2c-0.1-4.4-0.9-8.7-1.6-13.1c-0.1-0.5-0.1-1.1-0.2-1.6
			c-0.2-1.4,0.1-2.6,1.1-3.6c0.7-0.7,1.2-1.5,1.9-2.2c0.5-0.6,0.6-1.2,0.4-2c-0.7-2.5-1.4-4.9-2.1-7.4c-0.1-0.2-0.1-0.4-0.2-0.6h5.2
			c-0.7,1.6-1.4,3.1-2.1,4.6c-0.5,1-0.3,1.9,0.3,2.6c0.7,0.8,1.5,1.1,2.6,0.9c1.4-0.3,2.2-1.8,1.7-3.3c-0.5-1.4-0.9-2.7-1.4-4.1
			c-0.1-0.3-0.2-0.5-0.2-0.8c0.3-0.1,0.5-0.1,0.6-0.2c0.1-0.2,0.2-0.6,0.1-0.7c-0.2-0.2-0.4-0.3-0.7-0.3c-1.8,0-3.7,0.1-5.5,0.2
			c-2.1,0-4.2,0-6.3,0c-0.6,0-1.2-0.1-1.7-0.1c-0.4,0-0.9-0.2-1,0.4c-0.2,0.6,0.3,0.7,0.9,0.8c-0.2,0.6-0.4,1.1-0.6,1.6
			c-0.4,1-0.8,2.1-1.2,3.1c-0.5,1.5,0,2.7,1.4,3.4c0.1,0,0.2,0.1,0.3,0.1c-1.6,0.7-3.5,0.3-4.6-1c-0.3-0.4-0.3-0.9,0.1-1.3
			c0.1-0.1,0.1-0.1,0.2-0.1c1.3-0.7,1.8-2,1.2-3.3c-0.1-0.1-0.3-0.2-0.5-0.3c-1-0.2-2-0.3-2.9-0.5C65.4,31.7,63.7,32.2,62,32.8z
			 M101.2,95l0.2-0.2c-0.1-0.7-0.7-1.1-1.2-1.5c-4-2.8-8-5.6-12-8.3c-0.2-0.1-0.6,0-0.9-0.1c0.1,0.3,0.2,0.7,0.4,0.9
			c4.1,2.9,8.2,5.7,12.3,8.5C100.3,94.5,100.7,94.8,101.2,95z M87.2,55.4c0.2-0.1,0.4-0.1,0.6-0.2c2.5-0.8,5.1-1.5,7.6-2.4
			c2.1-0.7,4.2-1.5,6.4-2.2c0.5-0.2,0.9-0.4,0.8-1c0-0.1-0.8-0.1-1.1,0c-4.5,1.5-9.1,3.1-13.6,4.6c-0.3,0.1-0.6,0.3-0.9,0.5
			c-0.1,0.1-0.2,0.3-0.2,0.5C86.8,55.3,87.1,55.4,87.2,55.4z M88.7,73.8c0,0.1-0.1,0.2-0.1,0.4c0.3,0.2,0.5,0.4,0.8,0.5
			c3.9,1.6,7.7,3.3,11.6,4.9c1.2,0.5,2.3,0.9,3.5,1.3c0.2,0.1,0.5-0.1,0.8-0.2c-0.2-0.2-0.3-0.5-0.5-0.6c-0.8-0.4-1.5-0.7-2.3-1
			c-4.1-1.6-8.2-3.3-12.3-4.9C89.8,74,89.2,73.9,88.7,73.8L88.7,73.8z M88,65.3c0.2,0,0.4,0,0.5,0c4.9,0,9.7,0,14.6,0
			c0.3,0,0.7,0,0.9,0c0.3-0.1,0.5-0.3,0.7-0.5c-0.2-0.1-0.5-0.4-0.7-0.4c-5.1,0-10.2,0-15.4,0C88.1,64.4,88,64.7,88,65.3z
			 M27.3,60.2c-0.2,0.7,0.3,0.9,0.7,1c2.5,0.7,5.1,1.4,7.6,2.1c1.3,0.4,2.6,0.7,3.9,1c0.3,0.1,0.8,0.2,0.9-0.3
			c0.1-0.5-0.2-0.7-0.6-0.8c-0.3,0-0.5-0.1-0.8-0.2L27.3,60.2z M44.1,53.4c-0.1-0.1-0.2-0.2-0.4-0.2c-4.3-1.7-8.6-3.3-12.9-5
			c-0.2-0.1-0.5,0.1-0.7,0.2c0.1,0.2,0.2,0.6,0.4,0.6c1,0.4,2,0.8,3,1.1c3.1,1.1,6.2,2.3,9.3,3.4C43.3,53.7,43.8,54,44.1,53.4z
			 M42.1,72.1c-0.3-0.8-0.9-0.6-1.3-0.5c-4.6,1-9.1,1.9-13.6,2.9c-0.2,0.1-0.4,0.4-0.7,0.5c0.2,0,0.5,0.2,0.8,0.1
			c2.9-0.6,5.9-1.2,8.8-1.9C38.1,73,40,72.6,42.1,72.1z M41.9,77.7l-13.5,9.4l0.1,0.3c0.3-0.1,0.6-0.2,0.8-0.3
			c4.1-2.7,8.3-5.4,12.4-8.1C42.3,78.5,42.2,78.2,41.9,77.7z M78.8,28.2l-1,0.8l0.1,0.2c0.5-0.2,1-0.4,1.5-0.5s1.1,0.2,1.6,0.3
			c0-0.1,0.1-0.1,0.1-0.2l-1.4-0.9c0.4-0.3,1-0.5,1.2-0.8c0.2-0.4-0.1-0.9-0.3-1.3c-0.2-0.4-0.3-1.1-1.1-0.6
			c-0.1-0.5-0.1-0.9-0.2-1.3c-0.1-0.2-0.4-0.4-0.6-0.3c-0.1,0-0.3,0.3-0.4,0.5c-0.1,0.2,0.1,0.4,0.1,0.6c0.2,0.5,0.1,0.8-0.4,1
			c-0.2,0.1-0.4,0.4-0.4,0.5C77.9,27,78,27.8,78.8,28.2L78.8,28.2z M35,95.1l0.2,0.1c0.7-0.6,1.5-1.3,2.2-1.9c2-1.8,4.1-3.6,6.1-5.3
			c0.4-0.3,0.6-0.7,0.1-1.1c-0.1,0-0.1,0-0.2,0c-2.8,2.5-5.5,5.1-8.3,7.6C35.2,94.7,35.1,94.9,35,95.1z"/>
		<path class="st0" d="M73,39.7c0.5,0.2,0.4,0.6,0.2,0.9c-0.4,0.8-0.8,1.7-1.1,2.5c-0.2,0.5-0.2,1-0.3,1.4c-0.1,0.2-0.3,0.4-0.5,0.6
			c-0.2,0.3-0.5,0.6-0.7,0.9c-0.3,0.5-0.6,1-0.9,1.6l0.6,0.7c-0.4,0-0.8-0.2-1,0c-0.3,0.2-0.4,0.7-0.6,1l0.1,0.2l1.8-0.3
			c0.1,0.9-0.8,1.3-1.2,2.2l1.2-0.5l0.1,0.1l-1,0.9l1.1,0.5c0,0.4-0.1,1-0.1,1.5l-0.3,0c0-0.2,0-0.6-0.1-0.7
			c-0.1-0.2-0.4-0.3-0.6-0.5c-0.1,0.2-0.3,0.4-0.3,0.6c-0.1,0.4,0.1,0.9-0.1,1.3c-0.1,0.2-0.5,0.4-0.7,0.6c-0.3,0.2-0.6,0.4-0.9,0.6
			l0.1,0.2l2.8-0.2l-1,1.9c0.2,0.1,0.5,0.3,0.9,0.5c0.9,0.4,1,0.5,0.7,1.5c0,0.1,0,0.2-0.1,0.4l1.4,0.1c0,0.1,0,0.2,0,0.2
			c-0.4,0.5-1,0.9,0.2,1c0.1,0,0.2,0.3,0.2,0.5c-0.1,0.5,0.3,1.1-0.5,1.3c0,0,0,0.5,0.1,0.5c0.8,0.2,0.4,0.5,0.2,0.9
			c-0.1,0.3-0.1,0.6-0.1,0.9c-0.5,0.3-0.4,0.5-0.1,0.9c0.3,0.4,0.5,1,0.7,1.5l-0.3,0.2l-0.7-1.1c-0.7,1-0.5,1.5,0.6,1.7
			c0.5,0.1,0.9,0.2,1.4,0.3c0.9-1,1.1-2.3,1.2-3.5c0.5-4.4,0.8-8.8,1.3-13.2c0.3-2.4,0.7-4.9,1-7.3c0.1-0.5,0.3-0.9,1.1-0.9
			c0,0.7,0.1,1.4,0.1,2.1c-0.1,3.4-0.2,6.7-0.2,10.1c0,2.8,0,5.5,0,8.3c0,0.9-0.3,1.6-0.9,2.2c-0.5,0.5-1,1-1.5,1.5
			c-0.4,0.4-0.5,0.9,0.1,1.3c2.4,1.6,2,3.9,1.6,6.2c0,0.1,0,0.1-0.1,0.2c-1,1.9-0.3,3.3,1.1,4.6c0.6,0.6,1.2,1.2,1.7,1.8
			c0.1,0.2,0.1,0.6,0,0.8c-0.1,0.2-0.4,0.5-0.6,0.7c-0.6,0.6-0.9,1.4-0.7,2.3c0.2,1.1-0.1,1.8-0.9,2.6c-1.5,1.5-2.9,3-4.3,4.6
			c-0.1,0.1-0.2,0.2-0.4,0.4c0.1-2.6,0.2-5,0.4-7.4c0.1-1,0.2-2,0.3-3c0.3-2.6,0.7-5.1,0.9-7.6c0.2-2-0.5-3.9-0.8-5.7
			c-0.6,0-1.1-0.1-1.6-0.1c-0.3,0-0.6,0.1-0.8,0.3c-0.1,0.1,0,0.5,0.2,0.7c0.3,0.4,0.6,0.7,0.3,1.3c0,0.1,0.1,0.4,0.1,0.4
			c0.2,0,0.3,0,0.4-0.1c0.2-0.3,0.4-0.6,0.6-1l0.2,0c-0.2,0.7-0.3,1.3-0.5,2L73,73.8L72.9,74c0.3,0.2,0.5,0.5,0.8,0.7
			c0.2,0.1,0.5,0.2,0.6,0.4c0.1,0.2,0.2,0.5,0.1,0.7s-0.4,0.2-0.6,0.3c-0.1,0-0.2-0.1-0.4-0.1L73.3,76c0.2,0.3,0.4,0.7,0.7,0.8
			c0.8,0.3,0.6,0.8,0.4,1.4c-0.7-0.4-1.1-0.9-1.3-1.6c-0.5-1.9-1.8-3.2-3.1-4.6c0-0.1-0.1-0.1-0.2-0.1c-0.9,0.1-1.2-0.6-1.4-1.1
			c-0.6-1.3-1.9-1.6-2.9-2.3l-0.1,0.1c0.1,0.2,0.3,0.4,0.4,0.5c0.6,0.7,1.2,1.4,1.8,2.1c0.4,0.5,0.9,1.1,1.4,1.4
			c0.8,0.5,1.4,1.1,1.7,2c0.1,0.4,0.6,0.8,0.9,1.1c0.3,0.4,0.5,0.7,0.8,1.1c0.1,0.2,0.1,0.4,0.2,0.5c1,1.1,1.1,2.4,1,3.9
			c-0.1,3.4-0.2,6.7-0.2,10.1c0,0.9-0.1,1.7-0.2,2.6l-0.2,0c-0.1-0.5-0.3-1-0.3-1.5c-0.2-1.8-0.4-3.7-0.6-5.5
			c-0.1-0.8-0.1-1.5,0.6-2l-1.2-0.8c0.2,3.5,0.3,7,0.7,10.5c0.4,3.5,1,7,1.5,10.5l-0.7,0.1c0.1,0.8,0.9,0.4,1.3,0.8
			c-0.1,0.1-0.1,0.2-0.2,0.2c-0.8,0-1.6,0.2-2.5-0.3c-1.1-0.7-2.5-1-3.9-0.6c-0.3,0.1-0.7,0.1-1.1,0.1c0.1-0.4,0.1-0.6,0.2-1.1
			c-0.4,0-0.9,0-1.3,0c-0.6,0.1-1.2,0.2-1.8,0.3c-0.4,0-0.7,0.2-1.1,0.4l1.4,0.3c-0.5,0.9-2,1.1-2.6,0.4c-0.1-0.2-0.2-0.4-0.2-0.7
			c0-0.4,0.1-0.8,0.3-1c1.3-1.7,1.1-3.7,1-5.6c-0.2-3.9-0.5-7.8-0.7-11.7c0-0.2,0-0.5,0-0.7c0.7-2.1,0-4.2-0.3-6.3
			c-0.6-4.3-1.4-8.7-1.3-13.1c0-3.3,0.5-6.6,2.2-9.6c0.5-0.9,0.5-1.7,0.2-2.7c-0.5-1.7-0.8-3.5-1.2-5.3c-0.1-0.6,0.1-0.8,0.8-0.8
			c1,0,2.1-0.1,3.1-0.3c1.8-0.4,3.3-1.3,4.3-2.9c1-1.6,2-3.3,3.1-4.9C72.8,40,72.9,39.8,73,39.7z M65.8,55.6
			c0.4,0.3,0.7,0.7,0.9,0.6c0.2,0,0.6-0.4,0.6-0.6c0-0.3-0.3-0.7-0.6-0.7C66.6,54.8,66.3,55.2,65.8,55.6z M68.8,57.7
			c0.2-0.3,0.4-0.5,0.4-0.7c0-0.1-0.2-0.3-0.4-0.4c-0.1,0.2-0.4,0.3-0.4,0.5C68.4,57.2,68.6,57.4,68.8,57.7L68.8,57.7z M69.3,58.2
			c-0.2,0.2-0.4,0.5-0.3,0.5c0.1,0.2,0.3,0.3,0.5,0.4c0.1,0,0.4-0.3,0.4-0.3C69.7,58.6,69.5,58.5,69.3,58.2L69.3,58.2z M67.7,58.6
			c-0.3-0.2-0.5-0.4-0.7-0.4c-0.1,0-0.2,0.2-0.4,0.4c0.2,0.1,0.3,0.3,0.5,0.4C67.2,58.9,67.4,58.8,67.7,58.6L67.7,58.6z M71.9,68.8
			c-0.3-0.2-0.5-0.4-0.6-0.4c-0.2,0.1-0.3,0.2-0.4,0.4c0,0.1,0.2,0.4,0.3,0.4C71.5,69.2,71.6,69,71.9,68.8L71.9,68.8z M67.7,54.4
			c-0.3-0.2-0.5-0.4-0.7-0.5c-0.1,0-0.3,0.2-0.4,0.3c0.1,0.1,0.3,0.4,0.4,0.4C67.2,54.7,67.4,54.5,67.7,54.4L67.7,54.4z M67.1,53.8
			l0.3,0.1c0.1-0.2,0.2-0.4,0.2-0.5c-0.1-0.2-0.2-0.4-0.4-0.5c-0.1,0-0.4,0.2-0.4,0.3C66.9,53.4,67,53.6,67.1,53.8z M67.6,57.3
			l0.4-0.5c-0.1-0.1-0.3-0.3-0.5-0.3c-0.1,0-0.4,0.2-0.4,0.3C67.2,56.9,67.4,57.1,67.6,57.3L67.6,57.3z M68.7,54.3
			c-0.3-0.1-0.5-0.3-0.5-0.3c-0.2,0.1-0.3,0.3-0.4,0.5c0,0.1,0.3,0.4,0.3,0.3C68.3,54.7,68.4,54.5,68.7,54.3L68.7,54.3z M68.1,60
			c0.2-0.2,0.4-0.4,0.4-0.5c0-0.1-0.2-0.4-0.3-0.3c-0.2,0-0.3,0.2-0.5,0.3L68.1,60z M69.4,49.8c-0.2,0.3-0.4,0.4-0.3,0.5
			c0,0.2,0.2,0.3,0.4,0.5c0.1-0.1,0.4-0.2,0.4-0.4C69.8,50.2,69.6,50,69.4,49.8L69.4,49.8z"/>
		<path class="st0" d="M36.7,104.5c3.5-2.6,7.3-4.9,11.3-6.8c0.1,0.9,0.3,1.7,0.4,2.4c0.1,0.5-0.1,0.8-0.7,0.8
			c-0.3,0-0.6,0.3-0.9,0.5c-0.1,0.1,0.1,0.4,0.2,0.7l-0.5,0.6l0.1,0.2l0.9-0.1v0.6c0.8,0.2,1.5,0.3,2.3-0.4c0.4-0.4,1.2-0.3,1.9-0.4
			c0.5-0.1,1-0.2,1.5-0.4c0.6-0.3,1.6-0.2,2.1,0.2c-0.1,0.3-0.3,0.5-0.5,0.9c0.4,0,0.7,0.1,1,0.1c0.8,0,1.7-0.2,2.4,0
			c0.8,0.2,1.6,0.7,2.2,1.3c0.2,0.2-0.2,1.1-0.4,1.5c-0.4,0.7-0.3,0.9,0.5,1c0.2,0,0.3,0,0.5,0.1c1.2,0.7,2.3,0.4,3.5,0
			c0.6-0.2,1.2-0.4,2-0.1c0.7,0.2,1.5,0.1,2.2-0.1c0.7-0.2,1.4-0.2,2,0.1c0.8,0.4,1.6,0.7,2.5,0.1c0.2-0.1,0.6,0,0.9,0
			c0.2,0,0.3,0.1,0.5,0.1c0.5,0,1.1,0.3,1.2-0.4c0.1-0.3-0.4-0.7-0.6-1.1c0.5-0.6,0-1.4-0.1-2.1c-0.1-0.9-0.2-1.9-0.7-2.8
			c-0.2-0.3-0.1-0.8-0.1-1.4l2.6,0.4c0,0.1,0,0.2,0,0.3l-1.4,0.2c0.2,0.2,0.6,0.4,0.6,0.6c0,0.3-0.4,0.6-0.6,0.9
			c0.8,0.5,1.7,0.6,2.5,0.2l-0.8-0.7l0.1-0.2c0.3,0.1,0.7,0,1,0.2c0.3,0.2,0.7,0.5,0.9,0c0.2-0.4,0.1-0.9,0-1.3
			c0-0.2-0.3-0.4-0.6-0.4c-1.1-0.4-2.1-1-3.4-1c-1.4,0-1.5-0.2-1.1-1.6c0.3-1.1,0.8-2,1.8-2.6c0.2-0.1,0.4-0.2,0.6-0.1
			c7.2,1.9,13.7,5.2,19.5,9.9c0,0,0.1,0.1,0.1,0.2C78.6,118.9,52.8,118.1,36.7,104.5z M87.2,102.5c0,0,0,0.1,0,0.1
			c0.1,0.1,0.2,0.2,0.4,0.2c0.6,0.1,1.2,0.1,1.6,0.7c0,0.1,0.4,0,0.5-0.1c0.6-0.5,0.5-1.2-0.2-1.6c-0.6-0.4-1.2-0.7-1.8-1
			c-0.3-0.1-0.7-0.1-1.1-0.1c0,0.1,0,0.1,0,0.2l0.7,0.4c-0.2,0-0.3,0.1-0.3,0.1c0,0-0.1,0.1-0.1,0.1c0.6,0.3,1.5,0.1,1.8,1
			L87.2,102.5z M50.9,103.6c0.6,0.1,1.2,0,1.6-0.6C51.7,102.7,51.1,102.9,50.9,103.6L50.9,103.6z"/>
		<path class="st0" d="M50,95.7c-0.1-2.7-0.3-5.4-0.4-8.1c-0.2-5.6-0.4-11.1-0.6-16.7c0-0.2,0-0.4,0-0.7c0.1-1.4,0.1-1.4,1.4-1.8
			c0.2-0.1,0.4-0.3,0.4-0.6c-0.1-0.2-0.2-0.4-0.5-0.5c-0.3,0-0.6,0.1-1.1,0c0.2-0.2,0.3-0.5,0.5-0.7c2.6-3,5.3-5.9,7.9-8.9
			c1.2-1.4,2.2-3.1,3.2-4.7c0.3,1.4,1,2.9-0.1,4.5c-1.2,1.8-1.3,3.9-1.6,5.9c-0.5,3.5-0.1,7.1,0.2,10.6c0.2,2.7,0.6,5.3,0.9,8
			c0.3,2.8,0.7,5.6,1,8.5c0.1,1.2,0.1,1.2-1,1.8s-2.2,0.7-3.4,1.1L50,95.7z"/>
		<path class="st0" d="M61.9,33.9c1.2-0.3,2.3-0.7,3.4-0.8c1.3-0.1,2.7,0,4,0c-0.1,0.7,0,1.3-0.2,1.9c-0.2,0.5-0.5,0.9-0.9,1.2
			c-0.7,0.5-0.8,1.6,0,2.1c1.1,0.6,2.3,1.1,3.6,1.7c-0.1,0.3-0.3,0.7-0.5,1c-0.8,1.2-1.7,2.4-2.6,3.5c-1.7,2.1-4,2.9-6.6,3.1
			c-0.4,0-0.7-0.1-0.7-0.6c0-0.4-0.1-0.7-0.3-1.1C61,46,61,46.2,61,46.3c0.1,4.9-2,8.8-5.2,12.2c-1.2,1.3-2.4,2.6-3.6,3.9
			c-0.5,0.5-1.1,1-1.6,1.6c-0.4,0.5-0.8,1-1.2,1.5c-0.2,0.4-0.4,0.6-0.9,0.5c-0.9-0.2-1.7,0.2-2.4,0.8c-0.8-1.4-0.2-3.2,1.4-3.5
			c1.4-0.2,2.1-1,2.8-2c1.2-1.8,2.4-3.6,3.6-5.4c0.6-0.9,1.4-1.6,2-2.5c0.3-0.4,0.5-0.8,0.6-1.2c0.8-2.3,1.7-4.7,2.4-7.1
			c0.5-1.6,1.5-3.1,2.9-4.2c0.8-0.6,1.5-1.2,2.3-1.8c1-0.8,0.8-2.3-0.4-2.8c-0.4-0.2-0.7-0.6-1-1c-0.2-0.3-0.4-0.5-0.6-0.8
			C62.1,34.3,62,34.1,61.9,33.9z"/>
		<path class="st0" d="M74.5,65.6c-0.3-1.4-0.6-2.9-0.9-4.3c-0.3-1.8-0.9-3.5-1.7-5.2c-0.1-0.2-0.2-0.7-0.1-0.9c1.3-2.4,1.7-5,2-7.6
			c0.2-1.3,0.4-2.6,0.6-3.9c0.1-0.4,0-0.8,0-1.4l-0.8,0.1c0.2-2.1,1.6-3.2,3-4.2c0.5-0.4,1.2-0.9,2.1-0.5c-1.5,0.5-1.6,1.9-1.8,3.1
			c-0.4,3-0.8,6.1-1,9.1c-0.4,4.5-0.6,9.1-0.9,13.7c0,0.7-0.2,1.3-0.3,2L74.5,65.6z"/>
		<path class="st0" d="M79.1,30.4h1.6c0.6,2.7,1.3,5.4,1.9,8.1c0.1,0.3,0,0.7-0.1,0.9c-1.2,1.4-2.4,2.7-3.6,4
			c-0.1,0.1-0.3,0.2-0.5,0.3c0-0.4,0-0.8,0-1.1c0.1-1,0.1-2.1,0.3-3.1c0.1-0.3,0.3-0.6,0.6-0.8c0.7-0.2,0.9-0.6,0.8-1.4
			C79.7,35,79.5,32.7,79.1,30.4z"/>
		<path class="st0" d="M81.9,72.8c-0.3-0.3-0.5-0.4-0.7-0.6c-0.9-1-2.1-1.7-3.4-2.2c-1-0.4-1.1-0.7-0.3-1.4c1.6-1.3,2.2-3,2.1-5
			c0-3.3,0.1-6.5,0.1-9.7c0-0.1,0-0.3,0.1-0.4C80.5,59.8,81.2,66.2,81.9,72.8z"/>
		<path class="st0" d="M58.8,94c-0.3,0.7-0.6,1.4-0.9,2.1c-0.2,0.6-0.7,1.1-1.4,1.1c-0.4,0.1-0.8,0.2-1.2,0.3
			C55.2,97.6,55,97.8,55,98c0,0.5-0.4,0.7-0.8,0.8c-0.4,0.1-0.9,0.2-1.3,0.2c-1,0.2-2.1,0-2.6,1.3l-0.2-0.1c0-1.1,0-2.1,0-3.1
			c0-0.1,0.2-0.3,0.3-0.4C51.3,96.1,57.6,94.1,58.8,94z"/>
		<path class="st0" d="M74.6,30.3h3.9c0.1,0.7,0.2,1.4,0.3,2c0.1,1.2,0.2,2.3,0.3,3.5c0,0.5-0.2,0.9-0.7,1.1c-0.6,0.2-1.2,0.5-2,0.8
			l0.2-0.5c0.3-0.7,0.4-1.4,0-2.2c-0.6-1.3-1.2-2.6-1.8-4C74.8,30.8,74.7,30.6,74.6,30.3z"/>
		<path class="st0" d="M48.7,97.6c-0.2-2.7-0.4-5.5-0.6-8.2c-0.5-6.3-0.9-12.6-1.4-18.9c-0.1-0.7-0.1-0.7,0.8-1
			c0.4,9.4,0.9,18.7,1.3,28L48.7,97.6z"/>
		<path class="st0" d="M60.4,94.1c0.5,0.5,0.5,0.9,0.2,1.5c-0.4,0.6-0.8,1.3-1.2,1.9c-0.2,0.3-0.3,0.6-0.4,1l0.2,0.1l1.6-2.2
			l0.3,0.1c0,0.2,0,0.5-0.1,0.7c-0.3,0.6-0.6,1.1-1,1.6c-0.5,0.7-0.9,1.4-0.8,2.3c0,0.3-0.1,0.6-0.6,0.4c-0.6-0.2-1.1-0.3-1.7-0.4
			c-0.6-0.1-0.8-0.5-0.5-1c1.2-1.8,2.4-3.7,3.6-5.5C60.1,94.4,60.2,94.2,60.4,94.1z"/>
		<path class="st0" d="M81.1,75.8c0.2,1.2,0.5,2.5,0.8,3.8c0.1,0.4,0.1,0.8,0.2,1.1c0,0.7-0.6,1.1-1,0.6c-0.9-0.9-1.7-2-2.5-3
			c-0.1-0.1,0.1-0.6,0.3-0.7C79.5,77,80.3,76.4,81.1,75.8z"/>
		<path class="st0" d="M88.5,35.3h-3.7l2.1-4.7L88.5,35.3z"/>
		<path class="st0" d="M76.2,35.3h-3.6c0.6-1.5,1.1-3,1.7-4.6L76.2,35.3z"/>
		<path class="st0" d="M79,76.3v-4.6c0.9,0.3,1.5,0.9,2.1,1.6c0.1,0.2,0.1,0.3,0,0.5C80.5,74.7,79.8,75.4,79,76.3z"/>
		<path class="st0" d="M88.5,36c-0.1,1-0.8,1.8-1.7,1.8c-0.9,0.1-1.7-0.6-2.1-1.8H88.5z"/>
		<path class="st0" d="M72.5,36h3.7c-0.3,1.1-1,1.8-1.8,1.8C73.5,37.8,72.8,37.1,72.5,36z"/>
		<path class="st0" d="M59.6,101.6c0.6-1,1.2-2,1.8-2.9l0.2,0.1c0.1,0.6,0.4,1.1-0.1,1.7c-0.2,0.2-0.1,0.6-0.1,0.9
			c0.1,0.7-0.3,0.7-0.8,0.6C60.3,101.9,60,101.7,59.6,101.6z"/>
		<path class="st0" d="M46.1,68.5c0.1-0.5,0.1-1,0.4-1.2c0.6-0.5,1.3-0.6,2.1-0.4c0.1,0,0.1,0.5,0.1,0.8L46.1,68.5z"/>
		<path class="st0" d="M59.5,9.6l0.8-0.2c0.4,2.6,0.8,5.2,1.3,7.9l-0.8,0.2L59.5,9.6z"/>
		<path class="st0" d="M57.1,17.5l-4-6.7c0.6-0.3,0.9-0.2,1.2,0.4c0.8,1.5,1.8,3,2.7,4.6C57.3,16.3,57.4,16.8,57.1,17.5z"/>
		<path class="st0" d="M122.1,66.2c-0.1,0.4-0.3,0.9-0.6,1.4c-0.1,0.2-0.3,0.3-0.5,0.3c-0.1,0-0.2-0.2-0.3-0.4
			c-0.2-0.4-0.3-0.9-0.6-1.3c-0.2-0.3-0.4-0.7-0.1-1c0.3-0.2,0.7-0.5,1-0.5s0.6,0.4,0.9,0.6C122.1,65.6,122,65.8,122.1,66.2z"/>
		<path class="st0" d="M123.1,65.3c0.7,0,1.2,0.6,1.1,1.2c-0.1,0.7-1.2,1.8-1.9,1.9c-0.1,0-0.3-0.3-0.3-0.4c0.2-0.7,0.4-1.5,0.6-2.2
			C122.6,65.5,123,65.4,123.1,65.3z"/>
		<path class="st0" d="M119.8,69.3c-0.7,0.1-1.4,0.2-2.1,0.2c-0.5,0-0.9-0.4-0.8-1s0.4-0.9,1-0.9c1,0,1.4,0.7,1.9,1.4
			C119.8,69.1,119.8,69.2,119.8,69.3z"/>
		<path class="st0" d="M123.4,69.3c-0.2,0-0.3,0-0.5,0c-0.2-0.1-0.3-0.2-0.5-0.3c0.1-0.1,0.2-0.3,0.4-0.4c0.5-0.4,0.9-0.7,1.4-1.1
			c0.2-0.1,0.5-0.4,0.7-0.3c0.3,0.1,0.5,0.4,0.7,0.7c0.2,0.6-0.2,1.1-0.7,1.3C124.4,69.2,123.9,69.3,123.4,69.3L123.4,69.3z"/>
		<path class="st0" d="M121,70.5c0.1,0.1,0.4,0.2,0.4,0.3c0.2,0.8,0.3,1.6,0.3,2.5c0,0.2-0.4,0.6-0.7,0.6c-0.4,0-0.7-0.2-1-0.4
			c-0.1-0.1,0.1-0.6,0.2-0.8C120.5,72,120.7,71.3,121,70.5z"/>
		<path class="st0" d="M122.4,69.7c0.8,0.1,1.6,0.1,2.4,0.3c0.3,0.1,0.7,0.6,0.7,0.9c0,0.3-0.4,0.7-0.7,0.9c-0.4,0.2-0.7,0-1-0.4
			c-0.4-0.5-0.9-1-1.4-1.5L122.4,69.7z"/>
		<path class="st0" d="M121.9,70.4c0.8,0.1,2,1.3,2,2.1c0,0.5-0.4,0.9-0.9,1h0c-0.6,0-0.6-0.4-0.6-0.9
			C122.2,71.9,122,71.1,121.9,70.4z"/>
		<path class="st0" d="M120.2,68.3c-0.8-0.4-1.5-0.7-2.1-1.1c-0.1-0.1-0.2-0.3-0.2-0.4c0-0.6,0.7-1.1,1.3-0.8
			c0.5,0.2,1.3,1.6,1.2,2.1C120.4,68.1,120.3,68.2,120.2,68.3z"/>
		<path class="st0" d="M119.9,69.8c-0.4,0.7-0.9,1.3-1.7,1.5c-0.3,0.1-0.6,0-0.9-0.2c-0.2-0.2-0.2-0.6-0.2-0.8
			c0-0.1,0.2-0.3,0.4-0.4C118.3,69.9,119.1,69.9,119.9,69.8z"/>
		<path class="st0" d="M120.3,70.4c0.1,0.8,0,1.6-0.7,2.2c-0.3,0.2-0.6,0.3-1,0.2c-0.3-0.1-0.4-0.5-0.6-0.6L120.3,70.4z"/>
		<path class="st0" d="M122,69.3c-0.1,0.5-0.4,0.9-0.9,0.8c-0.5,0-0.9-0.4-0.8-0.9c0-0.5,0.4-0.8,0.9-0.8
			C121.7,68.4,122,68.7,122,69.3z"/>
		<path class="st0" d="M12.8,66.2c-0.1,0.4-0.3,0.9-0.6,1.4c-0.1,0.2-0.2,0.3-0.4,0.3c-0.1,0-0.3-0.2-0.3-0.4
			c-0.2-0.4-0.3-0.9-0.6-1.2c-0.2-0.4-0.5-0.7-0.1-1c0.3-0.2,0.8-0.5,1.1-0.4c0.3,0.1,0.5,0.5,0.8,0.8
			C12.8,65.8,12.7,65.9,12.8,66.2z"/>
		<path class="st0" d="M10.5,69.3c-0.7,0.1-1.4,0.2-2,0.2c-0.6,0-1-0.4-0.9-1c0.1-0.6,0.5-0.9,1.1-0.9c1,0,1.4,0.7,1.8,1.4
			L10.5,69.3z"/>
		<path class="st0" d="M14.9,66c0,1-1.2,2.3-2,2.3c-0.1,0-0.3-0.3-0.3-0.4c0.2-0.7,0.3-1.5,0.6-2.2c0.1-0.2,0.6-0.5,0.9-0.4
			C14.5,65.4,14.7,65.8,14.9,66z"/>
		<path class="st0" d="M14.3,69.3c-0.1,0-0.1,0-0.2,0l-1-0.3c0.2-0.2,0.5-0.4,0.7-0.7c0.3-0.3,0.7-0.5,1-0.9c0.3-0.4,0.5-0.6,1-0.3
			c0.5,0.3,0.6,0.8,0.4,1.3c-0.3,0.6-0.9,0.7-1.5,0.8C14.5,69.3,14.4,69.3,14.3,69.3z"/>
		<path class="st0" d="M11.7,70.6c0.1,0,0.3,0.1,0.4,0.2c0.4,0.8,0.7,1.7,0.3,2.6c-0.1,0.3-0.4,0.5-0.7,0.5c-0.4,0-0.7-0.2-0.9-0.4
			c-0.1-0.1,0.1-0.5,0.2-0.8C11.1,72,11.4,71.3,11.7,70.6z"/>
		<path class="st0" d="M13.1,69.7c0.9,0.1,1.7,0.2,2.6,0.4c0.2,0.1,0.6,0.6,0.5,0.9c0,0.3-0.4,0.7-0.7,0.8c-0.3,0.1-0.7-0.1-0.9-0.3
			c-0.5-0.5-1-1-1.4-1.5L13.1,69.7z"/>
		<path class="st0" d="M12.6,70.4c0.8,0.2,1.9,1.3,2,2c0,0.5-0.4,1-0.9,1c-0.6,0-0.7-0.3-0.7-0.8C12.9,71.9,12.7,71.2,12.6,70.4z"/>
		<path class="st0" d="M10.9,68.2c-0.8-0.4-1.5-0.7-2.1-1.1c-0.1-0.1-0.2-0.3-0.2-0.5c0-0.5,0.4-0.9,0.9-0.9c0.2,0,0.3,0.1,0.5,0.1
			c0.7,0.5,1,1.2,1.1,2C11.1,68.1,10.9,68.3,10.9,68.2z"/>
		<path class="st0" d="M10.7,69.8c-0.4,0.7-0.9,1.3-1.6,1.5c-0.3,0.1-0.7,0-1-0.2c-0.2-0.2-0.2-0.6-0.2-0.9c0-0.1,0.2-0.2,0.4-0.3
			c0.7-0.1,1.5-0.2,2.2-0.3C10.5,69.7,10.5,69.8,10.7,69.8z"/>
		<path class="st0" d="M8.7,72.2l2.3-1.7c0.2,0.8-0.1,1.8-0.7,2.2c-0.3,0.2-0.7,0.2-1,0.1C9,72.7,8.8,72.3,8.7,72.2z"/>
		<path class="st0" d="M12.7,69.3c-0.1,0.5-0.4,0.8-0.9,0.8c-0.5,0-0.8-0.3-0.8-0.8c0-0.6,0.4-0.8,0.9-0.8
			C12.4,68.4,12.7,68.8,12.7,69.3z"/>
		<path class="st0" d="M93.2,110.3c0.6-0.5,1.2-0.9,1.9-0.5c0.8,0.4,1.3,1.2,1.4,2.1c0.1,0.9-0.7,1.1-1.3,1.6L93.2,110.3z"/>
		<path class="st0" d="M91.8,111.1l0.7-0.4l4.3,6.8l-0.7,0.5L91.8,111.1z"/>
		<path class="st0" d="M97.5,112.5c0.7-0.2,1.3,0,1.9,0.8c0.4,0.5,0.9,1,1.3,1.5c-0.7,0.3-1.3,0.1-1.9-0.6
			C98.5,113.6,98,113.1,97.5,112.5z"/>
		<path class="st0" d="M97,111.8c-0.3-1.2-0.8-2.2-2-2.7c0.8-0.4,1.4-0.3,1.9,0.3C97.5,110.2,97.6,111,97,111.8z"/>
		<path class="st0" d="M16.5,95.8c-0.8,0-1.5-0.3-1.9-1c-0.4-0.8-0.4-1.5,0.2-2.2c1.4-1.7,3.4-2.7,5.6-2.9c0.8-0.1,1.6,0.3,2,1.1
			s0.1,1.5-0.4,2.2C20.8,94.4,18,95.9,16.5,95.8z"/>
		<path class="st0" d="M14,92.2c0.2-2,1.6-2.9,3.2-3.6c1.2-0.5,2.4-0.5,3.6,0.4C17.9,88.9,15.8,90.2,14,92.2z"/>
		<path class="st0" d="M16.1,96.4c2.8-0.4,4.9-1.5,6.6-3.5c0,1.1-0.7,2.2-2.1,3C19.3,96.7,17.9,97.3,16.1,96.4z"/>
		<path class="st0" d="M112.8,38.6c0.9-0.5,1.9-1.1,2.8-1.6c0.1-0.1,0.5,0,0.6,0.2c0.5,0.6,0.5,1.4-0.1,1.9
			c-0.4,0.4-0.9,0.7-1.4,0.9C113.9,40.2,113.4,39.8,112.8,38.6z"/>
		<path class="st0" d="M108.7,40.2l-0.4-0.7l6.8-4.1l0.5,0.7L108.7,40.2z"/>
		<path class="st0" d="M113.5,41c0.2,0.7-0.1,1.3-0.7,1.8c-0.6,0.4-1.1,0.9-1.6,1.3c-0.2-0.8-0.1-1.3,0.7-1.8
			C112.4,41.9,113,41.5,113.5,41z"/>
		<path class="st0" d="M117,38.5c0.3,1.1,0.1,1.6-0.6,2.1c-0.8,0.5-1.4,0.5-2.1-0.2C115.5,40.3,116.4,39.7,117,38.5z"/>
		<path class="st0" d="M82.6,116.9c0-0.3,0.1-0.7,0.1-1c0.4-1.6,2.1-2.1,3.3-0.9c1.1,1.1,1.6,2.6,2,4.1c0.1,0.5,0.2,1,0.1,1.5
			c0,1-0.5,1.7-1.4,2c-0.9,0.3-1.7,0-2.3-0.7c-0.9-1-1.4-2.3-1.7-3.6C82.7,117.8,82.7,117.3,82.6,116.9z"/>
		<path class="st0" d="M86.3,114.3c2.1,0.1,4.1,5,2.5,6.7c-0.2-1.1-0.4-2.4-0.8-3.5C87.6,116.4,86.9,115.4,86.3,114.3z"/>
		<path class="st0" d="M34.5,23l-2-3c0.5-0.5,1-0.8,1.8-0.6c0.7,0.2,1.6,1.4,1.6,2.1C35.8,22.3,35.1,22.6,34.5,23z"/>
		<path class="st0" d="M36.3,27.1l-0.7,0.4l-4.4-6.6l0.7-0.5L36.3,27.1z"/>
		<path class="st0" d="M40.2,24.3c-0.9,0.3-1.4,0.2-2-0.6c-0.5-0.6-0.9-1.1-1.4-1.6c0.7-0.3,1.3-0.1,1.9,0.7
			c0.2,0.3,0.4,0.6,0.7,0.8C39.7,23.9,39.9,24.1,40.2,24.3z"/>
		<path class="st0" d="M34.2,18.9c0.9-0.4,1.5-0.3,2,0.3c0.6,0.7,0.7,1.4,0.1,2.2C36,20.3,35.4,19.3,34.2,18.9z"/>
		<path class="st0" d="M92.9,24.1c0.1-0.4,0.1-0.7,0.2-1.1c0.6-1.7,1.6-3.2,3.1-4.2c0.8-0.5,1.6-0.6,2.4,0s0.9,1.4,0.7,2.3
			c-0.6,1.9-1.6,3.6-3.3,4.7c-0.6,0.5-1.4,0.5-2.1,0.1C93.3,25.5,92.9,24.8,92.9,24.1z"/>
		<path class="st0" d="M96.3,17.9c-2.3,1.3-3.6,3.3-4.2,5.9c-0.6-1.3-0.3-2.5,0.4-3.6C93.4,18.8,94.5,17.8,96.3,17.9z"/>
		<path class="st0" d="M100,20.2c0.7,1.5,0.2,2.8-0.6,4.1c-0.8,1.2-1.7,2.1-3.4,2.2C98.2,24.8,99.5,22.8,100,20.2z"/>
		<path class="st0" d="M41.7,14.6l0.7-0.3l3,7.3L44.7,22C43.7,19.5,42.7,17.1,41.7,14.6z"/>
		<path class="st0" d="M68.1,17.2h-0.7c0-0.1-0.1-0.1-0.1-0.2c0.1-2.4,0.3-4.9,0.5-7.3c0-0.1,0.3-0.3,0.4-0.4
			c0.1,0.2,0.4,0.3,0.4,0.5C68.5,12.2,68.3,14.7,68.1,17.2z"/>
		<path class="st0" d="M72.7,9.5v1.3c-0.3-0.5-0.5-0.8-0.7-1.2L72.7,9.5z"/>
		<path class="st0" d="M100,105.4c0.5-0.6,0.8-0.9,1.6-0.8c2.1,0.3,4.3,0.5,6.4,0.6c0.8,0.1,1.4,0.3,2,1.1L100,105.4z"/>
		<path class="st0" d="M18.9,48.1c-1.7-0.6-2.2-0.5-3.3,0.9c-0.4,0.5-0.7,0.9-1.1,1.4c-1,1.1-2.6,0.9-3.3-0.3
			c1.6,0.7,2.1,0.5,3.2-0.9c0.3-0.4,0.6-0.8,0.9-1.2C16.3,46.6,17.8,46.7,18.9,48.1z"/>
		<path class="st0" d="M16.4,52.5l1.6-0.2l-0.5,0.8l-1.2-0.5L16.4,52.5z"/>
		<path class="st0" d="M23.7,27.6c0.6-0.7,1.2-1.4,2.1-1.2c1.1,0.2,1.8,1,2.1,2c0.2,0.9-0.3,1.5-1,2.1L23.7,27.6z"/>
		<path class="st0" d="M22.6,28.8l0.5-0.6l5.7,5.5l-0.5,0.6C26.4,32.5,24.5,30.7,22.6,28.8z"/>
		<path class="st0" d="M28.4,28.8c-0.5-1.6-1.2-2.4-2.9-2.9c0.7-0.5,1.4-0.4,2.2,0.3C28.7,27.1,28.9,27.8,28.4,28.8z"/>
		<path class="st0" d="M33,114.8c-0.7-1.6-0.1-3,0.8-4.2c0.9-1.2,2-2,3.7-1.8C34.9,110,33.6,112.1,33,114.8z"/>
		<path class="st0" d="M20.9,103.9c-0.2-0.2-0.3-0.4-0.5-0.6l6.2-5.2l0.5,0.6L20.9,103.9z"/>
		<path class="st0" d="M30.1,102.2c-0.3,0.3-0.6,0.6-1,0.9l0.4-1.4L30.1,102.2z"/>
		<path class="st0" d="M121.5,48.5l-7.4,2.6c-0.4-0.5-0.4-0.8,0.3-1c2.3-0.8,4.6-1.6,6.9-2.4L121.5,48.5z"/>
		<path class="st0" d="M85.6,12.7c-2.2,2.1-3,4.1-2.9,6.7c-0.7-0.6-0.9-1.8-0.6-3.2C82.6,14.5,83.4,13.1,85.6,12.7z"/>
		<path class="st0" d="M22.5,42.3c-0.9,0.6-1.7,0.6-2.5,0.2c-1.7-0.9-3.4-1.9-5.1-2.9l0.4-0.7C17.7,40,19.5,42.3,22.5,42.3z"/>
		<path class="st0" d="M106.7,25.3l0.4,0.4c-1.1,1.1-2.2,2.1-3.3,3.1c-0.9,0.8-1.7,1.7-1.8,3.2c-0.5-1.1-0.3-2,0.3-2.7
			C103.7,28,105.2,26.7,106.7,25.3z"/>
		<path class="st0" d="M47.3,122.5c-0.8-0.1-1-0.3-1-1.1c0.2-1.9,0.2-3.7,0.2-5.6c0-0.6,0.3-1.1,0.7-1.4V122.5z"/>
		<path class="st0" d="M120.6,89.8c-0.1,0.8-0.5,1-1.2,0.9c-1.8-0.2-3.6-0.4-5.5-0.6c-0.6,0-1-0.3-1.4-0.9L120.6,89.8z"/>
		<path class="st0" d="M116.4,90.7l-0.7,1.6c-0.6-0.6-1.2-1.2-1.8-1.8L116.4,90.7z"/>
		<path class="st0" d="M107.8,96.5l0.5-0.7c2.2,1.5,4.4,3.1,6.6,4.6l-0.5,0.7L107.8,96.5z"/>
		<path d="M101.2,95c-0.4-0.2-0.8-0.4-1.3-0.7c-4.1-2.8-8.2-5.7-12.3-8.5c-0.2-0.2-0.3-0.6-0.4-0.9c0.3,0,0.7-0.1,0.9,0.1
			c4,2.8,8,5.5,12,8.3c0.6,0.4,1.1,0.8,1.2,1.5L101.2,95z"/>
		<path d="M87.2,55.4c-0.1-0.1-0.4-0.1-0.4-0.2c0-0.2,0.1-0.4,0.2-0.5c0.3-0.2,0.6-0.4,0.9-0.5c4.5-1.6,9.1-3.1,13.6-4.6
			c0.4-0.1,1.1-0.1,1.1,0c0.1,0.6-0.4,0.9-0.8,1c-2.1,0.8-4.2,1.5-6.4,2.2c-2.5,0.8-5.1,1.6-7.6,2.4C87.6,55.3,87.4,55.4,87.2,55.4z
			"/>
		<path d="M88.7,73.8c0.5,0.1,1.1,0.1,1.5,0.4c4.1,1.6,8.2,3.3,12.3,4.9c0.8,0.3,1.6,0.6,2.3,1c0.2,0.1,0.3,0.4,0.5,0.6
			c-0.3,0.1-0.6,0.3-0.8,0.2c-1.2-0.4-2.4-0.8-3.5-1.3c-3.9-1.6-7.8-3.3-11.6-4.9c-0.3-0.1-0.6-0.3-0.8-0.5
			C88.6,74.1,88.7,73.9,88.7,73.8z"/>
		<path d="M88,65.3c-0.1-0.6,0.1-0.9,0.7-0.9c5.1,0,10.2,0,15.4,0c0.2,0,0.5,0.2,0.7,0.4c-0.2,0.2-0.4,0.4-0.7,0.5
			c-0.3,0.1-0.6,0-0.9,0c-4.9,0-9.7,0-14.6,0C88.4,65.3,88.2,65.3,88,65.3z"/>
		<path d="M27.3,60.2L39,63c0.2,0.1,0.5,0.1,0.8,0.2c0.5,0.1,0.7,0.2,0.6,0.8c-0.1,0.5-0.6,0.4-0.9,0.3c-1.3-0.3-2.6-0.7-3.9-1
			c-2.5-0.7-5.1-1.4-7.6-2.1C27.6,61.1,27.1,60.9,27.3,60.2z"/>
		<path d="M44.1,53.4c-0.4,0.5-0.8,0.3-1.3,0.1c-3.1-1.1-6.2-2.2-9.3-3.4c-1-0.4-2-0.7-3-1.1c-0.2-0.1-0.3-0.4-0.4-0.6
			c0.2-0.1,0.5-0.3,0.7-0.2c4.3,1.6,8.6,3.3,12.9,5C43.9,53.3,44,53.3,44.1,53.4z"/>
		<path d="M42.1,72.1c-2.1,0.4-4,0.8-6,1.2c-2.9,0.6-5.9,1.3-8.8,1.9c-0.2,0-0.5-0.1-0.8-0.1c0.2-0.2,0.4-0.5,0.7-0.5
			c4.5-1,9.1-2,13.6-2.9C41.2,71.5,41.8,71.3,42.1,72.1z"/>
		<path d="M41.9,77.7c0.3,0.6,0.4,0.9-0.1,1.2c-4.1,2.7-8.3,5.4-12.4,8.1c-0.2,0.2-0.6,0.2-0.8,0.3l-0.1-0.3L41.9,77.7z"/>
		<path d="M78.8,28.2c-0.9-0.4-0.9-1.2-1.1-2c0-0.1,0.2-0.5,0.4-0.5c0.5-0.2,0.5-0.5,0.4-1c-0.1-0.2-0.2-0.4-0.1-0.6
			c0-0.2,0.2-0.5,0.4-0.5c0.2,0,0.6,0.1,0.6,0.3c0.1,0.4,0.2,0.8,0.2,1.3c0.7-0.4,0.9,0.2,1.1,0.6c0.2,0.4,0.4,1,0.3,1.3
			c-0.1,0.3-0.7,0.5-1.2,0.8l1.4,0.9c0,0.1-0.1,0.1-0.1,0.2c-0.6-0.1-1.1-0.3-1.6-0.3s-1,0.3-1.5,0.5L77.8,29L78.8,28.2z"/>
		<path d="M35,95.1c0.1-0.2,0.1-0.4,0.3-0.6c2.8-2.6,5.5-5.1,8.3-7.6c0,0,0.1,0,0.2,0c0.5,0.4,0.2,0.8-0.1,1.1
			c-2,1.8-4.1,3.6-6.1,5.3c-0.7,0.6-1.5,1.3-2.2,1.9L35,95.1z"/>
		<path d="M91.3,73.4c0.3-0.2,0.6-0.5,0.8-0.5c0.3,0,0.6,0.4,0.6,0.7s-0.4,0.6-0.6,0.7c-0.2,0-0.5-0.3-0.8-0.5V73.4z"/>
		<path d="M97.9,75.1c0.2,0.3,0.5,0.6,0.5,0.8c0,0.2-0.4,0.6-0.6,0.6c-0.2,0-0.6-0.4-0.6-0.6c0-0.2,0.3-0.5,0.5-0.8L97.9,75.1
			L97.9,75.1z"/>
		<path d="M34.9,81.5c-0.3,0.2-0.5,0.6-0.8,0.5s-0.7-0.4-0.7-0.6c0-0.2,0.4-0.6,0.6-0.7c0.2,0,0.5,0.3,0.8,0.5L34.9,81.5z"/>
		<path d="M29,85.6c-0.2-0.3-0.5-0.6-0.5-0.8c0-0.3,0.5-0.6,0.7-0.6c0.2,0,0.6,0.4,0.6,0.7c0,0.2-0.3,0.5-0.5,0.8L29,85.6z"/>
		<path d="M35.5,48.5c-0.3,0.2-0.6,0.5-0.8,0.5c-0.2,0-0.5-0.4-0.7-0.7c0.2-0.2,0.5-0.6,0.7-0.6c0.2,0,0.5,0.3,0.8,0.5L35.5,48.5z"
			/>
		<path d="M98.5,90c-0.3,0.2-0.6,0.5-0.8,0.4c-0.2,0-0.6-0.4-0.6-0.7c0-0.2,0.4-0.6,0.7-0.6c0.3,0,0.5,0.3,0.8,0.5
			C98.5,89.8,98.5,89.9,98.5,90z"/>
		<path d="M95.9,49.6c0.2,0.3,0.5,0.6,0.5,0.8c0,0.2-0.4,0.5-0.6,0.7c-0.2-0.2-0.6-0.5-0.6-0.7s0.3-0.5,0.5-0.8H95.9z"/>
		<path d="M101.5,63.1c-0.3,0.2-0.6,0.5-0.8,0.5s-0.5-0.4-0.7-0.6c0.2-0.2,0.4-0.6,0.7-0.6s0.5,0.3,0.8,0.5V63.1z"/>
		<path d="M36.5,78.9c0.2,0.3,0.5,0.6,0.5,0.8c0,0.3-0.4,0.5-0.6,0.7c-0.2-0.2-0.6-0.4-0.6-0.7c0-0.3,0.3-0.5,0.5-0.8L36.5,78.9z"/>
		<path d="M40.3,61.8c-0.3,0.2-0.6,0.5-0.8,0.5c-0.2,0-0.6-0.4-0.6-0.7s0.4-0.6,0.7-0.6c0.3,0,0.5,0.3,0.8,0.5L40.3,61.8z"/>
		<path d="M38.9,50.1c0.3-0.2,0.5-0.5,0.8-0.5c0.3,0,0.6,0.4,0.6,0.6c0,0.2-0.4,0.6-0.6,0.7c-0.2,0-0.5-0.3-0.8-0.5V50.1z"/>
		<path d="M92.7,62.3c0.2,0.3,0.5,0.6,0.4,0.8c0,0.2-0.4,0.6-0.7,0.6c-0.2,0-0.6-0.4-0.6-0.7c0-0.2,0.3-0.5,0.5-0.8H92.7z"/>
		<path d="M36.7,71.4c-0.3,0.2-0.5,0.5-0.8,0.5c-0.2,0-0.6-0.4-0.6-0.6c0-0.2,0.4-0.6,0.6-0.7c0.2,0,0.5,0.3,0.8,0.5L36.7,71.4z"/>
		<path d="M104,77.6c0.2,0.2,0.5,0.5,0.5,0.8c0,0.2-0.4,0.7-0.6,0.7s-0.6-0.4-0.7-0.6c-0.1-0.2,0.3-0.5,0.5-0.8L104,77.6z"/>
		<path d="M65.8,55.6c0.4-0.3,0.7-0.7,0.9-0.7c0.3,0.1,0.5,0.5,0.6,0.7c0,0.2-0.4,0.6-0.6,0.6C66.5,56.2,66.3,55.9,65.8,55.6z"/>
		<path d="M68.8,57.7c-0.2-0.3-0.4-0.5-0.4-0.6c0-0.2,0.3-0.4,0.4-0.5c0.1,0.1,0.4,0.3,0.4,0.4C69.2,57.2,69,57.4,68.8,57.7z"/>
		<path d="M69.3,58.2c0.2,0.3,0.4,0.4,0.5,0.6c0,0.1-0.3,0.4-0.4,0.3c-0.2-0.1-0.4-0.2-0.5-0.4C68.9,58.6,69.1,58.4,69.3,58.2z"/>
		<path d="M67.7,58.6c-0.3,0.2-0.5,0.4-0.6,0.3c-0.2-0.1-0.3-0.2-0.5-0.4c0.1-0.1,0.2-0.4,0.4-0.4C67.2,58.2,67.3,58.4,67.7,58.6z"
			/>
		<path d="M71.9,68.8c-0.3,0.2-0.5,0.4-0.7,0.4c0,0-0.3-0.3-0.3-0.4c0-0.2,0.2-0.4,0.4-0.4C71.5,68.4,71.6,68.6,71.9,68.8z"/>
		<path d="M67.7,54.4c-0.3,0.1-0.5,0.3-0.6,0.3c-0.2-0.1-0.3-0.3-0.4-0.4c0.1-0.1,0.3-0.3,0.4-0.3C67.2,54,67.4,54.2,67.7,54.4z"/>
		<path d="M67.1,53.8c-0.1-0.2-0.3-0.3-0.3-0.5c0-0.1,0.3-0.3,0.4-0.3c0.2,0.1,0.4,0.3,0.4,0.5c0,0.1-0.1,0.3-0.2,0.5L67.1,53.8z"/>
		<path d="M67.6,57.3c-0.2-0.3-0.4-0.4-0.4-0.6c0-0.1,0.2-0.3,0.4-0.3c0.2,0,0.3,0.2,0.5,0.3L67.6,57.3z"/>
		<path d="M68.7,54.3c-0.3,0.2-0.4,0.4-0.6,0.5c-0.1,0-0.4-0.3-0.3-0.3c0.1-0.2,0.2-0.4,0.4-0.5C68.2,53.9,68.4,54.1,68.7,54.3z"/>
		<path d="M68.1,60l-0.4-0.6c0.2-0.1,0.3-0.3,0.5-0.3c0.1,0,0.4,0.2,0.3,0.3C68.5,59.6,68.3,59.7,68.1,60z"/>
		<path d="M69.4,49.8c0.2,0.3,0.4,0.5,0.4,0.6c0,0.1-0.2,0.2-0.4,0.4c-0.1-0.1-0.3-0.3-0.4-0.5C69.1,50.2,69.3,50,69.4,49.8z"/>
		<path d="M87.2,102.5l1.3-0.1c-0.3-0.9-1.2-0.7-1.8-1c0,0,0.1-0.1,0.1-0.1c0.1,0,0.1,0,0.3-0.1l-0.7-0.4c0-0.1,0-0.1,0-0.2
			c0.4,0,0.8,0,1.1,0.1c0.6,0.3,1.3,0.6,1.8,1c0.7,0.4,0.7,1.1,0.2,1.6c-0.1,0.1-0.4,0.2-0.5,0.1c-0.4-0.5-1-0.5-1.6-0.7
			c-0.1-0.1-0.3-0.1-0.4-0.2C87.2,102.6,87.2,102.6,87.2,102.5z"/>
		<path d="M50.9,103.6c0.2-0.7,0.8-0.9,1.6-0.6C52.1,103.7,51.5,103.7,50.9,103.6z"/>
		<path d="M66.2,35.5c0.1,0,0.7-0.3,0.8-0.1c-0.2,0.3-0.3,0.6-0.8,0.6c-0.2,0-0.7,0-0.8-0.6C65.6,35.2,65.8,35.5,66.2,35.5z"/>
		<circle cx="36.1" cy="71.3" r="0.8"/>
		<circle cx="33.3" cy="71.9" r="0.8"/>
		<circle cx="30.6" cy="72.5" r="0.8"/>
		<circle cx="28.1" cy="73.1" r="0.8"/>
		<circle cx="39.6" cy="61.7" r="0.8"/>
		<ellipse cx="36.8" cy="61.1" rx="0.8" ry="0.8"/>
		<circle cx="34.2" cy="60.5" r="0.8"/>
		<circle cx="42.5" cy="51.5" r="0.8"/>
		<circle cx="39.7" cy="50.3" r="0.8"/>
		<circle cx="37.3" cy="49.3" r="0.8"/>
		<circle cx="34.8" cy="48.4" r="0.8"/>
		<circle cx="32.3" cy="47.5" r="0.8"/>
		<circle cx="36.4" cy="79.8" r="0.8"/>
		<circle cx="34.2" cy="81.4" r="0.8"/>
		<circle cx="31.7" cy="83.3" r="0.8"/>
		<circle cx="29.2" cy="85" r="0.8"/>
		<circle cx="88.6" cy="53.1" r="0.8"/>
		<circle cx="91" cy="52.2" r="0.8"/>
		<circle cx="93.3" cy="51.5" r="0.8"/>
		<circle cx="95.9" cy="50.4" r="0.8"/>
		<circle cx="98.6" cy="49.6" r="0.8"/>
		<circle cx="90.2" cy="63" r="0.8"/>
		<circle cx="92.6" cy="63" r="0.8"/>
		<circle cx="95.2" cy="63" r="0.8"/>
		<circle cx="98.1" cy="63" r="0.8"/>
		<circle cx="100.9" cy="63" r="0.8"/>
		<circle cx="92.1" cy="73.6" r="0.8"/>
		<circle cx="95.3" cy="75" r="0.8"/>
		<circle cx="97.8" cy="76" r="0.8"/>
		<circle cx="101" cy="77.1" r="0.8"/>
		<circle cx="104" cy="78.3" r="0.8"/>
		<circle cx="90.1" cy="84.9" r="0.8"/>
		<circle cx="92.4" cy="86.3" r="0.8"/>
		<circle cx="95.3" cy="88.2" r="0.8"/>
		<circle cx="98" cy="89.8" r="0.8"/>
		<circle cx="100.6" cy="91.9" r="0.8"/>
		<path class="st0" d="M40.6,113c0.4-0.7,0.6-0.9,0.9-1.5l-0.7-0.7C40.7,111.5,40.6,112.1,40.6,113z"/>
		<path d="M88.7,19.5c-0.3,0.8-0.6,1.6-1,2.3c-0.1,0.1-0.3,0.2-0.5,0.2c-1.6-0.2-3.2-0.6-4.5-1.7c-0.9-0.8-1.4-2-1.4-3.2
			c0-1.2,0.5-2.5,1.2-3.4c1.1-1.5,2.7-1.9,4.4-1.4c1.1,0.3,2.1,1.1,3.1,1.6c0.1,0.1,0.2,0.2,0.2,0.3c-0.3,0.9-0.6,1.7-0.8,2.6
			l-0.2,0c0-0.1-0.1-0.3-0.1-0.4c-0.1-0.6-0.1-1.3-0.3-1.9c-0.4-1.6-2.1-2.2-3.3-1.1c-1.6,1.6-2.4,3.7-2.3,5.9
			c0,1.6,2.1,2.5,3.4,1.5c0.4-0.3,0.8-0.7,1.2-1.1l0.4-0.4L88.7,19.5z M82.6,19.5c0-2.7,0.7-5.1,3-6.9c-1.7,0.2-2.7,1.2-3.2,2.6
			C81.8,16.6,81.5,18,82.6,19.5z"/>
		<path class="st0" d="M88.1,20.2l-0.7,1.4l-1-0.1C86.9,21.2,87.5,20.7,88.1,20.2z"/>
		<path class="st0" d="M89.6,16c0.2-0.7,0.4-1.1,0.5-1.6l-0.9-0.5C89.4,14.5,89.4,15.1,89.6,16z"/>
		<path class="st0" d="M72.8,17.5v-1.3c-0.3,0.5-0.5,0.8-0.7,1.2L72.8,17.5z"/>
		<path class="st0" d="M46.2,12.8l0.6,1.2l-1.2-0.8L46.2,12.8z"/>
		<path class="st0" d="M49.7,19.9l-0.4-1.3c-0.1,0.6-0.2,0.9-0.3,1.4L49.7,19.9z"/>
		<path class="st0" d="M13.3,46.2l-1.6,0.3l0.4-0.8l1.2,0.4L13.3,46.2z"/>
		<path class="st0" d="M45.8,15.8c0.1,0.4,0.9,2.2,0.9,2.2l-0.9-1.1C45.8,15.9,45.8,16.9,45.8,15.8z"/>
		<path class="st0" d="M70.9,12.1c0,0.4-0.1,2.4-0.1,2.4l-0.3-1.4C70.9,12.2,70.5,13.1,70.9,12.1z"/>
		<path class="st0" d="M122.7,52l-1.2,0.4l0.9-1.1L122.7,52z"/>
		<path class="st0" d="M120,44.7l-1.2,0.4l1.4,0.2L120,44.7z"/>
		<circle cx="64.8" cy="55.6" r="0.5"/>
		<circle cx="65.8" cy="56.6" r="0.5"/>
		<circle cx="66.4" cy="57.7" r="0.5"/>
		<circle cx="68.7" cy="60.9" r="0.5"/>
		<circle cx="69.7" cy="60" r="0.5"/>
		<circle cx="69.7" cy="62.2" r="0.5"/>
		<circle cx="70.3" cy="63.9" r="0.5"/>
		<circle cx="70.6" cy="65.8" r="0.5"/>
		<circle cx="70.9" cy="67.6" r="0.5"/>
		<circle cx="71.2" cy="61.5" r="0.5"/>
		<circle cx="71.3" cy="62.9" r="0.5"/>
		<circle cx="71.8" cy="64.8" r="0.5"/>
		<circle cx="71.8" cy="66.6" r="0.5"/>
		<circle cx="68.1" cy="50.1" r="0.5"/>
		<circle cx="67.4" cy="51.2" r="0.5"/>
		<circle cx="66.4" cy="52.3" r="0.5"/>
		<circle cx="65.3" cy="54.6" r="0.5"/>
		<circle cx="66.2" cy="53.7" r="0.5"/>
		<circle cx="68" cy="52.4" r="0.5"/>
		<circle cx="68.8" cy="53.3" r="0.5"/>
		<circle cx="68.7" cy="51.4" r="0.5"/>
		<circle cx="69.3" cy="52.3" r="0.5"/>
		<circle cx="72.6" cy="69.5" r="0.5"/>
		<circle cx="71.8" cy="70.7" r="0.5"/>
		<circle cx="72.1" cy="71.7" r="0.5"/>
		<circle cx="72.2" cy="72.8" r="0.5"/>
		<circle cx="68.4" cy="49" r="0.2"/>
	</g>
</g>
</svg>
