<svg width="80" height="80" viewBox="0 0 80 80" fill="none" xmlns="http://www.w3.org/2000/svg">
<path fill-rule="evenodd" clip-rule="evenodd" d="M15.0688 10.3406C15.4011 6.78385 18.3946 4 22.0382 4C23.0999 4 24.1065 4.23638 25.008 4.65938C24.6757 8.21615 21.6823 11 18.0387 11C16.9769 11 15.9704 10.7636 15.0688 10.3406Z" fill="#1B1B1B"/>
<mask id="path-2-inside-1" fill="white">
<path fill-rule="evenodd" clip-rule="evenodd" d="M33.0381 39H11.0381V45V51V74H18.0381L22.0036 51H22.0726L26.0381 74H33.0381V51V45V39Z"/>
</mask>
<path d="M11.0381 39V37H9.03809V39H11.0381ZM33.0381 39H35.0381V37H33.0381V39ZM11.0381 74H9.03809V76H11.0381V74ZM18.0381 74V76H19.7228L20.009 74.3398L18.0381 74ZM22.0036 51V49H20.3189L20.0327 50.6602L22.0036 51ZM22.0726 51L24.0435 50.6602L23.7572 49H22.0726V51ZM26.0381 74L24.0672 74.3398L24.3534 76H26.0381V74ZM33.0381 74V76H35.0381V74H33.0381ZM11.0381 41H33.0381V37H11.0381V41ZM13.0381 45V39H9.03809V45H13.0381ZM9.03809 45V51H13.0381V45H9.03809ZM9.03809 51V74H13.0381V51H9.03809ZM11.0381 76H18.0381V72H11.0381V76ZM20.009 74.3398L23.9745 51.3398L20.0327 50.6602L16.0672 73.6602L20.009 74.3398ZM22.0726 49H22.0036V53H22.0726V49ZM20.1016 51.3398L24.0672 74.3398L28.009 73.6602L24.0435 50.6602L20.1016 51.3398ZM26.0381 76H33.0381V72H26.0381V76ZM35.0381 74V51H31.0381V74H35.0381ZM35.0381 51V45H31.0381V51H35.0381ZM31.0381 39V45H35.0381V39H31.0381Z" fill="#1B1B1B" mask="url(#path-2-inside-1)"/>
<mask id="path-4-inside-2" fill="white">
<path fill-rule="evenodd" clip-rule="evenodd" d="M67.0381 50H49.0381V51V59V74H56.0381L57.9946 59H58.0816L60.0381 74H67.0381V59V51V50Z"/>
</mask>
<path d="M49.0381 50V48H47.0381V50H49.0381ZM67.0381 50H69.0381V48H67.0381V50ZM49.0381 74H47.0381V76H49.0381V74ZM56.0381 74V76H57.7942L58.0213 74.2587L56.0381 74ZM57.9946 59V57H56.2385L56.0114 58.7413L57.9946 59ZM58.0816 59L60.0648 58.7413L59.8376 57H58.0816V59ZM60.0381 74L58.0549 74.2587L58.282 76H60.0381V74ZM67.0381 74V76H69.0381V74H67.0381ZM49.0381 52H67.0381V48H49.0381V52ZM51.0381 51V50H47.0381V51H51.0381ZM47.0381 51V59H51.0381V51H47.0381ZM47.0381 59V74H51.0381V59H47.0381ZM49.0381 76H56.0381V72H49.0381V76ZM58.0213 74.2587L59.9778 59.2587L56.0114 58.7413L54.0549 73.7413L58.0213 74.2587ZM58.0816 57H57.9946V61H58.0816V57ZM56.0984 59.2587L58.0549 74.2587L62.0213 73.7413L60.0648 58.7413L56.0984 59.2587ZM60.0381 76H67.0381V72H60.0381V76ZM69.0381 74V59H65.0381V74H69.0381ZM69.0381 59V51H65.0381V59H69.0381ZM65.0381 50V51H69.0381V50H65.0381Z" fill="#1B1B1B" mask="url(#path-4-inside-2)"/>
<path fill-rule="evenodd" clip-rule="evenodd" d="M20.0377 17H19.6015C12.609 17 6.86922 22.5312 6.61041 29.5188L6.03841 44.963L6 46H7.03772H12.0377H13.0096L13.0373 45.0286L13.1524 41H32.0377H33.0799L33.0369 39.9587L32.8992 36.6267L35.5824 45.2957L35.855 46.1761L36.7547 45.9762L41.2547 44.9762L42.2388 44.7575L42.0121 43.7751L38.5164 28.6271C36.9561 21.8657 30.9646 17.0633 24.0377 17.0006V19.0007C30.0333 19.0633 35.2167 23.2229 36.5676 29.0768L39.8366 43.2425L37.2205 43.8239L32.5381 28.6963L30.5837 29.0332L30.9955 39H12.1806H11.2087L11.181 39.9714L11.0659 44H8.07545L8.60904 29.5929C8.82803 23.6802 13.6848 19 19.6015 19H20.0377V17Z" fill="#1B1B1B"/>
<path d="M57.0487 35.0116L57.104 36.01L59.2498 35.891L57.7768 34.3262L57.0487 35.0116ZM52.1657 37.2244L52.7129 38.0614L52.8034 38.0022L52.8792 37.925L52.1657 37.2244ZM57.0378 35V34H54.7232L56.3096 35.6854L57.0378 35ZM71.0079 43.281L70.0389 43.5281L71.0079 43.281ZM74.0383 55.16L74.2511 56.1371L75.2633 55.9167L75.0072 54.9128L74.0383 55.16ZM70.1811 56L69.2563 56.3805L69.5752 57.1554L70.3939 56.9771L70.1811 56ZM66.0381 45.9308L66.9629 45.5503L65.0381 45.9308H66.0381ZM66.0381 51V52H67.0381V51H66.0381ZM50.0381 51H49.0381V52H50.0381V51ZM50.0381 46.5H51.0381V45.3081L49.8643 45.5153L50.0381 46.5ZM41.5381 48L40.5482 48.1415L40.6943 49.1644L41.7119 48.9848L41.5381 48ZM41.0381 44.5001L40.4908 43.6631L39.9581 44.0114L40.0481 44.6415L41.0381 44.5001ZM56.9933 34.0131C54.8258 34.1333 52.8769 35.0727 51.4521 36.5238L52.8792 37.925C53.9682 36.8159 55.453 36.1016 57.104 36.01L56.9933 34.0131ZM56.3096 35.6854L56.3205 35.697L57.7768 34.3262L57.7659 34.3146L56.3096 35.6854ZM57.4666 34H57.0378V36H57.4666V34ZM60.3493 34H57.4666V36H60.3493V34ZM71.9769 43.0338C70.6211 37.719 65.8342 34 60.3493 34V36C64.9201 36 68.9091 39.0992 70.0389 43.5281L71.9769 43.0338ZM75.0072 54.9128L71.9769 43.0338L70.0389 43.5281L73.0693 55.4072L75.0072 54.9128ZM70.3939 56.9771L74.2511 56.1371L73.8255 54.1829L69.9683 55.0229L70.3939 56.9771ZM65.1133 46.3114L69.2563 56.3805L71.1059 55.6195L66.9629 45.5503L65.1133 46.3114ZM67.0381 51V45.9308H65.0381V51H67.0381ZM50.0381 52H66.0381V50H50.0381V52ZM49.0381 46.5V51H51.0381V46.5H49.0381ZM41.7119 48.9848L50.2119 47.4848L49.8643 45.5153L41.3643 47.0152L41.7119 48.9848ZM40.0481 44.6415L40.5482 48.1415L42.5281 47.8586L42.028 44.3587L40.0481 44.6415ZM51.6184 36.3874L40.4908 43.6631L41.5853 45.3371L52.7129 38.0614L51.6184 36.3874Z" fill="#1B1B1B"/>
<path fill-rule="evenodd" clip-rule="evenodd" d="M16.0381 11C16.0381 7.68629 18.7244 5 22.0381 5C25.3518 5 28.0381 7.68629 28.0381 11C28.0381 13.6124 26.3685 15.8349 24.0381 16.6586V18.748C27.4885 17.8599 30.0381 14.7277 30.0381 11C30.0381 6.58172 26.4564 3 22.0381 3C17.6198 3 14.0381 6.58172 14.0381 11C14.0381 14.7277 16.5876 17.8599 20.0381 18.748V16.6586C17.7077 15.8349 16.0381 13.6124 16.0381 11Z" fill="#1B1B1B"/>
<path d="M17.0381 19.0002C18.0787 19.908 19.9827 20.9345 22.0381 20.9345C24.0937 20.9345 25.9975 19.9081 27.0381 19.0002L29.5515 19C28.429 21.2961 25.4887 22.9345 22.0381 22.9345C18.5877 22.9345 15.6475 21.2962 14.5249 19.0002H17.0381Z" fill="#1B1B1B"/>
<path d="M11.0381 75C11.0381 73.8954 11.9335 73 13.0381 73H16.0381C17.1427 73 18.0381 73.8954 18.0381 75V77H11.0381V75Z" stroke="#1B1B1B" stroke-width="2"/>
<path d="M49.0791 75C49.0791 73.8954 49.9745 73 51.0791 73H54.0791C55.1837 73 56.0791 73.8954 56.0791 75V77H49.0791V75Z" stroke="#1B1B1B" stroke-width="2"/>
<path d="M26.0381 75C26.0381 73.8954 26.9335 73 28.0381 73H31.0381C32.1427 73 33.0381 73.8954 33.0381 75V77H26.0381V75Z" stroke="#1B1B1B" stroke-width="2"/>
<path d="M60.0791 75C60.0791 73.8954 60.9745 73 62.0791 73H65.0791C66.1837 73 67.0791 73.8954 67.0791 75V77H60.0791V75Z" stroke="#1B1B1B" stroke-width="2"/>
<rect x="11.0381" y="28" width="2" height="6" fill="#1B1B1B"/>
<rect x="49.0381" y="43" width="2" height="6" fill="#1B1B1B"/>
<rect x="11.0381" y="37" width="2" height="4" fill="#1B1B1B"/>
<circle cx="58.0381" cy="29" r="6" stroke="#1B1B1B" stroke-width="2"/>
<path d="M64.0381 28C64.0381 26.4087 63.4059 24.8826 62.2807 23.7574C61.1555 22.6321 59.6294 22 58.0381 22C56.4468 22 54.9207 22.6321 53.7954 23.7574C52.6702 24.8826 52.0381 26.4087 52.0381 28L58.0381 28H64.0381Z" fill="#1B1B1B"/>
<rect x="45.0381" y="26" width="8" height="2" fill="#1B1B1B"/>
</svg>
