<svg width="80" height="80" viewBox="0 0 80 80" fill="none" xmlns="http://www.w3.org/2000/svg">
<g clip-path="url(#clip0)">
<path d="M14 43C14 28.6406 25.6406 17 40 17V17C54.3594 17 66 28.6406 66 43V57H14V43Z" stroke="#1B1B1B" stroke-width="2"/>
<path d="M-46 43C-46 28.6406 -34.3594 17 -20 17V17C-5.6406 17 6 28.6406 6 43V57H-46V43Z" stroke="#1B1B1B" stroke-width="2"/>
<path d="M74 43C74 28.6406 85.6406 17 100 17V17C114.359 17 126 28.6406 126 43V57H74V43Z" stroke="#1B1B1B" stroke-width="2"/>
<path d="M13 63H67" stroke="#1B1B1B" stroke-width="2"/>
<path d="M-35 63H7" stroke="#1B1B1B" stroke-width="2"/>
<path d="M73 63H115" stroke="#1B1B1B" stroke-width="2"/>
<path fill-rule="evenodd" clip-rule="evenodd" d="M34 36C34 35.9723 34.0002 35.9447 34.0006 35.9171C34.3256 35.9716 34.6595 36 35 36C37.087 36 38.9251 34.9345 40 33.3178C41.0749 34.9345 42.913 36 45 36C45.3405 36 45.6744 35.9716 45.9994 35.9171C45.9998 35.9447 46 35.9723 46 36C46 38.6124 44.3304 40.8349 42 41.6586V44.23C42.9908 44.462 43.9184 44.8629 44.7501 45.4023C43.7094 46.3101 42.0557 47 40.0002 47C37.9448 47 36.2911 46.3102 35.2505 45.4024C36.082 44.8631 37.0094 44.4622 38 44.2302V41.6586C35.6696 40.8349 34 38.6124 34 36ZM50.7125 51.9746C50.4261 47.9649 47.9636 44.5995 44.5297 43H48V36C48 31.5817 44.4183 28 40 28C35.5817 28 32 31.5817 32 36V43H35.4703C32.0364 44.5995 29.5739 47.9649 29.2875 51.9746L29 56H51L50.7125 51.9746Z" fill="#1B1B1B"/>
</g>
<defs>
<clipPath id="clip0">
<rect width="80" height="80" fill="white"/>
</clipPath>
</defs>
</svg>
