<svg width="80" height="80" viewBox="0 0 80 80" fill="none" xmlns="http://www.w3.org/2000/svg">
<path d="M13 11V10H12V11H13ZM37 11H38V10H37V11ZM13 32.9231H12V33.9231H13V32.9231ZM16.4286 32.9231H17.4286V31.9231H16.4286V32.9231ZM16.4286 41H15.4286L17.0679 41.7689L16.4286 41ZM26.1429 32.9231V31.9231H25.7814L25.5035 32.1541L26.1429 32.9231ZM37 32.9231V33.9231H38V32.9231H37ZM13 12H37V10H13V12ZM14 32.9231V11H12V32.9231H14ZM16.4286 31.9231H13V33.9231H16.4286V31.9231ZM17.4286 41V32.9231H15.4286V41H17.4286ZM25.5035 32.1541L15.7892 40.2311L17.0679 41.7689L26.7822 33.692L25.5035 32.1541ZM37 31.9231H26.1429V33.9231H37V31.9231ZM36 11V32.9231H38V11H36Z" fill="#1B1B1B"/>
<path d="M67 11V10H68V11H67ZM43 11H42V10H43V11ZM67 32.9231H68V33.9231H67V32.9231ZM63.5714 32.9231H62.5714V31.9231H63.5714V32.9231ZM63.5714 41H64.5714L62.9321 41.7689L63.5714 41ZM53.8571 32.9231V31.9231H54.2186L54.4965 32.1541L53.8571 32.9231ZM43 32.9231V33.9231H42V32.9231H43ZM67 12H43V10H67V12ZM66 32.9231V11H68V32.9231H66ZM63.5714 31.9231H67V33.9231H63.5714V31.9231ZM62.5714 41V32.9231H64.5714V41H62.5714ZM54.4965 32.1541L64.2108 40.2311L62.9321 41.7689L53.2178 33.692L54.4965 32.1541ZM43 31.9231H53.8571V33.9231H43V31.9231ZM44 11V32.9231H42V11H44Z" fill="#1B1B1B"/>
<path d="M57.2183 23.14L55.4363 18.406C55.2923 18.04 55.1453 17.575 54.9953 17.011C54.9293 17.293 54.8573 17.554 54.7793 17.794C54.7013 18.028 54.6293 18.235 54.5633 18.415L52.7813 23.14H57.2183ZM61.2053 28H59.5763C59.3903 28 59.2403 27.955 59.1263 27.865C59.0123 27.769 58.9253 27.652 58.8653 27.514L57.7853 24.652H52.2053L51.1253 27.514C51.0773 27.634 50.9933 27.745 50.8733 27.847C50.7533 27.949 50.6033 28 50.4233 28H48.7943L53.9333 15.04H56.0663L61.2053 28Z" fill="#1B1B1B"/>
<path d="M27.595 19.405C26.95 21.1 26.095 22.51 25.015 23.68C23.86 22.465 22.975 21.025 22.33 19.405H27.595ZM31.855 19.405V17.665H25.9V15.295H24.085V17.665H18.205V19.405H20.35C21.16 21.595 22.195 23.47 23.545 25.015C22.03 26.17 20.155 27.025 17.935 27.61C18.295 28.045 18.85 28.885 19.06 29.35C21.34 28.63 23.275 27.655 24.91 26.35C26.485 27.685 28.435 28.69 30.85 29.305C31.12 28.795 31.69 27.955 32.125 27.52C29.845 27.01 27.955 26.125 26.41 24.94C27.79 23.44 28.885 21.625 29.695 19.405H31.855Z" fill="#1B1B1B"/>
<path fill-rule="evenodd" clip-rule="evenodd" d="M73 42C74.6569 42 76 43.3431 76 45V48.124C76.6372 49.2722 77 50.5937 77 52C77 53.4063 76.6372 54.7278 76 55.876V60.5946C78.1014 62.4013 79.5009 65.0121 79.7125 67.9746L80 72H58L58.2875 67.9746C58.5842 63.8218 61.2149 60.3602 64.8415 58.8356C62.538 57.4312 61 54.8952 61 52C61 47.5817 64.5817 44 69 44C69.3882 44 69.7699 44.0276 70.1434 44.0811C70.5314 42.8737 71.6637 42 73 42ZM74.7302 53.7845C74.1767 53.9252 73.597 54 72.9998 54C70.0537 54 67.5327 52.18 66.4998 49.6031C65.8617 51.1949 64.6559 52.4978 63.1328 53.2614C63.5712 55.3103 65.0556 56.9713 67 57.6586V60.2302C66.0094 60.4622 65.082 60.8631 64.2505 61.4024C65.2911 62.3102 66.9448 63 69.0002 63C71.0557 63 72.7094 62.3101 73.7501 61.4023C72.9184 60.8629 71.9908 60.462 71 60.23V57.6586C72.7761 57.0308 74.1683 55.5906 74.7302 53.7845Z" fill="#1B1B1B"/>
<path fill-rule="evenodd" clip-rule="evenodd" d="M5 52C5 51.5705 5.04512 51.1516 5.13088 50.7477C5.72584 50.9121 6.35259 51 6.99987 51C9.96494 51 12.4994 49.1565 13.5197 46.5531C15.5746 47.5053 17 49.5862 17 52C17 54.6124 15.3304 56.8349 13 57.6586V60.23C13.9908 60.462 14.9184 60.8629 15.7501 61.4023C14.7094 62.3101 13.0557 63 11.0002 63C8.9448 63 7.29113 62.3102 6.25049 61.4024C7.08197 60.8631 8.00937 60.4622 9 60.2302V57.6586C6.66962 56.8349 5 54.6124 5 52ZM15.1585 58.8356C17.462 57.4312 19 54.8952 19 52C19 47.5817 15.4183 44 11 44C6.58172 44 3 47.5817 3 52C3 54.8952 4.53796 57.4312 6.84147 58.8356C3.21487 60.3602 0.584155 63.8218 0.28753 67.9746L0 72H22L21.7125 67.9746C21.4158 63.8218 18.7851 60.3602 15.1585 58.8356Z" fill="#1B1B1B"/>
</svg>
