<svg width="80" height="80" viewBox="0 0 80 80" fill="none" xmlns="http://www.w3.org/2000/svg">
<g clip-path="url(#clip0)">
<path d="M27 53C41.3594 53 53 41.3594 53 27C53 12.6406 41.3594 1 27 1C12.6406 1 1 12.6406 1 27C1 41.3594 12.6406 53 27 53Z" stroke="#1B1B1B" stroke-width="2"/>
<path d="M49 53L53 49L78 74L74 78L49 53Z" fill="#1B1B1B" stroke="#1B1B1B" stroke-width="2"/>
<path fill-rule="evenodd" clip-rule="evenodd" d="M27 49C39.1503 49 49 39.1503 49 27C49 14.8497 39.1503 5 27 5C14.8497 5 5 14.8497 5 27C5 39.1503 14.8497 49 27 49ZM20.7072 28.7072L28.7072 20.7072L27.293 19.293L19.293 27.293L20.7072 28.7072ZM33.7072 21.7072L21.7072 33.7072L20.293 32.293L32.293 20.293L33.7072 21.7072ZM34.7072 26.7072L26.7072 34.7072L25.293 33.293L33.293 25.293L34.7072 26.7072Z" fill="#1B1B1B"/>
<path d="M45.6777 45.6777L51.0001 51.0001" stroke="#1B1B1B" stroke-width="2"/>
</g>
<defs>
<clipPath id="clip0">
<rect width="80" height="80" fill="white"/>
</clipPath>
</defs>
</svg>
