<svg width="80" height="80" viewBox="0 0 80 80" fill="none" xmlns="http://www.w3.org/2000/svg">
<g clip-path="url(#clip0)">
<path fill-rule="evenodd" clip-rule="evenodd" d="M36.5385 39L36.8064 40H78V17C78 14.7909 76.2091 13 74 13V39H36.5385ZM36 36.9904V13H30.3333C30.0692 13 29.8073 12.9739 29.5511 12.9228L30.9115 18H35V33.2583L36 36.9904ZM24.9389 9.95419L22.0667 7.8C21.3743 7.28071 20.5321 7 19.6667 7H6C3.79086 7 2 8.79086 2 11V15V16.1007L24.9389 9.95419ZM2 18.2843L7.81869 40H2V18.2843Z" fill="#1B1B1B"/>
<path d="M36 39L74 39L74 3L44 3L36 11L36 39Z" stroke="#1B1B1B" stroke-width="2"/>
<path d="M44 35.0002L70 35.0002" stroke="#1B1B1B" stroke-width="2"/>
<path d="M52 28.8L52.4259 29.2259C53.8901 30.6901 56.3115 30.518 57.5539 28.8615L58.764 27.248C59.4076 26.3899 59.1169 25.1584 58.1575 24.6787V24.6787C57.382 24.291 56.4391 24.5414 55.9581 25.2628L55.9021 25.3469C55.4795 25.9808 55.4928 26.81 55.9356 27.4299L57.4819 29.5947C58.3438 30.8013 60.1202 30.8498 61.0465 29.6919L61.2682 29.4148C61.8989 28.6264 63.0417 28.4813 63.8495 29.0871V29.0871C63.9496 29.1622 64.0419 29.2471 64.125 29.3406L64.293 29.5296C65.1243 30.4649 66.316 31 67.5673 31L70 31" stroke="#1B1B1B" stroke-width="2"/>
<path d="M45 26L50 31M50 26L45 31" stroke="#1B1B1B" stroke-width="2"/>
<path d="M36 11L35.2929 10.2929L36 12L36 11ZM44 3L45 3L43.2929 2.29289L44 3ZM44 11L44 12L45 12L45 11L44 11ZM43 3L43 11L45 11L45 3L43 3ZM44 10L36 10L36 12L44 12L44 10ZM36.7071 11.7071L44.7071 3.70711L43.2929 2.29289L35.2929 10.2929L36.7071 11.7071Z" fill="#1B1B1B"/>
<g clip-path="url(#clip1)">
<rect x="28.5" y="9" width="44" height="28" transform="rotate(75 28.5 9)" stroke="#1B1B1B" stroke-width="2"/>
<path d="M35.5353 48.6725L18.3195 34.6505L26.2178 13.8992" stroke="#1B1B1B" stroke-width="2"/>
<path d="M19.0453 48.9495L22.3497 38.0995M11.7983 21.9036L20.085 29.6477" stroke="#1B1B1B" stroke-width="2"/>
</g>
<path d="M1.38396 43.3516C1.1776 41.0128 3.02058 39 5.36848 39H74.5018C76.8962 39 78.7542 41.0894 78.4744 43.4674L75.4156 69.4674C75.1786 71.4818 73.4713 73 71.443 73H7.6626C5.58972 73 3.86027 71.4164 3.67808 69.3516L1.38396 43.3516Z" stroke="#1B1B1B" stroke-width="2"/>
</g>
<defs>
<clipPath id="clip0">
<rect width="80" height="80" fill="white"/>
</clipPath>
<clipPath id="clip1">
<rect width="42" height="31" fill="white" transform="translate(0 7)"/>
</clipPath>
</defs>
</svg>
