<svg width="80" height="80" viewBox="0 0 80 80" fill="none" xmlns="http://www.w3.org/2000/svg">
<path d="M71 78H17V76H67V4H71V78Z" fill="#1B1B1B"/>
<path d="M75 80H21V78H71V6H75V80Z" fill="#1B1B1B"/>
<path d="M66 75H12V21L32 1H66V75Z" stroke="#1B1B1B" stroke-width="2"/>
<path d="M29 30L11 21H29V30Z" fill="#1B1B1B"/>
<path d="M32 1L31.2929 0.292893L33 1H32ZM12 21V22L11.2929 20.2929L12 21ZM32 21H33V22H32V21ZM12 20H32V22H12V20ZM31 21V1H33V21H31ZM32.7071 1.70711L12.7071 21.7071L11.2929 20.2929L31.2929 0.292893L32.7071 1.70711Z" fill="#1B1B1B"/>
<path d="M18 35H60" stroke="#1B1B1B" stroke-width="2"/>
<path d="M18 43H60" stroke="#1B1B1B" stroke-width="2"/>
<path d="M18 51H60" stroke="#1B1B1B" stroke-width="2"/>
<path d="M30 69L60 69" stroke="#1B1B1B" stroke-width="2"/>
<path d="M40 62.8L40.4259 63.2259C41.8901 64.6901 44.3115 64.518 45.5539 62.8615L46.764 61.248C47.4076 60.3899 47.1169 59.1584 46.1575 58.6787V58.6787C45.382 58.291 44.4391 58.5414 43.9581 59.2628L43.9021 59.3469C43.4795 59.9808 43.4928 60.81 43.9356 61.4299L45.4819 63.5947C46.3438 64.8013 48.1202 64.8498 49.0465 63.6919L49.3704 63.2869C49.9442 62.5698 50.9837 62.4378 51.7185 62.9889V62.9889C51.9042 63.1281 52.0594 63.304 52.1746 63.5055L52.6717 64.3755C53.1737 65.254 54.3149 65.5234 55.1567 64.9622V64.9622C55.6782 64.6145 56.3459 64.573 56.9065 64.8532L57.1373 64.9687C57.4416 65.1208 57.7771 65.2 58.1173 65.2H60" stroke="#1B1B1B" stroke-width="2"/>
<path d="M31 60L36 65M36 60L31 65" stroke="#1B1B1B" stroke-width="2"/>
<rect x="41" y="9" width="18" height="18" stroke="#1B1B1B" stroke-width="2"/>
</svg>
