<svg width="80" height="80" viewBox="0 0 80 80" fill="none" xmlns="http://www.w3.org/2000/svg">
<path d="M9 63L55 63L55 0.999998L26 0.999999L9 18L9 63Z" stroke="#1B1B1B" stroke-width="2"/>
<path d="M58 9L63 9L63 71L17 71L17 66" stroke="#1B1B1B" stroke-width="2"/>
<path d="M66 17L71 17L71 79L25 79L25 74" stroke="#1B1B1B" stroke-width="2"/>
<path d="M9 18L8.29289 17.2929L9 19L9 18ZM25 2L26 2L24.2929 1.29289L25 2ZM25 18L25 19L26 19L26 18L25 18ZM24 2L24 18L26 18L26 2L24 2ZM25 17L9 17L9 19L25 19L25 17ZM9.70711 18.7071L25.7071 2.70711L24.2929 1.29289L8.29289 17.2929L9.70711 18.7071Z" fill="#1B1B1B"/>
<path d="M23 26L8 19L23 19V26Z" fill="#1B1B1B"/>
<path d="M36.0943 37.335V39H28.8943V37.335H31.5313V29.748C31.5313 29.448 31.5403 29.139 31.5583 28.821L29.6863 30.387C29.5783 30.471 29.4703 30.525 29.3623 30.549C29.2603 30.567 29.1613 30.567 29.0653 30.549C28.9753 30.531 28.8943 30.501 28.8223 30.459C28.7503 30.411 28.6963 30.36 28.6603 30.306L27.9583 29.343L31.9273 25.968H33.7543V37.335H36.0943Z" fill="#1B1B1B"/>
</svg>
