<svg width="80" height="80" viewBox="0 0 80 80" fill="none" xmlns="http://www.w3.org/2000/svg">
<g clip-path="url(#clip0)">
<path fill-rule="evenodd" clip-rule="evenodd" d="M32 18L32.0002 17.9382C32.3277 17.979 32.6613 18 32.9998 18C36.0118 18 38.635 16.3354 39.9998 13.876C41.3645 16.3354 43.9877 18 46.9998 18C47.3384 18 47.6722 17.979 47.9998 17.9381L48 18C48 21.7277 45.4505 24.8599 42 25.748V28.1628C43.4204 28.3963 44.7654 28.8747 45.9863 29.5575C44.8196 30.9274 42.695 32 40.0003 32C37.3055 32 35.1808 30.9274 34.0142 29.5574C35.2349 28.8747 36.5798 28.3964 38 28.1629V25.748C34.5495 24.8599 32 21.7277 32 18ZM30 18C30 17.8071 30.0055 17.6154 30.0162 17.4251L30.0161 17.4251C30.314 12.1698 34.67 8 39.9999 8H40C45.5228 8 50 12.4772 50 18C50 21.7997 47.8808 25.1044 44.7599 26.7967C49.4917 28.4307 53.1847 32.4423 54.2705 37.5609L55 41H25L25.7295 37.561C26.8153 32.4423 30.5083 28.4307 35.2401 26.7967C32.1192 25.1044 30 21.7997 30 18Z" fill="#1B1B1B"/>
<path d="M55.2875 77.9746C55.689 72.3544 60.3655 68 66 68V68C71.6345 68 76.311 72.3544 76.7125 77.9746L77 82H55L55.2875 77.9746Z" stroke="#1B1B1B" stroke-width="2"/>
<circle cx="66" cy="61" r="7" stroke="#1B1B1B" stroke-width="2"/>
<path fill-rule="evenodd" clip-rule="evenodd" d="M72.9401 61.9202C70.932 62.6041 68.552 63 66.0002 63C63.4483 63 61.0681 62.6041 59.0599 61.92C59.0204 61.619 59 61.3119 59 61C59 57.134 62.134 54 66 54C69.866 54 73 57.134 73 61C73 61.3119 72.9796 61.6191 72.9401 61.9202Z" fill="#1B1B1B"/>
<path fill-rule="evenodd" clip-rule="evenodd" d="M6 68V61L7.42857 63H20.5714L22 61V68H21H17H11H7H6Z" fill="#1B1B1B"/>
<rect x="11" y="5" width="58" height="36" stroke="#1B1B1B" stroke-width="2"/>
<rect x="11" y="1" width="58" height="4" stroke="#1B1B1B" stroke-width="2"/>
<path d="M63 53C63 51.3431 64.3431 50 66 50C67.6569 50 69 51.3431 69 53V77H63V53Z" fill="#1B1B1B"/>
<path fill-rule="evenodd" clip-rule="evenodd" d="M38 66.6587C36.4981 66.1279 35.2707 65.0161 34.5877 63.5934C36.0939 64.4765 37.9682 65 39.9998 65C42.0313 65 43.9056 64.4765 45.4118 63.5934C44.7289 65.016 43.5017 66.1277 42 66.6585V69.2299C42.697 69.3931 43.3626 69.6399 43.9856 69.9596C43.0227 70.544 41.752 70.9506 40.2757 70.9958C40.1908 70.9984 40.1052 70.9998 40.0189 71C40.0128 71 40.0068 71 40.0007 71C38.4069 71 37.0378 70.5799 36.0156 69.9595C36.6382 69.64 37.3034 69.3933 38 69.2302V69.23M44.2351 67.7881C46.4959 66.3745 47.9998 63.8629 47.9998 61C47.9998 56.5817 44.418 53 39.9998 53C35.5815 53 31.9998 56.5817 31.9998 61C31.9998 63.8629 33.5036 66.3745 35.7644 67.7881C31.6405 69.3843 28.6225 73.2463 28.2898 77.9033L28.0023 81.9288L27.9258 83H28.9998H50.9998H52.0737L51.9972 81.9288L51.7097 77.9033C51.377 73.2463 48.359 69.3843 44.2351 67.7881ZM34.061 71.0198C34.1202 71.069 34.1805 71.1174 34.2418 71.1651C35.6968 72.2964 37.739 73 40.0002 73C42.2614 73 44.3035 72.2964 45.7585 71.1652C45.8197 71.1176 45.8799 71.0693 45.939 71.0202C48.071 72.662 49.5094 75.1714 49.7148 78.0458L49.9258 81H30.0737L30.2847 78.0458C30.4901 75.1711 31.9287 72.6616 34.061 71.0198Z" fill="#1B1B1B"/>
<path fill-rule="evenodd" clip-rule="evenodd" d="M12.0044 66.6587C10.5025 66.1279 9.27505 65.0161 8.59206 63.5934C10.0983 64.4765 11.9726 65 14.0042 65C16.0357 65 17.91 64.4765 19.4162 63.5934C18.7333 65.016 17.5061 66.1277 16.0044 66.6585V69.2299C16.7014 69.3931 17.367 69.6399 17.99 69.9596C17.0271 70.544 15.7564 70.9506 14.2801 70.9958C14.1952 70.9984 14.1096 70.9998 14.0233 71C14.0172 71 14.0112 71 14.0051 71C12.4113 71 11.0422 70.5799 10.02 69.9595C10.6426 69.64 11.3078 69.3933 12.0044 69.2302V69.23M18.2395 67.7881C20.5003 66.3745 22.0042 63.8629 22.0042 61C22.0042 56.5817 18.4224 53 14.0042 53C9.58587 53 6.00415 56.5817 6.00415 61C6.00415 63.8629 7.50796 66.3745 9.76876 67.7881C5.64487 69.3843 2.62687 73.2463 2.29422 77.9033L2.00669 81.9288L1.93018 83H3.00415H25.0042H26.0781L26.0016 81.9288L25.7141 77.9033C25.3814 73.2463 22.3634 69.3843 18.2395 67.7881ZM8.06538 71.0198C8.12459 71.069 8.18488 71.1174 8.2462 71.1651C9.70121 72.2964 11.7434 73 14.0046 73C16.2658 73 18.3079 72.2964 19.7629 71.1652C19.8241 71.1176 19.8843 71.0693 19.9434 71.0202C22.0754 72.662 23.5138 75.1714 23.7192 78.0458L23.9302 81H4.07813L4.28914 78.0458C4.49447 75.1711 5.93314 72.6616 8.06538 71.0198Z" fill="#1B1B1B"/>
</g>
<defs>
<clipPath id="clip0">
<rect width="80" height="80" fill="white"/>
</clipPath>
</defs>
</svg>
