<svg width="33" height="33" viewBox="0 0 33 33" fill="none" xmlns="http://www.w3.org/2000/svg">
<path d="M11.297 13.3846C9.96039 14.4897 8.20553 15.5636 5.8905 16.4825L5.35645 15.1345C7.4295 14.3118 9.00514 13.3614 10.2096 12.3891C8.74356 10.8992 7.95919 9.41754 7.54378 8.2369H9.09221C9.4873 9.16958 10.1617 10.2852 11.2915 11.4194C13.2992 9.39757 13.8594 7.43347 14.0151 6.46485H4.8986V4.93422H10.4124V3.20247H11.942V4.93422H17.4559V6.46485H15.48C15.3411 7.59248 14.761 9.98245 12.3821 12.396C12.6397 12.6026 12.9179 12.8081 13.2107 13.0117C13.5028 12.6215 13.9646 12.3652 14.4892 12.3652H21.4394C21.5704 11.7073 21.6418 11.0277 21.6418 10.331C21.6418 4.62563 17.0198 0 11.318 0C5.61658 0 0.994141 4.62563 0.994141 10.331C0.994141 16.0363 5.61658 20.6616 11.318 20.6616C11.8531 20.6616 12.3745 20.6086 12.8878 20.5305V14.5438C12.3015 14.1648 11.7711 13.7767 11.297 13.3846Z" fill="currentColor"/>
<path d="M23.4781 18.3828L21.5273 23.756H25.4292L23.5107 18.3828H23.4781Z" fill="currentColor"/>
<path d="M31.5237 13.3721H15.3436C14.5432 13.3721 13.8945 14.0212 13.8945 14.8221V31.0134C13.8945 31.814 14.5432 32.4635 15.3436 32.4635H31.5237C32.3237 32.4635 32.9724 31.814 32.9724 31.0134V14.8217C32.9724 14.0212 32.3237 13.3721 31.5237 13.3721ZM27.1701 28.5153L25.9137 25.0463H21.0439L19.7534 28.5153H18.1897L22.6725 16.996H24.3653L28.8633 28.5153H27.1701Z" fill="currentColor"/>
</svg>
