<svg aria-hidden="true" style="position: absolute; width: 0; height: 0; overflow: hidden;" version="1.1" xmlns="http://www.w3.org/2000/svg" xmlns:xlink="http://www.w3.org/1999/xlink">
<defs>
<symbol id="i-like-dislike" viewBox="0 0 32 32">
<path d="M6.307 10.533c0 0-2.707 3.107-3.467 4.067h-2.84c0.040 0 0 8.813 0 9.040 0.307 0 2.707-0.093 2.84 0 0 0 0.973 0.187 1.427 0.36 0.627 0.413 4.467 0.96 5.84 1.133 0 0 0.547 0.133 1.227 0.040 1.653-0.24 1.747-2.32 1.747-2.32 1.427-1.72 0.627-2.587 0.84-3.080 1.107-2.227 0.28-2.947 0.307-3.173 0.227-0.493 0.64-0.747 0.64-2.013s-1.467-1.933-2.493-1.933-2.373 0.147-2.813-0.12c-0.44-0.267 0.96-1.36 1.187-3.547 0.227-2.173-0.813-2.96-1.88-2.64s-1.187 1.653-1.32 2.027c-0.133 0.36-0.253 0.347-0.347 0.613-0.093 0.28-0.653 1.36-0.893 1.547z"></path>
<path d="M26.96 20.173c0 0 1.813-3.707 2.293-4.813l2.747-0.747c-0.040 0.013-2.28-8.52-2.347-8.733-0.293 0.080-2.587 0.787-2.747 0.733 0 0-0.987 0.080-1.467 0.013-0.707-0.227-4.56 0.227-5.947 0.413 0 0-0.573 0.013-1.187 0.28-1.547 0.667-1.080 2.693-1.080 2.693-0.933 2.027 0.067 2.653-0.013 3.2-0.493 2.44 0.493 2.92 0.52 3.147-0.080 0.533-0.427 0.893-0.107 2.12 0.333 1.227 1.92 1.493 2.907 1.227s2.267-0.76 2.76-0.613c0.493 0.147-0.587 1.573-0.227 3.733 0.347 2.16 1.547 2.653 2.493 2.067s0.72-1.907 0.76-2.293c0.040-0.387 0.16-0.4 0.173-0.693 0.013-0.307 0.28-1.507 0.467-1.733z"></path>
</symbol>
<symbol id="i-globe-2" viewBox="0 0 30 32">
<path fill="#0b4779" style="fill: var(--color1, #0b4779)" d="M15.238 0.158c8.405 0 15.238 6.833 15.238 15.238 0 8.256-6.59 14.987-14.789 15.225-0.147 0.014-0.298 0.014-0.449 0.014h-0.034c-0.139 0-0.279 0-0.415-0.014-8.199-0.237-14.789-6.969-14.789-15.225 0-8.405 6.833-15.238 15.238-15.238zM14.367 2.063c-1.161 0.404-2.318 1.597-3.265 3.551-0.285 0.588-0.543 1.247-0.775 1.946h4.041v-5.497zM19.374 5.614c-0.947-1.954-2.104-3.147-3.265-3.551v5.497h4.041c-0.232-0.699-0.491-1.358-0.775-1.946zM10.898 2.62c-2.704 0.916-5.027 2.662-6.653 4.939h4.245c0.293-0.97 0.638-1.89 1.034-2.707 0.403-0.832 0.861-1.579 1.374-2.231zM26.231 7.559c-1.626-2.277-3.949-4.022-6.653-4.939 0.514 0.652 0.971 1.399 1.374 2.231 0.396 0.818 0.741 1.738 1.034 2.707h4.245zM3.197 9.301c-0.803 1.586-1.309 3.352-1.429 5.225h5.66c0.052-1.85 0.259-3.607 0.612-5.224h-4.844zM14.367 9.301h-4.531c-0.377 1.586-0.609 3.353-0.667 5.225h5.197v-5.224zM16.109 9.301v5.225h5.197c-0.058-1.871-0.289-3.639-0.667-5.224h-4.531zM27.279 9.301h-4.844c0.354 1.618 0.561 3.375 0.612 5.225h5.66c-0.119-1.872-0.625-3.638-1.429-5.224zM1.769 16.267c0.117 1.873 0.626 3.637 1.429 5.225h4.83c-0.353-1.613-0.547-3.378-0.599-5.225h-5.66zM14.367 16.267h-5.197c0.057 1.873 0.289 3.64 0.667 5.225h4.531v-5.225zM16.109 16.267v5.225h4.531c0.378-1.585 0.61-3.351 0.667-5.225h-5.197zM28.707 16.267h-5.66c-0.052 1.847-0.246 3.611-0.599 5.225h4.83c0.802-1.587 1.311-3.352 1.429-5.225zM4.245 23.233c1.629 2.283 3.956 4.037 6.667 4.952-0.518-0.657-0.981-1.42-1.388-2.258-0.397-0.819-0.74-1.724-1.034-2.694h-4.245zM14.367 23.233h-4.041c0.232 0.697 0.491 1.344 0.775 1.932 0.947 1.954 2.104 3.171 3.265 3.578v-5.51zM16.109 23.233v5.51c1.161-0.408 2.318-1.625 3.265-3.578 0.285-0.588 0.543-1.235 0.775-1.932h-4.041zM26.231 23.233h-4.245c-0.294 0.97-0.637 1.875-1.034 2.694-0.407 0.839-0.869 1.601-1.388 2.258 2.711-0.916 5.038-2.669 6.667-4.952z"></path>
</symbol>
<symbol id="i-list" viewBox="0 0 36 32">
<path d="M5.667 24.2h-4.533c-0.637 0-1.133 0.567-1.133 1.133v4.533c0 0.637 0.496 1.133 1.133 1.133h4.533c0.567 0 1.133-0.496 1.133-1.133v-4.533c0-0.567-0.567-1.133-1.133-1.133zM5.667 1.533h-4.533c-0.637 0-1.133 0.567-1.133 1.133v4.533c0 0.638 0.496 1.133 1.133 1.133h4.533c0.567 0 1.133-0.496 1.133-1.133v-4.533c0-0.567-0.567-1.133-1.133-1.133zM5.667 12.867h-4.533c-0.637 0-1.133 0.567-1.133 1.133v4.533c0 0.637 0.496 1.133 1.133 1.133h4.533c0.567 0 1.133-0.496 1.133-1.133v-4.533c0-0.567-0.567-1.133-1.133-1.133zM35.133 25.333h-22.667c-0.637 0-1.133 0.567-1.133 1.133v2.267c0 0.637 0.496 1.133 1.133 1.133h22.667c0.567 0 1.133-0.496 1.133-1.133v-2.267c0-0.567-0.567-1.133-1.133-1.133zM35.133 2.667h-22.667c-0.637 0-1.133 0.567-1.133 1.133v2.267c0 0.638 0.496 1.133 1.133 1.133h22.667c0.567 0 1.133-0.496 1.133-1.133v-2.267c0-0.567-0.567-1.133-1.133-1.133zM35.133 14h-22.667c-0.637 0-1.133 0.567-1.133 1.133v2.267c0 0.637 0.496 1.133 1.133 1.133h22.667c0.567 0 1.133-0.496 1.133-1.133v-2.267c0-0.567-0.567-1.133-1.133-1.133z"></path>
</symbol>
<symbol id="i-facebook2" viewBox="0 0 32 32">
<path d="M29 0h-26c-1.65 0-3 1.35-3 3v26c0 1.65 1.35 3 3 3h13v-14h-4v-4h4v-2c0-3.306 2.694-6 6-6h4v4h-4c-1.1 0-2 0.9-2 2v2h6l-1 4h-5v14h9c1.65 0 3-1.35 3-3v-26c0-1.65-1.35-3-3-3z"></path>
</symbol>
<symbol id="i-twitter" viewBox="0 0 32 32">
<path d="M32 7.075c-1.175 0.525-2.444 0.875-3.769 1.031 1.356-0.813 2.394-2.1 2.887-3.631-1.269 0.75-2.675 1.3-4.169 1.594-1.2-1.275-2.906-2.069-4.794-2.069-3.625 0-6.563 2.938-6.563 6.563 0 0.512 0.056 1.012 0.169 1.494-5.456-0.275-10.294-2.888-13.531-6.862-0.563 0.969-0.887 2.1-0.887 3.3 0 2.275 1.156 4.287 2.919 5.463-1.075-0.031-2.087-0.331-2.975-0.819 0 0.025 0 0.056 0 0.081 0 3.181 2.263 5.838 5.269 6.437-0.55 0.15-1.131 0.231-1.731 0.231-0.425 0-0.831-0.044-1.237-0.119 0.838 2.606 3.263 4.506 6.131 4.563-2.25 1.762-5.075 2.813-8.156 2.813-0.531 0-1.050-0.031-1.569-0.094 2.913 1.869 6.362 2.95 10.069 2.95 12.075 0 18.681-10.006 18.681-18.681 0-0.287-0.006-0.569-0.019-0.85 1.281-0.919 2.394-2.075 3.275-3.394z"></path>
</symbol>
<symbol id="i-rss2" viewBox="0 0 32 32">
<path d="M29 0h-26c-1.65 0-3 1.35-3 3v26c0 1.65 1.35 3 3 3h26c1.65 0 3-1.35 3-3v-26c0-1.65-1.35-3-3-3zM8.719 25.975c-1.5 0-2.719-1.206-2.719-2.706 0-1.488 1.219-2.712 2.719-2.712 1.506 0 2.719 1.225 2.719 2.712 0 1.5-1.219 2.706-2.719 2.706zM15.544 26c0-2.556-0.994-4.962-2.794-6.762-1.806-1.806-4.2-2.8-6.75-2.8v-3.912c7.425 0 13.475 6.044 13.475 13.475h-3.931zM22.488 26c0-9.094-7.394-16.5-16.481-16.5v-3.912c11.25 0 20.406 9.162 20.406 20.413h-3.925z"></path>
</symbol>
<symbol id="i-youtube" viewBox="0 0 32 32">
<path d="M31.681 9.6c0 0-0.313-2.206-1.275-3.175-1.219-1.275-2.581-1.281-3.206-1.356-4.475-0.325-11.194-0.325-11.194-0.325h-0.012c0 0-6.719 0-11.194 0.325-0.625 0.075-1.987 0.081-3.206 1.356-0.963 0.969-1.269 3.175-1.269 3.175s-0.319 2.588-0.319 5.181v2.425c0 2.587 0.319 5.181 0.319 5.181s0.313 2.206 1.269 3.175c1.219 1.275 2.819 1.231 3.531 1.369 2.563 0.244 10.881 0.319 10.881 0.319s6.725-0.012 11.2-0.331c0.625-0.075 1.988-0.081 3.206-1.356 0.962-0.969 1.275-3.175 1.275-3.175s0.319-2.587 0.319-5.181v-2.425c-0.006-2.588-0.325-5.181-0.325-5.181zM12.694 20.15v-8.994l8.644 4.513-8.644 4.481z"></path>
</symbol>
<symbol id="i-flickr" viewBox="0 0 32 32">
<path d="M0 17c0-3.866 3.134-7 7-7s7 3.134 7 7c0 3.866-3.134 7-7 7s-7-3.134-7-7zM18 17c0-3.866 3.134-7 7-7s7 3.134 7 7c0 3.866-3.134 7-7 7s-7-3.134-7-7z"></path>
</symbol>
<symbol id="i-linkedin2" viewBox="0 0 32 32">
<path d="M12 12h5.535v2.837h0.079c0.77-1.381 2.655-2.837 5.464-2.837 5.842 0 6.922 3.637 6.922 8.367v9.633h-5.769v-8.54c0-2.037-0.042-4.657-3.001-4.657-3.005 0-3.463 2.218-3.463 4.509v8.688h-5.767v-18z"></path>
<path d="M2 12h6v18h-6v-18z"></path>
<path d="M8 7c0 1.657-1.343 3-3 3s-3-1.343-3-3c0-1.657 1.343-3 3-3s3 1.343 3 3z"></path>
</symbol>
<symbol id="i-error" viewBox="0 0 24 24">
<path d="M12.984 12.984v-6h-1.969v6h1.969zM12.984 17.016v-2.016h-1.969v2.016h1.969zM12 2.016q4.125 0 7.055 2.93t2.93 7.055-2.93 7.055-7.055 2.93-7.055-2.93-2.93-7.055 2.93-7.055 7.055-2.93z"></path>
</symbol>
<symbol id="i-warning" viewBox="0 0 24 24">
<path d="M12.984 14.016v-4.031h-1.969v4.031h1.969zM12.984 18v-2.016h-1.969v2.016h1.969zM0.984 21l11.016-18.984 11.016 18.984h-22.031z"></path>
</symbol>
<symbol id="i-email" viewBox="0 0 24 24">
<path d="M20.016 8.016v-2.016l-8.016 5.016-8.016-5.016v2.016l8.016 4.969zM20.016 3.984q0.797 0 1.383 0.609t0.586 1.406v12q0 0.797-0.586 1.406t-1.383 0.609h-16.031q-0.797 0-1.383-0.609t-0.586-1.406v-12q0-0.797 0.586-1.406t1.383-0.609h16.031z"></path>
</symbol>
<symbol id="i-location" viewBox="0 0 24 24">
<path d="M12 11.484q1.031 0 1.758-0.727t0.727-1.758-0.727-1.758-1.758-0.727-1.758 0.727-0.727 1.758 0.727 1.758 1.758 0.727zM12 2.016q2.906 0 4.945 2.039t2.039 4.945q0 1.453-0.727 3.328t-1.758 3.516-2.039 3.070-1.711 2.273l-0.75 0.797q-0.281-0.328-0.75-0.867t-1.688-2.156-2.133-3.141-1.664-3.445-0.75-3.375q0-2.906 2.039-4.945t4.945-2.039z"></path>
</symbol>
<symbol id="i-message" viewBox="0 0 24 24">
<path d="M18 8.016v-2.016h-12v2.016h12zM18 11.016v-2.016h-12v2.016h12zM18 14.016v-2.016h-12v2.016h12zM20.016 2.016q0.797 0 1.383 0.586t0.586 1.383v12q0 0.797-0.586 1.406t-1.383 0.609h-14.016l-3.984 3.984v-18q0-0.797 0.586-1.383t1.383-0.586h16.031z"></path>
</symbol>
<symbol id="i-mobile" viewBox="0 0 24 24">
<path d="M17.016 18.984v-13.969h-10.031v13.969h10.031zM17.016 1.031q0.797 0 1.383 0.586t0.586 1.383v18q0 0.797-0.586 1.406t-1.383 0.609h-10.031q-0.797 0-1.383-0.609t-0.586-1.406v-18q0-0.797 0.586-1.406t1.383-0.609z"></path>
</symbol>
<symbol id="i-key" viewBox="0 0 24 24">
<path d="M6.984 14.016q0.797 0 1.406-0.609t0.609-1.406-0.609-1.406-1.406-0.609-1.383 0.609-0.586 1.406 0.586 1.406 1.383 0.609zM12.656 9.984h10.359v4.031h-2.016v3.984h-3.984v-3.984h-4.359q-0.609 1.641-2.273 2.813t-3.398 1.172q-2.484 0-4.242-1.758t-1.758-4.242 1.758-4.242 4.242-1.758q1.734 0 3.398 1.172t2.273 2.813z"></path>
</symbol>
<symbol id="i-light" viewBox="0 0 24 24">
<path d="M12 2.016q2.906 0 4.945 2.039t2.039 4.945q0 3.516-3 5.719v2.297q0 0.422-0.281 0.703t-0.703 0.281h-6q-0.422 0-0.703-0.281t-0.281-0.703v-2.297q-3-2.063-3-5.719 0-2.906 2.039-4.945t4.945-2.039zM9 21v-0.984h6v0.984q0 0.422-0.281 0.703t-0.703 0.281h-4.031q-0.422 0-0.703-0.281t-0.281-0.703z"></path>
</symbol>
<symbol id="i-add" viewBox="0 0 24 24">
<path d="M18.984 12.984h-6v6h-1.969v-6h-6v-1.969h6v-6h1.969v6h6v1.969z"></path>
</symbol>
<symbol id="i-add_circle" viewBox="0 0 24 24">
<path d="M17.016 12.984v-1.969h-4.031v-4.031h-1.969v4.031h-4.031v1.969h4.031v4.031h1.969v-4.031h4.031zM12 2.016q4.125 0 7.055 2.93t2.93 7.055-2.93 7.055-7.055 2.93-7.055-2.93-2.93-7.055 2.93-7.055 7.055-2.93z"></path>
</symbol>
<symbol id="i-close" viewBox="0 0 24 24">
<path d="M18.984 6.422l-5.578 5.578 5.578 5.578-1.406 1.406-5.578-5.578-5.578 5.578-1.406-1.406 5.578-5.578-5.578-5.578 1.406-1.406 5.578 5.578 5.578-5.578z"></path>
</symbol>
<symbol id="i-edit" viewBox="0 0 24 24">
<path d="M20.719 7.031l-1.828 1.828-3.75-3.75 1.828-1.828q0.281-0.281 0.703-0.281t0.703 0.281l2.344 2.344q0.281 0.281 0.281 0.703t-0.281 0.703zM3 17.25l11.063-11.063 3.75 3.75-11.063 11.063h-3.75v-3.75z"></path>
</symbol>
<symbol id="i-flag" viewBox="0 0 24 24">
<path d="M14.391 6h5.625v9.984h-7.031l-0.375-1.969h-5.625v6.984h-1.969v-17.016h9z"></path>
</symbol>
<symbol id="i-remove" viewBox="0 0 24 24">
<path d="M18.984 12.984h-13.969v-1.969h13.969v1.969z"></path>
</symbol>
<symbol id="i-remove_circle" viewBox="0 0 24 24">
<path d="M17.016 12.984v-1.969h-10.031v1.969h10.031zM12 2.016q4.125 0 7.055 2.93t2.93 7.055-2.93 7.055-7.055 2.93-7.055-2.93-2.93-7.055 2.93-7.055 7.055-2.93z"></path>
</symbol>
<symbol id="i-reply" viewBox="0 0 24 24">
<path d="M9.984 9q4.875 0.703 7.523 3.727t3.492 7.289q-3.609-5.109-11.016-5.109v4.078l-6.984-6.984 6.984-6.984v3.984z"></path>
</symbol>
<symbol id="i-send" viewBox="0 0 24 24">
<path d="M2.016 21v-6.984l15-2.016-15-2.016v-6.984l21 9z"></path>
</symbol>
<symbol id="i-person_check" viewBox="0 0 24 24">
<path d="M15.469 20.484l-3.469-3.469 1.406-1.406 2.063 2.063 5.109-5.156 1.406 1.406zM11.016 12q-1.641 0-2.836-1.172t-1.195-2.813 1.195-2.836 2.836-1.195 2.813 1.195 1.172 2.836-1.172 2.813-2.813 1.172zM9 17.016l3 3h-9v-2.016q0-1.781 2.742-2.883t5.273-1.102q0.703 0 0.984 0.047z"></path>
</symbol>
<symbol id="i-vote" viewBox="0 0 24 24">
<path d="M12.75 2.297q0.281-0.281 0.703-0.281 0.516 0 0.703 0.281l4.969 4.969q0.281 0.281 0.281 0.703t-0.281 0.703l-6.375 6.328q-0.281 0.281-0.703 0.281t-0.703-0.281l-4.969-4.922q-0.281-0.281-0.281-0.703t0.281-0.703zM17.016 7.969l-3.563-3.563-4.922 4.969 3.516 3.516zM18 12.984l3 3v4.031q0 0.844-0.586 1.406t-1.43 0.563h-14.016q-0.797 0-1.383-0.586t-0.586-1.383v-4.031l3-3h0.844l1.969 2.016h-2.016l-1.781 2.016h13.969l-1.734-2.016h-1.922l1.969-2.016h0.703z"></path>
</symbol>
<symbol id="i-alarm" viewBox="0 0 24 24">
<path d="M12 20.016q2.906 0 4.945-2.063t2.039-4.969-2.039-4.945-4.945-2.039-4.945 2.039-2.039 4.945 2.039 4.969 4.945 2.063zM12 3.984q3.75 0 6.375 2.625t2.625 6.375-2.625 6.375-6.375 2.625-6.375-2.625-2.625-6.375 2.625-6.375 6.375-2.625zM12.516 8.016v5.297l3.984 2.391-0.797 1.219-4.688-2.906v-6h1.5zM7.922 3.422l-4.641 3.797-1.266-1.5 4.594-3.797zM21.984 5.719l-1.266 1.5-4.641-3.938 1.313-1.5z"></path>
</symbol>
<symbol id="i-attach_file" viewBox="0 0 24 24">
<path d="M16.5 6h1.5v11.484q0 2.297-1.594 3.914t-3.891 1.617-3.914-1.617-1.617-3.914v-12.469q0-1.641 1.195-2.836t2.836-1.195 2.813 1.195 1.172 2.836v10.5q0 1.031-0.727 1.758t-1.758 0.727-1.781-0.727-0.75-1.758v-9.516h1.5v9.516q0 0.422 0.305 0.703t0.727 0.281 0.703-0.281 0.281-0.703v-10.5q0-1.031-0.727-1.781t-1.758-0.75-1.781 0.75-0.75 1.781v12.469q0 1.641 1.195 2.836t2.836 1.195 2.813-1.195 1.172-2.836v-11.484z"></path>
</symbol>
<symbol id="i-file" viewBox="0 0 24 24">
<path d="M12.984 9h5.531l-5.531-5.484v5.484zM6 2.016h8.016l6 6v12q0 0.797-0.609 1.383t-1.406 0.586h-12q-0.797 0-1.406-0.586t-0.609-1.383l0.047-16.031q0-0.797 0.586-1.383t1.383-0.586z"></path>
</symbol>
<symbol id="i-file_download" viewBox="0 0 24 24">
<path d="M5.016 18h13.969v2.016h-13.969v-2.016zM18.984 9l-6.984 6.984-6.984-6.984h3.984v-6h6v6h3.984z"></path>
</symbol>
<symbol id="i-folder" viewBox="0 0 24 24">
<path d="M9.984 3.984l2.016 2.016h8.016q0.797 0 1.383 0.609t0.586 1.406v9.984q0 0.797-0.586 1.406t-1.383 0.609h-16.031q-0.797 0-1.383-0.609t-0.586-1.406v-12q0-0.797 0.586-1.406t1.383-0.609h6z"></path>
</symbol>
<symbol id="i-laptop" viewBox="0 0 24 24">
<path d="M3.984 6v9.984h16.031v-9.984h-16.031zM20.016 18h3.984v2.016h-24v-2.016h3.984q-0.797 0-1.383-0.609t-0.586-1.406v-9.984q0-0.797 0.586-1.406t1.383-0.609h16.031q0.797 0 1.383 0.609t0.586 1.406v9.984q0 0.797-0.586 1.406t-1.383 0.609z"></path>
</symbol>
<symbol id="i-mouse" viewBox="0 0 24 24">
<path d="M11.016 1.078v7.922h-7.031q0-3.047 2.039-5.297t4.992-2.625zM3.984 15v-3.984h16.031v3.984q0 3.281-2.367 5.648t-5.648 2.367-5.648-2.367-2.367-5.648zM12.984 1.078q2.953 0.375 4.992 2.625t2.039 5.297h-7.031v-7.922z"></path>
</symbol>
<symbol id="i-camera" viewBox="0 0 24 24">
<path d="M12 17.016q2.063 0 3.539-1.477t1.477-3.539-1.477-3.539-3.539-1.477-3.539 1.477-1.477 3.539 1.477 3.539 3.539 1.477zM9 2.016h6l1.828 1.969h3.188q0.797 0 1.383 0.609t0.586 1.406v12q0 0.797-0.586 1.406t-1.383 0.609h-16.031q-0.797 0-1.383-0.609t-0.586-1.406v-12q0-0.797 0.586-1.406t1.383-0.609h3.188zM8.813 12q0-1.313 0.938-2.25t2.25-0.938 2.25 0.938 0.938 2.25-0.938 2.25-2.25 0.938-2.25-0.938-0.938-2.25z"></path>
</symbol>
<symbol id="i-chevron_left" viewBox="0 0 24 24">
<path d="M15.422 7.406l-4.594 4.594 4.594 4.594-1.406 1.406-6-6 6-6z"></path>
</symbol>
<symbol id="i-chevron_right" viewBox="0 0 24 24">
<path d="M9.984 6l6 6-6 6-1.406-1.406 4.594-4.594-4.594-4.594z"></path>
</symbol>
<symbol id="i-car" viewBox="0 0 24 24">
<path d="M5.016 11.016h13.969l-1.5-4.5h-10.969zM17.484 15.984q0.609 0 1.055-0.445t0.445-1.055-0.445-1.055-1.055-0.445-1.055 0.445-0.445 1.055 0.445 1.055 1.055 0.445zM6.516 15.984q0.609 0 1.055-0.445t0.445-1.055-0.445-1.055-1.055-0.445-1.055 0.445-0.445 1.055 0.445 1.055 1.055 0.445zM18.938 6l2.063 6v8.016q0 0.422-0.281 0.703t-0.703 0.281h-1.031q-0.422 0-0.703-0.281t-0.281-0.703v-1.031h-12v1.031q0 0.422-0.281 0.703t-0.703 0.281h-1.031q-0.422 0-0.703-0.281t-0.281-0.703v-8.016l2.063-6q0.281-0.984 1.453-0.984h10.969q1.172 0 1.453 0.984z"></path>
</symbol>
<symbol id="i-subway" viewBox="0 0 24 24">
<path d="M18 11.016v-5.016h-5.016v5.016h5.016zM16.5 17.016q0.656 0 1.078-0.445t0.422-1.055-0.422-1.055-1.078-0.445-1.078 0.445-0.422 1.055 0.422 1.055 1.078 0.445zM11.016 11.016v-5.016h-5.016v5.016h5.016zM7.5 17.016q0.656 0 1.078-0.445t0.422-1.055-0.422-1.055-1.078-0.445-1.078 0.445-0.422 1.055 0.422 1.055 1.078 0.445zM12 2.016q3.891 0 5.953 0.797t2.063 3.188v9.516q0 1.453-1.031 2.461t-2.484 1.008l1.5 1.5v0.516h-12v-0.516l1.5-1.5q-1.453 0-2.484-1.008t-1.031-2.461v-9.516q0-2.391 2.063-3.188t5.953-0.797z"></path>
</symbol>
<symbol id="i-railway" viewBox="0 0 24 24">
<path d="M18 9.984v-4.969h-12v4.969h12zM12 17.016q0.797 0 1.406-0.609t0.609-1.406-0.609-1.406-1.406-0.609-1.406 0.609-0.609 1.406 0.609 1.406 1.406 0.609zM3.984 15.516v-10.5q0-2.391 2.063-3.211t5.953-0.82 5.953 0.82 2.063 3.211v10.5q0 1.453-1.031 2.461t-2.484 1.008l1.5 1.5v0.516h-12v-0.516l1.5-1.5q-1.453 0-2.484-1.008t-1.031-2.461z"></path>
</symbol>
<symbol id="i-walk" viewBox="0 0 24 24">
<path d="M9.797 8.906l-2.813 14.109h2.109l1.828-8.016 2.063 2.016v6h2.016v-7.5l-2.109-2.016 0.609-3q2.156 2.484 5.484 2.484v-1.969q-2.906 0-4.266-2.438l-1.031-1.594q-0.703-0.984-1.688-0.984-0.141 0-0.398 0.047t-0.398 0.047l-5.203 2.203v4.688h2.016v-3.375l1.781-0.703zM13.5 5.484q-0.797 0-1.406-0.586t-0.609-1.383 0.609-1.406 1.406-0.609 1.406 0.609 0.609 1.406-0.609 1.383-1.406 0.586z"></path>
</symbol>
<symbol id="i-taxi" viewBox="0 0 24 24">
<path d="M5.016 11.016h13.969l-1.5-4.5h-10.969zM17.484 15.984q0.609 0 1.055-0.445t0.445-1.055-0.445-1.055-1.055-0.445-1.055 0.445-0.445 1.055 0.445 1.055 1.055 0.445zM6.516 15.984q0.609 0 1.055-0.445t0.445-1.055-0.445-1.055-1.055-0.445-1.055 0.445-0.445 1.055 0.445 1.055 1.055 0.445zM18.938 6l2.063 6v8.016q0 0.422-0.281 0.703t-0.703 0.281h-1.031q-0.422 0-0.703-0.281t-0.281-0.703v-1.031h-12v1.031q0 0.422-0.281 0.703t-0.703 0.281h-1.031q-0.422 0-0.703-0.281t-0.281-0.703v-8.016l2.063-6q0.281-0.984 1.453-0.984h2.484v-2.016h6v2.016h2.484q1.172 0 1.453 0.984z"></path>
</symbol>
<symbol id="i-train" viewBox="0 0 24 24">
<path d="M16.5 17.016q0.656 0 1.078-0.445t0.422-1.055-0.422-1.055-1.078-0.445-1.078 0.445-0.422 1.055 0.422 1.055 1.078 0.445zM12.984 9.984h5.016v-3.984h-5.016v3.984zM11.016 9.984v-3.984h-5.016v3.984h5.016zM7.5 17.016q0.656 0 1.078-0.445t0.422-1.055-0.422-1.055-1.078-0.445-1.078 0.445-0.422 1.055 0.422 1.055 1.078 0.445zM12 2.016q3.891 0 5.953 0.797t2.063 3.188v9.516q0 1.453-1.031 2.461t-2.484 1.008l1.5 1.5v0.516h-2.016l-1.969-2.016h-3.797l-1.969 2.016h-2.25v-0.516l1.5-1.5q-1.453 0-2.484-1.008t-1.031-2.461v-9.516q0-1.266 0.656-2.109t1.898-1.219 2.484-0.516 2.977-0.141z"></path>
</symbol>
<symbol id="i-tram" viewBox="0 0 24 24">
<path d="M17.016 14.016v-5.016h-10.031v5.016h10.031zM12 18.516q0.656 0 1.078-0.445t0.422-1.055-0.422-1.055-1.078-0.445-1.078 0.445-0.422 1.055 0.422 1.055 1.078 0.445zM18.984 16.922q0 1.313-0.68 2.203t-1.898 0.891h0.094l1.5 1.5v0.469h-2.016l-1.969-1.969h-3.797l-1.969 1.969h-2.25v-0.469l1.594-1.594q-1.078-0.234-1.828-1.078t-0.75-1.922v-8.438q0-1.922 1.594-2.648t4.359-0.82l0.797-1.5h-4.781v-1.5h10.031v1.5h-3.281l-0.75 1.5q2.953 0.094 4.477 0.797t1.523 2.672v8.438z"></path>
</symbol>
<symbol id="i-expand_less" viewBox="0 0 24 24">
<path d="M12 8.016l6 6-1.406 1.406-4.594-4.594-4.594 4.594-1.406-1.406z"></path>
</symbol>
<symbol id="i-expand_more" viewBox="0 0 24 24">
<path d="M16.594 8.578l1.406 1.406-6 6-6-6 1.406-1.406 4.594 4.594z"></path>
</symbol>
<symbol id="i-menu" viewBox="0 0 24 24">
<path d="M3 6h18v2.016h-18v-2.016zM3 12.984v-1.969h18v1.969h-18zM3 18v-2.016h18v2.016h-18z"></path>
</symbol>
<symbol id="i-exclude" viewBox="0 0 24 24">
<path d="M12 20.016q3.281 0 5.648-2.367t2.367-5.648q0-2.672-1.734-4.922l-11.203 11.203q2.25 1.734 4.922 1.734zM3.984 12q0 2.672 1.734 4.922l11.203-11.203q-2.25-1.734-4.922-1.734-3.281 0-5.648 2.367t-2.367 5.648zM12 2.016q4.125 0 7.055 2.93t2.93 7.055-2.93 7.055-7.055 2.93-7.055-2.93-2.93-7.055 2.93-7.055 7.055-2.93z"></path>
</symbol>
<symbol id="i-event" viewBox="0 0 24 24">
<path d="M14.016 14.016v1.969h-7.031v-1.969h7.031zM18.984 18.984v-10.969h-13.969v10.969h13.969zM18.984 3q0.797 0 1.406 0.609t0.609 1.406v13.969q0 0.797-0.609 1.406t-1.406 0.609h-13.969q-0.844 0-1.43-0.586t-0.586-1.43v-13.969q0-0.797 0.586-1.406t1.43-0.609h0.984v-2.016h2.016v2.016h7.969v-2.016h2.016v2.016h0.984zM17.016 9.984v2.016h-10.031v-2.016h10.031z"></path>
</symbol>
<symbol id="i-couple" viewBox="0 0 24 24">
<path d="M16.5 6q-0.844 0-1.43-0.586t-0.586-1.43 0.586-1.406 1.43-0.563 1.43 0.563 0.586 1.406-0.586 1.43-1.43 0.586zM7.5 6q-0.844 0-1.43-0.586t-0.586-1.43 0.586-1.406 1.43-0.563 1.43 0.563 0.586 1.406-0.586 1.43-1.43 0.586zM18 21.984h-3v-6h-3l2.531-7.594q0.188-0.563 0.75-0.984t1.172-0.422h0.094q0.609 0 1.172 0.422t0.75 0.984l2.531 7.594h-3v6zM5.484 21.984v-7.5h-1.5v-5.484q0-0.797 0.609-1.406t1.406-0.609h3q0.797 0 1.406 0.609t0.609 1.406v5.484h-1.5v7.5h-4.031z"></path>
</symbol>
<symbol id="i-city" viewBox="0 0 24 24">
<path d="M18.984 15v-2.016h-1.969v2.016h1.969zM18.984 18.984v-1.969h-1.969v1.969h1.969zM12.984 6.984v-1.969h-1.969v1.969h1.969zM12.984 11.016v-2.016h-1.969v2.016h1.969zM12.984 15v-2.016h-1.969v2.016h1.969zM12.984 18.984v-1.969h-1.969v1.969h1.969zM6.984 11.016v-2.016h-1.969v2.016h1.969zM6.984 15v-2.016h-1.969v2.016h1.969zM6.984 18.984v-1.969h-1.969v1.969h1.969zM15 11.016h6v9.984h-18v-14.016h6v-1.969l3-3 3 3v6z"></path>
</symbol>
<symbol id="i-notification" viewBox="0 0 24 24">
<path d="M18 15.984l2.016 2.016v0.984h-16.031v-0.984l2.016-2.016v-4.969q0-2.344 1.195-4.078t3.305-2.25v-0.703q0-0.609 0.422-1.055t1.078-0.445 1.078 0.445 0.422 1.055v0.703q2.109 0.516 3.305 2.25t1.195 4.078v4.969zM12 21.984q-0.844 0-1.43-0.563t-0.586-1.406h4.031q0 0.797-0.609 1.383t-1.406 0.586z"></path>
</symbol>
<symbol id="i-person" viewBox="0 0 24 24">
<path d="M12 14.016q2.531 0 5.273 1.102t2.742 2.883v2.016h-16.031v-2.016q0-1.781 2.742-2.883t5.273-1.102zM12 12q-1.641 0-2.813-1.172t-1.172-2.813 1.172-2.836 2.813-1.195 2.813 1.195 1.172 2.836-1.172 2.813-2.813 1.172z"></path>
</symbol>
<symbol id="i-globe" viewBox="0 0 24 24">
<path d="M17.906 17.391q2.109-2.25 2.109-5.391 0-2.484-1.383-4.5t-3.633-2.906v0.422q0 0.797-0.609 1.383t-1.406 0.586h-1.969v2.016q0 0.422-0.305 0.703t-0.727 0.281h-1.969v2.016h6q0.422 0 0.703 0.281t0.281 0.703v3h0.984q1.406 0 1.922 1.406zM11.016 19.922v-1.922q-0.797 0-1.406-0.609t-0.609-1.406v-0.984l-4.781-4.781q-0.234 0.938-0.234 1.781 0 3.047 2.039 5.297t4.992 2.625zM12 2.016q4.125 0 7.055 2.93t2.93 7.055-2.93 7.055-7.055 2.93-7.055-2.93-2.93-7.055 2.93-7.055 7.055-2.93z"></path>
</symbol>
<symbol id="i-thumb_down" viewBox="0 0 24 24">
<path d="M2.156 11.109l2.672-6.141q0.609-0.984 1.734-0.984h8.109q0.984 0 1.664 0.68t0.68 1.664v7.828q0 0.844-0.609 1.453l-6.422 6.375-0.422-0.469q-0.563-0.563-0.891-1.219-0.141-0.328-0.094-0.656l0.938-4.641h-5.531q-0.797 0-1.383-0.609t-0.586-1.406v-1.078q0-0.469 0.141-0.797zM21.984 3.984v11.016h-1.969q-0.422 0-0.727-0.281t-0.305-0.703v-9q0-0.422 0.305-0.727t0.727-0.305h1.969z"></path>
</symbol>
<symbol id="i-thumb_up" viewBox="0 0 24 24">
<path d="M21.844 12.891l-2.672 6.141q-0.609 0.984-1.734 0.984h-8.109q-0.938 0-1.641-0.703t-0.703-1.641v-7.828q0-0.844 0.609-1.453l6.422-6.375 0.422 0.469q0.563 0.563 0.891 1.219 0.141 0.328 0.094 0.656l-0.938 4.641h5.531q0.797 0 1.383 0.609t0.586 1.406v1.078q0 0.422-0.141 0.797zM2.016 20.016v-11.016h1.969q0.422 0 0.727 0.281t0.305 0.703v9q0 0.422-0.305 0.727t-0.727 0.305h-1.969z"></path>
</symbol>
<symbol id="i-bookmark" viewBox="0 0 24 24">
<path d="M17.016 3q0.797 0 1.383 0.609t0.586 1.406v15.984l-6.984-3-6.984 3v-15.984q0-0.797 0.586-1.406t1.383-0.609h10.031z"></path>
</symbol>
<symbol id="i-delete" viewBox="0 0 24 24">
<path d="M18.984 3.984v2.016h-13.969v-2.016h3.469l1.031-0.984h4.969l1.031 0.984h3.469zM6 18.984v-12h12v12q0 0.797-0.609 1.406t-1.406 0.609h-7.969q-0.797 0-1.406-0.609t-0.609-1.406z"></path>
</symbol>
<symbol id="i-done" viewBox="0 0 24 24">
<path d="M9 16.219l10.594-10.641 1.406 1.406-12 12-5.578-5.578 1.359-1.406z"></path>
</symbol>
<symbol id="i-home" viewBox="0 0 24 24">
<path d="M9.984 20.016h-4.969v-8.016h-3l9.984-9 9.984 9h-3v8.016h-4.969v-6h-4.031v6z"></path>
</symbol>
<symbol id="i-info" viewBox="0 0 24 24">
<path d="M12.984 9v-2.016h-1.969v2.016h1.969zM12.984 17.016v-6h-1.969v6h1.969zM12 2.016q4.125 0 7.055 2.93t2.93 7.055-2.93 7.055-7.055 2.93-7.055-2.93-2.93-7.055 2.93-7.055 7.055-2.93z"></path>
</symbol>
<symbol id="i-search" viewBox="0 0 24 24">
<path d="M9.516 14.016q1.875 0 3.188-1.313t1.313-3.188-1.313-3.188-3.188-1.313-3.188 1.313-1.313 3.188 1.313 3.188 3.188 1.313zM15.516 14.016l4.969 4.969-1.5 1.5-4.969-4.969v-0.797l-0.281-0.281q-1.781 1.547-4.219 1.547-2.719 0-4.617-1.875t-1.898-4.594 1.898-4.617 4.617-1.898 4.594 1.898 1.875 4.617q0 0.984-0.469 2.227t-1.078 1.992l0.281 0.281h0.797z"></path>
</symbol>
<symbol id="i-accessible" viewBox="0 0 24 24">
<path d="M12.844 18h2.063q-0.328 1.641-1.781 2.813t-3.141 1.172q-2.063 0-3.516-1.453t-1.453-3.516q0-1.688 1.172-3.141t2.813-1.781v2.063q-0.891 0.328-1.453 1.102t-0.563 1.758q0 1.219 0.891 2.109t2.109 0.891q0.984 0 1.758-0.563t1.102-1.453zM9.984 9.094q0-1.125 0.984-1.781t2.016-0.047h0.047v0.047q0.328 0.141 0.609 0.422l1.313 1.453q1.688 1.828 4.031 1.828v1.969q-2.625 0-4.969-1.922v3.422h3q0.797 0 1.383 0.609t0.586 1.406v5.484h-1.969v-4.969h-5.016q-0.797 0-1.406-0.609t-0.609-1.406v-5.906zM9.984 3.984q0-0.844 0.586-1.406t1.43-0.563 1.43 0.563 0.586 1.406-0.586 1.43-1.43 0.586-1.43-0.586-0.586-1.43z"></path>
</symbol>
<symbol id="i-hand" viewBox="0 0 24 24">
<path d="M23.016 5.484v14.531q0 1.641-1.195 2.813t-2.836 1.172h-7.266q-1.688 0-2.859-1.172l-7.875-8.016q1.266-1.219 1.313-1.219 0.328-0.281 0.797-0.281 0.328 0 0.609 0.141l4.313 2.438v-11.906q0-0.609 0.445-1.055t1.055-0.445 1.055 0.445 0.445 1.055v7.031h0.984v-9.516q0-0.656 0.422-1.078t1.078-0.422 1.078 0.422 0.422 1.078v9.516h0.984v-8.531q0-0.609 0.445-1.055t1.055-0.445 1.055 0.445 0.445 1.055v8.531h1.031v-5.531q0-0.609 0.445-1.055t1.055-0.445 1.055 0.445 0.445 1.055z"></path>
</symbol>
<symbol id="i-phone" viewBox="0 0 24 24">
<path d="M17.391 10.781l-2.203-2.203q-0.422-0.422-0.234-1.031 0.563-1.688 0.563-3.563 0-0.422 0.281-0.703t0.703-0.281h3.516q0.422 0 0.703 0.281t0.281 0.703q0 7.031-4.992 12.023t-12.023 4.992q-0.422 0-0.703-0.281t-0.281-0.703v-3.516q0-0.422 0.281-0.703t0.703-0.281q1.875 0 3.563-0.563 0.563-0.234 1.031 0.234l2.203 2.203q4.359-2.25 6.609-6.609z"></path>
</symbol>
<symbol id="i-people" viewBox="0 0 24 24">
<path d="M9 12.984q1.5 0 3.281 0.422t3.258 1.406 1.477 2.203v3h-16.031v-3q0-1.219 1.477-2.203t3.258-1.406 3.281-0.422zM15 12q-0.609 0-1.313-0.234 1.313-1.547 1.313-3.75 0-0.891-0.375-2.016t-0.938-1.781q0.703-0.234 1.313-0.234 1.641 0 2.813 1.195t1.172 2.836-1.172 2.813-2.813 1.172zM5.016 8.016q0-1.641 1.172-2.836t2.813-1.195 2.813 1.195 1.172 2.836-1.172 2.813-2.813 1.172-2.813-1.172-1.172-2.813zM16.688 13.125q2.484 0.375 4.406 1.383t1.922 2.508v3h-4.031v-3q0-2.297-2.297-3.891z"></path>
</symbol>
<symbol id="i-briefcase" viewBox="0 0 24 24">
<path d="M14.016 6.984v-1.969h-4.031v1.969h4.031zM20.016 6.984q0.797 0 1.383 0.609t0.586 1.406v3q0 0.797-0.586 1.406t-1.383 0.609h-6v-2.016h-4.031v2.016h-6q-0.844 0-1.406-0.586t-0.563-1.43v-3q0-0.797 0.586-1.406t1.383-0.609h3.984v-1.969l2.016-2.016h3.984l2.016 2.016v1.969h4.031zM9.984 15.984h4.031v-0.984h6.984v3.984q0 0.844-0.586 1.43t-1.43 0.586h-13.969q-0.844 0-1.43-0.586t-0.586-1.43v-3.984h6.984v0.984z"></path>
</symbol>
</defs>
</svg>
