<svg width="32" height="32" viewBox="0 0 32 32" fill="none" xmlns="http://www.w3.org/2000/svg">
<path d="M5.09168 30.75H26.9252C30.2972 30.75 32 29.0633 32 25.7237V6.25943C32 2.93668 30.2972 1.25 26.9252 1.25H5.09168C1.7197 1.25 0 2.93668 0 6.25943V25.7237C0 29.0633 1.7197 30.75 5.09168 30.75ZM4.92308 28.0007C3.52371 28.0007 2.76502 27.2586 2.76502 25.808V10.8809C2.76502 9.41352 3.52371 8.68825 4.92308 8.68825H27.0769C28.4594 8.68825 29.2518 9.41352 29.2518 10.8809V25.808C29.2518 27.2586 28.4594 28.0007 27.0769 28.0007H4.92308ZM12.9146 14.3555H13.8419C14.4152 14.3555 14.6006 14.1868 14.6006 13.6133V12.6857C14.6006 12.1122 14.4152 11.9435 13.8419 11.9435H12.9146C12.3414 11.9435 12.156 12.1122 12.156 12.6857V13.6133C12.156 14.1868 12.3414 14.3555 12.9146 14.3555ZM18.1749 14.3555H19.1191C19.6754 14.3555 19.8609 14.1868 19.8609 13.6133V12.6857C19.8609 12.1122 19.6754 11.9435 19.1191 11.9435H18.1749C17.6185 11.9435 17.4331 12.1122 17.4331 12.6857V13.6133C17.4331 14.1868 17.6185 14.3555 18.1749 14.3555ZM23.4521 14.3555H24.3793C24.9526 14.3555 25.138 14.1868 25.138 13.6133V12.6857C25.138 12.1122 24.9526 11.9435 24.3793 11.9435H23.4521C22.8788 11.9435 22.6934 12.1122 22.6934 12.6857V13.6133C22.6934 14.1868 22.8788 14.3555 23.4521 14.3555ZM7.63751 19.5336H8.56481C9.13804 19.5336 9.3235 19.3649 9.3235 18.8083V17.8806C9.3235 17.3072 9.13804 17.1385 8.56481 17.1385H7.63751C7.06428 17.1385 6.87882 17.3072 6.87882 17.8806V18.8083C6.87882 19.3649 7.06428 19.5336 7.63751 19.5336ZM12.9146 19.5336H13.8419C14.4152 19.5336 14.6006 19.3649 14.6006 18.8083V17.8806C14.6006 17.3072 14.4152 17.1385 13.8419 17.1385H12.9146C12.3414 17.1385 12.156 17.3072 12.156 17.8806V18.8083C12.156 19.3649 12.3414 19.5336 12.9146 19.5336ZM18.1749 19.5336H19.1191C19.6754 19.5336 19.8609 19.3649 19.8609 18.8083V17.8806C19.8609 17.3072 19.6754 17.1385 19.1191 17.1385H18.1749C17.6185 17.1385 17.4331 17.3072 17.4331 17.8806V18.8083C17.4331 19.3649 17.6185 19.5336 18.1749 19.5336ZM23.4521 19.5336H24.3793C24.9526 19.5336 25.138 19.3649 25.138 18.8083V17.8806C25.138 17.3072 24.9526 17.1385 24.3793 17.1385H23.4521C22.8788 17.1385 22.6934 17.3072 22.6934 17.8806V18.8083C22.6934 19.3649 22.8788 19.5336 23.4521 19.5336ZM7.63751 24.7286H8.56481C9.13804 24.7286 9.3235 24.5599 9.3235 24.0033V23.0587C9.3235 22.5021 9.13804 22.3335 8.56481 22.3335H7.63751C7.06428 22.3335 6.87882 22.5021 6.87882 23.0587V24.0033C6.87882 24.5599 7.06428 24.7286 7.63751 24.7286ZM12.9146 24.7286H13.8419C14.4152 24.7286 14.6006 24.5599 14.6006 24.0033V23.0587C14.6006 22.5021 14.4152 22.3335 13.8419 22.3335H12.9146C12.3414 22.3335 12.156 22.5021 12.156 23.0587V24.0033C12.156 24.5599 12.3414 24.7286 12.9146 24.7286ZM18.1749 24.7286H19.1191C19.6754 24.7286 19.8609 24.5599 19.8609 24.0033V23.0587C19.8609 22.5021 19.6754 22.3335 19.1191 22.3335H18.1749C17.6185 22.3335 17.4331 22.5021 17.4331 23.0587V24.0033C17.4331 24.5599 17.6185 24.7286 18.1749 24.7286Z" fill="#2E2E2E"/>
</svg>
