<svg width="40" height="32" viewBox="0 0 40 32" fill="none" xmlns="http://www.w3.org/2000/svg">
<path d="M9.73017 29.721C10.452 29.721 10.9898 29.452 11.8672 28.6875L16.297 24.7093C17.2735 25.7711 18.7454 26.3232 20.5994 26.3232H25.199L29.6713 30.1599C30.5063 30.8677 31.0016 31.25 31.6668 31.25C32.6433 31.25 33.1953 30.5563 33.1953 29.4945V26.3232H33.7756C37.1297 26.3232 39.38 24.2845 39.38 20.7876V12.8028C39.38 9.29178 37.1297 7.23895 33.7331 7.23895H31.5677V6.26209C31.5677 2.62362 29.3882 0.5 25.7368 0.5H6.4609C2.95104 0.5 0.630005 2.62362 0.630005 6.26209V18.6499C0.630005 22.2883 2.93689 24.3978 6.4326 24.3978H8.17338V27.9796C8.17338 29.0698 8.72533 29.721 9.73017 29.721ZM10.3104 23.3785C10.3104 22.5998 9.84339 22.2317 9.23483 22.2317H6.65904C4.32385 22.2317 2.95104 20.9434 2.95104 18.4941V6.40366C2.95104 3.95442 4.338 2.66609 6.65904 2.66609H25.5529C27.8739 2.66609 29.2608 3.95442 29.2608 6.40366V7.23895H20.5994C17.0754 7.23895 14.9667 9.29178 14.9667 12.8028V20.8018C14.9667 21.4672 15.0374 22.0901 15.1931 22.6423L10.3104 27.1727V23.3785ZM31.0724 28.6875L26.7983 24.8367C26.2605 24.3553 25.8784 24.1713 25.1283 24.1713H20.7692C18.5756 24.1713 17.2594 22.9679 17.2594 20.6461V12.9302C17.2594 10.6084 18.5756 9.39088 20.7692 9.39088H33.5633C35.7569 9.39088 37.0731 10.6084 37.0731 12.9302V20.6461C37.0731 22.9679 35.7569 24.1713 33.5633 24.1713H32.148C31.5394 24.1713 31.0724 24.5252 31.0724 25.3039V28.6875Z" fill="#2E2E2E"/>
</svg>
