<svg width="32" height="32" viewBox="0 0 32 32" fill="none" xmlns="http://www.w3.org/2000/svg">
<path d="M8.15044 32H23.8496C26.9395 32 28.5 30.3961 28.5 27.2511V13.7592C28.5 11.7936 28.2659 10.9287 27.0487 9.67076L19.0431 1.46241C17.8727 0.267322 16.9207 0 15.1885 0H8.15044C5.07615 0 3.5 1.60393 3.5 4.73317V27.2511C3.5 30.4118 5.06055 32 8.15044 32ZM8.30649 29.4211C6.82397 29.4211 6.0593 28.6192 6.0593 27.1725V4.82752C6.0593 3.38084 6.82397 2.56314 8.3221 2.56314H14.7828V11.0388C14.7828 13.0044 15.7659 13.9636 17.6854 13.9636H25.9407V27.1725C25.9407 28.6192 25.176 29.4211 23.6779 29.4211H8.30649ZM17.9507 11.6049C17.3577 11.6049 17.1236 11.369 17.1236 10.7715V3.01916L25.5037 11.6049H17.9507ZM21.3683 18.0049H10.304C9.7578 18.0049 9.36767 18.398 9.36767 18.917C9.36767 19.4359 9.7578 19.8604 10.304 19.8604H21.3683C21.8989 19.8604 22.289 19.4359 22.289 18.917C22.289 18.398 21.8989 18.0049 21.3683 18.0049ZM21.3683 23.1312H10.304C9.7578 23.1312 9.36767 23.54 9.36767 24.0747C9.36767 24.5779 9.7578 24.971 10.304 24.971H21.3683C21.8989 24.971 22.289 24.5779 22.289 24.0747C22.289 23.54 21.8989 23.1312 21.3683 23.1312Z" fill="#2E2E2E"/>
</svg>
