<svg width="32" height="32" viewBox="0 0 32 32" fill="none" xmlns="http://www.w3.org/2000/svg">
<path d="M16 32C24.7513 32 32 24.7513 32 16C32 7.24871 24.7348 0 15.9835 0C7.24871 0 0 7.24871 0 16C0 24.7513 7.24871 32 16 32ZM16 29.1765C8.70175 29.1765 2.85655 23.3148 2.85655 16C2.85655 8.68524 8.68524 2.82353 15.9835 2.82353C23.2982 2.82353 29.16 8.68524 29.1765 16C29.193 23.3148 23.3148 29.1765 16 29.1765ZM15.8844 10.5181C17.0402 10.5181 17.9484 9.5934 17.9484 8.45408C17.9484 7.28173 17.0402 6.37358 15.8844 6.37358C14.7286 6.37358 13.8204 7.28173 13.8204 8.45408C13.8204 9.5934 14.7286 10.5181 15.8844 10.5181ZM13.259 24.5531H19.6161C20.2766 24.5531 20.7884 24.0743 20.7884 23.4138C20.7884 22.7864 20.2766 22.291 19.6161 22.291H17.7337V14.5139C17.7337 13.6388 17.3044 13.0609 16.4788 13.0609H13.5232C12.8793 13.0609 12.3509 13.5562 12.3509 14.2002C12.3509 14.8607 12.8793 15.3395 13.5232 15.3395H15.1744V22.291H13.259C12.5986 22.291 12.0867 22.7864 12.0867 23.4138C12.0867 24.0743 12.5986 24.5531 13.259 24.5531Z" fill="#2E2E2E"/>
</svg>
