<svg width="32" height="32" viewBox="0 0 32 32" fill="none" xmlns="http://www.w3.org/2000/svg">
<path d="M3.5 27.2511C3.5 30.4118 5.06055 32 8.15044 32H23.8496C26.9395 32 28.5 30.4118 28.5 27.2511V4.73317C28.5 1.60393 26.9395 0 23.8496 0H8.15044C5.06055 0 3.5 1.60393 3.5 4.73317V27.2511ZM6.0593 27.1725V4.82752C6.0593 3.38084 6.82397 2.56314 8.3221 2.56314H23.6779C25.176 2.56314 25.9407 3.38084 25.9407 4.82752V27.1725C25.9407 28.6192 25.176 29.4211 23.6779 29.4211H8.3221C6.82397 29.4211 6.0593 28.6192 6.0593 27.1725ZM10.4757 8.75872H21.54C22.0705 8.75872 22.4607 8.33415 22.4607 7.81523C22.4607 7.29631 22.0705 6.90319 21.54 6.90319H10.4757C9.92946 6.90319 9.53933 7.29631 9.53933 7.81523C9.53933 8.33415 9.92946 8.75872 10.4757 8.75872ZM10.4757 13.9007H21.54C22.0705 13.9007 22.4607 13.4919 22.4607 12.973C22.4607 12.4541 22.0705 12.0609 21.54 12.0609H10.4757C9.92946 12.0609 9.53933 12.4541 9.53933 12.973C9.53933 13.4919 9.92946 13.9007 10.4757 13.9007ZM10.4757 19.0585H15.7503C16.2809 19.0585 16.671 18.6654 16.671 18.1464C16.671 17.6275 16.2809 17.2187 15.7503 17.2187H10.4757C9.92946 17.2187 9.53933 17.6275 9.53933 18.1464C9.53933 18.6654 9.92946 19.0585 10.4757 19.0585Z" fill="#2E2E2E"/>
</svg>
