<svg width="32" height="32" viewBox="0 0 32 32" fill="none" xmlns="http://www.w3.org/2000/svg">
<path d="M16.0181 16.0273C20.1123 16.0273 23.4457 12.3665 23.4457 7.90438C23.4457 3.49687 20.1304 0 16.0181 0C11.9239 0 8.57246 3.5333 8.57246 7.94081C8.59058 12.3847 11.9239 16.0273 16.0181 16.0273ZM16.0181 13.2954C13.5543 13.2954 11.4529 10.9459 11.4529 7.94081C11.4529 4.97211 13.5181 2.73193 16.0181 2.73193C18.5181 2.73193 20.5652 4.93569 20.5652 7.90438C20.5652 10.9095 18.5 13.2954 16.0181 13.2954ZM5.27536 32H26.7428C29.6232 32 31 31.1076 31 29.177C31 24.5874 25.2754 18.1218 16 18.1218C6.74275 18.1218 1 24.5874 1 29.177C1 31.1076 2.37681 32 5.27536 32ZM4.53261 29.2681C4.09783 29.2681 3.93478 29.1406 3.93478 28.7945C3.93478 26.0262 8.24638 20.8537 16 20.8537C23.7717 20.8537 28.0833 26.0262 28.0833 28.7945C28.0833 29.1406 27.9203 29.2681 27.4855 29.2681H4.53261Z" fill="#2E2E2E"/>
</svg>
