<svg width="35" height="32" viewBox="0 0 35 32" fill="none" xmlns="http://www.w3.org/2000/svg">
<path d="M4.32587 29H27.6884C30.5533 29 32 27.5571 32 24.7429V8.25714C32 5.44286 30.5533 4 27.6884 4H4.32587C1.46106 4 0 5.42857 0 8.25714V24.7429C0 27.5714 1.46106 29 4.32587 29ZM4.39749 26.6571C3.07968 26.6571 2.34915 25.9571 2.34915 24.5857V8.4C2.34915 7.02857 3.07968 6.32857 4.39749 6.32857H27.6168C28.9203 6.32857 29.6652 7.02857 29.6652 8.4V24.5857C29.6652 25.9571 28.9203 26.6571 27.6168 26.6571H4.39749ZM13.479 21.7857L21.2283 17.2286C21.8013 16.9 21.7869 16.1 21.2283 15.7714L13.479 11.2C12.8917 10.8571 12.1182 11.1286 12.1182 11.7857V21.2C12.1182 21.8571 12.8487 22.1571 13.479 21.7857Z" fill="#2E2E2E"/>
</svg>
