<svg width="53" height="41" viewBox="0 0 53 41" fill="none" xmlns="http://www.w3.org/2000/svg">
<path fill-rule="evenodd" clip-rule="evenodd" d="M50.2279 12.7055H46.2427L44.5468 5.29975C43.8685 2.23528 41.1551 0.107178 38.0178 0.107178H14.6999C11.5626 0.107178 8.84919 2.23528 8.17085 5.29975L6.475 12.7055H2.48976C1.21787 12.7055 0.285156 13.727 0.285156 14.9188V17.7279C0.285156 18.8345 1.13308 19.7708 2.23538 19.9411L5.20312 20.3667C3.93123 22.1543 3.1681 24.3675 3.1681 26.751V38.0725C3.1681 39.3494 4.18561 40.2857 5.3727 40.2857H11.393C12.4105 40.2857 13.3432 39.5196 13.5976 38.4981L14.5303 34.1568C22.416 33.3907 30.3865 33.3907 38.2722 34.1568L39.2049 38.4981C39.4593 39.5196 40.3072 40.2857 41.4095 40.2857H47.4298C48.7016 40.2857 49.6344 39.2643 49.6344 38.0725V26.751C49.6344 24.3675 48.8712 22.1543 47.5993 20.3667L50.5671 19.9411C51.6694 19.7708 52.5173 18.8345 52.5173 17.7279V14.9188C52.4325 13.6419 51.415 12.7055 50.2279 12.7055ZM13.508 7.08301C13.6795 6.27251 14.3657 5.73218 15.0519 5.73218H38.5541C39.3261 5.73218 39.9265 6.27251 40.0981 7.08301L42.0709 16.1786C37.096 15.7283 32.0353 15.4582 26.8888 15.4582C21.7423 15.4582 16.6816 15.6383 11.5352 16.0886L13.508 7.08301ZM8.32087 24.6161C8.32087 26.6446 9.90841 28.2322 11.9369 28.2322C13.8773 28.2322 15.553 26.6446 15.553 24.6161C15.553 22.5876 13.9655 21 11.9369 21C9.90841 21 8.32087 22.5876 8.32087 24.6161ZM30.7885 27.4286H21.1241C20.2612 27.4286 19.5709 26.8929 19.5709 26.2232C19.5709 25.5536 20.2612 25.0179 21.1241 25.0179H30.8748C31.7377 25.0179 32.428 25.5536 32.428 26.2232C32.3417 26.8929 31.6514 27.4286 30.7885 27.4286ZM37.2494 24.6161C37.2494 26.6446 38.837 28.2322 40.8655 28.2322C42.894 28.2322 44.4816 26.6446 44.4816 24.6161C44.4816 22.5876 42.894 21 40.8655 21C38.837 21 37.2494 22.5876 37.2494 24.6161Z" fill="black"/>
</svg>
