<?xml version="1.0" encoding="UTF-8"?>
<svg width="18px" height="19px" viewBox="0 0 18 19" version="1.1" xmlns="http://www.w3.org/2000/svg" xmlns:xlink="http://www.w3.org/1999/xlink">
    <!-- Generator: Sketch 60 (88103) - https://sketch.com -->
    <title>Shape</title>
    <desc>Created with Sketch.</desc>
    <g id="Page-1" stroke="none" stroke-width="1" fill="none" fill-rule="evenodd">
        <g id="city" fill="#FFFFFF" fill-rule="nonzero">
            <path d="M15.984,13 L15.984,10.984 L14.015,10.984 L14.015,13 L15.984,13 Z M15.984,16.984 L15.984,15.015 L14.015,15.015 L14.015,16.984 L15.984,16.984 Z M9.984,4.984 L9.984,3.015 L8.015,3.015 L8.015,4.984 L9.984,4.984 Z M9.984,9.016 L9.984,7 L8.015,7 L8.015,9.016 L9.984,9.016 Z M9.984,13 L9.984,10.984 L8.015,10.984 L8.015,13 L9.984,13 Z M9.984,16.984 L9.984,15.015 L8.015,15.015 L8.015,16.984 L9.984,16.984 Z M3.984,9.016 L3.984,7 L2.015,7 L2.015,9.016 L3.984,9.016 Z M3.984,13 L3.984,10.984 L2.015,10.984 L2.015,13 L3.984,13 Z M3.984,16.984 L3.984,15.015 L2.015,15.015 L2.015,16.984 L3.984,16.984 Z M12,9.016 L18,9.016 L18,19 L0,19 L0,4.984 L6,4.984 L6,3.015 L9,0.015 L12,3.015 L12,9.015 L12,9.016 Z" id="Shape"></path>
        </g>
    </g>
</svg>