<svg width="60" height="75" viewBox="0 0 60 75" fill="none" xmlns="http://www.w3.org/2000/svg">
<path d="M10.2482 51.536V52.8H4.74419V56.608H9.20019V57.824H4.74419V61.736H10.2482V63H3.18419V51.536H10.2482ZM20.2211 58.856C20.2957 58.984 20.3597 59.12 20.4131 59.264C20.4717 59.4027 20.5277 59.544 20.5811 59.688C20.6344 59.5387 20.6904 59.3973 20.7491 59.264C20.8077 59.1253 20.8744 58.9867 20.9491 58.848L24.8291 51.8C24.8984 51.6773 24.9704 51.6027 25.0451 51.576C25.1197 51.5493 25.2264 51.536 25.3651 51.536H26.5091V63H25.1491V54.576C25.1491 54.464 25.1517 54.344 25.1571 54.216C25.1624 54.088 25.1704 53.9573 25.1811 53.824L21.2531 60.992C21.1197 61.232 20.9331 61.352 20.6931 61.352H20.4691C20.2291 61.352 20.0424 61.232 19.9091 60.992L15.8931 53.8C15.9091 53.9387 15.9197 54.0747 15.9251 54.208C15.9357 54.3413 15.9411 54.464 15.9411 54.576V63H14.5811V51.536H15.7251C15.8637 51.536 15.9704 51.5493 16.0451 51.576C16.1197 51.6027 16.1917 51.6773 16.2611 51.8L20.2211 58.856ZM40.8318 63H39.6318C39.4931 63 39.3811 62.9653 39.2958 62.896C39.2105 62.8267 39.1465 62.7387 39.1038 62.632L38.0318 59.864H32.8878L31.8158 62.632C31.7785 62.728 31.7145 62.8133 31.6238 62.888C31.5331 62.9627 31.4211 63 31.2878 63H30.0878L34.6718 51.536H36.2478L40.8318 63ZM33.3198 58.744H37.5998L35.7998 54.08C35.6825 53.792 35.5678 53.432 35.4558 53C35.3971 53.2187 35.3385 53.4213 35.2798 53.608C35.2265 53.7893 35.1731 53.9493 35.1198 54.088L33.3198 58.744ZM46.2148 63H44.6628V51.536H46.2148V63ZM52.9331 61.696H57.8931V63H51.3811V51.536H52.9331V61.696Z" fill="#1F303E"/>
<path fill-rule="evenodd" clip-rule="evenodd" d="M29.6581 36.8867C39.9628 36.8867 48.3163 28.6491 48.3163 18.4876C48.3163 8.32614 39.9628 0.088623 29.6581 0.088623C19.3535 0.088623 11 8.32614 11 18.4876C11 28.6491 19.3535 36.8867 29.6581 36.8867Z" fill="#F8EBC4"/>
<path d="M27.3125 2H8.36805C7.06562 2 6.01184 3.10237 6.01184 4.44971L6 19.148C6 20.4953 7.06562 21.5977 8.36805 21.5977H27.3125C28.6149 21.5977 29.6805 20.4953 29.6805 19.148V4.44971C29.6805 3.10237 28.6149 2 27.3125 2ZM27.3125 6.89942L17.8403 13.0237L8.36805 6.89942V4.44971L17.8403 10.574L27.3125 4.44971V6.89942Z" fill="#1F303E"/>
</svg>
