<?xml version="1.0" encoding="UTF-8"?>
<svg width="18px" height="21px" viewBox="0 0 18 21" version="1.1" xmlns="http://www.w3.org/2000/svg" xmlns:xlink="http://www.w3.org/1999/xlink">
    <!-- Generator: Sketch 60 (88103) - https://sketch.com -->
    <title>event</title>
    <desc>Created with Sketch.</desc>
    <g id="Page-1" stroke="none" stroke-width="1" fill="none" fill-rule="evenodd">
        <g id="event" transform="translate(-1.000000, 0.000000)" fill="#FFFFFF" fill-rule="nonzero">
            <path d="M12.016,14.016 L12.016,15.985 L4.985,15.985 L4.985,14.016 L12.016,14.016 Z M16.984,18.984 L16.984,8.015 L3.015,8.015 L3.015,18.984 L16.984,18.984 Z M16.984,3 C17.5153333,3 17.984,3.203 18.39,3.609 C18.796,4.015 18.999,4.48366667 18.999,5.015 L18.999,18.984 C18.999,19.5153333 18.796,19.984 18.39,20.39 C17.984,20.796 17.5153333,20.999 16.984,20.999 L3.015,20.999 C2.45233333,20.999 1.97566667,20.8036667 1.585,20.413 C1.19433333,20.0223333 0.999,19.5456667 0.999,18.983 L0.999,5.014 C0.999,4.48266667 1.19433333,4.014 1.585,3.608 C1.97566667,3.202 2.45233333,2.999 3.015,2.999 L3.999,2.999 L3.999,0.983 L6.015,0.983 L6.015,2.999 L13.984,2.999 L13.984,0.983 L16,0.983 L16,2.999 L16.984,2.999 L16.984,3 Z M15.016,9.984 L15.016,12 L4.985,12 L4.985,9.984 L15.016,9.984 Z" id="Shape"></path>
        </g>
    </g>
</svg>