<?xml version="1.0" encoding="UTF-8"?>
<svg width="23px" height="24px" viewBox="0 0 23 24" version="1.1" xmlns="http://www.w3.org/2000/svg" xmlns:xlink="http://www.w3.org/1999/xlink">
    <!-- Generator: Sketch 60 (88103) - https://sketch.com -->
    <title>Path</title>
    <desc>Created with Sketch.</desc>
    <g id="Page-1" stroke="none" stroke-width="1" fill="none" fill-rule="evenodd">
        <g id="hand" transform="translate(-1.000000, 0.000000)" fill="#FFFFFF" fill-rule="nonzero">
            <path d="M23.016,5.484 L23.016,20.015 C23.016,21.109 22.6176667,22.0466667 21.821,22.828 C21.0243333,23.6093333 20.079,24 18.985,24 L11.719,24 C10.5936667,24 9.64066667,23.6093333 8.86,22.828 L0.985,14.812 C1.829,13.9993333 2.26666667,13.593 2.298,13.593 C2.51666667,13.4056667 2.78233333,13.312 3.095,13.312 C3.31366667,13.312 3.51666667,13.359 3.704,13.453 L8.017,15.891 L8.017,3.985 C8.017,3.579 8.16533333,3.22733333 8.462,2.93 C8.75866667,2.63266667 9.11033333,2.48433333 9.517,2.485 C9.92366667,2.48566667 10.2753333,2.634 10.572,2.93 C10.8686667,3.226 11.017,3.57766667 11.017,3.985 L11.017,11.016 L12.001,11.016 L12.001,1.5 C12.001,1.06266667 12.1416667,0.703333333 12.423,0.422 C12.7043333,0.140666667 13.0636667,-1.77635684e-15 13.501,-1.77635684e-15 C13.9383333,-1.77635684e-15 14.2976667,0.140666667 14.579,0.422 C14.8603333,0.703333333 15.001,1.06266667 15.001,1.5 L15.001,11.016 L15.985,11.016 L15.985,2.485 C15.985,2.079 16.1333333,1.72733333 16.43,1.43 C16.7266667,1.13266667 17.0783333,0.984333333 17.485,0.985 C17.8916667,0.985666667 18.2433333,1.134 18.54,1.43 C18.8366667,1.726 18.985,2.07766667 18.985,2.485 L18.985,11.016 L20.016,11.016 L20.016,5.485 C20.016,5.079 20.1643333,4.72733333 20.461,4.43 C20.7576667,4.13266667 21.1093333,3.98433333 21.516,3.985 C21.9226667,3.98566667 22.2743333,4.134 22.571,4.43 C22.8676667,4.726 23.016,5.07766667 23.016,5.485 L23.016,5.484 Z" id="Path"></path>
        </g>
    </g>
</svg>