<svg width="46" height="46" viewBox="0 0 46 46" fill="none" xmlns="http://www.w3.org/2000/svg">
<path d="M27.8223 30.2322C28.7062 33.875 32.4629 36.6607 36.6616 36.6607C40.8602 36.6607 44.6169 33.875 45.5008 30.2322H27.8223Z" fill="black"/>
<path d="M25.25 41V11.075C25.925 10.625 26.375 10.175 26.825 9.5H35.375L27.5 27.5H30.425L36.5 14L42.575 27.5H45.5L37.4 9.5H41V5H26.825C26.375 4.325 25.925 3.65 25.25 3.425V0.5H20.75V3.425C20.075 3.875 19.4 4.325 19.175 5H5V9.5H8.6L0.5 27.5H3.425L9.5 14L15.575 27.5H18.5L10.4 9.5H18.95C19.4 10.175 19.85 10.85 20.525 11.075V41H14L11.75 45.5H34.25L32 41H25.25Z" fill="black"/>
<path d="M18.1786 30.2322H0.5C1.38393 33.875 5.14062 36.6607 9.33929 36.6607C13.5379 36.6607 17.2946 33.875 18.1786 30.2322Z" fill="black"/>
</svg>
