<?xml version="1.0" encoding="UTF-8"?>
<svg width="23px" height="12px" viewBox="0 0 23 12" version="1.1" xmlns="http://www.w3.org/2000/svg" xmlns:xlink="http://www.w3.org/1999/xlink">
    <!-- Generator: Sketch 60 (88103) - https://sketch.com -->
    <title>Shape</title>
    <desc>Created with Sketch.</desc>
    <g id="Page-1" stroke="none" stroke-width="1" fill="none" fill-rule="evenodd">
        <g id="key" transform="translate(-1.000000, 0.000000)" fill="#FFFFFF" fill-rule="nonzero">
            <path d="M6.984,8.016 C7.51533333,8.016 7.984,7.813 8.39,7.407 C8.796,7.001 8.999,6.53233333 8.999,6.001 C8.999,5.46966667 8.796,5.001 8.39,4.595 C7.984,4.189 7.51533333,3.986 6.984,3.986 C6.45266667,3.986 5.99166667,4.189 5.601,4.595 C5.21033333,5.001 5.015,5.46966667 5.015,6.001 C5.015,6.53233333 5.21033333,7.001 5.601,7.407 C5.99166667,7.813 6.45266667,8.016 6.984,8.016 L6.984,8.016 Z M12.656,3.984 L23.015,3.984 L23.015,8.015 L20.999,8.015 L20.999,11.999 L17.015,11.999 L17.015,8.015 L12.656,8.015 C12.25,9.109 11.4923333,10.0466667 10.383,10.828 C9.27366667,11.6093333 8.141,12 6.985,12 C5.329,12 3.915,11.414 2.743,10.242 C1.571,9.07 0.985,7.656 0.985,6 C0.985,4.344 1.571,2.93 2.743,1.758 C3.915,0.586 5.329,3.55271368e-15 6.985,3.55271368e-15 C8.141,3.55271368e-15 9.27366667,0.390666667 10.383,1.172 C11.4923333,1.95333333 12.25,2.891 12.656,3.985 L12.656,3.984 Z" id="Shape"></path>
        </g>
    </g>
</svg>