<svg width="60" height="60" viewBox="0 0 60 60" fill="none" xmlns="http://www.w3.org/2000/svg">
<path d="M59.5825 33.2097C59.411 32.1268 58.9921 31.0988 58.3589 30.2062C57.9918 29.7262 57.4657 29.4061 55.9117 29.3077H54.1253C53.5146 29.3293 52.9042 29.2587 52.3144 29.0984C51.8251 28.9323 51.4465 28.5376 51.2988 28.0398C51.1616 27.6153 51.1198 27.1655 51.1764 26.7227C51.2005 26.4737 51.3136 26.2419 51.4946 26.0703L51.6292 25.9472C52.5364 25.0402 53.0547 23.8119 53.073 22.5253C53.0669 22.4762 53.0669 22.4266 53.073 22.3775V19.0663C53.0673 19.042 53.0673 19.0167 53.073 18.9924C53.0329 16.302 50.8533 14.1423 48.1787 14.1426C45.504 14.1423 43.3244 16.302 43.2843 18.9924V22.2791V22.4022V22.6237C43.3215 23.8846 43.8383 25.0831 44.7282 25.9719L44.8383 26.0703C45.0175 26.2432 45.1302 26.4743 45.1564 26.7227C45.2089 27.1623 45.1629 27.6081 45.0218 28.0275C44.8842 28.5268 44.5077 28.924 44.0185 29.0861C43.4247 29.2477 42.8101 29.3182 42.1953 29.2954H40.3477C38.9651 29.3815 38.4022 29.6523 38.0352 30.0585C38.3288 30.0585 38.6102 30.0585 38.8672 30.0585H40.6414C40.9962 30.0585 41.2899 30.0585 41.5468 30.0585C43.994 30.2186 45.2176 30.7479 46.172 31.9542C47.2122 33.4188 47.9069 35.1027 48.2031 36.8779C48.3937 37.8588 48.4799 38.8574 48.4601 39.8567C50.2495 39.8634 52.0343 39.6736 53.7827 39.2905C54.9906 39.0248 56.1617 38.6114 57.2699 38.0596C58.0381 37.6774 58.7437 37.1793 59.3622 36.5825C59.49 36.4443 59.5787 36.2743 59.6192 36.0901C59.7805 35.1357 59.7681 34.1597 59.5825 33.2097Z" fill="black"/>
<path d="M18.4543 30.0714C18.7111 30.0714 19.0046 30.0714 19.3593 30.0714H21.1324C21.3893 30.0714 21.6827 30.0714 21.964 30.0714C21.5971 29.6667 21.0346 29.397 19.6528 29.3111H17.8429C17.2285 29.3339 16.6143 29.2636 16.0208 29.1027C15.5341 28.9337 15.157 28.5419 15.0058 28.0481C14.8747 27.624 14.8331 27.1772 14.8835 26.736C14.9119 26.4866 15.0292 26.2558 15.2137 26.0861L15.336 25.9635C16.2495 25.0645 16.7686 23.838 16.779 22.5546C16.773 22.5057 16.773 22.4563 16.779 22.4074V19.1333C16.7732 19.1133 16.7732 19.0921 16.779 19.072V18.9739C16.7389 16.2938 14.5606 14.1423 11.8875 14.1426C9.2144 14.1423 7.0361 16.2938 6.996 18.9739V22.248V22.3706V22.5914C7.0298 23.8457 7.5419 25.0394 8.4267 25.9267L8.5246 26.0248C8.7083 26.1936 8.8218 26.4257 8.8425 26.6747H8.8303C8.8863 27.1117 8.8445 27.5557 8.708 27.9745C8.5604 28.4704 8.182 28.8636 7.693 29.0291C7.1035 29.1888 6.4934 29.2591 5.88314 29.2376H4.07328C2.54468 29.3357 2.01884 29.6545 1.62752 30.1327C0.994641 31.0218 0.576051 32.046 0.404641 33.1247C0.221891 34.0971 0.221891 35.0952 0.404641 36.0677C0.442351 36.2486 0.53155 36.4147 0.66144 36.5459C1.26659 37.1529 1.95911 37.6654 2.71588 38.0664C3.8234 38.6162 4.99383 39.028 6.2011 39.2927C7.9485 39.6743 9.7323 39.8634 11.5206 39.8567C11.5009 38.8612 11.5869 37.8665 11.7774 36.8893C12.0735 35.1208 12.7677 33.4433 13.8074 31.9843C14.7612 30.7581 16.0575 30.2308 18.4543 30.0714Z" fill="black"/>
<path d="M44.9239 33.1801C44.4085 32.4965 43.6967 32.0367 41.4756 31.9372H38.8985C38.0254 31.9741 37.1519 31.8735 36.3092 31.639C35.6168 31.4054 35.0807 30.8439 34.8734 30.1351C34.682 29.5254 34.6234 28.8808 34.7016 28.246C34.7385 27.893 34.8946 27.5637 35.1434 27.3138L35.3275 27.1398C36.6192 25.8436 37.3554 24.0845 37.3768 22.243C37.3703 22.1727 37.3703 22.102 37.3768 22.0317V17.3088C37.3828 17.2801 37.3828 17.2505 37.3768 17.2218V17.0727C37.323 13.205 34.2011 10.1043 30.382 10.1251C26.5677 10.1111 23.4533 13.2099 23.3995 17.0727V21.7831L23.4731 21.9695L23.3995 22.2802C23.4548 24.0939 24.1975 25.8163 25.4734 27.0901L25.6329 27.2392C25.8988 27.4845 26.065 27.8212 26.0993 28.1838C26.0993 28.3578 26.0993 28.5442 26.0993 28.7058C26.1037 29.1659 26.0332 29.6236 25.8906 30.0605C25.6834 30.7693 25.1473 31.3308 24.4549 31.5644C23.6122 31.7989 22.7387 31.8996 21.8656 31.8627H19.3376C17.1655 32.0118 16.417 32.4717 15.8893 33.1055C14.9941 34.39 14.4021 35.8655 14.159 37.4182C13.8791 38.8104 13.8541 40.2427 14.0854 41.644C14.147 41.9068 14.2786 42.1475 14.4658 42.34C15.3489 43.1992 16.354 43.9198 17.4478 44.4777C19.0072 45.2714 20.6553 45.8723 22.3564 46.2674C24.911 46.8372 27.521 47.1124 30.1366 47.0877H30.382H30.6275C33.2391 47.1131 35.8451 46.8379 38.3954 46.2674C40.0974 45.8752 41.7458 45.2742 43.304 44.4777C44.4077 43.9474 45.4288 43.2565 46.3351 42.427C46.5205 42.235 46.6481 41.9936 46.7033 41.731C46.9515 40.3273 46.9307 38.8885 46.6419 37.4928C46.3971 35.9426 45.8098 34.4684 44.9239 33.1801Z" fill="black"/>
</svg>
