<svg width="45" height="45" viewBox="0 0 45 45" fill="none" xmlns="http://www.w3.org/2000/svg">
<path fill-rule="evenodd" clip-rule="evenodd" d="M24.9489 40.1703C35.493 40.1703 44.0406 31.7413 44.0406 21.3437C44.0406 10.946 35.493 2.51709 24.9489 2.51709C14.4048 2.51709 5.85712 10.946 5.85712 21.3437C5.85712 31.7413 14.4048 40.1703 24.9489 40.1703Z" fill="#F8EBC4"/>
<path d="M23.4705 7.81657H4.14185C1.85003 7.81657 0 9.68528 0 12.0003V20.3676H5.52247V25.9459H22.0899V20.3676H27.6124V12.0003C27.6124 9.68528 25.7623 7.81657 23.4705 7.81657ZM19.3287 23.1568H8.28371V16.184H19.3287V23.1568ZM23.4705 13.3948C22.7112 13.3948 22.0899 12.7673 22.0899 12.0003C22.0899 11.2332 22.7112 10.6057 23.4705 10.6057C24.2298 10.6057 24.8511 11.2332 24.8511 12.0003C24.8511 12.7673 24.2298 13.3948 23.4705 13.3948ZM22.0899 0.84375H5.52247V6.422H22.0899V0.84375Z" fill="#1F303E"/>
</svg>