<svg width="45" height="41" viewBox="0 0 45 41" fill="none" xmlns="http://www.w3.org/2000/svg">
<path fill-rule="evenodd" clip-rule="evenodd" d="M25.9084 40.9999C36.4524 40.9999 45.0001 32.5709 45.0001 22.1733C45.0001 11.7756 36.4524 3.34668 25.9084 3.34668C15.3643 3.34668 6.81659 11.7756 6.81659 22.1733C6.81659 32.5709 15.3643 40.9999 25.9084 40.9999Z" fill="#F8EBC4"/>
<path d="M25.511 2.45312H5.86999C4.51967 2.45312 3.42713 3.55793 3.42713 4.90826L3.41486 27.0044L8.32512 22.0942H25.511C26.8614 22.0942 27.9662 20.9894 27.9662 19.6391V4.90826C27.9662 3.55793 26.8614 2.45312 25.511 2.45312ZM12.0078 13.5012H9.55269V11.0461H12.0078V13.5012ZM16.9181 13.5012H14.463V11.0461H16.9181V13.5012ZM21.8283 13.5012H19.3732V11.0461H21.8283V13.5012Z" fill="#1F303E"/>
</svg>
