<?xml version="1.0" encoding="UTF-8"?>
<svg width="20px" height="19px" viewBox="0 0 20 19" version="1.1" xmlns="http://www.w3.org/2000/svg" xmlns:xlink="http://www.w3.org/1999/xlink">
    <!-- Generator: Sketch 60 (88103) - https://sketch.com -->
    <title>Shape</title>
    <desc>Created with Sketch.</desc>
    <g id="Page-1" stroke="none" stroke-width="1" fill="none" fill-rule="evenodd">
        <g id="thumb_up" fill="#FFFFFF" fill-rule="nonzero">
            <path d="M19.844,10.891 L17.172,17.032 C16.766,17.688 16.188,18.016 15.438,18.016 L7.329,18.016 C6.70366667,18.016 6.15666667,17.7816667 5.688,17.313 C5.21933333,16.8443333 4.985,16.2973333 4.985,15.672 L4.985,7.844 C4.985,7.28133333 5.188,6.797 5.594,6.391 L12.016,0.016 L12.438,0.485 C12.8133333,0.860333333 13.1103333,1.26666667 13.329,1.704 C13.423,1.92266667 13.4543333,2.14133333 13.423,2.36 L12.485,7.001 L18.016,7.001 C18.5473333,7.001 19.0083333,7.204 19.399,7.61 C19.7896667,8.016 19.985,8.48466667 19.985,9.016 L19.985,10.094 C19.985,10.3753333 19.938,10.641 19.844,10.891 Z M0.016,18.016 L0.016,7 L1.985,7 C2.26633333,7 2.50866667,7.09366667 2.712,7.281 C2.91533333,7.46833333 3.017,7.70266667 3.017,7.984 L3.017,16.984 C3.017,17.2653333 2.91533333,17.5076667 2.712,17.711 C2.50866667,17.9143333 2.26633333,18.016 1.985,18.016 L0.016,18.016 L0.016,18.016 Z" id="Shape"></path>
        </g>
    </g>
</svg>