<?xml version="1.0" encoding="UTF-8"?>
<svg width="20px" height="19px" viewBox="0 0 20 19" version="1.1" xmlns="http://www.w3.org/2000/svg" xmlns:xlink="http://www.w3.org/1999/xlink">
    <!-- Generator: Sketch 60 (88103) - https://sketch.com -->
    <title>thumb_down</title>
    <desc>Created with Sketch.</desc>
    <g id="Page-1" stroke="none" stroke-width="1" fill="none" fill-rule="evenodd">
        <g id="thumb_down" fill="#FFFFFF" fill-rule="nonzero">
            <path d="M0.156,8.109 L2.828,1.968 C3.234,1.312 3.812,0.984 4.562,0.984 L12.671,0.984 C13.327,0.984 13.8816667,1.21066667 14.335,1.664 C14.7883333,2.11733333 15.015,2.672 15.015,3.328 L15.015,11.156 C15.015,11.7186667 14.812,12.203 14.406,12.609 L7.984,18.984 L7.562,18.515 C7.18666667,18.1396667 6.88966667,17.7333333 6.671,17.296 C6.577,17.0773333 6.54566667,16.8586667 6.577,16.64 L7.515,11.999 L1.984,11.999 C1.45266667,11.999 0.991666667,11.796 0.601,11.39 C0.210333333,10.984 0.015,10.5153333 0.015,9.984 L0.015,8.906 C0.015,8.59333333 0.062,8.32766667 0.156,8.109 Z M19.984,0.984 L19.984,12 L18.015,12 C17.7336667,12 17.4913333,11.9063333 17.288,11.719 C17.0846667,11.5316667 16.983,11.2973333 16.983,11.016 L16.983,2.016 C16.983,1.73466667 17.0846667,1.49233333 17.288,1.289 C17.4913333,1.08566667 17.7336667,0.984 18.015,0.984 L19.984,0.984 Z" id="Shape"></path>
        </g>
    </g>
</svg>