<?xml version="1.0" encoding="UTF-8"?>
<svg width="18px" height="20px" viewBox="0 0 18 20" version="1.1" xmlns="http://www.w3.org/2000/svg" xmlns:xlink="http://www.w3.org/1999/xlink">
    <!-- Generator: Sketch 60 (88103) - https://sketch.com -->
    <title>vote</title>
    <desc>Created with Sketch.</desc>
    <g id="Page-1" stroke="none" stroke-width="1" fill="none" fill-rule="evenodd">
        <g id="vote" transform="translate(-1.000000, 0.000000)" fill="#FFFFFF" fill-rule="nonzero">
            <path d="M10.75,0.297 C10.9373333,0.109666667 11.1716667,0.016 11.453,0.016 C11.797,0.016 12.0313333,0.109666667 12.156,0.297 L17.125,5.266 C17.3123333,5.45333333 17.406,5.68766667 17.406,5.969 C17.406,6.25033333 17.3123333,6.48466667 17.125,6.672 L10.75,13 C10.5626667,13.1873333 10.3283333,13.281 10.047,13.281 C9.76566667,13.281 9.53133333,13.1873333 9.344,13 L4.375,8.078 C4.18766667,7.89066667 4.094,7.65633333 4.094,7.375 C4.094,7.09366667 4.18766667,6.85933333 4.375,6.672 L10.75,0.297 Z M15.016,5.969 L11.453,2.406 L6.531,7.375 L10.047,10.891 L15.016,5.969 Z M16,10.984 L19,13.984 L19,18.015 C19,18.5776667 18.8046667,19.0463333 18.414,19.421 C18.0233333,19.7956667 17.5466667,19.9833333 16.984,19.984 L2.968,19.984 C2.43666667,19.984 1.97566667,19.7886667 1.585,19.398 C1.19433333,19.0073333 0.999,18.5463333 0.999,18.015 L0.999,13.984 L3.999,10.984 L4.843,10.984 L6.812,13 L4.796,13 L3.015,15.016 L16.984,15.016 L15.25,13 L13.328,13 L15.297,10.984 L16,10.984 Z" id="Shape"></path>
        </g>
    </g>
</svg>