<svg width="80" height="80" viewBox="0 0 80 80" fill="none" xmlns="http://www.w3.org/2000/svg">
<path d="M77 31H3V79H65L77 67V31Z" stroke="#1B1B1B" stroke-width="2"/>
<path d="M78 66H64V80L78 66Z" fill="#1B1B1B"/>
<rect x="3" y="25" width="74" height="6" stroke="#1B1B1B" stroke-width="2"/>
<path d="M23.1155 48.312C23.2755 47.2027 23.5848 46.232 24.0435 45.4C24.5022 44.5573 25.0728 43.8587 25.7555 43.304C26.4488 42.7387 27.2382 42.3173 28.1235 42.04C29.0195 41.752 29.9795 41.608 31.0035 41.608C32.0702 41.608 33.0302 41.7627 33.8835 42.072C34.7475 42.3707 35.4835 42.792 36.0915 43.336C36.6995 43.8693 37.1635 44.4987 37.4835 45.224C37.8142 45.9493 37.9795 46.7333 37.9795 47.576C37.9795 48.312 37.8942 48.9627 37.7235 49.528C37.5635 50.0827 37.3288 50.568 37.0195 50.984C36.7102 51.4 36.3262 51.752 35.8675 52.04C35.4088 52.328 34.8915 52.568 34.3155 52.76C35.7022 53.1973 36.7368 53.864 37.4195 54.76C38.1022 55.656 38.4435 56.7813 38.4435 58.136C38.4435 59.288 38.2302 60.3067 37.8035 61.192C37.3768 62.0773 36.8008 62.824 36.0755 63.432C35.3502 64.0293 34.5075 64.4827 33.5475 64.792C32.5982 65.1013 31.5902 65.256 30.5235 65.256C29.3608 65.256 28.3475 65.1227 27.4835 64.856C26.6195 64.5893 25.8675 64.1947 25.2275 63.672C24.5875 63.1493 24.0435 62.5093 23.5955 61.752C23.1475 60.9947 22.7635 60.12 22.4435 59.128L24.1875 58.408C24.6462 58.216 25.0728 58.168 25.4675 58.264C25.8728 58.3493 26.1662 58.5627 26.3475 58.904C26.5395 59.2773 26.7475 59.6453 26.9715 60.008C27.2062 60.3707 27.4835 60.696 27.8035 60.984C28.1235 61.2613 28.4968 61.4907 28.9235 61.672C29.3608 61.8427 29.8782 61.928 30.4755 61.928C31.1475 61.928 31.7342 61.8213 32.2355 61.608C32.7368 61.384 33.1528 61.096 33.4835 60.744C33.8248 60.392 34.0755 60.0027 34.2355 59.576C34.4062 59.1387 34.4915 58.7013 34.4915 58.264C34.4915 57.7093 34.4328 57.208 34.3155 56.76C34.1982 56.3013 33.9528 55.912 33.5795 55.592C33.2062 55.272 32.6675 55.0213 31.9635 54.84C31.2702 54.6587 30.3368 54.568 29.1635 54.568V51.752C30.1342 51.7413 30.9395 51.6507 31.5795 51.48C32.2195 51.3093 32.7262 51.0747 33.0995 50.776C33.4835 50.4667 33.7502 50.0987 33.8995 49.672C34.0488 49.2453 34.1235 48.776 34.1235 48.264C34.1235 47.176 33.8195 46.3493 33.2115 45.784C32.6035 45.2187 31.7928 44.936 30.7795 44.936C30.3102 44.936 29.8782 45.0053 29.4835 45.144C29.0888 45.272 28.7315 45.4587 28.4115 45.704C28.1022 45.9387 27.8408 46.216 27.6275 46.536C27.4142 46.856 27.2542 47.208 27.1475 47.592C26.9662 48.0827 26.7262 48.408 26.4275 48.568C26.1395 48.728 25.7288 48.7653 25.1955 48.68L23.1155 48.312ZM57.81 53.432C57.81 55.448 57.5913 57.2027 57.154 58.696C56.7273 60.1787 56.13 61.4053 55.362 62.376C54.6047 63.3467 53.7033 64.072 52.658 64.552C51.6233 65.0213 50.5033 65.256 49.298 65.256C48.0927 65.256 46.9727 65.0213 45.938 64.552C44.914 64.072 44.0233 63.3467 43.266 62.376C42.5087 61.4053 41.9167 60.1787 41.49 58.696C41.0633 57.2027 40.85 55.448 40.85 53.432C40.85 51.4053 41.0633 49.6507 41.49 48.168C41.9167 46.6853 42.5087 45.4587 43.266 44.488C44.0233 43.5173 44.914 42.7973 45.938 42.328C46.9727 41.848 48.0927 41.608 49.298 41.608C50.5033 41.608 51.6233 41.848 52.658 42.328C53.7033 42.7973 54.6047 43.5173 55.362 44.488C56.13 45.4587 56.7273 46.6853 57.154 48.168C57.5913 49.6507 57.81 51.4053 57.81 53.432ZM53.73 53.432C53.73 51.7573 53.6073 50.3707 53.362 49.272C53.1167 48.1733 52.786 47.2987 52.37 46.648C51.9647 45.9973 51.4953 45.544 50.962 45.288C50.4287 45.0213 49.874 44.888 49.298 44.888C48.7327 44.888 48.1833 45.0213 47.65 45.288C47.1273 45.544 46.6633 45.9973 46.258 46.648C45.8527 47.2987 45.5273 48.1733 45.282 49.272C45.0473 50.3707 44.93 51.7573 44.93 53.432C44.93 55.1067 45.0473 56.4933 45.282 57.592C45.5273 58.6907 45.8527 59.5653 46.258 60.216C46.6633 60.8667 47.1273 61.3253 47.65 61.592C48.1833 61.848 48.7327 61.976 49.298 61.976C49.874 61.976 50.4287 61.848 50.962 61.592C51.4953 61.3253 51.9647 60.8667 52.37 60.216C52.786 59.5653 53.1167 58.6907 53.362 57.592C53.6073 56.4933 53.73 55.1067 53.73 53.432Z" fill="#1B1B1B"/>
<rect x="17" y="1" width="6" height="18" rx="3" stroke="#1B1B1B" stroke-width="2"/>
<rect x="57" y="1" width="6" height="18" rx="3" stroke="#1B1B1B" stroke-width="2"/>
<path fill-rule="evenodd" clip-rule="evenodd" d="M17 9V16C17 17.6569 18.3431 19 20 19C21.6569 19 23 17.6569 23 16V9H57V16C57 17.6569 58.3431 19 60 19C61.6569 19 63 17.6569 63 16V9H78V24H2V9H17Z" fill="#1B1B1B"/>
</svg>
