<svg width="80" height="80" viewBox="0 0 80 80" fill="none" xmlns="http://www.w3.org/2000/svg">
<path fill-rule="evenodd" clip-rule="evenodd" d="M80 40C80 62.0914 62.0914 80 40 80C17.9086 80 0 62.0914 0 40C0 17.9086 17.9086 0 40 0C62.0914 0 80 17.9086 80 40ZM71.1086 60.0397C64.5213 70.2444 53.0497 77 40.0001 77C26.9506 77 15.4789 70.2444 8.8916 60.0397C17.8812 54.316 28.5534 51 40.0001 51C51.4468 51 62.1191 54.316 71.1086 60.0397ZM40 49C51.598 49 61 39.598 61 28C61 16.402 51.598 7 40 7C28.402 7 19 16.402 19 28C19 39.598 28.402 49 40 49Z" fill="#1B1B1B"/>
<path d="M25 27.9744C25 27.1127 25.5366 26.4338 26.282 26.2697C28.6689 25.7441 33.2412 25 40 25C46.7588 25 51.3311 25.7441 53.718 26.2697C54.4634 26.4338 55 27.1127 55 27.9744V42.0256C55 42.8873 54.4634 43.5662 53.718 43.7303C51.3311 44.2559 46.7588 45 40 45C33.2412 45 28.6689 44.2559 26.282 43.7303C25.5366 43.5662 25 42.8873 25 42.0256V27.9744Z" stroke="#1B1B1B" stroke-width="2"/>
<path d="M55 27L62 23" stroke="#1B1B1B" stroke-width="2"/>
<path d="M25 27L18 23" stroke="#1B1B1B" stroke-width="2"/>
<rect x="32" y="32" width="16" height="2" fill="#1B1B1B"/>
<rect x="32" y="36" width="16" height="2" fill="#1B1B1B"/>
<path d="M40 17L40 25" stroke="#1B1B1B" stroke-width="2"/>
<circle cx="31.5" cy="19.5" r="1.5" fill="#1B1B1B"/>
<circle cx="48.5" cy="19.5" r="1.5" fill="#1B1B1B"/>
<path d="M46 15.7578C46.715 15.2791 47.5749 15 48.5 15C50.0602 15 51.435 15.794 52.2422 17" stroke="#1B1B1B" stroke-width="2"/>
<path d="M34.2422 15.7578C33.5271 15.2791 32.6673 15 31.7422 15C30.182 15 28.8072 15.794 28 17" stroke="#1B1B1B" stroke-width="2"/>
</svg>
