<svg width="80" height="80" viewBox="0 0 80 80" fill="none" xmlns="http://www.w3.org/2000/svg">
<g clip-path="url(#clip0)">
<path fill-rule="evenodd" clip-rule="evenodd" d="M40 78C60.9868 78 78 60.9868 78 40C78 19.0132 60.9868 2 40 2C19.0132 2 2 19.0132 2 40C2 60.9868 19.0132 78 40 78ZM40 80C62.0914 80 80 62.0914 80 40C80 17.9086 62.0914 0 40 0C17.9086 0 0 17.9086 0 40C0 62.0914 17.9086 80 40 80ZM45 14.0001C45 16.7615 42.7614 19.0001 40 19.0001C37.2386 19.0001 35 16.7615 35 14.0001C35 11.2386 37.2386 9.00005 40 9.00005C42.7614 9.00005 45 11.2386 45 14.0001ZM18.4432 18.0497C17.3661 17.8049 16.2945 18.4797 16.0497 19.5568C15.8049 20.6339 16.4797 21.7055 17.5568 21.9503L26.2595 23.9282C28.8733 24.5222 31.5159 24.9446 34.1708 25.1953L34.3838 26.6863C35.0239 31.1674 35.2818 35.6892 35.1575 40.2031L26.1026 67.3675C25.7533 68.4154 26.3197 69.5481 27.3675 69.8974C28.4154 70.2467 29.5481 69.6803 29.8974 68.6325L36.5037 48.8135L36.8547 48.3667C38.4562 46.3284 41.5438 46.3284 43.1453 48.3667L43.4963 48.8135L50.1026 68.6325C50.4519 69.6803 51.5846 70.2467 52.6325 69.8974C53.6803 69.5481 54.2467 68.4154 53.8974 67.3675L44.8425 40.2031C44.7182 35.6892 44.9761 31.1674 45.6162 26.6863L45.8292 25.1953C48.4841 24.9446 51.1267 24.5222 53.7405 23.9282L62.4432 21.9503C63.5203 21.7055 64.1951 20.6339 63.9503 19.5568C63.7055 18.4797 62.6339 17.8049 61.5568 18.0497L52.854 20.0276C44.3926 21.9507 35.6074 21.9507 27.146 20.0276L18.4432 18.0497Z" fill="#1B1B1B"/>
</g>
<defs>
<clipPath id="clip0">
<rect width="80" height="80" fill="white"/>
</clipPath>
</defs>
</svg>
