<svg width="80" height="80" viewBox="0 0 80 80" fill="none" xmlns="http://www.w3.org/2000/svg">
<path d="M79 23V74C79 76.7614 76.7614 79 74 79C71.2386 79 69 76.7614 69 74V72H75V23C75 21.8954 75.8954 21 77 21C78.1046 21 79 21.8954 79 23Z" fill="#1B1B1B" stroke="#1B1B1B" stroke-width="2"/>
<path d="M69 71V15L55 1H13V75C13 77.2091 14.7909 79 17 79H74" stroke="#1B1B1B" stroke-width="2"/>
<path d="M23 60H59" stroke="#1B1B1B" stroke-width="2"/>
<path d="M18 65H32M34 65L48 65M50 65L64 65M18 69H32M18 73H32M34 73H48M34 69H48M50 69H64" stroke="#1B1B1B" stroke-width="2"/>
<path d="M18 43H32M34 43L48 43M50 39L57 39M18 47H32M18 51H32M34 51H48M34 47H48M34 31L48 31M50 31L64 31M34 39H48M34 35H48M50 35H64M34 27L48 27M50 27L64 27" stroke="#1B1B1B" stroke-width="2"/>
<rect x="19" y="27" width="12" height="12" stroke="#1B1B1B" stroke-width="2"/>
<rect x="51" y="43" width="12" height="8" stroke="#1B1B1B" stroke-width="2"/>
<rect x="18" y="12" width="26" height="6" fill="#1B1B1B"/>
<path d="M55 1L55.7071 0.292893L54 1H55ZM69 15V16L69.7071 14.2929L69 15ZM55 15H54V16H55V15ZM69 14H55V16H69V14ZM56 15V1H54V15H56ZM54.2929 1.70711L68.2929 15.7071L69.7071 14.2929L55.7071 0.292893L54.2929 1.70711Z" fill="#1B1B1B"/>
<path d="M57 22L69 16H57V22Z" fill="#1B1B1B"/>
<path d="M69 21H77" stroke="#1B1B1B" stroke-width="2"/>
</svg>
