<svg width="80" height="80" viewBox="0 0 80 80" fill="none" xmlns="http://www.w3.org/2000/svg">
<rect x="1" y="42" width="78" height="8" stroke="#1B1B1B" stroke-width="2"/>
<rect x="3" y="50" width="74" height="2" fill="#1B1B1B"/>
<path fill-rule="evenodd" clip-rule="evenodd" d="M70 12C71.6569 12 73 13.3431 73 15V18.124C73.6372 19.2722 74 20.5937 74 22C74 23.4063 73.6372 24.7278 73 25.876V30.5946C75.1014 32.4013 76.5009 35.0121 76.7125 37.9746L77 42H55L55.2875 37.9746C55.5842 33.8218 58.2149 30.3602 61.8415 28.8356C59.538 27.4312 58 24.8952 58 22C58 17.5817 61.5817 14 66 14C66.3882 14 66.7699 14.0276 67.1434 14.0811C67.5314 12.8737 68.6637 12 70 12ZM71.7302 23.7845C71.1767 23.9252 70.597 24 69.9998 24C67.0537 24 64.5327 22.18 63.4998 19.6031C62.8617 21.1949 61.6559 22.4978 60.1328 23.2614C60.5712 25.3103 62.0556 26.9713 64 27.6586V30.2302C63.0094 30.4622 62.082 30.8631 61.2505 31.4024C62.2911 32.3102 63.9448 33 66.0002 33C68.0557 33 69.7094 32.3101 70.7501 31.4023C69.9184 30.8629 68.9908 30.462 68 30.23V27.6586C69.7761 27.0308 71.1683 25.5906 71.7302 23.7845Z" fill="#1B1B1B"/>
<rect x="4" y="53" width="72" height="20" stroke="#1B1B1B" stroke-width="2"/>
<rect x="26" y="59" width="28" height="14" stroke="#1B1B1B" stroke-width="2"/>
<rect x="60" y="59" width="10" height="14" stroke="#1B1B1B" stroke-width="2"/>
<rect x="10" y="59" width="10" height="14" stroke="#1B1B1B" stroke-width="2"/>
<path fill-rule="evenodd" clip-rule="evenodd" d="M34 22C34 20.288 34.717 18.7434 35.8672 17.6503C37.0254 18.4989 38.4542 19 40.0001 19C41.5459 19 42.9747 18.4989 44.1329 17.6504C45.283 18.7435 46 20.288 46 22C46 24.6124 44.3304 26.8349 42 27.6586V30.23C42.9908 30.462 43.9184 30.8629 44.7501 31.4023C43.7094 32.3101 42.0557 33 40.0002 33C37.9448 33 36.2911 32.3102 35.2505 31.4024C36.082 30.8631 37.0094 30.4622 38 30.2302V27.6586C35.6696 26.8349 34 24.6124 34 22ZM44.1585 28.8356C46.462 27.4312 48 24.8952 48 22C48 17.5817 44.4183 14 40 14C35.5817 14 32 17.5817 32 22C32 24.8952 33.538 27.4312 35.8415 28.8356C32.2149 30.3602 29.5842 33.8218 29.2875 37.9746L29 42H51L50.7125 37.9746C50.4158 33.8218 47.7851 30.3602 44.1585 28.8356Z" fill="#1B1B1B"/>
<path fill-rule="evenodd" clip-rule="evenodd" d="M8 22C8 21.9723 8.00019 21.9447 8.00056 21.9171C8.32559 21.9716 8.65948 22 9 22C11.087 22 12.9251 20.9345 14 19.3178C15.0749 20.9345 16.913 22 19 22C19.3405 22 19.6744 21.9716 19.9994 21.9171C19.9998 21.9447 20 21.9723 20 22C20 24.6124 18.3304 26.8349 16 27.6586V30.23C16.9908 30.462 17.9184 30.8629 18.7501 31.4023C17.7094 32.3101 16.0557 33 14.0002 33C11.9448 33 10.2911 32.3102 9.25049 31.4024C10.082 30.8631 11.0094 30.4622 12 30.2302V27.6586C9.66962 26.8349 8 24.6124 8 22ZM24.7125 37.9746C24.4261 33.9649 21.9636 30.5995 18.5297 29H22V22C22 17.5817 18.4183 14 14 14C9.58172 14 6 17.5817 6 22V29H9.47025C6.03638 30.5995 3.57394 33.9649 3.28753 37.9746L3 42H25L24.7125 37.9746Z" fill="#1B1B1B"/>
</svg>
