<svg width="80" height="80" viewBox="0 0 80 80" fill="none" xmlns="http://www.w3.org/2000/svg">
<path d="M57.0495 32L61 28M57.0495 32L53 28M57.0495 32V25C57.0495 20.5817 53.4678 17 49.0495 17H41" stroke="#1B1B1B" stroke-width="2"/>
<path d="M22.9505 48L19 52M22.9505 48L27 52M22.9505 48V55C22.9505 59.4183 26.5322 63 30.9505 63H39" stroke="#1B1B1B" stroke-width="2"/>
<path d="M3 3V2H2V3H3ZM35 3H36V2H35V3ZM3 32H2V33H3V32ZM7 32H8V31H7V32ZM7 43H6L7.61782 43.7863L7 43ZM21 32V31H20.6541L20.3822 31.2137L21 32ZM35 32V33H36V32H35ZM3 4H35V2H3V4ZM4 32V3H2V32H4ZM7 31H3V33H7V31ZM8 43V32H6V43H8ZM20.3822 31.2137L6.38218 42.2137L7.61782 43.7863L21.6178 32.7863L20.3822 31.2137ZM35 31H21V33H35V31ZM34 3V32H36V3H34Z" fill="#1B1B1B"/>
<path d="M77 38V37H78V38H77ZM45 38H44V37H45V38ZM77 67H78V68H77V67ZM73 67H72V66H73V67ZM73 78H74L72.3822 78.7863L73 78ZM59 67V66H59.3459L59.6178 66.2137L59 67ZM45 67V68H44V67H45ZM77 39H45V37H77V39ZM76 67V38H78V67H76ZM73 66H77V68H73V66ZM72 78V67H74V78H72ZM59.6178 66.2137L73.6178 77.2137L72.3822 78.7863L58.3822 67.7863L59.6178 66.2137ZM45 66H59V68H45V66ZM46 38V67H44V38H46Z" fill="#1B1B1B"/>
<path d="M63.2183 54.14L61.4363 49.406C61.2923 49.04 61.1453 48.575 60.9953 48.011C60.9293 48.293 60.8573 48.554 60.7793 48.794C60.7013 49.028 60.6293 49.235 60.5633 49.415L58.7813 54.14H63.2183ZM67.2053 59H65.5763C65.3903 59 65.2403 58.955 65.1263 58.865C65.0123 58.769 64.9253 58.652 64.8653 58.514L63.7853 55.652H58.2053L57.1253 58.514C57.0773 58.634 56.9933 58.745 56.8733 58.847C56.7533 58.949 56.6033 59 56.4233 59H54.7943L59.9333 46.04H62.0663L67.2053 59Z" fill="#1B1B1B"/>
<path d="M25.585 16.545V14.775H19.96V11.295H18.055V14.775H12.46V16.545H17.275C16.045 18.9 14.005 21.165 11.77 22.365C12.19 22.74 12.805 23.43 13.105 23.895C15.025 22.695 16.75 20.79 18.055 18.615V25.305H19.96V18.54C21.28 20.7 23.005 22.62 24.895 23.835C25.18 23.34 25.795 22.635 26.23 22.275C24.025 21.075 21.925 18.84 20.68 16.545H25.585Z" fill="#1B1B1B"/>
</svg>
