<svg width="80" height="80" viewBox="0 0 80 80" fill="none" xmlns="http://www.w3.org/2000/svg">
<g clip-path="url(#clip0)">
<path fill-rule="evenodd" clip-rule="evenodd" d="M27 49C39.1503 49 49 39.1503 49 27C49 14.8497 39.1503 5 27 5C14.8497 5 5 14.8497 5 27C5 39.1503 14.8497 49 27 49ZM35 19C35 23.4183 31.4183 27 27 27C22.5817 27 19 23.4183 19 19C19 14.5817 22.5817 11 27 11C31.4183 11 35 14.5817 35 19ZM9.90576 37.3874C13.9772 32.2761 20.2546 29 27.2972 29C34.1442 29 40.2679 32.0966 44.3443 36.9658C40.8911 42.9627 34.4171 47 27.0002 47C19.7584 47 13.4156 43.1511 9.90576 37.3874Z" fill="#1B1B1B"/>
<path d="M27 53C41.3594 53 53 41.3594 53 27C53 12.6406 41.3594 1 27 1C12.6406 1 1 12.6406 1 27C1 41.3594 12.6406 53 27 53Z" stroke="#1B1B1B" stroke-width="2"/>
<path d="M49 53L53 49L78 74L74 78L49 53Z" fill="#1B1B1B" stroke="#1B1B1B" stroke-width="2"/>
<path d="M45.6777 45.6777L51.0001 51.0001" stroke="#1B1B1B" stroke-width="2"/>
</g>
<defs>
<clipPath id="clip0">
<rect width="80" height="80" fill="white"/>
</clipPath>
</defs>
</svg>
