<svg width="80" height="80" viewBox="0 0 80 80" fill="none" xmlns="http://www.w3.org/2000/svg">
<path d="M62 79H20V15L34 1H62V79Z" stroke="#1B1B1B" stroke-width="2"/>
<path d="M34 1L33.2929 0.292893L35 1H34ZM20 15V16L19.2929 14.2929L20 15ZM34 15H35V16H34V15ZM20 14H34V16H20V14ZM33 15V1H35V15H33ZM34.7071 1.70711L20.7071 15.7071L19.2929 14.2929L33.2929 0.292893L34.7071 1.70711Z" fill="#1B1B1B"/>
<path d="M31 21L19 15H31V21Z" fill="#1B1B1B"/>
<path fill-rule="evenodd" clip-rule="evenodd" d="M54.1907 5L56.0539 11.0952H58.0002V18.7143H55.7145V21H52.1948V18.7143H47.044V21H43.524V18.7143H41.2383V11.0952H43.1846L45.0478 5H54.1907ZM46.5716 14.9048C46.5716 15.7463 45.8894 16.4286 45.0478 16.4286C44.2062 16.4286 43.524 15.7463 43.524 14.9048C43.524 14.0632 44.2062 13.381 45.0478 13.381C45.8894 13.381 46.5716 14.0632 46.5716 14.9048ZM55.7144 14.9049C55.7144 15.7464 55.0321 16.4287 54.1905 16.4287C53.349 16.4287 52.6667 15.7464 52.6667 14.9049C52.6667 14.0633 53.349 13.381 54.1905 13.381C55.0321 13.381 55.7144 14.0633 55.7144 14.9049Z" fill="#1B1B1B"/>
<path d="M27 33H24V42H27M39 33H58V42H39" stroke="#1B1B1B" stroke-width="2"/>
<rect x="26" y="64" width="16" height="4" stroke="#1B1B1B" stroke-width="2"/>
<path d="M25 59H41" stroke="#1B1B1B" stroke-width="2"/>
<path d="M58 63V76" stroke="#1B1B1B" stroke-width="2"/>
<path d="M35.775 34.2118C35.175 33.3706 33.9 32.9118 33 32.9118M33 32.9118C32.1 32.9118 30.3 33.2176 30.3 35.1294C30.3 36.6588 31.275 36.7353 33 37.3471C34.95 38.0353 36 38.4941 36 39.7941C36 41.3235 34.5 42.3941 33 42.3941M33 32.9118V30M33 42.3941C31.5 42.3941 30.525 41.4 30 40.6353M33 42.3941V45" stroke="#1B1B1B" stroke-width="2" stroke-miterlimit="10" stroke-linejoin="round"/>
</svg>
