<svg width="80" height="80" viewBox="0 0 80 80" fill="none" xmlns="http://www.w3.org/2000/svg">
<path d="M13 11V10H12V11H13ZM37 11H38V10H37V11ZM13 32.9231H12V33.9231H13V32.9231ZM16.4286 32.9231H17.4286V31.9231H16.4286V32.9231ZM16.4286 41H15.4286L17.0679 41.7689L16.4286 41ZM26.1429 32.9231V31.9231H25.7814L25.5035 32.1541L26.1429 32.9231ZM37 32.9231V33.9231H38V32.9231H37ZM13 12H37V10H13V12ZM14 32.9231V11H12V32.9231H14ZM16.4286 31.9231H13V33.9231H16.4286V31.9231ZM17.4286 41V32.9231H15.4286V41H17.4286ZM25.5035 32.1541L15.7892 40.2311L17.0679 41.7689L26.7822 33.692L25.5035 32.1541ZM37 31.9231H26.1429V33.9231H37V31.9231ZM36 11V32.9231H38V11H36Z" fill="#1B1B1B"/>
<path d="M67 11V10H68V11H67ZM43 11H42V10H43V11ZM67 32.9231H68V33.9231H67V32.9231ZM63.5714 32.9231H62.5714V31.9231H63.5714V32.9231ZM63.5714 41H64.5714L62.9321 41.7689L63.5714 41ZM53.8571 32.9231V31.9231H54.2186L54.4965 32.1541L53.8571 32.9231ZM43 32.9231V33.9231H42V32.9231H43ZM67 12H43V10H67V12ZM66 32.9231V11H68V32.9231H66ZM63.5714 31.9231H67V33.9231H63.5714V31.9231ZM62.5714 41V32.9231H64.5714V41H62.5714ZM54.4965 32.1541L64.2108 40.2311L62.9321 41.7689L53.2178 33.692L54.4965 32.1541ZM43 31.9231H53.8571V33.9231H43V31.9231ZM44 11V32.9231H42V11H44Z" fill="#1B1B1B"/>
<path d="M21 16.3943C21.2352 16.2046 21.4911 16.0244 21.7678 15.8537C22.0514 15.6829 22.3558 15.5343 22.6809 15.4079C23.0061 15.2814 23.3588 15.1834 23.7393 15.1138C24.1198 15.0379 24.5313 15 24.9741 15C25.5759 15 26.1224 15.0759 26.6135 15.2276C27.1115 15.3794 27.537 15.5976 27.8898 15.8821C28.2425 16.1603 28.5158 16.4986 28.7095 16.897C28.9032 17.2954 29 17.7412 29 18.2344C29 18.715 28.9239 19.1323 28.7717 19.4865C28.6195 19.8342 28.4293 20.1378 28.201 20.397C27.9728 20.6563 27.7203 20.8808 27.4436 21.0705C27.1738 21.2602 26.9179 21.4404 26.6757 21.6111C26.4336 21.7755 26.2227 21.9399 26.0428 22.1043C25.8699 22.2624 25.7661 22.4426 25.7315 22.645L25.4929 24.0298H23.7393L23.5629 22.4837C23.5214 22.1865 23.5664 21.9273 23.6978 21.706C23.8361 21.4783 24.016 21.2728 24.2374 21.0894C24.4656 20.8997 24.7181 20.7195 24.9948 20.5488C25.2715 20.3717 25.5309 20.182 25.773 19.9797C26.0151 19.771 26.2157 19.5402 26.3748 19.2873C26.5409 19.028 26.6239 18.7213 26.6239 18.3672C26.6239 18.1396 26.5754 17.9372 26.4786 17.7602C26.3887 17.5768 26.2607 17.4219 26.0947 17.2954C25.9287 17.1626 25.7281 17.0614 25.4929 16.9919C25.2646 16.9223 25.0156 16.8875 24.7458 16.8875C24.3515 16.8875 24.016 16.9286 23.7393 17.0108C23.4695 17.0867 23.2378 17.1752 23.0441 17.2764C22.8573 17.3713 22.6982 17.4598 22.5668 17.542C22.4354 17.6179 22.3178 17.6558 22.214 17.6558C21.965 17.6558 21.7851 17.561 21.6744 17.3713L21 16.3943ZM22.9611 27.5772C22.9611 27.3812 22.9991 27.1947 23.0752 27.0176C23.1582 26.8406 23.2689 26.6888 23.4073 26.5623C23.5456 26.4359 23.7116 26.3347 23.9053 26.2588C24.099 26.1829 24.3065 26.145 24.5279 26.145C24.7492 26.145 24.9533 26.1829 25.1401 26.2588C25.3338 26.3347 25.4998 26.4359 25.6381 26.5623C25.7834 26.6888 25.8975 26.8406 25.9805 27.0176C26.0636 27.1947 26.1051 27.3812 26.1051 27.5772C26.1051 27.7796 26.0636 27.9693 25.9805 28.1463C25.8975 28.3171 25.7834 28.4657 25.6381 28.5921C25.4998 28.7186 25.3338 28.8166 25.1401 28.8862C24.9533 28.9621 24.7492 29 24.5279 29C24.3065 29 24.099 28.9621 23.9053 28.8862C23.7116 28.8166 23.5456 28.7186 23.4073 28.5921C23.2689 28.4657 23.1582 28.3171 23.0752 28.1463C22.9991 27.9693 22.9611 27.7796 22.9611 27.5772Z" fill="#1B1B1B"/>
<path d="M54.5679 15.7418C54.7608 15.4107 55.2392 15.4107 55.4321 15.7418L57.1521 18.6949C57.2227 18.8162 57.3411 18.9022 57.4783 18.9319L60.8184 19.6552C61.1929 19.7363 61.3407 20.1913 61.0854 20.477L58.8084 23.0254C58.7148 23.1301 58.6696 23.2693 58.6838 23.4089L59.028 26.809C59.0666 27.1903 58.6796 27.4715 58.3289 27.317L55.2016 25.9388C55.0732 25.8822 54.9268 25.8822 54.7984 25.9388L51.6711 27.317C51.3204 27.4715 50.9334 27.1903 50.972 26.809L51.3162 23.4089C51.3304 23.2693 51.2852 23.1301 51.1916 23.0254L48.9146 20.477C48.6593 20.1913 48.8071 19.7363 49.1816 19.6552L52.5217 18.9319C52.6589 18.9022 52.7773 18.8162 52.8479 18.6949L54.5679 15.7418Z" fill="#1B1B1B"/>
<path fill-rule="evenodd" clip-rule="evenodd" d="M73 42C74.6569 42 76 43.3431 76 45V48.124C76.6372 49.2722 77 50.5937 77 52C77 53.4063 76.6372 54.7278 76 55.876V60.5946C78.1014 62.4013 79.5009 65.0121 79.7125 67.9746L80 72H58L58.2875 67.9746C58.5842 63.8218 61.2149 60.3602 64.8415 58.8356C62.538 57.4312 61 54.8952 61 52C61 47.5817 64.5817 44 69 44C69.3882 44 69.7699 44.0276 70.1434 44.0811C70.5314 42.8737 71.6637 42 73 42ZM74.7302 53.7845C74.1767 53.9252 73.597 54 72.9998 54C70.0537 54 67.5327 52.18 66.4998 49.6031C65.8617 51.1949 64.6559 52.4978 63.1328 53.2614C63.5712 55.3103 65.0556 56.9713 67 57.6586V60.2302C66.0094 60.4622 65.082 60.8631 64.2505 61.4024C65.2911 62.3102 66.9448 63 69.0002 63C71.0557 63 72.7094 62.3101 73.7501 61.4023C72.9184 60.8629 71.9908 60.462 71 60.23V57.6586C72.7761 57.0308 74.1683 55.5906 74.7302 53.7845Z" fill="#1B1B1B"/>
<path fill-rule="evenodd" clip-rule="evenodd" d="M5 52C5 51.5705 5.04512 51.1516 5.13088 50.7477C5.72584 50.9121 6.35259 51 6.99987 51C9.96494 51 12.4994 49.1565 13.5197 46.5531C15.5746 47.5053 17 49.5862 17 52C17 54.6124 15.3304 56.8349 13 57.6586V60.23C13.9908 60.462 14.9184 60.8629 15.7501 61.4023C14.7094 62.3101 13.0557 63 11.0002 63C8.9448 63 7.29113 62.3102 6.25049 61.4024C7.08197 60.8631 8.00937 60.4622 9 60.2302V57.6586C6.66962 56.8349 5 54.6124 5 52ZM15.1585 58.8356C17.462 57.4312 19 54.8952 19 52C19 47.5817 15.4183 44 11 44C6.58172 44 3 47.5817 3 52C3 54.8952 4.53796 57.4312 6.84147 58.8356C3.21487 60.3602 0.584155 63.8218 0.28753 67.9746L0 72H22L21.7125 67.9746C21.4158 63.8218 18.7851 60.3602 15.1585 58.8356Z" fill="#1B1B1B"/>
</svg>
