<svg width="80" height="80" viewBox="0 0 80 80" fill="none" xmlns="http://www.w3.org/2000/svg">
<path d="M18 22C18.1087 25.0563 19.8478 37.8275 19.8478 40.8838C19.8478 44.4859 20.2826 49.3979 19.6304 53M23.9783 37.1724C24.1549 40.6304 22.7695 44.8984 19.9856 47.1056C21.1812 46.5599 23.761 44.595 25.174 44.9224C27.3478 45.359 26.4783 49.1795 28 50.0527" stroke="#1B1B1B" stroke-width="2" stroke-miterlimit="10" stroke-linejoin="round"/>
<path d="M31 50.1842C38.1212 51.4286 33.7473 43.5714 36.697 43.789C39.6466 44.0066 38.8333 48.5714 41.6152 48.2508C44.397 47.9301 47.0223 36.2041 44.8096 27.5781M45.1402 40.7143C45.1402 40.7143 48.3499 49.4406 50.2675 50.1842C54.1029 51.8202 57.3485 41.4286 54.1029 40.7143C50.8573 40 49.5151 46.4286 54.1029 47.6559C56.6106 49.738 60.2984 44.6814 62.5111 39.9222C64.2812 36.0554 65.3138 33.9732 66.1989 29.3628C66.9365 25.9421 66.0514 22.5215 65.1663 21.183C62.9536 18.0597 59.8559 21.7778 59.1183 24.7523C57.2006 32.9322 56.4984 49.8867 64.3166 54.1997M65.3139 60C65.1664 55.5383 61.9211 48.8457 65.0189 44.9788C66.9363 44.0865 68.2642 49.5893 70.3294 49.2919C72.247 48.9944 71.1162 45.5737 72.0995 44.9788C73.5744 44.0865 75.3448 47.6559 78 49.4406" stroke="#1B1B1B" stroke-width="2" stroke-miterlimit="10" stroke-linejoin="round"/>
<path d="M0 57L80 57" stroke="#1B1B1B" stroke-width="2"/>
<path d="M3 44L11 52M11 44L3 52" stroke="#1B1B1B" stroke-width="2"/>
</svg>
