<svg width="80" height="80" viewBox="0 0 80 80" fill="none" xmlns="http://www.w3.org/2000/svg">
<rect x="9" width="62" height="7" fill="#1B1B1B"/>
<rect x="9" y="73" width="62" height="7" fill="#1B1B1B"/>
<path d="M16 6H64V16.166C64 23.9862 59.4421 31.089 52.3331 34.3473L40 40L27.6669 34.3473C20.5579 31.089 16 23.9862 16 16.166V6Z" stroke="#1B1B1B" stroke-width="2"/>
<path d="M40 36L50.5376 31.2399C55.3275 29.0761 58.762 24.899 60 20H20C21.238 24.899 24.6725 29.0761 29.4624 31.2399L40 36Z" fill="#1B1B1B"/>
<path d="M16 74H64V63.834C64 56.0138 59.4421 48.911 52.3331 45.6527L40 40L27.6669 45.6527C20.5579 48.911 16 56.0138 16 63.8339C16 67.0011 16 70.234 16 74Z" stroke="#1B1B1B" stroke-width="2"/>
<path d="M61 71H19V64.5526C19 62.6244 19.3673 59.7498 20.0528 58H59.9472C60.6327 59.7498 61 62.6244 61 64.5526V71Z" fill="#1B1B1B"/>
<rect x="38" y="35" width="4" height="23" fill="#1B1B1B"/>
</svg>
