<svg width="80" height="80" viewBox="0 0 80 80" fill="none" xmlns="http://www.w3.org/2000/svg">
<rect x="1" y="19" width="78" height="50" stroke="#1B1B1B" stroke-width="2"/>
<path fill-rule="evenodd" clip-rule="evenodd" d="M0 10H80V19H0V10ZM73 17C71.8954 17 71 16.1046 71 15C71 13.8954 71.8954 13 73 13C74.1046 13 75 13.8954 75 15C75 16.1046 74.1046 17 73 17ZM65 17C63.8954 17 63 16.1046 63 15C63 13.8954 63.8954 13 65 13C66.1046 13 67 13.8954 67 15C67 16.1046 66.1046 17 65 17ZM55 15C55 16.1046 55.8954 17 57 17C58.1046 17 59 16.1046 59 15C59 13.8954 58.1046 13 57 13C55.8954 13 55 13.8954 55 15Z" fill="#1B1B1B"/>
<path d="M44 63L74 63" stroke="#1B1B1B" stroke-width="2"/>
<path d="M54 56.8L54.4259 57.2259C55.8901 58.6901 58.3115 58.518 59.5539 56.8615L60.764 55.248C61.4076 54.3899 61.1169 53.1584 60.1575 52.6787V52.6787C59.382 52.291 58.4391 52.5414 57.9581 53.2628L57.9021 53.3469C57.4795 53.9808 57.4928 54.81 57.9356 55.4299L59.4819 57.5947C60.3438 58.8013 62.1202 58.8498 63.0465 57.6919L63.3704 57.2869C63.9442 56.5698 64.9837 56.4378 65.7185 56.9889V56.9889C65.9042 57.1281 66.0594 57.304 66.1746 57.5055L66.6717 58.3755C67.1737 59.254 68.3149 59.5234 69.1567 58.9622V58.9622C69.6782 58.6145 70.3459 58.573 70.9065 58.8532L71.1373 58.9687C71.4416 59.1208 71.7771 59.2 72.1173 59.2H74" stroke="#1B1B1B" stroke-width="2"/>
<path d="M45 54L50 59M50 54L45 59" stroke="#1B1B1B" stroke-width="2"/>
<path d="M6 45H34" stroke="#1B1B1B" stroke-width="2"/>
<path d="M6 51H34" stroke="#1B1B1B" stroke-width="2"/>
<path d="M6 57H34" stroke="#1B1B1B" stroke-width="2"/>
<path d="M6 63H25" stroke="#1B1B1B" stroke-width="2"/>
<rect x="7" y="25" width="14" height="14" stroke="#1B1B1B" stroke-width="2"/>
</svg>
