<svg width="80" height="80" viewBox="0 0 80 80" fill="none" xmlns="http://www.w3.org/2000/svg">
<path d="M5 22V69H75V19H24" stroke="#1B1B1B" stroke-width="2"/>
<path fill-rule="evenodd" clip-rule="evenodd" d="M25 10H76V19H25V10ZM68 17C66.8954 17 66 16.1046 66 15C66 13.8954 66.8954 13 68 13C69.1046 13 70 13.8954 70 15C70 16.1046 69.1046 17 68 17ZM60 17C58.8954 17 58 16.1046 58 15C58 13.8954 58.8954 13 60 13C61.1046 13 62 13.8954 62 15C62 16.1046 61.1046 17 60 17ZM50 15C50 16.1046 50.8954 17 52 17C53.1046 17 54 16.1046 54 15C54 13.8954 53.1046 13 52 13C50.8954 13 50 13.8954 50 15Z" fill="#1B1B1B"/>
<path d="M24 7V6H25V7H24ZM0.999998 7H-1.90735e-06V6H0.999998V7ZM24 22H25V23H24V22ZM20 22H19V21H20V22ZM20 28H21L19.2929 28.7071L20 28ZM14 22V21H14.4142L14.7071 21.2929L14 22ZM0.999998 22V23H-1.90735e-06V22H0.999998ZM24 8H0.999998V6H24V8ZM23 22V7H25V22H23ZM20 21H24V23H20V21ZM19 28V22H21V28H19ZM14.7071 21.2929L20.7071 27.2929L19.2929 28.7071L13.2929 22.7071L14.7071 21.2929ZM0.999998 21H14V23H0.999998V21ZM2 7V22H-1.90735e-06V7H2Z" fill="#1B1B1B"/>
<circle r="1.5" transform="matrix(-1 0 0 1 17.5 14.5)" fill="#1B1B1B"/>
<circle r="1.5" transform="matrix(-1 0 0 1 12.5 14.5)" fill="#1B1B1B"/>
<circle r="1.5" transform="matrix(-1 0 0 1 7.5 14.5)" fill="#1B1B1B"/>
<path fill-rule="evenodd" clip-rule="evenodd" d="M52 52H72V66H52V52ZM64 56C64 57.1046 63.1046 58 62 58C60.8954 58 60 57.1046 60 56C60 54.8954 60.8954 54 62 54C63.1046 54 64 54.8954 64 56ZM62 59C59.9504 59 58.2485 60.5826 58.0999 62.6268L58 64H66L65.9001 62.6268C65.7515 60.5826 64.0496 59 62 59Z" fill="#1B1B1B"/>
<path fill-rule="evenodd" clip-rule="evenodd" d="M31.1119 33.5767C31.0383 34.0403 31 34.5157 31 35C31 38.9187 33.5044 42.2524 37 43.4879V46.3314C35.0401 46.7716 33.2354 47.6343 31.6895 48.8233C33.2983 50.7251 36.2936 52.1818 39.9996 52.1818C43.706 52.1818 46.7015 50.7247 48.3103 48.8227C46.7643 47.6339 44.9597 46.7713 43 46.3313V43.4879C46.4956 42.2524 49 38.9187 49 35C49 34.3117 48.9227 33.6415 48.7764 32.9976C46.1089 32.9391 43.6988 31.836 41.939 30.0812C40.1112 32.4639 37.2349 34 33.9999 34C32.9958 34 32.0263 33.852 31.1119 33.5767ZM51 35C51 39.2825 48.5527 42.9934 44.9804 44.8106C47.2337 45.5672 49.2628 46.8237 50.9311 48.4531L50.9309 48.4534C51.4262 48.9372 51.8897 49.4538 52.3178 50H50V64H24L24.3995 58.5071C24.8681 52.0636 29.1947 46.7667 35.0197 44.8106C31.4473 42.9935 29 39.2826 29 35C29 28.9249 33.9249 24 40 24C46.0751 24 51 28.9249 51 35Z" fill="#1B1B1B"/>
</svg>
