<svg width="80" height="80" viewBox="0 0 80 80" fill="none" xmlns="http://www.w3.org/2000/svg">
<rect x="1" y="19" width="78" height="50" stroke="#1B1B1B" stroke-width="2"/>
<path fill-rule="evenodd" clip-rule="evenodd" d="M0 10H80V19H0V10ZM73 17C71.8954 17 71 16.1046 71 15C71 13.8954 71.8954 13 73 13C74.1046 13 75 13.8954 75 15C75 16.1046 74.1046 17 73 17ZM65 17C63.8954 17 63 16.1046 63 15C63 13.8954 63.8954 13 65 13C66.1046 13 67 13.8954 67 15C67 16.1046 66.1046 17 65 17ZM55 15C55 16.1046 55.8954 17 57 17C58.1046 17 59 16.1046 59 15C59 13.8954 58.1046 13 57 13C55.8954 13 55 13.8954 55 15Z" fill="#1B1B1B"/>
<rect x="18" y="30" width="44" height="28" stroke="#1B1B1B" stroke-width="2"/>
<path d="M58 34L40 47L22 34" stroke="#1B1B1B" stroke-width="2"/>
<path d="M54 50L44.375 44M26 50L35.625 44" stroke="#1B1B1B" stroke-width="2"/>
</svg>
