<?xml version="1.0" encoding="utf-8"?>
<!-- Generator: Adobe Illustrator 26.0.1, SVG Export Plug-In . SVG Version: 6.00 Build 0)  -->
<svg version="1.1" id="Layer_1" xmlns="http://www.w3.org/2000/svg" xmlns:xlink="http://www.w3.org/1999/xlink" x="0px" y="0px"
	 viewBox="0 0 36 36" style="enable-background:new 0 0 36 36;" xml:space="preserve">
<style type="text/css">
	.st0{fill:#FFFFFF;}
</style>
<path class="st0" d="M8.1,31c-0.7-0.7-1.1-1.7-1-2.8V7.9C7,6.8,7.4,5.8,8.1,5C8.9,4.3,9.9,3.9,11,4h14c1.1-0.1,2.1,0.3,2.9,1
	c0.7,0.8,1.1,1.8,1,2.9v15.2c0,0.4,0,0.7-0.1,1.1c-0.1,0.3-0.2,0.6-0.4,0.8c-0.2,0.2-0.3,0.4-0.5,0.6c-0.5,0.5-0.8,1.2-1,1.9
	c-0.3,1.2,0.4,2.5,1.5,3c0.2,0.1,0.3,0.2,0.4,0.3c0.1,0.1,0.1,0.3,0.1,0.5c0,0.2-0.1,0.4-0.2,0.6c-0.2,0.2-0.4,0.2-0.6,0.2H10.9
	C9.9,32.1,8.9,31.7,8.1,31z M9.7,24.8c0.4-0.1,0.9-0.2,1.3-0.2h14.5c0.8,0.1,1.6-0.5,1.7-1.3c0-0.1,0-0.3,0-0.4v-15
	c0-0.6-0.2-1.2-0.6-1.7c-0.5-0.4-1.1-0.6-1.7-0.6H11c-0.6,0-1.2,0.2-1.7,0.6C8.9,6.7,8.7,7.3,8.8,7.9v17.4C9,25.1,9.4,24.9,9.7,24.8
	z M26,30.4c-0.5-0.6-0.8-1.3-0.9-2c-0.1-0.8,0.1-1.6,0.5-2.3c-0.1,0-0.2,0.1-0.4,0.1c-0.1,0-0.3,0-0.4,0H11.1
	c-0.6,0-1.2,0.2-1.7,0.6c-0.4,0.4-0.6,0.9-0.6,1.5c0,0.6,0.2,1.1,0.6,1.6c0.5,0.4,1,0.6,1.6,0.5L26,30.4z M10.3,5.2h1.4v20.3h-1.4
	V5.2z M13.7,11.7c-0.1-0.1-0.2-0.3-0.2-0.5c0-0.4,0.3-0.7,0.7-0.7c0,0,0,0,0,0h10.5c0.2,0,0.3,0.1,0.5,0.2c0.1,0.1,0.2,0.3,0.2,0.5
	c0,0.2-0.1,0.4-0.2,0.5c-0.1,0.1-0.3,0.2-0.5,0.2H14.2C14,11.9,13.8,11.9,13.7,11.7z M13.7,15.3c-0.1-0.1-0.2-0.3-0.2-0.5
	c0-0.2,0.1-0.4,0.2-0.5c0.1-0.1,0.3-0.2,0.5-0.2h7.6c0.2,0,0.4,0.1,0.5,0.2c0.1,0.1,0.2,0.3,0.2,0.5c0,0.2-0.1,0.4-0.2,0.5
	c-0.1,0.1-0.3,0.2-0.5,0.2h-7.6C14,15.5,13.8,15.4,13.7,15.3z"/>
</svg>
