<?xml version="1.0" encoding="utf-8"?>
<!-- Generator: Adobe Illustrator 26.0.1, SVG Export Plug-In . SVG Version: 6.00 Build 0)  -->
<svg version="1.1" id="Layer_1" xmlns="http://www.w3.org/2000/svg" xmlns:xlink="http://www.w3.org/1999/xlink" x="0px" y="0px"
	 viewBox="0 0 36 36" style="enable-background:new 0 0 36 36;" xml:space="preserve">
<style type="text/css">
	.st0{fill:#FFFFFF;}
</style>
<path class="st0" d="M3.8,30.9c-0.8-0.9-1.2-2.1-1.1-3.4v-19C2.6,7.3,3,6.1,3.8,5.1C4.8,4.3,6,3.9,7.2,4h21.5
	c1.2-0.1,2.5,0.3,3.4,1.1c0.8,0.9,1.2,2.1,1.1,3.4v19c0.1,1.2-0.3,2.5-1.1,3.4c-0.9,0.8-2.2,1.2-3.4,1.1H7.2
	C6,32.1,4.8,31.7,3.8,30.9z M28.9,30.1c1.2,0.1,2.4-0.7,2.5-2c0-0.2,0-0.4,0-0.6V13.4c0.1-0.7-0.2-1.4-0.7-1.9
	c-0.5-0.5-1.2-0.7-1.9-0.6H7.1c-0.7,0-1.4,0.2-1.9,0.6c-0.5,0.5-0.7,1.2-0.7,1.9v14.1c-0.1,0.7,0.2,1.4,0.7,1.9
	c0.5,0.5,1.2,0.7,1.9,0.6L28.9,30.1z M9.2,21.4c-0.1-0.1-0.1-0.3-0.1-0.5V20c0-0.2,0-0.3,0.1-0.5c0.2-0.1,0.3-0.1,0.5-0.1h0.9
	c0.2,0,0.3,0,0.5,0.1c0.1,0.1,0.1,0.3,0.1,0.5v0.9c0,0.2,0,0.3-0.1,0.5c-0.1,0.1-0.3,0.1-0.5,0.1H9.7C9.5,21.5,9.3,21.5,9.2,21.4z
	 M9.2,26.6c-0.1-0.1-0.1-0.3-0.1-0.5v-0.9c0-0.2,0-0.3,0.1-0.5c0.1-0.1,0.3-0.1,0.5-0.1h0.9c0.2,0,0.3,0,0.5,0.1
	c0.1,0.1,0.1,0.3,0.1,0.5v0.9c0,0.2,0,0.3-0.1,0.5c-0.1,0.1-0.3,0.1-0.5,0.1H9.7C9.5,26.7,9.3,26.7,9.2,26.6z M14.4,16.2
	c-0.1-0.1-0.2-0.3-0.1-0.5v-0.9c0-0.2,0-0.3,0.1-0.5c0.1-0.1,0.3-0.1,0.5-0.1h0.9c0.2,0,0.3,0,0.5,0.1c0.1,0.1,0.2,0.3,0.1,0.5v0.9
	c0,0.2,0,0.4-0.1,0.5c-0.1,0.1-0.3,0.1-0.5,0.1h-0.9C14.7,16.4,14.6,16.3,14.4,16.2z M14.4,21.4c-0.1-0.1-0.1-0.3-0.1-0.5V20
	c0-0.2,0-0.3,0.1-0.5c0.1-0.1,0.3-0.1,0.5-0.1h0.9c0.2,0,0.3,0,0.5,0.1c0.1,0.1,0.2,0.3,0.1,0.5v0.9c0,0.2,0,0.3-0.1,0.5
	c-0.1,0.1-0.3,0.1-0.5,0.1h-0.9C14.8,21.5,14.6,21.5,14.4,21.4z M14.4,26.6c-0.1-0.1-0.1-0.3-0.1-0.5v-0.9c0-0.2,0-0.3,0.1-0.5
	c0.1-0.1,0.3-0.1,0.5-0.1h0.9c0.2,0,0.3,0,0.5,0.1c0.1,0.1,0.2,0.3,0.1,0.5v0.9c0,0.2,0,0.3-0.1,0.5c-0.1,0.1-0.3,0.1-0.5,0.1h-0.9
	C14.7,26.7,14.6,26.7,14.4,26.6z M19.7,16.2c-0.1-0.1-0.1-0.2-0.1-0.5v-0.9c0-0.2,0-0.3,0.1-0.5c0.1-0.1,0.3-0.1,0.5-0.1h0.9
	c0.2,0,0.3,0,0.5,0.1c0.1,0.1,0.2,0.3,0.1,0.5v0.9c0,0.2,0,0.4-0.1,0.5c-0.1,0.1-0.3,0.1-0.5,0.1h-0.9C20,16.4,19.8,16.3,19.7,16.2z
	 M19.7,21.4c-0.1-0.1-0.2-0.3-0.1-0.5V20c0-0.2,0-0.3,0.1-0.5c0.1-0.1,0.3-0.1,0.5-0.1h0.9c0.2,0,0.3,0,0.5,0.1
	c0.1,0.1,0.2,0.3,0.1,0.5v0.9c0,0.2,0,0.3-0.1,0.5c-0.1,0.1-0.3,0.1-0.5,0.1h-0.9C20,21.5,19.8,21.5,19.7,21.4z M19.7,26.6
	c-0.1-0.1-0.1-0.3-0.1-0.5v-0.9c0-0.2,0-0.3,0.1-0.5c0.1-0.1,0.3-0.1,0.5-0.1h0.9c0.2,0,0.3,0,0.5,0.1c0.1,0.1,0.2,0.3,0.1,0.5v0.9
	c0,0.2,0,0.3-0.1,0.5c-0.1,0.1-0.3,0.1-0.5,0.1h-0.9C20,26.7,19.8,26.7,19.7,26.6z M24.9,16.2c-0.1-0.1-0.1-0.3-0.1-0.5v-0.9
	c0-0.2,0-0.3,0.1-0.5c0.1-0.1,0.3-0.1,0.5-0.1h0.9c0.2,0,0.3,0,0.5,0.1c0.1,0.1,0.1,0.3,0.1,0.5v0.9c0,0.2,0,0.3-0.1,0.5
	c-0.1,0.1-0.3,0.1-0.5,0.1h-0.9C25.3,16.4,25.1,16.3,24.9,16.2z M24.9,21.4c-0.1-0.1-0.1-0.3-0.1-0.5V20c0-0.2,0-0.3,0.1-0.5
	c0.2-0.1,0.3-0.1,0.5-0.1h0.9c0.2,0,0.3,0,0.5,0.1c0.1,0.1,0.1,0.3,0.1,0.5v0.9c0,0.2,0,0.3-0.1,0.5c-0.1,0.1-0.3,0.1-0.5,0.1h-0.9
	C25.3,21.5,25.1,21.5,24.9,21.4z"/>
</svg>
