<?xml version="1.0" encoding="utf-8"?>
<!-- Generator: Adobe Illustrator 26.0.1, SVG Export Plug-In . SVG Version: 6.00 Build 0)  -->
<svg version="1.1" id="Layer_1" xmlns="http://www.w3.org/2000/svg" xmlns:xlink="http://www.w3.org/1999/xlink" x="0px" y="0px"
	 viewBox="0 0 36 36" style="enable-background:new 0 0 36 36;" xml:space="preserve">
<style type="text/css">
	.st0{fill:#FFFFFF;}
</style>
<path class="st0" d="M7.6,30.2c-0.2-0.3-0.3-0.6-0.3-0.9v-3.6H5.6c-0.9,0-1.9-0.2-2.7-0.6c-0.8-0.4-1.4-1-1.8-1.7
	c-0.4-0.9-0.7-1.8-0.6-2.8V9.1c0-1,0.2-1.9,0.6-2.8c0.4-0.7,1-1.3,1.8-1.7C3.8,4.2,4.7,4,5.6,4h17.8c1,0,1.9,0.2,2.8,0.6
	c0.7,0.4,1.4,1,1.8,1.7c0.4,0.9,0.6,1.8,0.6,2.8v2.1H27v-2c0.1-1-0.3-2.1-1-2.8c-0.8-0.7-1.7-1-2.7-0.9H5.8c-1-0.1-2,0.3-2.8,0.9
	C2.3,7.1,1.9,8.1,2,9.2v11.3c-0.1,1,0.3,2,1,2.8c0.7,0.7,1.7,1,2.7,0.9H8c0.2,0,0.4,0.1,0.6,0.2c0.2,0.2,0.2,0.4,0.2,0.6v3.7l5.3-5
	l1,1.2l-5.2,4.8c-0.2,0.2-0.5,0.4-0.8,0.5c-0.2,0.1-0.5,0.2-0.7,0.2C8.1,30.5,7.8,30.4,7.6,30.2z M28.4,31.8
	c-0.2-0.2-0.5-0.4-0.7-0.5l-4.1-3.5h-5.5c-0.9,0-1.7-0.2-2.5-0.5c-0.7-0.3-1.2-0.9-1.6-1.6c-0.4-0.8-0.6-1.6-0.5-2.5v-8
	c0-0.9,0.2-1.7,0.5-2.5c0.4-0.7,0.9-1.2,1.6-1.6c0.8-0.4,1.7-0.6,2.5-0.5h12.7c0.9,0,1.7,0.2,2.5,0.5c0.7,0.3,1.3,0.9,1.6,1.6
	c0.4,0.8,0.6,1.6,0.6,2.5v8c0,0.9-0.2,1.7-0.6,2.5c-0.4,0.7-0.9,1.2-1.6,1.6c-0.8,0.4-1.6,0.6-2.5,0.5h-0.7v3.1
	c0,0.3-0.1,0.6-0.3,0.9C29.6,31.9,29.3,32,29,32C28.8,32,28.6,31.9,28.4,31.8z M28.6,27.1c0-0.4,0.2-0.7,0.6-0.8c0,0,0.1,0,0.1,0
	h1.3c0.9,0.1,1.7-0.2,2.4-0.8c0.6-0.7,0.9-1.5,0.8-2.4v-7.8c0.1-0.9-0.2-1.8-0.8-2.4c-0.7-0.6-1.5-0.9-2.4-0.8H18.2
	c-0.9-0.1-1.7,0.2-2.4,0.8c-0.6,0.7-0.9,1.5-0.8,2.4V23c-0.1,0.9,0.2,1.8,0.9,2.4c0.7,0.6,1.5,0.9,2.4,0.8h5.2c0.2,0,0.4,0,0.7,0.1
	c0.2,0.1,0.4,0.2,0.6,0.4l3.9,3.5L28.6,27.1z"/>
</svg>
