<?xml version="1.0" encoding="utf-8"?>
<!-- Generator: Adobe Illustrator 26.0.1, SVG Export Plug-In . SVG Version: 6.00 Build 0)  -->
<svg version="1.1" id="Layer_1" xmlns="http://www.w3.org/2000/svg" xmlns:xlink="http://www.w3.org/1999/xlink" x="0px" y="0px"
	 viewBox="0 0 36 36" style="enable-background:new 0 0 36 36;" xml:space="preserve">
<style type="text/css">
	.st0{fill:#FFFFFF;}
</style>
<path class="st0" d="M26.5,23c3,0,5.5,2.5,5.5,5.5S29.5,34,26.5,34S21,31.5,21,28.5C21,25.5,23.5,23,26.5,23"/>
<path class="st0" d="M26.5,23c3,0,5.5,2.5,5.5,5.5S29.5,34,26.5,34S21,31.5,21,28.5C21,25.5,23.5,23,26.5,23 M26.5,22
	c-3.6,0-6.5,2.9-6.5,6.5s2.9,6.5,6.5,6.5s6.5-2.9,6.5-6.5S30.1,22,26.5,22z"/>
<polygon class="st0" points="29.3,28 27.2,25.9 26.5,25.2 25.8,25.9 23.7,28 24.4,28.7 26,27.1 26,32 27,32 27,27.1 28.6,28.7 "/>
<path class="st0" d="M23.1,19.9H12.8c-0.2,0-0.3,0.1-0.5,0.2c-0.1,0.1-0.2,0.3-0.2,0.5c0,0.2,0.1,0.3,0.2,0.5
	c0.1,0.1,0.3,0.2,0.5,0.2h10.3c0.2,0,0.3-0.1,0.5-0.2c0.1-0.1,0.2-0.3,0.2-0.5c0-0.2-0.1-0.3-0.2-0.5C23.4,20,23.3,19.9,23.1,19.9z"
	/>
<path class="st0" d="M12.8,24.5c-0.4,0-0.7,0.3-0.7,0.6c0,0,0,0,0,0c0,0.2,0.1,0.3,0.2,0.5c0.1,0.1,0.3,0.2,0.5,0.2h6.8
	c0.2-0.4,0.4-0.9,0.6-1.3H12.8z"/>
<path class="st0" d="M19.2,30.4H11c-0.6,0-1.2-0.2-1.7-0.6c-0.4-0.5-0.6-1.1-0.6-1.7V7.9c0-0.6,0.2-1.2,0.6-1.7
	c0.5-0.4,1.1-0.6,1.7-0.6h6.2v7.9c-0.1,0.6,0.1,1.2,0.5,1.7c0.5,0.4,1.1,0.6,1.7,0.6h7.8V21c0.6,0,1.1,0.2,1.6,0.4v-5.5
	c0-0.4,0-0.8-0.1-1.2c0-0.3-0.1-0.6-0.3-0.9c-0.2-0.3-0.4-0.6-0.7-0.9l-7.7-7.8c-0.2-0.3-0.5-0.5-0.8-0.7c-0.3-0.2-0.6-0.3-0.9-0.3
	C18,4,17.7,4,17.3,4H11C9.9,3.9,8.9,4.3,8.1,5C7.4,5.8,7,6.8,7.1,7.9v20.2c-0.1,1.1,0.3,2.1,1,2.9c0.8,0.7,1.8,1.1,2.9,1h8.9
	C19.6,31.5,19.4,30.9,19.2,30.4z M18.7,5.9l8.2,8.3h-7.3c-0.2,0-0.5,0-0.6-0.2c-0.1-0.2-0.2-0.4-0.2-0.6V5.9z"/>
</svg>
