<?xml version="1.0" encoding="utf-8"?>
<!-- Generator: Adobe Illustrator 26.0.1, SVG Export Plug-In . SVG Version: 6.00 Build 0)  -->
<svg version="1.1" id="Layer_1" xmlns="http://www.w3.org/2000/svg" xmlns:xlink="http://www.w3.org/1999/xlink" x="0px" y="0px"
	 viewBox="0 0 36 36" style="enable-background:new 0 0 36 36;" xml:space="preserve">
<style type="text/css">
	.st0{fill:#FFFFFF;}
</style>
<path class="st0" d="M8.1,31c-0.7-0.8-1.1-1.8-1-2.9V7.9C7,6.8,7.4,5.8,8.1,5C8.9,4.3,9.9,3.9,11,4h6.3c0.4,0,0.7,0,1.1,0.1
	c0.3,0.1,0.6,0.2,0.9,0.3c0.3,0.2,0.6,0.4,0.8,0.7l7.7,7.8c0.3,0.3,0.5,0.5,0.7,0.9c0.2,0.3,0.3,0.6,0.3,0.9
	c0.1,0.4,0.1,0.8,0.1,1.2v12.3c0.1,1.1-0.3,2.1-1,2.9c-0.8,0.7-1.8,1.1-2.9,1H11C9.9,32.1,8.9,31.7,8.1,31z M24.9,30.4
	c1.1,0.2,2.1-0.6,2.3-1.7c0-0.2,0-0.4,0-0.6V15.8h-7.8c-0.6,0-1.2-0.2-1.7-0.6c-0.4-0.5-0.6-1.1-0.5-1.7V5.6h-6.2
	c-0.6,0-1.3,0.2-1.7,0.6C8.9,6.7,8.7,7.3,8.8,7.9v20.2c0,0.6,0.2,1.2,0.6,1.7c0.5,0.4,1.1,0.6,1.7,0.6L24.9,30.4z M12.8,19.9
	c-0.2,0-0.3,0.1-0.5,0.2c-0.1,0.1-0.2,0.3-0.2,0.5c0,0.2,0.1,0.3,0.2,0.5c0.1,0.1,0.3,0.2,0.5,0.2h10.3c0.2,0,0.3-0.1,0.5-0.2
	c0.1-0.1,0.2-0.3,0.2-0.5c0-0.2-0.1-0.3-0.2-0.5c-0.1-0.1-0.3-0.2-0.5-0.2H12.8z M12.8,24.5c-0.4,0-0.7,0.3-0.7,0.6c0,0,0,0,0,0
	c0,0.2,0.1,0.3,0.2,0.5c0.1,0.1,0.3,0.2,0.5,0.2h10.3c0.2,0,0.3-0.1,0.5-0.2c0.1-0.1,0.2-0.3,0.2-0.5c0-0.2-0.1-0.3-0.2-0.5
	c-0.1-0.1-0.3-0.2-0.5-0.2H12.8z M26.9,14.2l-8.2-8.3v7.4c0,0.2,0.1,0.5,0.2,0.6c0.2,0.1,0.4,0.2,0.6,0.2L26.9,14.2z"/>
</svg>
