<?xml version="1.0" encoding="utf-8"?>
<!-- Generator: Adobe Illustrator 26.0.1, SVG Export Plug-In . SVG Version: 6.00 Build 0)  -->
<svg version="1.1" id="Layer_1" xmlns="http://www.w3.org/2000/svg" xmlns:xlink="http://www.w3.org/1999/xlink" x="0px" y="0px"
	 viewBox="0 0 36 36" style="enable-background:new 0 0 36 36;" xml:space="preserve">
<style type="text/css">
	.st0{fill:#FFFFFF;}
</style>
<path class="st0" d="M12.6,30.9c-3.4-1.4-6.1-4.1-7.5-7.5C3.6,20,3.6,16,5.1,12.6c1.4-3.4,4.1-6,7.5-7.5c3.5-1.5,7.4-1.5,10.8,0
	c1.7,0.7,3.2,1.7,4.5,3c1.3,1.3,2.3,2.8,3,4.5c1.5,3.5,1.5,7.4,0,10.8c-0.7,1.7-1.7,3.2-3,4.5c-1.3,1.3-2.8,2.3-4.5,3
	C20,32.3,16,32.3,12.6,30.9L12.6,30.9z M22.8,29.2c2.9-1.2,5.3-3.6,6.5-6.5c1.3-3,1.3-6.4,0-9.5C28,10.3,25.7,8,22.7,6.7
	c-1.5-0.6-3.1-1-4.7-0.9c-1.6,0-3.2,0.3-4.7,0.9C8.7,8.7,5.8,13.1,5.8,18c0,1.6,0.3,3.2,1,4.7c0.6,1.5,1.5,2.8,2.6,3.9
	c1.1,1.1,2.4,2,3.9,2.6C16.3,30.5,19.8,30.5,22.8,29.2L22.8,29.2z M14.9,25.4c-0.3-0.3-0.3-0.8,0-1.1c0,0,0,0,0,0
	c0.1-0.1,0.4-0.2,0.6-0.2h2v-7.3h-1.8c-0.2,0-0.4-0.1-0.6-0.2c-0.3-0.3-0.3-0.8,0-1.1c0.2-0.2,0.4-0.2,0.6-0.2h2.7
	c0.2,0,0.5,0.1,0.6,0.3c0.2,0.2,0.2,0.4,0.2,0.7v7.9h2c0.2,0,0.4,0.1,0.6,0.2c0.3,0.3,0.3,0.8,0,1.1c0,0,0,0,0,0
	c-0.2,0.1-0.4,0.2-0.6,0.2h-5.7C15.3,25.6,15.1,25.5,14.9,25.4z M16.8,12.3c-0.3-0.3-0.5-0.7-0.5-1.1c0-0.8,0.7-1.5,1.5-1.5
	c0.4,0,0.8,0.2,1.1,0.4c0.3,0.3,0.4,0.7,0.4,1.1c0,0.8-0.7,1.5-1.5,1.5C17.5,12.7,17.1,12.6,16.8,12.3z"/>
</svg>
