<?xml version="1.0" encoding="utf-8"?>
<!-- Generator: Adobe Illustrator 26.0.1, SVG Export Plug-In . SVG Version: 6.00 Build 0)  -->
<svg version="1.1" id="Layer_1" xmlns="http://www.w3.org/2000/svg" xmlns:xlink="http://www.w3.org/1999/xlink" x="0px" y="0px"
	 viewBox="0 0 36 36" style="enable-background:new 0 0 36 36;" xml:space="preserve">
<style type="text/css">
	.st0{fill:#FFFFFF;}
</style>
<path class="st0" d="M0.6,29.5C0.2,29.1,0,28.5,0,27.9c0-1,0.3-2.1,0.7-3c0.5-1,1.2-1.9,2-2.6c0.9-0.8,2-1.4,3.1-1.9
	c1.2-0.5,2.6-0.7,3.9-0.7c0.8,0,1.5,0.1,2.2,0.2c0.7,0.1,1.4,0.4,2.1,0.6c0.7,0.3,1.3,0.6,1.9,1.1c-0.2,0.2-0.4,0.3-0.6,0.5
	c-0.2,0.2-0.4,0.4-0.5,0.6c-0.5-0.3-1-0.6-1.5-0.8c-0.5-0.2-1.1-0.4-1.7-0.5c-0.6-0.1-1.2-0.2-1.8-0.2c-1.1,0-2.1,0.2-3.2,0.5
	c-0.9,0.3-1.8,0.8-2.6,1.4c-0.7,0.6-1.3,1.3-1.8,2.1c-0.4,0.8-0.6,1.6-0.6,2.5c0,0.2,0,0.3,0.1,0.5c0.1,0.1,0.3,0.2,0.5,0.1h10
	c0,0.2,0,0.4,0.1,0.6c0.1,0.2,0.2,0.4,0.3,0.5c0.1,0.2,0.3,0.3,0.4,0.4H2.4C1.7,30,1.1,29.8,0.6,29.5z M7.4,17.5
	c-0.7-0.5-1.3-1.1-1.7-1.9C5.2,14.8,5,13.9,5,12.9c0-0.9,0.2-1.8,0.6-2.6C6,9.6,6.6,9,7.4,8.5c1.5-0.9,3.3-0.9,4.8,0
	c0.7,0.5,1.3,1.1,1.7,1.9c0.4,0.8,0.7,1.7,0.6,2.6c0,0.9-0.2,1.8-0.6,2.7c-0.4,0.8-1,1.4-1.7,1.9C10.7,18.4,8.8,18.4,7.4,17.5
	L7.4,17.5z M11.4,16.2c0.5-0.3,0.9-0.8,1.2-1.4c0.3-0.6,0.4-1.2,0.4-1.9c0-0.6-0.1-1.3-0.4-1.8c-0.3-0.5-0.7-1-1.2-1.3
	c-0.5-0.3-1.1-0.5-1.6-0.5c-0.6,0-1.2,0.2-1.6,0.5c-0.5,0.3-0.9,0.8-1.1,1.3c-0.3,0.6-0.4,1.2-0.4,1.8c0,0.7,0.1,1.3,0.4,1.9
	c0.3,0.5,0.7,1,1.2,1.3C9.2,16.8,10.5,16.8,11.4,16.2L11.4,16.2z M13.5,28c0-1,0.3-1.9,0.8-2.7c0.6-1,1.3-1.9,2.2-2.7
	c1.1-0.9,2.3-1.6,3.5-2c1.5-0.5,3.1-0.8,4.7-0.8c1.6,0,3.2,0.2,4.7,0.8c1.3,0.5,2.5,1.2,3.5,2.1c0.9,0.8,1.7,1.7,2.2,2.7
	c0.5,0.8,0.7,1.7,0.8,2.7c0,1.3-0.9,1.9-2.8,1.9H16.4C14.5,30,13.5,29.3,13.5,28z M33.6,28.4c0.2,0,0.4,0,0.6-0.1
	c0.1-0.1,0.2-0.3,0.2-0.5c0-0.7-0.3-1.4-0.6-2c-0.5-0.8-1.1-1.6-1.9-2.1c-0.9-0.7-1.9-1.3-3-1.7c-1.3-0.5-2.7-0.7-4.1-0.7
	c-1.4,0-2.8,0.2-4.1,0.7c-1.1,0.4-2.1,1-3,1.7c-0.7,0.6-1.4,1.3-1.9,2.1c-0.4,0.6-0.6,1.3-0.6,2c0,0.2,0,0.3,0.2,0.5
	c0.2,0.1,0.4,0.1,0.6,0.1H33.6z M22,17.1c-0.8-0.5-1.5-1.3-2-2.2c-0.5-0.9-0.7-2-0.7-3c0-2.1,1-4,2.7-5.1c0.8-0.5,1.8-0.8,2.8-0.8
	c1,0,1.9,0.3,2.8,0.8c0.8,0.5,1.5,1.2,2,2.1c0.5,0.9,0.8,2,0.7,3c0,1-0.2,2.1-0.7,3c-0.5,0.9-1.2,1.6-2,2.2
	c-0.8,0.5-1.8,0.8-2.8,0.8C23.8,17.9,22.8,17.6,22,17.1z M26.7,15.8c0.6-0.4,1.1-1,1.4-1.6c0.4-0.7,0.5-1.5,0.5-2.3
	c0-0.8-0.2-1.5-0.5-2.2c-0.3-0.6-0.8-1.2-1.4-1.6c-0.6-0.4-1.3-0.6-1.9-0.6c-0.7,0-1.4,0.2-2,0.6c-0.6,0.4-1.1,0.9-1.4,1.6
	c-0.4,0.7-0.5,1.4-0.5,2.2c0,0.8,0.2,1.6,0.5,2.3c0.3,0.6,0.8,1.2,1.4,1.6c0.6,0.4,1.3,0.6,2,0.6C25.5,16.4,26.2,16.2,26.7,15.8
	L26.7,15.8z"/>
</svg>
