<?xml version="1.0" encoding="utf-8"?>
<!-- Generator: Adobe Illustrator 26.0.1, SVG Export Plug-In . SVG Version: 6.00 Build 0)  -->
<svg version="1.1" id="Layer_1" xmlns="http://www.w3.org/2000/svg" xmlns:xlink="http://www.w3.org/1999/xlink" x="0px" y="0px"
	 viewBox="0 0 36 36" style="enable-background:new 0 0 36 36;" xml:space="preserve">
<style type="text/css">
	.st0{fill:#FFFFFF;}
</style>
<path class="st0" d="M1,30.8c-0.8-0.9-1.2-2.1-1.1-3.4V8.6C-0.2,7.4,0.2,6.1,1,5.2C1.9,4.4,3.1,4,4.4,4.1h27
	c1.2-0.1,2.5,0.3,3.4,1.1c0.8,0.9,1.2,2.1,1.1,3.4v18.8c0.1,1.2-0.3,2.4-1.1,3.4c-0.9,0.8-2.2,1.2-3.4,1.1h-27
	C3.1,32,1.9,31.6,1,30.8z M31.3,30c0.7,0.1,1.5-0.2,2-0.7c0.5-0.5,0.7-1.3,0.7-2V8.7c0.1-0.7-0.2-1.5-0.7-2c-0.5-0.5-1.3-0.7-2-0.7
	H4.4C3.7,5.9,3,6.2,2.4,6.7c-0.5,0.5-0.7,1.3-0.7,2v18.7c-0.1,0.7,0.2,1.5,0.7,2c0.5,0.5,1.3,0.7,2,0.7L31.3,30z M14.9,24
	c-0.3,0.2-0.6,0.2-0.9,0.1c-0.3-0.1-0.5-0.4-0.4-0.7V12.6c0-0.3,0.2-0.6,0.5-0.7c0.3-0.1,0.6-0.1,0.9,0.1l8.8,5.3
	c0.3,0.1,0.4,0.4,0.4,0.8c0,0.3-0.2,0.6-0.4,0.8L14.9,24z"/>
</svg>
