<!-- Generated by IcoMoon.io -->
<svg version="1.1" xmlns="http://www.w3.org/2000/svg" width="30" height="32" viewBox="0 0 30 32">
<title>globe-2</title>
<path fill="#0b4779" d="M15.238 0.158c8.405 0 15.238 6.833 15.238 15.238 0 8.256-6.59 14.987-14.789 15.225-0.147 0.014-0.298 0.014-0.449 0.014h-0.034c-0.139 0-0.279 0-0.415-0.014-8.199-0.237-14.789-6.969-14.789-15.225 0-8.405 6.833-15.238 15.238-15.238zM14.367 2.063c-1.161 0.404-2.318 1.597-3.265 3.551-0.285 0.588-0.543 1.247-0.775 1.946h4.041v-5.497zM19.374 5.614c-0.947-1.954-2.104-3.147-3.265-3.551v5.497h4.041c-0.232-0.699-0.491-1.358-0.775-1.946zM10.898 2.62c-2.704 0.916-5.027 2.662-6.653 4.939h4.245c0.293-0.97 0.638-1.89 1.034-2.707 0.403-0.832 0.861-1.579 1.374-2.231zM26.231 7.559c-1.626-2.277-3.949-4.022-6.653-4.939 0.514 0.652 0.971 1.399 1.374 2.231 0.396 0.818 0.741 1.738 1.034 2.707h4.245zM3.197 9.301c-0.803 1.586-1.309 3.352-1.429 5.225h5.66c0.052-1.85 0.259-3.607 0.612-5.224h-4.844zM14.367 9.301h-4.531c-0.377 1.586-0.609 3.353-0.667 5.225h5.197v-5.224zM16.109 9.301v5.225h5.197c-0.058-1.871-0.289-3.639-0.667-5.224h-4.531zM27.279 9.301h-4.844c0.354 1.618 0.561 3.375 0.612 5.225h5.66c-0.119-1.872-0.625-3.638-1.429-5.224zM1.769 16.267c0.117 1.873 0.626 3.637 1.429 5.225h4.83c-0.353-1.613-0.547-3.378-0.599-5.225h-5.66zM14.367 16.267h-5.197c0.057 1.873 0.289 3.64 0.667 5.225h4.531v-5.225zM16.109 16.267v5.225h4.531c0.378-1.585 0.61-3.351 0.667-5.225h-5.197zM28.707 16.267h-5.66c-0.052 1.847-0.246 3.611-0.599 5.225h4.83c0.802-1.587 1.311-3.352 1.429-5.225zM4.245 23.233c1.629 2.283 3.956 4.037 6.667 4.952-0.518-0.657-0.981-1.42-1.388-2.258-0.397-0.819-0.74-1.724-1.034-2.694h-4.245zM14.367 23.233h-4.041c0.232 0.697 0.491 1.344 0.775 1.932 0.947 1.954 2.104 3.171 3.265 3.578v-5.51zM16.109 23.233v5.51c1.161-0.408 2.318-1.625 3.265-3.578 0.285-0.588 0.543-1.235 0.775-1.932h-4.041zM26.231 23.233h-4.245c-0.294 0.97-0.637 1.875-1.034 2.694-0.407 0.839-0.869 1.601-1.388 2.258 2.711-0.916 5.038-2.669 6.667-4.952z"></path>
</svg>
