<!-- Generated by IcoMoon.io -->
<svg version="1.1" xmlns="http://www.w3.org/2000/svg" width="32" height="32" viewBox="0 0 32 32">
<title>language-translation</title>
<path fill="none" stroke="#1b1b1b" stroke-width="0.8" stroke-miterlimit="4" stroke-linecap="butt" stroke-linejoin="miter" d="M22.82 12.8l1.58-1.6M22.82 12.8l-1.62-1.6M22.82 12.8v-2.8c0-1.767-1.433-3.2-3.2-3.2h-3.22"></path>
<path fill="none" stroke="#1b1b1b" stroke-width="0.8" stroke-miterlimit="4" stroke-linecap="butt" stroke-linejoin="miter" d="M9.18 19.2l-1.58 1.6M9.18 19.2l1.62 1.6M9.18 19.2v2.8c0 1.767 1.433 3.2 3.2 3.2h3.22"></path>
<path d="M1.2 1.2v-0.4h-0.4v0.4h0.4zM14 1.2h0.4v-0.4h-0.4v0.4zM1.2 12.8h-0.4v0.4h0.4v-0.4zM2.8 12.8h0.4v-0.4h-0.4v0.4zM2.8 17.2h-0.4l0.647 0.315-0.247-0.315zM8.4 12.8v-0.4h-0.138l-0.109 0.085 0.247 0.315zM14 12.8v0.4h0.4v-0.4h-0.4zM1.2 1.6h12.8v-0.8h-12.8v0.8zM1.6 12.8v-11.6h-0.8v11.6h0.8zM2.8 12.4h-1.6v0.8h1.6v-0.8zM3.2 17.2v-4.4h-0.8v4.4h0.8zM8.153 12.485l-5.6 4.4 0.494 0.629 5.6-4.4-0.494-0.629zM14 12.4h-5.6v0.8h5.6v-0.8zM13.6 1.2v11.6h0.8v-11.6h-0.8z"></path>
<path d="M30.8 15.2v-0.4h0.4v0.4h-0.4zM18 15.2h-0.4v-0.4h0.4v0.4zM30.8 26.8h0.4v0.4h-0.4v-0.4zM29.2 26.8h-0.4v-0.4h0.4v0.4zM29.2 31.2h0.4l-0.647 0.315 0.247-0.315zM23.6 26.8v-0.4h0.138l0.109 0.085-0.247 0.315zM18 26.8v0.4h-0.4v-0.4h0.4zM30.8 15.6h-12.8v-0.8h12.8v0.8zM30.4 26.8v-11.6h0.8v11.6h-0.8zM29.2 26.4h1.6v0.8h-1.6v-0.8zM28.8 31.2v-4.4h0.8v4.4h-0.8zM23.847 26.485l5.6 4.4-0.494 0.629-5.6-4.4 0.494-0.629zM18 26.4h5.6v0.8h-5.6v-0.8zM18.4 15.2v11.6h-0.8v-11.6h0.8z"></path>
<path d="M25.287 21.656l-0.713-1.894c-0.058-0.146-0.116-0.332-0.176-0.558-0.026 0.113-0.055 0.217-0.086 0.313-0.031 0.094-0.060 0.176-0.086 0.248l-0.713 1.89h1.775zM26.882 23.6h-0.652c-0.074 0-0.134-0.018-0.18-0.054-0.046-0.038-0.080-0.085-0.104-0.14l-0.432-1.145h-2.232l-0.432 1.145c-0.019 0.048-0.053 0.092-0.101 0.133s-0.108 0.061-0.18 0.061h-0.652l2.056-5.184h0.853l2.056 5.184z"></path>
<path d="M8.638 6.162c-0.258 0.678-0.6 1.242-1.032 1.71-0.462-0.486-0.816-1.062-1.074-1.71h2.106zM10.342 6.162v-0.696h-2.382v-0.948h-0.726v0.948h-2.352v0.696h0.858c0.324 0.876 0.738 1.626 1.278 2.244-0.606 0.462-1.356 0.804-2.244 1.038 0.144 0.174 0.366 0.51 0.45 0.696 0.912-0.288 1.686-0.678 2.34-1.2 0.63 0.534 1.41 0.936 2.376 1.182 0.108-0.204 0.336-0.54 0.51-0.714-0.912-0.204-1.668-0.558-2.286-1.032 0.552-0.6 0.99-1.326 1.314-2.214h0.864z"></path>
</svg>
